<?xml version="1.0" standalone="no"?>
<!DOCTYPE svg PUBLIC "-//W3C//DTD SVG 1.1//EN" "http://www.w3.org/Graphics/SVG/1.1/DTD/svg11.dtd" >
<svg xmlns="http://www.w3.org/2000/svg">
<metadata>
This is a custom SVG webfont generated by Font Squirrel.
Copyright   : C Eduardo Recife 2001  wwwmisprintedtypecom 
</metadata>
<defs>
<font id="AstonishedRegular" horiz-adv-x="665" >
<font-face units-per-em="2048" ascent="1638" descent="-410" />
<missing-glyph horiz-adv-x="511" />
<glyph unicode=" "  horiz-adv-x="511" />
<glyph unicode="&#x09;" horiz-adv-x="511" />
<glyph unicode="&#xa0;" horiz-adv-x="511" />
<glyph unicode="!" horiz-adv-x="326" d="M264 1239q0 -5 -2 -33l-49 -676q-1 -19 -6 -67.5t-29 -48.5q0 75 -14 106l-49 658q-12 -46 -17 -187q-4 -129 -22 -176l-29 412q10 16 29 28h10l20 -10q13 60 82 60q76 0 76 -66zM244 53q0 -63 -62 -63q-23 0 -40 19t-17 42t18 40.5t41 17.5q60 0 60 -56z" />
<glyph unicode="&#x22;" horiz-adv-x="388" d="M354 1370q0 -59 -25 -94q-46 -65 -63 -65q-28 0 -28 21v166q0 13 22.5 26t36.5 13q57 0 57 -67zM184 1370q0 -59 -25 -94q-46 -65 -63 -65q-28 0 -28 21v166q0 13 22.5 26t36.5 13q57 0 57 -67z" />
<glyph unicode="#" horiz-adv-x="678" d="M625 850q-65 -26 -82 -62q-8 -17 -21 -112q-14 -103 -14 -160q0 -28 29.5 -59t29.5 -33q-6 -8 -48 -35q-35 -22 -40 -57l-41 -285q-5 -33 -41 -33q0 52 12.5 154t12.5 154q0 -13 -2 49l-10 18q-97 10 -166 10q-36 0 -43 -14q-15 -30 -23 -88q-37 -281 -61 -281 q-21 0 -21 31q0 46 15.5 137.5t15.5 137.5q0 34 -29.5 68l-29.5 34q33 20 69 47q22 17 37 129q12 91 12 158q0 33 -30.5 63.5t-30.5 32.5q0 10 43.5 37t46.5 47l39 283q5 35 29 49q8 -4 20 -29q-33 -180 -33 -283q0 -6 2 -40l31 -29h176q33 0 78 362l18 19q21 -4 21 -37 q0 -48 -15.5 -142.5t-15.5 -142.5q0 -63 60 -88v-10zM479 694v74q0 61 -41 61h-155q-36 0 -56 -137q-14 -98 -14 -178q0 -65 20 -65h187q18 0 29 38q30 169 30 207z" />
<glyph unicode="$" horiz-adv-x="705" d="M578 1409h-23v21h6q17 0 17 -21zM575 1350h-20v30h20v-30zM498 725h-80q-19 14 -19 43q0 27 29 45v76q31 0 31 -47q0 -12 -6.5 -34t-6.5 -34q0 -6 3 -20q18 -27 49 -29zM379 784l-4 -2q-4 0 -4 2q-80 33 -88 47h67q6 -18 29 -47zM647 455q0 -180 -31 -271 q-46 -136 -178 -192q-77 -33 -98 -33q-14 0 -29 4q2 -4 2 -8q0 -14 -26 -14q-17 0 -23 20q-8 27 -12 31q-17 7 -57 28q-148 96 -148 222q0 53 62 53q35 0 57 -57l22 -88q25 -52 84 -52q4 5 11 21v4q0 23 -10.5 67.5t-10.5 67.5q0 24 30.5 71t33.5 79q10 124 34 124l11 -4 q10 -30 10 -82q0 -40 -29.5 -114.5t-29.5 -114.5q8 -20 18 -49h22q45 0 115 -10q-69 -23 -69 -52l2 -8h8q36 0 67 31.5t31 67.5v274q0 55 -53 78q-14 6 -103 20q-16 2 -30 25q-22 29 -29 33q-162 110 -180 129q-66 70 -66 209q0 223 178 317q33 10 89 45h-39q39 45 102 45 q35 0 92 -31q-37 -2 -106 -20q41 -16 116 -49h5q8 0 17.5 15.5t35.5 15.5q8 0 10 -11q-4 -14 -4 -30q0 -72 49 -86v38q35 -8 35 -63q0 -4 -5 -14.5t-5 -16.5q0 -15 9 -44t9 -44q0 -53 -57 -53q-60 0 -70 98q-21 -6 -37 -76q-12 -53 -12 -90h-33q0 14 7.5 41t7.5 41 q0 11 -5.5 32t-5.5 32q17 12 49 78v6q0 14 -27.5 29.5t-43.5 15.5q-27 0 -82 -5t-82 -5q-21 0 -44.5 -33t-23.5 -56v-235q0 -27 30 -53.5t58 -26.5q7 0 21 2h20q23 0 37 -10q17 -16 53 -49q47 -29 117 -76q21 -14 80 -70v47q47 -36 47 -161zM418 440h-8v11h8v-11zM309 418 q-2 -45 -22 -45h-4l-2 4q6 41 28 41zM418 274q-4 -12 -19 -12v12h19zM166 295l-2 -10q-21 10 -29 59h4q27 0 27 -49zM514 1260v4q0 8 -8 8q-6 -4 -6 -10q0 -7 6 -9q8 0 8 7zM526 1243v10h-10zM612 1153v4q0 8 -8 8t-8 -8v-4q0 -8 8 -8h2q6 0 6 8zM379 119l-49 18v-18 q14 -10 41 -10l6 4z" />
<glyph unicode="%" horiz-adv-x="961" d="M918 182q0 -65 -26 -88v112q-7 -65 -50 -113q-47 -53 -109 -53q-61 0 -108.5 49t-47.5 111v475q0 61 47.5 110.5t108.5 49.5q65 0 110 -52q43 -48 45 -114l12 6q0 -13 9 -42.5t9 -44.5v-406zM629 1298l-223 -1230q-5 -29 -35 -29q-27 0 -27 39q0 17 2 28l216 1172 q11 61 43 61q24 0 24 -30v-11zM388 682q0 -65 -26 -88v112q-7 -65 -50 -113q-47 -53 -109 -53q-61 0 -108.5 49t-47.5 111v475q0 61 47.5 110.5t108.5 49.5q65 0 110 -52q43 -48 45 -114l12 6q0 -13 9 -42.5t9 -44.5v-406zM824 29q-8 -18 -38 -18q-6 0 -18 3t-18 3 q4 -24 4 -23q0 -12 -12 -12q-2 3 -6 12v6q3 9 12 24l-6 5h82zM294 529q-8 -18 -38 -18q-6 0 -18 3t-18 3q4 -24 4 -23q0 -12 -12 -12q-2 3 -6 12v6q3 9 12 24l-6 5h82zM754 -50q0 -15 -10 -15q-8 0 -8 21q0 15 8 15q10 0 10 -15v-6zM224 450q0 -15 -10 -15q-8 0 -8 21 q0 15 8 15q10 0 10 -15v-6zM812 158v559q-2 6 -11 20h-59l36 21q-12 6 -25 6h-27q-72 0 -72 -46v-113q7 53 27 70v-552q2 -3 8 -6h6q4 4 11 12q4 -3 8 -13q2 -5 16 -5q3 6 6 29q-6 17 -6 21q0 15 12 15q15 0 15 -53q0 -7 2 -12q53 16 53 47zM282 658v559q-2 6 -11 20h-59 l36 21q-12 6 -25 6h-27q-72 0 -72 -46v-113q7 53 27 70v-552q2 -3 8 -6h6q4 4 11 12q4 -3 8 -13q2 -5 16 -5q3 6 6 29q-6 17 -6 21q0 15 12 15q15 0 15 -53q0 -7 2 -12q53 16 53 47zM656 161l-2 3l-3 -3l3 -2zM126 661l-2 3l-3 -3l3 -2zM742 358q-4 -13 -9 -13q-21 0 -21 41 v25q0 11 6 29q3 1 5 1q19 0 19 -30q0 -3 -3 -9t-3 -9v-18q0 -1 3 -8t3 -9zM212 858q-4 -13 -9 -13q-21 0 -21 41v25q0 11 6 29q3 1 5 1q19 0 19 -30q0 -3 -3 -9t-3 -9v-18q0 -1 3 -8t3 -9zM736 310q-14 0 -14 13h14v-13zM206 810q-14 0 -14 13h14v-13zM736 269h-6v7h6v-7z M206 769h-6v7h6v-7z" />
<glyph unicode="&#x26;" horiz-adv-x="758" d="M119 942q-10 19 -10 37v14q0 17 10 27v-78zM735 393q-69 -124 -69 -168q0 -25 30.5 -75t30.5 -74q0 -25 -20 -25q-19 0 -65.5 40t-80.5 40q-47 0 -61 -20l98 -99v-10h-39q-39 39 -82 80q-20 0 -75.5 -26.5t-84.5 -26.5q-98 0 -174 90q-73 86 -73 186q0 23 14 66.5 t14 66.5q0 16 -71 37q-32 9 -66 55q-2 -2 -6 -2q-15 0 -51 35q-40 39 -49 45q-15 2 -39 10q-4 9 -21 50v10q10 10 21 10q18 -8 145 -119q101 -88 168 -88q31 39 88 119v117l19 10q-91 168 -91 262q0 90 67 159t157 69q84 0 152.5 -61t68.5 -144q0 -65 -94.5 -190.5 t-94.5 -176.5q0 -29 7 -39q11 -31 72.5 -128t82.5 -115.5t58 -18.5q22 0 60 25.5t44 25.5q5 0 10 -2zM672 -41l-4 -6q-4 1 -4 6l4 4zM641 -8q0 -23 -23 -23v23h23zM45 299q0 -16 -4 -23q-4 -2 -4 21v18q0 19 4 21q4 -8 4 -25v-12zM502 991q0 77 -27 110q-30 38 -104 38 q-81 0 -107 -41q-20 -32 -20 -117q0 -217 125 -217q67 0 104 84q29 65 29 143zM520 158v10q-10 8 -20 10v117l10 10l-137 215q-26 41 -68 41q-39 0 -79 -45t-40 -84v-8l60 -59q4 -3 8 -3q8 0 16.5 6.5t14.5 6.5q20 0 20 -15q0 -7 -5 -22t-5 -23q0 -2 5 -10t5 -10 q0 -10 -26 -10h-9q-13 11 -84 80h-8q-6 -5 -10 -11q-2 -63 -2 -49q0 -63 27 -121q34 -73 90 -73h159l-98 96q-2 10 -2 14q0 23 12 27q12 -18 50 -55q42 -39 57 -43q6 -9 20 -21zM264 401q0 -8 -8 -8t-8 8v5q0 8 8 8h2q6 0 6 -8v-5z" />
<glyph unicode="'" horiz-adv-x="260" d="M184 1370q0 -59 -25 -94q-46 -65 -63 -65q-28 0 -28 21v166q0 13 22.5 26t36.5 13q57 0 57 -67z" />
<glyph unicode="(" horiz-adv-x="371" d="M113 920l-4 -5l-5 7l5 4zM256 1094q0 -56 -11.5 -168t-11.5 -168v-369q0 -51 10.5 -153.5t10.5 -153.5q0 -31 -10 -53q-42 31 -90 215q-37 142 -52 243v-155q-43 125 -43 276q0 154 43 279v-195q12 67 45 240q33 159 97 209q12 -13 12 -47z" />
<glyph unicode=")" horiz-adv-x="358" d="M254 1063q0 -6 -4 -14l-2 4l-2 10l2 14l2 2q4 -8 4 -16zM291 764q0 -135 -49 -375q-56 -273 -119 -350l-10 10q-2 39 -2 47q0 90 11 269.5t11 269.5q0 78 -11 233.5t-11 233.5q0 10 2 35l10 10q67 -45 131 -412v295q28 -50 35 -129q2 -23 2 -137z" />
<glyph unicode="*" horiz-adv-x="651" d="M461 1556h-10v11h10v-11zM549 1423q0 -10 -10 -14q-7 4 -11 10q-2 17 -4 51q25 0 25 -28v-19zM422 1440q0 -21 -21 -21q-22 0 -22 23v39q43 0 43 -41zM578 1077l-19 -39l-6 -2q-88 45 -141 80h-50v-117q50 0 50 -41q0 -53 -88 -53q-7 0 -23 2h-22v209h-54 q-75 -51 -137 -78q-2 -2 -4 -2l-4 2q-6 11 -21 39v4q0 23 79 57.5t79 65.5q0 23 -10 31q-51 27 -148 86v10q14 41 29 41l10 -2q117 -78 138 -78q9 1 43 4v211h83v-211q56 0 72 11q17 26 41 55q24 -11 23 -12l2 2q61 20 49 20q12 0 29 -41v-10q-52 -27 -148 -86 q-10 -8 -10 -31q0 -30 79 -64t79 -63zM487 836q-17 0 -45.5 -17.5t-42.5 -17.5q4 90 27 90q19 0 40 -18t21 -37zM500 782h-11v21h11v-21zM520 754l-6 -4l-4 4l4 4zM500 715l-6 -4l-5 4l7 4zM422 752q0 -15 -31 -15v-24q-22 6 -29 12v49h11q6 0 49 -10v-12zM371 920 q0 10 -9 10q-8 0 -8 -8v-4q0 -7 8 -7q9 0 9 9z" />
<glyph unicode="+" horiz-adv-x="1083" d="M473 1284l-2 -4q-20 -2 -49 -10l-4 -4q-15 -27 -15 -111q0 -12 -14 -12q-24 0 -24 39q0 18 4 54t4 54q12 19 55 19q45 0 45 -25zM377 1083q0 -16 -6 -45l-6 -4v49h12zM375 915q0 -30 -27 -30q0 21 -9 63.5t-9 63.5q45 0 45 -97zM375 848q0 -31 -33 -31q0 19 31 41 q2 -4 2 -10zM973 614q0 -22 -31 -45h-334q-24 -18 -43 -43v-323q0 -31 -41 -31q-16 0 -31.5 16.5t-15.5 32.5v314l-39 30v-225l-16 225l-14 2q-27 0 -27 -78q-29 0 -33 29q2 -12 2 51h-241q-29 0 -29 41q0 17 16 32t33 15h215v25q-44 0 -132 5t-132 5q31 0 133 6q82 5 135 2 l-4 37q0 27 21 43h4q0 -47 24 -78l4 -2q17 2 31 21v323l14 -313l35 -29v304q0 16 15.5 32.5t31.5 16.5q41 0 41 -31v-328h230l-215 -14l18 -25h324q15 0 33 -14t18 -29zM414 535l-6 -5l-5 5l5 4zM403 328q0 -31 -22 -31q0 86 12 121q10 -72 10 -90zM403 231q0 -32 -24 -32 q2 14 4 43q4 6 10 10q10 -4 10 -21zM393 123h-20q8 22 20 31v-31zM463 672h-8l-2 -8h8zM414 664l-21 18v-18h21z" />
<glyph unicode="," horiz-adv-x="260" d="M184 70q0 -40 -24 -73q-26 -36 -64 -36q-28 0 -28 21v116q0 13 22.5 26t36.5 13q57 0 57 -67z" />
<glyph unicode="-" horiz-adv-x="617" d="M571 1098l-4 -4l-4 4l4 6zM860 707q-78 4 -78 20v31q1 8 2 12q12 10 31 10q45 0 45 -73zM846 666q0 -35 -35 -35q0 35 35 35zM655 760h-8v10h8v-10zM768 662q0 -44 -15 -58q-10 31 -10 58h25zM22 1196q0 -47 -45 -47q0 18 2 29q6 18 43 18zM588 672q-11 -10 -48.5 -24.5 t-50.5 -14.5h-393q-59 0 -59 63q0 64 59 64h393q58 -23 99 -82v-6zM243 518q-13 0 -36 -7t-35 -7q0 53 71 53v-39zM78 535l-7 -5l-4 5l7 4zM10 555l-6 -4l-4 4l4 4zM53 510l-4 -4l-4 4l4 6zM-88 516h-11v8z" />
<glyph unicode="." horiz-adv-x="240" d="M186 72q0 -37 -10 -49q-18 -15 -39 -31q-8 0 -23.5 3t-23.5 3q-15 0 -24.5 17t-6.5 32l9 51q2 12 24 25.5t35 13.5q59 0 59 -65z" />
<glyph unicode="/" horiz-adv-x="465" d="M389 1298l-223 -1230q-5 -29 -35 -29q-27 0 -27 39q0 17 2 28l216 1172q11 61 43 61q24 0 24 -30v-11z" />
<glyph unicode="0" horiz-adv-x="671" d="M614 217q0 -108 -43 -147v186q-12 -107 -83 -188q-77 -88 -181 -88q-102 0 -181 81.5t-79 184.5v792q0 103 79 185t181 82q108 0 183 -86q71 -81 75 -191l20 10q0 -22 14.5 -71t14.5 -74v-676zM458 -39q-14 -29 -63 -29q-10 0 -29.5 4.5t-30.5 4.5q7 -39 7 -37 q0 -21 -21 -21q-3 5 -10 21v10q6 14 20 39l-10 8h137zM342 -170q0 -25 -17 -25q-14 0 -14 35q0 25 14 25q17 0 17 -25v-10zM438 176v932q-4 10 -19 33h-98l60 35q-19 10 -41 10h-45q-121 0 -121 -76v-188q12 88 45 116v-919q4 -6 14 -10h10q6 6 19 20q6 -6 12 -23 q4 -8 27 -8q6 11 10 49q-10 29 -10 35q0 25 20 25q25 0 25 -88q0 -13 4 -21q88 27 88 78zM178 182l-4 4l-4 -4l4 -4zM321 510q-6 -21 -14 -21q-35 0 -35 68v41q0 18 10 49q3 2 8 2q31 0 31 -51q0 -4 -5 -14.5t-5 -14.5v-30q0 -3 5 -14t5 -15zM311 430q-23 0 -23 21h23v-21z M311 362h-10v11h10v-11z" />
<glyph unicode="1" horiz-adv-x="417" d="M333 20q0 -13 -23 -25.5t-37 -12.5q-12 0 -36 13q-27 15 -27 25v160q-6 -4 -14 -2l-25 19v944q-61 8 -53 8q-47 -23 -78 -39q-23 8 -23 29l2 10q19 25 74 63.5t74 67.5q0 55 -78 55q45 60 92 60q39 0 45 -90q13 2 23 2q84 0 84 -41v-1246z" />
<glyph unicode="2" horiz-adv-x="631" d="M317 1116h-33q0 23 33 23v-23zM307 999h-10v11h10v-11zM346 764q0 -6 -6 -8l-13 -2q-6 0 -10 2q-20 82 -20 166v22q0 27 30 27q6 0 15 -2q4 -8 4 -19v-186zM284 868q0 -37 -20 -37q-4 0 -6 3q-11 18 -11 24q0 29 35 29zM612 1059q0 -99 -80 -256l-264 -518v-97l29 -34 h264q28 0 39 -25q-15 -25 -47 -29q18 -37 18 -49q0 -15 -12 -37t-27 -22h-440q-41 0 -41 71q1 0 2 27l244 479q1 6 8 31q5 18 22 27q-12 6 -14 73q33 0 43 -24q88 153 88 319v92q0 34 -32 66.5t-66 32.5q-7 0 -21 -5t-22 -5q-6 0 -17 5t-18 5q-29 0 -48.5 -42t-39.5 -38 q0 -127 -68 -127q-59 0 -59 49q0 182 215 275v88q4 10 20 20q13 -6 29 -20v-76l10 -2q27 10 78 28q47 -10 68 -34h-107q110 -63 158 -153q42 -78 53 -214v254q35 -53 35 -135z" />
<glyph unicode="3" horiz-adv-x="624" d="M431 1333h-127q4 9 28.5 20t35.5 11q51 0 63 -31zM990 717q-4 -6 -10 -10q-63 -13 -205 -74q-129 -56 -207 -64q13 -26 13 -127q0 -171 -56 -297q-73 -165 -223 -165q-106 0 -184 78t-78 184q0 63 59 63q54 0 64 -76q12 -88 55 -114q28 -17 123 -17q31 0 41 21h-10 q-31 0 -78 35h129v354q-48 0 -140 -33t-141 -33q-7 0 -11 10l-3 9q0 16 10 20q47 8 137 29q45 18 138 49q-12 19 -80 49q-58 26 -58 60q0 30 45 51q5 3 72 26q6 15 31 39v344q0 60 -123 60q-88 0 -117 -53q-6 -17 -24 -101q-11 -53 -60 -53q-59 0 -59 63q0 101 80 182 t180 81q77 0 137 -54q25 -22 98 -114v88q46 -6 46 -176q0 -157 -52 -256q-6 -12 -49 -60q-28 -32 -28 -67q0 -70 59 -70q13 0 187 69.5t253 69.5q39 0 39 -20zM187 246q-30 41 -30 76v18q0 12 10 14q20 -14 20 -59v-49zM533 545l-4 6l-4 -6l4 -4z" />
<glyph unicode="4" horiz-adv-x="712" d="M249 1313l-119 -391v18l119 408v-35zM122 883q-4 -15 -10 -31v20q0 7 10 29v-18zM671 252q0 -21 -8 -31q-29 -14 -72 -53q-8 -12 -16 -109q-6 -67 -62 -67q-49 0 -61 49q-2 13 -6 88q-3 49 -31 49l-29 -31q-2 3 -30 46h-254q-45 30 -45 86q0 16 6 55q-98 20 -88 59 q15 56 43 137v-118q22 -31 45 -31q14 0 20 22l244 842q17 58 67 58q41 0 41 -50q0 -18 -252 -870h144l35 29v313q4 10 24 31q10 -11 25 -31v-313l39 -29v274q0 39 63 39q64 0 64 -39v-313q0 -8 47 -39t47 -53zM106 827l-4 -4l-5 4q0 7 5 7zM95 793l-4 -9q-4 2 -4 11 q0 8 4 10q4 -6 4 -12zM87 760l-4 -4l-4 4l4 4zM77 729l-4 -4l-4 6l4 4zM67 690l-4 -4l-4 6l4 4zM57 662l-5 -5l-4 5l4 6zM46 633l-4 -4l-4 4l4 4zM38 594l-4 -6l-4 6l4 4zM28 563l-4 -4l-4 4q0 6 4 6zM347 315q-20 19 -30 19h-117l18 -19h129z" />
<glyph unicode="5" horiz-adv-x="660" d="M819 834h-24q0 12 12 18q12 -6 12 -18zM781 813h-25q0 14 12 21q13 -7 13 -21zM309 834q-8 -5 -16 -5q-6 0 -14 5l2 2h24zM850 993q0 -11 -2 -31.5t-2 -31.5q-31 -40 -141.5 -105t-151.5 -120v-5q0 -17 14.5 -50t14.5 -50v-379q0 -92 -82.5 -166.5t-175.5 -74.5 q-83 0 -165 70q-85 72 -85 153q0 43 53 43q37 0 58 -45l26 -58h88q-20 -10 -49 -34q16 -11 78 -11q127 0 127 70v416q0 -117 -6 -185q-13 -147 -47 -153v319q-20 0 -61 -32.5t-62 -32.5q-10 24 -10 67q0 66 10 90h20q0 -45 29 -59q43 12 56.5 25.5t13.5 54.5q0 14 -11 18 h-55q-40 0 -103 -34.5t-81 -34.5q-49 0 -60 59q-4 22 -4 98h-10q-14 -10 -25 -10h-4q-10 8 -10 19v520q0 12 22 25.5t35 13.5h295q31 0 39 -21l-20 -14h-314q-39 -27 -39 -43v-432q0 -21 35 -39v461q0 10 26 24.5t38 14.5h373q59 0 59 -54q0 -19 -11 -37q-13 -22 -30 -22 h-313q-39 -27 -39 -45v-352q0 -39 59 -39q26 0 75 20.5t75 20.5q20 0 64 -26t61 -26q20 0 106 91q2 49 14 141q7 6 15 6h12q6 -6 29 -100h4q10 0 35 49l18 176h25v-84l6 -2l8 -2l20 20q7 2 11 2q22 0 22 -47zM240 500q-55 -25 -166 -68q-43 -8 -121 -41q-18 -12 -37 -37 l-8 8v70q41 21 166 64q135 47 166 47v-43zM-110 418q0 -29 -45 -29v6q0 47 24 47q21 0 21 -24z" />
<glyph unicode="6" horiz-adv-x="659" d="M888 68q-10 0 -29 6t-30 6q-29 0 -29 -35q0 -14 21 -106q-6 -11 -54 -40.5t-65 -33.5q-20 8 -20 69q0 20 34.5 37t34.5 21q0 16 -10 20h-68q-3 8 -31 38.5t-28 35.5q0 14 31 14q10 0 27 -9t26 -9q0 33 -42 52q-35 12 -71 24h-10q-76 -176 -242 -176q-87 0 -159 64 t-88 151q-3 49 -5 57q-5 34 -20 51v-254q-39 49 -43 131q2 -37 2 144h-22v-41q-21 4 -45.5 35t-24.5 53q0 20 37 20q41 0 63 -20l33 80v-80l16 10q9 106 9 147l264 705q26 68 78 68q41 0 41 -58l-168 -450v-15q0 -35 30 -55q145 -4 210 -78q61 -70 61 -217q0 -58 -2 -113 l-4 -110q32 -12 96 -29q24 -3 129 -16q67 -19 67 -94zM71 475l-4 -4l-4 4q0 6 4 6zM-41 266l-43 -28q-21 0 -35 32q0 17 29 17q38 0 49 -21zM311 -68q-57 -28 -74 -28q-14 0 -71 28h145zM469 246v297q0 86 -134 86q-79 0 -122 -60l98 -14h-107v-229q0 -13 39 -17t39 -18 q0 -17 -28 -17q-31 0 -50 11v-109q0 -78 131 -78q62 0 74 11v118q-43 11 -98 39v4q0 17 31 17q13 0 34.5 -11.5t32.5 -11.5v217q39 -25 47 -108zM469 188l-4 7l-7 2v-39zM407 500q0 -8 -8 -8t-8 8h-2q-9 10 -8 10q-9 0 -9 10q-10 0 -10 10q0 11 8 11q9 0 9 -11h2 q10 -10 11 -10q5 0 5 -10q10 0 10 -10zM342 549l-7 -4l-4 4l4 4z" />
<glyph unicode="7" horiz-adv-x="586" d="M396 1116q-4 -12 -10 -29v21q0 6 10 29v-21zM552 1157l-313 -1106q-17 -59 -70 -59q-14 0 -30.5 11t-16.5 24v4l303 1056q2 7 2 27q0 39 -12 51l-19 -8q0 29 -10 29h-205q-28 0 -44 -75t-50 -75q-27 0 -43 33q0 34 -5 102.5t-5 102.5v117q28 39 59 39h313q22 0 41 -15.5 t19 -36.5q0 -11 -6 -32.5t-6 -32.5q98 -25 98 -49v-107zM376 1049l-123 -445q-100 -362 -129 -401zM419 1309q0 82 -41 82h-287q-39 0 -39 -70v-23q0 -6 2 -14l47 25h318z" />
<glyph unicode="8" horiz-adv-x="610" d="M469 1544q0 -28 -22 -110q-25 -93 -43 -93q-25 0 -25 17h-96q20 24 67 35q11 -4 29 -11l14 2q0 91 25 164q2 6 10 11h15q26 0 26 -15zM467 1305h-18v18h18v-18zM-28 1147q0 -21 -7 -55l-6 -5q-12 3 -24 11v-43q-35 4 -35 24q0 15 27.5 39t44.5 29zM568 477 q0 -177 -31 -299q-21 -84 -91 -141t-155 -57q-164 0 -221 159q-35 97 -35 295q0 57 42 139t42 107q0 42 -33 90q-17 23 -59 84v8q0 286 125 398q50 45 178 45q4 0 15 -5.5t16 -5.5q8 2 18 11h6q18 0 18 -11q-1 -5 -3 -10q34 -33 96 -104q10 -19 26 -23v88q46 -6 46 -151 q0 -168 -31 -260q-7 -22 -41 -78q-29 -48 -29 -82q0 -49 55 -105v99q46 -62 46 -191zM-55 932q0 -31 -35 -31v31h35zM21 817q0 -35 -37 -35q0 35 37 35zM-18 731l-4 -6l-4 6l4 4zM-61 745l-10 11h10v-11zM-30 629q0 -21 -11 -21q-22 0 -22 21q0 18 22 18q6 0 11 -6v-12z M-33 590q-4 -12 -18 -12v12h18zM-33 526q-28 0 -28 19q0 18 28 18v-37zM-33 481l-8 -10q-12 4 -12 23q14 0 20 -13zM418 793v315q0 13 -15.5 34t-27.5 25q-6 -2 -35 -20l-4 2v45q-54 -2 -83 -8q-52 -11 -68 -39v-117q15 4 64.5 46t55.5 42q27 0 27 -14q0 -39 -45 -64 l-74 -41q-12 -22 -49 -57q10 -4 10 -24q0 -23 -10 -25v-53q0 -115 68 -115h121q19 0 42 24.5t23 43.5zM418 182v377q0 80 -127 80q-113 0 -113 -41v-313h-14v-117q0 -70 127 -70q100 0 119 60h-10q-9 0 -25 -5.5t-25 -5.5q-63 0 -67 35h135zM400 969q-15 0 -21 12 q6 12 21 12v-24zM355 975l-5 -4l-4 4q0 6 4 6zM285 922q0 -15 -12 -19q-13 2 -13 19h25zM228 905q0 -35 -58 -35q0 35 58 35zM252 805l-29 -10v28q21 -4 29 -18z" />
<glyph unicode="9" horiz-adv-x="644" d="M461 1350h-148q47 30 74 30t74 -30zM606 1067q0 -90 -22 -188q-9 -41 -45 -183l-244 -645q-22 -59 -70 -59q-37 0 -45 16q-4 8 -4 33l158 420v78l-21 20q-103 0 -172 45q-82 53 -82 150v313q0 92 79 164t171 72q84 0 156 -60q66 -54 98 -137v137q43 -41 43 -176zM440 739 v369q0 37 -42 59q-35 19 -76 19h-31q-80 0 -80 -31v-332q-31 35 -35 78v-158q0 -20 25.5 -48.5t44.5 -28.5h127q8 0 57 49l-70 2q-57 2 -65 22h145zM219 807l-4 -4l-4 4q0 6 4 6zM283 741q0 -6 -9 -6q-8 0 -8 8q0 11 8 11q9 0 9 -9v-4zM233 791q0 -7 -8 -7t-8 9q0 10 8 10 t8 -8v-4z" />
<glyph unicode=":" horiz-adv-x="252" d="M190 537q0 -60 -55 -60q-61 0 -61 60q0 59 61 59q55 0 55 -59zM190 92q0 -63 -57 -63q-61 0 -61 63q0 64 61 64q57 0 57 -64z" />
<glyph unicode=";" horiz-adv-x="260" d="M184 518q0 -59 -55 -59q-61 0 -61 59q0 60 61 60q55 0 55 -60zM184 70q0 -40 -24 -73q-26 -36 -64 -36q-28 0 -28 21v116q0 13 22.5 26t36.5 13q57 0 57 -67z" />
<glyph unicode="&#x3c;" horiz-adv-x="629" d="M579 777q8 -32 -16 -49l-248 -176q-107 -49 -107 -92l4 -4q101 -73 207 -168q156 -138 156 -187q-87 0 -260 131q-115 87 -207 152q-53 27 -53 76q0 57 157 149q99 72 308 218h55q0 -15 4 -50z" />
<glyph unicode="=" horiz-adv-x="905" d="M858 874q-24 -10 -139 -14q-61 -2 -219 0l-156 2q-18 0 -18 -53q0 -10 5 -29.5t5 -29.5q-23 -2 -53 10l18 76l-18 26h-193q-24 25 -24 33q0 37 170 37q-9 8 -9 47q0 -14 -10 104l-8 9v59l18 20l-18 11q0 37 -14 59h16q0 11 -13.5 36.5t-13.5 41.5q18 0 43 -24t25 -42 q0 -8 -5 -24.5t-5 -24.5q0 -38 12 -140q13 -105 22 -136h508q18 0 39 -27.5t35 -26.5zM360 719q0 -14 -26 -14h-4q2 32 16 32h6q4 -6 6 -16zM858 573l-55 -12h-510q-6 -6 -17 -18h-8q-10 8 -18 18h-160l-22 25q-2 6 -2 10q0 33 73 37q-43 -2 129 -2q6 24 25 24q22 0 18 -24 h473q16 0 38 -30.5t36 -27.5zM352 678q0 -10 -8 -25q-12 6 -14 25h22zM268 414q0 -15 -12 -15h-6l-8 9v6q4 10 8 16h4q14 0 14 -16zM242 354h-2q-11 0 -13 8q4 11 15 11v-19zM854 573z" />
<glyph unicode="&#x3e;" horiz-adv-x="629" d="M579 460q0 -49 -53 -76q-92 -65 -207 -152q-173 -131 -260 -131q0 49 157 187q106 95 207 168l3 4q0 43 -107 92l-248 176q-24 17 -16 49q4 35 4 50h55q209 -146 309 -218q156 -92 156 -149z" />
<glyph unicode="?" horiz-adv-x="692" d="M633 1057q0 -80 -31 -146v275q31 -51 31 -129zM584 985q0 -119 -37 -197l-107 -170v-137q-10 -16 -24 -30l-19 20q0 -137 -69 -137q-60 0 -60 82q0 96 74 221q102 173 115 209q8 22 8 26v226q0 88 -137 88q-24 0 -58.5 -40t-58.5 -40l-10 10q0 -137 -66 -137 q-61 0 -61 70q0 179 227 256q76 26 115 26q10 0 69 -33h-79q169 -110 176 -221q2 -33 2 -92zM420 113l-4 -4l-4 6l4 4zM387 53q0 -61 -59 -61q-60 0 -60 61q0 56 60 56q59 0 59 -56zM403 504l-6 6l-4 -4l4 -6z" />
<glyph unicode="@" horiz-adv-x="1501" d="M715 1739q-10 0 -19 12h19v-12zM715 1655h-19v18h19v-18zM883 1409h-21v21h21v-21zM764 1542q0 -18 -29 -18v32h10l13 -2q6 -6 6 -12zM725 1581q0 -6 -6 -12l-12 -4q-21 0 -21 16q0 14 21 14l12 -2q6 -6 6 -12zM809 1456q0 -31 -14 -37h-7q-24 0 -24 39t43 39l2 -31v-10z M678 1460q0 -43 -27 -43q-24 0 -24 47v43l10 11h6q35 0 35 -58zM768 1317q-10 2 -33 4l-10 10q-6 -4 -33 -12q0 12 10.5 36.5t12.5 33.5q4 2 10 2q13 0 28 -31q13 -26 15 -43zM737 1145q0 -21 -37 -21q-24 0 -24 21q0 20 20 20q41 0 41 -20zM618 1057l-10 -10h-6 q-16 0 -16 32q32 0 32 -18v-4zM1432 723q0 -74 -17 -133q-37 -129 -149 -250q-125 -135 -242 -135q-102 0 -133 108q-5 0 -14 2h-15q-36 0 -151 -86q-29 -22 -123 -34q-6 -11 -43 -25v45q-8 -2 -19 -12q0 33 -45 33q11 -5 13 -43l-23 2q-4 6 -10 10h-10v-10q-2 -21 18 -21 q3 2 31 12q20 -4 20 -39q0 -41 -20 -41q-11 0 -24 13.5t-27 13.5q-3 19 -7 33q-8 2 -20 10v29q-6 2 -21 10l2 21q0 20 -12 40.5t-12 28.5q9 0 26.5 -6t26.5 -6q-59 104 -59 186q0 131 63 259q66 135 172 202v4q0 8 -10 16.5t-10 18.5q0 18 78 57l12 -8q-2 8 -2 -31l10 -8 q64 19 107 19q50 0 69 -19l117 -119h88q10 25 31 70h49q-168 -471 -168 -584v-43q16 -10 41 -34v-3q-1 1 -4 -8l-6 -4h39q151 0 227 170q57 128 57 301q0 72 -2 86q-26 180 -198 283q-153 92 -345 92q-272 0 -442 -168t-170 -440q0 -262 148 -393q12 12 30 12q5 0 8 -2 q49 -49 52 -53q0 -5 -21 -25q154 -109 498 -109q17 0 50 10.5t50 10.5q6 0 15 -2l4 -19q83 27 127 50q8 4 90 71q60 49 96 49h14q10 -2 15 -2q-232 -266 -564 -266q-247 0 -475 168q-4 -12 -41 -14q0 18 23 32q-217 230 -217 494q0 286 212 494.5t498 208.5q209 0 310 -80 q37 -30 73 -49q120 -65 190.5 -188.5t70.5 -262.5zM1038 39l-6 -4l-4 4l6 4zM795 137h-11v19h11v-19zM905 -139q-24 0 -24 16l6 10l4 4q12 -4 14 -30zM373 332q-4 -10 -21 -10l-9 5q-9 5 -9 11v4q4 6 10 10h8q13 -8 21 -20zM862 -166l-10 -10q-12 6 -12 20q16 0 22 -10z M383 231q-23 0 -23 33h23v-33zM803 -180q-31 0 -31 22h31v-22zM346 266q0 -33 -16 -33q-8 0 -17 11v6q0 16 33 16zM745 -246q0 -20 -26 -20h-8q-25 0 -25 20q0 13 29 13q30 0 30 -13zM737 -340q0 -18 -12 -22l-10 10q8 12 22 12zM305 -160q-31 0 -31 19q0 16 31 16v-35z M285 -186q-15 -21 -29 -21q-20 0 -20 21q0 20 20 20q18 0 29 -20zM147 -127h-10v8h10v-8zM176 -176h-18v18h18v-18zM217 -274h-20v20h20v-20zM160 -233q0 -31 -17 -31q-10 0 -16.5 20.5t-32.5 20.5q-6 0 -6 16q0 21 16 21q13 0 34.5 -17.5t21.5 -29.5zM227 -332 q0 -33 -22 -33q-21 0 -19 31q-2 -6 -8 -10h-12q-19 -2 -19 27v4q5 6 11 18q6 2 12 2h14q43 0 43 -39zM59 -236q-10 -10 -18 -10q-12 8 -21 21q5 10 21 10l12 -4q6 -6 6 -12v-5zM70 -324h-23q0 33 23 33v-33zM971 700q0 122 -53 158q-40 27 -170 27q0 -45 -23 -45 q-16 0 -18 12q-19 -31 -39 -31q-21 0 -31 21q-19 -15 -37 -35q41 0 52 -3q26 -7 26 -38q0 -53 -31 -53q-49 0 -49 92q-117 -123 -117 -213v-201q27 -42 70 -57q19 -7 90 -10q14 -1 42 -16t38 -15q92 0 176 162q74 142 74 245zM999 274q0 5 -6 5l-4 -5l4 -4zM958 8 q0 10 -8 10t-8 -8v-4q0 -6 8 -6t8 8zM915 729l-4 -4l-4 4l4 4zM764 817q0 -18 -33 -18q0 32 19 32h4l6 -4l4 -6v-4zM813 725h-10v8h10v-8zM788 782q0 -24 -18 -47.5t-41 -23.5q0 18 16.5 36.5t16.5 34.5h26zM784 557l-10 -10h-10l-10 10v10l10 11h10l10 -11v-10zM725 627 q-6 -23 -39 -23q-41 0 -41 45q0 37 17 37q9 -4 24 -10q10 2 25 10q10 -2 14 -20q-4 -7 -10 -21q4 -6 10 -18zM735 557h-20v10h20v-10zM571 655h-24q0 13 12 29q12 -4 12 -29zM639 557h-33q0 21 17 21q16 0 16 -21zM737 428q-14 0 -22 12l10 11q12 -9 12 -23zM696 469h-20v20 h20v-20zM530 616h-20v19h20v-19zM666 539q0 -56 -101 -56q0 19 8 52l5 4h88zM627 451h-9v8h9v-8zM561 459q0 -19 -22 -19q-7 0 -9 9l-2 10q0 20 11 20q22 0 22 -20z" />
<glyph unicode="A" horiz-adv-x="770" d="M766 1505h-21v21h5q16 0 16 -21zM764 1448h-19v29h19v-29zM745 1360q0 -23 -11 -59q-12 -40 -27 -50q-31 0 -31 31q0 12 20.5 29t20.5 28q0 5 -2 11q-20 27 -21 32q0 17 25 17q26 0 26 -39zM711 1223q0 -39 -25 -108q-27 -72 -29 -107h-32q0 14 6 41t6 41q0 9 -5 27.5 t-5 27.5q0 8 21 38l28 40h35zM647 938q0 -24 -8 -51q-11 -37 -27 -37t-16 24q0 27 22 35v76q29 0 29 -47zM647 762q-4 -14 -14 -21q-35 0 -35 31q0 21 14 21l6 -2q11 -9 29 -29zM707 43q0 -11 -16 -23t-27 -12q-46 0 -66 60q-10 49 -20 96q-14 -8 -50.5 -64.5t-50.5 -64.5 q-26 0 -26 51q0 23 10 67t10 66q0 53 -20 74h-215q-15 0 -28 -66q-14 -71 -32 -82q-20 -137 -78 -137q-41 0 -41 51q0 18 2 27l265 1186q9 41 55 41q39 0 53 -31q6 43 25 49q13 -6 39 -109q24 -96 24 -126h-45l123 -539q7 -1 20 -80q19 31 19 98q4 -16 25 -94q14 -53 14 -92 v-8l-39 29v-39zM690 350l-4 -8q-4 1 -4 8q1 5 4 10q4 -4 4 -10zM700 301l-4 -8q-4 1 -4 8q1 5 4 10q4 -4 4 -10zM711 258q0 -6 -4 -14l-2 4l-3 10l3 12l2 2q4 -8 4 -14zM719 209q0 -6 -4 -14l-2 4l-2 10l2 12l2 2q4 -8 4 -14zM729 174l-4 -10q-4 2 -4 10t4 10q4 -4 4 -10z M510 498l-78 422q-11 57 -55 57q-40 0 -53 -68l-78 -401v-49q10 22 28 108q7 -108 50 -108h127q10 18 30 49h4q0 -6 3.5 -17t3.5 -16q0 -8 -21 -16h14q11 0 21 4q8 15 4 35zM569 213q0 47 -41 70q-20 -62 -20 -111q14 0 61 41zM201 233l-4 11q-4 -2 -4 -11q0 -8 4 -10z M190 193q0 6 -4 12q-4 -2 -4 -10q0 -9 4 -11zM487 575q0 -6 -6 -8q-8 0 -8 6v5q0 8 8 8q6 -4 6 -11zM557 221q0 -8 -8 -8t-8 8v4q0 8 8 8h2q6 0 6 -8v-4z" />
<glyph unicode="B" horiz-adv-x="791" d="M719 401q0 -403 -522 -403h-43q-56 2 -41 2q-39 16 -39 39v1155q0 15 29.5 29t34.5 18q12 10 16 33q10 53 47 65q10 2 88 2q147 0 227 -28q114 -40 164 -150q29 -64 29 -78v-165q0 -29 -53.5 -102.5t-53.5 -133.5q117 -129 117 -283zM602 897v190q0 45 -41.5 90.5 t-85.5 45.5h-158q35 -11 50 -25h-88v-387q0 -10 14 -24.5t24 -14.5h168q41 0 79 41.5t38 83.5zM141 676v508q-18 -21 -18 -29v-450q0 -9 18 -29zM406 666q-1 2 -9 4h-51q-27 0 -29 -4q17 -4 35 -4h21q18 0 33 4zM602 401v127q0 60 -50 100q-46 38 -108 38q-10 -19 -8 -39 q-22 10 -53 10h-76q-10 0 -18 -2l-10 -8v-441l30 -30h185q108 0 108 245zM152 49v10q0 95 -5.5 284t-5.5 284q-18 -21 -18 -31v-518zM553 934q0 -64 -21 -92v184q21 -29 21 -92zM553 315q0 -90 -29 -139v4q0 45 4 135.5t4 135.5q21 -29 21 -107v-29z" />
<glyph unicode="C" horiz-adv-x="750" d="M681 1059q0 -45 -57 -45q-53 0 -64 63q-14 80 -35 94q2 -6 2 -14q0 -10 -12 -14q-20 12 -35 55q-8 23 -82 23q-157 0 -157 -138v-829q0 -14 15 -46t26 -38h88l-41 -25l10 -10q39 -2 47 -2q104 0 143 53q10 13 35 103q15 53 60 53q49 0 49 -66q0 -101 -85.5 -180.5 t-187.5 -79.5q-132 0 -212 101q-74 94 -74 229v678q0 211 225 319h-127q35 35 78 35q17 0 44 -12q35 -16 44 -18q139 -37 209 -91q94 -72 94 -198zM515 348q0 -26 -18 -55q-2 4 -2 10v16q0 37 20 41v-12zM95 272q-49 31 -49 197v590q0 106 49 182v-969z" />
<glyph unicode="D" horiz-adv-x="799" d="M278 1466q0 -34 -20 -57h-11q-10 10 -28 31q4 6 10 18q-4 6 -10 21q4 6 10 18v4q0 20 -10 59.5t-10 59.5q0 35 30 35h8q21 -10 21 -68q0 -7 -5 -21t-5 -20q0 -14 10 -40t10 -40zM798 1208q0 -24 -45 -36.5t-45 -34.5q0 -61 5 -181.5t5 -181.5v-291q0 -123 -45 -190v852 q-24 -6 -24 -41q0 -19 5 -57.5t5 -57.5v-602q0 -131 -68 -237q-77 -121 -202 -121h-258q-17 0 -43 39v800q-34 0 -110.5 -44t-113.5 -44q0 50 60 76q80 35 90 45q25 25 74 57v345q0 40 151 47q-10 18 -10 26q0 15 20 15t20 -20q0 -5 -1 -11q55 6 106 6q117 0 148 -39h-68 q35 -22 166 -153h4q28 0 82 24.5t80 24.5l6 -2l4 -7q2 -2 2 -6zM514 1149v6q-47 52 -84 64q-23 8 -109 8h-37v-33q0 -147 29 -147q24 0 105 41.5t96 60.5zM223 1063v55q0 64 -4 66q-4 -4 -4 -29v-127q0 -30 4 -31v0q4 19 4 66zM532 272v824h-10q-105 -43 -215 -107l10 -49 l10 18l11 -18q0 -30 8 -90t8 -90q-37 0 -49 12q-6 6 -27 49v-626q0 -11 14.5 -25t24.5 -14h137q30 0 55 44q23 40 23 72zM223 332v465q0 151 -6 161q-2 -24 -2 -139v-520q0 -129 2 -133q6 20 6 166zM237 154v4q0 8 -8 8t-8 -8v-4q0 -9 8 -9h2q6 0 6 9zM395 684 q-39 21 -39 49q4 6 10 10h4q25 0 25 -49v-10zM426 666l-11 -11q-12 4 -12 23q12 0 23 -12z" />
<glyph unicode="E" horiz-adv-x="657" d="M442 850l-6 -4l-4 4l4 4zM403 588q0 -31 -14 -31q-16 0 -16 25v12q0 22 16 22q14 0 14 -28zM590 90q0 -65 -41 -65h-211v-162q-6 -10 -29 -13v160l-14 15h-176q-39 26 -39 45v1230q12 17 77.5 47.5t88.5 30.5h293l20 -14h-303l-20 -21h294q17 0 38.5 -19t21.5 -36 q0 -19 -11 -38q-13 -23 -30 -23h-303q-13 -8 -29 -25v-381l29 -35h243l21 -18h-166v-14q197 0 197 -64q0 -17 -12.5 -38t-28.5 -21h-254q-13 -8 -29 -25v-381q0 -30 57 -30q23 0 31 2q4 18 14 20q13 -6 25 -27h195l30 -14l-10 -14h-215l186 -15q60 -5 60 -57zM393 500 q-4 -6 -10 -11q-6 5 -10 11v8q4 6 10 10q6 -4 10 -10v-8zM334 518q-4 -10 -19 -12v33h9q8 -11 10 -21zM393 369q-20 4 -20 12v70h20v-82zM393 205h-20v137h20v-137zM334 315q0 -14 -23 -14q0 12 13 31l6 -2l4 -6v-9zM334 244h-19v20h19v-20zM375 -20q-6 -7 -13 -9l-4 4 l-6 11q2 10 21 14l2 -10v-10zM336 -225q0 -27 -12 -29q-11 2 -11 12v35q0 8 11 12q12 -4 12 -30zM305 754v12q-55 0 -69 -12h69zM305 156q-3 4 -24 4h-21q-23 0 -24 -4q8 -4 28 -4h12q21 0 29 4z" />
<glyph unicode="F" horiz-adv-x="702" d="M301 1493q-51 0 -51 33l4 6l6 4h11q30 -25 30 -43zM289 1430h-10v18h10v-18zM260 1462q0 -14 -20 -14q-10 0 -17 6l-12 23v10l4 6l6 4q39 -22 39 -35zM486 1133q-33 0 -33 30h33v-30zM426 1124l-4 -4q-12 -6 -10 -6q-14 0 -16 16q1 4 10 15h10q6 -4 10 -10v-11zM45 1507 q-2 -23 -26.5 -51.5t-46.5 -28.5q-17 0 -17 19q0 17 35 39t55 22zM486 983q0 -6 -14.5 -28.5t-20.5 -26.5q-8 2 -15 10l-2 6q13 43 37 53h4q7 -4 11 -10v-4zM422 918q0 -16 -16.5 -33t-16.5 -35h-14q0 68 47 68zM-53 1331q-4 -6 -10 -10h-10q-7 4 -11 10v10q4 5 17 11 q3 -2 14 -11v-10zM359 803h-21v28h21v-28zM643 1288q0 -19 -12 -37q-12 -22 -29 -22h-186q-10 -47 -43 -55v45l-74 4q-43 2 -43 -93q0 -8 4 -102l19 -20v-70l-19 -18v-134h166l21 -14q-13 -29 -168 -29l20 -14h254q17 0 29 -23q12 -19 12 -38t-20 -38.5t-39 -19.5h-246 l-35 -32v-521q0 -10 -26 -24.5t-37 -14.5q-12 0 -38 15t-26 24v127q-8 -8 -22 -8q-17 0 -27 19v518h-8q-29 0 -29 20q0 23 33 21v348q-7 0 -20 -3t-19 -3q-18 0 -42 18q-27 19 -36 21q10 -2 -30 -2q-29 0 -29 22q4 6 10 8h117q1 0 10 -4t14 -4q8 1 29 8v197q35 45 64 45h184 q0 8 -5 22.5t-5 22.5q12 0 24 -2l10 -10q13 -31 31 -35h51q50 0 62 -23l-49 -24q0 -3 2 -6q196 0 196 -62zM-178 1096h-22v28l4 2q18 0 18 -30zM13 782h-27l-49 60l4 6q11 4 10 4q15 0 38.5 -27t23.5 -43zM-178 979q0 -33 -22 -33v33h22zM-73 850h-29v20h29v-20zM-157 891 h-23v29h6q17 0 17 -29zM416 1350q-2 12 -29 12l-20 -2v-10h49zM328 1350l-4 6l-6 4h-9v-10h19zM260 1360q-6 0 -22 2h-23q-84 0 -84 -45l2 -6q17 16 65 27t62 22z" />
<glyph unicode="G" horiz-adv-x="802" d="M427 1380h-166q45 29 78 29q13 0 88 -29zM790 518l-10 -10h-11l21 20v-10zM907 66q-29 0 -29 38q0 76 10 189q2 2 4 2q15 -6 15 -21v-208zM839 205h-10v31h10v-31zM782 84q0 -27 -21 -27q17 0 -41 13q-34 -9 -135 -11q-28 0 -80 -20.5t-80 -20.5q-20 0 -57.5 10.5 t-56.5 10.5q-41 0 -123 -5t-123 -5q-2 -39 -25.5 -57t-23.5 -21l2 -12q2 -7 8 -7q1 0 13 5.5t18 5.5v-60h-127l-11 127q11 13 11 31q0 9 -11.5 14t-11.5 19q0 45 62 45l8 -2l-19 -19q2 -6 11 -10q6 4 18 10q4 -2 20 -20h5q10 0 16.5 41.5t17.5 46.5q19 -21 19 -88h24v119 l17 8l8 -8q2 -50 20 -119h11q8 41 8 80q0 52 -34 150.5t-34 150.5v661q0 64 43 123v-186q27 116 102 195q85 89 197 89q110 0 201 -82q94 -85 94 -194q0 -47 -59 -47q-45 0 -60 53q-24 80 -38 100q-40 54 -144 54q-53 0 -102 -27q-58 -32 -58 -82v-870q0 -31 21 -45h135 q-37 -31 -88 -43q23 -23 68 -23q26 0 26 37q0 21 15 25l10 -11q6 -24 8 -49h20q5 74 21 99h8q17 -17 21 -78q2 -2 4 -2q10 0 20.5 23.5t14.5 25.5l10 -8q18 8 18 39v184q-8 -53 -43 -96v282q-104 15 -104 60q0 36 90 59v4q0 18 -54 25.5t-55 17.5q21 12 70 12q90 0 106 -59 q123 -10 123 -49v-215q45 -12 45 -25q0 -8 -10 -16h-10q-6 10 -14 12l-7 -2q-4 -156 -49 -264q3 2 6 2q45 0 45 -53q0 -12 -2 -27q11 6 31 21h4q17 0 17 -25zM849 59l-10 -20q-31 14 -31 84q0 27 10 63h11q20 0 20 -10v-117zM790 135q-39 0 -39 35v6q2 6 10 10q29 0 29 -51z M575 264q0 -33 -25 -33l4 54l4 6l7 2q10 -12 10 -29zM841 -57q0 -31 -16 -31h-7l-10 10v4q0 17 33 17zM857 -186h-8l8 10v-10zM878 -215h-10v10zM96 293q-5 -12 -27 -12h-6q0 22 16 22h6q6 -4 11 -10zM673 131v16l-31 -30q4 -6 15 -11q16 0 16 25zM321 166l-6 4l-4 -4l4 -4z M309 174v4q0 8 -9 8q-8 0 -8 -8v-4q0 -8 8 -8h2q7 0 7 8zM212 109q-14 38 -28 49v-13q0 -26 10 -67l4 -2q10 2 14 33zM18 16v13h-41q18 -13 41 -13zM-29 -51q0 16 -13 22l-10 -10q6 -12 23 -12z" />
<glyph unicode="H" horiz-adv-x="771" d="M-64 1346q0 -17 -31 -17q-18 0 -48 14q-33 15 -48 17v6q0 14 25 14q24 0 57 -8q45 -11 45 -26zM-230 1384q0 -14 -18 -14h-29q-12 0 -36 4t-36 4v-37q-21 5 -45 34.5t-24 51.5q0 23 37 23q29 0 86 -21q65 -24 65 -45zM729 223q0 -39 -29 -39q-12 13 -14 21v528 q0 10 -31 31v-676q0 -23 -19 -42t-42 -19q-66 0 -66 41v528q-14 39 -43 39h-201v-430q-10 -19 -24 -29q-15 10 -25 29v422q-31 -21 -31 -31v-528q0 -39 -63 -39q-64 0 -64 39v1214q-18 3 -65 12t-47 31q0 16 31 16q14 0 42.5 -15t38.5 -15h7q39 30 57 30q22 0 50.5 -34.5 t43.5 -34.5v88l25 20l24 -20v-98q30 -27 131 -29q21 0 57 -16q46 -20 56 -23v106q0 11 25.5 26t37.5 15q22 0 43 -19t21 -40v-461l31 21v518l24 20q19 -8 19 -39v-1118zM-387 1321q-7 -2 -24 -15.5t-19 -13.5q-9 0 -22 12.5t-13 22.5q0 14 28 14q39 0 50 -20zM-398 205h-28 v20h28v-20zM-338 55q-23 0 -23 23h23v-23zM360 1133q0 55 -72 55v-23q37 -28 72 -32zM524 811v305q-19 21 -39 21q-31 0 -31 -41q0 -18 10.5 -51.5t10.5 -51.5q-21 -28 -117 -73q-20 6 -20 69q0 21 33.5 36.5t33.5 21.5q0 12 -8 20h-70q-12 33 -39 39v-264l29 -31h207z M229 764v448l-18 -8v-422zM514 772h-187q-8 0 -28 -18h194z" />
<glyph unicode="I" horiz-adv-x="352" d="M418 1122q0 -12 -12 -18q-13 6 -13 18h25zM445 1016q0 -23 -33 -23q0 27 8 68l6 4q19 -8 19 -49zM338 1116q0 -33 -35 -33q-16 0 -16 27v8q0 25 37 25q14 0 14 -27zM398 1010q0 -13 -21 -17v33h10q10 -12 11 -16zM486 780q0 -6 -70 -67h-25v67q-29 -76 -88 -69l-16 2 q-10 4 -12 10v-549l-25 -18q-20 8 -20 39v1124q0 31 20 39l25 -21v-360q43 -4 47 -8q16 -8 16 -41t-14 -41q-4 -4 -45 -8v-68h41q0 78 76 78q-2 3 -18 29q-11 19 -11 28q0 23 26 23q25 0 52 -41l-19 -21q19 -12 19 -35v-4q8 -8 28 -10l11 -6q2 -8 2 -16q0 -27 -31 -35h8 q23 0 23 -21zM211 57q0 -13 -23 -26t-36 -13q-52 0 -60 60q-2 15 -2 233q0 96 -3 287t-3 287q0 85 2 159q3 111 6 158q-1 13 -1 33q0 19 1 45q9 57 60 57q14 0 36.5 -13t22.5 -26v-1241zM45 659q0 -8 -10 -16q-14 6 -14 33q24 0 24 -17zM-123 807q-28 0 -28 18q0 17 28 17 v-35zM74 596l-10 -4l-11 4q3 4 11 4t10 -4zM-73 741l-19 -18q-6 2 -10 6v23q0 6 10 10zM-14 305q0 -14 -25 -14q-24 0 -24 14v6q14 11 28 11q11 0 21 -11v-6zM-100 360h-23v21h7q16 0 16 -21zM-14 262q-6 -10 -29 -12v22h10q15 0 19 -10zM426 819v10h-10z" />
<glyph unicode="J" horiz-adv-x="544" d="M559 477q0 -94 -39 -117v1041l21 18l18 -18v-924zM471 299q0 -109 -93.5 -196t-203.5 -87q-45 0 -94 19q-60 23 -60 63q0 39 82 39q-10 0 3 -1t36 -1h39q103 0 125 45v4l-80 45h109l14 25v1049q0 11 27 25q24 13 37 13q16 0 37.5 -12t21.5 -26v-1004z" />
<glyph unicode="K" horiz-adv-x="818" d="M750 68q0 -39 -35 -39q-47 0 -65 49l-185 500q-18 49 -63 49q-40 0 -84 -74q-8 -15 -53 -113v-352q0 -21 -20 -41t-42 -20q-65 0 -65 41v686q-41 -56 -41 -70v-352q0 -12 -10.5 -25.5t-22.5 -13.5q-10 8 -10 20v1153l20 21q23 -29 23 -39v-528l41 -31v411q0 11 25.5 25 t37.5 14q22 0 43 -18t21 -39v-352l43 67q28 -84 33 -127h-72v-116q8 -17 29 -31h6q35 0 53 39l246 520q5 11 28.5 31t32.5 20q27 0 27 -51q-207 -414 -207 -469v-20z" />
<glyph unicode="L" horiz-adv-x="631" d="M586 88q0 -15 -12.5 -37t-26.5 -22h-440q-15 0 -27 22t-12 37v1196q0 56 67 56q10 0 21 -1q0 103 29 119l24 -20v-1116l35 -33h303q-6 0 35 -19l4 -6l-18 -20h-363q-10 -72 -10 -56q0 -20 28 -36h306q20 0 38.5 -21.5t18.5 -42.5z" />
<glyph unicode="M" horiz-adv-x="1002" d="M717 723h-24q0 12 12 20q12 -6 12 -20zM678 705h-24q0 14 12 18q12 -4 12 -18zM980 195q0 -9 -19 -29q-14 14 -24 29v714q-25 54 -25 166l-25 -39v-968q0 -39 -63 -39q-64 0 -64 39v714l-14 29q-39 -11 -77 -49q-42 -41 -42 -78q1 -7 2 -25h43l-61 -180l-23 60h-10 q-78 -236 -102 -236q-36 0 -64 92q-36 121 -39 123q-8 -32 -37 -41q-40 -12 -47 -18v-244q0 -9 -10 -25t-18 -16q-11 0 -21 21v225q-16 -12 -49 -29v-303q0 -23 -19 -42t-42 -19q-66 0 -66 41v278q-64 0 -136 -27q-81 -30 -114 -75l-8 10v68q86 36 258 98v880q0 11 27 26 q24 13 37 13q55 0 112 -155v166l25 20q16 -10 26 -27q19 -31 70 -185t51 -183q-30 0 -69 108q-28 79 -48 140v-25q0 -140 23 -237q12 -50 74 -230q17 -48 41 -96q37 18 96 88q4 88 16 143q4 6 13 6q24 0 30 -51l158 451q24 67 78 67q73 0 67 -96q8 21 29.5 74t40.5 53 q6 -6 19 -20v-1155zM-212 307q0 -26 -45 -26v6q0 47 24 47q21 0 21 -27zM539 684l-67 -68h8q41 0 59 68zM353 567v19l-58 176v-238l5 2q18 13 53 41zM236 498v346l-10 -2q-10 -11 -29 -31v-256q0 -53 29 -66z" />
<glyph unicode="N" horiz-adv-x="823" d="M751 1321l-10 -1155q-12 12 -33 39v-137q0 -39 -63 -39q-55 0 -80 67l-244 658q-19 53 -63 53v-621l-15 -20l-16 20v607l-18 -11v-714q0 -39 -64 -39q-59 0 -59 39v1235q0 12 24 26q21 12 35 12q64 0 78 -59q4 49 29 49l6 -4q22 -57 141 -387l-4 -2q-4 0 -6 2 q-24 40 -52 121q-30 88 -47 123h-18v-29l197 -549q21 -59 51 -59q16 0 38.5 9t22.5 22v725q0 11 26 24.5t38 13.5t37.5 -14t25.5 -24v-1010h19v1028l14 10z" />
<glyph unicode="O" horiz-adv-x="743" d="M778 1534q0 -20 -16.5 -69.5t-16.5 -75.5q0 -54 -51 -54q0 56 17 105q4 35 18 104q2 6 10 10h15q24 0 24 -20zM778 1300h-18v19h18v-19zM711 1290q-5 -6 -11 -10h-10q-6 4 -10 10l10 10h10zM700 1237q0 -23 -30 -23q0 27 20 27h10v-4zM760 977l-11 -10h-10l-10 10l10 10 h10zM711 965q-15 0 -21 12q6 12 21 12v-24zM682 1178q0 -9 -10 -20t-11 -15v-4q0 -11 5.5 -32t5.5 -32v-792q0 -107 -97 -189q-92 -78 -200 -78q-113 0 -202 91t-89 204v733q0 177 235 299h-137q47 35 88 35q25 -6 111 -28q151 -40 252 -158q12 -14 49 -14zM45 301 q-39 68 -39 129v653q0 62 39 129v-911zM504 1190v4q0 8 -9 8q-8 0 -8 -8v-4q0 -8 8 -8h3q6 0 6 8zM545 1055v37q0 63 -39 90l-2 -4q20 -62 20 -134h10zM545 233v773l-21 -9v-88l10 -10v-10l-14 -10v-480q0 -39 -45 -106q0 108 -5 322.5t-5 322.5q-13 -10 -68 -39 q-12 -7 -26 -28q-14 -24 -23 -31q-10 4 -10 28q61 78 127 138v206q-13 11 -56 11h-38q-61 0 -107 -28q-53 -34 -53 -91v-10q18 2 31 10q2 10 8 29h4q-8 0 22 -9q2 -10 4 -30q-4 -7 -10 -11q-10 2 -20 11q2 -7 2 -13q0 -39 -41 -39v-798q0 -14 14 -42t25 -32h88l-29 -25 l10 -10l47 -2l62 2q35 1 76 33t41 65zM418 1133h-13q0 14 13 20v-20zM440 1059l-4 -4l-4 4q0 6 4 6zM457 1016h-11v10h11v-10zM256 928q0 -31 -35 -31v31h35zM332 813q0 -35 -35 -35q0 35 35 35zM293 727l-4 -4l-4 4l4 6zM250 741l-8 11h8v-11zM280 614q-4 -8 -10 -8 q-20 0 -20 19q0 20 20 20q10 0 10 -20v-11zM280 586q-6 -13 -20 -13v13h20zM280 524q-30 0 -30 17q0 18 30 18v-35zM280 477l-10 -8q-12 4 -12 20q14 0 22 -12z" />
<glyph unicode="P" horiz-adv-x="672" d="M696 977q0 -39 -21 -66v283q21 -49 21 -139v-78zM637 954q0 -370 -379 -397v-352q-17 -23 -25 -29q-5 4 -24 29v334l-19 -21v-450q0 -39 -63 -39q-60 0 -60 39v1235q0 27 58 36q34 5 79 13q13 14 39 39q17 12 138 12q98 0 127 -37h-205l-21 -14q25 -21 80 -21 q133 0 209 -127q66 -110 66 -250zM518 803v305q0 38 -34.5 77.5t-72.5 39.5h-147v-443q0 -11 14.5 -25t24.5 -14h196q11 29 19 60zM204 705v499l-10 -18v-461zM458 705q-17 0 -51 2t-51 2q-51 0 -74 -23q8 -2 29 -2h45q68 0 102 21z" />
<glyph unicode="Q" horiz-adv-x="740" d="M760 1274h-11v10h11v-10zM850 1157q0 -27 -12 -31q-13 9 -13 62q25 0 25 -31zM723 1157q0 -20 -23 -20q-22 0 -22 22v39q45 0 45 -41zM780 1049h-10v28h10v-28zM799 1020q-13 8 -13 18h13v-18zM760 844q-4 -10 -19 -10q-16 0 -20 10q4 10 20 10q15 0 19 -10zM786 553 q-18 0 -46 -17.5t-42 -17.5q4 90 27 90q20 0 40.5 -18t20.5 -37zM799 500h-9v20h9v-20zM819 471l-6 -4l-4 4l4 4q6 0 6 -4zM799 422h-9v10h9v-10zM762 313q-54 0 -54 31l3 18h4q47 0 47 -49zM721 471q0 -16 -8 -16h-21v-33l-20 10h-11q-1 -23 -12 -126q-8 -73 -8 -126 q0 -24 20.5 -58.5t20.5 -47.5q0 -15 -25 -15q-15 0 -44 10.5t-44 10.5q-76 0 -76 -57q0 -11 2 -23h-18q-89 0 -207 -68h-4q-53 0 -84 35h148q16 0 39 43q-129 17 -215 108q-89 94 -89 222v684q0 123 83 219q87 100 208 100q196 0 277 -190q24 -56 24 -66v-370h8q48 0 48 -41 q0 -25 -15 -31q-6 -4 -37 -4v-141q19 -8 60 -19v-10zM45 98q-39 68 -39 152v608q0 84 39 152v-912zM524 1126q1 20 -8 31q-51 70 -164 70q-131 0 -131 -62q23 11 39 11q35 0 88 -33h-156v-897q0 -49 51 -81q45 -28 97 -28q88 0 88 56q0 10 -5 29.5t-5 29.5q0 29 53 33v735 l10 -4q7 -9 23 -47t16 -47z" />
<glyph unicode="R" horiz-adv-x="810" d="M890 612q-10 0 -30 6.5t-30 6.5q-28 0 -28 -35q0 -19 10 -55t10 -54q-6 -11 -54.5 -39t-64.5 -32q-20 8 -20 69q0 20 35 37t35 21q0 14 -11 18h-67q-25 25 -60 74q0 16 31 16q10 0 26.5 -9t26.5 -9q0 47 -51 47q-53 0 -53 -78q0 -25 2 -31q48 -138 88 -254 q70 -205 70 -239q0 -45 -35 -45q-52 0 -74 69l-147 459q-10 30 -27 38q-11 5 -47 5v-90q-20 50 -49 61q-16 6 -88 6v-507q0 -41 -64 -41q-63 0 -63 41v507l-39 -28v-510q-10 -14 -25 -29q-14 15 -24 29v813q-31 18 -64 18l-10 -2v-37q-24 5 -47 35t-23 54q0 20 37 20 q18 0 53.5 -7t53.5 -7v268q0 15 37 30q45 18 49.5 23.5t15.5 57.5q8 36 49 36h101q211 0 312 -73q118 -86 118 -289q0 -113 -31 -176q-6 -6 -22.5 -35t-16.5 -35q0 -8 41 -8q164 0 164 -111zM-40 811q-12 -8 -39 -31h-2q-22 -2 -37 35q0 14 29 14q39 0 49 -18zM552 100 l-4 -4l-4 4l4 6zM562 72l-4 -4l-4 4l4 4zM638 901q0 139 -10 193q-24 127 -109 127h-168q31 -4 49 -25h-106v-434q0 -11 14 -25t25 -14h166q-25 18 -78 49q-10 2 -64 12q-45 8 -45 31q0 16 31 16q15 0 82 -34q37 -19 123 -17v285q39 -66 39 -158q0 -22 -10.5 -63.5 t-10.5 -63.5q0 -20 21 -28q51 36 51 149zM157 623v561q-31 0 -31 -29v-504q0 -28 31 -28z" />
<glyph unicode="S" horiz-adv-x="732" d="M676 1161q-31 0 -31 49v23q31 -19 31 -72zM518 1360h-166q45 29 78 29q12 0 88 -29zM811 664q-45 -37 -127 -117q4 -35 4 -72q0 -177 -70 -303q-86 -154 -251 -154q-77 0 -222 99h-10q-14 -13 -29 -21h-10q-20 0 -20 27q0 5 2 12q10 8 28 31v8q0 13 -19 54t-19 61 q0 43 59 43q57 0 68 -99q16 5 36 5q23 0 23 -23q0 -12 -15.5 -19.5t-15.5 -15.5q0 -45 144 -45h63q-49 17 -88 45h166q29 15 29 53v207h-7q-14 0 -14 19q0 12 23 53q0 60 -121 117q-174 82 -221 119q-121 97 -121 253q0 132 80 232q86 108 215 108q107 0 199 -79 q96 -82 96 -187q0 -59 -62 -59q-37 0 -55 53q-27 79 -43 100q-42 54 -135 54q-58 0 -84 -9q-36 -12 -68 -51v-194l-14 8v-43q0 -105 125 -162q68 -31 207 -88q15 -10 50 -52q31 -37 54 -46v49q6 -14 25 -29q129 78 135 78l6 -4l4 -6v-10zM500 430q0 -22 -21 -22v22h21z M440 371l-129 -127q-4 -2 -8 -2q-20 0 -20 26q0 32 62 80.5t95 48.5v-26zM205 303q-21 27 -21 51v17q21 -13 21 -47v-21zM459 145l-4 5l-6 -5l4 -4z" />
<glyph unicode="T" horiz-adv-x="691" d="M631 1288q0 -19 -11 -38q-13 -23 -30 -23h-147l-33 -33v-1116q0 -21 -20.5 -40.5t-42.5 -19.5q-12 0 -38 14.5t-26 24.5v1127q0 18 -49 39v-979q0 6 -18 -35l-7 -4l-24 18v1000q-133 0 -133 65q0 62 127 62q-19 45 -39 45h-146l-20 14q8 18 39 18h383q31 0 39 -18 l-21 -14h-147q-19 -15 -29 -35q0 -8 4 -14h330q18 0 38.5 -20.5t20.5 -37.5z" />
<glyph unicode="U" horiz-adv-x="765" d="M357 926q0 -22 -2 -25q-1 -14 -12 -18q-10 4 -10 20q0 23 24 23zM716 360q0 -119 -63 -216q-69 -105 -181 -124q-26 -2 -90 -10q-12 -2 -39.5 -15t-42.5 -13q-59 0 -64 34h138q-105 52 -148 103q-28 -10 -28 -72q0 -27 -17 -27q-24 0 -24 60q0 6 5 17.5t5 17.5 q0 9 -5 26.5t-5 26.5q0 8 5 24.5t5 24.5l-2 10l-8 9q-16 -26 -25 -50q-29 -77 -63 -77q-29 0 -29 30q4 6 10 19q-10 47 -10 39q0 75 4 153q5 103 6 152l10 686l15 18v176l24 31v4q0 8 -10 12.5t-10 16.5q0 27 14 27q13 0 24 -18t11 -32q0 -20 -10 -30v-166q10 -10 10 -39 v-21q-10 -26 -10 -20q0 -10 6 -10q-8 0 18 4v164q0 10 26 24t38 14q30 0 59 -38q17 -99 39 -295q4 2 10 2q49 0 49 -41q-53 -54 -57 -60q-18 0 -31 11v-314q78 -73 78 -88q0 -51 -78 -51v-236q0 -96 168 -96q43 0 62 10v1041l24 18q21 -8 21 -39v-848q0 -100 -31 -161h6 q24 0 47 43q21 38 21 65v1039q0 10 25.5 24t37.5 14q23 0 41.5 -18t18.5 -41v-924zM290 623l-4 -5l-4 5q0 6 4 6zM132 90h-27q0 12 13 29q12 -4 14 -29zM142 991l-4 10q-4 -2 -4 -10t4 -10zM142 936l-4 6q-4 -1 -4 -6l4 -4zM142 864v8q0 15 -4 21l-2 -4l-2 -17v-10 q0 -16 4 -18q4 6 4 20zM142 797v6q0 16 -4 22q-4 -2 -4 -18v-16q0 -14 4 -15v0q4 10 4 21zM312 500q0 10 -8 10t-8 -8v-4q0 -6 8 -6t8 8zM142 618l-4 11q-4 -2 -4 -11q0 -8 4 -10zM142 512v16q0 23 -4 31q-4 -4 -4 -29v-20q0 -28 4 -29q4 11 4 31zM142 379v10q0 17 -4 25 q-4 -2 -4 -21v-18q0 -23 4 -21q4 6 4 25zM142 299l-4 6q-4 -1 -4 -6l4 -4zM155 285q0 6 -7 10q-8 0 -8 -8v-4q0 -7 8 -7q7 3 7 9zM155 246q0 6 -7 10q-8 0 -8 -8v-4q0 -8 8 -8q7 4 7 10z" />
<glyph unicode="V" d="M482 1362q-4 4 -7 8v10q2 4 7 -18zM464 1352l-4 -4l-4 4l4 4zM370 1286q0 -33 -18 -33h-4q-6 4 -11 11v4q0 18 33 18zM387 1225q-7 -13 -19 -13v21l4 2q8 -2 15 -10zM153 1415q0 -20 -41 -20l-22 2q0 33 26 33q37 0 37 -15zM290 1249q0 -18 -30 -18v33h10q20 0 20 -15z M200 1331q-6 -12 -18 -12v22h8q6 -4 10 -10zM436 1057l-6 -4l-4 4l4 4q5 0 6 -4zM249 1176l-10 8l10 10v-18zM243 1067h-33v-29h21q-12 -8 -12 -16q0 -6 11 -10t11 -13q0 -13 -33 -24l2 -6h-10l8 6l-75 387h8q16 -16 59 -266q10 2 19 2q24 0 24 -31zM231 930l-10 -10v38 l10 -18v-10zM358 803h-10v10h10v-10zM235 891l-4 -10q-4 2 -4 10t4 10zM327 844q0 -43 -61 -43q0 13 23 28t38 15zM243 836l-4 -5l-4 5q0 6 4 6zM397 674q-14 0 -21 10q7 12 21 12v-22zM651 1362l-107 -531q-14 -39 -24 -88q-15 -71 -17 -94q0 -3 6.5 -10t6.5 -12 q0 -21 -21 -31q-16 -58 -51 -227q-39 -187 -37 -213q8 8 29 10q14 -6 39 -21v-4q0 -37 -29 -47q-10 -2 -59 -6q-25 -59 -64 -59q-47 0 -65 24l-37 64q-13 6 -39 28l37 31q12 10 12 45q0 53 -21 53l-20 -10v-10q10 -14 10 -25q0 -39 -51 -39q0 9 6 27t6 27l-20 20v10 q10 9 40 29q6 -2 29 -6v16q0 31 -28 146q-21 0 -21 20q0 3 5.5 13t5.5 16l-23 108q-10 13 -27 39q11 29 11 35q0 15 -119 602v6q0 43 49 43q60 0 70 -59l67 -412q21 -20 21 -49l-11 -8q0 -37 63.5 -96.5t63.5 -95.5q0 -62 -75 -62q0 -117 26 -158q4 13 21 29q18 -2 39 -10h6 q33 0 33 125q0 7 -5.5 21.5t-5.5 21.5q52 51 52 192q0 25 -21 33q12 9 22 9q4 0 7 -1l43 244q32 187 24 231q-4 -4 -21 66q12 -13 32 -31h12q10 2 57 10q13 -4 39 -10l19 31h10zM389 637h-21v18h4q13 0 17 -18zM503 469h-8v10h8v-10zM348 479q-11 -4 -17 -4q-14 0 -14 29v8 q0 27 14 27h4q13 0 13 -13v-47zM555 283q0 -23 -39 -23h-7q0 43 29 43q17 0 17 -20zM63 725h-10l10 8v-8zM544 225h-10v8h10v-8zM555 152q0 -15 -11 -15q-12 4 -14 31q25 0 25 -16zM487 176h-12v19q12 -7 12 -19zM172 373q0 -41 -50 -51q2 8 2 16q0 104 -208 465 q-23 24 -62 80q-8 14 -8 26q0 31 22 31h11q4 -4 135 -207q12 -61 49 -137q29 -29 70 -96q8 -39 39 -119v-8zM514 106q-9 -12 -19 -12v12h19zM237 698l-6 7l-4 -5l4 -6q2 3 6 4zM301 651q0 39 -64 39q0 -67 12 -94h7q45 0 45 55zM335 379v4q0 8 -8 8q-6 -4 -6 -10t6 -10 q8 0 8 8zM307 389v4q0 8 -8 8q-9 0 -9 -8v-4q0 -8 9 -8h2q6 0 6 8z" />
<glyph unicode="W" horiz-adv-x="1017" d="M1067 1341l-88 -596v60l60 536l18 21q6 -4 10 -10v-11zM973 696q0 -10 -4 -20l-2 6l-2 14l2 17l2 4q4 -10 4 -21zM285 657l-105 705h17l20 -39l68 -598v-68zM1000 1245l-109 -735h14q23 0 35 10v-20q0 -61 -20 -181q-24 -142 -47 -161l-31 30q-12 -113 -14 -120 q-19 -76 -74 -76t-68 78l-127 735q-10 59 -49 59q-94 0 -94 -354h41l-55 -322q-3 -6 -19 -20h-10q-4 2 -20 20l-29 -157q-8 -41 -64 -41t-63 51l-176 1184q-2 13 -2 26q0 52 51 52q60 0 67 -58l89 -745q2 -18 15 -41q15 -27 30 -27q34 0 34 29v108l23 -49l133 733 q7 41 45 41q37 0 43 -30l29 -138l39 207l10 8l59 -317h-88l99 -543q9 -51 49 -51q41 0 47 51l88 783q1 13 23 26t36 13q24 0 43.5 -17.5t16.5 -40.5zM299 608q0 -14 -4 -20q-4 2 -4 18v12l2 15l2 4q4 -10 4 -23v-6z" />
<glyph unicode="X" horiz-adv-x="721" d="M702 348l-4 -4l-4 4l4 6zM672 383q0 -23 -23 -23v23h23zM659 27q0 -35 -43 -35q-56 0 -94 114q-12 35 -32.5 106.5t-32.5 106.5q-38 115 -88 115q-66 0 -103 -115q-17 -59 -63 -213q-35 -114 -90 -114q-41 0 -41 49l184 489h-49q0 29 21.5 84t21.5 84q0 27 -40 55t-40 60 q4 8 10 10q15 0 38.5 -13t29.5 -26q2 4 2 11q0 21 -21.5 65t-21.5 64q0 8 2 16l-117 313v11q0 30 43 30q58 0 86 -98q13 -52 51 -186q30 -99 97 -99q40 0 78 96q9 23 45 126q10 33 33 99q24 62 69 62q47 0 47 -41q-21 -54 -92 -233l-72 -170q-43 -109 -43 -174 q0 -64 21 -107q5 -10 24.5 -19t23.5 -21q13 -40 40 -37l88 -89v-10h-39l-88 88h-15zM180 852q-2 -10 -28 -10q-107 0 -158 80q-2 -2 -6 -2q-16 0 -51 34q-40 38 -50 45q-14 2 -39 11q-4 8 -20 49v10q13 8 18 8q25 0 86 -59q21 -21 82 -78q16 -11 142 -70q3 -2 10 -7z M492 489q0 11 -9 11q-8 0 -8 -8v-5q0 -6 8 -6q9 0 9 8z" />
<glyph unicode="Y" horiz-adv-x="698" d="M475 1278l-4 -4l-4 4q0 6 4 6zM639 1253q0 -12 -2 -18l-145 -432q-35 -78 -74 -215q-8 -29 -4 -90q4 -60 4 -92v-365q0 -21 -21.5 -40t-42.5 -19q-12 0 -38.5 14t-26.5 24v549l-15 -401q-1 -32 -18 -39l-25 18v549q-36 74 -36 117q0 12 2 21q-138 411 -138 426 q0 36 45 36q44 0 54 -32l137 -451q3 -3 22 -31q12 -18 31 -18q41 0 53 41l129 430q18 59 68 59h29q12 -12 12 -41z" />
<glyph unicode="Z" horiz-adv-x="672" d="M612 1354q-16 -37 -26 -76q-2 -29 -13 -80l-323 -893q-2 -6 -2 -37q0 -94 41 -94h295l10 -16l-10 -8h-371q0 -17 10 -35q11 -21 27 -21h295q30 0 30 -53q0 -49 -30 -49h-432q-41 0 -41 84q0 27 2 33l362 1024q0 17 -11 36q-13 23 -28 23h-264q-17 0 -30 23q-11 19 -11 38 q0 21 19 36.5t41 15.5h401q-8 45 -39 45h-264l-19 14q9 20 39 20h293q33 0 49 -30z" />
<glyph unicode="[" horiz-adv-x="420" d="M291 -141q0 -25 -51 -25q-24 0 -54 4q-44 6 -53 6q-39 23 -39 56v1388q0 107 35 117v-59h131q31 0 31 -25q0 -8 -45 -25.5t-45 -38.5v-1337q0 -32 45 -45t45 -16z" />
<glyph unicode="\" horiz-adv-x="471" d="M373 49q0 -6 -6 -8l-13 -2q-32 0 -39 39l-215 1179v68q0 10 21 10q32 0 39 -39l213 -1179v-68z" />
<glyph unicode="]" horiz-adv-x="485" d="M408 -100q0 -33 -39 -56q-11 0 -60 -6q-33 -4 -59 -4q-37 0 -37 25q0 3 44 16t44 45v1340q0 18 -44 35.5t-44 25.5q0 35 102 35v49q56 -47 93 -117v-1388z" />
<glyph unicode="^" horiz-adv-x="639" d="M508 1157q-17 0 -19 -2l-90 127q-27 64 -63 64q-5 -1 -14 -7q-119 -182 -150 -182q0 16 64 103l79 108q9 18 23 18q15 0 87 -103q27 -41 83 -122v-4z" />
<glyph unicode="_" horiz-adv-x="883" d="M690 198l-4 -4l-4 4l4 6zM774 -140h-8v10h8v-10zM141 296q0 -47 -45 -47q0 18 2 29q6 18 43 18zM707 -228q-11 -10 -48 -24.5t-51 -14.5h-393q-59 0 -59 63q0 64 59 64h393q58 -23 99 -82v-6zM362 -382q-12 0 -35.5 -7t-35.5 -7q0 53 71 53v-39zM197 -365l-7 -5l-4 5l7 4 zM129 -345l-6 -4l-4 4l4 4zM172 -390l-4 -4l-4 4l4 6zM31 -384h-11v8z" />
<glyph unicode="`" horiz-adv-x="528" d="M442 1130h-67l-205 224h129z" />
<glyph unicode="a" d="M725 1165q0 -19 -16 -69t-16 -76q0 -55 -52 -55q0 57 17 106q4 35 18 103q2 6 12 12h13q24 0 24 -21zM725 930h-18v18h18v-18zM658 920l-10 -11h-11l-10 11l10 10h11zM648 870q0 -24 -33 -24q0 24 22 24h11zM490 969h-156q49 30 78 30t78 -30zM707 606l-10 -10h-11 l-10 10l10 10h11zM363 762h-12q0 12 12 20v-20zM387 688l-4 -4l-4 4q0 6 4 6zM402 645h-8v10h8v-10zM230 772q-2 -57 -13 -57q-10 0 -24 8v-41h-10q-19 0 -25 12l-2 11q6 19 30.5 41t43.5 26zM658 596h-25v-391q-2 -8 -14 -21h-10q-17 11 -25 21v-137q0 -41 -66 -41 q-34 0 -57 42q-20 35 -20 72l2 4q0 7 4 20t4 19v236l-29 29h-137q-10 -39 -31 -39q-18 0 -18 20l-10 -10l-2 -60q-1 -25 11.5 -77.5t12.5 -77.5h-43q0 14 12 18q-19 7 -28 53l-13 66v-137q0 -27 58 -27q0 -37 -27 -33q7 -6 72 -28q55 -19 55 -33q0 -31 -40 -51 q-33 -17 -68 -17q-84 0 -129 75q-37 63 -37 153q0 229 166 274q41 6 88 19q40 12 137 129q2 59 2 43q0 114 -133 114q-57 0 -120 -45t-77 -45q-35 0 -35 39q0 68 88 121q78 47 152 47q82 0 141 -45q36 -28 72 -88q29 -49 43 -53v116q16 -18 41 -61q12 -37 12 -193h21v-20z M203 557q0 -31 -35 -31v31h35zM240 356l-4 -4l-4 4l4 4zM324 166q-4 -4 -10 -4l-9 4q2 4 9 4q5 -1 10 -4zM295 176l-6 -4l-4 4l4 4zM275 184h-10q-7 4 -9 11h9l6 -5zM453 586q0 6 -2 20l-68 -69h11q18 0 38.5 16t20.5 33z" />
<glyph unicode="b" horiz-adv-x="684" d="M877 371h-248q-14 -49 -35 -109v47q-12 -291 -174 -291q-36 0 -94.5 44t-79.5 44q-47 -32 -96 -77q-24 -2 -21 -2q-63 0 -63 41v313l-367 18q-12 1 -14 31h381v870q0 10 25.5 24.5t37.5 14.5q21 0 42.5 -19t21.5 -40v-391l14 450l10 11l15 -29v-393q14 -6 14 -19 q0 -6 -4 -17.5t-4 -17.5q0 -3 2 -8q33 -6 26 -6q-2 0 57 40t97 40q65 0 116 -62q48 -59 48 -126v-353l14 471q25 -34 25 -77v-394h231l19 -18zM453 213v532q0 86 -178 86h-9q-20 -14 -28 -30v-387q10 -4 47 -23q14 0 35 10q10 -2 24 -20h-110v-27q0 -71 4 -100q0 -5 4 -15 t4 -16q-10 -12 -29 -39v-10q13 -14 39 -39h119q21 0 49.5 28.5t28.5 49.5zM201 535v94q0 90 -4 114q0 3 -2 5v-17q0 -9 -1 -27.5t-1 -27.5v-137q0 14 1 -4t1 -50v-55q0 -13 2 -14v4q4 22 4 115zM201 281v67q-2 19 -4 35q-2 -2 -2 -4v-17l-2 -32v-66l2 -31v-18l2 -2v2 q4 16 4 66zM215 193v4q0 8 -8 8t-8 -8v-4q0 -9 8 -9h2q6 0 6 9z" />
<glyph unicode="c" horiz-adv-x="631" d="M446 1272h-20v20h4q16 0 16 -20zM444 1214h-18v29h18v-29zM426 1126q0 -22 -12 -61q-14 -47 -29 -47q-29 0 -29 31q0 11 20.5 28t20.5 29q0 5 -2 10q-19 28 -20 33q0 16 24 16q27 0 27 -39zM328 705q0 -18 -10 -51q-12 -38 -25 -38q-17 0 -17 27q0 25 23 33v76 q29 0 29 -47zM328 528q0 -8 -11 -18h-6q-33 0 -33 29q0 20 15 20h6q10 -10 29 -31zM571 750q0 -37 -49 -37q-25 0 -72 55t-75 55q-6 0 -33 -6v-43h-35v45q-40 0 -71 -21q-35 -24 -35 -63v-430q4 90 28 90l10 -2q11 -33 11 -84q0 -21 -15.5 -62t-15.5 -57q0 -6 4 -18h84 l-29 -25q9 -12 29 -12q68 0 134.5 46t82.5 46q39 0 39 -41q0 -64 -86 -118q-77 -48 -145 -48q-52 0 -121 29q-21 -55 -21 -88q2 -1 2 -16q14 0 43 20.5t45 20.5q0 -16 -53 -92q-48 -69 -69 -91q-27 0 -27 52q0 22 10 65.5t10 65.5q0 35 -55 194q-24 69 -24 301q0 209 20 271 q38 116 186 192h-116q41 35 71 35q16 0 48 -14.5t42 -14.5q6 0 24.5 23.5t37.5 23.5v-57q64 -20 121 -72q65 -59 65 -118zM289 305h-11v8h11v-8zM53 274q-41 66 -41 181v194q0 125 41 193v-568z" />
<glyph unicode="d" horiz-adv-x="671" d="M714 305q-30 0 -55 19q-33 25 -42 28v-284q0 -41 -63 -41q-23 0 -61.5 35.5t-57.5 35.5q-26 0 -84 -40t-86 -40q-108 0 -145 117l-62 197v499q0 23 -55 56q-40 24 -76 43q-4 8 -20 49v10q14 8 18 8q15 0 64 -44q57 -51 69 -56q15 0 56.5 51t66.5 51q19 0 49 -20 q-114 -14 -114 -127h6q48 50 63 61q37 27 82 27q36 0 74 -31q47 -38 65 -49q-8 0 37 10q0 10 -4 30t-4 30q0 18 14 39v401l25 21q31 -15 31 -70q30 20 49 20q12 0 37.5 -14t25.5 -24v-883q97 -96 97 -115zM468 176q-6 13 -41 68q18 37 18 49v518q-24 20 -59 20 q-68 0 -96 -14q-12 -6 -27.5 -31.5t-32.5 -31.5v-541q0 -86 152 -86q15 0 50.5 18.5t35.5 30.5zM376 711q0 -6 -8 -6q-9 0 -9 8q0 10 9 10q8 0 8 -8v-4zM417 606q0 -10 -13 -10h-26l-80 78q-4 -2 -10 -2q-16 0 -27.5 20t-11.5 37v4q2 6 10 10q55 0 98 -69h11q6 0 14 6t14 6 q21 0 21 -16q0 -7 -5.5 -21.5t-5.5 -21.5q0 -2 5.5 -10.5t5.5 -10.5z" />
<glyph unicode="e" horiz-adv-x="683" d="M600 1163q0 -19 -16.5 -69t-16.5 -76q0 -55 -51 -55q0 57 16 106q5 38 19 102q2 7 12 13h12q25 0 25 -21zM600 928h-21v20h21v-20zM530 918q-2 -7 -8 -11h-10l-11 11q4 6 11 10h10l6 -4zM630 582q0 -138 -41 -138h-313q-39 -26 -39 -45v-186q12 -25 31 -53h88l-31 -25h49 q48 0 106 45t75 45q45 0 45 -37q0 -43 -61 -99q-57 -52 -103 -64q-35 -9 -74 -9q-116 0 -184 93q-57 78 -68 202q0 -47 -10 -67q0 -11 -8 -11q-21 0 -21 19q0 5 5.5 15t5.5 16q0 40 -13 116q-13 81 -16 117q-6 4 -10 12l-2 13l2 16q4 6 10 8l8 109q-29 12 -29 28 q0 5 20.5 31t22.5 33q25 54 31 63v-184q18 113 53 166q31 47 127 121h-77q6 35 77 35q32 0 154 -47q190 -73 190 -338zM100 213q-4 -10 -18 -10v10h18zM100 152q-29 0 -29 18t29 18v-36zM100 106l-8 -10q-13 4 -13 23q15 0 21 -13zM505 713q0 10 -4 20l-2 -4l-2 -16l2 -15 l2 -6q4 10 4 21zM454 764v12q0 45 -57 45h-29q-131 0 -131 -78v-157q22 11 103 84q71 64 112 82q1 5 2 12zM503 586l-2 18q-4 -20 -46 -45t-42 -33h27q63 0 63 60zM456 662v26h-2l-4 -2l-14 -6q-14 -6 -70 -41q-66 -42 -108 -102l18 -11q14 31 31 31q6 -16 8 -31h72 q0 13 53 47q16 10 16 89zM262 688l-4 -4l-4 4l4 4zM276 645h-8v8h8v-8z" />
<glyph unicode="f" horiz-adv-x="439" d="M234 1368q-12 -10 -26 -10h-12q10 4 28 10h10zM402 1286q0 -34 -69.5 -59t-69.5 -56v-194q0 -22 64.5 -38t64.5 -44q0 -26 -66.5 -42t-66.5 -42v-754q0 -10 -25.5 -24.5t-37.5 -14.5t-38 14.5t-26 24.5v754l-20 18v-645l-25 -18l-25 18v676q-14 8 -14 33q0 7 5 20t5 19 q0 24 -39 55l39 39q2 37 8 133q6 75 46 121v-254l16 -10q15 315 217 315q57 0 57 -45z" />
<glyph unicode="g" horiz-adv-x="712" d="M821 244q-10 0 -29.5 6t-30.5 6q-28 0 -28 -35q0 -18 10 -54t10 -54v-4q-30 -17 -88 -60l-20 -225q-7 -84 -88 -147q-77 -60 -164 -60q-71 0 -141 49q-78 55 -78 121q0 39 35 39q14 0 61.5 -26.5t89.5 -24.5q-14 -8 -39 -29q19 -10 82 -10q47 0 83 20q42 25 42 68v235 l-10 21l-17 -103q-9 -56 -36 -94v209q-23 0 -78 -37t-90 -37q-78 0 -158 134q-72 122 -72 208v406q0 68 31 133q39 80 96 80q27 0 39 -21q-117 -16 -117 -88v-360h11q0 185 17 262q37 168 159 168q26 0 77 -33t68 -33l2 3q-9 32 -10 38v5q10 18 39 49h4q29 0 35 -78 q37 49 78 49q21 0 42 -19.5t21 -39.5v-519l109 -32q53 -25 53 -86zM49 504q0 -15 -19 -15h-28q-12 0 -35.5 4.5t-36.5 4.5v-37q-23 4 -46.5 34t-23.5 54q0 20 37 20q27 0 86 -21q66 -23 66 -44zM-109 440q-20 -14 -43 -28q-8 0 -21.5 13t-13.5 21q0 15 29 15q39 0 49 -21z M528 383v342q-4 12 -10 29v-371h10zM458 412v411q-10 8 -28 8q-166 0 -166 -88v-272q25 -6 94 -35q58 -24 100 -24zM684 166q-4 20 -15 22l-4 -2v-30q15 2 19 10zM532 260q0 11 -4 64l-10 10v-127q14 14 14 53zM460 166q0 11 -6 32.5t-6 32.5q0 12 6 36t6 36v16q-1 10 -2 15 q-110 88 -194 88v-207q0 -88 155 -88q41 0 41 39zM127 236v235h-11v-207q4 -12 11 -28zM143 225q0 6 -6 11q-8 0 -8 -9v-4q0 -8 8 -8q6 4 6 10z" />
<glyph unicode="h" horiz-adv-x="697" d="M698 1704q-4 -6 -10 -10h-8q-7 4 -11 10l4 6l7 4h8l6 -4zM585 1845q0 -44 -4 -51q-7 -14 -47 -14q0 65 51 65zM856 1538q-2 -18 -11 -39q-16 6 -20 39q4 6 10 10h10q7 -4 11 -10zM817 1499l-10 -10h-7q-24 0 -24 43q0 37 20 37l11 -2q10 -45 10 -58v-10zM880 1399 q-84 2 -84 31q29 10 45 10q39 0 39 -41zM747 1499q-4 -6 -10 -10q-10 8 -10 14q0 15 10 15l6 -2l4 -7v-10zM747 1419q0 -6 -10 -8q-10 2 -10 10v27q0 8 10 12q10 -4 10 -12v-29zM845 1292q-14 -8 -20 -8q-10 0 -12 57h20q0 -7 6 -21t6 -20v-8zM698 1397q0 -15 -12 -30 t-27 -15q-27 0 -39 20q8 10 29 19q-6 6 -51 24q-37 15 -37 35l10 10h6q6 0 12.5 -13.5t10.5 -16.5q6 10 12 16h6l4 6q13 35 17 37q59 0 59 -92zM708 1343q0 -47 -37 -40q11 -11 27 -39v-11q-4 -6 -10 -18q10 -28 10 -25v-6q-35 -12 -74 -12q0 25 -14 92l6 10q16 2 43 19h-39 v20l74 10h14zM702 1180q0 -25 -14 -66q-16 -45 -19 -65q11 -9 21 -25q-17 -33 -31 -74h-4q-29 0 -35 70q12 18 25 29v116l6 6q14 7 51 9zM700 961l-2 -11q-10 4 -10 19v10q6 -2 12 -6v-12zM22 1323h-8v18h8v-18zM-35 1341q-8 -12 -21 -12v23h11q6 -4 10 -11zM-17 1245h-28 v19h28v-19zM-27 1196h-8v18h8v-18zM47 1126q0 -20 -35 -20q-21 0 -21 20h56zM55 1077q0 -22 -41 -22v22h41zM-56 1161q0 -18 -39 -18v33l15 2q24 0 24 -17zM825 715l-18 -25h-152v-493q-12 -17 -25 -29l-20 18q0 -78 -4 -98q-11 -59 -64 -59q-63 0 -63 41v616q-10 0 -72 6 q-41 4 -72 4h-36q-21 0 -33.5 -1t-3.5 -1v-477q0 -41 -33 -41q-6 4 -10 10q0 -157 -68 -157q-53 0 -59 41q-22 172 -10 637q-65 10 -131 10q-33 0 -66 -2l-8 20l-60 10q-8 -12 -20 -20h-4q-27 0 -27 35l2 14q41 0 117 10q5 1 27 13q16 8 26 8q9 0 26 -6t25 -6q9 4 15 10v98 q-8 -4 -15 -4q-16 8 -16 47q0 10 -14.5 17.5t-14.5 27.5q43 4 70 31q4 -4 10 -16q-6 -5 -20 -15v-4q0 8 6 -24h22l29 -60l-29 -29q27 -11 27 -36v-52q0 -36 27 -36v555q0 10 27 25q24 13 36 13q49 0 60 -49q0 68 28 80q8 -6 25 -39v-401q8 -6 16 -21q-10 -55 -10 -49v-10 q22 2 77.5 46t86.5 44q62 0 111 -55q42 -48 57 -113q0 6 2 25v24q0 109 -119 138q4 4 39 18q3 2 4 2q51 0 119 -119v74q6 0 14 -4l29 -31h10q6 -4 10 -10v-47q0 -47 -4 -58q-8 -22 -45 -30v-17h148zM-72 940q0 -10 -12 -18v18h12zM-17 862h-12q0 12 12 21v-21zM53 682 q0 -14 -43 -18q0 32 22 32q21 0 21 -14zM34 618h-20v19h4q12 0 16 -19zM63 162q0 -8 -16 -21q-11 -18 -33 -43q4 2 10 2q25 0 37 -20h-68v166q-20 26 -20 65v13q8 6 20 20q-10 47 -20 68v6q0 6 10 23.5t10 25.5q-2 7 -20 22v15q0 17 16.5 48t16.5 50q25 0 26 -24 q2 -31 21 -39q-6 -7 -21 -19h-4l-2 2q-2 -4 -4 -12q14 -20 22 -100q6 -76 17 -86v-117q-6 -10 -8 -21q10 -32 10 -24zM26 0h-37q0 31 19 31q18 0 18 -31zM14 49q-21 -8 -59 -29h-5q-26 0 -26 25q0 10 4 21q12 4 27 4q45 0 59 -21zM55 -33q0 -69 -41 -84q8 2 22 2 q17 0 17 -16q0 -45 -35 -45t-35 39q0 36 18 67q21 37 54 37zM43 -279q0 -18 -35 -18h-6q0 45 16 45q8 -4 25 -20v-7zM694 813q0 14 -35 21v-21h35zM473 745q0 89 -162 89h-4q-17 -5 -39 -21v-68h205zM22 756v12q-65 0 -88 -12h88zM12 420v4q0 8 -8 8t-8 -8v-4q0 -8 8 -8h2 q6 0 6 8zM43 246q-1 4 -7 4l-4 -4l4 -4z" />
<glyph unicode="i" horiz-adv-x="245" d="M229 1386l-4 -4l-4 4l4 7zM186 1286q0 -61 -59 -61q-62 0 -62 61q0 23 19.5 40t42.5 17t41 -17t18 -40zM243 205l-18 -21l-21 21v766l21 18l18 -18v-766zM184 57q0 -12 -21.5 -25.5t-35.5 -13.5q-13 0 -36.5 13.5t-23.5 25.5v844q0 14 24 27q21 12 36 12t36 -13t21 -26 v-844z" />
<glyph unicode="j" horiz-adv-x="293" d="M196 1280q0 -61 -61 -61q-23 0 -40 18t-17 41t18 41t41 18q24 0 41.5 -17t17.5 -40zM244 18q0 -31 -16 -54q-19 -28 -23 -44q-31 -129 -58 -178q-52 -94 -149 -94q-37 0 -37 33q0 26 56.5 71.5t56.5 71.5v1055q0 21 21 39t42 18q29 0 57 -29q5 97 31 107l19 -19v-977z " />
<glyph unicode="k" horiz-adv-x="664" d="M508 1466h-21v19l5 2q12 0 16 -21zM506 1407h-19v29h19v-29zM487 1319q0 -23 -11 -58q-12 -39 -27 -49q-31 0 -31 29q0 12 20.5 30t20.5 29q-3 3 -21 29q-2 8 -2 14q0 17 25 17q21 0 25 -11q1 -4 1 -30zM453 1182q0 -39 -25 -108q-27 -72 -29 -107h-32q0 14 7 42t7 42 q0 9 -6 27t-6 28q0 14 49 76h35zM389 899q0 -24 -8 -51q-11 -37 -27 -37q-14 0 -14 25q0 26 20 34v76q29 0 29 -47zM389 723q-4 -14 -14 -21q-35 0 -35 31q0 21 14 21l6 -2q11 -9 29 -29zM633 57q0 -28 -39 -28q-48 0 -123 188q-79 197 -98 209q-15 6 -37 6q-42 0 -66 -61 q-18 -45 -18 -97q0 -5 5 -20t5 -23q0 -15 -4 -46t-4 -46q12 0 42.5 20.5t45.5 20.5q0 -17 -52.5 -91.5t-72.5 -90.5q-33 0 -33 41q-10 -10 -39 -10q-59 0 -59 39v1232q0 21 30 32q26 10 48 7q0 78 29 88q8 -6 24 -38v-734l25 -20h108q23 44 86 158q78 137 109 137 q30 0 30 -25q0 -26 -78.5 -151.5t-78.5 -182.5q0 -42 10 -63l195 -410q10 -21 10 -41zM350 332q-8 -13 -20 -13v13h20zM340 616h-12q-23 0 -37 -20q8 -4 20 -29zM272 567q-8 -4 -30 -39h20zM217 180l-4 6l-4 -6l4 -4z" />
<glyph unicode="l" horiz-adv-x="292" d="M290 74q0 -45 -51 -45q-72 0 -122 78q-44 69 -44 145v1051q0 13 22.5 25.5t36.5 12.5q7 0 64 -28v88l24 18l19 -18v-1108q-31 57 -39 127v-225q0 -17 45 -58t45 -63z" />
<glyph unicode="m" horiz-adv-x="1104" d="M860 1341q-35 -86 -35 -149q0 -51 -49 -51q0 48 12 104q7 29 23 105q2 10 10 10h15q24 0 24 -19zM860 1106h-20v18h20v-18zM791 1096q-5 -6 -11 -11h-8q-6 5 -10 11q4 6 10 10h8q6 -4 11 -10zM780 1042q2 -20 -30 -20q0 25 22 25h8v-5zM764 991q0 -43 -41 -43q8 43 41 43 zM840 782q-4 -6 -11 -10h-8q-6 4 -10 10q4 6 10 11h8q7 -5 11 -11zM791 770q-19 0 -19 12q0 13 19 13v-25zM745 776l-4 -4l-4 6l4 4zM1055 68q0 -41 -60 -41q-23 0 -43 19t-20 42l-4 342q-5 -273 -19 -293q-3 0 -6 -2q-8 0 -18.5 16t-10.5 25v645h-133q-47 0 -63 -76 q-3 -13 -6 -159q-8 -359 -8 -518q-15 -39 -60 -39q-63 0 -63 39v665l-15 -577q0 -9 -18 -29l-6 4l-19 25v549q-16 -7 -28 -27q-16 -27 -27 -33q-10 4 -10 25l2 4q61 49 61 104q0 19 -4 33q-22 20 -108 20q-36 0 -69.5 -36t-33.5 -72v-655q0 -41 -65 -41q-21 0 -41.5 20 t-20.5 41v723l-14 -655q0 -15 -14 -21q-25 0 -25 41v715q0 31 20 39l39 -39q11 49 58 49q49 0 80 -70q3 11 26 32t23 38h33q12 0 34.5 -5t34.5 -5q29 0 64 28q15 -24 65 -56t76 -32q10 0 20 16q14 22 15 23q11 11 55 21q41 10 62 10q18 -8 30 -10q10 2 29 10h31 q59 0 116.5 -53.5t57.5 -112.5v-706zM336 733q0 -31 -35 -31v31h35zM412 618q0 -34 -35 -34q0 34 35 34zM375 532l-4 -4l-4 4l4 7zM332 547l-10 10h10v-10zM360 430q0 -20 -10 -20q-20 0 -20 20q0 21 20 21q10 0 10 -21zM360 391q-6 -12 -20 -12v12h20zM360 330 q-30 0 -30 16q0 19 30 19v-35zM360 283l-10 -9q-12 7 -12 21q18 0 22 -12zM780 909h-49q-10 -6 -10 -28l2 -11q16 7 57 39zM702 860l-4 4l-6 -4l4 -4zM399 909l-14 2q-6 0 -35 -20h-8q-6 0 -10 8v-39q18 0 67 49zM299 858v4q0 8 -8 8q-6 -4 -6 -10t6 -8q8 0 8 6z" />
<glyph unicode="n" horiz-adv-x="690" d="M758 733h-8v10h8v-10zM758 682q-12 0 -18 12q6 13 18 13v-25zM684 289q-32 0 -32 22q0 31 14 31q18 0 18 -25v-28zM371 625q0 -13 -12 -29q-13 4 -15 29h27zM772 145h-37q0 31 19 31q18 0 18 -31zM312 625q-3 -29 -13 -29q-26 0 -26 29h39zM719 166h-18v29h18v-29z M289 567l-4 -6l-6 -4h-4q-19 0 -19 33q33 0 33 -19v-4zM348 459h-20v20h20v-20zM750 586l-21 -19q-2 -4 -14 -98q-10 -80 -25 -80l-10 2q-8 4 -10 10v43q0 18 11 52.5t11 52.5q0 13 -15.5 49.5t-24.5 46.5q-13 -59 -13 -178q0 -11 1 -59t1 -82v-142q21 -8 21 -39 q-6 -2 -21 -8q-15 -67 -16 -70q-15 -40 -49 -40q-66 0 -66 41v137q-24 -31 -31 -31q-12 6 -18 21v391q-37 10 -37 30q0 23 31 19v166q-12 30 -113 30q-33 0 -62.5 -25t-29.5 -58q0 -37 51 -37v16q2 6 17 6q10 -8 30 -20q5 4 19 20h10q39 0 39 -35q0 -6 -6 -12l-12 -2 q-6 0 -16 5t-15 5q-20 0 -73.5 -40.5t-53.5 -57.5v-176h26q0 -33 -30 -29v-323q0 -39 -64 -39q-52 0 -65 57q-4 17 -4 98l-21 -20q0 -6 -8 -8l-10 -11q0 36 -5.5 107.5t-5.5 107.5h-28q-20 -23 -83 -60q-66 -38 -91 -38q-33 0 -33 21l2 10q57 4 104 39q33 25 91 69 q10 5 30 9q11 6 15 10v528q6 8 24 21h10l29 -39l4 -2h2q19 10 43 10q22 0 63.5 -35t67.5 -35q7 1 25 2l78 60q-10 14 -68 28q10 21 37 21l2 -2q61 -23 111 -43q59 -23 98 -68q27 -31 39 -102q9 -55 29 -55q0 10 2 20q10 4 24 4q49 0 49 -117q13 -8 21 -20v-10zM312 440h-35 q4 19 16 19q14 0 19 -19zM39 649q0 -47 -47 -47q0 47 47 47zM-24 514q-29 0 -29 18q0 19 29 19v-37zM-121 432q0 -31 -30 -31v39h28q2 -4 2 -8zM-168 371q0 -21 -22 -21v21h22zM-43 262q0 -6 -13 -28.5t-13 -38.5h-31q14 69 41 88q16 0 16 -21zM-131 176q-12 -10 -31 -20h-8 q-22 14 -22 32q4 0 13 -6.5t13 -7.5q15 8 25 10l6 -2zM82 164v4q0 8 -8 8h-2q-6 0 -6 -8v-4q0 -8 8 -8z" />
<glyph unicode="o" horiz-adv-x="658" d="M341 1331h-25q0 15 13 21q12 -9 12 -21zM341 1280q-16 0 -23 12l11 11q12 -7 12 -23zM349 1223q0 -35 -20 -58q-15 23 -15 90v15q35 0 35 -47zM341 1114q-16 0 -23 12l11 11q12 -7 12 -23zM339 1059h-21v8h21v-8zM611 246q0 -144 -219 -234v-137q-4 -6 -14 -10h-10 q-11 4 -15 10v137q-100 13 -168.5 83t-81.5 171l-20 -10v8q0 21 -14.5 59.5t-14.5 59.5v338q0 80 43 123v-148q47 168 182 240h-88q31 35 88 35q27 -10 43 -10h7q6 4 18 10l21 -21q3 -1 38 -10q80 -21 139 -81q66 -65 66 -142v-471zM492 754q0 10 -8 10t-8 -8v-4q0 -7 8 -7 t8 9zM484 207v137q-6 -30 -12 -51q-10 -33 -31 -37v557q0 10 -49 10h-14q0 -9 -6 -53q-4 -29 -4 -53q0 -8 2 -23.5t2 -23.5q0 -47 -19 -54q-14 2 -20 13v196q-37 0 -68 -20q-35 -22 -35 -57v-531q0 -10 10 -29.5t19 -19.5h94v78q4 6 15 10h10q6 -4 8 -10v-78 q-37 -10 -68 -29q60 -2 43 -2q123 0 123 70zM368 481q0 -10 -29 -12v119q2 6 8 10h10q6 -4 11 -10v-107zM386 295q-2 -6 -8 -10h-10l-11 10l11 10h10q6 -4 8 -10z" />
<glyph unicode="p" horiz-adv-x="676" d="M804 1020l-4 -4l-4 4l4 4zM874 324h-21v10h21v-10zM757 344q0 -41 -51 -41q8 80 37 80q14 0 14 -39zM644 432q0 -96 -28 -147q-7 -13 -27 -49q-40 -127 -49 -144q-41 -72 -123 -72q-51 0 -149 78h-25v-272l-25 -31l-24 21v-148q0 -39 -64 -39q-59 0 -59 39v1233 q0 14 23 27q20 12 36 12q41 0 58 -29q0 88 39 88q41 -47 41 -59q0 -10 -9.5 -30t-9.5 -31q37 -6 37 -7q4 0 52.5 35t78.5 35q158 0 172 -295q0 -10 1 6.5t1 48.5v54q0 109 -12 147q-23 72 -107 86q15 21 39 21q25 0 47 -23q84 -88 84 -248v-63q0 -38 -1 -61t-1 -7 q0 -29 2 -88t2 -88zM44 627q0 -13 -12 -19q-12 6 -12 19h24zM-38 668l-4 -6l-4 -5h-10q8 0 -20 11q-7 -4 -19 -11q-10 0 -10 21q0 29 33 29q34 0 34 -39zM593 324q0 6 -4 10q-4 -1 -4 -8v-4q0 -7 4 -7zM462 236v473q0 125 -172 125h-4q-14 -7 -39 -21v-518q14 -23 21 -49 q-9 -13 -21 -39v-60l4 -4l6 -4h127q25 0 51.5 35t26.5 62zM397 492h-25q0 12 12 28q13 -4 13 -28zM306 559l-6 -4l-4 4l4 4zM327 510h-55q0 20 39 20q16 0 16 -20zM433 381q-14 0 -20 12q8 13 20 13v-25zM335 471h-10l10 10v-10zM354 371q0 -9 -9 -9q-8 0 -8 9v4q0 8 8 8h2 q7 0 7 -8v-4z" />
<glyph unicode="q" horiz-adv-x="677" d="M628 -332q0 -39 -57 -39q-64 0 -64 39v148l-24 -21q-19 12 -25 31v268q-26 0 -86 -37t-88 -37q-83 0 -123 72q-8 13 -51 144q-2 5 -25 51q-14 28 -14 53v504q0 48 34 103q38 63 83 63q24 0 39 -21q-109 -16 -109 -123v-43l2 -49q6 65 50 114q48 52 112 52q28 0 86 -38 t82 -38q0 13 -8.5 38t-8.5 38q7 18 39 59h4q35 0 35 -88q23 29 60 29q13 0 35 -13.5t22 -25.5v-1233zM-222 637h-10v10zM454 178q0 6 -21 68q7 26 19 49v518q-10 18 -43 18q-162 0 -162 -75v-551q0 -68 125 -68h70q12 0 12 41z" />
<glyph unicode="r" horiz-adv-x="492" d="M454 879q0 -35 -100 -68t-100 -49v-547l-15 -10l-14 10v498q-29 -29 -29 -49v-607q0 -10 -25.5 -24.5t-37.5 -14.5q-15 0 -36 12q-24 13 -24 27v842q0 13 23 26t37 13q23 0 51 -36q30 -39 41 -42v96l14 11q10 -6 49 -68l-18 -49h4q18 0 71 35t74 35q35 0 35 -41z" />
<glyph unicode="s" horiz-adv-x="604" d="M329 1303q0 -23 -32 -23l-2 20q0 41 20 41q14 0 14 -28v-10zM329 1214q0 -40 -18 -40q-21 0 -21 24q0 66 25 66q14 0 14 -19v-31zM323 1114q-49 0 -49 45q31 0 40 -7.5t9 -37.5zM241 950h-18v21h18v-21zM546 274q0 -102 -74.5 -179t-176.5 -77q-70 0 -143 49 q-79 54 -79 121q0 39 31 39q20 0 69.5 -50t80.5 -50h63q74 0 84 27q2 5 2 102l25 -39h10v117q0 46 -98 92q-159 74 -187 94q-98 71 -98 182q0 152 215 248q2 13 2 49q0 14 -6 42t-6 42q0 15 26 15q29 0 29 -11v-137q201 -78 201 -176q0 -31 -39 -31q-21 0 -61 45.5t-58 45.5 q-12 0 -36 -2.5t-36 -2.5v-172q-16 -16 -16 -63v-35q85 -40 213 -127q63 -65 63 -158zM36 578q-10 10 -10 18v27q0 24 10 43v-88zM270 2q-4 -2 -47 -20h-6q-21 0 -54 20h107zM252 813v23q-15 0 -21 -13zM254 694l-2 13q-23 26 -23 73q0 6 -4 13q-12 2 -25 2q-39 0 -39 -60 v-33q0 -77 62 -124v10q0 6 -5 17.5t-5 17.5q0 30 41 71zM192 637h-10v20h10v-20z" />
<glyph unicode="t" horiz-adv-x="399" d="M363 84q0 -55 -55 -55t-137 69v-69q-16 28 -49 88v606q-10 14 -43 47q39 41 41 47q0 3 -40 31.5t-40 44.5q0 18 41 45t41 39v213q0 18 24 30q19 11 39 11q64 0 64 -41v-213q0 -14 52 -36t52 -48q0 -21 -49 -41t-49 -41v-616q0 -21 54 -54t54 -57zM255 -39l-6 -4l-4 4l4 4 q6 0 6 -4zM234 -29l-4 -4l-4 4l4 4z" />
<glyph unicode="u" horiz-adv-x="632" d="M874 1145q0 -53 -37 -144q-41 -104 -51 -141l-59 -244q-35 -145 -39 -245l-19 -21v-78q-32 -22 -32 -71q-33 0 -56 43q0 -217 -67 -217q-25 0 -63 39.5t-60 39.5q-17 0 -77.5 -44t-96.5 -44q-66 0 -117 69q-47 63 -47 132v680q0 13 24 27q21 12 35 12q13 0 38.5 -14.5 t25.5 -24.5v-676q0 -51 59 -76q47 -20 103 -20q40 0 75 33.5t35 72.5v666q0 10 26 24.5t38 14.5q23 0 44 -18t21 -41v-596l19 28v666l24 20q21 -7 21 -39l14 -481l25 21v12q0 116 55 360q67 293 119 293q20 0 20 -18zM708 223h-20v21h20v-21zM366 205q-16 -21 -35 -21 q-52 0 -94 72q-37 65 -37 123v598l19 20l24 -20v-674q0 -39 44 -68q36 -24 79 -30zM645 178q0 -18 -35 -33v11q18 22 35 22z" />
<glyph unicode="v" horiz-adv-x="597" d="M434 852l-49 -186v14q0 145 49 182v-10zM279 811q0 -35 -21 -57h-10q-10 10 -29 30q4 7 11 19q-4 6 -11 20q4 6 11 19v4q0 20 -10.5 59.5t-10.5 59.5q0 34 31 34h8q21 -10 21 -67q0 -7 -5.5 -21t-5.5 -20q0 -14 10.5 -40t10.5 -40zM381 635l-4 -8q-4 2 -4 10t4 10 q4 -6 4 -12zM371 592l-4 -4l-4 4l4 6zM799 553q0 -25 -127 -66q-45 -14 -160 -53q-56 -20 -67 -61q-70 -249 -70 -271q0 -10 10.5 -33t10.5 -34v-6q-15 8 -39 30q-25 -30 -54 -30q-30 0 -73 49l-11 -10h-4q-17 0 -63 153l-10 33q-203 -129 -277 -129q0 46 148.5 131.5 t148.5 97.5q0 84 -64.5 263.5t-64.5 269.5q0 53 39 53q58 0 70 -59l106 -508q2 14 2 57q0 72 -10 88v176q-10 19 -10 27q0 16 24 16q0 -17 11 -45q12 -31 14 -45q8 -70 8 -198q0 -58 31 -58q6 8 49 39l98 461q9 41 57 41q52 0 52 -41q0 -37 -56 -223q-51 -170 -45 -195 q55 0 157 47t157 47l6 -2l4 -6q2 -3 2 -6zM25 735q-31 74 -31 113v4q31 -21 31 -94v-23zM37 709q0 -7 -4 -15l-2 4l-2 11l2 14l2 2q4 -8 4 -16zM47 666l-4 -11q-4 2 -4 11q0 8 4 10zM58 621l-5 -5l-4 7l4 4zM70 582l-6 -4l-4 4q0 6 4 6q6 -2 6 -6zM426 10l-10 -10 q-12 4 -12 23q12 0 22 -13zM346 362q-14 -8 -39 -28q5 -2 11 -2q16 0 28 30zM180 264v10l-10 -10h10z" />
<glyph unicode="w" horiz-adv-x="931" d="M679 705q-33 0 -45 30q-6 16 -16 195l-10 10v78q14 12 18 31l-18 10q-2 28 -21 78h25q0 13 -16.5 46t-16.5 54q23 0 50.5 -30t27.5 -54q0 -11 -6 -33t-6 -33q0 -33 14 -93q14 -63 16 -93q4 -93 4 -131v-65zM942 887q0 -17 -2 -25l-187 -782q-12 -49 -63 -49 q-58 0 -72 116q-12 -14 -35 -30q-16 5 -35 98q-18 85 -18 115h45q2 10 2 16q0 33 -16 109.5t-29 109.5q-10 25 -43 25q-26 0 -41 -33q-19 -39 -51 -227l-43 -250q-9 -49 -66 -49q-38 0 -56 49q-20 55 -26 57q-6 -6 -20 -18h-8q-60 74 -60 219v16q11 -8 21 -10q8 2 18 2v27 l-65 272q-54 226 -54 252q0 43 52 43q14 0 34 -13t23 -26l98 -479q14 -70 60 -70q49 0 73 138q7 57 23 172h-59v8q0 78 41 221h10l28 -127l29 137q6 31 45 31q41 0 55 -68q4 -26 15 -90l47 -272q27 -160 59 -160q47 34 59 53q15 24 15 78q0 18 -24.5 25.5t-24.5 19.5 q0 17 5 51.5t5 51.5q0 13 -10 33t-10 32q0 21 20 21q14 0 19 -11l38 187q3 14 21 28v-20l-49 -215q20 -31 20 -49q0 -13 -6 -38t-6 -38q0 -10 10 -21q9 9 80 361q8 41 57 41q52 0 52 -45zM49 618l-58 244v39l11 -10l47 -234v-39zM63 592q0 -6 -4 -14l-2 4l-2 10l2 14l2 2 q4 -8 4 -16zM647 -20q-15 0 -21 12q8 12 21 12v-24zM73 545q0 -6 -4 -15q-4 2 -4 13q0 12 4 16q4 -8 4 -14zM84 496l-5 -7l-4 7l4 4z" />
<glyph unicode="x" horiz-adv-x="565" d="M528 68q0 -39 -30 -39q-33 0 -99.5 137t-105.5 137q-51 0 -51 -24q6 -11 10 -39h-39l-78 -172q-18 -39 -53 -39t-35 34q0 35 117 269q0 3 1 14.5t1 20.5v34q0 21 -6 61.5t-6 59.5h57q2 4 2 17q0 18 -79 176.5t-79 179.5q0 37 31 37q37 0 99.5 -129t109.5 -129 q41 0 93 128t97 128q41 0 41 -31q0 -11 -155 -332q-11 -23 -11 -73q0 -51 11 -74l88 -180q69 -141 69 -172z" />
<glyph unicode="y" horiz-adv-x="620" d="M766 596h-25q0 14 12 20q13 -6 13 -20zM727 578h-25q0 14 12 18q13 -4 13 -18zM229 913q0 -6 -4 -14l-2 4l-2 10l2 15l2 2q4 -8 4 -17zM239 881l-4 -11q-4 2 -4 11q0 8 4 10zM249 840l-4 -9q-4 3 -4 11t4 10q4 -6 4 -12zM796 756q0 -10 -2 -31t-2 -31q-30 -39 -116 -88 q-99 -55 -128 -82q-65 -60 -88 -162l11 -2q26 0 47 31v-10l-78 -313q-4 108 -18 127q-15 -47 -72 -275q-68 -272 -219 -272q-43 0 -43 39q0 37 47 59q64 30 71 39q70 85 70 252q0 34 -2 41l-225 819q0 51 39 51q16 0 36 -12.5t23 -26.5l117 -508q7 -30 24 -30q33 0 60.5 24 t34.5 56l96 440q11 49 63 49q47 0 47 -34q0 -7 -2 -15q-82 -347 -77 -363q8 7 34 37q23 27 35 27q-2 59 -2 43q0 48 24.5 151t45.5 144v-15q0 -26 -15.5 -76.5t-15.5 -76.5q21 -82 31 -117h4q9 0 21 19.5t14 29.5l18 176h25v-84l6 -2l8 -2l21 21h10q22 0 22 -47zM186 264 q-55 -24 -166 -69q-43 -9 -123 -41q-16 -13 -35 -37l-8 10v68q33 20 167 65t165 45v-41zM-164 180q0 -26 -45 -26v6q0 47 24 47q21 0 21 -27z" />
<glyph unicode="z" horiz-adv-x="545" d="M495 82q0 -21 -17.5 -37t-39.5 -16h-346q-60 0 -60 61q0 16 11.5 45.5t11.5 44.5v4q-8 11 -21 31q9 43 64 127v-70l240 480q2 32 2 26q0 66 -41 66h-205q-31 0 -31 53q0 55 49 55h211q0 49 -35 49h-204l-11 15q15 6 29 10h246q39 0 49 -31q-2 -26 -10 -39 q108 -14 108 -71q0 -33 -20 -74l-291 -592h182l21 -14q-13 -29 -187 -29v-10q4 -8 29 -25h225q18 0 29.5 -20.5t11.5 -38.5z" />
<glyph unicode="{" horiz-adv-x="485" d="M369 1087q0 -26 -13 -30l-4 4q-6 12 -8 57q25 0 25 -31zM299 979h-10v29h10v-29zM317 950q-12 8 -12 19h12v-19zM162 784l-10 -41v344q4 13 10 29v-332zM367 -135q-2 -12 -15 -12q-58 0 -115 45q-61 48 -61 104v410q0 36 -51 101t-51 95q102 88 102 166v410q0 51 58 104 t110 53q23 0 23 -14l-43.5 -48.5t-44.5 -84.5l-11 -401q11 -5 11 -17q0 -6 -51.5 -70.5t-65.5 -78.5h4q6 0 16 6t21 6q28 0 28 -31q0 -41 -30 -41q-19 0 -39 21v-10q0 -27 22 -46.5t49 -19.5q0 5 -2 10v10q0 7 15 7q17 0 38 -18.5t21 -35.5q-47 0 -55 -24q29 -66 31 -234 q-2 142 -2 -245q0 -32 28 -67.5t60 -49.5zM317 432h-8v19h8v-19zM338 401l-6 -4l-4 4l4 5q6 0 6 -5zM317 352h-8v10h8v-10zM162 -47q-4 14 -10 29v342q6 -15 10 -29v-342z" />
<glyph unicode="|" horiz-adv-x="160" d="M117 1346l-4 -1367q0 -5 -7 -6h-13q-19 3 -42 45l12 1367q2 10 23 6q31 -5 31 -45z" />
<glyph unicode="}" horiz-adv-x="422" d="M399 598q0 -6 -67 -78q-6 -7 -20.5 -47.5t-14.5 -50.5v-402q0 -68 -54 -117.5t-122 -49.5q-12 0 -15 12q80 51 80 106l-2 21l-18 -60q0 41 -3 122t-3 122q0 109 30 158v-29q9 103 39 150q26 31 52 67q34 47 34 70q0 20 -4 35q-61 65 -86 115q-26 54 -35 139v-138 q-26 27 -26 261q0 -16 1 5.5t1 59.5v66q12 -23 18 -48v146q0 22 -39 52t-39 42q0 14 25 14q57 0 111.5 -54t54.5 -111v-412q0 -33 51 -97.5t51 -68.5z" />
<glyph unicode="~" horiz-adv-x="748" d="M584 1157l-31 -47q-14 -14 -43 -14q-30 0 -103.5 47t-103.5 47q-13 0 -39 -9.5t-39 -9.5q0 26 24 53t50 27q32 0 105.5 -48t105.5 -48q12 0 36.5 10.5t37.5 10.5v-19z" />
<glyph unicode="&#xa1;" horiz-adv-x="326" d="M186 1244q0 -23 -18 -40.5t-41 -17.5q-60 0 -60 56q0 63 62 63q23 0 40 -19t17 -42zM264 68q-10 -16 -29 -28h-10l-20 10q-13 -60 -82 -60q-76 0 -76 66q0 5 2 33l49 676q1 19 6 67.5t29 48.5q0 -75 14 -106l49 -658q12 46 17 187q4 129 22 176z" />
<glyph unicode="&#xa2;" horiz-adv-x="737" d="M651 750q0 -37 -49 -37q-26 0 -72.5 55t-74.5 55q-3 0 -8 -1l-1 -679q40 11 75 38q59 46 83 46q39 0 39 -41q0 -64 -86 -118q-58 -36 -111 -45l-3 -264q0 -5 -7 -6h-13q-19 3 -42 45v224q-40 6 -90 27q-21 -55 -21 -88q1 -1 2 -16q13 0 42.5 20.5t45.5 20.5 q0 -16 -53 -92q-48 -69 -69 -91q-27 0 -27 52q0 22 10 65.5t10 65.5q0 35 -55 194q-24 69 -24 301q0 209 20 271q38 116 186 192h-116q41 35 71 35q16 0 48 -14q11 -6 20 -9v142l12 67q2 10 23 6q31 -5 31 -45v-134q9 5 18 5v-57q64 -20 121 -72q65 -59 65 -118zM133 274 q-41 66 -41 181v194q0 125 41 193v-568zM381 172v647q-39 -2 -68 -23q-32 -24 -32 -61v-430q4 90 28 90l10 -2q11 -33 11 -84q0 -21 -15.5 -62t-15.5 -57q0 -6 4 -18h78zM381 135v32l-23 -20q8 -10 23 -12z" />
<glyph unicode="&#xa3;" horiz-adv-x="946" d="M700 751h-8v10h8v-10zM883 289q0 -101 -85.5 -180.5t-187.5 -79.5h-370q-14 0 -26.5 22t-12.5 37v536h-60q-59 0 -59 63q0 64 59 64h60v193q0 15 5 26v54q0 211 225 319h-127q35 35 78 35q17 0 44 -12q35 -16 44 -18q139 -37 209 -91q94 -72 94 -198q0 -45 -57 -45 q-53 0 -64 63q-14 80 -35 94q2 -6 2 -14q0 -10 -12 -14q-20 12 -35 55q-8 23 -82 23q-144 0 -156 -116l8 -7v-347h192q58 -23 99 -82v-6q-11 -10 -48 -24.5t-51 -14.5h-192v-302l35 -33h113q-6 0 35 -19l4 -6l-18 -20h-173q-9 -65 -10 -58q2 -19 28 -34h236q10 0 20 -6 q91 4 127 53q10 13 35 103q15 53 60 53q49 0 49 -66zM687 414q0 -26 -18 -55q-2 4 -2 10v16q0 37 20 41v-12zM123 526l-7 -5l-4 5l7 4zM55 546l-6 -4l-4 4l4 4zM98 501l-4 -4l-4 4l4 6zM-43 507h-11v8z" />
<glyph unicode="&#xa4;" horiz-adv-x="935" d="M871 1059q0 -45 -57 -45q-53 0 -64 63q-14 80 -35 94q2 -6 2 -14q0 -10 -12 -14q-19 12 -35 55q-8 23 -82 23q-157 0 -157 -138v-252h123q16 0 38 -30.5t36 -27.5l-55 -12h-142v-120h53q16 0 38 -30.5t36 -27.5l-55 -12h-72v-317q0 -14 15 -46t26 -38h88l-41 -25l10 -10 q39 -2 47 -2q104 0 143 53q10 13 35 103q15 53 60 53q49 0 49 -66q0 -101 -85.5 -180.5t-187.5 -79.5q-132 0 -212 101q-74 94 -74 229v225h-11l-8 -8v-291q-49 31 -49 197v102h-146l-22 25q-2 6 -2 10q0 31 65 36q-9 -1 105 -1v120h-76l-22 25q-2 6 -2 10q0 31 65 36 q-5 0 35 -1v228q0 106 49 182v-410h19v193q0 211 225 319h-127q35 35 78 35q17 0 44 -12q35 -16 44 -18q139 -37 209 -91q94 -72 94 -198zM705 348q0 -26 -18 -55q-2 4 -2 10v16q0 37 20 41v-12zM304 663v98h-19v-97q4 1 8 1q7 0 11 -2z" />
<glyph unicode="&#xa5;" horiz-adv-x="698" d="M475 1278l-4 -4l-4 4q0 6 4 6zM639 1253q0 -12 -2 -18l-145 -432q-21 -47 -45 -120h87q60 -16 102 -56v-4q-45 -27 -102 -27h-114l-2 -8q-8 -28 -4 -90v-5h120q60 -16 102 -56v-4q-45 -27 -102 -27h-116v-365q0 -21 -21.5 -40t-42.5 -19q-12 0 -38.5 14t-26.5 24v386h-6 l-9 -238q-1 -32 -18 -39l-25 18v259h-99q-60 0 -60 43q0 44 60 44h99v103h-99q-60 0 -60 43q0 44 60 44h99v13q-36 74 -36 117q0 12 2 21q-138 411 -138 426q0 36 45 36q44 0 54 -32l137 -451q3 -3 22 -31q12 -18 31 -18q41 0 53 41l129 430q18 59 68 59h29q12 -12 12 -41z M289 493v76l-3 -76h3z" />
<glyph unicode="&#xa6;" horiz-adv-x="160" d="M113 779q0 -5 -7 -6h-13q-41 7 -42 45l-2 488l12 67q2 10 23 6q19 -3 31 -45zM113 -21q0 -5 -7 -6h-13q-41 7 -42 45l-2 488l12 67q2 10 23 6q19 -3 31 -45z" />
<glyph unicode="&#xa7;" horiz-adv-x="744" d="M666 1261q-31 0 -31 49v23q31 -19 31 -72zM668 323q0 -213 -50 -303q-86 -154 -251 -154q-77 0 -222 99h-10q-14 -13 -29 -21h-10q-20 0 -20 27q0 5 2 12q10 8 28 31v8q0 12 -19 53.5t-19 61.5q0 43 59 43q57 0 68 -99q16 5 36 5q23 0 23 -23q0 -12 -15.5 -20t-15.5 -15 q0 -45 144 -45h63q-49 17 -88 45h166q29 15 29 53v207h-7q-14 0 -14 19q0 12 23 53q0 60 -121 117q-174 81 -221 119q-111 88 -120 416q-11 42 -11 89q0 132 80 232q86 108 215 108q107 0 199 -79q96 -82 96 -187q0 -59 -62 -59q-37 0 -55 53q-27 79 -43 100q-42 54 -135 54 q-58 0 -84 -9q-36 -12 -68 -51v-194l-14 8v-43q0 -30 10 -55v90l6 -103q28 -57 109 -94q68 -31 207 -88q16 -11 50 -52q9 -20 34 -46v49q15 -39 43 -88q4 -114 10 -252q4 -84 4 -72zM215 882l-4 84q1 -22 4 -84zM537 532l-6.5 21.5t-6.5 35.5t5 23q0 60 -121 117 q-130 61 -190 97l-13 18l7 -13l-7 4v-53q0 -87 165 -162q35 -24 167 -88zM219 817l-7 14l6 -5z" />
<glyph unicode="&#xa8;" horiz-adv-x="842" d="M588 1352q0 -30 -21 -51t-51 -21q-72 0 -72 72q0 71 72 71t72 -71zM346 1348q0 -68 -72 -68q-69 0 -69 68q0 28 20.5 48.5t48.5 20.5q72 0 72 -69z" />
<glyph unicode="&#xa9;" horiz-adv-x="1501" d="M1254 1217q3 -4 3 -10t-3 -13l-10 -9q-3 -1 -7 -1t-6 1l-4 2q-3 8 -3 13t2 8q12 7 28 9zM1173 1203l-30 15l11 20q21 -11 21 -25q0 -5 -2 -10zM305 1240q-31 0 -31 19q0 16 31 16v-35zM285 1214q-15 -21 -29 -21q-20 0 -20 21q0 20 20 20q18 0 29 -20zM147 1273h-10v8h10 v-8zM176 1224h-18v18h18v-18zM1498 600q0 -264 -217 -494q23 -14 23 -32q-37 2 -41 14q-180 -133 -373 -161q13 -2 24 -14q22 -25 5 -40q-16 -14 -35 11q3 -6 1 -13l-9 -8q-5 -5 -11 -5q-10 0 -21 13l-3 3q0 8 -3 21q3 6 7 10l11 9q9 8 18 11q-32 -4 -63 -5q0 -7 -5 -11 q-10 -9 -26 4q-17 13 -38 -5q-8 -8 -20 15q-212 20 -409 165q-4 -12 -41 -14q0 18 23 32q-217 230 -217 494q0 286 212 494.5t498 208.5q243 0 434 -153v0q3 6 17 -2q19 -9 12 -23q247 -218 247 -525zM217 1126h-20v20h20v-20zM160 1167q0 -31 -17 -31q-10 0 -16.5 20.5 t-32.5 20.5q-6 0 -6 16q0 21 16 21q13 0 34.5 -17.5t21.5 -29.5zM227 1068q0 -33 -22 -33q-21 0 -19 31q-2 -6 -8 -10h-12q-19 -2 -19 27v4q5 6 11 18q6 2 12 2h14q43 0 43 -39zM59 1164q-10 -10 -18 -10q-12 8 -21 21q5 10 21 10l12 -4q6 -6 6 -12v-5zM70 1076h-23 q0 33 23 33v-33zM790 -184l-17 -15q-12 13 -12 24q0 9 8 16zM724 -125q-1 -14 -7 -20q-14 -1 -29 3q-3 10 9 21l11 5q9 -1 13 -5zM1400 588q0 271 -170 440q-49 48 -107 82l-4 -8q-13 -26 -34 -26q-9 0 -20 5q-30 15 -20 35q6 10 16 10q8 0 21 -7q-5 4 -6 11l3 5 q-127 61 -291 61q-272 0 -442 -168t-170 -440q0 -261 148 -393q185 -165 388 -176l2 2l1 -2q30 -1 73 -1q143 0 226 27q112 37 238 150q148 132 148 393zM1148 1073l-9 -18l-18 9l9 18zM1200 980q-9 -16 -31 -17q-12 23 -6 36q6 11 16 11q5 0 12 -3q18 -9 9 -27zM1214 918 l-31 16q14 27 31 19q7 -4 7 -13q0 -8 -7 -22zM1299 503q-10 -9 -18 -9q-6 0 -11 5l-2 12l1 5q3 1 5 1q10 0 25 -14zM1284 454l-1 -14q-13 -3 -22 8q12 10 23 6zM1249 405q-13 -11 -23 -11q-8 0 -15 7l23 21zM933 633q11 -5 0 -30q-11 -23 -22 -23q-28 0 -11 33l4 7 q8 16 19 16q5 0 10 -3zM1248 317q6 -6 6 -12q0 -10 -12 -20l-6 -5q-19 -17 -32 -1q-9 10 13.5 29t30.5 9zM826 631q-16 8 -14 20l13 5q4 -7 4 -14q0 -6 -3 -11zM972 517l-14 -28l-19 10q10 20 23 20q5 0 10 -2zM1028 907q0 -36 -46 -36q-42 0 -51 50q-11 64 -28 75 q1 -5 1 -11q0 -8 -9 -11q-16 10 -28 44q-7 18 -66 18q-126 0 -126 -110v-663q0 -12 12.5 -37.5t20.5 -30.5h71l-33 -20l8 -8q31 -1 38 -1q82 0 114 42q8 11 28 83q12 42 48 42q39 0 39 -53q0 -81 -68.5 -144.5t-149.5 -63.5q-106 0 -170 81q-59 75 -59 183v543 q0 168 180 255h-102q16 16 34 23q3 10 29 10q30 0 30 -13l5 -2l35 -14q243 -65 243 -231zM943 455q-7 -14 -19 -15l-4 14q6 4 13 4q5 0 10 -3zM962 388q-4 -4 -12 -4t-21 6q8 16 18 16q4 -1 7 -2l6 -10zM895 338q0 -21 -15 -44q-1 3 -1 8v13q0 29 16 32v-9zM559 277 q-40 25 -40 158v472q0 84 40 145v-775zM862 61q2 -26 -8 -35q-15 -13 -29 3t1.5 27.5t35.5 4.5z" />
<glyph unicode="&#xaa;" horiz-adv-x="601" d="M516 1439q0 -11 -9.5 -41t-9.5 -46q0 -33 -31 -33q0 35 10 64q2 21 11 62q1 3 7 7h8q14 0 14 -13zM516 1298h-11v11h11v-11zM476 1292l-6 -6h-7l-6 6l6 6h7zM470 1262q0 -14 -20 -14q0 14 13 14h7zM375 1322h-94q30 18 47 18q18 0 47 -18zM505 1104l-6 -6h-6l-6 6l6 6h6z M299 1198h-7q0 7 7 12v-12zM313 1153l-2 -2l-3 2q1 4 3 4zM322 1127h-5v6h5v-6zM219 1204q-1 -35 -8 -35q-6 0 -14 5v-24h-6q-12 0 -15 7l-1 6q11 34 44 41zM476 1098h-15v-235q-1 -4 -9 -12h-6q-10 6 -15 12v-82q0 -24 -39 -24q-20 0 -34 25q-12 21 -12 43l1 2q0 4 2.5 12 t2.5 12v141l-18 18h-82q-6 -24 -19 -24q-10 0 -10 12l-6 -6l-2 -36q0 -15 7.5 -46.5t7.5 -46.5h-26q0 9 7 11q-11 5 -17 32l-7 40v-83q0 -16 34 -16q0 -22 -16 -20q4 -3 43 -16q33 -12 33 -20q0 -41 -64 -41q-100 0 -100 137t100 164q24 4 52 12q25 7 83 77q1 35 1 26 q0 68 -80 68q-34 0 -72 -27t-46 -27q-21 0 -21 24q0 41 53 73q46 27 91 27q49 0 84 -27q22 -16 44 -52q17 -30 25 -32v69q10 -10 25 -36q7 -22 7 -116h13v-12zM203 1075q0 -19 -21 -19v19h21zM225 954l-2 -2l-3 2l3 2zM275 840q-2 -2 -6 -2l-5 2q2 2 5 2q4 0 6 -2zM258 846 l-4 -2l-2 2l2 2zM246 851h-6q-4 2 -5 6h5l4 -3zM517 552q-11 -10 -48 -24.5t-51 -14.5h-273q-59 0 -59 63q0 64 59 64h273q58 -23 99 -82v-6zM353 1092q0 5 -1 12l-41 -41h6q36 0 36 29z" />
<glyph unicode="&#xab;" horiz-adv-x="586" d="M531 624q4 -16 -8 -25l-127 -90q-55 -25 -55 -47l2 -2q52 -38 106 -86q80 -71 80 -96q-44 0 -133 67q-59 45 -106 78q-27 14 -27 39q0 29 80 76q51 37 158 112h28q0 -8 2 -26zM331 624q4 -16 -8 -25l-127 -90q-55 -25 -55 -47l2 -2q52 -38 106 -86q80 -71 80 -96 q-44 0 -133 67q-59 45 -106 78q-27 14 -27 39q0 29 80 76q51 37 158 112h28q0 -8 2 -26z" />
<glyph unicode="&#xac;" horiz-adv-x="1164" d="M1092 297q0 -11 -17.5 -21t-29.5 -10q-17 0 -34.5 14.5t-17.5 31.5v244q-12 23 -28 23q12 0 -45 -8v-291l-16 -14l-5 3q-15 33 -15 28v243l-27 28h-772l-16 19q12 23 95 23q-7 70 44 70h837q12 0 29.5 -9.5t17.5 -21.5v-352z" />
<glyph unicode="&#xad;" horiz-adv-x="993" d="M690 1098l-4 -4l-4 4l4 6zM979 707q-78 4 -78 20v31q2 8 2 12q12 10 31 10q45 0 45 -73zM965 666q0 -35 -35 -35q0 35 35 35zM774 760h-8v10h8v-10zM887 662q0 -44 -15 -58q-10 31 -10 58h25zM141 1196q0 -47 -45 -47q0 18 2 29q6 18 43 18zM707 672q-11 -10 -48 -24.5 t-51 -14.5h-393q-59 0 -59 63q0 64 59 64h393q58 -23 99 -82v-6zM362 518q-12 0 -35.5 -7t-35.5 -7q0 53 71 53v-39zM197 535l-7 -5l-4 5l7 4zM129 555l-6 -4l-4 4l4 4zM172 510l-4 -4l-4 4l4 6zM31 516h-11v8z" />
<glyph unicode="&#x2212;" horiz-adv-x="993" d="M690 1098l-4 -4l-4 4l4 6zM979 707q-78 4 -78 20v31q2 8 2 12q12 10 31 10q45 0 45 -73zM965 666q0 -35 -35 -35q0 35 35 35zM774 760h-8v10h8v-10zM887 662q0 -44 -15 -58q-10 31 -10 58h25zM141 1196q0 -47 -45 -47q0 18 2 29q6 18 43 18zM707 672q-11 -10 -48 -24.5 t-51 -14.5h-393q-59 0 -59 63q0 64 59 64h393q58 -23 99 -82v-6zM362 518q-12 0 -35.5 -7t-35.5 -7q0 53 71 53v-39zM197 535l-7 -5l-4 5l7 4zM129 555l-6 -4l-4 4l4 4zM172 510l-4 -4l-4 4l4 6zM31 516h-11v8z" />
<glyph unicode="&#xae;" horiz-adv-x="1501" d="M1254 1217q3 -4 3 -10t-3 -13l-10 -9q-3 -1 -7 -1t-6 1l-4 2q-3 8 -3 13t2 8q12 7 28 9zM1173 1203l-30 15l11 20q21 -11 21 -25q0 -5 -2 -10zM305 1240q-31 0 -31 19q0 16 31 16v-35zM285 1214q-15 -21 -29 -21q-20 0 -20 21q0 20 20 20q18 0 29 -20zM147 1273h-10v8h10 v-8zM176 1224h-18v18h18v-18zM1498 600q0 -264 -217 -494q23 -14 23 -32q-37 2 -41 14q-180 -133 -373 -161q13 -2 24 -14q22 -25 5 -40q-16 -14 -35 11q3 -6 1 -13l-9 -8q-5 -5 -11 -5q-10 0 -21 13l-3 3q0 8 -3 21q3 6 7 10l11 9q9 8 18 11q-32 -4 -63 -5q0 -7 -5 -11 q-10 -9 -26 4q-17 13 -38 -5q-8 -8 -20 15q-212 20 -409 165q-4 -12 -41 -14q0 18 23 32q-217 230 -217 494q0 286 212 494.5t498 208.5q243 0 434 -153v0q3 6 17 -2q19 -9 12 -23q247 -218 247 -525zM217 1126h-20v20h20v-20zM160 1167q0 -31 -17 -31q-10 0 -16.5 20.5 t-32.5 20.5q-6 0 -6 16q0 21 16 21q13 0 34.5 -17.5t21.5 -29.5zM227 1068q0 -33 -22 -33q-21 0 -19 31q-2 -6 -8 -10h-12q-19 -2 -19 27v4q5 6 11 18q6 2 12 2h14q43 0 43 -39zM59 1164q-10 -10 -18 -10q-12 8 -21 21q5 10 21 10l12 -4q6 -6 6 -12v-5zM70 1076h-23 q0 33 23 33v-33zM790 -184l-17 -15q-12 13 -12 24q0 9 8 16zM724 -125q-1 -14 -7 -20q-14 -1 -29 3q-3 10 9 21l11 5q9 -1 13 -5zM1400 588q0 271 -170 440q-49 48 -107 82l-4 -8q-13 -26 -34 -26q-9 0 -20 5q-30 15 -20 35q6 10 16 10q8 0 21 -7q-5 4 -6 11l3 5 q-127 61 -291 61q-272 0 -442 -168t-170 -440q0 -261 148 -393q185 -165 388 -176l2 2l1 -2q30 -1 73 -1q143 0 226 27q112 37 238 150q148 132 148 393zM1148 1073l-9 -18l-18 9l9 18zM1200 980q-9 -16 -31 -17q-12 23 -6 36q9 18 28 8q18 -9 9 -27zM1214 918l-31 16 q14 27 31 19q7 -4 7 -13q0 -8 -7 -22zM745 1154q0 -20 -26 -20h-8q-25 0 -25 20q0 13 29 13q30 0 30 -13zM1299 503q-10 -9 -18 -9q-6 0 -11 5l-2 12l1 5q3 1 5 1q10 0 25 -14zM1284 454l-1 -14q-13 -3 -22 8q12 10 23 6zM1249 405q-13 -11 -23 -11q-8 0 -15 7l23 21z M1248 317q14 -15 -6 -32l-6 -5q-19 -17 -32 -1q-9 10 13.5 29t30.5 9zM972 517l-14 -28l-19 10q10 20 23 20q5 0 10 -2zM1169 544q-8 0 -23.5 5.5t-24.5 5.5q-22 0 -22 -28q0 -15 8 -44t8 -44q-5 -8 -44 -30.5t-51 -25.5q-16 6 -16 55q0 16 28 29.5t28 16.5q0 11 -9 15h-54 q-20 20 -48 59q0 13 25 13q8 0 21.5 -7.5t20.5 -7.5q0 38 -40 38q-43 0 -43 -63q0 -20 2 -24q38 -111 70 -204q56 -164 56 -191q0 -36 -28 -36q-41 0 -59 55l-118 368q-7 24 -21 30q-9 4 -38 4v-72q-16 40 -39 49q-13 5 -70 5v-406q0 -33 -52 -33q-50 0 -50 33v406l-31 -23 v-408q-8 -11 -20 -23q-11 12 -19 23v651q-25 14 -52 14l-8 -1v-30q-18 4 -37 28t-19 43q0 16 30 16q14 0 42.5 -5.5t43.5 -5.5v214q0 13 29 24q36 14 39.5 19t12.5 46q6 29 39 29h81q169 0 250 -59q94 -68 94 -231q0 -90 -25 -140q-31 -32 -31 -57q0 -6 33 -6q131 0 131 -89 zM425 704q-9 -7 -31 -25h-2q-17 -2 -29 28q0 11 23 11q31 0 39 -14zM899 135l-3 -4l-4 4l4 4zM907 112l-3 -3l-4 3l4 3zM860 94q-14 -12 -24 -12q-15 0 -15 14q0 10 16 24zM862 61q4 -41 -22 -41q-8 0 -15 9q-13 15 2 28q8 7 19 7q7 0 16 -3zM968 776q0 111 -8 154 q-19 102 -88 102h-134q25 -4 39 -20h-85v-348q0 -9 11.5 -20t20.5 -11h98q-12 8 -10 18l11 4q-13 8 -29 17q-8 2 -51 10q-36 6 -36 25q0 13 25 13q12 0 65 -28q30 -15 99 -13v228q31 -53 31 -127q0 -17 -8.5 -50.5t-8.5 -50.5q0 -16 17 -23q41 29 41 120zM856 633 q-11 8 -29 19q2 -5 2 -10q0 -4 -2 -9h29zM583 553v449q-25 0 -25 -23v-404q0 -22 25 -22z" />
<glyph unicode="&#xaf;" horiz-adv-x="456" d="M428 1262q-39 -28 -90 -28h-251q-55 0 -55 44q0 45 55 45h251q53 -16 90 -57v-4z" />
<glyph unicode="&#x2c9;" horiz-adv-x="456" d="M428 1262q-39 -28 -90 -28h-251q-55 0 -55 44q0 45 55 45h251q53 -16 90 -57v-4z" />
<glyph unicode="&#xb0;" horiz-adv-x="374" d="M309 1314q0 -55 -84 -90v-29q-2 -3 -5 -4h-4q-4 1 -6 4v29q-84 11 -96 98l-7 -4v3q0 8 -5.5 23t-5.5 23v22q0 31 16 47v-57q18 65 70 93h-34q12 13 34 13q10 -4 16 -4h3q3 2 7 4l8 -8q1 0 15 -4q78 -21 78 -85v-74zM264 1402q-1 3 -3 4q-3 -1 -3 -3v-2q0 -3 3 -3q3 1 3 4 zM261 1299v53q-3 -16 -17 -34v106q-3 4 -19 4h-5q0 -6 -2 -20q-1 -4 -4.5 -11t-3.5 -10q-5 1 -7 5v37q-40 0 -40 -30v-96q0 -19 11 -19h36v30q3 3 6 4h4q2 -2 3 -4v-30q-14 -4 -26 -11q23 -1 16 -1q48 0 48 27z" />
<glyph unicode="&#xb1;" horiz-adv-x="1026" d="M473 1284l-2 -4q-20 -2 -49 -10l-4 -4q-15 -27 -15 -111q0 -12 -14 -12q-24 0 -24 39q0 18 4 54t4 54q12 19 55 19q45 0 45 -25zM377 1083q0 -16 -6 -45l-6 -4v49h12zM375 915q0 -30 -27 -30q0 21 -9 63.5t-9 63.5q45 0 45 -97zM375 848q0 -31 -33 -31q0 19 31 41 q2 -4 2 -10zM973 614q0 -22 -31 -45h-334q-24 -18 -43 -43v-323q0 -31 -41 -31q-16 0 -31.5 16.5t-15.5 32.5v314l-39 30v-225l-16 225l-14 2q-27 0 -27 -78q-29 0 -33 29q2 -12 2 51h-241q-29 0 -29 41q0 17 16 32t33 15h215v25q-44 0 -132 5t-132 5q31 0 133 6q82 5 135 2 l-4 37q0 27 21 43h4q0 -47 24 -78l4 -2q17 2 31 21v323l14 -313l35 -29v304q0 16 15.5 32.5t31.5 16.5q41 0 41 -31v-328h230l-215 -14l18 -25h324q15 0 33 -14t18 -29zM414 535l-6 -5l-5 5l5 4zM403 328q0 -31 -22 -31q0 86 12 121q10 -72 10 -90zM403 231q0 -32 -24 -32 q2 14 4 43q4 6 10 10q10 -4 10 -21zM393 123h-20q8 22 20 31v-31zM963 -57q-42 -27 -95 -27h-707q-57 0 -57 44q0 46 57 46h707q56 -17 95 -59v-4zM463 672h-8l-2 -8h8zM414 664l-21 18v-18h21z" />
<glyph unicode="&#xb2;" horiz-adv-x="426" d="M206 1270h-19q0 13 19 13v-13zM200 1199h-6v7h6v-7zM224 1058q-1 -3 -4 -4l-8 -2l-6 2q-12 49 -12 99v13q0 17 18 17q5 -1 9 -2q3 -4 3 -11v-112zM187 1121q0 -22 -12 -22q-3 0 -4 1q-6 11 -7 15q0 17 21 17zM383 1235q0 -59 -48 -153l-158 -311v-58l17 -21h159 q17 0 23 -15q-9 -15 -28 -17q11 -22 11 -29q0 -36 -24 -36h-264q-24 0 -24 43l1 16l146 287q5 28 18 35q-7 4 -8 44q20 0 26 -14q53 91 53 191v55q0 21 -19.5 40.5t-39.5 19.5q-5 0 -13.5 -3t-12.5 -3t-10.5 3t-10.5 3q-18 0 -29.5 -25.5t-23.5 -22.5q0 -77 -41 -77 q-35 0 -35 30q0 109 129 165v53q2 6 12 12q8 -4 17 -12v-46l6 -1q17 6 47 17q28 -6 41 -21h-64q113 -65 126 -220v152q21 -31 21 -81z" />
<glyph unicode="&#xb3;" horiz-adv-x="414" d="M283 1400h-77q9 18 39 18t38 -18zM618 1030q-2 -3 -6 -6q-38 -7 -123 -44q-78 -34 -124 -39q8 -15 8 -76q0 -102 -34 -178q-44 -99 -134 -99q-64 0 -110.5 46.5t-46.5 110.5q0 38 35 38q32 0 39 -46q7 -52 33 -68q16 -10 74 -10q18 0 24 12h-6q-18 0 -47 21h78v213 q-29 0 -84.5 -20t-84.5 -20q-4 0 -6 6l-2 6q0 9 6 12q28 4 82 17q27 11 83 29q-8 12 -48 30q-35 15 -35 36q0 18 27 30q3 2 43 16q4 9 19 23v207q0 36 -74 36q-53 0 -70 -32q-4 -10 -15 -61q-7 -31 -36 -31q-35 0 -35 37q0 61 48 109.5t108 48.5q46 0 82 -32q15 -13 59 -69 v53q28 -3 28 -105q0 -94 -32 -154q-3 -7 -29 -36q-17 -19 -17 -40q0 -42 36 -42q7 0 111.5 41.5t152.5 41.5q23 0 23 -12zM136 748q-18 24 -18 45v11q0 7 6 8q12 -8 12 -35v-29zM344 927l-3 4l-2 -4l2 -2z" />
<glyph unicode="&#xb4;" horiz-adv-x="623" d="M477 1374l-205 -223h-67l143 223h129z" />
<glyph unicode="&#xb5;" horiz-adv-x="778" d="M735 223h-20v21h20v-21zM393 205q-16 -21 -35 -21q-53 0 -94 72q-37 65 -37 123v598l19 20l24 -20v-674q0 -39 43 -68q37 -24 80 -30zM901 1145q0 -53 -37 -144q-42 -104 -51 -141l-59 -244q-35 -145 -39 -245l-19 -21v-78q-32 -22 -32 -71q-33 0 -56 43q0 -217 -67 -217 q-25 0 -63 39.5t-60 39.5q-17 0 -77.5 -44t-96.5 -44q-44 0 -81 30l-2 -415q0 -6 -7 -7h-13q-20 3 -42 45v463q-19 42 -19 85v680q0 14 23 26l6 4l2 9q1 10 22 6q12 -2 21 -7.5t23 -12.5q26 -15 26 -25v-676q0 -51 59 -76q47 -20 103 -20q40 0 75 33.5t35 72.5v666 q0 10 26 24.5t38 14.5q23 0 44 -18t21 -41v-596l19 28v666l24 20q20 -7 21 -39l14 -481l25 21v12q0 116 55 360q66 293 119 293q20 0 20 -18zM672 178q0 -18 -35 -33v11q18 22 35 22z" />
<glyph unicode="&#x3bc;" horiz-adv-x="778" d="M735 223h-20v21h20v-21zM393 205q-16 -21 -35 -21q-53 0 -94 72q-37 65 -37 123v598l19 20l24 -20v-674q0 -39 43 -68q37 -24 80 -30zM901 1145q0 -53 -37 -144q-42 -104 -51 -141l-59 -244q-35 -145 -39 -245l-19 -21v-78q-32 -22 -32 -71q-33 0 -56 43q0 -217 -67 -217 q-25 0 -63 39.5t-60 39.5q-17 0 -77.5 -44t-96.5 -44q-44 0 -81 30l-2 -415q0 -6 -7 -7h-13q-20 3 -42 45v463q-19 42 -19 85v680q0 14 23 26l6 4l2 9q1 10 22 6q12 -2 21 -7.5t23 -12.5q26 -15 26 -25v-676q0 -51 59 -76q47 -20 103 -20q40 0 75 33.5t35 72.5v666 q0 10 26 24.5t38 14.5q23 0 44 -18t21 -41v-596l19 28v666l24 20q20 -7 21 -39l14 -481l25 21v12q0 116 55 360q66 293 119 293q20 0 20 -18zM672 178q0 -18 -35 -33v11q18 22 35 22z" />
<glyph unicode="&#xb6;" horiz-adv-x="752" d="M673 78q0 -39 -60 -39q-63 0 -63 39v450l-49 11v-334q-3 -5 -34 -29q-12 7 -35 29v352q-379 27 -379 397q0 140 66 250q76 127 209 127q55 0 80 21l-21 14h-205q29 37 127 37q121 0 138 -12q26 -25 39 -39q56 0 129 -3q58 -9 58 -36v-1235zM15 911q-21 27 -21 66v78 q0 90 21 139v-283zM546 735v461l-40 8v-499zM426 782v443h-147q-38 0 -72.5 -39.5t-34.5 -77.5v-305q8 -31 19 -60h196q11 0 25 14t14 25zM408 686q-23 23 -74 23q-17 0 -51 -2t-51 -2q34 -21 102 -21h45q21 0 29 2z" />
<glyph unicode="&#xb7;" horiz-adv-x="374" d="M309 614q0 -55 -84 -90v-29q-2 -3 -5 -4h-4q-4 1 -6 4v29q-84 11 -96 98l-7 -4v3q0 8 -5.5 23t-5.5 23v22q0 31 16 47v-57q18 65 70 93h-34q12 13 34 13q10 -4 16 -4h3q3 2 7 4l8 -8q1 0 15 -4q78 -21 78 -85v-74zM264 702q-1 3 -3 4q-3 -1 -3 -3v-2q0 -3 3 -3q3 1 3 4z " />
<glyph unicode="&#x2219;" horiz-adv-x="374" d="M309 614q0 -55 -84 -90v-29q-2 -3 -5 -4h-4q-4 1 -6 4v29q-84 11 -96 98l-7 -4v3q0 8 -5.5 23t-5.5 23v22q0 31 16 47v-57q18 65 70 93h-34q12 13 34 13q10 -4 16 -4h3q3 2 7 4l8 -8q1 0 15 -4q78 -21 78 -85v-74zM264 702q-1 3 -3 4q-3 -1 -3 -3v-2q0 -3 3 -3q3 1 3 4z " />
<glyph unicode="&#xb8;" horiz-adv-x="764" d="M600 -213q0 -75 -68 -119q-59 -39 -137 -39t-157 29l10 31h186q15 0 49 39v43q0 76 -49 94q-22 8 -117 8q-2 4 -2 16q4 11 91 121l57 21q-78 -57 -78 -82q0 -19 10 -35h23q182 0 182 -127z" />
<glyph unicode="&#xb9;" horiz-adv-x="274" d="M224 612q0 -23 -36 -23q-7 0 -22.5 8.5t-15.5 14.5v96q-4 -2 -8 -1l-15 11v567q-37 4 -32 4q-28 -13 -47 -23q-14 5 -14 17l1 6q34 23 89 79q0 33 -47 33q27 36 56 36q23 0 27 -54q7 1 13 1q51 0 51 -24v-748z" />
<glyph unicode="&#xba;" horiz-adv-x="540" d="M278 1542h-15q0 9 7 13q8 -6 8 -13zM278 1511q-10 0 -14 8l6 6q8 -4 8 -14zM282 1477q0 -21 -12 -35q-9 14 -9 54v9q21 0 21 -28zM278 1412q-10 0 -14 7l6 7q8 -5 8 -14zM276 1379h-12v5h12v-5zM440 891q0 -86 -132 -140v-83q-2 -3 -8 -6h-6q-7 3 -9 6v83 q-133 17 -150 152l-12 -6v5q0 12 -9 35.5t-9 35.5v203q0 48 26 74v-89q28 101 109 144h-52q18 21 52 21q17 -6 26 -6h4q4 2 11 6l13 -13q2 0 23 -6q47 -12 83 -48q40 -39 40 -85v-283zM517 552q-11 -10 -48 -24.5t-51 -14.5h-273q-59 0 -59 63q0 64 59 64h273q58 -23 99 -82 v-6zM368 1196q0 6 -5 6q-4 0 -4 -5v-2q0 -5 4 -5q5 0 5 6zM363 868v82q-4 -23 -7 -31q-7 -20 -18 -22v334q0 6 -30 6h-8q0 -10 -3 -31.5t-3 -31.5q0 -5 1 -14.5t1 -14.5q0 -28 -11 -32q-9 1 -12 8v117q-62 0 -62 -46v-318q0 -30 17 -30h57v47q2 4 9 6h6q3 -2 5 -6v-47 q-23 -6 -41 -17q36 -1 26 -1q73 0 73 42zM294 1032q0 -6 -18 -7v71q2 4 5 6h6q4 -2 7 -6v-64zM305 920q-2 -3 -5 -6h-6l-7 6l7 6h6q3 -2 5 -6z" />
<glyph unicode="&#xbb;" horiz-adv-x="580" d="M531 462q0 -25 -27 -39q-47 -33 -106 -78q-88 -67 -133 -67q0 25 80 96q54 48 106 86l2 2q0 22 -55 47l-127 90q-12 9 -8 25q2 18 2 26h28q107 -75 158 -112q80 -47 80 -76zM331 462q0 -25 -27 -39q-47 -33 -106 -78q-88 -67 -133 -67q0 25 80 96q54 48 106 86l2 2 q0 22 -55 47l-127 90q-12 9 -8 25q2 18 2 26h28q107 -75 158 -112q80 -47 80 -76z" />
<glyph unicode="&#xbc;" horiz-adv-x="783" d="M224 612q0 -23 -36 -23q-7 0 -22.5 8.5t-15.5 14.5v96q-4 -2 -8 -1l-15 11v567q-37 4 -32 4q-28 -13 -47 -23q-14 5 -14 17l1 6q34 23 89 79q0 33 -47 33q27 36 56 36q23 0 27 -54q7 1 13 1q51 0 51 -24v-748zM462 1235l-213 -1180q-7 -39 -39 -39q-20 0 -20 11v67 l215 1180q7 39 39 39h12q6 -4 6 -10v-68zM485 788l-71 -235v11l71 245v-21zM409 530q-2 -9 -6 -19v12q0 4 6 18v-11zM738 151q0 -12 -4 -18q-18 -9 -44 -32q-4 -7 -9 -66q-4 -40 -37 -40q-30 0 -37 30q-1 7 -4 52q-1 30 -18 30l-18 -19q-3 6 -18 28h-152q-27 18 -27 51 q0 10 4 33q-59 12 -53 36q9 34 26 82v-71q13 -18 27 -18q8 0 12 13l146 505q10 35 40 35q25 0 25 -30q0 -11 -151 -522h86l21 17v188q2 6 14 19q6 -7 15 -19v-188l24 -17v164q0 24 38 24t38 -24v-188q0 -4 28 -22.5t28 -32.5zM399 496l-2 -2l-3 2q0 4 3 4zM393 476l-3 -6 q-2 2 -2 7t2 6q3 -3 3 -7zM388 456l-2 -2l-3 2l3 2zM382 437l-2 -2l-3 4l3 2zM376 414l-2 -2l-3 3l3 3zM370 397l-3 -3l-2 3l2 4zM363 380l-2 -3l-2 3l2 2zM359 356l-3 -3l-2 3l2 3zM353 338l-3 -3l-2 3q0 3 2 3zM544 189q-12 11 -18 11h-70l11 -11h77z" />
<glyph unicode="&#xbd;" horiz-adv-x="807" d="M224 612q0 -23 -36 -23q-7 0 -22.5 8.5t-15.5 14.5v96q-4 -2 -8 -1l-15 11v567q-37 4 -32 4q-28 -13 -47 -23q-14 5 -14 17l1 6q34 23 89 79q0 33 -47 33q27 36 56 36q23 0 27 -54q7 1 13 1q51 0 51 -24v-748zM576 670h-19q0 13 19 13v-13zM570 599h-6v7h6v-7zM594 458 q-1 -3 -4 -4l-8 -2l-6 2q-12 49 -12 99v13q0 17 18 17q5 -1 9 -2q3 -4 3 -11v-112zM557 521q0 -22 -12 -22q-3 0 -4 1q-6 11 -7 15q0 17 21 17zM753 635q0 -59 -48 -153l-158 -311v-58l17 -21h159q17 0 23 -15q-9 -15 -28 -17q11 -22 11 -29q0 -36 -24 -36h-264 q-24 0 -24 43l1 16l146 287q5 28 18 35q-7 4 -8 44q20 0 26 -14q53 91 53 191v55q0 21 -19.5 40.5t-39.5 19.5q-5 0 -13.5 -3t-12.5 -3t-10.5 3t-10.5 3q-18 0 -29.5 -25.5t-23.5 -22.5q0 -77 -41 -77q-35 0 -35 30q0 109 129 165v53q2 6 12 12q8 -4 17 -12v-46l6 -1 q17 6 47 17q28 -6 41 -21h-64q113 -65 126 -220v152q21 -31 21 -81zM462 1235l-213 -1180q-7 -39 -39 -39q-20 0 -20 11v67l215 1180q7 39 39 39h12q6 -4 6 -10v-68z" />
<glyph unicode="&#xbe;" horiz-adv-x="901" d="M293 1400h-77q9 18 39 18t38 -18zM628 1030q-2 -3 -6 -6q-38 -7 -123 -44q-78 -34 -124 -39q8 -15 8 -76q0 -102 -34 -178q-44 -99 -134 -99q-64 0 -110.5 46.5t-46.5 110.5q0 38 35 38q32 0 39 -46q7 -52 33 -68q16 -10 74 -10q18 0 24 12h-6q-18 0 -47 21h78v213 q-29 0 -84.5 -20t-84.5 -20q-4 0 -6 6l-2 6q0 9 6 12q28 4 82 17q27 11 83 29q-8 12 -48 30q-35 15 -35 36q0 18 27 30q3 2 43 16q4 9 19 23v207q0 36 -74 36q-53 0 -70 -32q-4 -10 -15 -61q-7 -31 -36 -31q-35 0 -35 37q0 61 48 109.5t108 48.5q46 0 82 -32q15 -13 59 -69 v53q28 -3 28 -105q0 -94 -32 -154q-3 -7 -29 -36q-17 -19 -17 -40q0 -42 36 -42q7 0 111.5 41.5t152.5 41.5q23 0 23 -12zM146 748q-18 24 -18 45v11q0 7 6 8q12 -8 12 -35v-29zM354 927l-3 4l-2 -4l2 -2zM572 1235l-213 -1180q-7 -39 -39 -39q-20 0 -20 11v67l215 1180 q7 39 39 39h12q6 -4 6 -10v-68zM595 788l-71 -235v11l71 245v-21zM519 530q-2 -9 -6 -19v12q0 4 6 18v-11zM848 151q0 -12 -4 -18q-18 -9 -44 -32q-4 -7 -9 -66q-4 -40 -37 -40q-30 0 -37 30q-1 7 -4 52q-1 30 -18 30l-18 -19q-3 6 -18 28h-152q-27 18 -27 51q0 10 4 33 q-59 12 -53 36q9 34 26 82v-71q13 -18 27 -18q8 0 12 13l146 505q10 35 40 35q25 0 25 -30q0 -11 -151 -522h86l21 17v188q2 6 14 19q6 -7 15 -19v-188l24 -17v164q0 24 38 24t38 -24v-188q0 -4 28 -22.5t28 -32.5zM509 496l-2 -2l-3 2q0 4 3 4zM503 476l-3 -6q-2 2 -2 7 t2 6q3 -3 3 -7zM498 456l-2 -2l-3 2l3 2zM492 437l-2 -2l-3 4l3 2zM486 414l-2 -2l-3 3l3 3zM480 397l-3 -3l-2 3l2 4zM473 380l-2 -3l-2 3l2 2zM469 356l-3 -3l-2 3l2 3zM463 338l-3 -3l-2 3q0 3 2 3zM654 189q-12 11 -18 11h-70l11 -11h77z" />
<glyph unicode="&#xbf;" horiz-adv-x="692" d="M439 1270q0 -56 -60 -56q-59 0 -59 56q0 61 59 61q60 0 60 -61zM295 1208l-4 -4l-4 6l4 4zM633 274q0 -179 -227 -256q-76 -26 -115 -26q-10 0 -69 33h79q-169 110 -176 221q-2 33 -2 92q0 119 37 197l107 170v137q10 16 24 30l19 -20q0 137 69 137q60 0 60 -82 q0 -96 -74 -221q-102 -173 -115 -209q-8 -22 -8 -26v-226q0 -88 137 -88q24 0 58.5 40t58.5 40l10 -10q0 137 66 137q61 0 61 -70zM105 137q-31 51 -31 129q0 80 31 146v-275zM314 817l-4 6l-6 -4l6 -6z" />
<glyph unicode="&#xc0;" horiz-adv-x="770" d="M766 1505h-21v21h5q16 0 16 -21zM764 1448h-19v29h19v-29zM745 1360q0 -23 -11 -59q-12 -40 -27 -50q-31 0 -31 31q0 12 20.5 29t20.5 28q0 5 -2 11q-20 27 -21 32q0 17 25 17q26 0 26 -39zM711 1223q0 -39 -25 -108q-27 -72 -29 -107h-32q0 14 6 41t6 41q0 9 -5 27.5 t-5 27.5q0 8 21 38l28 40h35zM647 938q0 -24 -8 -51q-11 -37 -27 -37t-16 24q0 27 22 35v76q29 0 29 -47zM647 762q-4 -14 -14 -21q-35 0 -35 31q0 21 14 21l6 -2q11 -9 29 -29zM707 43q0 -11 -16 -23t-27 -12q-46 0 -66 60q-10 49 -20 96q-14 -8 -50.5 -64.5t-50.5 -64.5 q-26 0 -26 51q0 23 10 67t10 66q0 53 -20 74h-215q-15 0 -28 -66q-14 -71 -32 -82q-20 -137 -78 -137q-41 0 -41 51q0 18 2 27l265 1186q9 41 55 41q39 0 53 -31q6 43 25 49q13 -6 39 -109q24 -96 24 -126h-45l123 -539q7 -1 20 -80q19 31 19 98q4 -16 25 -94q14 -53 14 -92 v-8l-39 29v-39zM690 350l-4 -8q-4 1 -4 8q1 5 4 10q4 -4 4 -10zM700 301l-4 -8q-4 1 -4 8q1 5 4 10q4 -4 4 -10zM711 258q0 -6 -4 -14l-2 4l-3 10l3 12l2 2q4 -8 4 -14zM719 209q0 -6 -4 -14l-2 4l-2 10l2 12l2 2q4 -8 4 -14zM729 174l-4 -10q-4 2 -4 10t4 10q4 -4 4 -10z M510 498l-78 422q-11 57 -55 57q-40 0 -53 -68l-78 -401v-49q10 22 28 108q7 -108 50 -108h127q10 18 30 49h4q0 -6 3.5 -17t3.5 -16q0 -8 -21 -16h14q11 0 21 4q8 15 4 35zM569 213q0 47 -41 70q-20 -62 -20 -111q14 0 61 41zM201 233l-4 11q-4 -2 -4 -11q0 -8 4 -10z M190 193q0 6 -4 12q-4 -2 -4 -10q0 -9 4 -11zM487 575q0 -6 -6 -8q-8 0 -8 6v5q0 8 8 8q6 -4 6 -11zM557 221q0 -8 -8 -8t-8 8v4q0 8 8 8h2q6 0 6 -8v-4zM401 1409h-67l-205 224h129z" />
<glyph unicode="&#xc1;" horiz-adv-x="770" d="M766 1505h-21v21h5q16 0 16 -21zM764 1448h-19v29h19v-29zM745 1360q0 -23 -11 -59q-12 -40 -27 -50q-31 0 -31 31q0 12 20.5 29t20.5 28q0 5 -2 11q-20 27 -21 32q0 17 25 17q26 0 26 -39zM711 1223q0 -39 -25 -108q-27 -72 -29 -107h-32q0 14 6 41t6 41q0 9 -5 27.5 t-5 27.5q0 8 21 38l28 40h35zM647 938q0 -24 -8 -51q-11 -37 -27 -37t-16 24q0 27 22 35v76q29 0 29 -47zM647 762q-4 -14 -14 -21q-35 0 -35 31q0 21 14 21l6 -2q11 -9 29 -29zM707 43q0 -11 -16 -23t-27 -12q-46 0 -66 60q-10 49 -20 96q-14 -8 -50.5 -64.5t-50.5 -64.5 q-26 0 -26 51q0 23 10 67t10 66q0 53 -20 74h-215q-15 0 -28 -66q-14 -71 -32 -82q-20 -137 -78 -137q-41 0 -41 51q0 18 2 27l265 1186q9 41 55 41q39 0 53 -31q6 43 25 49q13 -6 39 -109q24 -96 24 -126h-45l123 -539q7 -1 20 -80q19 31 19 98q4 -16 25 -94q14 -53 14 -92 v-8l-39 29v-39zM690 350l-4 -8q-4 1 -4 8q1 5 4 10q4 -4 4 -10zM700 301l-4 -8q-4 1 -4 8q1 5 4 10q4 -4 4 -10zM711 258q0 -6 -4 -14l-2 4l-3 10l3 12l2 2q4 -8 4 -14zM719 209q0 -6 -4 -14l-2 4l-2 10l2 12l2 2q4 -8 4 -14zM729 174l-4 -10q-4 2 -4 10t4 10q4 -4 4 -10z M510 498l-78 422q-11 57 -55 57q-40 0 -53 -68l-78 -401v-49q10 22 28 108q7 -108 50 -108h127q10 18 30 49h4q0 -6 3.5 -17t3.5 -16q0 -8 -21 -16h14q11 0 21 4q8 15 4 35zM569 213q0 47 -41 70q-20 -62 -20 -111q14 0 61 41zM201 233l-4 11q-4 -2 -4 -11q0 -8 4 -10z M190 193q0 6 -4 12q-4 -2 -4 -10q0 -9 4 -11zM487 575q0 -6 -6 -8q-8 0 -8 6v5q0 8 8 8q6 -4 6 -11zM557 221q0 -8 -8 -8t-8 8v4q0 8 8 8h2q6 0 6 -8v-4zM663 1653l-205 -223h-67l143 223h129z" />
<glyph unicode="&#xc2;" horiz-adv-x="770" d="M766 1505h-21v21h5q16 0 16 -21zM764 1448h-19v29h19v-29zM745 1360q0 -23 -11 -59q-12 -40 -27 -50q-31 0 -31 31q0 12 20.5 29t20.5 28q0 5 -2 11q-20 27 -21 32q0 17 25 17q26 0 26 -39zM711 1223q0 -39 -25 -108q-27 -72 -29 -107h-32q0 14 6 41t6 41q0 9 -5 27.5 t-5 27.5q0 8 21 38l28 40h35zM647 938q0 -24 -8 -51q-11 -37 -27 -37t-16 24q0 27 22 35v76q29 0 29 -47zM647 762q-4 -14 -14 -21q-35 0 -35 31q0 21 14 21l6 -2q11 -9 29 -29zM707 43q0 -11 -16 -23t-27 -12q-46 0 -66 60q-10 49 -20 96q-14 -8 -50.5 -64.5t-50.5 -64.5 q-26 0 -26 51q0 23 10 67t10 66q0 53 -20 74h-215q-15 0 -28 -66q-14 -71 -32 -82q-20 -137 -78 -137q-41 0 -41 51q0 18 2 27l265 1186q9 41 55 41q39 0 53 -31q6 43 25 49q13 -6 39 -109q24 -96 24 -126h-45l123 -539q7 -1 20 -80q19 31 19 98q4 -16 25 -94q14 -53 14 -92 v-8l-39 29v-39zM690 350l-4 -8q-4 1 -4 8q1 5 4 10q4 -4 4 -10zM700 301l-4 -8q-4 1 -4 8q1 5 4 10q4 -4 4 -10zM711 258q0 -6 -4 -14l-2 4l-3 10l3 12l2 2q4 -8 4 -14zM719 209q0 -6 -4 -14l-2 4l-2 10l2 12l2 2q4 -8 4 -14zM729 174l-4 -10q-4 2 -4 10t4 10q4 -4 4 -10z M510 498l-78 422q-11 57 -55 57q-40 0 -53 -68l-78 -401v-49q10 22 28 108q7 -108 50 -108h127q10 18 30 49h4q0 -6 3.5 -17t3.5 -16q0 -8 -21 -16h14q11 0 21 4q8 15 4 35zM569 213q0 47 -41 70q-20 -62 -20 -111q14 0 61 41zM201 233l-4 11q-4 -2 -4 -11q0 -8 4 -10z M190 193q0 6 -4 12q-4 -2 -4 -10q0 -9 4 -11zM487 575q0 -6 -6 -8q-8 0 -8 6v5q0 8 8 8q6 -4 6 -11zM557 221q0 -8 -8 -8t-8 8v4q0 8 8 8h2q6 0 6 -8v-4zM592 1344q-8 0 -26 -2q-16 -4 -25 8l-90 127q-25 55 -47 55l-2 -2q-38 -52 -86 -106q-71 -80 -96 -80q0 45 67 133 q45 59 78 106q14 27 39 27q29 0 76 -80q37 -51 112 -158v-28z" />
<glyph unicode="&#xc3;" horiz-adv-x="770" d="M766 1505h-21v21h5q16 0 16 -21zM764 1448h-19v29h19v-29zM745 1360q0 -23 -11 -59q-12 -40 -27 -50q-31 0 -31 31q0 12 20.5 29t20.5 28q0 5 -2 11q-20 27 -21 32q0 17 25 17q26 0 26 -39zM711 1223q0 -39 -25 -108q-27 -72 -29 -107h-32q0 14 6 41t6 41q0 9 -5 27.5 t-5 27.5q0 8 21 38l28 40h35zM647 938q0 -24 -8 -51q-11 -37 -27 -37t-16 24q0 27 22 35v76q29 0 29 -47zM647 762q-4 -14 -14 -21q-35 0 -35 31q0 21 14 21l6 -2q11 -9 29 -29zM707 43q0 -11 -16 -23t-27 -12q-46 0 -66 60q-10 49 -20 96q-14 -8 -50.5 -64.5t-50.5 -64.5 q-26 0 -26 51q0 23 10 67t10 66q0 53 -20 74h-215q-15 0 -28 -66q-14 -71 -32 -82q-20 -137 -78 -137q-41 0 -41 51q0 18 2 27l265 1186q9 41 55 41q39 0 53 -31q6 43 25 49q13 -6 39 -109q24 -96 24 -126h-45l123 -539q7 -1 20 -80q19 31 19 98q4 -16 25 -94q14 -53 14 -92 v-8l-39 29v-39zM690 350l-4 -8q-4 1 -4 8q1 5 4 10q4 -4 4 -10zM700 301l-4 -8q-4 1 -4 8q1 5 4 10q4 -4 4 -10zM711 258q0 -6 -4 -14l-2 4l-3 10l3 12l2 2q4 -8 4 -14zM719 209q0 -6 -4 -14l-2 4l-2 10l2 12l2 2q4 -8 4 -14zM729 174l-4 -10q-4 2 -4 10t4 10q4 -4 4 -10z M510 498l-78 422q-11 57 -55 57q-40 0 -53 -68l-78 -401v-49q10 22 28 108q7 -108 50 -108h127q10 18 30 49h4q0 -6 3.5 -17t3.5 -16q0 -8 -21 -16h14q11 0 21 4q8 15 4 35zM569 213q0 47 -41 70q-20 -62 -20 -111q14 0 61 41zM201 233l-4 11q-4 -2 -4 -11q0 -8 4 -10z M190 193q0 6 -4 12q-4 -2 -4 -10q0 -9 4 -11zM487 575q0 -6 -6 -8q-8 0 -8 6v5q0 8 8 8q6 -4 6 -11zM557 221q0 -8 -8 -8t-8 8v4q0 8 8 8h2q6 0 6 -8v-4zM596 1430q-27 -43 -31 -48q-14 -14 -43 -14q-30 0 -103 47t-103 47q-13 0 -39.5 -9t-38.5 -9q0 26 24.5 53t49.5 27 q31 0 105 -48t105 -48q13 0 37.5 10t36.5 10v-18z" />
<glyph unicode="&#xc4;" horiz-adv-x="770" d="M766 1505h-21v21h5q16 0 16 -21zM764 1448h-19v29h19v-29zM745 1360q0 -23 -11 -59q-12 -40 -27 -50q-31 0 -31 31q0 12 20.5 29t20.5 28q0 5 -2 11q-20 27 -21 32q0 17 25 17q26 0 26 -39zM711 1223q0 -39 -25 -108q-27 -72 -29 -107h-32q0 14 6 41t6 41q0 9 -5 27.5 t-5 27.5q0 8 21 38l28 40h35zM647 938q0 -24 -8 -51q-11 -37 -27 -37t-16 24q0 27 22 35v76q29 0 29 -47zM647 762q-4 -14 -14 -21q-35 0 -35 31q0 21 14 21l6 -2q11 -9 29 -29zM707 43q0 -11 -16 -23t-27 -12q-46 0 -66 60q-10 49 -20 96q-14 -8 -50.5 -64.5t-50.5 -64.5 q-26 0 -26 51q0 23 10 67t10 66q0 53 -20 74h-215q-15 0 -28 -66q-14 -71 -32 -82q-20 -137 -78 -137q-41 0 -41 51q0 18 2 27l265 1186q9 41 55 41q39 0 53 -31q6 43 25 49q13 -6 39 -109q24 -96 24 -126h-45l123 -539q7 -1 20 -80q19 31 19 98q4 -16 25 -94q14 -53 14 -92 v-8l-39 29v-39zM690 350l-4 -8q-4 1 -4 8q1 5 4 10q4 -4 4 -10zM700 301l-4 -8q-4 1 -4 8q1 5 4 10q4 -4 4 -10zM711 258q0 -6 -4 -14l-2 4l-3 10l3 12l2 2q4 -8 4 -14zM719 209q0 -6 -4 -14l-2 4l-2 10l2 12l2 2q4 -8 4 -14zM729 174l-4 -10q-4 2 -4 10t4 10q4 -4 4 -10z M510 498l-78 422q-11 57 -55 57q-40 0 -53 -68l-78 -401v-49q10 22 28 108q7 -108 50 -108h127q10 18 30 49h4q0 -6 3.5 -17t3.5 -16q0 -8 -21 -16h14q11 0 21 4q8 15 4 35zM569 213q0 47 -41 70q-20 -62 -20 -111q14 0 61 41zM201 233l-4 11q-4 -2 -4 -11q0 -8 4 -10z M190 193q0 6 -4 12q-4 -2 -4 -10q0 -9 4 -11zM487 575q0 -6 -6 -8q-8 0 -8 6v5q0 8 8 8q6 -4 6 -11zM557 221q0 -8 -8 -8t-8 8v4q0 8 8 8h2q6 0 6 -8v-4zM588 1432q0 -30 -21 -51t-51 -21q-72 0 -72 72q0 71 72 71t72 -71zM346 1428q0 -68 -72 -68q-69 0 -69 68 q0 28 20.5 48.5t48.5 20.5q72 0 72 -69z" />
<glyph unicode="&#xc5;" horiz-adv-x="770" d="M766 1505h-21v21h5q16 0 16 -21zM764 1448h-19v29h19v-29zM745 1360q0 -23 -11 -59q-12 -40 -27 -50q-31 0 -31 31q0 12 20.5 29t20.5 28q0 5 -2 11q-20 27 -21 32q0 17 25 17q26 0 26 -39zM711 1223q0 -39 -25 -108q-27 -72 -29 -107h-32q0 14 6 41t6 41q0 9 -5 27.5 t-5 27.5q0 8 21 38l28 40h35zM647 938q0 -24 -8 -51q-11 -37 -27 -37t-16 24q0 27 22 35v76q29 0 29 -47zM647 762q-4 -14 -14 -21q-35 0 -35 31q0 21 14 21l6 -2q11 -9 29 -29zM707 43q0 -11 -16 -23t-27 -12q-46 0 -66 60q-10 49 -20 96q-14 -8 -50.5 -64.5t-50.5 -64.5 q-26 0 -26 51q0 23 10 67t10 66q0 53 -20 74h-215q-15 0 -28 -66q-14 -71 -32 -82q-20 -137 -78 -137q-41 0 -41 51q0 18 2 27l265 1186q9 41 55 41q39 0 53 -31q6 43 25 49q13 -6 39 -109q24 -96 24 -126h-45l123 -539q7 -1 20 -80q19 31 19 98q4 -16 25 -94q14 -53 14 -92 v-8l-39 29v-39zM690 350l-4 -8q-4 1 -4 8q1 5 4 10q4 -4 4 -10zM700 301l-4 -8q-4 1 -4 8q1 5 4 10q4 -4 4 -10zM711 258q0 -6 -4 -14l-2 4l-3 10l3 12l2 2q4 -8 4 -14zM719 209q0 -6 -4 -14l-2 4l-2 10l2 12l2 2q4 -8 4 -14zM729 174l-4 -10q-4 2 -4 10t4 10q4 -4 4 -10z M510 498l-78 422q-11 57 -55 57q-40 0 -53 -68l-78 -401v-49q10 22 28 108q7 -108 50 -108h127q10 18 30 49h4q0 -6 3.5 -17t3.5 -16q0 -8 -21 -16h14q11 0 21 4q8 15 4 35zM569 213q0 47 -41 70q-20 -62 -20 -111q14 0 61 41zM201 233l-4 11q-4 -2 -4 -11q0 -8 4 -10z M190 193q0 6 -4 12q-4 -2 -4 -10q0 -9 4 -11zM487 575q0 -6 -6 -8q-8 0 -8 6v5q0 8 8 8q6 -4 6 -11zM557 221q0 -8 -8 -8t-8 8v4q0 8 8 8h2q6 0 6 -8v-4zM476 1527q0 -55 -84 -90v-29q-2 -3 -5 -4h-4q-4 1 -6 4v29q-84 11 -96 98l-7 -4v3q0 8 -5.5 23t-5.5 23v22q0 31 16 47 v-57q18 65 70 93h-34q12 13 34 13q10 -4 16 -4h3q3 2 7 4l8 -8q1 0 15 -4q78 -21 78 -85v-74zM431 1615q-1 3 -3 4q-3 -1 -3 -3v-2q0 -3 3 -3q3 1 3 4zM428 1512v53q-3 -16 -17 -34v106q-3 4 -19 4h-5q0 -6 -2 -20q-1 -4 -4.5 -11t-3.5 -10q-5 1 -7 5v37q-40 0 -40 -30v-96 q0 -19 11 -19h36v30q3 3 6 4h4q2 -2 3 -4v-30q-14 -4 -26 -11q23 -1 16 -1q48 0 48 27z" />
<glyph unicode="&#xc6;" horiz-adv-x="1133" d="M932 850l-6 -4l-4 4l4 4zM893 588q0 -31 -14 -31q-16 0 -16 25v12q0 22 16 22q14 0 14 -28zM883 500q-4 -6 -10 -11q-6 5 -10 11v8q4 6 10 10q6 -4 10 -10v-8zM824 518q-4 -10 -19 -12v33h9q8 -11 10 -21zM883 369q-20 4 -20 12v70h20v-82zM1080 90q0 -65 -41 -65h-211 v-162q-6 -10 -29 -13v160l-14 15h-105v-19q-2 -11 -19.5 -20t-28.5 -7q-45 8 -55 71v2q-7 10 -7 18v76q-17 -10 -57 -53q-45 -49 -61 -55q-25 5 -16 55q4 22 21.5 63.5t20.5 63.5q10 53 -6 77l-194 3q-15 1 -36 -62q-32 -100 -58 -112q-36 -133 -94 -126q-41 5 -34 56 q2 18 5 26l456 1201q15 40 61 31l6 -1q20 14 64 35q66 30 88 30h293l20 -14h-303l-20 -21h294q17 0 38.5 -19t21.5 -36q0 -19 -11 -38q-13 -23 -30 -23h-303q-13 -8 -29 -25v-381l29 -35h243l21 -18h-166v-14q197 0 197 -64q0 -17 -12.5 -38t-28.5 -21h-254q-13 -8 -29 -25 v-102l5 -59q5 -54 -2 -93l-2 -8l-1 2v-121q0 -30 57 -30q23 0 31 2q4 18 14 20q13 -6 25 -27h195l30 -14l-10 -14h-215l186 -15q60 -5 60 -57zM883 205h-20v137h20v-137zM824 315q0 -14 -23 -14q0 12 13 31l6 -2l4 -6v-9zM824 244h-19v20h19v-20zM865 -20q-6 -7 -13 -9l-4 4 l-6 11q2 10 21 14l2 -10v-10zM826 -225q0 -27 -12 -29q-11 2 -11 12v35q0 8 11 12q12 -4 12 -30zM315 201l-4 -10q-4 2 -4 10q-1 9 3 11zM306 160l-4 -9q-4 2 -4 11q-1 8 3 10q4 -6 5 -12zM795 754v12q-55 0 -69 -12h69zM565 488v81q-2 2 -2 4v5q0 4 2 5l-3 335 q-1 57 -44 65q-27 5 -57 -82l-137 -389l-6 -48q13 20 41 104q-3 -55 6.5 -85t30.5 -29l104 6q13 16 39 43h3q2 -12 2 -34q-2 -8 -24 -12l14 -3q11 -2 21 1q11 13 10 33zM795 156q-3 4 -24 4h-21q-23 0 -24 -4q8 -4 28 -4h12q21 0 29 4z" />
<glyph unicode="&#xc7;" horiz-adv-x="750" d="M681 1059q0 -45 -57 -45q-53 0 -64 63q-14 80 -35 94q2 -6 2 -14q0 -10 -12 -14q-20 12 -35 55q-8 23 -82 23q-157 0 -157 -138v-829q0 -14 15 -46t26 -38h88l-41 -25l10 -10q39 -2 47 -2q104 0 143 53q10 13 35 103q15 53 60 53q49 0 49 -66q0 -100 -86 -180 q-65 -60 -138 -75q-64 -49 -64 -72q0 -19 10 -35h23q182 0 182 -127q0 -75 -68 -119q-59 -39 -137 -39t-157 29l10 31h186q15 0 49 39v43q0 76 -49 94q-22 8 -117 8q-2 4 -2 16q4 11 91 121l20 7q-13 -1 -26 -1q-132 0 -212 101q-74 94 -74 229v678q0 211 225 319h-127 q35 35 78 35q17 0 44 -12q35 -16 44 -18q139 -37 209 -91q94 -72 94 -198zM515 348q0 -26 -18 -55q-2 4 -2 10v16q0 37 20 41v-12zM95 272q-49 31 -49 197v590q0 106 49 182v-969z" />
<glyph unicode="&#xc8;" horiz-adv-x="657" d="M442 850l-6 -4l-4 4l4 4zM403 588q0 -31 -14 -31q-16 0 -16 25v12q0 22 16 22q14 0 14 -28zM590 90q0 -65 -41 -65h-211v-162q-6 -10 -29 -13v160l-14 15h-176q-39 26 -39 45v1230q12 17 77.5 47.5t88.5 30.5h293l20 -14h-303l-20 -21h294q17 0 38.5 -19t21.5 -36 q0 -19 -11 -38q-13 -23 -30 -23h-303q-13 -8 -29 -25v-381l29 -35h243l21 -18h-166v-14q197 0 197 -64q0 -17 -12.5 -38t-28.5 -21h-254q-13 -8 -29 -25v-381q0 -30 57 -30q23 0 31 2q4 18 14 20q13 -6 25 -27h195l30 -14l-10 -14h-215l186 -15q60 -5 60 -57zM393 500 q-4 -6 -10 -11q-6 5 -10 11v8q4 6 10 10q6 -4 10 -10v-8zM334 518q-4 -10 -19 -12v33h9q8 -11 10 -21zM393 369q-20 4 -20 12v70h20v-82zM393 205h-20v137h20v-137zM334 315q0 -14 -23 -14q0 12 13 31l6 -2l4 -6v-9zM334 244h-19v20h19v-20zM375 -20q-6 -7 -13 -9l-4 4 l-6 11q2 10 21 14l2 -10v-10zM336 -225q0 -27 -12 -29q-11 2 -11 12v35q0 8 11 12q12 -4 12 -30zM305 754v12q-55 0 -69 -12h69zM305 156q-3 4 -24 4h-21q-23 0 -24 -4q8 -4 28 -4h12q21 0 29 4zM389 1456h-67l-205 224h129z" />
<glyph unicode="&#xc9;" horiz-adv-x="657" d="M442 850l-6 -4l-4 4l4 4zM403 588q0 -31 -14 -31q-16 0 -16 25v12q0 22 16 22q14 0 14 -28zM590 90q0 -65 -41 -65h-211v-162q-6 -10 -29 -13v160l-14 15h-176q-39 26 -39 45v1230q12 17 77.5 47.5t88.5 30.5h293l20 -14h-303l-20 -21h294q17 0 38.5 -19t21.5 -36 q0 -19 -11 -38q-13 -23 -30 -23h-303q-13 -8 -29 -25v-381l29 -35h243l21 -18h-166v-14q197 0 197 -64q0 -17 -12.5 -38t-28.5 -21h-254q-13 -8 -29 -25v-381q0 -30 57 -30q23 0 31 2q4 18 14 20q13 -6 25 -27h195l30 -14l-10 -14h-215l186 -15q60 -5 60 -57zM393 500 q-4 -6 -10 -11q-6 5 -10 11v8q4 6 10 10q6 -4 10 -10v-8zM334 518q-4 -10 -19 -12v33h9q8 -11 10 -21zM393 369q-20 4 -20 12v70h20v-82zM393 205h-20v137h20v-137zM334 315q0 -14 -23 -14q0 12 13 31l6 -2l4 -6v-9zM334 244h-19v20h19v-20zM375 -20q-6 -7 -13 -9l-4 4 l-6 11q2 10 21 14l2 -10v-10zM336 -225q0 -27 -12 -29q-11 2 -11 12v35q0 8 11 12q12 -4 12 -30zM305 754v12q-55 0 -69 -12h69zM305 156q-3 4 -24 4h-21q-23 0 -24 -4q8 -4 28 -4h12q21 0 29 4zM583 1700l-205 -223h-67l143 223h129z" />
<glyph unicode="&#xca;" horiz-adv-x="657" d="M442 850l-6 -4l-4 4l4 4zM403 588q0 -31 -14 -31q-16 0 -16 25v12q0 22 16 22q14 0 14 -28zM590 90q0 -65 -41 -65h-211v-162q-6 -10 -29 -13v160l-14 15h-176q-39 26 -39 45v1230q12 17 77.5 47.5t88.5 30.5h293l20 -14h-303l-20 -21h294q17 0 38.5 -19t21.5 -36 q0 -19 -11 -38q-13 -23 -30 -23h-303q-13 -8 -29 -25v-381l29 -35h243l21 -18h-166v-14q197 0 197 -64q0 -17 -12.5 -38t-28.5 -21h-254q-13 -8 -29 -25v-381q0 -30 57 -30q23 0 31 2q4 18 14 20q13 -6 25 -27h195l30 -14l-10 -14h-215l186 -15q60 -5 60 -57zM393 500 q-4 -6 -10 -11q-6 5 -10 11v8q4 6 10 10q6 -4 10 -10v-8zM334 518q-4 -10 -19 -12v33h9q8 -11 10 -21zM393 369q-20 4 -20 12v70h20v-82zM393 205h-20v137h20v-137zM334 315q0 -14 -23 -14q0 12 13 31l6 -2l4 -6v-9zM334 244h-19v20h19v-20zM375 -20q-6 -7 -13 -9l-4 4 l-6 11q2 10 21 14l2 -10v-10zM336 -225q0 -27 -12 -29q-11 2 -11 12v35q0 8 11 12q12 -4 12 -30zM305 754v12q-55 0 -69 -12h69zM305 156q-3 4 -24 4h-21q-23 0 -24 -4q8 -4 28 -4h12q21 0 29 4zM518 1428q-8 0 -26 -2q-16 -4 -25 8l-90 127q-25 55 -47 55l-2 -2 q-38 -52 -86 -106q-71 -80 -96 -80q0 45 67 133q45 59 78 106q14 27 39 27q29 0 76 -80q37 -51 112 -158v-28z" />
<glyph unicode="&#xcb;" horiz-adv-x="657" d="M442 850l-6 -4l-4 4l4 4zM403 588q0 -31 -14 -31q-16 0 -16 25v12q0 22 16 22q14 0 14 -28zM590 90q0 -65 -41 -65h-211v-162q-6 -10 -29 -13v160l-14 15h-176q-39 26 -39 45v1230q12 17 77.5 47.5t88.5 30.5h293l20 -14h-303l-20 -21h294q17 0 38.5 -19t21.5 -36 q0 -19 -11 -38q-13 -23 -30 -23h-303q-13 -8 -29 -25v-381l29 -35h243l21 -18h-166v-14q197 0 197 -64q0 -17 -12.5 -38t-28.5 -21h-254q-13 -8 -29 -25v-381q0 -30 57 -30q23 0 31 2q4 18 14 20q13 -6 25 -27h195l30 -14l-10 -14h-215l186 -15q60 -5 60 -57zM393 500 q-4 -6 -10 -11q-6 5 -10 11v8q4 6 10 10q6 -4 10 -10v-8zM334 518q-4 -10 -19 -12v33h9q8 -11 10 -21zM393 369q-20 4 -20 12v70h20v-82zM393 205h-20v137h20v-137zM334 315q0 -14 -23 -14q0 12 13 31l6 -2l4 -6v-9zM334 244h-19v20h19v-20zM375 -20q-6 -7 -13 -9l-4 4 l-6 11q2 10 21 14l2 -10v-10zM336 -225q0 -27 -12 -29q-11 2 -11 12v35q0 8 11 12q12 -4 12 -30zM305 754v12q-55 0 -69 -12h69zM305 156q-3 4 -24 4h-21q-23 0 -24 -4q8 -4 28 -4h12q21 0 29 4zM535 1518q0 -30 -21 -51t-51 -21q-72 0 -72 72q0 71 72 71t72 -71zM293 1514 q0 -68 -72 -68q-69 0 -69 68q0 28 20.5 48.5t48.5 20.5q72 0 72 -69z" />
<glyph unicode="&#xcc;" horiz-adv-x="352" d="M418 1122q0 -12 -12 -18q-13 6 -13 18h25zM445 1016q0 -23 -33 -23q0 27 8 68l6 4q19 -8 19 -49zM338 1116q0 -33 -35 -33q-16 0 -16 27v8q0 25 37 25q14 0 14 -27zM398 1010q0 -13 -21 -17v33h10q10 -12 11 -16zM486 780q0 -6 -70 -67h-25v67q-29 -76 -88 -69l-16 2 q-10 4 -12 10v-549l-25 -18q-20 8 -20 39v1124q0 31 20 39l25 -21v-360q43 -4 47 -8q16 -8 16 -41t-14 -41q-4 -4 -45 -8v-68h41q0 78 76 78q-2 3 -18 29q-11 19 -11 28q0 23 26 23q25 0 52 -41l-19 -21q19 -12 19 -35v-4q8 -8 28 -10l11 -6q2 -8 2 -16q0 -27 -31 -35h8 q23 0 23 -21zM211 57q0 -13 -23 -26t-36 -13q-52 0 -60 60q-2 15 -2 233q0 96 -3 287t-3 287q0 85 2 159q3 111 6 158q-1 13 -1 33q0 19 1 45q9 57 60 57q14 0 36.5 -13t22.5 -26v-1241zM45 659q0 -8 -10 -16q-14 6 -14 33q24 0 24 -17zM-123 807q-28 0 -28 18q0 17 28 17 v-35zM74 596l-10 -4l-11 4q3 4 11 4t10 -4zM-73 741l-19 -18q-6 2 -10 6v23q0 6 10 10zM-14 305q0 -14 -25 -14q-24 0 -24 14v6q14 11 28 11q11 0 21 -11v-6zM-100 360h-23v21h7q16 0 16 -21zM-14 262q-6 -10 -29 -12v22h10q15 0 19 -10zM426 819v10h-10zM199 1439h-67 l-205 224h129z" />
<glyph unicode="&#xcd;" horiz-adv-x="352" d="M418 1122q0 -12 -12 -18q-13 6 -13 18h25zM445 1016q0 -23 -33 -23q0 27 8 68l6 4q19 -8 19 -49zM338 1116q0 -33 -35 -33q-16 0 -16 27v8q0 25 37 25q14 0 14 -27zM398 1010q0 -13 -21 -17v33h10q10 -12 11 -16zM486 780q0 -6 -70 -67h-25v67q-29 -76 -88 -69l-16 2 q-10 4 -12 10v-549l-25 -18q-20 8 -20 39v1124q0 31 20 39l25 -21v-360q43 -4 47 -8q16 -8 16 -41t-14 -41q-4 -4 -45 -8v-68h41q0 78 76 78q-2 3 -18 29q-11 19 -11 28q0 23 26 23q25 0 52 -41l-19 -21q19 -12 19 -35v-4q8 -8 28 -10l11 -6q2 -8 2 -16q0 -27 -31 -35h8 q23 0 23 -21zM211 57q0 -13 -23 -26t-36 -13q-52 0 -60 60q-2 15 -2 233q0 96 -3 287t-3 287q0 85 2 159q3 111 6 158q-1 13 -1 33q0 19 1 45q9 57 60 57q14 0 36.5 -13t22.5 -26v-1241zM45 659q0 -8 -10 -16q-14 6 -14 33q24 0 24 -17zM-123 807q-28 0 -28 18q0 17 28 17 v-35zM74 596l-10 -4l-11 4q3 4 11 4t10 -4zM-73 741l-19 -18q-6 2 -10 6v23q0 6 10 10zM-14 305q0 -14 -25 -14q-24 0 -24 14v6q14 11 28 11q11 0 21 -11v-6zM-100 360h-23v21h7q16 0 16 -21zM-14 262q-6 -10 -29 -12v22h10q15 0 19 -10zM426 819v10h-10zM418 1641 l-205 -223h-67l143 223h129z" />
<glyph unicode="&#xce;" horiz-adv-x="352" d="M418 1122q0 -12 -12 -18q-13 6 -13 18h25zM445 1016q0 -23 -33 -23q0 27 8 68l6 4q19 -8 19 -49zM338 1116q0 -33 -35 -33q-16 0 -16 27v8q0 25 37 25q14 0 14 -27zM398 1010q0 -13 -21 -17v33h10q10 -12 11 -16zM486 780q0 -6 -70 -67h-25v67q-29 -76 -88 -69l-16 2 q-10 4 -12 10v-549l-25 -18q-20 8 -20 39v1124q0 31 20 39l25 -21v-360q43 -4 47 -8q16 -8 16 -41t-14 -41q-4 -4 -45 -8v-68h41q0 78 76 78q-2 3 -18 29q-11 19 -11 28q0 23 26 23q25 0 52 -41l-19 -21q19 -12 19 -35v-4q8 -8 28 -10l11 -6q2 -8 2 -16q0 -27 -31 -35h8 q23 0 23 -21zM211 57q0 -13 -23 -26t-36 -13q-52 0 -60 60q-2 15 -2 233q0 96 -3 287t-3 287q0 85 2 159q3 111 6 158q-1 13 -1 33q0 19 1 45q9 57 60 57q14 0 36.5 -13t22.5 -26v-1241zM45 659q0 -8 -10 -16q-14 6 -14 33q24 0 24 -17zM-123 807q-28 0 -28 18q0 17 28 17 v-35zM74 596l-10 -4l-11 4q3 4 11 4t10 -4zM-73 741l-19 -18q-6 2 -10 6v23q0 6 10 10zM-14 305q0 -14 -25 -14q-24 0 -24 14v6q14 11 28 11q11 0 21 -11v-6zM-100 360h-23v21h7q16 0 16 -21zM-14 262q-6 -10 -29 -12v22h10q15 0 19 -10zM426 819v10h-10zM342 1377 q-8 0 -26 -2q-16 -4 -25 8l-90 127q-25 55 -47 55l-2 -2q-38 -52 -86 -106q-71 -80 -96 -80q0 45 67 133q45 59 78 106q14 27 39 27q29 0 76 -80q37 -51 112 -158v-28z" />
<glyph unicode="&#xcf;" horiz-adv-x="352" d="M418 1122q0 -12 -12 -18q-13 6 -13 18h25zM445 1016q0 -23 -33 -23q0 27 8 68l6 4q19 -8 19 -49zM338 1116q0 -33 -35 -33q-16 0 -16 27v8q0 25 37 25q14 0 14 -27zM398 1010q0 -13 -21 -17v33h10q10 -12 11 -16zM486 780q0 -6 -70 -67h-25v67q-29 -76 -88 -69l-16 2 q-10 4 -12 10v-549l-25 -18q-20 8 -20 39v1124q0 31 20 39l25 -21v-360q43 -4 47 -8q16 -8 16 -41t-14 -41q-4 -4 -45 -8v-68h41q0 78 76 78q-2 3 -18 29q-11 19 -11 28q0 23 26 23q25 0 52 -41l-19 -21q19 -12 19 -35v-4q8 -8 28 -10l11 -6q2 -8 2 -16q0 -27 -31 -35h8 q23 0 23 -21zM211 57q0 -13 -23 -26t-36 -13q-52 0 -60 60q-2 15 -2 233q0 96 -3 287t-3 287q0 85 2 159q3 111 6 158q-1 13 -1 33q0 19 1 45q9 57 60 57q14 0 36.5 -13t22.5 -26v-1241zM45 659q0 -8 -10 -16q-14 6 -14 33q24 0 24 -17zM-123 807q-28 0 -28 18q0 17 28 17 v-35zM74 596l-10 -4l-11 4q3 4 11 4t10 -4zM-73 741l-19 -18q-6 2 -10 6v23q0 6 10 10zM-14 305q0 -14 -25 -14q-24 0 -24 14v6q14 11 28 11q11 0 21 -11v-6zM-100 360h-23v21h7q16 0 16 -21zM-14 262q-6 -10 -29 -12v22h10q15 0 19 -10zM426 819v10h-10zM356 1554 q0 -30 -21 -51t-51 -21q-72 0 -72 72q0 71 72 71t72 -71zM114 1550q0 -68 -72 -68q-69 0 -69 68q0 28 20.5 48.5t48.5 20.5q72 0 72 -69z" />
<glyph unicode="&#xd0;" horiz-adv-x="825" d="M305 1466q0 -34 -20 -57h-11q-10 10 -28 31q4 6 10 18q-4 6 -10 21q4 6 10 18v4q0 20 -10 59.5t-10 59.5q0 35 30 35h8q21 -10 21 -68q0 -7 -5 -21t-5 -20q0 -14 10 -40t10 -40zM825 1208q0 -24 -45 -36.5t-45 -34.5q0 -61 5 -181.5t5 -181.5v-291q0 -123 -45 -190v852 q-24 -6 -24 -41q0 -19 5 -57.5t5 -57.5v-602q0 -131 -68 -237q-78 -121 -202 -121h-258q-17 0 -43 39v800q-35 0 -111 -44t-113 -44q0 50 60 76q80 35 90 45q25 25 74 57v345q0 40 151 47q-10 18 -10 26q0 15 20 15t20 -20q0 -5 -1 -11q55 6 106 6q117 0 148 -39h-68 q35 -22 166 -153h4q27 0 81.5 24.5t80.5 24.5l6 -2l4 -7q2 -2 2 -6zM541 1149v6q-48 52 -84 64q-24 8 -109 8h-37v-33q0 -147 29 -147q24 0 105 41.5t96 60.5zM250 1063v55q0 64 -4 66q-4 -4 -4 -29v-127q0 -30 4 -31v0q4 19 4 66zM559 272v824h-10q-105 -43 -215 -107 l10 -49l10 18l11 -18q0 -30 8 -90t8 -90q-37 0 -49 12q-6 6 -27 49v-626q0 -11 14 -25t25 -14h137q29 0 55 44q23 40 23 72zM250 332v465q0 151 -6 161q-2 -24 -2 -139v-520q0 -129 2 -133q6 20 6 166zM264 154v4q0 8 -8 8t-8 -8v-4q0 -9 8 -9h2q6 0 6 9zM422 684 q-39 21 -39 49q4 6 10 10h4q25 0 25 -49v-10zM453 666l-11 -11q-12 4 -12 23q12 0 23 -12z" />
<glyph unicode="&#xd1;" horiz-adv-x="823" d="M751 1321l-10 -1155q-12 12 -33 39v-137q0 -39 -63 -39q-55 0 -80 67l-244 658q-19 53 -63 53v-621l-15 -20l-16 20v607l-18 -11v-714q0 -39 -64 -39q-59 0 -59 39v1235q0 12 24 26q21 12 35 12q64 0 78 -59q4 49 29 49l6 -4q22 -57 141 -387l-4 -2q-4 0 -6 2 q-24 40 -52 121q-30 88 -47 123h-18v-29l197 -549q21 -59 51 -59q16 0 38.5 9t22.5 22v725q0 11 26 24.5t38 13.5t37.5 -14t25.5 -24v-1010h19v1028l14 10zM563 1498q-27 -43 -31 -48q-14 -14 -43 -14q-30 0 -103 47t-103 47q-13 0 -39.5 -9t-38.5 -9q0 26 24.5 53t49.5 27 q31 0 105 -48t105 -48q13 0 37.5 10t36.5 10v-18z" />
<glyph unicode="&#xd2;" horiz-adv-x="743" d="M778 1534q0 -20 -16.5 -69.5t-16.5 -75.5q0 -54 -51 -54q0 56 17 105q4 35 18 104q2 6 10 10h15q24 0 24 -20zM778 1300h-18v19h18v-19zM711 1290q-5 -6 -11 -10h-10q-6 4 -10 10l10 10h10zM700 1237q0 -23 -30 -23q0 27 20 27h10v-4zM760 977l-11 -10h-10l-10 10l10 10 h10zM711 965q-15 0 -21 12q6 12 21 12v-24zM682 1178q0 -9 -10 -20t-11 -15v-4q0 -11 5.5 -32t5.5 -32v-792q0 -107 -97 -189q-92 -78 -200 -78q-113 0 -202 91t-89 204v733q0 177 235 299h-137q47 35 88 35q25 -6 111 -28q151 -40 252 -158q12 -14 49 -14zM45 301 q-39 68 -39 129v653q0 62 39 129v-911zM504 1190v4q0 8 -9 8q-8 0 -8 -8v-4q0 -8 8 -8h3q6 0 6 8zM545 1055v37q0 63 -39 90l-2 -4q20 -62 20 -134h10zM545 233v773l-21 -9v-88l10 -10v-10l-14 -10v-480q0 -39 -45 -106q0 108 -5 322.5t-5 322.5q-13 -10 -68 -39 q-12 -7 -26 -28q-14 -24 -23 -31q-10 4 -10 28q61 78 127 138v206q-13 11 -56 11h-38q-61 0 -107 -28q-53 -34 -53 -91v-10q18 2 31 10q2 10 8 29h4q-8 0 22 -9q2 -10 4 -30q-4 -7 -10 -11q-10 2 -20 11q2 -7 2 -13q0 -39 -41 -39v-798q0 -14 14 -42t25 -32h88l-29 -25 l10 -10l47 -2l62 2q35 1 76 33t41 65zM418 1133h-13q0 14 13 20v-20zM440 1059l-4 -4l-4 4q0 6 4 6zM457 1016h-11v10h11v-10zM256 928q0 -31 -35 -31v31h35zM332 813q0 -35 -35 -35q0 35 35 35zM293 727l-4 -4l-4 4l4 6zM250 741l-8 11h8v-11zM280 614q-4 -8 -10 -8 q-20 0 -20 19q0 20 20 20q10 0 10 -20v-11zM280 586q-6 -13 -20 -13v13h20zM280 524q-30 0 -30 17q0 18 30 18v-35zM280 477l-10 -8q-12 4 -12 20q14 0 22 -12zM400 1397h-67l-205 224h129z" />
<glyph unicode="&#xd3;" horiz-adv-x="743" d="M778 1534q0 -20 -16.5 -69.5t-16.5 -75.5q0 -54 -51 -54q0 56 17 105q4 35 18 104q2 6 10 10h15q24 0 24 -20zM778 1300h-18v19h18v-19zM711 1290q-5 -6 -11 -10h-10q-6 4 -10 10l10 10h10zM700 1237q0 -23 -30 -23q0 27 20 27h10v-4zM760 977l-11 -10h-10l-10 10l10 10 h10zM711 965q-15 0 -21 12q6 12 21 12v-24zM682 1178q0 -9 -10 -20t-11 -15v-4q0 -11 5.5 -32t5.5 -32v-792q0 -107 -97 -189q-92 -78 -200 -78q-113 0 -202 91t-89 204v733q0 177 235 299h-137q47 35 88 35q25 -6 111 -28q151 -40 252 -158q12 -14 49 -14zM45 301 q-39 68 -39 129v653q0 62 39 129v-911zM504 1190v4q0 8 -9 8q-8 0 -8 -8v-4q0 -8 8 -8h3q6 0 6 8zM545 1055v37q0 63 -39 90l-2 -4q20 -62 20 -134h10zM545 233v773l-21 -9v-88l10 -10v-10l-14 -10v-480q0 -39 -45 -106q0 108 -5 322.5t-5 322.5q-13 -10 -68 -39 q-12 -7 -26 -28q-14 -24 -23 -31q-10 4 -10 28q61 78 127 138v206q-13 11 -56 11h-38q-61 0 -107 -28q-53 -34 -53 -91v-10q18 2 31 10q2 10 8 29h4q-8 0 22 -9q2 -10 4 -30q-4 -7 -10 -11q-10 2 -20 11q2 -7 2 -13q0 -39 -41 -39v-798q0 -14 14 -42t25 -32h88l-29 -25 l10 -10l47 -2l62 2q35 1 76 33t41 65zM418 1133h-13q0 14 13 20v-20zM440 1059l-4 -4l-4 4q0 6 4 6zM457 1016h-11v10h11v-10zM256 928q0 -31 -35 -31v31h35zM332 813q0 -35 -35 -35q0 35 35 35zM293 727l-4 -4l-4 4l4 6zM250 741l-8 11h8v-11zM280 614q-4 -8 -10 -8 q-20 0 -20 19q0 20 20 20q10 0 10 -20v-11zM280 586q-6 -13 -20 -13v13h20zM280 524q-30 0 -30 17q0 18 30 18v-35zM280 477l-10 -8q-12 4 -12 20q14 0 22 -12zM614 1671l-205 -223h-67l143 223h129z" />
<glyph unicode="&#xd4;" horiz-adv-x="743" d="M778 1534q0 -20 -16.5 -69.5t-16.5 -75.5q0 -54 -51 -54q0 56 17 105q4 35 18 104q2 6 10 10h15q24 0 24 -20zM778 1300h-18v19h18v-19zM711 1290q-5 -6 -11 -10h-10q-6 4 -10 10l10 10h10zM700 1237q0 -23 -30 -23q0 27 20 27h10v-4zM760 977l-11 -10h-10l-10 10l10 10 h10zM711 965q-15 0 -21 12q6 12 21 12v-24zM682 1178q0 -9 -10 -20t-11 -15v-4q0 -11 5.5 -32t5.5 -32v-792q0 -107 -97 -189q-92 -78 -200 -78q-113 0 -202 91t-89 204v733q0 177 235 299h-137q47 35 88 35q25 -6 111 -28q151 -40 252 -158q12 -14 49 -14zM45 301 q-39 68 -39 129v653q0 62 39 129v-911zM504 1190v4q0 8 -9 8q-8 0 -8 -8v-4q0 -8 8 -8h3q6 0 6 8zM545 1055v37q0 63 -39 90l-2 -4q20 -62 20 -134h10zM545 233v773l-21 -9v-88l10 -10v-10l-14 -10v-480q0 -39 -45 -106q0 108 -5 322.5t-5 322.5q-13 -10 -68 -39 q-12 -7 -26 -28q-14 -24 -23 -31q-10 4 -10 28q61 78 127 138v206q-13 11 -56 11h-38q-61 0 -107 -28q-53 -34 -53 -91v-10q18 2 31 10q2 10 8 29h4q-8 0 22 -9q2 -10 4 -30q-4 -7 -10 -11q-10 2 -20 11q2 -7 2 -13q0 -39 -41 -39v-798q0 -14 14 -42t25 -32h88l-29 -25 l10 -10l47 -2l62 2q35 1 76 33t41 65zM418 1133h-13q0 14 13 20v-20zM440 1059l-4 -4l-4 4q0 6 4 6zM457 1016h-11v10h11v-10zM256 928q0 -31 -35 -31v31h35zM332 813q0 -35 -35 -35q0 35 35 35zM293 727l-4 -4l-4 4l4 6zM250 741l-8 11h8v-11zM280 614q-4 -8 -10 -8 q-20 0 -20 19q0 20 20 20q10 0 10 -20v-11zM280 586q-6 -13 -20 -13v13h20zM280 524q-30 0 -30 17q0 18 30 18v-35zM280 477l-10 -8q-12 4 -12 20q14 0 22 -12zM562 1394q-8 0 -26 -2q-16 -4 -25 8l-90 127q-25 55 -47 55l-2 -2q-38 -52 -86 -106q-71 -80 -96 -80 q0 45 67 133q45 59 78 106q14 27 39 27q29 0 76 -80q37 -51 112 -158v-28z" />
<glyph unicode="&#xd5;" horiz-adv-x="743" d="M778 1534q0 -20 -16.5 -69.5t-16.5 -75.5q0 -54 -51 -54q0 56 17 105q4 35 18 104q2 6 10 10h15q24 0 24 -20zM778 1300h-18v19h18v-19zM711 1290q-5 -6 -11 -10h-10q-6 4 -10 10l10 10h10zM700 1237q0 -23 -30 -23q0 27 20 27h10v-4zM760 977l-11 -10h-10l-10 10l10 10 h10zM711 965q-15 0 -21 12q6 12 21 12v-24zM682 1178q0 -9 -10 -20t-11 -15v-4q0 -11 5.5 -32t5.5 -32v-792q0 -107 -97 -189q-92 -78 -200 -78q-113 0 -202 91t-89 204v733q0 177 235 299h-137q47 35 88 35q25 -6 111 -28q151 -40 252 -158q12 -14 49 -14zM45 301 q-39 68 -39 129v653q0 62 39 129v-911zM504 1190v4q0 8 -9 8q-8 0 -8 -8v-4q0 -8 8 -8h3q6 0 6 8zM545 1055v37q0 63 -39 90l-2 -4q20 -62 20 -134h10zM545 233v773l-21 -9v-88l10 -10v-10l-14 -10v-480q0 -39 -45 -106q0 108 -5 322.5t-5 322.5q-13 -10 -68 -39 q-12 -7 -26 -28q-14 -24 -23 -31q-10 4 -10 28q61 78 127 138v206q-13 11 -56 11h-38q-61 0 -107 -28q-53 -34 -53 -91v-10q18 2 31 10q2 10 8 29h4q-8 0 22 -9q2 -10 4 -30q-4 -7 -10 -11q-10 2 -20 11q2 -7 2 -13q0 -39 -41 -39v-798q0 -14 14 -42t25 -32h88l-29 -25 l10 -10l47 -2l62 2q35 1 76 33t41 65zM418 1133h-13q0 14 13 20v-20zM440 1059l-4 -4l-4 4q0 6 4 6zM457 1016h-11v10h11v-10zM256 928q0 -31 -35 -31v31h35zM332 813q0 -35 -35 -35q0 35 35 35zM293 727l-4 -4l-4 4l4 6zM250 741l-8 11h8v-11zM280 614q-4 -8 -10 -8 q-20 0 -20 19q0 20 20 20q10 0 10 -20v-11zM280 586q-6 -13 -20 -13v13h20zM280 524q-30 0 -30 17q0 18 30 18v-35zM280 477l-10 -8q-12 4 -12 20q14 0 22 -12z" />
<glyph unicode="&#xd6;" horiz-adv-x="743" d="M778 1534q0 -20 -16.5 -69.5t-16.5 -75.5q0 -54 -51 -54q0 56 17 105q4 35 18 104q2 6 10 10h15q24 0 24 -20zM778 1300h-18v19h18v-19zM711 1290q-5 -6 -11 -10h-10q-6 4 -10 10l10 10h10zM700 1237q0 -23 -30 -23q0 27 20 27h10v-4zM760 977l-11 -10h-10l-10 10l10 10 h10zM711 965q-15 0 -21 12q6 12 21 12v-24zM682 1178q0 -9 -10 -20t-11 -15v-4q0 -11 5.5 -32t5.5 -32v-792q0 -107 -97 -189q-92 -78 -200 -78q-113 0 -202 91t-89 204v733q0 177 235 299h-137q47 35 88 35q25 -6 111 -28q151 -40 252 -158q12 -14 49 -14zM45 301 q-39 68 -39 129v653q0 62 39 129v-911zM504 1190v4q0 8 -9 8q-8 0 -8 -8v-4q0 -8 8 -8h3q6 0 6 8zM545 1055v37q0 63 -39 90l-2 -4q20 -62 20 -134h10zM545 233v773l-21 -9v-88l10 -10v-10l-14 -10v-480q0 -39 -45 -106q0 108 -5 322.5t-5 322.5q-13 -10 -68 -39 q-12 -7 -26 -28q-14 -24 -23 -31q-10 4 -10 28q61 78 127 138v206q-13 11 -56 11h-38q-61 0 -107 -28q-53 -34 -53 -91v-10q18 2 31 10q2 10 8 29h4q-8 0 22 -9q2 -10 4 -30q-4 -7 -10 -11q-10 2 -20 11q2 -7 2 -13q0 -39 -41 -39v-798q0 -14 14 -42t25 -32h88l-29 -25 l10 -10l47 -2l62 2q35 1 76 33t41 65zM418 1133h-13q0 14 13 20v-20zM440 1059l-4 -4l-4 4q0 6 4 6zM457 1016h-11v10h11v-10zM256 928q0 -31 -35 -31v31h35zM332 813q0 -35 -35 -35q0 35 35 35zM293 727l-4 -4l-4 4l4 6zM250 741l-8 11h8v-11zM280 614q-4 -8 -10 -8 q-20 0 -20 19q0 20 20 20q10 0 10 -20v-11zM280 586q-6 -13 -20 -13v13h20zM280 524q-30 0 -30 17q0 18 30 18v-35zM280 477l-10 -8q-12 4 -12 20q14 0 22 -12zM564 1524q0 -30 -21 -51t-51 -21q-72 0 -72 72q0 71 72 71t72 -71zM322 1520q0 -68 -72 -68q-69 0 -69 68 q0 28 20.5 48.5t48.5 20.5q72 0 72 -69z" />
<glyph unicode="&#xd7;" horiz-adv-x="774" d="M716 323q6 -45 -43 -45q-8 0 -19 1l-236 236q-15 3 -30 3t-31 -3l-228 -228q-22 -22 -51 7q-11 11 -10 34q0 23 12 34l222 222l-7 49l-159 -159l148 170l-9 11q-4 5 -12 5q-21 0 -62 -41q-11 11 -11 23q0 10 8 21q4 3 38 35l-171 170q-20 21 9 50q12 12 34 11t34 -13 l152 -152l17 18q-58 66 -179 194q22 -22 98 -90q61 -54 97 -94l23 29q19 19 46 15l2 -2q-33 -34 -38 -73l2 -4q13 -10 36 -7l229 229l-212 -232l5 -45l215 215q11 11 34 12q22 1 34 -11q29 -29 7 -50l-232 -232l162 -163l-162 142l-5 -30l230 -229q9 -10 13 -33zM257 629h-8 v7h7zM348 720l-2 27l-13 -12zM389 691l-6 5l-7 -4l5 -5z" />
<glyph unicode="&#xd8;" horiz-adv-x="850" d="M858 1534q0 -20 -16.5 -69.5t-16.5 -75.5q0 -54 -51 -54q0 56 17 105q4 35 18 104q2 6 10 10h15q24 0 24 -20zM858 1300h-18v19h18v-19zM791 1290q-5 -6 -11 -10h-10q-6 4 -10 10l10 10h10zM780 1237q0 -23 -30 -23q0 27 20 27h10v-4zM840 977l-11 -10h-10l-10 10l10 10 h10zM791 965q-15 0 -21 12q6 12 21 12v-24zM762 1178q0 -9 -9.5 -20t-11.5 -15v-4q0 -11 5.5 -32t5.5 -32v-792q0 -107 -96 -189q-93 -78 -201 -78q-57 0 -107 23h-7q-18 0 -24 17q-33 20 -63 52q-90 91 -90 203v733q0 177 235 299h-137q47 35 88 35q25 -6 111 -28 q45 -12 85 -30q11 19 29 19q24 0 24 -30v-11l-1 -6q64 -40 115 -100q12 -14 49 -14zM125 301q-39 68 -39 129v653q0 62 39 129v-911zM584 1190v4q0 4 -3 6l-3 -18q6 0 6 8zM625 1055v37q0 63 -39 90l-2 -4q20 -62 20 -134h10zM521 1221q-13 2 -32 2h-38q-61 0 -106 -28 q-54 -34 -54 -91v-10q18 2 31 10q2 10 8 29h4q-8 0 22 -9q2 -10 4 -30q-4 -7 -10 -11q-10 2 -20 11q2 -7 2 -13q0 -39 -41 -39v-798q0 -13 13 -40t24 -33l131 711q-9 -16 -31 -42q-10 4 -10 28q24 31 49 59zM625 233v773l-21 -9v-88l10 -10v-10l-14 -10v-480q0 -39 -45 -106 q0 108 -5 322.5t-5 322.5q-4 -3 -13 -8l-138 -760h24l-28 -24v-2l9 -9l47 -2l62 2q35 1 76 33t41 65zM498 1133h-13q0 14 13 20v-20zM336 928q0 -31 -35 -31v31h35zM412 813q0 -35 -35 -35q0 35 35 35zM373 727l-4 -4l-4 4l4 6zM330 741l-8 11h8v-11zM360 614q-4 -8 -10 -8 q-20 0 -20 19q0 20 20 20q10 0 10 -20v-11zM360 586q-6 -13 -20 -13v13h20zM360 524q-30 0 -30 17q0 18 30 18v-35zM360 477l-10 -8q-12 4 -12 20q14 0 22 -12z" />
<glyph unicode="&#xd9;" horiz-adv-x="765" d="M357 926q0 -22 -2 -25q-1 -14 -12 -18q-10 4 -10 20q0 23 24 23zM716 360q0 -119 -63 -216q-69 -105 -181 -124q-26 -2 -90 -10q-12 -2 -39.5 -15t-42.5 -13q-59 0 -64 34h138q-105 52 -148 103q-28 -10 -28 -72q0 -27 -17 -27q-24 0 -24 60q0 6 5 17.5t5 17.5 q0 9 -5 26.5t-5 26.5q0 8 5 24.5t5 24.5l-2 10l-8 9q-16 -26 -25 -50q-29 -77 -63 -77q-29 0 -29 30q4 6 10 19q-10 47 -10 39q0 75 4 153q5 103 6 152l10 686l15 18v176l24 31v4q0 8 -10 12.5t-10 16.5q0 27 14 27q13 0 24 -18t11 -32q0 -20 -10 -30v-166q10 -10 10 -39 v-21q-10 -26 -10 -20q0 -10 6 -10q-8 0 18 4v164q0 10 26 24t38 14q30 0 59 -38q17 -99 39 -295q4 2 10 2q49 0 49 -41q-53 -54 -57 -60q-18 0 -31 11v-314q78 -73 78 -88q0 -51 -78 -51v-236q0 -96 168 -96q43 0 62 10v1041l24 18q21 -8 21 -39v-848q0 -100 -31 -161h6 q24 0 47 43q21 38 21 65v1039q0 10 25.5 24t37.5 14q23 0 41.5 -18t18.5 -41v-924zM290 623l-4 -5l-4 5q0 6 4 6zM132 90h-27q0 12 13 29q12 -4 14 -29zM142 991l-4 10q-4 -2 -4 -10t4 -10zM142 936l-4 6q-4 -1 -4 -6l4 -4zM142 864v8q0 15 -4 21l-2 -4l-2 -17v-10 q0 -16 4 -18q4 6 4 20zM142 797v6q0 16 -4 22q-4 -2 -4 -18v-16q0 -14 4 -15v0q4 10 4 21zM312 500q0 10 -8 10t-8 -8v-4q0 -6 8 -6t8 8zM142 618l-4 11q-4 -2 -4 -11q0 -8 4 -10zM142 512v16q0 23 -4 31q-4 -4 -4 -29v-20q0 -28 4 -29q4 11 4 31zM142 379v10q0 17 -4 25 q-4 -2 -4 -21v-18q0 -23 4 -21q4 6 4 25zM142 299l-4 6q-4 -1 -4 -6l4 -4zM155 285q0 6 -7 10q-8 0 -8 -8v-4q0 -7 8 -7q7 3 7 9zM155 246q0 6 -7 10q-8 0 -8 -8v-4q0 -8 8 -8q7 4 7 10zM472 1436h-67l-205 224h129z" />
<glyph unicode="&#xda;" horiz-adv-x="765" d="M357 926q0 -22 -2 -25q-1 -14 -12 -18q-10 4 -10 20q0 23 24 23zM716 360q0 -119 -63 -216q-69 -105 -181 -124q-26 -2 -90 -10q-12 -2 -39.5 -15t-42.5 -13q-59 0 -64 34h138q-105 52 -148 103q-28 -10 -28 -72q0 -27 -17 -27q-24 0 -24 60q0 6 5 17.5t5 17.5 q0 9 -5 26.5t-5 26.5q0 8 5 24.5t5 24.5l-2 10l-8 9q-16 -26 -25 -50q-29 -77 -63 -77q-29 0 -29 30q4 6 10 19q-10 47 -10 39q0 75 4 153q5 103 6 152l10 686l15 18v176l24 31v4q0 8 -10 12.5t-10 16.5q0 27 14 27q13 0 24 -18t11 -32q0 -20 -10 -30v-166q10 -10 10 -39 v-21q-10 -26 -10 -20q0 -10 6 -10q-8 0 18 4v164q0 10 26 24t38 14q30 0 59 -38q17 -99 39 -295q4 2 10 2q49 0 49 -41q-53 -54 -57 -60q-18 0 -31 11v-314q78 -73 78 -88q0 -51 -78 -51v-236q0 -96 168 -96q43 0 62 10v1041l24 18q21 -8 21 -39v-848q0 -100 -31 -161h6 q24 0 47 43q21 38 21 65v1039q0 10 25.5 24t37.5 14q23 0 41.5 -18t18.5 -41v-924zM290 623l-4 -5l-4 5q0 6 4 6zM132 90h-27q0 12 13 29q12 -4 14 -29zM142 991l-4 10q-4 -2 -4 -10t4 -10zM142 936l-4 6q-4 -1 -4 -6l4 -4zM142 864v8q0 15 -4 21l-2 -4l-2 -17v-10 q0 -16 4 -18q4 6 4 20zM142 797v6q0 16 -4 22q-4 -2 -4 -18v-16q0 -14 4 -15v0q4 10 4 21zM312 500q0 10 -8 10t-8 -8v-4q0 -6 8 -6t8 8zM142 618l-4 11q-4 -2 -4 -11q0 -8 4 -10zM142 512v16q0 23 -4 31q-4 -4 -4 -29v-20q0 -28 4 -29q4 11 4 31zM142 379v10q0 17 -4 25 q-4 -2 -4 -21v-18q0 -23 4 -21q4 6 4 25zM142 299l-4 6q-4 -1 -4 -6l4 -4zM155 285q0 6 -7 10q-8 0 -8 -8v-4q0 -7 8 -7q7 3 7 9zM155 246q0 6 -7 10q-8 0 -8 -8v-4q0 -8 8 -8q7 4 7 10zM639 1638l-205 -223h-67l143 223h129z" />
<glyph unicode="&#xdb;" horiz-adv-x="765" d="M357 926q0 -22 -2 -25q-1 -14 -12 -18q-10 4 -10 20q0 23 24 23zM716 360q0 -119 -63 -216q-69 -105 -181 -124q-26 -2 -90 -10q-12 -2 -39.5 -15t-42.5 -13q-59 0 -64 34h138q-105 52 -148 103q-28 -10 -28 -72q0 -27 -17 -27q-24 0 -24 60q0 6 5 17.5t5 17.5 q0 9 -5 26.5t-5 26.5q0 8 5 24.5t5 24.5l-2 10l-8 9q-16 -26 -25 -50q-29 -77 -63 -77q-29 0 -29 30q4 6 10 19q-10 47 -10 39q0 75 4 153q5 103 6 152l10 686l15 18v176l24 31v4q0 8 -10 12.5t-10 16.5q0 27 14 27q13 0 24 -18t11 -32q0 -20 -10 -30v-166q10 -10 10 -39 v-21q-10 -26 -10 -20q0 -10 6 -10q-8 0 18 4v164q0 10 26 24t38 14q30 0 59 -38q17 -99 39 -295q4 2 10 2q49 0 49 -41q-53 -54 -57 -60q-18 0 -31 11v-314q78 -73 78 -88q0 -51 -78 -51v-236q0 -96 168 -96q43 0 62 10v1041l24 18q21 -8 21 -39v-848q0 -100 -31 -161h6 q24 0 47 43q21 38 21 65v1039q0 10 25.5 24t37.5 14q23 0 41.5 -18t18.5 -41v-924zM290 623l-4 -5l-4 5q0 6 4 6zM132 90h-27q0 12 13 29q12 -4 14 -29zM142 991l-4 10q-4 -2 -4 -10t4 -10zM142 936l-4 6q-4 -1 -4 -6l4 -4zM142 864v8q0 15 -4 21l-2 -4l-2 -17v-10 q0 -16 4 -18q4 6 4 20zM142 797v6q0 16 -4 22q-4 -2 -4 -18v-16q0 -14 4 -15v0q4 10 4 21zM312 500q0 10 -8 10t-8 -8v-4q0 -6 8 -6t8 8zM142 618l-4 11q-4 -2 -4 -11q0 -8 4 -10zM142 512v16q0 23 -4 31q-4 -4 -4 -29v-20q0 -28 4 -29q4 11 4 31zM142 379v10q0 17 -4 25 q-4 -2 -4 -21v-18q0 -23 4 -21q4 6 4 25zM142 299l-4 6q-4 -1 -4 -6l4 -4zM155 285q0 6 -7 10q-8 0 -8 -8v-4q0 -7 8 -7q7 3 7 9zM155 246q0 6 -7 10q-8 0 -8 -8v-4q0 -8 8 -8q7 4 7 10zM622 1421q-8 0 -26 -2q-16 -4 -25 8l-90 127q-25 55 -47 55l-2 -2q-38 -52 -86 -106 q-71 -80 -96 -80q0 45 67 133q45 59 78 106q14 27 39 27q29 0 76 -80q37 -51 112 -158v-28z" />
<glyph unicode="&#xdc;" horiz-adv-x="810" d="M357 926q0 -22 -2 -25q-1 -14 -12 -18q-10 4 -10 20q0 23 24 23zM716 360q0 -119 -63 -216q-69 -105 -181 -124q-26 -2 -90 -10q-12 -2 -39.5 -15t-42.5 -13q-59 0 -64 34h138q-105 52 -148 103q-28 -10 -28 -72q0 -27 -17 -27q-24 0 -24 60q0 6 5 17.5t5 17.5 q0 9 -5 26.5t-5 26.5q0 8 5 24.5t5 24.5l-2 10l-8 9q-16 -26 -25 -50q-29 -77 -63 -77q-29 0 -29 30q4 6 10 19q-10 47 -10 39q0 75 4 153q5 103 6 152l10 686l15 18v176l24 31v4q0 8 -10 12.5t-10 16.5q0 27 14 27q13 0 24 -18t11 -32q0 -20 -10 -30v-166q10 -10 10 -39 v-21q-10 -26 -10 -20q0 -10 6 -10q-8 0 18 4v164q0 10 26 24t38 14q30 0 59 -38q17 -99 39 -295q4 2 10 2q49 0 49 -41q-53 -54 -57 -60q-18 0 -31 11v-314q78 -73 78 -88q0 -51 -78 -51v-236q0 -96 168 -96q43 0 62 10v1041l24 18q21 -8 21 -39v-848q0 -100 -31 -161h6 q24 0 47 43q21 38 21 65v1039q0 10 25.5 24t37.5 14q23 0 41.5 -18t18.5 -41v-924zM290 623l-4 -5l-4 5q0 6 4 6zM132 90h-27q0 12 13 29q12 -4 14 -29zM142 991l-4 10q-4 -2 -4 -10t4 -10zM142 936l-4 6q-4 -1 -4 -6l4 -4zM142 864v8q0 15 -4 21l-2 -4l-2 -17v-10 q0 -16 4 -18q4 6 4 20zM142 797v6q0 16 -4 22q-4 -2 -4 -18v-16q0 -14 4 -15v0q4 10 4 21zM312 500q0 10 -8 10t-8 -8v-4q0 -6 8 -6t8 8zM142 618l-4 11q-4 -2 -4 -11q0 -8 4 -10zM142 512v16q0 23 -4 31q-4 -4 -4 -29v-20q0 -28 4 -29q4 11 4 31zM142 379v10q0 17 -4 25 q-4 -2 -4 -21v-18q0 -23 4 -21q4 6 4 25zM142 299l-4 6q-4 -1 -4 -6l4 -4zM155 285q0 6 -7 10q-8 0 -8 -8v-4q0 -7 8 -7q7 3 7 9zM155 246q0 6 -7 10q-8 0 -8 -8v-4q0 -8 8 -8q7 4 7 10zM594 1550q0 -30 -21 -51t-51 -21q-72 0 -72 72q0 71 72 71t72 -71zM352 1546 q0 -68 -72 -68q-69 0 -69 68q0 28 20.5 48.5t48.5 20.5q72 0 72 -69z" />
<glyph unicode="&#xdd;" horiz-adv-x="698" d="M475 1278l-4 -4l-4 4q0 6 4 6zM639 1253q0 -12 -2 -18l-145 -432q-35 -78 -74 -215q-8 -29 -4 -90q4 -60 4 -92v-365q0 -21 -21.5 -40t-42.5 -19q-12 0 -38.5 14t-26.5 24v549l-15 -401q-1 -32 -18 -39l-25 18v549q-36 74 -36 117q0 12 2 21q-138 411 -138 426 q0 36 45 36q44 0 54 -32l137 -451q3 -3 22 -31q12 -18 31 -18q41 0 53 41l129 430q18 59 68 59h29q12 -12 12 -41zM559 1432q0 -30 -21 -51t-51 -21q-72 0 -72 72q0 71 72 71t72 -71zM317 1428q0 -68 -72 -68q-69 0 -69 68q0 28 20.5 48.5t48.5 20.5q72 0 72 -69z" />
<glyph unicode="&#xde;" horiz-adv-x="756" d="M532 1471l-4 -4l-4 4l4 4zM770 664q0 -41 -51 -41q8 80 37 80q14 0 14 -39zM657 752q0 -36 -4 -66v-15q0 2 -3 -4q-7 -34 -19 -58q-10 -31 -27 -86v37l-2 -4l-14 -45q-11 -53 -34 -97l-1 -2q-39 -75 -123 -75q-22 0 -50 16q-36 17 -84 53q-7 -2 -34 -6q0 -11 9.5 -31 t9.5 -30q0 -9 -25 -40l-25 -31l-24 21v-301q0 -39 -64 -39q-59 0 -59 39v1623q0 39 59 39q64 0 64 -39v-148l24 21l25 -31v-153q25 -31 25 -40q0 -10 -9.5 -30t-9.5 -31q27 -4 34 -6q48 36 84 53q28 16 50 16q84 0 123 -75l1 -2q23 -44 34 -97l14 -45l2 -4v37q0 109 -12 147 q-23 72 -107 86q15 21 39 21q25 0 47 -23q84 -88 84 -248v-63q0 -37 -1 -59t-1 -10v-14q4 -30 4 -66v-21q-1 -16 -1 -26q0 -11 1 -27v-21zM57 947q0 -13 -12 -19q-12 6 -12 19h24zM641 320h-21v10h21v-10zM554 1185l-1 2q-5 10 -16 24q9 -12 17 -26zM475 570v459q0 20 -4 37 q-11 30 -36 55q-15 11 -36 19h-2h-124l-11 -6l-2 -2v-60q12 -26 21 -39q-7 -26 -21 -49v-369q14 -23 21 -49q-9 -13 -21 -39v-60l2 -2l11 -6h126q21 8 36 19q25 25 36 55q4 17 4 37zM554 414q-8 -14 -17 -26q11 14 16 24zM410 812h-25q0 12 12 28q13 -4 13 -28zM319 879 l-6 -4l-4 4l4 4zM340 830h-55q0 20 39 20q16 0 16 -20zM446 701q-14 0 -20 12q8 13 20 13v-25zM348 791h-10l10 10v-10zM367 691q0 -9 -9 -9q-8 0 -8 9v4q0 8 8 8h2q7 0 7 -8v-4z" />
<glyph unicode="&#xdf;" horiz-adv-x="791" d="M719 401q0 -175 -80.5 -287.5t-195.5 -109.5q-51 2 -51 76q0 50 62 76q148 2 148 245v127q0 60 -50 100q-46 38 -108 38q-10 -19 -8 -39q-22 10 -53 10h-76q-10 0 -18 -2l-10 -8l-2 -643q0 -116 -80 -116h-43q-25 0 -38.5 1t-2.5 1q-39 16 -39 39v1285q0 15 29.5 29 t34.5 18q12 10 16 33q10 53 47 65q10 2 88 2q147 0 227 -28q114 -40 164 -150q29 -64 29 -78v-165q0 -29 -53.5 -102.5t-53.5 -133.5q117 -129 117 -283zM602 897v190q0 45 -41.5 90.5t-85.5 45.5h-158q35 -11 50 -25h-88v-387q0 -10 14 -24.5t24 -14.5h168q41 0 79 41.5 t38 83.5zM141 676v508q-18 -21 -18 -29v-450q0 -9 18 -29zM406 666q-1 2 -9 4h-51q-27 0 -29 -4q17 -4 35 -4h21q18 0 33 4zM152 -81v10q0 225 -5.5 414t-5.5 284q-18 -21 -18 -31v-648zM553 934q0 -64 -21 -92v184q21 -29 21 -92z" />
<glyph unicode="&#xe0;" d="M365 1035h-67l-205 224h129zM725 1165q0 -19 -16 -69t-16 -76q0 -55 -52 -55q0 57 17 106q4 35 18 103q2 6 12 12h13q24 0 24 -21zM725 930h-18v18h18v-18zM658 920l-10 -11h-11l-10 11l10 10h11zM648 870q0 -24 -33 -24q0 24 22 24h11zM490 969h-156q49 30 78 30t78 -30 zM707 606l-10 -10h-11l-10 10l10 10h11zM363 762h-12q0 12 12 20v-20zM387 688l-4 -4l-4 4q0 6 4 6zM402 645h-8v10h8v-10zM230 772q-2 -57 -13 -57q-10 0 -24 8v-41h-10q-19 0 -25 12l-2 11q6 19 30.5 41t43.5 26zM658 596h-25v-391q-2 -8 -14 -21h-10q-17 11 -25 21v-137 q0 -41 -66 -41q-34 0 -57 42q-20 35 -20 72l2 4q0 7 4 20t4 19v236l-29 29h-137q-10 -39 -31 -39q-18 0 -18 20l-10 -10l-2 -60q-1 -25 11.5 -77.5t12.5 -77.5h-43q0 14 12 18q-19 7 -28 53l-13 66v-137q0 -27 58 -27q0 -37 -27 -33q7 -6 72 -28q55 -19 55 -33 q0 -31 -40 -51q-33 -17 -68 -17q-84 0 -129 75q-37 63 -37 153q0 229 166 274q41 6 88 19q40 12 137 129q2 59 2 43q0 114 -133 114q-57 0 -120 -45t-77 -45q-35 0 -35 39q0 68 88 121q78 47 152 47q82 0 141 -45q36 -28 72 -88q29 -49 43 -53v116q16 -18 41 -61 q12 -37 12 -193h21v-20zM203 557q0 -31 -35 -31v31h35zM240 356l-4 -4l-4 4l4 4zM324 166q-4 -4 -10 -4l-9 4q2 4 9 4q5 -1 10 -4zM295 176l-6 -4l-4 4l4 4zM275 184h-10q-7 4 -9 11h9l6 -5zM453 586q0 6 -2 20l-68 -69h11q18 0 38.5 16t20.5 33z" />
<glyph unicode="&#xe1;" d="M725 1165q0 -19 -16 -69t-16 -76q0 -55 -52 -55q0 57 17 106q4 35 18 103q2 6 12 12h13q24 0 24 -21zM725 930h-18v18h18v-18zM658 920l-10 -11h-11l-10 11l10 10h11zM648 870q0 -24 -33 -24q0 24 22 24h11zM490 969h-156q49 30 78 30t78 -30zM707 606l-10 -10h-11 l-10 10l10 10h11zM363 762h-12q0 12 12 20v-20zM387 688l-4 -4l-4 4q0 6 4 6zM402 645h-8v10h8v-10zM230 772q-2 -57 -13 -57q-10 0 -24 8v-41h-10q-19 0 -25 12l-2 11q6 19 30.5 41t43.5 26zM658 596h-25v-391q-2 -8 -14 -21h-10q-17 11 -25 21v-137q0 -41 -66 -41 q-34 0 -57 42q-20 35 -20 72l2 4q0 7 4 20t4 19v236l-29 29h-137q-10 -39 -31 -39q-18 0 -18 20l-10 -10l-2 -60q-1 -25 11.5 -77.5t12.5 -77.5h-43q0 14 12 18q-19 7 -28 53l-13 66v-137q0 -27 58 -27q0 -37 -27 -33q7 -6 72 -28q55 -19 55 -33q0 -31 -40 -51 q-33 -17 -68 -17q-84 0 -129 75q-37 63 -37 153q0 229 166 274q41 6 88 19q40 12 137 129q2 59 2 43q0 114 -133 114q-57 0 -120 -45t-77 -45q-35 0 -35 39q0 68 88 121q78 47 152 47q82 0 141 -45q36 -28 72 -88q29 -49 43 -53v116q16 -18 41 -61q12 -37 12 -193h21v-20z M203 557q0 -31 -35 -31v31h35zM240 356l-4 -4l-4 4l4 4zM324 166q-4 -4 -10 -4l-9 4q2 4 9 4q5 -1 10 -4zM295 176l-6 -4l-4 4l4 4zM275 184h-10q-7 4 -9 11h9l6 -5zM453 586q0 6 -2 20l-68 -69h11q18 0 38.5 16t20.5 33zM548 1255l-205 -223h-67l143 223h129z" />
<glyph unicode="&#xe2;" d="M725 1165q0 -19 -16 -69t-16 -76q0 -55 -52 -55q0 57 17 106q4 35 18 103q2 6 12 12h13q24 0 24 -21zM725 930h-18v18h18v-18zM658 920l-10 -11h-11l-10 11l10 10h11zM648 870q0 -24 -33 -24q0 24 22 24h11zM490 969h-156q49 30 78 30t78 -30zM707 606l-10 -10h-11 l-10 10l10 10h11zM363 762h-12q0 12 12 20v-20zM387 688l-4 -4l-4 4q0 6 4 6zM402 645h-8v10h8v-10zM230 772q-2 -57 -13 -57q-10 0 -24 8v-41h-10q-19 0 -25 12l-2 11q6 19 30.5 41t43.5 26zM658 596h-25v-391q-2 -8 -14 -21h-10q-17 11 -25 21v-137q0 -41 -66 -41 q-34 0 -57 42q-20 35 -20 72l2 4q0 7 4 20t4 19v236l-29 29h-137q-10 -39 -31 -39q-18 0 -18 20l-10 -10l-2 -60q-1 -25 11.5 -77.5t12.5 -77.5h-43q0 14 12 18q-19 7 -28 53l-13 66v-137q0 -27 58 -27q0 -37 -27 -33q7 -6 72 -28q55 -19 55 -33q0 -31 -40 -51 q-33 -17 -68 -17q-84 0 -129 75q-37 63 -37 153q0 229 166 274q41 6 88 19q40 12 137 129q2 59 2 43q0 114 -133 114q-57 0 -120 -45t-77 -45q-35 0 -35 39q0 68 88 121q78 47 152 47q82 0 141 -45q36 -28 72 -88q29 -49 43 -53v116q16 -18 41 -61q12 -37 12 -193h21v-20z M203 557q0 -31 -35 -31v31h35zM240 356l-4 -4l-4 4l4 4zM324 166q-4 -4 -10 -4l-9 4q2 4 9 4q5 -1 10 -4zM295 176l-6 -4l-4 4l4 4zM275 184h-10q-7 4 -9 11h9l6 -5zM453 586q0 6 -2 20l-68 -69h11q18 0 38.5 16t20.5 33zM514 1038q-8 0 -26 -2q-16 -4 -25 8l-90 127 q-25 55 -47 55l-2 -2q-38 -52 -86 -106q-71 -80 -96 -80q0 45 67 133q45 59 78 106q14 27 39 27q29 0 76 -80q37 -51 112 -158v-28z" />
<glyph unicode="&#xe3;" d="M725 1165q0 -19 -16 -69t-16 -76q0 -55 -52 -55q0 57 17 106q4 35 18 103q2 6 12 12h13q24 0 24 -21zM725 930h-18v18h18v-18zM658 920l-10 -11h-11l-10 11l10 10h11zM648 870q0 -24 -33 -24q0 24 22 24h11zM490 969h-156q49 30 78 30t78 -30zM707 606l-10 -10h-11 l-10 10l10 10h11zM363 762h-12q0 12 12 20v-20zM387 688l-4 -4l-4 4q0 6 4 6zM402 645h-8v10h8v-10zM230 772q-2 -57 -13 -57q-10 0 -24 8v-41h-10q-19 0 -25 12l-2 11q6 19 30.5 41t43.5 26zM658 596h-25v-391q-2 -8 -14 -21h-10q-17 11 -25 21v-137q0 -41 -66 -41 q-34 0 -57 42q-20 35 -20 72l2 4q0 7 4 20t4 19v236l-29 29h-137q-10 -39 -31 -39q-18 0 -18 20l-10 -10l-2 -60q-1 -25 11.5 -77.5t12.5 -77.5h-43q0 14 12 18q-19 7 -28 53l-13 66v-137q0 -27 58 -27q0 -37 -27 -33q7 -6 72 -28q55 -19 55 -33q0 -31 -40 -51 q-33 -17 -68 -17q-84 0 -129 75q-37 63 -37 153q0 229 166 274q41 6 88 19q40 12 137 129q2 59 2 43q0 114 -133 114q-57 0 -120 -45t-77 -45q-35 0 -35 39q0 68 88 121q78 47 152 47q82 0 141 -45q36 -28 72 -88q29 -49 43 -53v116q16 -18 41 -61q12 -37 12 -193h21v-20z M203 557q0 -31 -35 -31v31h35zM240 356l-4 -4l-4 4l4 4zM324 166q-4 -4 -10 -4l-9 4q2 4 9 4q5 -1 10 -4zM295 176l-6 -4l-4 4l4 4zM275 184h-10q-7 4 -9 11h9l6 -5zM453 586q0 6 -2 20l-68 -69h11q18 0 38.5 16t20.5 33zM510 1130q-27 -43 -31 -48q-14 -14 -43 -14 q-30 0 -103 47t-103 47q-13 0 -39.5 -9t-38.5 -9q0 26 24.5 53t49.5 27q31 0 105 -48t105 -48q13 0 37.5 10t36.5 10v-18z" />
<glyph unicode="&#xe4;" d="M725 1165q0 -19 -16 -69t-16 -76q0 -55 -52 -55q0 57 17 106q4 35 18 103q2 6 12 12h13q24 0 24 -21zM725 930h-18v18h18v-18zM658 920l-10 -11h-11l-10 11l10 10h11zM648 870q0 -24 -33 -24q0 24 22 24h11zM490 969h-156q49 30 78 30t78 -30zM707 606l-10 -10h-11 l-10 10l10 10h11zM363 762h-12q0 12 12 20v-20zM387 688l-4 -4l-4 4q0 6 4 6zM402 645h-8v10h8v-10zM230 772q-2 -57 -13 -57q-10 0 -24 8v-41h-10q-19 0 -25 12l-2 11q6 19 30.5 41t43.5 26zM658 596h-25v-391q-2 -8 -14 -21h-10q-17 11 -25 21v-137q0 -41 -66 -41 q-34 0 -57 42q-20 35 -20 72l2 4q0 7 4 20t4 19v236l-29 29h-137q-10 -39 -31 -39q-18 0 -18 20l-10 -10l-2 -60q-1 -25 11.5 -77.5t12.5 -77.5h-43q0 14 12 18q-19 7 -28 53l-13 66v-137q0 -27 58 -27q0 -37 -27 -33q7 -6 72 -28q55 -19 55 -33q0 -31 -40 -51 q-33 -17 -68 -17q-84 0 -129 75q-37 63 -37 153q0 229 166 274q41 6 88 19q40 12 137 129q2 59 2 43q0 114 -133 114q-57 0 -120 -45t-77 -45q-35 0 -35 39q0 68 88 121q78 47 152 47q82 0 141 -45q36 -28 72 -88q29 -49 43 -53v116q16 -18 41 -61q12 -37 12 -193h21v-20z M203 557q0 -31 -35 -31v31h35zM240 356l-4 -4l-4 4l4 4zM324 166q-4 -4 -10 -4l-9 4q2 4 9 4q5 -1 10 -4zM295 176l-6 -4l-4 4l4 4zM275 184h-10q-7 4 -9 11h9l6 -5zM453 586q0 6 -2 20l-68 -69h11q18 0 38.5 16t20.5 33zM523 1162q0 -30 -21 -51t-51 -21q-72 0 -72 72 q0 71 72 71t72 -71zM281 1158q0 -68 -72 -68q-69 0 -69 68q0 28 20.5 48.5t48.5 20.5q72 0 72 -69z" />
<glyph unicode="&#xe5;" d="M725 1165q0 -19 -16 -69t-16 -76q0 -55 -52 -55q0 57 17 106q4 35 18 103q2 6 12 12h13q24 0 24 -21zM725 930h-18v18h18v-18zM658 920l-10 -11h-11l-10 11l10 10h11zM648 870q0 -24 -33 -24q0 24 22 24h11zM490 969h-156q49 30 78 30t78 -30zM707 606l-10 -10h-11 l-10 10l10 10h11zM363 762h-12q0 12 12 20v-20zM387 688l-4 -4l-4 4q0 6 4 6zM402 645h-8v10h8v-10zM230 772q-2 -57 -13 -57q-10 0 -24 8v-41h-10q-19 0 -25 12l-2 11q6 19 30.5 41t43.5 26zM658 596h-25v-391q-2 -8 -14 -21h-10q-17 11 -25 21v-137q0 -41 -66 -41 q-34 0 -57 42q-20 35 -20 72l2 4q0 7 4 20t4 19v236l-29 29h-137q-10 -39 -31 -39q-18 0 -18 20l-10 -10l-2 -60q-1 -25 11.5 -77.5t12.5 -77.5h-43q0 14 12 18q-19 7 -28 53l-13 66v-137q0 -27 58 -27q0 -37 -27 -33q7 -6 72 -28q55 -19 55 -33q0 -31 -40 -51 q-33 -17 -68 -17q-84 0 -129 75q-37 63 -37 153q0 229 166 274q41 6 88 19q40 12 137 129q2 59 2 43q0 114 -133 114q-57 0 -120 -45t-77 -45q-35 0 -35 39q0 68 88 121q78 47 152 47q82 0 141 -45q36 -28 72 -88q29 -49 43 -53v116q16 -18 41 -61q12 -37 12 -193h21v-20z M203 557q0 -31 -35 -31v31h35zM240 356l-4 -4l-4 4l4 4zM324 166q-4 -4 -10 -4l-9 4q2 4 9 4q5 -1 10 -4zM295 176l-6 -4l-4 4l4 4zM275 184h-10q-7 4 -9 11h9l6 -5zM453 586q0 6 -2 20l-68 -69h11q18 0 38.5 16t20.5 33zM434 1136q0 -55 -84 -90v-29q-2 -3 -5 -4h-4 q-4 1 -6 4v29q-84 11 -96 98l-7 -4v3q0 8 -5.5 23t-5.5 23v22q0 31 16 47v-57q18 65 70 93h-34q12 13 34 13q10 -4 16 -4h3q3 2 7 4l8 -8q1 0 15 -4q78 -21 78 -85v-74zM389 1224q-1 3 -3 4q-3 -1 -3 -3v-2q0 -3 3 -3q3 1 3 4zM386 1121v53q-3 -16 -17 -34v106q-3 4 -19 4 h-5q0 -6 -2 -20q-1 -4 -4.5 -11t-3.5 -10q-5 1 -7 5v37q-40 0 -40 -30v-96q0 -19 11 -19h36v30q3 3 6 4h4q2 -2 3 -4v-30q-14 -4 -26 -11q23 -1 16 -1q48 0 48 27z" />
<glyph unicode="&#xe6;" horiz-adv-x="1121" d="M1017 928h-21v20h21v-20zM947 918q-2 -7 -8 -11h-10l-11 11q4 6 11 10h10l6 -4zM739 1165q0 -19 -16 -69t-16 -76q0 -55 -52 -55q0 57 17 106q4 35 18 103q2 6 12 12h13q24 0 24 -21zM672 920l-10 -11h-11l-10 11l10 10h11zM504 969h-156q49 30 78 30t78 -30zM377 762 h-12q0 12 12 20v-20zM401 688l-4 -4l-4 4q0 6 4 6zM416 645h-8v10h8v-10zM1047 582q0 -138 -41 -138h-313q-39 -26 -39 -45v-186q12 -25 31 -53h88l-31 -25h49q48 0 105.5 45t75.5 45q45 0 45 -37q0 -43 -61 -99q-57 -52 -103 -64q-35 -9 -74 -9q-113 0 -181 89v-37 q0 -41 -66 -41q-34 0 -57 42q-20 35 -20 72l2 4q0 7 4 20t4 19v236l-29 29h-137q-10 -39 -31 -39q-18 0 -18 20l-10 -10l-2 -60q-1 -25 11.5 -77.5t12.5 -77.5h-43q0 14 12 18q-19 7 -28 53l-13 66v-137q0 -27 58 -27q0 -37 -27 -33q7 -6 72 -28q55 -19 55 -33 q0 -31 -40 -51q-33 -17 -68 -17q-84 0 -129 75q-37 63 -37 153q0 229 166 274q41 6 88 19q40 12 137 129v14q-16 10 -16 22q0 6 17 27q-11 94 -132 94q-57 0 -120 -45t-77 -45q-35 0 -35 39q0 68 88 121q78 47 152 47q82 0 141 -45q36 -28 72 -88q5 -9 10 -16q12 24 33 48 v31q6 -7 13 -17q34 35 92 79h-77q6 35 77 35q32 0 154 -47q190 -73 190 -338zM244 772q-2 -57 -13 -57q-10 0 -24 8v-41h-10q-19 0 -25 12l-2 11q6 19 30.5 41t43.5 26zM217 557q0 -31 -35 -31v31h35zM254 356l-4 -4l-4 4l4 4zM338 166q-4 -4 -10 -4l-9 4q2 4 9 4 q5 -1 10 -4zM309 176l-6 -4l-4 4l4 4zM289 184h-10q-7 4 -9 11h9l6 -5zM922 713q0 10 -4 20l-2 -4l-2 -16l2 -15l2 -6q4 10 4 21zM871 764v12q0 45 -57 45h-29q-131 0 -131 -78v-127h18v-18l-2 -2h-16v-10q6 3 16 10l2 2q27 19 85 72q71 64 112 82q1 5 2 12zM920 586l-2 18 q-5 -20 -46.5 -45t-41.5 -33h27q63 0 63 60zM873 662v26h-2l-4 -2l-14 -6q-14 -6 -70 -41q-67 -42 -108 -102l18 -11q14 31 31 31q6 -16 8 -31h72q0 13 53 47q16 10 16 89zM467 586q0 6 -2 20l-68 -69h11q18 0 38.5 16t20.5 33zM679 688l-4 -4l-4 4l4 4zM693 645h-8v8h8v-8z " />
<glyph unicode="&#xe7;" horiz-adv-x="657" d="M516 1255q-35 -77 -35 -145q0 -53 -49 -53q0 21 18.5 118t24.5 101h17q24 0 24 -21zM516 1020h-20v20h20v-20zM446 1012l-4 -6l-6 -5h-10l-4 5l-4 6q0 6 14 10l10 -4zM496 698q-7 -10 -15 -12q-6 0 -10 6l-4 6q4 9 14 11q4 -2 15 -11zM446 686q-14 0 -20 12q6 11 20 11 v-23zM401 692l-4 -4l-4 4l4 6zM332 639q0 -12 -13 -21q-12 7 -12 21h25zM274 623q0 -15 -22 -27q-18 -10 -35 -10q0 37 57 37zM18 864q0 -20 -6 -55l-6 -4q-12 2 -24 10v-43q-35 4 -35 23q0 15 27 40t44 29zM575 207q0 -70 -71 -109q-37 -19 -133 -69q-72 -38 -72 -105 q0 -8 43 -8q67 0 116 -30q58 -36 58 -99q0 -75 -74 -120q-64 -38 -143 -38q-25 0 -82 11q-65 13 -65 28q0 21 10 21h176q61 0 61 90q0 92 -86 92h-39q-23 0 -37.5 -1t-5.5 -1l-10 14q30 23 98 129q-28 16 -106 58q-141 77 -141 362q0 228 14 289q30 132 164 231 q42 31 106 31q79 0 149 -62.5t70 -140.5q0 -32 -4 -41q-6 -14 -34 -14q-29 0 -79 54.5t-81 54.5q0 -45 -68 -95q-85 -62 -98 -82q10 -2 10 -24v-15q-2 -6 -10 -10v-381q0 -20 26 -35q23 -14 44 -14h145q25 0 57.5 36t32.5 62h59q-4 -12 -12 -38q11 -33 12 -31zM-8 649 q0 -33 -35 -33v33h35zM68 535q0 -37 -35 -37q0 37 35 37zM29 446l-4 -4l-5 4q0 7 5 7zM-14 463l-11 8h11v-8zM16 334q-4 -8 -10 -8q-22 0 -22 18q0 21 22 21q10 0 10 -21v-10zM14 305q-4 -12 -18 -12v12h18zM14 244q-28 0 -28 18q0 17 28 17v-35zM14 199l-8 -11 q-12 5 -12 21q14 0 20 -10zM330 836h-21q-90 0 -94 -103q90 41 115 103z" />
<glyph unicode="&#xe8;" horiz-adv-x="683" d="M406 1041h-67l-205 224h129zM600 1163q0 -19 -16.5 -69t-16.5 -76q0 -55 -51 -55q0 57 16 106q5 38 19 102q2 7 12 13h12q25 0 25 -21zM600 928h-21v20h21v-20zM530 918q-2 -7 -8 -11h-10l-11 11q4 6 11 10h10l6 -4zM630 582q0 -138 -41 -138h-313q-39 -26 -39 -45v-186 q12 -25 31 -53h88l-31 -25h49q48 0 106 45t75 45q45 0 45 -37q0 -43 -61 -99q-57 -52 -103 -64q-35 -9 -74 -9q-116 0 -184 93q-57 78 -68 202q0 -47 -10 -67q0 -11 -8 -11q-21 0 -21 19q0 5 5.5 15t5.5 16q0 40 -13 116q-13 81 -16 117q-6 4 -10 12l-2 13l2 16q4 6 10 8 l8 109q-29 12 -29 28q0 5 20.5 31t22.5 33q25 54 31 63v-184q18 113 53 166q31 47 127 121h-77q6 35 77 35q32 0 154 -47q190 -73 190 -338zM100 213q-4 -10 -18 -10v10h18zM100 152q-29 0 -29 18t29 18v-36zM100 106l-8 -10q-13 4 -13 23q15 0 21 -13zM505 713q0 10 -4 20 l-2 -4l-2 -16l2 -15l2 -6q4 10 4 21zM454 764v12q0 45 -57 45h-29q-131 0 -131 -78v-157q22 11 103 84q71 64 112 82q1 5 2 12zM503 586l-2 18q-4 -20 -46 -45t-42 -33h27q63 0 63 60zM456 662v26h-2l-4 -2l-14 -6q-14 -6 -70 -41q-66 -42 -108 -102l18 -11q14 31 31 31 q6 -16 8 -31h72q0 13 53 47q16 10 16 89zM262 688l-4 -4l-4 4l4 4zM276 645h-8v8h8v-8z" />
<glyph unicode="&#xe9;" horiz-adv-x="683" d="M600 1163q0 -19 -16.5 -69t-16.5 -76q0 -55 -51 -55q0 57 16 106q5 38 19 102q2 7 12 13h12q25 0 25 -21zM600 928h-21v20h21v-20zM530 918q-2 -7 -8 -11h-10l-11 11q4 6 11 10h10l6 -4zM630 582q0 -138 -41 -138h-313q-39 -26 -39 -45v-186q12 -25 31 -53h88l-31 -25h49 q48 0 106 45t75 45q45 0 45 -37q0 -43 -61 -99q-57 -52 -103 -64q-35 -9 -74 -9q-116 0 -184 93q-57 78 -68 202q0 -47 -10 -67q0 -11 -8 -11q-21 0 -21 19q0 5 5.5 15t5.5 16q0 40 -13 116q-13 81 -16 117q-6 4 -10 12l-2 13l2 16q4 6 10 8l8 109q-29 12 -29 28 q0 5 20.5 31t22.5 33q25 54 31 63v-184q18 113 53 166q31 47 127 121h-77q6 35 77 35q32 0 154 -47q190 -73 190 -338zM100 213q-4 -10 -18 -10v10h18zM100 152q-29 0 -29 18t29 18v-36zM100 106l-8 -10q-13 4 -13 23q15 0 21 -13zM505 713q0 10 -4 20l-2 -4l-2 -16l2 -15 l2 -6q4 10 4 21zM454 764v12q0 45 -57 45h-29q-131 0 -131 -78v-157q22 11 103 84q71 64 112 82q1 5 2 12zM503 586l-2 18q-4 -20 -46 -45t-42 -33h27q63 0 63 60zM456 662v26h-2l-4 -2l-14 -6q-14 -6 -70 -41q-66 -42 -108 -102l18 -11q14 31 31 31q6 -16 8 -31h72 q0 13 53 47q16 10 16 89zM262 688l-4 -4l-4 4l4 4zM276 645h-8v8h8v-8zM572 1261l-205 -223h-67l143 223h129z" />
<glyph unicode="&#xea;" horiz-adv-x="683" d="M600 1163q0 -19 -16.5 -69t-16.5 -76q0 -55 -51 -55q0 57 16 106q5 38 19 102q2 7 12 13h12q25 0 25 -21zM600 928h-21v20h21v-20zM530 918q-2 -7 -8 -11h-10l-11 11q4 6 11 10h10l6 -4zM630 582q0 -138 -41 -138h-313q-39 -26 -39 -45v-186q12 -25 31 -53h88l-31 -25h49 q48 0 106 45t75 45q45 0 45 -37q0 -43 -61 -99q-57 -52 -103 -64q-35 -9 -74 -9q-116 0 -184 93q-57 78 -68 202q0 -47 -10 -67q0 -11 -8 -11q-21 0 -21 19q0 5 5.5 15t5.5 16q0 40 -13 116q-13 81 -16 117q-6 4 -10 12l-2 13l2 16q4 6 10 8l8 109q-29 12 -29 28 q0 5 20.5 31t22.5 33q25 54 31 63v-184q18 113 53 166q31 47 127 121h-77q6 35 77 35q32 0 154 -47q190 -73 190 -338zM100 213q-4 -10 -18 -10v10h18zM100 152q-29 0 -29 18t29 18v-36zM100 106l-8 -10q-13 4 -13 23q15 0 21 -13zM505 713q0 10 -4 20l-2 -4l-2 -16l2 -15 l2 -6q4 10 4 21zM454 764v12q0 45 -57 45h-29q-131 0 -131 -78v-157q22 11 103 84q71 64 112 82q1 5 2 12zM503 586l-2 18q-4 -20 -46 -45t-42 -33h27q63 0 63 60zM456 662v26h-2l-4 -2l-14 -6q-14 -6 -70 -41q-66 -42 -108 -102l18 -11q14 31 31 31q6 -16 8 -31h72 q0 13 53 47q16 10 16 89zM262 688l-4 -4l-4 4l4 4zM276 645h-8v8h8v-8zM532 1050q-8 0 -26 -2q-16 -4 -25 8l-90 127q-25 55 -47 55l-2 -2q-38 -52 -86 -106q-71 -80 -96 -80q0 45 67 133q45 59 78 106q14 27 39 27q29 0 76 -80q37 -51 112 -158v-28z" />
<glyph unicode="&#xeb;" horiz-adv-x="683" d="M600 1163q0 -19 -16.5 -69t-16.5 -76q0 -55 -51 -55q0 57 16 106q5 38 19 102q2 7 12 13h12q25 0 25 -21zM600 928h-21v20h21v-20zM530 918q-2 -7 -8 -11h-10l-11 11q4 6 11 10h10l6 -4zM630 582q0 -138 -41 -138h-313q-39 -26 -39 -45v-186q12 -25 31 -53h88l-31 -25h49 q48 0 106 45t75 45q45 0 45 -37q0 -43 -61 -99q-57 -52 -103 -64q-35 -9 -74 -9q-116 0 -184 93q-57 78 -68 202q0 -47 -10 -67q0 -11 -8 -11q-21 0 -21 19q0 5 5.5 15t5.5 16q0 40 -13 116q-13 81 -16 117q-6 4 -10 12l-2 13l2 16q4 6 10 8l8 109q-29 12 -29 28 q0 5 20.5 31t22.5 33q25 54 31 63v-184q18 113 53 166q31 47 127 121h-77q6 35 77 35q32 0 154 -47q190 -73 190 -338zM100 213q-4 -10 -18 -10v10h18zM100 152q-29 0 -29 18t29 18v-36zM100 106l-8 -10q-13 4 -13 23q15 0 21 -13zM505 713q0 10 -4 20l-2 -4l-2 -16l2 -15 l2 -6q4 10 4 21zM454 764v12q0 45 -57 45h-29q-131 0 -131 -78v-157q22 11 103 84q71 64 112 82q1 5 2 12zM503 586l-2 18q-4 -20 -46 -45t-42 -33h27q63 0 63 60zM456 662v26h-2l-4 -2l-14 -6q-14 -6 -70 -41q-66 -42 -108 -102l18 -11q14 31 31 31q6 -16 8 -31h72 q0 13 53 47q16 10 16 89zM262 688l-4 -4l-4 4l4 4zM276 645h-8v8h8v-8zM546 1156q0 -30 -21 -51t-51 -21q-72 0 -72 72q0 71 72 71t72 -71zM304 1152q0 -68 -72 -68q-69 0 -69 68q0 28 20.5 48.5t48.5 20.5q72 0 72 -69z" />
<glyph unicode="&#xec;" horiz-adv-x="245" d="M163 1071h-67l-205 224h129zM243 205l-18 -21l-21 21v766l21 18l18 -18v-766zM184 57q0 -12 -21.5 -25.5t-35.5 -13.5q-13 0 -36.5 13.5t-23.5 25.5v844q0 14 24 27q21 12 36 12t36 -13t21 -26v-844z" />
<glyph unicode="&#xed;" horiz-adv-x="245" d="M370 1243l-205 -223h-67l143 223h129zM243 205l-18 -21l-21 21v766l21 18l18 -18v-766zM184 57q0 -12 -21.5 -25.5t-35.5 -13.5q-13 0 -36.5 13.5t-23.5 25.5v844q0 14 24 27q21 12 36 12t36 -13t21 -26v-844z" />
<glyph unicode="&#xee;" horiz-adv-x="245" d="M243 205l-18 -21l-21 21v766l21 18l18 -18v-766zM184 57q0 -12 -21.5 -25.5t-35.5 -13.5q-13 0 -36.5 13.5t-23.5 25.5v844q0 14 24 27q21 12 36 12t36 -13t21 -26v-844zM306 1062q-8 0 -26 -2q-16 -4 -25 8l-90 127q-25 55 -47 55l-2 -2q-38 -52 -86 -106 q-71 -80 -96 -80q0 45 67 133q45 59 78 106q14 27 39 27q29 0 76 -80q37 -51 112 -158v-28z" />
<glyph unicode="&#xef;" horiz-adv-x="245" d="M319 1180q0 -30 -21 -51t-51 -21q-72 0 -72 72q0 71 72 71t72 -71zM77 1176q0 -68 -72 -68q-69 0 -69 68q0 28 20.5 48.5t48.5 20.5q72 0 72 -69zM243 205l-18 -21l-21 21v766l21 18l18 -18v-766zM184 57q0 -12 -21.5 -25.5t-35.5 -13.5q-13 0 -36.5 13.5t-23.5 25.5v844 q0 14 24 27q21 12 36 12t36 -13t21 -26v-844z" />
<glyph unicode="&#xf0;" horiz-adv-x="684" d="M606 305q0 -135 -43 -176v137q-32 -83 -98 -137q-72 -60 -156 -60q-92 0 -171 72t-79 164v313q0 97 82 150q69 45 172 45l21 20v78l-46 121l-125 -61q-12 -6 -24 -6q-26 0 -44.5 20t-18.5 46q0 39 31 54l136 67l-67 179q0 25 4 33q8 16 45 16q48 0 70 -59l46 -122l120 59 q62 4 124 -31l3 -5q-5 -13 -32 -42.5t-40 -36.5l-130 -63l153 -404q36 -142 45 -183q22 -98 22 -188zM461 22q-47 -30 -74 -30t-74 30h148zM440 264v369h-145q8 20 65 22l70 2q-49 49 -57 49h-127q-19 0 -44.5 -28.5t-25.5 -48.5v-158q4 43 35 78v-332q0 -31 80 -31h31 q41 0 76 19q42 22 42 59zM283 627q0 -9 -9 -9q-8 0 -8 11q0 8 8 8q9 0 9 -6v-4zM233 577q0 -8 -8 -8t-8 10q0 9 8 9t8 -7v-4zM219 565l-4 -6q-4 1 -4 6l4 4z" />
<glyph unicode="&#xf1;" horiz-adv-x="690" d="M758 733h-8v10h8v-10zM758 682q-12 0 -18 12q6 13 18 13v-25zM684 289q-32 0 -32 22q0 31 14 31q18 0 18 -25v-28zM371 625q0 -13 -12 -29q-13 4 -15 29h27zM772 145h-37q0 31 19 31q18 0 18 -31zM312 625q-3 -29 -13 -29q-26 0 -26 29h39zM719 166h-18v29h18v-29z M289 567l-4 -6l-6 -4h-4q-19 0 -19 33q33 0 33 -19v-4zM348 459h-20v20h20v-20zM750 586l-21 -19q-2 -4 -14 -98q-10 -80 -25 -80l-10 2q-8 4 -10 10v43q0 18 11 52.5t11 52.5q0 13 -15.5 49.5t-24.5 46.5q-13 -59 -13 -178q0 -11 1 -59t1 -82v-142q21 -8 21 -39 q-6 -2 -21 -8q-15 -67 -16 -70q-15 -40 -49 -40q-66 0 -66 41v137q-24 -31 -31 -31q-12 6 -18 21v391q-37 10 -37 30q0 23 31 19v166q-12 30 -113 30q-33 0 -62.5 -25t-29.5 -58q0 -37 51 -37v16q2 6 17 6q10 -8 30 -20q5 4 19 20h10q39 0 39 -35q0 -6 -6 -12l-12 -2 q-6 0 -16 5t-15 5q-20 0 -73.5 -40.5t-53.5 -57.5v-176h26q0 -33 -30 -29v-323q0 -39 -64 -39q-52 0 -65 57q-4 17 -4 98l-21 -20q0 -6 -8 -8l-10 -11q0 36 -5.5 107.5t-5.5 107.5h-28q-20 -23 -83 -60q-66 -38 -91 -38q-33 0 -33 21l2 10q57 4 104 39q33 25 91 69 q10 5 30 9q11 6 15 10v528q6 8 24 21h10l29 -39l4 -2h2q19 10 43 10q22 0 63.5 -35t67.5 -35q7 1 25 2l78 60q-10 14 -68 28q10 21 37 21l2 -2q61 -23 111 -43q59 -23 98 -68q27 -31 39 -102q9 -55 29 -55q0 10 2 20q10 4 24 4q49 0 49 -117q13 -8 21 -20v-10zM312 440h-35 q4 19 16 19q14 0 19 -19zM39 649q0 -47 -47 -47q0 47 47 47zM-24 514q-29 0 -29 18q0 19 29 19v-37zM-121 432q0 -31 -30 -31v39h28q2 -4 2 -8zM-168 371q0 -21 -22 -21v21h22zM-43 262q0 -6 -13 -28.5t-13 -38.5h-31q14 69 41 88q16 0 16 -21zM-131 176q-12 -10 -31 -20h-8 q-22 14 -22 32q4 0 13 -6.5t13 -7.5q15 8 25 10l6 -2zM82 164v4q0 8 -8 8h-2q-6 0 -6 -8v-4q0 -8 8 -8zM480 1172q-27 -43 -31 -48q-14 -14 -43 -14q-30 0 -103 47t-103 47q-13 0 -39.5 -9t-38.5 -9q0 26 24.5 53t49.5 27q31 0 105 -48t105 -48q13 0 37.5 10t36.5 10v-18z " />
<glyph unicode="&#xf2;" horiz-adv-x="658" d="M378 1079h-67l-205 224h129zM341 1331h-25q0 15 13 21q12 -9 12 -21zM341 1280q-16 0 -23 12l11 11q12 -7 12 -23zM349 1223q0 -35 -20 -58q-15 23 -15 90v15q35 0 35 -47zM341 1114q-16 0 -23 12l11 11q12 -7 12 -23zM339 1059h-21v8h21v-8zM611 246q0 -144 -219 -234 v-137q-4 -6 -14 -10h-10q-11 4 -15 10v137q-100 13 -168.5 83t-81.5 171l-20 -10v8q0 21 -14.5 59.5t-14.5 59.5v338q0 80 43 123v-148q47 168 182 240h-88q31 35 88 35q27 -10 43 -10h7q6 4 18 10l21 -21q3 -1 38 -10q80 -21 139 -81q66 -65 66 -142v-471zM492 754 q0 10 -8 10t-8 -8v-4q0 -7 8 -7t8 9zM484 207v137q-6 -30 -12 -51q-10 -33 -31 -37v557q0 10 -49 10h-14q0 -9 -6 -53q-4 -29 -4 -53q0 -8 2 -23.5t2 -23.5q0 -47 -19 -54q-14 2 -20 13v196q-37 0 -68 -20q-35 -22 -35 -57v-531q0 -10 10 -29.5t19 -19.5h94v78q4 6 15 10h10 q6 -4 8 -10v-78q-37 -10 -68 -29q60 -2 43 -2q123 0 123 70zM368 481q0 -10 -29 -12v119q2 6 8 10h10q6 -4 11 -10v-107zM386 295q-2 -6 -8 -10h-10l-11 10l11 10h10q6 -4 8 -10z" />
<glyph unicode="&#xf3;" horiz-adv-x="658" d="M341 1331h-25q0 15 13 21q12 -9 12 -21zM341 1280q-16 0 -23 12l11 11q12 -7 12 -23zM349 1223q0 -35 -20 -58q-15 23 -15 90v15q35 0 35 -47zM341 1114q-16 0 -23 12l11 11q12 -7 12 -23zM339 1059h-21v8h21v-8zM611 246q0 -144 -219 -234v-137q-4 -6 -14 -10h-10 q-11 4 -15 10v137q-100 13 -168.5 83t-81.5 171l-20 -10v8q0 21 -14.5 59.5t-14.5 59.5v338q0 80 43 123v-148q47 168 182 240h-88q31 35 88 35q27 -10 43 -10h7q6 4 18 10l21 -21q3 -1 38 -10q80 -21 139 -81q66 -65 66 -142v-471zM492 754q0 10 -8 10t-8 -8v-4q0 -7 8 -7 t8 9zM484 207v137q-6 -30 -12 -51q-10 -33 -31 -37v557q0 10 -49 10h-14q0 -9 -6 -53q-4 -29 -4 -53q0 -8 2 -23.5t2 -23.5q0 -47 -19 -54q-14 2 -20 13v196q-37 0 -68 -20q-35 -22 -35 -57v-531q0 -10 10 -29.5t19 -19.5h94v78q4 6 15 10h10q6 -4 8 -10v-78 q-37 -10 -68 -29q60 -2 43 -2q123 0 123 70zM368 481q0 -10 -29 -12v119q2 6 8 10h10q6 -4 11 -10v-107zM386 295q-2 -6 -8 -10h-10l-11 10l11 10h10q6 -4 8 -10zM548 1258l-205 -223h-67l143 223h129z" />
<glyph unicode="&#xf4;" horiz-adv-x="658" d="M341 1331h-25q0 15 13 21q12 -9 12 -21zM341 1280q-16 0 -23 12l11 11q12 -7 12 -23zM349 1223q0 -35 -20 -58q-15 23 -15 90v15q35 0 35 -47zM341 1114q-16 0 -23 12l11 11q12 -7 12 -23zM339 1059h-21v8h21v-8zM611 246q0 -144 -219 -234v-137q-4 -6 -14 -10h-10 q-11 4 -15 10v137q-100 13 -168.5 83t-81.5 171l-20 -10v8q0 21 -14.5 59.5t-14.5 59.5v338q0 80 43 123v-148q47 168 182 240h-88q31 35 88 35q27 -10 43 -10h7q6 4 18 10l21 -21q3 -1 38 -10q80 -21 139 -81q66 -65 66 -142v-471zM492 754q0 10 -8 10t-8 -8v-4q0 -7 8 -7 t8 9zM484 207v137q-6 -30 -12 -51q-10 -33 -31 -37v557q0 10 -49 10h-14q0 -9 -6 -53q-4 -29 -4 -53q0 -8 2 -23.5t2 -23.5q0 -47 -19 -54q-14 2 -20 13v196q-37 0 -68 -20q-35 -22 -35 -57v-531q0 -10 10 -29.5t19 -19.5h94v78q4 6 15 10h10q6 -4 8 -10v-78 q-37 -10 -68 -29q60 -2 43 -2q123 0 123 70zM368 481q0 -10 -29 -12v119q2 6 8 10h10q6 -4 11 -10v-107zM386 295q-2 -6 -8 -10h-10l-11 10l11 10h10q6 -4 8 -10zM526 1049q-8 0 -26 -2q-16 -4 -25 8l-90 127q-25 55 -47 55l-2 -2q-38 -52 -86 -106q-71 -80 -96 -80 q0 45 67 133q45 59 78 106q14 27 39 27q29 0 76 -80q37 -51 112 -158v-28z" />
<glyph unicode="&#xf5;" horiz-adv-x="658" d="M341 1331h-25q0 15 13 21q12 -9 12 -21zM341 1280q-16 0 -23 12l11 11q12 -7 12 -23zM349 1223q0 -35 -20 -58q-15 23 -15 90v15q35 0 35 -47zM341 1114q-16 0 -23 12l11 11q12 -7 12 -23zM339 1059h-21v8h21v-8zM611 246q0 -144 -219 -234v-137q-4 -6 -14 -10h-10 q-11 4 -15 10v137q-100 13 -168.5 83t-81.5 171l-20 -10v8q0 21 -14.5 59.5t-14.5 59.5v338q0 80 43 123v-148q47 168 182 240h-88q31 35 88 35q27 -10 43 -10h7q6 4 18 10l21 -21q3 -1 38 -10q80 -21 139 -81q66 -65 66 -142v-471zM492 754q0 10 -8 10t-8 -8v-4q0 -7 8 -7 t8 9zM484 207v137q-6 -30 -12 -51q-10 -33 -31 -37v557q0 10 -49 10h-14q0 -9 -6 -53q-4 -29 -4 -53q0 -8 2 -23.5t2 -23.5q0 -47 -19 -54q-14 2 -20 13v196q-37 0 -68 -20q-35 -22 -35 -57v-531q0 -10 10 -29.5t19 -19.5h94v78q4 6 15 10h10q6 -4 8 -10v-78 q-37 -10 -68 -29q60 -2 43 -2q123 0 123 70zM368 481q0 -10 -29 -12v119q2 6 8 10h10q6 -4 11 -10v-107zM386 295q-2 -6 -8 -10h-10l-11 10l11 10h10q6 -4 8 -10zM524 1133q-27 -43 -31 -48q-14 -14 -43 -14q-30 0 -103 47t-103 47q-13 0 -39.5 -9t-38.5 -9q0 26 24.5 53 t49.5 27q31 0 105 -48t105 -48q13 0 37.5 10t36.5 10v-18z" />
<glyph unicode="&#xf6;" horiz-adv-x="658" d="M341 1331h-25q0 15 13 21q12 -9 12 -21zM341 1280q-16 0 -23 12l11 11q12 -7 12 -23zM349 1223q0 -35 -20 -58q-15 23 -15 90v15q35 0 35 -47zM341 1114q-16 0 -23 12l11 11q12 -7 12 -23zM339 1059h-21v8h21v-8zM611 246q0 -144 -219 -234v-137q-4 -6 -14 -10h-10 q-11 4 -15 10v137q-100 13 -168.5 83t-81.5 171l-20 -10v8q0 21 -14.5 59.5t-14.5 59.5v338q0 80 43 123v-148q47 168 182 240h-88q31 35 88 35q27 -10 43 -10h7q6 4 18 10l21 -21q3 -1 38 -10q80 -21 139 -81q66 -65 66 -142v-471zM492 754q0 10 -8 10t-8 -8v-4q0 -7 8 -7 t8 9zM484 207v137q-6 -30 -12 -51q-10 -33 -31 -37v557q0 10 -49 10h-14q0 -9 -6 -53q-4 -29 -4 -53q0 -8 2 -23.5t2 -23.5q0 -47 -19 -54q-14 2 -20 13v196q-37 0 -68 -20q-35 -22 -35 -57v-531q0 -10 10 -29.5t19 -19.5h94v78q4 6 15 10h10q6 -4 8 -10v-78 q-37 -10 -68 -29q60 -2 43 -2q123 0 123 70zM368 481q0 -10 -29 -12v119q2 6 8 10h10q6 -4 11 -10v-107zM386 295q-2 -6 -8 -10h-10l-11 10l11 10h10q6 -4 8 -10zM537 1146q0 -30 -21 -51t-51 -21q-72 0 -72 72q0 71 72 71t72 -71zM295 1142q0 -68 -72 -68q-69 0 -69 68 q0 28 20.5 48.5t48.5 20.5q72 0 72 -69z" />
<glyph unicode="&#xf7;" horiz-adv-x="883" d="M690 1098l-4 -4l-4 4l4 6zM979 707q-78 4 -78 20v31q2 8 2 12q12 10 31 10q45 0 45 -73zM965 666q0 -35 -35 -35q0 35 35 35zM774 760h-8v10h8v-10zM887 662q0 -44 -15 -58q-10 31 -10 58h25zM475 944q0 -37 -10 -49q-18 -15 -39 -31q-8 0 -23.5 3t-23.5 3q-15 0 -24 17 t-7 32l9 51q2 12 24 25.5t35 13.5q59 0 59 -65zM141 1196q0 -47 -45 -47q0 18 2 29q6 18 43 18zM707 672q-11 -10 -48 -24.5t-51 -14.5h-393q-59 0 -59 63q0 64 59 64h393q58 -23 99 -82v-6zM475 454q0 -37 -10 -49q-18 -15 -39 -31q-8 0 -23.5 3t-23.5 3q-15 0 -24 17 t-7 32l9 51q2 12 24 25.5t35 13.5q59 0 59 -65zM362 518q-12 0 -35.5 -7t-35.5 -7q0 53 71 53v-39zM197 535l-7 -5l-4 5l7 4zM129 555l-6 -4l-4 4l4 4zM172 510l-4 -4l-4 4l4 6zM31 516h-11v8z" />
<glyph unicode="&#xf8;" horiz-adv-x="737" d="M381 1331h-25q0 15 13 21q12 -9 12 -21zM381 1280q-16 0 -23 12l11 11q12 -7 12 -23zM389 1223q0 -35 -20 -58q-15 23 -15 90v15q35 0 35 -47zM381 1114q-16 0 -23 12l11 11q12 -7 12 -23zM379 1059h-21v8h21v-8zM651 246q0 -144 -219 -234v-137q-4 -6 -14 -10h-10 q-11 4 -15 10v137q-101 13 -169 83t-81 171l-20 -10v8q0 21 -14.5 59.5t-14.5 59.5v338q0 80 43 123v-148q47 168 182 240h-88q31 35 88 35q27 -10 43 -10h7q6 4 18 10l21 -21q3 -1 38 -10q80 -21 139 -81q66 -65 66 -142v-471zM532 754q0 10 -8 10t-8 -8v-4q0 -7 8 -7t8 9z M524 207v137q-6 -30 -12 -51q-10 -33 -31 -37v404l-63 -355q6 -4 8 -10q-2 -6 -8 -10h-4l-5 -29h9q6 -4 8 -10v-78q-18 -5 -34 -12l-4 -18q23 -1 14 -1q122 0 122 70zM447 823h-15h-14q0 -9 -6 -53q-4 -29 -4 -53q0 -8 2 -23.5t2 -23.5q0 -47 -19 -54q-14 2 -20 13v196 q-37 0 -68 -20q-35 -22 -35 -57v-531q0 -10 10 -29.5t19 -19.5h28l55 301h-3v119q2 6 8 10h10q4 -3 7 -6l40 220q1 6 3 11z" />
<glyph unicode="&#xf9;" horiz-adv-x="632" d="M335 1088h-67l-205 224h129zM874 1145q0 -53 -37 -144q-41 -104 -51 -141l-59 -244q-35 -145 -39 -245l-19 -21v-78q-32 -22 -32 -71q-33 0 -56 43q0 -217 -67 -217q-25 0 -63 39.5t-60 39.5q-17 0 -77.5 -44t-96.5 -44q-66 0 -117 69q-47 63 -47 132v680q0 13 24 27 q21 12 35 12q13 0 38.5 -14.5t25.5 -24.5v-676q0 -51 59 -76q47 -20 103 -20q40 0 75 33.5t35 72.5v666q0 10 26 24.5t38 14.5q23 0 44 -18t21 -41v-596l19 28v666l24 20q21 -7 21 -39l14 -481l25 21v12q0 116 55 360q67 293 119 293q20 0 20 -18zM708 223h-20v21h20v-21z M366 205q-16 -21 -35 -21q-52 0 -94 72q-37 65 -37 123v598l19 20l24 -20v-674q0 -39 44 -68q36 -24 79 -30zM645 178q0 -18 -35 -33v11q18 22 35 22z" />
<glyph unicode="&#xfa;" horiz-adv-x="632" d="M874 1145q0 -53 -37 -144q-41 -104 -51 -141l-59 -244q-35 -145 -39 -245l-19 -21v-78q-32 -22 -32 -71q-33 0 -56 43q0 -217 -67 -217q-25 0 -63 39.5t-60 39.5q-17 0 -77.5 -44t-96.5 -44q-66 0 -117 69q-47 63 -47 132v680q0 13 24 27q21 12 35 12q13 0 38.5 -14.5 t25.5 -24.5v-676q0 -51 59 -76q47 -20 103 -20q40 0 75 33.5t35 72.5v666q0 10 26 24.5t38 14.5q23 0 44 -18t21 -41v-596l19 28v666l24 20q21 -7 21 -39l14 -481l25 21v12q0 116 55 360q67 293 119 293q20 0 20 -18zM708 223h-20v21h20v-21zM366 205q-16 -21 -35 -21 q-52 0 -94 72q-37 65 -37 123v598l19 20l24 -20v-674q0 -39 44 -68q36 -24 79 -30zM645 178q0 -18 -35 -33v11q18 22 35 22zM560 1315l-205 -223h-67l143 223h129z" />
<glyph unicode="&#xfb;" horiz-adv-x="632" d="M874 1145q0 -53 -37 -144q-41 -104 -51 -141l-59 -244q-35 -145 -39 -245l-19 -21v-78q-32 -22 -32 -71q-33 0 -56 43q0 -217 -67 -217q-25 0 -63 39.5t-60 39.5q-17 0 -77.5 -44t-96.5 -44q-66 0 -117 69q-47 63 -47 132v680q0 13 24 27q21 12 35 12q13 0 38.5 -14.5 t25.5 -24.5v-676q0 -51 59 -76q47 -20 103 -20q40 0 75 33.5t35 72.5v666q0 10 26 24.5t38 14.5q23 0 44 -18t21 -41v-596l19 28v666l24 20q21 -7 21 -39l14 -481l25 21v12q0 116 55 360q67 293 119 293q20 0 20 -18zM708 223h-20v21h20v-21zM366 205q-16 -21 -35 -21 q-52 0 -94 72q-37 65 -37 123v598l19 20l24 -20v-674q0 -39 44 -68q36 -24 79 -30zM645 178q0 -18 -35 -33v11q18 22 35 22zM514 1062q-8 0 -26 -2q-16 -4 -25 8l-90 127q-25 55 -47 55l-2 -2q-38 -52 -86 -106q-71 -80 -96 -80q0 45 67 133q45 59 78 106q14 27 39 27 q29 0 76 -80q37 -51 112 -158v-28z" />
<glyph unicode="&#xfc;" horiz-adv-x="632" d="M874 1145q0 -53 -37 -144q-41 -104 -51 -141l-59 -244q-35 -145 -39 -245l-19 -21v-78q-32 -22 -32 -71q-33 0 -56 43q0 -217 -67 -217q-25 0 -63 39.5t-60 39.5q-17 0 -77.5 -44t-96.5 -44q-66 0 -117 69q-47 63 -47 132v680q0 13 24 27q21 12 35 12q13 0 38.5 -14.5 t25.5 -24.5v-676q0 -51 59 -76q47 -20 103 -20q40 0 75 33.5t35 72.5v666q0 10 26 24.5t38 14.5q23 0 44 -18t21 -41v-596l19 28v666l24 20q21 -7 21 -39l14 -481l25 21v12q0 116 55 360q67 293 119 293q20 0 20 -18zM708 223h-20v21h20v-21zM366 205q-16 -21 -35 -21 q-52 0 -94 72q-37 65 -37 123v598l19 20l24 -20v-674q0 -39 44 -68q36 -24 79 -30zM645 178q0 -18 -35 -33v11q18 22 35 22zM505 1174q0 -30 -21 -51t-51 -21q-72 0 -72 72q0 71 72 71t72 -71zM263 1170q0 -68 -72 -68q-69 0 -69 68q0 28 20.5 48.5t48.5 20.5q72 0 72 -69z " />
<glyph unicode="&#xfd;" horiz-adv-x="713" d="M766 596h-25q0 14 12 20q13 -6 13 -20zM727 578h-25q0 14 12 18q13 -4 13 -18zM229 913q0 -6 -4 -14l-2 4l-2 10l2 15l2 2q4 -8 4 -17zM239 881l-4 -11q-4 2 -4 11q0 8 4 10zM249 840l-4 -9q-4 3 -4 11t4 10q4 -6 4 -12zM796 756q0 -10 -2 -31t-2 -31q-30 -39 -116 -88 q-99 -55 -128 -82q-65 -60 -88 -162l11 -2q26 0 47 31v-10l-78 -313q-4 108 -18 127q-15 -47 -72 -275q-68 -272 -219 -272q-43 0 -43 39q0 37 47 59q64 30 71 39q70 85 70 252q0 34 -2 41l-225 819q0 51 39 51q16 0 36 -12.5t23 -26.5l117 -508q7 -30 24 -30q33 0 60.5 24 t34.5 56l96 440q11 49 63 49q47 0 47 -34q0 -7 -2 -15q-82 -347 -77 -363q8 7 34 37q23 27 35 27q-2 59 -2 43q0 48 24.5 151t45.5 144v-15q0 -26 -15.5 -76.5t-15.5 -76.5q21 -82 31 -117h4q9 0 21 19.5t14 29.5l18 176h25v-84l6 -2l8 -2l21 21h10q22 0 22 -47zM186 264 q-55 -24 -166 -69q-43 -9 -123 -41q-16 -13 -35 -37l-8 10v68q33 20 167 65t165 45v-41zM-164 180q0 -26 -45 -26v6q0 47 24 47q21 0 21 -27zM541 1098q0 -30 -21 -51t-51 -21q-72 0 -72 72q0 71 72 71t72 -71zM299 1094q0 -68 -72 -68q-69 0 -69 68q0 28 20.5 48.5 t48.5 20.5q72 0 72 -69z" />
<glyph unicode="&#xfe;" horiz-adv-x="756" d="M532 1171l-4 -4l-4 4l4 4zM770 364q0 -41 -51 -41q8 80 37 80q14 0 14 -39zM657 452q0 -36 -4 -66v-15q0 2 -3 -4q-7 -34 -19 -58q-10 -31 -27 -86v37l-2 -4l-14 -45q-11 -53 -34 -97l-1 -2q-39 -75 -123 -75q-22 0 -50 16q-36 17 -84 53q-7 -2 -34 -6q0 -11 9.5 -31 t9.5 -30q0 -9 -25 -40l-25 -31l-24 21v-301q0 -39 -64 -39q-59 0 -59 39v1623q0 39 59 39q64 0 64 -39v-148l24 21l25 -31v-153q25 -31 25 -40q0 -10 -9.5 -30t-9.5 -31q27 -4 34 -6q48 36 84 53q28 16 50 16q84 0 123 -75l1 -2q23 -44 34 -97l14 -45l2 -4v37q0 109 -12 147 q-23 72 -107 86q15 21 39 21q25 0 47 -23q84 -88 84 -248v-63q0 -37 -1 -59t-1 -10v-14q4 -30 4 -66v-21q-1 -16 -1 -26q0 -11 1 -27v-21zM57 647q0 -13 -12 -19q-12 6 -12 19h24zM641 20h-21v10h21v-10zM554 885l-1 2q-5 10 -16 24q9 -12 17 -26zM475 270v459q0 20 -4 37 q-11 30 -36 55q-15 11 -36 19h-2h-124l-11 -6l-2 -2v-60q12 -26 21 -39q-7 -26 -21 -49v-369q14 -23 21 -49q-9 -13 -21 -39v-60l2 -2l11 -6h126q21 8 36 19q25 25 36 55q4 17 4 37zM554 114q-8 -14 -17 -26q11 14 16 24zM410 512h-25q0 12 12 28q13 -4 13 -28zM319 579 l-6 -4l-4 4l4 4zM340 530h-55q0 20 39 20q16 0 16 -20zM446 401q-14 0 -20 12q8 13 20 13v-25zM348 491h-10l10 10v-10zM367 391q0 -9 -9 -9q-8 0 -8 9v4q0 8 8 8h2q7 0 7 -8v-4z" />
<glyph unicode="&#xff;" horiz-adv-x="713" d="M766 596h-25q0 14 12 20q13 -6 13 -20zM727 578h-25q0 14 12 18q13 -4 13 -18zM229 913q0 -6 -4 -14l-2 4l-2 10l2 15l2 2q4 -8 4 -17zM239 881l-4 -11q-4 2 -4 11q0 8 4 10zM249 840l-4 -9q-4 3 -4 11t4 10q4 -6 4 -12zM796 756q0 -10 -2 -31t-2 -31q-30 -39 -116 -88 q-99 -55 -128 -82q-65 -60 -88 -162l11 -2q26 0 47 31v-10l-78 -313q-4 108 -18 127q-15 -47 -72 -275q-68 -272 -219 -272q-43 0 -43 39q0 37 47 59q64 30 71 39q70 85 70 252q0 34 -2 41l-225 819q0 51 39 51q16 0 36 -12.5t23 -26.5l117 -508q7 -30 24 -30q33 0 60.5 24 t34.5 56l96 440q11 49 63 49q47 0 47 -34q0 -7 -2 -15q-82 -347 -77 -363q8 7 34 37q23 27 35 27q-2 59 -2 43q0 48 24.5 151t45.5 144v-15q0 -26 -15.5 -76.5t-15.5 -76.5q21 -82 31 -117h4q9 0 21 19.5t14 29.5l18 176h25v-84l6 -2l8 -2l21 21h10q22 0 22 -47zM186 264 q-55 -24 -166 -69q-43 -9 -123 -41q-16 -13 -35 -37l-8 10v68q33 20 167 65t165 45v-41zM-164 180q0 -26 -45 -26v6q0 47 24 47q21 0 21 -27zM547 1125q0 -30 -21 -51t-51 -21q-72 0 -72 72q0 71 72 71t72 -71zM305 1121q0 -68 -72 -68q-69 0 -69 68q0 28 20.5 48.5 t48.5 20.5q72 0 72 -69z" />
<glyph unicode="&#x131;" horiz-adv-x="245" d="M243 205l-18 -21l-21 21v766l21 18l18 -18v-766zM184 57q0 -12 -21.5 -25.5t-35.5 -13.5q-13 0 -36.5 13.5t-23.5 25.5v844q0 14 24 27q21 12 36 12t36 -13t21 -26v-844z" />
<glyph unicode="&#x152;" horiz-adv-x="1200" d="M992 850l-6 -4l-4 4l4 4zM840 977l-11 -10h-10l-10 10l10 10h10zM791 965q-15 0 -21 12q6 12 21 12v-24zM953 588q0 -31 -14 -31q-16 0 -16 25v12q0 22 16 22q14 0 14 -28zM943 500q-4 -6 -10 -11q-6 5 -10 11v8q4 6 10 10q6 -4 10 -10v-8zM884 518q-4 -10 -19 -12v33h9 q8 -11 10 -21zM1140 90q0 -65 -41 -65h-211v-162q-6 -10 -29 -13v160l-14 15h-176q-39 26 -39 45v5q-82 -59 -175 -59q-113 0 -202 91t-89 204v733q0 177 235 299h-137q47 35 88 35q192 -43 280 -108v30q12 17 78 48q44 20 68 27q4 34 15 65q4 35 18 104q1 3 4.5 6.5 t5.5 3.5h15q24 0 24 -20t-16.5 -69.5t-16.5 -75.5q0 -6 -1 -11h265l20 -14h-288q-4 -14 -15 -21h274q17 0 38.5 -19t21.5 -36q0 -19 -11 -38q-13 -23 -30 -23h-303q-13 -8 -29 -25v-381l29 -35h243l21 -18h-166v-14q197 0 197 -64q0 -17 -12.5 -38t-28.5 -21h-254 q-13 -8 -29 -25v-381q0 -30 57 -30q23 0 31 2q4 18 14 20q13 -6 25 -27h195l30 -14l-10 -14h-215l186 -15q60 -5 60 -57zM943 369q-20 4 -20 12v70h20v-82zM943 205h-20v137h20v-137zM884 315q0 -14 -23 -14q0 12 13 31l6 -2l4 -6v-9zM884 244h-19v20h19v-20zM925 -20 q-6 -7 -13 -9l-4 4l-6 11q2 10 21 14l2 -10v-10zM125 301q-39 68 -39 129v653q0 62 39 129v-911zM886 -225q0 -27 -12 -29q-11 2 -11 12v35q0 8 11 12q12 -4 12 -30zM584 1190v4q0 8 -9 8q-8 0 -8 -8v-4q0 -8 8 -8h3q6 0 6 8zM625 1055v37q0 63 -39 90l-2 -4q20 -62 20 -134 h10zM855 754v12q-55 0 -69 -12h69zM625 233v773l-21 -9v-88l10 -10v-10l-14 -10v-480q0 -39 -45 -106q0 108 -5 322.5t-5 322.5q-13 -10 -68 -39q-12 -7 -26 -28q-14 -24 -23 -31q-10 4 -10 28q61 78 127 138v206q-13 11 -56 11h-38q-61 0 -106 -28q-54 -34 -54 -91v-10 q18 2 31 10q2 10 8 29h4q-8 0 22 -9q2 -10 4 -30q-4 -7 -10 -11q-10 2 -20 11q2 -7 2 -13q0 -39 -41 -39v-798q0 -14 14 -42t25 -32h88l-29 -25l10 -10l47 -2l62 2q35 1 76 33t41 65zM855 156q-3 4 -24 4h-21q-23 0 -24 -4q8 -4 28 -4h12q21 0 29 4zM498 1133h-13 q0 14 13 20v-20zM520 1059l-4 -4l-4 4q0 6 4 6zM537 1016h-11v10h11v-10zM336 928q0 -31 -35 -31v31h35zM412 813q0 -35 -35 -35q0 35 35 35zM373 727l-4 -4l-4 4l4 6zM330 741l-8 11h8v-11zM360 614q-4 -8 -10 -8q-20 0 -20 19q0 20 20 20q10 0 10 -20v-11zM360 586 q-6 -13 -20 -13v13h20zM360 524q-30 0 -30 17q0 18 30 18v-35zM360 477l-10 -8q-12 4 -12 20q14 0 22 -12z" />
<glyph unicode="&#x153;" horiz-adv-x="1148" d="M1037 1163q0 -19 -16.5 -69t-16.5 -76q0 -55 -51 -55q0 57 16 106q4 38 19 102q2 7 12 13h12q25 0 25 -21zM1037 928h-21v20h21v-20zM967 918q-2 -7 -8 -11h-10l-11 11q4 6 11 10h10l6 -4zM381 1331h-25q0 15 13 21q12 -9 12 -21zM381 1280q-16 0 -23 12l11 11 q12 -7 12 -23zM389 1223q0 -35 -20 -58q-15 23 -15 90v15q35 0 35 -47zM381 1114q-16 0 -23 12l11 11q12 -7 12 -23zM379 1059h-21v8h21v-8zM1067 582q0 -138 -41 -138h-313q-39 -26 -39 -45v-186q12 -25 31 -53h88l-31 -25h49q48 0 105.5 45t75.5 45q45 0 45 -37 q0 -43 -61 -99q-57 -52 -103 -64q-35 -9 -74 -9q-125 0 -195 109q-54 -65 -172 -113v-137q-4 -6 -14 -10h-10q-11 4 -15 10v137q-101 13 -169 83t-81 171l-20 -10v8q0 21 -14.5 59.5t-14.5 59.5v338q0 80 43 123v-148q47 168 182 240h-88q31 35 88 35q27 -10 43 -10h7 q6 4 18 10l21 -21q3 -1 38 -10q80 -21 139 -81q14 -14 25 -29q35 42 113 102h-77q6 35 77 35q32 0 154 -47q190 -73 190 -338zM942 713q0 10 -4 20l-2 -4l-2 -16l2 -15l2 -6q4 10 4 21zM891 764v12q0 45 -57 45h-29q-131 0 -131 -78v-157q22 11 103 84q71 64 112 82 q1 5 2 12zM940 586l-2 18q-5 -20 -46.5 -45t-41.5 -33h27q63 0 63 60zM893 662v26h-2l-4 -2l-14 -6q-14 -6 -70 -41q-67 -42 -108 -102l18 -11q14 31 31 31q6 -16 8 -31h72q0 13 53 47q16 10 16 89zM524 213v20q-16 2 -16 19q0 5 5.5 15t5.5 16q0 14 -1 31q-3 -11 -6 -21 q-10 -33 -31 -37v427q-12 9 -12 19q0 5 12 21v90q0 10 -49 10h-14q0 -9 -6 -53q-4 -29 -4 -53q0 -8 2 -23.5t2 -23.5q0 -47 -19 -54q-14 2 -20 13v196q-37 0 -68 -20q-35 -22 -35 -57v-531q0 -10 10 -29.5t19 -19.5h94v78q4 6 15 10h10q6 -4 8 -10v-78q-37 -10 -68 -29 q59 -2 44 -2q78 0 106 29v4q0 12 13 16q2 8 3 17h-5v10h5zM537 213h-13v-6v-4q10 2 13 10zM537 152v36q-10 0 -16 -2q-4 -11 -13 -20q3 -14 29 -14zM537 106q-6 13 -21 13q0 -19 13 -23zM699 688l-4 -4l-4 4l4 4zM713 645h-8v8h8v-8zM408 481q0 -10 -29 -12v119q2 6 8 10h10 q6 -4 11 -10v-107zM426 295q-2 -6 -8 -10h-10l-11 10l11 10h10q6 -4 8 -10z" />
<glyph unicode="&#x178;" horiz-adv-x="698" d="M475 1278l-4 -4l-4 4q0 6 4 6zM639 1253q0 -12 -2 -18l-145 -432q-35 -78 -74 -215q-8 -29 -4 -90q4 -60 4 -92v-365q0 -21 -21.5 -40t-42.5 -19q-12 0 -38.5 14t-26.5 24v549l-15 -401q-1 -32 -18 -39l-25 18v549q-36 74 -36 117q0 12 2 21q-138 411 -138 426 q0 36 45 36q44 0 54 -32l137 -451q3 -3 22 -31q12 -18 31 -18q41 0 53 41l129 430q18 59 68 59h29q12 -12 12 -41zM552 1426q0 -30 -21 -51t-51 -21q-72 0 -72 72q0 71 72 71t72 -71zM310 1422q0 -68 -72 -68q-69 0 -69 68q0 28 20.5 48.5t48.5 20.5q72 0 72 -69z" />
<glyph unicode="&#x2c6;" horiz-adv-x="639" d="M526 1139q-8 0 -26 -2q-16 -4 -25 8l-90 127q-25 55 -47 55l-2 -2q-38 -52 -86 -106q-71 -80 -96 -80q0 45 67 133q45 59 78 106q14 27 39 27q29 0 76 -80q37 -51 112 -158v-28z" />
<glyph unicode="&#x2da;" horiz-adv-x="374" d="M309 1314q0 -55 -84 -90v-29q-2 -3 -5 -4h-4q-4 1 -6 4v29q-84 11 -96 98l-7 -4v3q0 8 -5.5 23t-5.5 23v22q0 31 16 47v-57q18 65 70 93h-34q12 13 34 13q10 -4 16 -4h3q3 2 7 4l8 -8q1 0 15 -4q78 -21 78 -85v-74zM264 1402q-1 3 -3 4q-3 -1 -3 -3v-2q0 -3 3 -3q3 1 3 4 zM261 1299v53q-3 -16 -17 -34v106q-3 4 -19 4h-5q0 -6 -2 -20q-1 -4 -4.5 -11t-3.5 -10q-5 1 -7 5v37q-40 0 -40 -30v-96q0 -19 11 -19h36v30q3 3 6 4h4q2 -2 3 -4v-30q-14 -4 -26 -11q23 -1 16 -1q48 0 48 27z" />
<glyph unicode="&#x2dc;" horiz-adv-x="748" d="M563 1178q-27 -43 -31 -48q-14 -14 -43 -14q-30 0 -103 47t-103 47q-13 0 -39.5 -9t-38.5 -9q0 26 24.5 53t49.5 27q31 0 105 -48t105 -48q13 0 37.5 10t36.5 10v-18z" />
<glyph unicode="&#x2000;" horiz-adv-x="922" />
<glyph unicode="&#x2001;" horiz-adv-x="1845" />
<glyph unicode="&#x2002;" horiz-adv-x="922" />
<glyph unicode="&#x2003;" horiz-adv-x="1845" />
<glyph unicode="&#x2004;" horiz-adv-x="615" />
<glyph unicode="&#x2005;" horiz-adv-x="461" />
<glyph unicode="&#x2006;" horiz-adv-x="307" />
<glyph unicode="&#x2007;" horiz-adv-x="307" />
<glyph unicode="&#x2008;" horiz-adv-x="230" />
<glyph unicode="&#x2009;" horiz-adv-x="369" />
<glyph unicode="&#x200a;" horiz-adv-x="102" />
<glyph unicode="&#x2010;" horiz-adv-x="617" d="M571 1098l-4 -4l-4 4l4 6zM860 707q-78 4 -78 20v31q1 8 2 12q12 10 31 10q45 0 45 -73zM846 666q0 -35 -35 -35q0 35 35 35zM655 760h-8v10h8v-10zM768 662q0 -44 -15 -58q-10 31 -10 58h25zM22 1196q0 -47 -45 -47q0 18 2 29q6 18 43 18zM588 672q-11 -10 -48.5 -24.5 t-50.5 -14.5h-393q-59 0 -59 63q0 64 59 64h393q58 -23 99 -82v-6zM243 518q-13 0 -36 -7t-35 -7q0 53 71 53v-39zM78 535l-7 -5l-4 5l7 4zM10 555l-6 -4l-4 4l4 4zM53 510l-4 -4l-4 4l4 6zM-88 516h-11v8z" />
<glyph unicode="&#x2011;" horiz-adv-x="617" d="M571 1098l-4 -4l-4 4l4 6zM860 707q-78 4 -78 20v31q1 8 2 12q12 10 31 10q45 0 45 -73zM846 666q0 -35 -35 -35q0 35 35 35zM655 760h-8v10h8v-10zM768 662q0 -44 -15 -58q-10 31 -10 58h25zM22 1196q0 -47 -45 -47q0 18 2 29q6 18 43 18zM588 672q-11 -10 -48.5 -24.5 t-50.5 -14.5h-393q-59 0 -59 63q0 64 59 64h393q58 -23 99 -82v-6zM243 518q-13 0 -36 -7t-35 -7q0 53 71 53v-39zM78 535l-7 -5l-4 5l7 4zM10 555l-6 -4l-4 4l4 4zM53 510l-4 -4l-4 4l4 6zM-88 516h-11v8z" />
<glyph unicode="&#x2012;" horiz-adv-x="617" d="M571 1098l-4 -4l-4 4l4 6zM860 707q-78 4 -78 20v31q1 8 2 12q12 10 31 10q45 0 45 -73zM846 666q0 -35 -35 -35q0 35 35 35zM655 760h-8v10h8v-10zM768 662q0 -44 -15 -58q-10 31 -10 58h25zM22 1196q0 -47 -45 -47q0 18 2 29q6 18 43 18zM588 672q-11 -10 -48.5 -24.5 t-50.5 -14.5h-393q-59 0 -59 63q0 64 59 64h393q58 -23 99 -82v-6zM243 518q-13 0 -36 -7t-35 -7q0 53 71 53v-39zM78 535l-7 -5l-4 5l7 4zM10 555l-6 -4l-4 4l4 4zM53 510l-4 -4l-4 4l4 6zM-88 516h-11v8z" />
<glyph unicode="&#x2013;" horiz-adv-x="754" d="M570 1098l-4 -4l-4 4l4 6zM654 760h-8v10h8v-10zM729 607q-78 4 -78 20v31q2 8 2 12q12 10 31 10q45 0 45 -73zM141 1196q0 -47 -45 -47q0 18 2 29q6 18 43 18zM715 566q0 -35 -35 -35q0 35 35 35zM637 562q0 -44 -15 -58q-10 31 -10 58h25zM629 653q-11 -10 -48 -24.5 t-51 -14.5h-273q-59 0 -59 63q0 64 59 64h273q58 -23 99 -82v-6zM362 518q-12 0 -35.5 -7t-35.5 -7q0 53 71 53v-39zM197 535l-7 -5l-4 5l7 4zM129 555l-6 -4l-4 4l4 4zM172 510l-4 -4l-4 4l4 6zM31 516h-11v8z" />
<glyph unicode="&#x2014;" horiz-adv-x="980" d="M690 1098l-4 -4l-4 4l4 6zM979 707q-78 4 -78 20v31q2 8 2 12q12 10 31 10q45 0 45 -73zM965 666q0 -35 -35 -35q0 35 35 35zM887 662q0 -44 -15 -58q-10 31 -10 58h25zM141 1196q0 -47 -45 -47q0 18 2 29q6 18 43 18zM837 672q-11 -10 -48 -24.5t-51 -14.5h-583 q-59 0 -59 63q0 64 59 64h583q58 -23 99 -82v-6zM362 518q-12 0 -35.5 -7t-35.5 -7q0 53 71 53v-39zM197 535l-7 -5l-4 5l7 4zM129 555l-6 -4l-4 4l4 4zM172 510l-4 -4l-4 4l4 6zM31 516h-11v8z" />
<glyph unicode="&#x2018;" horiz-adv-x="234" d="M184 1416l-20 -166q-2 -14 -23 -26.5t-36 -12.5q-57 0 -57 67q0 59 25 94q46 65 83 65q31 0 28 -21z" />
<glyph unicode="&#x2019;" horiz-adv-x="234" d="M184 1370q0 -59 -25 -94q-46 -65 -83 -65q-31 0 -28 21l20 166q2 14 23 26.5t36 12.5q57 0 57 -67z" />
<glyph unicode="&#x201a;" horiz-adv-x="241" d="M184 70q0 -59 -25 -94q-46 -65 -83 -65q-31 0 -28 21l20 166q2 14 23 26.5t36 12.5q57 0 57 -67z" />
<glyph unicode="&#x201c;" horiz-adv-x="388" d="M354 1416l-20 -166q-2 -14 -23 -26.5t-36 -12.5q-57 0 -57 67q0 59 25 94q46 65 83 65q31 0 28 -21zM184 1416l-20 -166q-2 -14 -23 -26.5t-36 -12.5q-57 0 -57 67q0 59 25 94q46 65 83 65q31 0 28 -21z" />
<glyph unicode="&#x201d;" horiz-adv-x="388" d="M354 1370q0 -59 -25 -94q-46 -65 -83 -65q-31 0 -28 21l20 166q2 14 23 26.5t36 12.5q57 0 57 -67zM184 1370q0 -59 -25 -94q-46 -65 -83 -65q-31 0 -28 21l20 166q2 14 23 26.5t36 12.5q57 0 57 -67z" />
<glyph unicode="&#x201e;" horiz-adv-x="388" d="M354 70q0 -59 -25 -94q-46 -65 -83 -65q-31 0 -28 21l20 166q2 14 23 26.5t36 12.5q57 0 57 -67zM184 70q0 -59 -25 -94q-46 -65 -83 -65q-31 0 -28 21l20 166q2 14 23 26.5t36 12.5q57 0 57 -67z" />
<glyph unicode="&#x2022;" horiz-adv-x="537" d="M490 576q0 -114 -172 -185v-36q-3 -5 -11 -8h-8q-9 3 -12 8v36q-79 11 -132.5 66t-64.5 134l-15 -8v7q0 16 -11.5 46.5t-11.5 46.5v46q0 63 34 97v-117q37 132 143 189h-69q24 28 69 28q21 -8 34 -8h5q5 3 14 8l17 -17q2 0 30 -8q62 -17 109 -63q52 -52 52 -112v-150z " />
<glyph unicode="&#x2026;" horiz-adv-x="713" d="M186 72q0 -37 -10 -49q-18 -15 -39 -31q-8 0 -23.5 3t-23.5 3q-15 0 -24.5 17t-6.5 32l9 51q2 12 24 25.5t35 13.5q59 0 59 -65zM416 72q0 -37 -10 -49q-18 -15 -39 -31q-8 0 -23.5 3t-23.5 3q-15 0 -24.5 17t-6.5 32l9 51q2 12 24 25.5t35 13.5q59 0 59 -65zM646 72 q0 -37 -10 -49q-18 -15 -39 -31q-8 0 -23.5 3t-23.5 3q-15 0 -24.5 17t-6.5 32l9 51q2 12 24 25.5t35 13.5q59 0 59 -65z" />
<glyph unicode="&#x202f;" horiz-adv-x="369" />
<glyph unicode="&#x2039;" horiz-adv-x="371" d="M331 624q4 -16 -8 -25l-127 -90q-55 -25 -55 -47l2 -2q52 -38 106 -86q80 -71 80 -96q-44 0 -133 67q-59 45 -106 78q-27 14 -27 39q0 29 80 76q51 37 158 112h28q0 -8 2 -26z" />
<glyph unicode="&#x203a;" horiz-adv-x="371" d="M331 462q0 -25 -27 -39q-47 -33 -106 -78q-88 -67 -133 -67q0 25 80 96q54 48 106 86l2 2q0 22 -55 47l-127 90q-12 9 -8 25q2 18 2 26h28q107 -75 158 -112q80 -47 80 -76z" />
<glyph unicode="&#x2044;" horiz-adv-x="471" d="M352 1235l-213 -1180q-7 -39 -39 -39q-20 0 -20 11v67l215 1180q7 39 39 39h12q6 -4 6 -10v-68z" />
<glyph unicode="&#x205f;" horiz-adv-x="461" />
<glyph unicode="&#x2122;" horiz-adv-x="1168" d="M924 923h-14q0 7 7 12q7 -4 7 -12zM901 912h-15q0 8 7 11q8 -3 8 -11zM1082 606q0 -5 -12 -17q-8 8 -14 17v428q-15 33 -15 100l-15 -23v-581q0 -24 -38 -24t-38 24v428l-9 18q-23 -7 -47 -30.5t-24 -46.5q0 -4 1 -15h26l-37 -108l-13 36h-6q-47 -141 -62 -141 q-22 0 -38 55q-22 72 -23 74q-5 -20 -23 -25q-24 -7 -28 -11v-146q0 -25 -17 -25q-6 0 -12 13v135q-10 -7 -30 -17v-182q0 -37 -36 -37q-40 0 -40 25v167q-105 0 -150 -62l-5 6v41q52 22 155 59v528q0 7 15.5 15t23.5 8q33 0 67 -93v100l15 12q9 -6 15 -16 q12 -19 42.5 -111.5t30.5 -109.5q-18 0 -41 65q-17 47 -29 84v-15q0 -84 14 -142q7 -30 44 -138q10 -29 25 -58q22 11 57 53q3 53 10 86q2 3 8 3q14 0 18 -30l94 270q14 40 47 40q44 0 40 -57q31 76 42 76l12 -12v-693zM470 1262q0 -37 -24 -37h-88l-20 -20v-669 q0 -36 -38 -36q-7 0 -22.5 8.5t-15.5 14.5v676q0 11 -30 24v-588q-1 0 -11 -21l-4 -2l-14 11v600q-80 0 -80 39q0 37 76 37q-11 27 -23 27h-88l-12 8q5 11 24 11h229q19 0 24 -11l-13 -8h-88q-11 -9 -17 -21q0 -5 2 -8h198q10 0 22.5 -12.5t12.5 -22.5zM367 673 q0 -15 -27 -15v3q0 28 14 28q13 0 13 -16zM817 899l-40 -40h5q24 0 35 40zM706 829v12l-35 105v-143l3 2q11 7 32 24zM635 788v207l-6 -1q-6 -6 -17 -18v-154q0 -32 17 -40z" />
<glyph unicode="&#xe000;" horiz-adv-x="930" d="M0 930h930v-930h-930v930z" />
<glyph unicode="&#xfb01;" horiz-adv-x="684" d="M668 1386l-4 -4l-4 4l4 7zM625 1286q0 -61 -59 -61q-62 0 -62 61q0 23 19.5 40t42.5 17t41 -17t18 -40zM682 205l-18 -21l-21 21v766l21 18l18 -18v-766zM623 57q0 -12 -21.5 -25.5t-35.5 -13.5q-13 0 -36.5 13.5t-23.5 25.5v844q0 14 24 27q21 12 36 12t36 -13t21 -26 v-844zM234 1368q-12 -10 -26 -10h-12q10 4 28 10h10zM402 1286q0 -34 -69.5 -59t-69.5 -56v-194q0 -22 64.5 -38t64.5 -44q0 -26 -66.5 -42t-66.5 -42v-754q0 -10 -25.5 -24.5t-37.5 -14.5t-38 14.5t-26 24.5v754l-20 18v-645l-25 -18l-25 18v676q-14 8 -14 33q0 7 5 20 t5 19q0 24 -39 55l39 39q2 37 8 133q6 75 46 121v-254l16 -10q15 315 217 315q57 0 57 -45z" />
<glyph unicode="&#xfb02;" horiz-adv-x="731" d="M729 74q0 -45 -51 -45q-72 0 -122 78q-44 69 -44 145v1051q0 13 22.5 25.5t36.5 12.5q7 0 64 -28v88l24 18l19 -18v-1108q-31 57 -39 127v-225q0 -17 45 -58t45 -63zM234 1368q-12 -10 -26 -10h-12q10 4 28 10h10zM402 1286q0 -34 -69.5 -59t-69.5 -56v-194 q0 -22 64.5 -38t64.5 -44q0 -26 -66.5 -42t-66.5 -42v-754q0 -10 -25.5 -24.5t-37.5 -14.5t-38 14.5t-26 24.5v754l-20 18v-645l-25 -18l-25 18v676q-14 8 -14 33q0 7 5 20t5 19q0 24 -39 55l39 39q2 37 8 133q6 75 46 121v-254l16 -10q15 315 217 315q57 0 57 -45z" />
<glyph unicode="&#xfb03;" horiz-adv-x="1123" d="M1107 1386l-4 -4l-4 4l4 7zM1064 1286q0 -61 -59 -61q-62 0 -62 61q0 23 19.5 40t42.5 17t41 -17t18 -40zM1121 205l-18 -21l-21 21v766l21 18l18 -18v-766zM1062 57q0 -12 -21.5 -25.5t-35.5 -13.5q-13 0 -36.5 13.5t-23.5 25.5v844q0 14 24 27q21 12 36 12t36 -13 t21 -26v-844zM673 1368q-12 -10 -26 -10h-12q10 4 28 10h10zM841 1286q0 -34 -69.5 -59t-69.5 -56v-194q0 -22 64.5 -38t64.5 -44q0 -26 -66.5 -42t-66.5 -42v-754q0 -10 -25.5 -24.5t-37.5 -14.5t-38 14.5t-26 24.5v754l-20 18v-645l-25 -18l-25 18v676q-14 8 -14 33 q0 7 5 20t5 19q0 24 -39 55l39 39q2 37 8 133q6 75 46 121v-254l16 -10q15 315 217 315q57 0 57 -45zM234 1368q-12 -10 -26 -10h-12q10 4 28 10h10zM402 1286q0 -34 -69.5 -59t-69.5 -56v-194q0 -22 64.5 -38t64.5 -44q0 -26 -66.5 -42t-66.5 -42v-754q0 -10 -25.5 -24.5 t-37.5 -14.5t-38 14.5t-26 24.5v754l-20 18v-645l-25 -18l-25 18v676q-14 8 -14 33q0 7 5 20t5 19q0 24 -39 55l39 39q2 37 8 133q6 75 46 121v-254l16 -10q15 315 217 315q57 0 57 -45z" />
<glyph unicode="&#xfb04;" horiz-adv-x="1170" d="M1168 74q0 -45 -51 -45q-72 0 -122 78q-44 69 -44 145v1051q0 13 22.5 25.5t36.5 12.5q7 0 64 -28v88l24 18l19 -18v-1108q-31 57 -39 127v-225q0 -17 45 -58t45 -63zM673 1368q-12 -10 -26 -10h-12q10 4 28 10h10zM841 1286q0 -34 -69.5 -59t-69.5 -56v-194 q0 -22 64.5 -38t64.5 -44q0 -26 -66.5 -42t-66.5 -42v-754q0 -10 -25.5 -24.5t-37.5 -14.5t-38 14.5t-26 24.5v754l-20 18v-645l-25 -18l-25 18v676q-14 8 -14 33q0 7 5 20t5 19q0 24 -39 55l39 39q2 37 8 133q6 75 46 121v-254l16 -10q15 315 217 315q57 0 57 -45z M234 1368q-12 -10 -26 -10h-12q10 4 28 10h10zM402 1286q0 -34 -69.5 -59t-69.5 -56v-194q0 -22 64.5 -38t64.5 -44q0 -26 -66.5 -42t-66.5 -42v-754q0 -10 -25.5 -24.5t-37.5 -14.5t-38 14.5t-26 24.5v754l-20 18v-645l-25 -18l-25 18v676q-14 8 -14 33q0 7 5 20t5 19 q0 24 -39 55l39 39q2 37 8 133q6 75 46 121v-254l16 -10q15 315 217 315q57 0 57 -45z" />
</font>
</defs>
</svg>
