<?xml version="1.0" standalone="no"?>
<!DOCTYPE svg PUBLIC "-//W3C//DTD SVG 1.1//EN" "http://www.w3.org/Graphics/SVG/1.1/DTD/svg11.dtd" >
<svg xmlns="http://www.w3.org/2000/svg">
<metadata>
This is a custom SVG webfont generated by Fontspring.
</metadata>
<defs>
<font id="LarchmontCondensedRegular" horiz-adv-x="753" >
<font-face units-per-em="1000" ascent="800" descent="-200" />
<missing-glyph horiz-adv-x="325" />
<glyph unicode=" "  horiz-adv-x="325" />
<glyph unicode="&#x09;" horiz-adv-x="325" />
<glyph unicode="&#xa0;" horiz-adv-x="325" />
<glyph unicode="!" horiz-adv-x="198" d="M6 95q0 28 7 49q5 155 5 232q0 70 -1 125q0 55 -1 80v77q0 60 15 109h41q31 -38 77 -64h26v-19h-26v-25h43v-35h-43v-17q-5 -5 -6 -8h41q-7 -21 -9 -35h-41q-3 -24 -3 -25h41q-1 -6 -2 -17.5t-2 -17.5h-41q0 -9 -2 -25h41q0 -13 -2 -35h-40q0 -5 -0.5 -13.5t-0.5 -11.5 h40q0 -6 -0.5 -18t-0.5 -17h-39v-25h39q-1 -15 -1 -35h-38v-25h38v-35h-38v-25h38v-35h-38v-25h38v-35h-30q4 -16 5 -25h25q0 -4 0.5 -10t0.5 -8q-11 6 -25 8q0 -2 0.5 -6.5t0.5 -7.5q0 -14 -4 -36h25q9 -12 16 -35h-53q-8 -15 -19 -25h75q1 -3 1 -9q0 -14 -3 -26h-95 q-2 10 -2 16v7q-2 0 -4.5 -0.5t-3.5 -0.5q-28 0 -46.5 31.5t-18.5 77.5zM40 376q0 -126 -2 -185l6 3q13 10 27 10q16 0 30 -11q-1 45 -1 180q0 19 1 51.5t3.5 80.5t8.5 84t14 41v49q-41 24 -63 54h-19q-7 -25 -7 -75q0 -32 2 -156v-126zM29 95q0 -32 12 -53t30 -21 q19 0 31.5 21t12.5 53q0 43 -21 64q-15 10 -20 11h-4q-8 -2 -19 -9q-22 -20 -22 -66zM169 -61q-13 -32 -37 -35h-8q-23 3 -36 35h81zM120 109v-1v1z" />
<glyph unicode="&#x22;" horiz-adv-x="324" d="M318 682q0 -14 -2 -34h-46q-4 -12 -12 -25h55q-6 -24 -11 -35h-65l-24 -32q-18 22 -36 50q-1 -2 -2.5 -8.5t-2.5 -9.5h-65l-24 -32q-39 49 -58 95t-19 111q0 44 24 81t54 37q19 0 36.5 -16.5t27.5 -42.5q11 26 28.5 42.5t37.5 16.5q31 0 54.5 -37t23.5 -81q0 -4 -0.5 -10 t-0.5 -9h6q12 -15 18 -35h-28q-2 -16 -4 -25h35v-1zM266 762q0 29 -15.5 53.5t-36.5 24.5q-20 0 -36 -24.5t-16 -53.5q0 -53 12.5 -86.5t38.5 -67.5h2q1 1 2.5 3.5t2.5 3.5q0 5 -1 8h7q40 57 40 139zM135 762q0 29 -15.5 53.5t-35.5 24.5t-36 -24.5t-16 -53.5 q0 -53 12.5 -86.5t38.5 -67.5h2q1 1 2.5 3.5t2.5 3.5q0 5 -1 8h7q39 58 39 139zM265 528q-15 18 -24 35h50q-20 -31 -24 -35h-2zM135 528q-12 15 -24 35h49q-14 -24 -23 -35h-2zM140 648q-4 -9 -12 -25h40q-8 16 -11 25h-17z" />
<glyph unicode="#" horiz-adv-x="483" d="M368 580h45l-26 -98q62 2 89 4l-18 -86q-16 0 -44 1t-44 2v14q-3 -16 -10 -45.5t-9 -38.5l-18 -75q64 2 93 4l-18 -85q-28 0 -43 1q-23 0 -45 2v15l-23 -127h-43l27 113h-153v14q-17 -80 -23 -127h-45l8.5 35l8.5 35q3 10 11 42q-9 0 -38 -1t-44 -2l17 85q56 -4 80 -5 v-13q18 71 22 93l10 45q1 5 5 20q-12 -1 -37 -1q-14 -1 -46 -1l17 86h1q52 -4 78 -5v-14q1 3 9 44q7 33 13 69h44l-15 -61q-10 -36 -11 -39h66q58 0 87 1v-14q4 16 8 44q7 26 14 69zM209 256q59 0 87 1v-13q11 42 22 93l10 45q2 8 3 11t2 11q-27 1 -78 1t-77 -1v14l-20 -85 l-17 -77h68z" />
<glyph unicode="$" horiz-adv-x="473" d="M103 -57q-5 2 -8 6h59v25h-70q-3 11 -7 35h16q-16 4 -23 7q-14 4 -15 4q-40 16 -49 195h62q11 -27 19 -39q7 -11 42 -30q4 -3 25 -7q0 59 -1 87q0 17 -0.5 52.5t-0.5 54.5q-41 33 -63 55.5t-41.5 66t-19.5 98.5q0 77 32.5 137.5t93.5 77.5v116h87v-35h48v-35h-48v-25h48 v-29q2 0 3 1q10 6 49 6l3 -44q8 -1 21 -1l18 3q2 2 12 4h13l2 -35h-64l2 -25h64l3 -35h-64l2 -25h64l2 -22l-64 -1l1 -11l-65 -1q-2 4 -2 5v-5h-48v-25h48v-35h-48v-25h48v-35h-30q4 -3 10 -7h-1q29 -21 47.5 -37t38.5 -43t29 -58h17q21 -23 29 -35h-38q2 -8 2 -25h52 q5 -11 13 -35h-65q0 -5 -1 -13t-1 -12h72q3 -17 3 -35h-83q-1 -9 -7 -25h89q-2 -24 -4 -35h-100q-5 -9 -17 -25h111q-1 -5 -12 -35h-132q-20 -17 -41 -25h160q-8 -13 -26 -35h-163v-25h135q-39 -27 -87 -34v-1h-48v-23h-87v38q-20 5 -32 9q-17 5 -19 5zM177 -74h41v104 q71 10 112.5 66.5t41.5 139.5q0 43 -19 79.5t-39 55t-56 45.5q-2 1 -40 31v220l64 -29l21 -29h28l-10 124q-13 0 -21 -5q-3 0 -7.5 -1t-8.5 -1q-15 0 -44 7q-1 0 -7 0.5t-7 1.5l-8 2v112h-41v-111q-59 -9 -92.5 -62.5t-33.5 -122.5q0 -37 8.5 -66t30.5 -55t35 -37l47 -39v3 l3 -5q0 -44 1 -126.5t1 -126.5q-39 4 -55 13q-40 22 -50 37q-9 12 -17 29h-24q4 -117 27 -126q6 0 17 -4q57 -18 102 -21v-103zM315 200q0 -41 -29.5 -68t-67.5 -33v223q97 -65 97 -122zM103 597q0 24 22.5 46t51.5 27v-190q-36 32 -55 58.5t-19 58.5zM229 -146v35h60v-35 h-60zM289 -206h-60v35h60v-35zM292 200q0 8 -3 16v-2h-48v-25h48v-8q3 9 3 19zM131 574q6 -14 17 -25h6v25h-23zM241 626v-17h29q-9 11 -29 17zM154 627q-17 -10 -23 -18h23v18zM241 268v-19h22q-3 3 -11.5 10t-10.5 9zM241 141q8 3 24 13h-24v-13zM387 293l1 -1q0 -2 1 -2 v1z" />
<glyph unicode="%" horiz-adv-x="578" d="M314 786h92l-13 -58h33l-7 -35h-34l-5 -25h33l-7 -35h-34l-5 -25h33l-7 -35h-34l-5 -25h33l-7 -35h-34l-5 -25h33l-8 -35h-33l-5 -25h33l-2 -7q21 12 47 12q39 0 70.5 -37.5t46.5 -97.5q10 -16 15 -25h-10l3 -25h18q5 -11 11 -35h-26v-5q0 -14 -1 -20h33q1 -6 2.5 -17.5 t2.5 -17.5h-41q-1 -4 -2.5 -12.5t-2.5 -12.5h47v-7q0 -5 -0.5 -14.5t-0.5 -13.5h-58q-4 -12 -12 -25h67q-1 -13 -7 -35h-86q-15 -17 -30 -25h107q-8 -19 -18 -35v1q-1 0 -1 -1h-184q-6 11 -14 35h9q-37 23 -57 85h-33l-5 -25h33l-7 -35h-34l-5 -25h33l-7 -35h-51l5 26h-74 l73 334h-77q-12 7 -19 14q-56 6 -84.5 69t-28.5 157q0 96 38 152q44 61 99 61q48 0 85 -58h22q19 -19 28 -35h-32l9 -25h33zM143 752q-46 0 -83 -52q-31 -46 -31 -127q0 -84 25.5 -138t76.5 -54q48 0 84 53q33 48 33 127q0 77 -30.5 134t-74.5 57zM406 398q-46 0 -82 -51 q-32 -47 -32 -127q0 -84 26 -138t77 -54q47 0 83 53v-1q33 48 33 128q0 77 -30.5 133.5t-74.5 56.5zM330 752l-156 -718h44l156 718h-44zM124 453q-36 23 -36 141q0 49 10 69.5t36 20.5q29 0 43.5 -41t14.5 -98q0 -96 -54 -96q-8 0 -13 4h-1zM398 331q28 0 42 -41t14 -99 q0 -95 -52 -95q-26 0 -38.5 42.5t-12.5 102.5q0 49 10 69.5t37 20.5zM170 545q0 88 -28 103q-4 -10 -5 -15h-23q-4 -14 -4 -25h23q-2 -22 -2 -35h-21q0 -9 2 -25h19q2 -24 3 -35h-17q4 -17 12 -25h8q0 -3 1 -4q32 0 32 61zM432 191q0 53 -11 82h-46q-2 -14 -2 -25h30 q-9 -10 -14 -35h-15q0 -9 2 -25h11q-1 -9 -1 -29v-6h-3q7 -23 19 -23q30 0 30 61zM437 -87q-43 0 -72 35h148q-34 -32 -70 -35h-6zM250 -81h-50l5 29h51zM218 393q-13 -16 -26 -25h30l6 25h-10zM263 633q2 -7 4 -25h8l6 25h-18zM278 128q-2 16 -4 25h-7l-5 -25h16zM318 385 q1 1 3 4t3 4h-4z" />
<glyph unicode="&#x26;" horiz-adv-x="668" d="M484 574v-2h-69q48 -6 77 -6q4 0 18 1.5t22 1.5q51 3 65 3l-1 -85h66l-1 -28q-12 -1 -30 -7h-84q-16 -9 -27 -25h75q-13 -16 -21 -35h-68l-3 -8q-3 -9 -7 -17h68q-2 -8 -8 -22q-1 -2 -2.5 -6.5t-2.5 -6.5h-71q-2 -4 -7 -12.5t-7 -12.5h74l-9.5 -18.5l-8.5 -16.5h-76 q-5 -9 -15 -25h77q-10 -20 -21 -35h-78q-5 -8 -11 -15q1 -2 4 -5t4 -5h67q-13 -22 -23 -35q26 -15 56 -15q50 0 77 20l20 -32v-58h51v-39h-77q-19 -13 -38 -21h117v-35h-213q-18 18 -31 35h2q-27 10 -46 25h-107q-18 -16 -37 -25h149q-17 -20 -33 -35h-237q-12 14 -22 35h26 q-48 23 -74.5 74.5t-26.5 113.5q0 158 121 236q-36 78 -36 139q0 34 9 69t28.5 70t57 57t87.5 22q75 0 113 -61h41q16 -13 30 -35h-54q5 -12 6 -25h60q5 -14 10 -35h-64q0 -9 2 -25h65q2 -11 2 -33zM492 532q-22 0 -66 4v-33q30 -9 30 -37q0 -19 -12 -47 q-12 -32 -46.5 -87.5t-56.5 -84.5l-89 150q51 27 97 84t46 117q0 84 -36 119.5t-86 35.5q-44 0 -77 -18.5t-49.5 -47.5t-24.5 -58.5t-8 -58.5q0 -17 3 -34.5t10 -37t11.5 -29l14.5 -30.5l11 -23q-72 -38 -103.5 -91.5t-31.5 -129.5q0 -69 38 -118t106 -49q62 0 144 103v3 q27 -49 73.5 -77.5t93.5 -28.5q20 0 48 10.5t49 30.5v42l-3 5q-15 -13 -72 -13q-34 0 -72 22.5t-64 68.5q0 2 -3 5q28 38 65 100t52 102q1 2 4.5 13t5 14t5.5 13t7 14t8 12t10.5 12t13 9t16.5 7.5t19 3.5l2 38q-10 0 -42.5 -2.5t-40.5 -2.5zM171 596q0 40 28.5 66.5 t57.5 26.5q28 0 53 -19t25 -57q0 -44 -35 -92.5t-78 -72.5l-14 30q-37 74 -37 118zM105 230q0 85 85 131l101 -181q-28 -25 -51 -36.5t-57 -11.5q-32 0 -55 32.5t-23 65.5zM208 632q-11 -11 -14 -25h37q-6 -17 -6 -35h-28q5 -18 8 -25h22q3 -16 9 -35h-17q3 -5 7 -13l4 -8 q34 22 58.5 57t24.5 65q0 18 -15.5 28.5t-34.5 12.5q-7 -6 -19 -22h-36zM137 272q-4 -9 -8 -25h54q-15 -21 -21 -35h-32q5 -14 14 -25h9q0 -2 -2 -8q15 -13 32 -13q42 0 73 24q-10 17 -45 82h-74zM320 340l4 -8h-4q2 -4 4.5 -8.5t5 -8t5.5 -8.5h15q51 75 69 115 q-6 -7 -19.5 -18t-14.5 -12h-85q-6 -6 -9 -8q6 -12 9 -17h61q-25 -19 -41 -27zM219 -88q-53 3 -92 35h184q-40 -31 -77 -35h-15zM634 -53q-31 -29 -70 -35h-15q-42 3 -78 35h163zM425 436q4 10 5 16h-71q-11 -14 -22 -25h84zM403 528q-12 -28 -20 -41h20v41zM315 84 q-3 -3 -8.5 -9t-7.5 -8h29zM183 320q-6 -4 -18 -13h24q-3 5 -6 13z" />
<glyph unicode="'" horiz-adv-x="194" d="M188 682q0 -14 -2 -34h-46q-4 -12 -12 -25h55q-6 -24 -11 -35h-65l-24 -32q-39 49 -58 95t-19 111q0 44 23.5 81t54.5 37q30 0 54 -37t24 -81q0 -4 -0.5 -12t-0.5 -12l5 5q14 -17 18 -35l-27 -4q-2 -9 -4 -21h35v-1zM136 762q0 29 -15.5 53.5t-36.5 24.5q-20 0 -36 -24.5 t-16 -53.5q0 -53 12.5 -86.5t38.5 -67.5h2q26 34 38.5 67.5t12.5 86.5zM135 528q-12 15 -24 35h50q-20 -31 -24 -35h-2z" />
<glyph unicode="(" horiz-adv-x="174" d="M122 914h45q-45 -112 -61.5 -224t-16.5 -261q0 -318 76 -529h-43q-116 312 -116 529q0 202 116 485z" />
<glyph unicode=")" horiz-adv-x="174" d="M6 914h45q116 -283 116 -485q0 -217 -116 -529h-43q76 211 76 529q0 149 -16.5 261t-61.5 224z" />
<glyph unicode="*" horiz-adv-x="292" d="M161 500q-13 -20 -29 -20q-27 0 -46 59q-13 -4 -24 -4q-26 0 -43 32q-7 9 -8 14.5t-1 31.5q0 25 10 53q-13 25 -13 60q0 26 1 29v10q27 38 48 38l29 -6q18 65 47 65q28 0 47 -63q26 6 30 6q22 0 48 -41q0 -3 2 -6v-30q0 -30 -14 -61q1 -4 5 -12h35v-7q0 -13 -6 -28h-24 q1 -4 1 -12v-13h10q0 -1 -1 -2.5t-2 -2.5t-1 -2q11 -17 15 -28h-22q-1 -13 -5 -15.5t-14 1.5q-8 -9 -16 -12l62 1v-7q0 -18 -3 -20v3q-1 -3 -6 -11h-112zM132 822q-17 0 -32 -84v15q-2 0 -5.5 0.5t-5.5 1.5l-33 8q-10 0 -22 -16v-4q-1 -2 -1 -17q0 -28 22 -59 q-19 -28 -19 -54q0 -15 3 -18q9 -20 23 -20q18 0 38 10v13q15 -78 32 -78q16 0 31 76v-13q27 -11 44 -11q13 0 20 19v-3q3 2 3 20q0 33 -20 60q23 32 23 60v14l-2 6q-10 17 -22 17q-8 0 -37 -9q-2 0 -4 -1t-3 -1v-14q-15 82 -33 82zM182 440q-11 2 -20 35h43q-9 -32 -19 -35 h-4z" />
<glyph unicode="+" horiz-adv-x="281" d="M161 127h-42q6 92 6 140q-49 -1 -119 -5v85q58 -6 119 -6q-1 52 -6 140h42q-5 -117 -5 -140q50 0 118 6v-85q-77 4 -118 5q2 -69 5 -140z" />
<glyph unicode="," horiz-adv-x="215" d="M200 39q7 -18 8 -35h-50q-5 -19 -7 -25h58q0 -6 -0.5 -17.5t-1.5 -17.5h-68q-7 -17 -25 -49l-108 -62q54 132 64 164q-36 29 -36 98q0 45 19.5 77t46.5 32t46.5 -32t19.5 -77q0 -13 -1 -19q11 -3 20 -12h-20q0 -4 -0.5 -12.5t-1.5 -12.5h37zM57 95q0 -31 11.5 -52 t28.5 -22q-3 -33 -38 -121l41 23q44 74 44 172q0 31 -13 53t-31 22t-30.5 -22t-12.5 -53zM155 -96q-16 2 -26 15h75q0 -4 -6 -35h-46q0 1 1.5 8.5t1.5 11.5zM134 -176q7 22 12 35h44q-2 -9 -14 -35h-42zM111 -236q2 6 7 17.5t7 17.5h38l-4 -8z" />
<glyph unicode="-" horiz-adv-x="348" d="M6 224v147q74 -8 132 -8q74 0 144 7v-107q38 2 59 4v-25h-59v-18q-80 6 -142 6q-56 0 -134 -6zM29 334v-74q63 5 111 5q53 0 120 -5v74q-62 -6 -122 -6q-54 0 -109 6zM73 182v35h268v-35q-77 5 -138 5q-55 0 -130 -5z" />
<glyph unicode="." horiz-adv-x="187" d="M81 -36q-2 10 -2 17v6q-1 0 -3.5 -0.5t-3.5 -0.5q-27 0 -46.5 32t-19.5 77t19.5 77t46.5 32q28 0 47 -32t19 -77q0 -19 -3 -36h25q9 -12 16 -35h-53q-6 -13 -20 -25h76q1 -3 1 -9q0 -14 -3 -26h-96zM29 95q0 -31 12.5 -52.5t30.5 -21.5t31 21.5t13 52.5t-13 53t-31 22 t-30.5 -22t-12.5 -53zM129 -96q-26 0 -41 35h82q-15 -35 -41 -35z" />
<glyph unicode="/" horiz-adv-x="246" d="M188 832h51l-182 -833h-51z" />
<glyph unicode="0" horiz-adv-x="658" d="M222 -29q-24 22 -34 35h28q-85 35 -147.5 140t-62.5 232v6q0 153 87 272t189 119h4q73 0 139 -49h7q30 -11 63 -35h-31l22 -25h38q15 -15 30 -35h-44l13 -25h50q7 -11 21 -35h-55q3 -5 10 -25h57q12 -28 14 -35h-60q1 -4 2.5 -12.5t2.5 -12.5h63q1 -2 4.5 -15t4.5 -20 h-66q2 -16 2 -25h70q2 -13 4 -35h-72v-7v-18h75q1 -12 1 -35h-79q-1 -9 -3 -25h82q0 -2 -3 -35h-86q-3 -16 -7 -25h90q-6 -33 -6 -35h-96q-3 -9 -11 -25h101q-2 -5 -5.5 -17t-5.5 -18h-108q-2 -3 -15 -25h114q-7 -16 -17 -35h-124q-9 -12 -24 -25h135q-4 -7 -12 -19t-11 -16 h-156q-25 -17 -47 -25h182q-8 -9 -36 -35h-281zM286 741h-4q-94 0 -173.5 -108.5t-79.5 -248.5v-6q0 -140 80 -245.5t174 -105.5h3q100 0 183.5 104t83.5 253q0 148 -79 252.5t-188 104.5zM118 524v1l1 1q33 101 112 128q77 27 148 -28q90 -69 105 -218q3 -26 3 -54 q0 -111 -61 -183t-140 -72q-52 0 -96.5 48t-68.5 124h-2q-1 3 -1 10q-17 59 -17 122q0 58 13 108q2 8 4 11v2zM286 633q-41 0 -78 -27h42q-19 -19 -30 -35h-46q-12 -16 -17 -25h48q-10 -19 -17 -35h-46q-4 -7 -8 -25h45q-8 -30 -9 -35h-43q-1 -4 -1.5 -8t-1 -9t-0.5 -8h41 q-4 -24 -4 -35h-38q0 -5 1 -13t1 -12h34v-35h-29q1 -9 5 -25h25q2 -24 4 -35h-18q5 -15 10 -25h12q2 -15 8 -35h-1q48 -77 111 -77q71 0 125 62t54 158q0 125 -54 202t-125 77zM357 -89q-50 0 -104 35h217q-55 -32 -102 -35h-11z" />
<glyph unicode="1" horiz-adv-x="253" d="M201 135q0 -24 1 -35h-5l6 -3v-82q6 -20 21 -35h-127q12 13 17 24h-11q-34 0 -92 -7v97q37 24 40 35v244q0 220 -13 227l-32 36v61q25 9 54 31.5t44 42.5h38q6 -21 9 -38l1 1h40q6 -28 6 -34h-41q0 -5 0.5 -13t0.5 -12h42q1 -10 1 -32v-3h-42v-25h42v-35h-42 q0 -4 -0.5 -12.5t-0.5 -12.5h42v-35h-42q0 -4 -0.5 -12.5t-0.5 -12.5h43v-35h-43v-25h43q0 -7 -0.5 -18.5t-0.5 -16.5h-42v-25h42v-35h-42v-25h42v-35h-42q0 -17 1 -25h41v-35h-40v-25h41v-35h-39q0 -15 1 -23v-2h39zM103 39q28 0 78 -5v38q-38 19 -41 62q-5 109 -5 242 q0 26 0.5 142t0.5 140q0 54 -8 78h-15q-13 -19 -38 -39t-46 -27v-17l19 -22q8 -4 13.5 -40t8 -84t3.5 -81.5t1 -52.5q0 -55 -0.5 -139t-0.5 -106q-3 -34 -39 -56v-38q42 5 69 5zM157 -75q-33 0 -81 -5v35h170v-35q-55 5 -89 5z" />
<glyph unicode="2" horiz-adv-x="556" d="M155 611q-7 -11 -17 -35h-29q-3 -6 -7 -17.5l-5 -14.5l-72 -1l43 202q110 38 161 38q73 0 130 -52h20q28 -13 53 -35h-43q3 -4 8.5 -12.5t8.5 -12.5h50q16 -20 25 -35h-59q1 -4 4 -12.5t4 -12.5h64q7 -16 12 -35h-69q2 -8 2 -25h73q2 -13 4 -35h-77q0 -5 -1 -13t-1 -12 h79q0 -19 -3 -35h-83q-1 -2 -9 -25h87q-1 -5 -12 -35h-92q-5 -9 -17 -25h97q-16 -26 -24 -35h-105q-14 -13 -31 -25h113q-23 -23 -41 -35h-123q-2 -1 -6 -4t-6 -4q-7 -5 -28 -17h127q-11 -8 -30.5 -20l-24.5 -15h-113q-16 -18 -21 -25h99q-17 -15 -36 -35h-85q-1 -2 -4.5 -8 t-4.5 -9q211 3 260 44h69v-64q-13 -34 -34 -69l2 2h113v-16h-124q-10 -16 -20 -25h136l-16 -35h-455q4 14 6 22h-47l-24 47q0 11 14 62.5t48.5 124.5t76.5 107q23 19 50 37q40 29 63.5 48t44.5 45.5t21 48.5q0 54 -26 90.5t-81 36.5q-59 0 -88 -34h26zM229 748 q-44 0 -145 -32l-28 -138h28q19 52 36 69q31 32 97 32t98 -46t32 -115q0 -25 -10.5 -47.5t-33.5 -45.5t-42 -38l-54.5 -41l-51.5 -38q-39 -30 -70.5 -92t-43.5 -105t-12 -53l12 -25h87q8 6 113 2t120 -4t16 1q17 1 36 29.5t33 66.5v20h-40q-54 -44 -279 -44h-19 q1 33 34.5 89.5t79.5 87.5q10 7 31 20l33.5 21t32 23t31.5 27t26.5 31t22.5 37.5t13.5 43.5t5.5 53q0 85 -54 148t-135 63zM66 -53v4h445q-22 -33 -41 -34q-2 0 -3 -1h-37q-23 1 -86 3.5t-83.5 2.5t-79.5 -4h-101z" />
<glyph unicode="3" horiz-adv-x="511" d="M484 63q-9 -19 -19 -35h-154q-25 -16 -50 -25h186q-11 -13 -35 -35h-331l-5 35q-19 5 -20 6q-16 4 -27 4l-23 137l9 44h47q15 -30 47.5 -50.5t71.5 -20.5q55 0 89.5 26.5t34.5 72.5q0 41 -22.5 73t-82.5 32q-26 0 -98 -36v134q60 40 109.5 84.5t49.5 64.5q0 67 -33 67 q-65 0 -175 -75v129q39 36 90 61.5t85 25.5q86 0 131 -59h36q23 -14 38 -35h-55q2 -6 7 -25h63q8 -21 10 -35h-67v-17v-8h70q1 -5 1 -14q0 -14 -1 -21h-73q-1 -13 -6 -25h76q-2 -13 -10 -35h-78q-3 -9 -13 -25h81q-3 -7 -21 -35h-83q18 -16 26 -25h38q-14 -16 -21 -23 q16 -24 22 -37h13q15 -12 34 -35h-33q4 -9 8 -25h42q7 -11 19 -35h-55q1 -6 1 -17q0 -2 -0.5 -4.5t-0.5 -3.5h64q8 -24 9 -35h-76q-2 -16 -4 -25h84v-12v-23h-95q-3 -9 -11 -25h102q-1 -8 -8 -35h-116q-14 -18 -22 -25h130zM29 159v-7l17 -105q71 -23 143 -23q35 0 72 14 t70 41t54 72t21 100t-35.5 113.5t-84.5 75.5q83 74 83 171q0 62 -36.5 99t-104.5 37q-31 0 -75.5 -21.5t-77.5 -50.5v-56q80 56 153 56q21 0 34.5 -18.5t17.5 -39t4 -43.5q0 -31 -50 -81.5t-110 -90.5v-63q44 22 76 22q39 0 66.5 -14t39.5 -37t17 -44t5 -44q0 -61 -41 -97 t-106 -36q-44 0 -79.5 20.5t-50.5 49.5h-22zM376 -57q-55 -32 -115 -35h-24q-76 2 -132 21q-17 6 -18 6l-1 8h290zM369 388l-2 3l-1 -1q2 -2 3 -2z" />
<glyph unicode="4" horiz-adv-x="539" d="M78 124l-2 11h180v25h-183l-2 16h-50l-15 102l236 471q0 1 3 5.5t4 5.5q9 15 15 21t15 6h41q35 0 41 -52h63q3 -9 3 -23v-12h-64v-25h64v-35h-64v-25h64v-35h-64v-25h64v-35h-64v-25h64v-35h-64v-25h64v-35h-64v-25h64v-10h29q-3 -61 -17 -110h94q-2 -17 -7 -35h-99 q-9 -18 -16 -25h109l-3.5 -10t-3.5 -11q-1 -7 -5 -14h-142q1 -8 1 -22v-3h126q-11 -11 -28 -11h-36q0 -15 1 -24h-28l6 -3v-22h22q2 -24 2 -35h-24v-25h28q6 -20 21 -35h-126q13 15 17 23q-15 1 -39 1q-35 0 -93 -7v98q33 20 38 29h-176zM39 210h240q0 -23 -1 -51v-31 q0 -33 -40 -56v-38q43 5 71 5t76 -5v38q-38 20 -41 62q0 13 -0.5 39.5t-1.5 36.5h30q30 0 43 43q17 57 17 77h-28q-7 -8 -23 -22q-19 -14 -41 -23v432q0 36 -20 36h-41q-4 0 -19 -25l-229 -458zM279 620v-337h-180l170 364h8q2 0 2 -27zM257 317v143h-48q-7 -13 -11 -25h55 l-16 -35h-56q-2 -4 -5.5 -12.5t-5.5 -12.5h56l-17 -35h-56q-1 -4 -5 -11.5t-5 -11.5h114zM391 -75q-32 0 -82 -5v35h171v-35q-57 5 -89 5zM237 520q-4 -9 -12 -25h32v25h-20zM363 332l8 7q1 0 1 1h-9v-8zM257 561q-1 -1 -2 -3t-2 -3h4v6z" />
<glyph unicode="5" horiz-adv-x="534" d="M512 695v-7h-77q0 -7 -2 -25h76l-3 -35h-76q-4 -30 -4 -38l-44 1q-9 21 -24.5 32t-28.5 13t-34 1h-13q-13 0 -43 -3h-1l-1 -6h-39l-3 -25h40l-4 -35h-41l-3 -25h40l-3 -35h-41l-1 -11q21 8 48 8q66 0 122.5 -34t81.5 -108h28q18 -18 27 -35h-46q2 -18 4 -25h56 q7 -16 12 -35h-67q0 -2 0.5 -6t0.5 -5q0 -10 -1 -14h73q4 -21 5 -35h-81q-5 -22 -6 -25h88v-5q0 -12 -2 -30h-97q-9 -20 -12 -25h106q-8 -33 -9 -35h-120q-12 -15 -23 -25h133q-9 -19 -19 -35h-157q-21 -15 -49 -25h187q-11 -13 -35 -35h-329l-8 35h3q-1 0 -8 2t-11 4 q-16 4 -25 4l-46 186h75q23 -30 56.5 -53t64.5 -23q53 0 88.5 33.5t35.5 81.5q0 26 -7.5 52.5t-31.5 50.5t-60 24q-45 0 -105 -37l-58 44q13 104 22 194q0 2 1 8.5t1 9.5q4 34 4 51q0 29 -20 53l5 73q65 0 179 6l20 2q39 4 72 4q80 0 87 -50h67q11 -10 10 -28zM154 447 l25 216l30 3q8 0 28 2q28 4 45 4h15.5h17.5t16 -1t17 -2.5t14.5 -5t14.5 -8.5t10.5 -12.5t8.5 -17.5v-1h10l7 79q3 20 -14 28t-51 8q-19 0 -72 -5l-19 -1q-76 -6 -160 -6l-1 -24q18 -23 18.5 -63t-5.5 -75q-12 -119 -20 -174l34 -25q53 33 104 33q44 0 73 -30.5t38.5 -64 t9.5 -66.5q0 -63 -41.5 -106t-104.5 -43q-36 0 -71.5 23t-57.5 53h-35l29 -118q3 0 15 -5q51 -18 129 -18q75 0 145 64t70 169q0 59 -18 102.5t-47.5 66.5t-62 34t-68.5 11q-34 0 -76 -24zM110 -65l-2 8h285q-55 -30 -106 -35h-27q-77 2 -133 21z" />
<glyph unicode="6" horiz-adv-x="510" d="M152 -34q-10 11 -26 35h25q-75 30 -110 122t-35 215q0 96 29.5 197.5t88.5 176.5t129 75h6q11 0 41 -9q18 -5 30 -5q4 0 6 1h42l2 -53h68l2 -35h-68l2 -25h68l2 -35h-68l1 -25h69v-4h-68l1 -13h-57q-7 22 -17 42q-21 24 -48 27q-15 -14 -26 -27h-41q-6 -7 -18 -25h43 l-18 -35h-43l-9 -25h42q-3 -8 -7 -22q24 11 51 11q52 0 92.5 -29t64.5 -80h17q17 -13 34 -35h-38q2 -6 7 -25h47l9 -18.5l8 -16.5h-58q2 -16 2 -25h64q6 -20 8 -35h-70q0 -9 -2 -25h75l3 -35h-81q-2 -16 -4 -25h85q-2 -24 -3 -35h-91q-1 -2 -9 -25h97q-4 -24 -7 -35h-107 q-4 -9 -16 -25h116q-5 -16 -14 -35h-135q-17 -15 -43 -25h164q-16 -24 -26 -35h-278zM259 689q41 0 70 -36q8 -15 17 -35h18l-7 122h-18q-2 -1 -9 -1q-14 0 -35 6q-27 8 -36 8h-6q-64 0 -117 -69t-80 -163.5t-27 -182.5q0 -63 10 -117t31.5 -100t60 -72.5t91.5 -26.5 q88 0 135.5 71.5t47.5 178.5q0 99 -45 161.5t-119 62.5q-66 0 -127 -87v8q0 55 14.5 115t49.5 108.5t81 48.5zM233 428q46 0 69 -45q26 -54 26 -124t-33 -123t-77 -53q-42 0 -71 51.5t-29 124.5q0 71 31 121q29 48 84 48zM284 361q-9 16 -22 25h-64q-19 -9 -32 -30v-2 q1 1 2.5 3.5t2.5 3.5h75q-21 -13 -36 -35h-59q-2 -6 -7 -25h52q-6 -11 -14 -35h-42v-7v-18h36q-4 -21 -5 -35h-26q4 -16 8 -25h17v-1q0 -12 2 -34h-2q21 -29 48 -29q35 0 61 42.5t26 99.5q0 60 -21 102zM402 -59q-45 -32 -100 -35h-21q-57 3 -102 35h223zM142 486 q16 14 24 20h-20q-2 -6 -4 -20z" />
<glyph unicode="7" horiz-adv-x="517" d="M192 -20v20h-43q-19 0 -26 27t-7 85q0 128 40 265t116 254h-134q-28 0 -52 -35l-80 1l58 180h351l13 -42h71l12 -35h-72l7 -19l-6 -6h67q-10 -11 -30 -35h-68q-3 -4 -10 -12.5t-10 -12.5h69q-15 -20 -25 -35h-69l-16 -25h69q-11 -16 -21 -35h-70q-2 -5 -7 -13.5t-6 -11.5 h69q-12 -24 -17 -35h-69q-1 -2 -5 -11t-6 -14h68q-10 -24 -14 -35h-66q-1 -3 -2.5 -8t-1.5 -6q-2 -8 -3 -11h64q-2 -6 -10 -32v-3h-61q-2 -9 -6 -25h60q-1 -7 -3.5 -18.5t-3.5 -16.5h-58q0 -1 -3 -25h57q-4 -24 -6 -35h-54q0 -4 -0.5 -12.5t-1.5 -12.5h52q-2 -24 -3 -35h-50 v-25h48q-2 -24 -2 -35h-46q0 -17 -1 -25h45v-35h-47q-1 -14 -7 -25h54v-35h-91zM138 666h190q-91 -120 -140.5 -268t-49.5 -286q0 -78 11 -78h58q9 0 9 80q0 157 32 285q19 71 65.5 152.5t103.5 141.5l-16 49h-323l-36 -111v-1h35q23 36 61 36zM203 -80q-7 4 -9 35h88 q-2 -35 -10 -35h-69z" />
<glyph unicode="8" horiz-adv-x="510" d="M112 -38q-13 16 -22 35h32q-116 38 -116 212q0 107 71 181q-47 70 -47 157q0 112 61 172.5t148 60.5q89 0 134 -63h40q22 -17 35 -35h-55q2 -5 4.5 -13.5t3.5 -11.5h62q8 -14 13 -35h-67q0 -4 1 -12.5t1 -12.5h71q2 -11 4 -35h-74q-3 -23 -3 -25h77q0 -13 -4 -35h-81 q-5 -15 -10 -25h85q-5 -17 -16 -35h-90l-3 -3q-11 -11 -16 -17q2 -3 5 -5h83q-19 -20 -41 -35h-15l8.5 -14t6.5 -11h6q22 -19 36 -35h-27q5 -14 8 -25h38q8 -11 20 -35h-53q2 -18 2 -25h61q8 -21 10 -35h-74q-1 -9 -5 -25h82q2 -14 2 -22q0 -9 -1 -13h-94q-3 -9 -11 -25h102 q-1 -17 -8 -35h-115q-10 -15 -20 -25h126q-8 -19 -18 -35h-146q-25 -18 -43 -25h173q-20 -24 -31 -35h-306zM239 746q-78 0 -132 -51.5t-54 -147.5q0 -46 17.5 -90t47.5 -72q-40 -27 -64.5 -74.5t-24.5 -101.5q0 -92 41.5 -141t142.5 -49q75 0 133.5 67.5t58.5 150.5 q0 58 -29 108t-75 79q29 18 53 43q36 41 36 105q0 84 -39.5 129t-111.5 45zM164 343q55 1 116.5 -47t59.5 -102q0 -53 -43 -83t-99 -30q-48 0 -76 37.5t-28 98.5q0 50 26.5 88t43.5 38zM235 684q42 0 69 -30.5t27 -79.5q0 -43 -27.5 -78.5t-52.5 -35.5q-44 0 -87.5 42.5 t-43.5 89.5q0 40 34 67q29 25 81 25zM225 278q-10 0 -28 -16h-73q-6 -23 -6 -25h58q-12 -18 -19 -35h-40q1 -9 5 -25h26q-4 -21 -5 -35h-3q20 -26 58 -26q48 0 84 21t36 58q0 40 -52 76q-24 7 -41 7zM235 650q-11 0 -15 -1l-7 -5q-12 -8 -22 -22h-34q-13 -14 -14 -25h35 q-4 -13 -4 -30v-5h-23q6 -14 17 -25h10q1 -7 5 -14q33 -28 68 -28q19 0 38.5 24.5t19.5 54.5q0 34 -21 55t-53 21zM387 -63q-47 -31 -95 -35h-27q-78 4 -124 35h246zM164 309q-8 0 -18 -12h74q-34 12 -56 12z" />
<glyph unicode="9" horiz-adv-x="510" d="M440 60q-12 -24 -18 -35h-130q-16 -14 -37 -25h152q-15 -22 -27 -35h-258l-7 32q-18 4 -25 7l-7 3l-16 1l-37 164h75q9 -20 37 -38h-1q21 -14 58 -14q40 0 71 85h-61q-35 11 -61 35h37q-81 4 -130 75.5t-49 182.5q0 121 54 202.5t153 81.5q86 0 139 -62h30q25 -17 42 -35 h-47q3 -5 7 -14t5 -11h54q10 -16 18 -35h-58q4 -11 6 -25h63q7 -20 11 -35h-66q2 -7 4 -25h68q2 -11 6 -35h-71q2 -16 2 -25h73l3 -35h-74v-25h75q0 -6 0.5 -17.5t0.5 -17.5h-78q0 -9 -2 -25h79q0 -6 -0.5 -18t-0.5 -17h-81q-2 -16 -4 -25h83q-2 -24 -4 -35h-86 q-2 -9 -6 -25h89q-4 -24 -7 -35h-91q-3 -9 -9 -25h94q-1 -5 -9 -35h-99q-3 -9 -11 -25h102q-5 -19 -12 -35h-110q-15 -23 -17 -25h116zM199 85q-40 0 -66 17v-1q-31 22 -39 36v1h-32l21 -96q3 0 13 -4q38 -16 103 -16h2q85 0 144.5 123.5t59.5 282.5v6q0 153 -49 233 t-143 80q-89 0 -136.5 -71.5t-47.5 -177.5q0 -98 45 -161t119 -63q69 0 127 87v-8q0 -27 -7.5 -69t-21.5 -88t-38.5 -78.5t-53.5 -32.5zM201 342q-45 0 -68 44q-26 54 -26 125q0 70 33 123t76 53t72.5 -51.5t29.5 -124.5q0 -69 -32 -121q-31 -48 -85 -48zM201 377 q46 0 69 36q25 41 25 98q0 54 -19.5 94t-49.5 47q-17 -17 -24 -27h-36q-2 -2 -17 -25h38q-9 -19 -14 -35h-37q-1 -4 -2.5 -12.5t-2.5 -12.5h35q-4 -14 -7 -35h-30q0 -9 2 -25h27v-7q0 -19 1 -28h-22q1 -3 3.5 -11.5t4.5 -13.5h16q1 -16 6 -33q13 -10 34 -10zM131 -71l-3 11 h227q-43 -35 -87 -35h-17q-65 2 -106 19zM270 265q-31 -24 -67 -25h78q4 16 6 25h-17z" />
<glyph unicode=":" horiz-adv-x="187" d="M81 -36q-2 10 -2 17v6q-1 0 -3.5 -0.5t-3.5 -0.5q-27 0 -46.5 32t-19.5 77t19.5 77t46.5 32q28 0 47 -32t19 -77q0 -19 -3 -36h25q9 -12 16 -35h-53q-6 -13 -20 -25h76q1 -3 1 -9q0 -14 -3 -26h-96zM129 329q-23 0 -37 28q-9 -4 -20 -4q-27 0 -46.5 31.5t-19.5 76.5 q0 46 19.5 78t46.5 32q25 0 43 -26.5t22 -65.5h27q8 -13 13 -35h-40q-2 -16 -4 -25h47v-4q0 -17 -3 -31h-59q-9 -17 -24 -25h74q-16 -30 -39 -30zM29 461q0 -31 12.5 -52.5t30.5 -21.5t31 21.5t13 52.5t-13 53t-31 22t-30.5 -22t-12.5 -53zM29 95q0 -31 12.5 -52.5 t30.5 -21.5t31 21.5t13 52.5t-13 53t-31 22t-30.5 -22t-12.5 -53zM170 -61q-15 -32 -37 -35h-8q-22 3 -37 35h82z" />
<glyph unicode=";" horiz-adv-x="215" d="M200 39q7 -18 8 -35h-50q-5 -19 -7 -25h58q0 -6 -0.5 -17.5t-1.5 -17.5h-68q-7 -17 -25 -49l-108 -62q54 132 64 164q-36 29 -36 98q0 45 19.5 77t46.5 32t46.5 -32t19.5 -77q0 -13 -1 -19q11 -3 20 -12h-20q0 -4 -0.5 -12.5t-1.5 -12.5h37zM57 95q0 -31 11.5 -52 t28.5 -22q-3 -33 -38 -121l41 23q44 74 44 172q0 31 -13 53t-31 22t-30.5 -22t-12.5 -53zM155 -96q-16 2 -26 15h75q0 -4 -6 -35h-46q0 1 1.5 8.5t1.5 11.5zM134 -176q7 22 12 35h44q-2 -9 -14 -35h-42zM111 -236q2 6 7 17.5t7 17.5h38l-4 -8zM34 461q0 46 19.5 78t46.5 32 q20 0 36.5 -19.5t24.5 -49.5q15 -2 27 -18h-24q2 -16 2 -23v-5l35 3q5 -15 7 -35l-47 -3q-3 -14 -7 -22h53q-1 -19 -8 -35h-70q-14 -11 -29 -11q-27 0 -46.5 31.5t-19.5 76.5zM57 461q0 -31 12 -52.5t31 -21.5q18 0 31 21.5t13 52.5t-13 53t-31 22q-19 0 -31 -21.5 t-12 -53.5zM158 329q-14 0 -24 10h48q-10 -10 -24 -10z" />
<glyph unicode="&#x3c;" horiz-adv-x="281" d="M274 158v-80l-129 92q-62 43 -139 89v82q80 46 127 79q71 48 141 102v-80q-104 -65 -138 -89q-75 -53 -76 -54l89 -62q53 -36 125 -79z" />
<glyph unicode="=" horiz-adv-x="281" d="M6 173v85q54 -5 127 -5q82 0 141 5v-85q-77 5 -138 5q-55 0 -130 -5zM6 349v85q64 -6 127 -6q71 0 141 6v-85q-77 5 -138 5q-55 0 -130 -5z" />
<glyph unicode="&#x3e;" horiz-adv-x="281" d="M6 78v80q66 39 127 79q12 9 28.5 20l30 20.5l29.5 21.5q-14 11 -41.5 30l-34.5 24l-139 89v80q98 -72 143 -102q48 -33 125 -79v-82q-89 -54 -138 -89z" />
<glyph unicode="?" horiz-adv-x="476" d="M125 599q-19 -32 -20 -35h-24q-9 -19 -10 -25h25v-4h-26v-3l-1 -2l-63 2l22 129q7 45 69.5 88.5t118.5 43.5q68 0 115 -38q10 -2 36 -11h-23q13 -13 21 -25h44q19 -16 31 -35h-57q3 -7 8 -25h63q8 -18 11 -35h-69q2 -14 2 -21v-4h71q0 -3 0.5 -9.5t0.5 -9.5q0 -11 -1 -16 h-73q-2 -16 -4 -25h75q0 -3 -6 -35h-78q-5 -15 -10 -25h81q-5 -13 -17 -35h-85q-10 -15 -20 -25h89q-16 -21 -33 -35h-97q-21 -16 -38 -25h104q-26 -18 -57 -35h-107q-25 -16 -34 -25h32q10 8 14 14h43v-74h48v-35h-64q-8 -11 -27 -25h91v-21q-6 -10 -10 -14h-71q3 -8 5 -25 h37q-20 -14 -35 -17v-7q0 -14 -4 -36h28q12 -15 16 -35h-56q-9 -16 -19 -25h79v-9q0 -18 -2 -26h-96q-2 8 -2 24q-8 -2 -10 -2q-27 0 -46.5 32t-19.5 77q0 38 15 70q-54 22 -54 110q0 36 8 65.5t18.5 48.5t30 36.5t33.5 26.5t39 23v-1q28 16 41 25t33 26.5t28.5 38t8.5 45.5 q0 24 -27.5 35.5t-63.5 11.5q-6 0 -16 -2q-20 -13 -37 -30h-21q-16 -16 -23 -25h22zM216 759q-50 0 -105 -34.5t-61 -71.5v2l-15 -89v-1h18q9 45 53 85.5t94 40.5q44 0 79 -20.5t35 -61.5q0 -27 -8 -50.5t-18 -38t-30.5 -31.5t-32 -24.5t-37.5 -22.5q-28 -15 -43 -26 t-34 -30.5t-28 -47t-9 -63.5q0 -50 23 -67t58 -17q14 0 36 14t35 35v38h-13q-9 -13 -26 -20.5t-30 -7.5q-33 0 -33 29q0 28 27.5 51.5t74.5 50.5q34 19 53.5 33.5t45 41t38 63t12.5 84.5q0 69 -44 112.5t-115 43.5zM113 95q0 -31 12.5 -52.5t30.5 -21.5t31 21.5t13 52.5 q0 30 -13.5 52.5t-30.5 22.5q-18 0 -30.5 -22t-12.5 -53zM256 -61q-15 -32 -36 -35h-9q-23 3 -36 35h81z" />
<glyph unicode="@" horiz-adv-x="692" d="M675 437l6 -35h-92q0 -2 0.5 -7t0.5 -8v-10h93q1 -12 1 -35h-96q-2 -16 -4 -25h101q0 -6 -0.5 -17.5t-1.5 -17.5h-105q-1 -5 -3.5 -13.5t-3.5 -11.5h109q-4 -24 -7 -35h-115q-2 -4 -5.5 -12t-5.5 -12l119 -1l-12 -35l-131 2q-13 -16 -30 -27h149q-11 -21 -24 -35h-162 v-25h135q-29 -20 -62 -20q-55 0 -73 16v-7q-37 -34 -78 -49h152v-35h-345q-18 14 -36 35h49q-28 9 -53 25h-16q-2 4 -6.5 11l-6.5 10q-110 97 -110 320v8q0 157 83 269t205 112h8q78 0 142 -45q35 -9 64 -25h-33l24 -25h46q21 -18 37 -35h-59l15 -25h64q8 -11 22 -35h-70 l9 -25h74l15 -35h-79q4 -15 5 -25h82q5 -15 10 -35h-86q1 -4 1.5 -8t1 -9t0.5 -8h88zM401 266q-5 120 -5 195v30q0 37 -9.5 61t-28 34.5t-34.5 13.5t-39 3q-40 0 -73 -31.5t-33 -87.5q0 -20 9 -34h60v22q-2 2 -2 5q-1 4 -2 9v3q0 17 19.5 34t40.5 17q14 0 23 -11.5t9 -28.5 v-58q-10 -6 -64 -30q-46 -21 -76 -46q-32 -27 -32 -88q0 -46 29 -85.5t63 -39.5q21 0 44.5 14.5t37.5 46.5v-1q22 -42 38 -51t56 -9q60 0 97.5 68.5t37.5 165.5q0 148 -72 249.5t-193 101.5h-8q-112 0 -188.5 -102.5t-76.5 -244.5v-8q0 -180 74 -263.5t191 -83.5h4 q82 0 135 49v48h-26q-19 -12 -52 -24t-57 -12q-86 0 -142 74.5t-56 215.5q0 119 58.5 205t139.5 86h4q79 0 136.5 -85.5t57.5 -201.5v-4q0 -48 -15 -109.5t-47 -61.5q-16 0 -23.5 12t-9.5 38zM335 272v5q-14 -42 -68 -42q-15 0 -23 11.5t-9 22t-1 27.5q0 14 18 27.5t65 42.5 q15 10 19 12q0 -82 -1 -106zM502 -43q-48 -32 -121 -35h-28q-75 5 -131 35h280zM179 416q-17 21 -21 46h-28q0 -4 -2 -12.5t-2 -12.5h30q-4 -14 -7 -35h-26v-25h23q-2 -12 -2 -35h-19q0 -9 2 -25h17v-5q7 55 41 85q10 6 24 19h-30zM270 485v-38q35 14 44 19v34q0 5 -10 5 q-12 0 -23.5 -4.5t-13.5 -9.5q1 -2 1.5 -6t0.5 -6zM267 270q32 0 47 22v35q-55 -33 -57 -32q0 -25 10 -25zM419 402v-25h54v25h-54zM418 437h51q-2 18 -4 25h-47v-25zM420 342q1 -9 1 -25h45q3 24 3 25h-49zM285 638q30 0 50.5 -4t43 -23.5t31.5 -53.5h18q-53 86 -127 86h-4 q-27 0 -57 -15q25 10 45 10zM416 522q2 -16 2 -25h38q-2 5 -5 14t-4 11h-31zM423 267q0 -8 1 -10h22q8 10 12 25h-36q0 -10 1 -15zM337 162q-14 -18 -35 -31q24 2 49 11q-3 3 -7.5 10zM149 522l-9 -25h16l3 25h-10zM144 251q-2 8 -2 27v4h-8q3 -14 10 -31zM177 572 q-1 -2 -5 -7t-5 -8h3q4 10 7 15z" />
<glyph unicode="A" horiz-adv-x="741" d="M639 77h8l14 -31q1 -2 2 -5.5t1 -5.5h-24v-22h37q11 -19 32 -35h-156q7 14 7 28q-18 2 -24 2q-33 0 -115 -16l11 109q18 10 18 13q0 2 -1 5q-2 4 -2 6q-14 40 -34 110q-17 1 -45 1q-70 0 -116 -7q-1 -2 -4 -11h-41q-2 -9 -8 -25h41q-2 -5 -5.5 -17t-5.5 -18h-41l-9 -25 h41l-11 -35h-40l3 -4q4 -5 7 -7v-14h21q-2 -5 -5.5 -17t-5.5 -18h-10v-31l1 -13l-3 1q-1 -3 -1 -9q0 -5 1 -8h-91q15 10 30 26q-7 1 -19 1q-20 0 -44 -4q-5 -1 -25.5 -4.5t-21.5 -3.5l15 113q58 21 74 67l81 232q5 15 7 19l85 245q-5 17 -56 58l10 96q51 -7 102 -7h30 l28 -83h48l12 -35h-49l9 -25h48l12 -35h-49l9 -25h49l11 -35h-48l8 -25h49l11 -35h-48l8 -25h49l12 -35h-49l8 -25h49l12 -35h-49l8 -25h49l12 -35h-49l9 -25h48l12 -35h-49l9 -25h48l12 -35h-49l9 -25h49l11 -35h-48q5 -14 17 -25h39l14 -35h-6v-21zM551 151l-212 629h-15 q-36 0 -82 4l-4 -37q55 -44 55 -82l-2 -8l-176 -501q-21 -59 -74 -80l-6 -42q41 7 62 7q25 0 60 -7l-2 37q-11 13 -11 24q0 7 7 31l61 187q36 6 105 6q55 0 99 -6q2 -8 21.5 -73.5t30.5 -98.5q5 -15 5 -27q0 -29 -20 -40l-5 -40q56 10 88 10q29 0 81 -10l-1 41 q-49 23 -65 76zM315 387q-25 0 -75 2q60 169 77 223l34 -104t40 -119q-52 -2 -76 -2zM630 -71q-39 0 -98 -11l4 35h197l1 -35q-53 11 -104 11zM227 278q-1 -3 -3.5 -11.5t-4.5 -13.5h189q-4 14 -6 22q-2 2 -2 3h-173zM123 -74q-18 0 -68 -8l3 35h130l2 -35q-44 8 -67 8z M322 433q-2 -6 -4 -10h35q-11 33 -16 50l-6 -15h-40l-10 -25h41zM317 533l-14 -40h27q-3 6 -10 28q-1 3 -2 7v2q-1 1 -1 3z" />
<glyph unicode="B" horiz-adv-x="575" d="M107 1q0 1 1 3q-71 -2 -102 -7v104q30 17 38 30q11 24 11 29q5 79 5 150v86q0 114 -7 264q-3 28 -44 53v105q59 -9 103 -9l22 2h133q99 0 142 -84q19 -9 38 -27h-26q4 -9 7 -25h38q9 -14 17 -35h-49q2 -16 2 -25h54q4 -16 6 -35h-60q0 -9 -2 -25h64v-9q0 -5 -0.5 -13.5 t-0.5 -12.5h-69q-1 -5 -3.5 -13.5t-3.5 -11.5h73q-2 -15 -8 -35h-82q18 -13 30 -25h41q-9 -20 -17 -30q17 -24 27 -55q2 -2 6 -5t6 -5h-9q4 -12 6 -25h27l22 -35h-44q1 -8 1 -25h53q4 -11 10 -35h-64q0 -9 -2 -25h69q3 -33 3 -35h-79q-1 -2 -3.5 -11t-4.5 -14h86 q-2 -23 -4 -35h-98q-9 -16 -18 -25h111q-4 -17 -12 -35h-137q-12 -9 -40 -23l-5 -2h169q-9 -16 -28 -35h-416q7 7 17 21zM112 773q-45 0 -80 5v-40q41 -26 44 -76q7 -119 7 -266v-55q0 -108 -4 -184q-2 -20 -17 -48q-11 -20 -32 -33v-40q31 4 84 4q115 -2 158 -2 q90 0 147.5 50.5t57.5 160.5q0 76 -32.5 126.5t-88.5 72.5q57 50 57 150q0 88 -40.5 132t-105.5 44h-92q-14 0 -35.5 -0.5t-27.5 -0.5zM148 169q0 10 -0.5 45.5t-0.5 54.5q0 45 -0.5 83t-0.5 41q54 0 76 -2q13 -1 21 -1q81 0 122.5 -47.5t41.5 -117.5q0 -56 -35.5 -86 t-94.5 -30q-91 0 -108 13q-21 15 -21 47zM149 469v43q0 133 1 160q1 30 3 34h16q24 3 60 3q46 0 82 -27t36 -84q0 -66 -32 -98.5t-71 -32.5q-35 0 -57 0.5t-30 0.5zM200 255v-35h-30l1 -10v-15h29l1 -15v-20h-27q2 -5 5 -6q13 -10 98 -10q48 0 77 21t29 60q0 83 -68 115 h-146v-25h31v-35h-30v-25h30zM173 504q3 0 27 -0.5t45 -0.5q29 0 54 24t25 71q0 30 -18 47.5t-45 23.5q-20 0 -36 -2h-18q-2 -3 -3 -27h-31v-25h31q0 -4 -0.5 -16t-0.5 -19h-30v-25h30v-35h-30v-16zM70 -80v35h404q-56 -33 -133 -33q-1 0 -19.5 1t-59.5 1.5t-98 0.5 q-51 0 -94 -5zM229 673l-13 -1h28z" />
<glyph unicode="C" horiz-adv-x="701" d="M172 30q-10 11 -26 35h5q-67 57 -106 147.5t-39 194.5v11q0 174 98 299.5t243 125.5h4q14 0 130 -18l12 -2q32 -8 41 -8q6 3 11 3h31l13 -93h60l5 -35h-61l4 -25h60l5 -35h-60l3 -25h61l3 -28h-50l-16 21h-66q-38 56 -78 75t-94 19q-61 0 -113 -27h91q-37 -13 -68 -35 h-70l-22 -25h63q-15 -15 -30 -35h-55l-12 -25h51q-10 -16 -18 -35h-43q-4 -15 -5 -25h39q-5 -15 -10 -35h-32v-25h28q-4 -24 -4 -35h-22l2.5 -13t1.5 -12h16v-13q0 -15 1 -22h-7q26 -79 83 -131t123 -52h4q63 0 110 20.5t82 83.5h91l-47 -135h102l-9 -26h-101l-8 -25h100 l-11 -35h-139q-45 -20 -92 -29q39 0 59 4h163l-12 -35h-411q-23 18 -40 35h58q-29 10 -54 25h-26zM577 635l-20 147h-12q-1 0 -5 -1.5t-6 -1.5q-13 0 -40 6l-17 4q-71 17 -126 17h-4q-135 0 -226 -114.5t-91 -273.5v-11q0 -155 91 -267.5t215 -112.5h3q125 0 216 54l46 134 h-40q-36 -64 -86 -84.5t-118 -20.5h-4q-96 0 -171 98.5t-75 221.5v5q0 129 71 211.5t187 82.5q59 0 101.5 -19.5t80.5 -74.5h30zM405 -90q-68 0 -133 35h325q-86 -35 -189 -35h-3z" />
<glyph unicode="D" horiz-adv-x="748" d="M119 3l2 3q-75 -3 -106 -7v105q39 23 43 33q4 6 7 9.5t4 4.5t1.5 2t0.5 5v44v202q0 160 -5 267q-5 19 -60 62v96h30l8 -1q18 -2 81 -5q41 0 92 4q59 6 110 6q86 0 155.5 -43t116.5 -118h7q12 -11 34 -35h-22q6 -13 11 -25h29q13 -18 23 -35h-39q3 -9 7 -25h45 q1 -3 7 -15.5t8 -19.5h-52q1 -4 2.5 -12.5t2.5 -12.5h56l9 -35h-61q0 -5 0.5 -13t0.5 -12h66q1 -10 5 -35h-71q0 -17 -1 -25q28 -1 56 -1q13 0 15.5 -1t2.5 -6q2 -18 2 -27h-78q-1 -9 -3 -25h80q0 -6 -0.5 -18t-0.5 -17h-85q-2 -9 -6 -25h88q-1 -6 -2.5 -18t-1.5 -17h-94 q-5 -15 -10 -25h99q-3 -13 -9 -35h-107q-5 -9 -15 -25h113q-5 -17 -15 -35h-128q-14 -16 -27 -25h142q-7 -13 -25 -35h-173q-44 -22 -98 -31h8q36 0 67 6h173q-20 -20 -44 -35h-497q17 12 26 26zM327 796q-41 0 -109 -5q-51 -4 -93 -4q-36 0 -81 5h-13v-37q56 -45 59 -81 q6 -172 6 -270q0 -143 -1 -202v-47q-1 -14 -18 -43q-12 -18 -39 -33v-41q40 5 89 5q20 0 83 -5q72 -4 80 -4q353 3 353 379q0 159 -88.5 271t-227.5 112zM327 719q118 0 179.5 -96t61.5 -244q0 -140 -66 -202t-175 -62q-112 0 -162 31l-1 26q-4 168 -4 234v108q0 63 5 192 q38 13 162 13zM211 252v-35h-25l1 -25h25q1 -10 1 -28q54 -13 114 -13q98 0 157.5 53.5t59.5 174.5q0 104 -35 181.5t-104 106.5h-89q-71 -3 -99 -12l-1 -18h-30q-1 -9 -1 -25h29q0 -7 -0.5 -18.5t-0.5 -16.5h-29q-1 -8 -1 -25h29q-1 -13 -1 -35h-28v-25h28v-35h-28v-25h28 v-35h-28v-25h28v-35h-28l1 -25h27v-35h-26v-25h26zM174 -73q-54 0 -97 -5v30h465q-77 -33 -188 -36l-89 6q-68 5 -91 5zM327 682q-98 0 -139 -7v-5h210q-33 12 -71 12z" />
<glyph unicode="E" horiz-adv-x="553" d="M547 75q0 -11 -2 -35h-84q-7 -21 -11 -25h93q-1 -6 -2.5 -18t-1.5 -17h-447q11 9 24 27q-22 -2 -38 -3l-23 -2l-10 -2h-30v108q18 11 36 31t18 31v22q0 8 0.5 22.5t0.5 20.5q1 18 1 46v123q0 118 -7 268q0 23 -58 57v105l140 -11q3 0 22.5 2.5t65 5t112.5 2.5 q45 0 70.5 -16t26.5 -55q0 -15 1 -27h48q7 -8 7 -20v-15h-52q0 -15 1 -25h53q0 -4 1 -11.5t1.5 -13.5t0.5 -10h-26q-9 8 -30 16v-13h-40q-7 0 -18 13q0 1 -2 3v-1q-1 1 -1 2q-2 2 -18 11h-107q-33 -4 -42 -8q0 -1 -2 -23h-34q-1 -9 -1 -25h34q-1 -12 -1 -35h-33v-25h31v-24 v-11h-31v-16q13 0 29 -2h95q39 0 67 31h61q-12 -49 -15 -108h59q-1 -5 -3 -25h-57q-1 -9 -1 -25h56q0 -5 -0.5 -17t-0.5 -19h-55v-24h55v-35h-34q-19 19 -49 24h-176v-24h-30q0 -13 1 -19v-6h29v-35h-29l2 -25h28l1 -35h-16q25 -12 116 -12q45 0 65.5 11.5t28.5 53.5l76 6 q0 -66 -16 -144h77zM125 44h307q10 0 20 48t10 88l-34 -2q-8 -43 -32.5 -54.5t-79.5 -11.5q-24 0 -37.5 0.5t-38 3.5t-38.5 9t-25.5 18t-12.5 29q-1 20 -4 124q-1 29 -1 94q46 2 61 2q58 0 81 -3h3q19 -3 28 -5t21.5 -10.5t21.5 -23.5l20 -1q0 129 5 147h-18 q-31 -31 -75 -31h-97q-13 2 -51 2v126q0 55 5 120q9 4 32.5 6.5t42.5 2.5l19 1q57 0 97.5 -10.5t48.5 -26.5l4 -6h16l-5 81q0 35 -73 35q-71 0 -117.5 -2.5t-64.5 -5t-20 -2.5l-113 10v-43q53 -31 57 -78q6 -131 6 -271v-123q0 -19 -2 -89v-22q0 -20 -18 -48t-36 -38v-48 l16 2q60 6 71 6zM177 -72q-10 0 -78 -6l-17 -2v35h452q-7 -27 -13 -27h-344zM183 338v-23h180q-10 16 -20 23h-160zM186 682q0 -2 -0.5 -4t-0.5 -3h172q-41 12 -99 12q-12 1 -26 1q-34 0 -46 -6zM390 656l-2 2q1 -2 2 -2z" />
<glyph unicode="F" horiz-adv-x="519" d="M117 -20q14 16 18 25h-9q-27 0 -99 -8v104q41 26 43 38q0 18 0.5 49t0.5 44q1 18 1 49v127q0 136 -6 268q0 22 -54 55l-6 103h41q84 -8 99 -8h44q44 0 65 2l20 2q43 4 79 4q46 0 71 -15.5t25 -56.5q0 -14 2 -27h51q5 -8 5 -19v-16h-54q2 -18 2 -25h54q0 -7 1 -18.5 t1 -16.5h-56l-4 4h-57q-6 11 -18 22h-155q0 -2 -0.5 -5t-1 -9t-0.5 -12h-33v-25h33q-1 -10 -1 -35h-32v-25h32v-38q26 -2 40 -2q10 -1 32 -1q49 0 61 37h69q-12 -53 -12 -103v-13h55q0 -4 -0.5 -15.5t-0.5 -19.5h-52q0 -7 2 -25l50 -3v-32h-45q1 -5 3 -13h-62q-7 12 -8 13 h-168l1 -25h31v-35h-30v-25h31v-35h-30q1 -9 1 -25h30v-35h-29q0 -9 1 -12q3 -17 105 -38v-112q-14 1 -52 3q14 -11 41 -21h-166zM179 790h-33q-33 0 -100 8l-14 2l2 -43q52 -33 56 -78q6 -132 6 -271v-127q-2 -64 -3 -143q-2 -37 -42 -61v-41q45 5 75 5q92 0 144 -5v42 q-100 21 -105 66q-6 152 -6 263h135q58 -8 76 -44h19q-4 23 -4 85q0 55 2 67h-20q-13 -38 -76 -38q-23 0 -33 1l-60 4q-10 1 -35 1v113q0 98 3 122q0 2 61 4l61 3q47 0 80 -13t40 -32h23q0 6 -2.5 39.5t-2.5 42.5q0 36 -72 36q-16 0 -99 -6q-24 -2 -76 -2zM179 -75 q-35 0 -83 -5v35h241v-35q-58 5 -158 5zM188 689q0 -1 -0.5 -5t-0.5 -9h174q-31 14 -73 14q-11 0 -27 -2h-34q-21 0 -39 2zM446 280q-14 24 -37 35h55q2 -31 3 -35h-21z" />
<glyph unicode="G" horiz-adv-x="707" d="M700 297q-16 -10 -23 -27h-82l-1 -26h76q-2 -11 -4 -34h-73v-26h71q-2 -22 -2 -34h-69v-26h69v-34h-71q-4 -18 -7 -26h78v-34h-160q-3 -2 -9 -4l-3 -1q-32 -14 -57 -21h228q-2 -30 -6 -31q-15 -2 -16 -3h-405q-24 19 -38 34h61q-28 9 -57 26h-28q-15 16 -25 34h6 q-67 59 -107 150.5t-40 197.5v6q0 114 43.5 211t123.5 155.5t178 58.5q53 0 133 -25q0 -1 2 -1h2q33 -11 43 -11q9 0 41 6l8 -88h62l3 -32h-63l3 -28h62l4 -34h-63l2 -26h63l3 -32h-123q-34 71 -74.5 95.5t-92.5 24.5q-65 0 -116 -28h90q-37 -14 -64 -34h-71 q-13 -12 -23 -26h63q-16 -16 -29 -34h-55l-12 -26h50q-5 -8 -17 -34h-43q-4 -19 -5 -26h39q-3 -8 -10 -34h-32v-26h28q-4 -24 -4 -34h-22q2 -18 3 -26h17v-7q0 -19 1 -27h-9q24 -82 79.5 -136t123.5 -54q33 0 78 13.5t52 36.5v20q0 36 -1 50q-1 12 -1 34q-4 28 -7 36l-36 27 v100q75 -7 103 -7q14 0 59 5h34v-100q-14 -7 -21 -20l6 -1h10q16 0 66 5q2 0 6 0.5t5 0.5l-1 -10h-94q-4 -9 -7 -26h101v-7zM570 130v90q0 86 7.5 117t27.5 43v39q-1 0 -4 -0.5t-5 -0.5q-36 -4 -60 -4q-47 0 -79 4v-38q29 -23 33 -32q9 -22 9 -52l3 -83v-26 q-5 -40 -58.5 -61.5t-95.5 -21.5q-99 0 -170 101t-71 230t71 211.5t188 82.5q58 0 101 -25t78 -96h21l-14 164q-12 -2 -21 -2q-17 0 -49 12l-4 1q-71 23 -127 23q-138 0 -229.5 -113.5t-91.5 -273.5v-12q0 -155 92 -267.5t217 -112.5q61 0 143 32q49 19 82 26q6 1 6 45z M408 -90q-71 0 -134 34h288q-88 -34 -154 -34z" />
<glyph unicode="H" horiz-adv-x="685" d="M634 14q8 -20 24 -35h-132q12 9 19 24q-36 2 -44 2q-33 0 -69 -6h-36v107q47 17 49 34q2 100 2 199h-280l1 -25h26v-35h-26q0 -17 1 -25h25v-35h-24l1 -25h25v-35h-23q0 -8 1 -12q0 -8 5 -13h18v-15q9 -6 27 -13v-109q-4 1 -11 1q4 -9 17 -19h-136q15 17 19 26h-3 q-27 0 -99 -8v104q40 25 43 41q1 58 1 260q0 139 -6 268q-3 32 -43 66v98q88 -8 103 -8q6 0 19.5 1.5t18.5 1.5q25 3 68 3v-98h32v-25q-3 -2 -9 -5.5t-7 -4.5h-50q-7 -11 -10 -25h39q-6 -11 -12 -35h-30v-25h28q-1 -11 -1 -35h-27q-1 -8 -1 -25h28v-23q-1 -4 -1 -12h-27v-12 h10q96 -2 130 -2q96 0 140 1v39q0 83 -9.5 123.5t-42.5 62.5v103q77 -7 105 -7q1 0 4 0.5t8 1t9 0.5q38 4 80 4v-99h70v-23q-11 0 -20 -12h-76q-4 -7 -8 -25h73q-5 -12 -8 -35h-70q-2 -18 -2 -25h68q-2 -18 -3 -26v-10h-66q0 -3 -0.5 -11t-0.5 -13h67q-1 -13 -1 -35h-66v-25 h65v-35h-65v-25h65v-35h-65v-25h65v-35h-65l1 -26h25q24 0 39 1v-35h-63v-25h64v-35h-63q1 -9 1 -25h63v-35h-62l1 -11q0 -6 5 -14h57l1 -35h-19v-25h20q0 -4 0.5 -13.5t0.5 -15.5v-6h-21v-25h26zM501 42q31 0 84 -5v40q-42 22 -45 68q-6 188 -6 260q0 146 1 173 q3 178 43 179v39q-14 0 -45 -2.5t-33 -2.5q-37 0 -81 4v-40q32 -20 41.5 -66.5t9.5 -142.5v-74q-68 -4 -163 -4q-36 0 -164 4q0 95 1 121v46q0 45 9 72.5t39 43.5v40q-12 0 -42.5 -2.5t-40.5 -2.5q-26 0 -79 5v-37q40 -35 43 -86q6 -172 6 -270q0 -146 -2 -264 q-3 -37 -42 -61v-41q45 5 75 5q10 0 90 -5v41q-46 18 -51 67q-6 178 -6 250q106 2 164 2q48 0 128 -2h35q0 -141 -2 -255q-2 -46 -47 -62v-41q78 6 80 6zM158 -75q-33 0 -83 -5v34h181v-35q-68 6 -98 6zM587 -74q-20 0 -85 -7h-4v35h181v-33q-60 5 -92 5z" />
<glyph unicode="I" horiz-adv-x="272" d="M224 75q0 -7 2 -29v-6h-10v-25h11q2 -6 7 -11.5t14 -14t10 -9.5h-154q12 12 18 25h-12q-25 0 -100 -8v104q18 3 29 16t14 22q2 118 2 263q0 138 -6 268q-4 34 -43 64v100q85 -8 103 -8q5 0 49 4l14 1q9 0 38 7v-103h56v-25q-8 -4 -13 -10h-73q-6 -10 -8 -25h63 q-8 -21 -10 -35h-56l-1 -27h54v-20l-2 -13l-52 -3l-1 -22h53v-35h-53v-25h52v-35h-52v-25h52v-35h-52v-25h52v-35h-52q0 -17 1 -25h51v-35h-51q1 -8 1 -25h51v-35h-50l1 -25h49q1 -12 1 -35h-49q0 -10 1 -14q1 -6 4 -11q17 -1 34 -1q7 0 9 -1t2 -6t0.5 -14t0.5 -13h-7v-25h8 zM110 41q31 0 83 -5v41q-41 21 -44 67q-5 157 -5 260v174q0 53 2 71v19q3 66 40 88v39q-3 -1 -14 -1q-1 0 -5.5 -0.5t-7.5 -0.5q-33 -3 -50 -3q-26 0 -78 5v-38q38 -32 41 -85q6 -103 6 -270q0 -60 -0.5 -150t-0.5 -114q-3 -37 -43 -61v-41q47 5 76 5zM167 -75q-33 0 -83 -5 v35h181v-35q-58 5 -98 5z" />
<glyph unicode="J" horiz-adv-x="326" d="M287 663q-4 -16 -6 -35h-44v-25h42v-35h-42v-25h42v-35h-42v-25h42v-35h-42v-25h42v-35h-42v-25h42v-35h-42v-25h42v-35h-42q0 -17 -1 -25h43v-35h-44l-1 -25h44v-35h-47q-2 -16 -4 -25h51q-2 -26 -2 -35h-56q-1 -5 -3.5 -13.5t-3.5 -11.5h61v-5q-2 -12 -4 -30h-70 q-2 -5 -7 -13.5t-6 -11.5h79q-8 -33 -9 -35h-93q-4 -5 -12.5 -14.5t-9.5 -10.5h107q-10 -24 -15 -35h-137q-41 -24 -91 -32v125q57 18 82.5 63.5t31.5 125.5q5 64 5 148v73q0 28 -5 163v5q0 9 -1 25.5t-1 24.5l-1 15q0 2 -0.5 10t-0.5 13q-2 28 -87 57v109q7 -1 38.5 -3.5 l57.5 -4.5t37 -2q45 0 111 12v-104l-10 -8h56v-14q-13 -9 -21 -21h-58q-2 -16 -3 -25h50zM207 148v5q0 6 1 9q5 52 5 172v332q5 70 37 89v39q-49 -7 -88 -7q-18 0 -109 7v-41q84 -29 86 -83q1 -6 1.5 -20t0.5 -20q7 -170 7 -219v-73q0 -101 -4 -152q-8 -94 -33 -146t-80 -69 v-55q69 11 116.5 70.5t59.5 161.5zM46 -155q44 15 47 38h126q-1 -1 -27 -38h-146zM46 -215v38h118q-36 -25 -118 -38z" />
<glyph unicode="K" d="M194 172l2 -35h-18q12 -17 40 -32v-105q-66 6 -108 6q-37 0 -98 -7v104q40 26 41 39q2 58 2 262q0 138 -6 267q-2 35 -43 65v100q88 -8 103 -8h3t4 0.5t5.5 1t7.5 0.5q30 3 82 3q0 -79 5 -80h3q16 2 21 2v-18h-32q-12 -16 -18 -25h50q-20 -26 -24 -35h-42q-2 -9 -6 -25 h37q-6 -19 -9 -36h-30v-24h28q-2 -12 -2 -35h-24l1 -32q90 110 125 165q14 20 16 41q-2 -7 -12 -7h-3l-15 117q75 -9 118 -9q8 0 46 2q34 3 94 3l-18 -81q8 0 23 1t27 1.5t20 0.5l-5 -22h-69l-2 -9q-18 -8 -31 -16h97q-29 -12 -57 -35h-86q-13 -12 -25 -25h83 q-17 -17 -32 -35h-81q-14 -18 -21 -25h80l-28 -35h-79l-19 -25h78q-5 -7 -14.5 -19l-12.5 -16h-72q3 -4 17 -25h46q-6 -12 -6 -17q0 -9 9 -18h-30l13 -25h27q5 -5 11 -17.5t10 -17.5h-33q4 -12 11 -25h36q10 -19 17 -35h-39q1 -3 3 -7l7 -18h41q1 -1 7 -14.5l9 -20.5h-42 l11 -25h41q10 -24 15 -35h-40q4 -9 12 -25h39q2 -7 14 -35h-34q13 -23 14 -25h31l9 -20.5t7 -14.5h-23q6 -9 20 -25h15q5 -14 14 -29q30 -27 67 -39l27 -112h13q27 -23 50 -35h-107q-12 11 -34 35h46q-52 6 -97 32.5t-75 57.5t-61.5 85.5t-48 90t-42.5 98.5l-4 11l-41 93 l-19 -23h-60q0 -17 1 -25h39l-14 -17v-18h-25q1 -8 1 -25h24q1 -12 1 -35h-24l2 -25h22zM187 758v39q-13 0 -44 -2.5t-34 -2.5q-38 0 -78 5v-38q39 -31 42 -85q6 -129 6 -270q0 -205 -2 -264q-2 -36 -42 -62v-40q45 5 75 5q31 0 84 -5v40q-42 23 -44 68q-6 120 -6 214l68 85 q23 -23 50 -75.5t49 -110.5t53.5 -122t64.5 -114.5t81.5 -83.5t103.5 -33l-11 46q-51 16 -96 70.5t-78 125t-61.5 140.5t-58.5 129.5t-57 80.5l130 164q60 73 114 96l8 43q-16 0 -55.5 -3t-50.5 -3q-39 0 -89 6l6 -41q18 -1 18 -26q0 -36 -22 -70q-43 -67 -167 -216 q2 40 2 58q0 21 -1.5 57.5t-1.5 52.5q0 91 44 142zM74 -34q17 11 29 26h114q10 -15 31 -26v-9h-174v9zM747 -223h-10q-53 3 -103 35h104zM212 398l-38 -46h66q-16 28 -28 46zM157 -73q-35 0 -83 -5v10h174v-10q-58 5 -91 5z" />
<glyph unicode="L" horiz-adv-x="534" d="M528 73q-3 -13 -7 -35h-94q-13 -24 -14 -25h102q-3 -13 -11 -35h-405q12 12 21 27q-32 -1 -114 -10l15 110q16 10 32.5 31t17.5 33v234q0 138 -6 267q0 32 -42 65v100l9 -1q75 -7 93 -7q14 0 86 4q32 2 61 2v-100h40v-22q-25 -6 -43 -13h-66q-14 -13 -16 -25h50 q-12 -15 -17 -35h-34v-25h32v-35h-33v-25h32v-35h-32v-25h31v-35h-31v-25h31v-35h-31v-25h31v-35h-31v-25h31v-35h-31q1 -9 1 -25h30v-35h-29l1 -25h28l2 -35h-21q19 -16 73 -16q33 0 54 3.5t44.5 21.5t35.5 52h73q-17 -95 -35 -146h86zM126 42q19 0 60.5 -3.5t74.5 -3.5 q45 0 135 4q33 41 50 143h-29q-9 -26 -24 -42t-37 -23t-40 -9t-46 -2q-101 0 -105 64q-4 84 -4 223q0 55 0.5 150t0.5 126q3 35 20 56.5t66 31.5v39q-105 -5 -123 -5q-38 0 -79 5v-38q41 -33 43 -85q4 -118 4 -184v-320q0 -21 -17 -50.5t-34 -40.5l-6 -43l7 1q56 6 83 6z M178 -74q-33 0 -99 -8l4 35h410q-12 -22 -19 -30q-122 -5 -148 -5h-19q-29 0 -69.5 4t-59.5 4z" />
<glyph unicode="M" horiz-adv-x="893" d="M807 712q-13 -2 -27 -13h-97q-9 -11 -9 -19l1 -6h85q-10 -17 -13 -35h-68l3 -25h65l4 -35h-65l4 -25h64l5 -35h-65l3 -25h65l4 -35h-65l4 -25h64l4 -35h-65l4 -25h64l5 -35h-65l4 -25h64l4 -35h-65l4 -25h64l5 -35h-65l3 -25h65l4 -36h-64q3 -12 17 -24h50l5 -35h-8v-25 h10l4 -28q0 -2 0.5 -4t0.5 -3h-15v-25h26q13 -21 31 -35h-131q6 9 8 25q-23 3 -39 3q-42 0 -110 -12v110l31 8q-1 66 -14 172l-2 -6h-85q-3 -9 -9 -25h85q-8 -24 -12 -35h-85q-3 -9 -9 -25h85q-8 -24 -12 -35h-85q-3 -9 -9 -25h85q-8 -24 -13 -35h-84q-7 -21 -8 -25h84 q-8 -24 -12 -35h-85l-4 -12h-53l-51 127q-83 208 -100 244h-29l-3 -24h33q-1 -6 -2.5 -18t-1.5 -17h-33q0 -9 -2 -25h33q-1 -6 -2.5 -18t-1.5 -17h-32q-1 -4 -2 -12.5t-2 -12.5h33q-3 -34 -3 -35h-34q0 -5 -1 -13t-1 -12h33q-2 -24 -3 -35h-35q-2 -14 -2 -19v-6h33 q0 -4 -0.5 -13t-1.5 -13q1 0 1 -0.5t1 -0.5l11 -113q-7 1 -17 3q5 -11 15 -18h-106q12 11 19 25q-13 0 -21 1q-23 0 -96 -11l21 113q44 18 53 73l59 507q-8 22 -63 43v107q76 -8 122 -8l37 -95h40l14 -35h-40l10 -25h39l15 -35h-41l10 -25h40l14 -35h-40l9 -25h41l14 -35 h-40l10 -25h40l13 -35h-40l10 -25h40l14 -35h-40l10 -25h40l14 -35h-40l9 -25h24l76 209l6 18l106 291q7 -2 29 -2q18 0 27 1q26 2 62 2v-99h77v-22zM716 151l-65 523v5q0 23 16 49t39 30v39l-81 -5l-208 -573h-6l-226 573q-50 0 -85 5v-38q27 -10 44 -31t18 -40l-59 -514 q-10 -79 -57 -97l-8 -41l4 1q34 5 61 5q40 0 82 -6l-5 44q-36 17 -36 54q0 9 1 14q5 41 43 399l7 -2l51 -126q22 -46 82.5 -199.5t61.5 -155.5h26l171 487l5 5q6 -47 20 -137.5t22.5 -164.5t8.5 -140q0 -32 -31 -39l-1 -39q46 8 87 8q38 0 81 -8v39q-57 29 -63 76zM798 -72 q-48 0 -95 -9v35h184v-35q-45 9 -89 9zM144 -74q-26 0 -71 -7l7 35h150l4 -35q-23 4 -90 7zM447 -21l-13 35h76l-12 -35h-51zM539 339q-3 -9 -9 -25h71q-2 16 -3 25h-59zM593 374q-2 9 -4 25h-29q-3 -9 -9 -25h42zM203 458l-3 -24h13q-6 12 -10 24zM584 434l-4 23 q-1 -5 -3.5 -13t-3.5 -10h11zM679 642q0 2 -1 3z" />
<glyph unicode="N" horiz-adv-x="710" d="M103 -18q13 15 17 23q-10 1 -26 1q-19 0 -74 -7v104q38 25 42 41v20q2 118 2 242v190v79v5q-5 13 -18 25.5t-30 16.5l-10 118l64 -6q8 -1 26.5 -2.5t23.5 -1.5l65 -93h41l26 -35h-41l17 -25h41l25 -35h-41l18 -25h41l25 -35h-41l17 -25h42l25 -35h-42l18 -25h41l25 -35 h-41l17 -25h42l25 -35h-41l17 -25h41l20 -28v56q0 95 -6 269q-1 19 -8 32t-31 32v98l73 -8q21 0 102 12v-103h72v-25q-10 -6 -14 -10h-89q-7 -13 -8 -25h80q-8 -18 -11 -35h-71q-1 -8 -1 -26h70q-2 -22 -2 -34h-68v-25h68q-1 -12 -1 -35h-67v-25h67v-35h-67v-25h67v-35h-67 l-1 -25h68v-35h-68q0 -17 -1 -25h68v-35h-68q-1 -8 -1 -25h69v-35h-69v-25h67v-35h-67l1 -25h66v-35h-66l1 -25h66v-35h-65v-25h66v-35h-63q-3 5 -8.5 12t-7.5 9h-40l-18 24l-238 327l-91 123v-15h-40v-25h40v-35h-39v-25h39v-35h-39v-25h40v-35h-39q0 -17 1 -25h38 q0 -24 1 -35h-39q1 -9 1 -25h38q0 -24 1 -35h-38q0 -10 1 -13q2 -8 5 -12h33v-29q1 0 3.5 -1t3.5 -2v-88q6 -20 23 -35h-121zM481 800v-39q22 -18 29 -36t10 -49q5 -147 5 -271v-195l-415 584q-13 1 -39 4t-37 4l4 -49q18 -5 32.5 -26.5t17.5 -42.5v-7v-81v-192 q0 -59 -1 -149.5t-1 -113.5q-3 -37 -42 -62v-40q27 4 50 4q30 0 83 -5v40q-41 22 -44 68q-2 10 -2 16v19q0 41 -2 116t-2 109v121q0 61 1 85l419 -573h20q-3 73 -3 208v65q2 52 2 146v87q0 86 2 125q3 65 40 88v39q-4 -1 -13 -1l-13 -1q-22 -3 -52 -3q-11 0 -28 4 q-9 2 -15 3q-2 0 -4 1h-2zM139 -73q-25 0 -55 -4v34h162v-35q-58 5 -107 5zM636 -77l-25 34h46q0 -24 1 -34h-22zM466 342l18 -25h18v25h-36zM150 497h25l-25 35v-35z" />
<glyph unicode="O" d="M623 4q-16 -16 -39 -34h-351q-26 22 -38 34h62q-28 9 -57 26h-29q-15 16 -25 34h7q-67 59 -107 150.5t-40 197.5v4q0 168 98 293t231 125h4q91 0 161.5 -45t113.5 -125h16q12 -13 29 -34h-29l10 -26h37q15 -28 18 -34h-44l7 -26h49q5 -12 13 -34h-56l4 -26h59 q5 -16 7 -34h-64q1 -9 1 -26h69q1 -6 2.5 -17.5t1.5 -16.5h-73q-2 -18 -2 -26h77v-30v-4h-81q-1 -11 -5 -26h86q-2 -24 -4 -34h-89q-3 -11 -8 -26h94q-1 -7 -4 -19.5t-3 -14.5h-100q-4 -12 -11 -26h104q-3 -12 -11 -34h-113q-7 -13 -17 -26h120q-8 -19 -17 -34h-131 q-9 -10 -27 -26h142q-8 -15 -25 -34h-164q-30 -17 -60 -26h201zM339 798h-4q-123 0 -213.5 -114t-90.5 -267v-10q0 -155 91.5 -267.5t216.5 -112.5q130 0 219.5 110t89.5 277q0 166 -83.5 275t-225.5 109zM339 720q104 0 171 -92t67 -246q0 -124 -67.5 -200t-170.5 -76 q-98 0 -165 98.5t-67 230.5q0 126 65 205.5t167 79.5zM157 424q-2 -22 -4 -34h-20q2 -18 4 -26h16v-7v-27h-9q23 -83 75.5 -135.5t119.5 -52.5q93 0 153.5 66.5t60.5 173.5q0 137 -60.5 219t-153.5 82q-45 0 -86 -19h101q-43 -10 -79 -34h-71q-12 -12 -23 -26h62 q-21 -24 -29 -34h-54q-9 -21 -11 -26h49q-9 -17 -17 -34h-42q-4 -19 -5 -26h38q-8 -25 -10 -34h-31v-26h26zM407 -90q-70 0 -133 34h269q-60 -31 -126 -34h-10z" />
<glyph unicode="P" horiz-adv-x="555" d="M107 -20q16 14 24 25h-5q-49 0 -108 -8v105q49 29 52 38q1 59 1 262q0 164 -6 268q-2 31 -59 54v109q42 -3 63 -7q35 -5 56 -5q20 0 154 10q55 0 101 -28t74 -85q14 -10 22 -18h-15q3 -5 10 -25h26q11 -15 21 -35h-39q1 -4 2.5 -12.5t2.5 -12.5h44q8 -21 10 -35h-51v-25 h56q2 -11 4 -35h-61q0 -9 -2 -25h64l1 -10q0 -9 -2 -25h-71q-3 -16 -7 -25h76q-4 -24 -7 -35h-80q3 8 3 16q-27 -63 -81 -101h119q-15 -20 -32 -35h-164q-28 -8 -62 -8q-23 0 -41 8h-16q0 -17 1 -25h249q-57 -35 -108 -35h-39q-25 2 -73 21q0 -14 1 -21h-30q2 -18 2 -25h28 l1 -35h-28q0 -2 0.5 -6.5t1.5 -6.5q0 -12 118 -37v-112q-14 1 -65 3q14 -9 51 -21h-187zM95 402q0 -146 -2 -264q-2 -31 -52 -61v-41q38 5 85 5q104 0 159 -5v42q-63 13 -90.5 27.5t-28.5 38.5q-3 37 -7 188q44 -23 82 -23q89 0 156 62t67 180q0 120 -53.5 181.5 t-131.5 61.5q-25 0 -78 -5q-52 -5 -76 -5q-13 0 -47.5 4.5t-46.5 5.5v-42q55 -23 57 -80q7 -120 7 -270zM166 714q35 7 72 7q62 0 107.5 -45t45.5 -119q0 -102 -38 -144.5t-114 -44.5q-13 0 -80 12v24q0 146 1 174q0 6 2.5 68t3.5 68zM184 577l-1 -22h33q0 -8 -0.5 -20 t-0.5 -15h-32v-25h31v-35h-31v-25h31v-28q18 -3 25 -3q64 2 96 36.5t32 116.5q0 73 -61 110h-66q-14 -2 -19 -3l-1 -8v-16h-34q-1 -9 -1 -25h34l-1 -35zM178 -75q-51 0 -94 -5v35h268v-35q-58 5 -174 5zM432 340q11 16 18 35h80q-5 -17 -15 -35h-83zM188 680v-3l-1 -2h102 q-27 10 -51 10q-18 0 -50 -5z" />
<glyph unicode="Q" horiz-adv-x="785" d="M965 -191q-67 -19 -98 -19q-57 0 -112 19h-93q-40 24 -61 35h73l-47 25h-74q-20 10 -52 23q-2 1 -13.5 5.5t-18.5 6.5h98q-19 12 -43 25h-194q-43 12 -84 35h208q-14 7 -26 11q-24 9 -42 14h-177q-24 19 -39 35h59q-28 12 -47 25h-34q-14 17 -25 35h13q-130 115 -130 320 q0 175 103 301.5t239 126.5q100 0 176 -56.5t117 -151.5h19q12 -15 24 -35h-29l7 -25h35q9 -17 16 -35h-42q2 -7 4 -25h47q2 -6 5.5 -17.5t5.5 -17.5h-53q2 -18 2 -25h56l6 -35h-61l-1 -25h65q2 -24 2 -35h-70q0 -9 -2 -25h72q0 -24 -2 -35h-78q-1 -13 -6 -25h83 q-4 -24 -6 -35h-88l-5.5 -13.5t-4.5 -11.5h92q-1 -5 -9 -35h-101q-5 -9 -15 -25h107q-10 -24 -16 -35h-118q-6 -8 -20 -22l8 -3h116l-22 -35h-21l34 -19q50 -27 80 -41.5t75.5 -28.5t84.5 -14q35 0 76 11h46l24 -113q-3 -1 -9 -4t-9 -4h91l6 -27h-177zM348 795 q-127 0 -222.5 -115.5t-95.5 -275.5q0 -158 89 -259t220 -111q43 -4 95 -23q55 -21 137.5 -71t154 -82t141.5 -32q27 0 83 14t83 28l-11 53h-28q-37 -11 -77 -11q-53 0 -112.5 21t-104 47.5t-103.5 54.5t-106 39q77 45 123 134t46 206q0 160 -86 271.5t-226 111.5zM108 426 q0 128 65.5 209t172.5 81q103 0 171.5 -85t68.5 -231q0 -132 -63.5 -210.5t-168.5 -78.5q-107 0 -176.5 90.5t-69.5 224.5zM134 469q0 -1 -1 -10t-2 -15h22q-4 -25 -5 -35h-17q2 -18 2 -25h12q-1 -12 -1 -35h-5q19 -90 77 -145.5t138 -55.5q94 0 151 68t57 184 q0 101 -39 169.5t-103 95.5q-5 1 -14 1q-50 0 -93 -17h-77q-12 -7 -32 -25h62q-18 -12 -40 -35h-51l-14 -25h44q-16 -26 -21 -35h-37q-2 -6 -7 -25h32q-4 -11 -12 -35h-26zM768 -251q-21 11 -63 35h444l8 -35h-389zM977 -311h-12q-67 3 -145 35h314q-37 -14 -84.5 -24.5 t-72.5 -10.5zM299 684h84q-15 8 -38 8q-25 0 -46 -8z" />
<glyph unicode="R" horiz-adv-x="759" d="M206 172q1 -12 1 -35h-29q7 -16 42 -35v-105q-75 7 -107 7q-46 0 -107 -8v105q46 28 51 40v19q0 26 0.5 108t0.5 133q0 124 -5 269v-2q-3 26 -47 55v106q74 -9 106 -9q10 0 37.5 2t42.5 2q60 4 82 4q147 0 199 -118q21 -18 34 -33h-23q6 -23 6 -25h33q6 -11 16 -35h-44 q0 -9 2 -25h48q4 -16 6 -35h-55q-3 -23 -3 -25h60q1 -5 1 -16q0 -4 -0.5 -10t-0.5 -9h-67q-2 -11 -8 -24h73q-3 -18 -8 -37h-83q-10 -15 -19 -24h92q-11 -24 -20 -35h-111q-10 -7 -30 -17q0 -2 2 -4t2 -4h115q-22 -22 -48 -35h-48q5 -12 11 -25h6q14 -14 27 -35h-19 q4 -10 6 -14q1 -1 2.5 -5t2.5 -6h23q18 -33 19 -35h-26q3 -9 11 -25h25q2 -4 6.5 -16.5t7.5 -18.5h-21q5 -9 15 -25h17q10 -24 15 -35h-5q7 -8 22.5 -30t26.5 -33.5t37 -22.5t62 -11l16 -88q-37 -15 -54 -20h53q5 -2 14 -7t13 -6l12 -3t19 -2l3 -17h-184q-17 17 -32 35h56 q-38 5 -71 24t-55 40t-46 60t-36 64.5l-33 72.5q-45 100 -76 142h-61v-18h-32v-25h33q0 -24 1 -35h-32v-25h32zM648 -57q-56 3 -99 36.5t-71 86.5t-50.5 108t-49.5 113t-56 90q151 47 151 202q0 102 -52 157.5t-147 55.5q-18 0 -80.5 -4.5t-81.5 -4.5q-38 0 -81 6v-41 q41 -27 46 -77q5 -215 5 -270q0 -148 -2 -264q-2 -32 -51 -60v-41q44 4 84 4q19 0 83 -4v41q-23 12 -32.5 26t-10.5 40q-6 97 -6 218h47q19 0 28 1q44 -26 80 -83t61.5 -117.5t56 -119t79.5 -96.5t117 -40q10 0 37 11zM153 715q81 11 89 11q81 0 118.5 -34.5t37.5 -105.5 t-60 -110.5t-125 -39.5h-66v147q0 4 0.5 37.5t2 62t3.5 32.5zM178 682q-3 -1 -7 -1v-29h40q-2 -9 -2 -35h-38v-3q-1 -6 -1 -22h37v-35h-36v-25h36q0 -4 -1 -8v-4v-23h-35v-24h42q57 0 109.5 29.5t52.5 83.5q0 104 -133 104q-22 0 -64 -8zM66 -43v7q19 11 36 28h123 q9 -15 35 -29v-6h-194zM710 -223q-68 0 -120 35h157l5 -23q-27 -11 -38 -12h-4zM66 -81v13h194v-13q-57 5 -101 5q-51 0 -93 -5zM231 312q-1 1 -4 2.5t-4 2.5h-52v-25h81l-11 10.5t-10 9.5z" />
<glyph unicode="S" horiz-adv-x="489" d="M204 308h32q-11 6 -19 13q-12 8 -17 12h-11q-8 15 -31 33q-30 24 -48 42t-38 46t-29.5 63t-9.5 80q0 95 47.5 165.5t132.5 70.5q19 0 52 -8q33 -7 43 -7q2 0 12 2q8 1 37 1l12 -93h43l5 -35h-44l3 -25h44l4 -35h-44l3 -19h-65q-13 32 -26 42q-28 31 -87 31q-31 0 -55 -19 h82q-30 -11 -49 -35h-46q3 -15 11 -25h20q-4 -14 -4 -22q23 -24 61 -54q5 -6 19 -16q3 -3 46 -34q30 -23 43.5 -34.5t35.5 -34.5t34 -48.5t18 -56.5h3q16 -17 28 -35h-27q0 -3 0.5 -9.5t0.5 -9.5v-6h39q5 -11 11 -35h-52q-1 -9 -3 -25h59q2 -9 2 -29v-6h-69q-2 -9 -8 -25h76 q-1 -14 -5 -35h-87q-14 -21 -17 -25h99q-8 -24 -12 -35h-122q-21 -16 -45 -25h155q-8 -13 -26 -35h-322l-5 32q-11 2 -24 8q-18 4 -31 4l-33 218h91q1 -30 17.5 -51t40 -29t40.5 -11t31 -3q27 0 53 14q5 13 2 33h30q5 9 7 25h-37q0 7 -9 20t-10 15h43q-14 16 -24 25h-28 q-11 16 -49 35zM212 30q92 0 141 62t49 162q0 37 -9.5 66.5t-30 53.5t-36.5 38t-47 37q-40 28 -48 37l-18 15q-34 28 -51 44.5t-33.5 43.5t-16.5 54q0 31 29.5 55.5t63.5 24.5q67 0 100 -36q17 -15 26 -37h23l-17 134q-3 0 -14 -1t-15 -1q-18 0 -47 8q-39 7 -48 7 q-75 0 -115.5 -59.5t-40.5 -140.5q0 -40 9 -71.5t32.5 -59.5t38 -41t50.5 -42q5 -3 18.5 -13.5t21.5 -15.5q27 -18 42.5 -30t34.5 -30.5t28 -38t9 -40.5q0 -50 -36 -80t-79 -30q-17 0 -36.5 2.5t-47.5 11t-47 29t-20 51.5h-39l22 -145q7 -2 17 -6q52 -18 137 -18zM273 -87 q-95 0 -150 20q-17 6 -19 6l-1 9h290q-47 -31 -106 -35h-14zM369 594q-1 2 -8 14h67l2 -14h-61z" />
<glyph unicode="T" horiz-adv-x="669" d="M416 639h-47v-25h48q0 -24 -1 -35h-47l-1 -25h47v-35h-48v-25h47v-35h-47v-25h46v-35h-46v-25h46v-35h-46l1 -25h45v-35h-44v-25h45v-35h-44v-25h45v-35h-43v-13q2 -8 5 -12h39v-35l3 -60h-3v-25h8q6 -20 21 -35h-132q14 16 18 24q-9 1 -22 1q-27 0 -99 -8v104 q39 24 43 38q0 24 0.5 114t0.5 149v155q0 4 -0.5 12t-0.5 13v83h-76q-29 -7 -50 -25h-49l-16 -25h43l-9 -15.5t-8 -13.5h-37q0 13 2 21h-47q2 80 34 154l30 79h35q12 -16 40 -16h253q20 0 61 1t56 1q25 0 45 15h49q-17 -78 -26 -106h80q-4 -15 -11 -35h-81q-4 -9 -7 -25h79 q-2 -6 -5.5 -18t-5.5 -17h-76q-4 -20 -5 -29h-63q0 37 -35 55q-6 0 -36 -3q-1 -8 -1 -23zM515 789q-31 0 -102.5 -1.5t-85.5 -1.5q-142 0 -183 1q-37 2 -47 16h-13q-8 -24 -23 -60.5t-22.5 -59t-7.5 -41.5h16q22 43 50.5 60.5t87.5 17.5q40 0 90 -7l1 -30q2 -26 2 -77v-205 q0 -147 -2 -263q-2 -37 -42 -62v-40l8 1q36 3 67 3q20 0 84 -4v40q-40 21 -45 67q-3 60 -5 261v36q0 117 5 272q16 3 39 3q51 0 89 -16t38 -52v-4h18q5 37 22.5 86.5t22.5 73.5h-12q-19 -14 -50 -14zM376 -76q-33 0 -83 -5v35h174v-35q-57 5 -91 5zM564 586v4q0 14 -6 24h67 q-2 -10 -4 -28h-57zM185 683q-38 0 -62 -9h130v5q-54 4 -68 4zM370 679v-5h58q-22 5 -41 5h-17z" />
<glyph unicode="U" horiz-adv-x="646" d="M195 244q1 -11 1 -35h-6q39 -69 104 -69q69 1 107 44.5t38 113.5v372q0 22 -11 34.5t-37 22.5v103q37 0 42 -1q1 0 3 -1h3q23 -3 31 -3h3t4 0.5t5.5 1t6.5 0.5q32 4 54 4h29v-76l-16 -31h84v-15q-21 -8 -30 -20h-78q0 -3 -0.5 -10.5t-0.5 -12.5v-2h68q-2 -12 -4 -35h-65 q-1 -8 -1 -25h64v-35h-65v-25h64q-1 -11 -1 -35h-63v-25h63v-35h-63v-25h63v-35h-63v-25h63v-35h-63v-25h63v-35h-65q0 -5 -0.5 -13t-0.5 -12h66v-5q0 -21 -1 -30h-69q-1 -4 -2.5 -12.5t-2.5 -12.5h73q-3 -34 -3 -35h-78q-1 -3 -3.5 -11.5t-4.5 -13.5h84q-4 -24 -7 -35h-93 q-16 -23 -17 -25h104q-8 -27 -12 -35h-128q-19 -15 -49 -25h164q-7 -13 -25 -35h-329q-20 22 -29 35h42q-70 25 -112 89.5t-42 165.5q0 -1 0 14t-0.5 39t-0.5 50v50v36l-1 222q0 30 -43 62v101q76 -9 103 -9q2 0 16 2q30 4 53 4h33v-100l-9 -6h41v-16q-13 -8 -21 -19h-46 q-4 -11 -6 -25h38q-7 -18 -8 -35h-30v-25h28v-35h-29v-25h28v-35h-29v-25h28v-35h-29v-25h29v-35h-30v-25h29v-35h-27v-25h26q0 -23 1 -35h-25q1 -9 5 -25h20zM549 755v39h-6q-15 0 -43 -2.5t-30 -2.5q-11 0 -32 3h-7q-6 1 -16 1v-38q25 -10 36 -28.5t11 -56.5v-372 q0 -86 -43.5 -139.5t-124.5 -54.5q-57 0 -101.5 52.5t-46.5 121.5q-3 89 -2 125l2 263q5 68 41 88v39h-9q-15 0 -41 -2.5t-28 -2.5q-25 0 -78 5v-38q42 -33 42 -85v-222v-35.5t0.5 -49.5t1 -49.5t0.5 -38.5t0 -14q0 -114 60.5 -174.5t151.5 -60.5q120 0 168.5 73t48.5 228 q0 231 3 341q1 43 10 60.5t32 26.5zM353 -91q-71 0 -129 35h267q-47 -31 -121 -35h-17z" />
<glyph unicode="V" horiz-adv-x="742" d="M259 601l11 -35h-30q2 -8 10 -25h28q4 -15 11 -35h-28q3 -9 9 -25h28l10 -30l1 -5h-27q1 -2 4 -11t5 -14h27q0 -1 5 -14t7 -21h-27q1 -3 9 -25h27q2 -4 6 -16t7 -19h-28l9 -25h27l5 -14q26 88 103 329l29 95q0 1 -49 16l14 106q75 -6 89 -6q48 0 104 11l7 -88q45 0 69 5 l1 -9h-70l2 -19q-8 -3 -12 -6h82l1 -15q-16 -8 -28 -20h-96q-10 -11 -16 -25h90q-14 -22 -19 -35h-86l-5.5 -13.5t-4.5 -11.5h85l-14 -35h-84l-9 -25h84q-5 -11 -13 -35h-83l-8 -25h82q-1 -4 -5 -16t-7 -19h-82l-8 -25h82q-4 -11 -12 -35h-82q-1 -2 -4 -11t-5 -14h82 q-3 -11 -11 -35h-82l-8 -25h81q-1 -5 -5 -17l-6 -18h-82l-8 -25h82l-12 -35h-82l-8 -25h82l-12 -35h-81q-3 -9 -9 -25h82q-8 -24 -12 -35h-82q-2 -9 -8 -25h82q-8 -24 -12 -35h-82q-1 -5 -4 -13t-4 -12h82q-3 -11 -11 -35h-72q-2 7 -8 21h-41q-2 5 -7 19l-14.5 40.5 t-20.5 60.5l-130 376q-6 16 -11 31q-41 110 -65 156q-6 14 -10 20.5t-17.5 18.5t-36.5 26l6 109q90 -15 107 -15q15 0 40 3q39 4 58 5l5 -84q32 2 48 4l1 -11h-49l1 -5l-2 -2q-16 -14 -25 -14v-4h76l1 -3q-22 -19 -27 -32h-43q4 -16 6 -25h37q4 -22 7 -35h-33q7 -21 8 -25 h31zM359 177h-8l-116 327l-2 7q-2 3 -4 9l-12.5 38.5l-15.5 48l-13.5 43.5t-11 44.5t-3.5 33.5q0 16 25 35l-2 36q-13 -1 -30 -3t-28 -3t-19 -1q-4 0 -21 2.5t-37 5t-27 3.5l-3 -43q17 -10 28.5 -21t16 -18.5t12.5 -22.5l2 -5q25 -49 70 -178q2 -6 6 -16q165 -473 166 -475 h17l143 429q45 136 73 207q30 72 73 92l-4 45q-32 -6 -83 -6q-33 0 -69 3l-6 -39q45 -13 45 -36q0 -17 -32 -119zM388 -94q-1 4 -3 8.5t-4.5 12t-5.5 14.5h55l-11 -35h-31zM346 266l7 -20q1 6 5 20h-12z" />
<glyph unicode="W" horiz-adv-x="950" d="M363 -34l-7 21h-38q-2 5 -7 19l-14.5 40.5t-20.5 60.5l-130 376q-2 4 -11 31l-3 7q-38 102 -62 149q-6 14 -10 20.5t-17.5 18.5t-36.5 26l6 109q90 -15 107 -15q15 0 40 3l58 5l5 -86q6 1 22 3l5 90q90 -15 107 -15q14 0 39 3q33 3 59 5l2 -46l6 42q75 -6 89 -6 q48 0 104 11l7 -90q18 2 26 4l11 81q72 -6 88 -6q49 0 105 11l6 -90q20 2 43 7v-9q-33 0 -43 1l2 -20l-11 -6h53l2 -15q-14 -8 -26 -20h-70q-8 -11 -16 -25h67q-7 -11 -18 -35h-65q-7 -21 -9 -25h65q-7 -16 -13 -35h-65l-9 -25h66q-4 -11 -12 -35h-66q-3 -14 -9 -25h67 q-7 -25 -11 -35h-67q-1 -2 -2 -5.5t-2 -5.5l-5 -14h69q-2 -6 -5.5 -18t-5.5 -17h-69l-8 -25h69q-2 -11 -10 -35h-71l-8 -25h72q-7 -20 -11 -35h-72q-2 -5 -5 -14t-4 -11h74l-11 -35h-75q-1 -2 -4 -11t-5 -14h77q-9 -27 -11 -35h-77q-7 -21 -8 -25h78q-4 -15 -11 -35h-79 q-7 -21 -8 -25h80q-8 -24 -11 -35h-81q-1 -3 -3.5 -11.5t-4.5 -13.5h82q-7 -27 -10 -35h-73q-2 10 -6 21h-44l-57 166q0 -3 -2 -7h-79l-8 -25h79q-6 -24 -10 -35h-81q-1 -5 -3.5 -13.5t-3.5 -11.5h82q-8 -24 -11 -35h-83q-7 -21 -8 -25h83q-2 -6 -5 -17.5t-5 -17.5h-79z M595 177h-7l-97 272q0 3 1 4q45 136 73 207q30 72 73 92l-4 45q-33 -6 -83 -6q-33 0 -70 3l-5 -39q45 -13 45 -36q0 -15 -32 -120l-24 -75l-13 38t-16 48l-12.5 42t-11 44.5t-3.5 31.5q0 16 26 35l-3 36q-13 -1 -30 -3t-28 -3t-18 -1q-6 0 -43 5t-43 6l-2 -43 q18 -11 29.5 -22.5t16.5 -20.5t12 -25q21 -40 77 -192q22 -64 29 -82q-46 -143 -73 -241h-8l-116 327l-2 7q-2 3 -4 9l-12.5 38.5l-15.5 48l-13.5 43.5t-11 44.5t-3.5 33.5q0 16 25 35l-2 36q-13 -1 -30 -3t-28 -3t-19 -1q-4 0 -21 2.5t-37 5t-27 3.5l-3 -43 q26 -15 36.5 -29t21.5 -39q25 -48 68 -169l4 -10q1 -3 5 -14q165 -473 166 -475h17l107 323l66 -190l35 -98t10 -29l2 -6h17l143 429q46 139 74 207q28 71 71 92l-3 45q-33 -6 -84 -6q-33 0 -69 3l-5 -39q43 -13 45 -36q0 -16 -33 -119zM352 301l9 -26q20 70 44 143l-23 65 q-1 4 -11 31q-36 102 -64 158q-12 27 -36 44q-18 -16 -21 -30h-48q1 -3 3.5 -11.5t3.5 -13.5h41q0 -9 6 -35h-36q7 -21 8 -25h33q1 -5 4 -16t5 -16l1 -3h-31q2 -8 10 -25h28l5.5 -19t4.5 -16h-27q3 -9 9 -25h27q2 -13 8 -30l2 -5h-25q1 -2 4 -11t5 -14h23q7 -21 11 -35h-22 q6 -16 9 -25h21l11 -35h-20q6 -11 9 -25h19zM616 541q-4 -11 -12 -35h-68l-8 -25h69q-2 -6 -5.5 -18t-5.5 -17h-68q6 -16 9 -25h51q-3 -11 -11 -35h-28q6 -16 10 -25h30q4 -13 12 -35h-30l8 -25h30l3 -12l103 327l29 95q-7 3 -26 9l1 -14q-11 -6 -25 -20h-73 q-10 -11 -16 -25h69q-12 -22 -17 -35h-67l-10 -25h67q-2 -4 -12 -35h-68l-8 -25h67zM382 -94q-8 26 -12 35h64l-10 -35h-42zM658 -94l-34 2q-7 19 -11 33h56zM436 206l-8 -25h59q-2 5 -4.5 13.5t-3.5 11.5h-43zM482 661q1 5 3.5 13.5t3.5 11.5h-50q5 -19 7 -25h36zM265 721 q-16 11 -22 14l1 11h-22v-5q-21 -18 -23 -20h66zM664 727q-8 -3 -12 -6h52q-2 1 -8 2.5t-11 3.5l3 19h-26zM457 269l-9 -28h19q-5 11 -10 28zM465 603l3 12q1 3 3 11h-14l3.5 -11t4.5 -12zM448 733l-14 -8v-4h34q-2 1 -8.5 2.5t-11.5 3.5v6zM590 246q1 6 5 20h-13 q1 -4 8 -20zM353 247q1 4 5 19h-12q3 -12 7 -19zM539 455q0 1 -2 5q0 -1 0.5 -2.5t1.5 -2.5zM512 433l1 3l-1 -1v-2z" />
<glyph unicode="X" horiz-adv-x="767" d="M354 675q3 -18 9 -35h-46q2 -4 6 -10l9 -15h32q55 93 55 120q-4 0 -10 5v96q80 -10 116 -10q7 1 11 2q35 7 97 7l-12 -100h116l-3 -28q-16 -1 -30 -7h-137q-11 -7 -31 -25h130q-18 -15 -35 -35h-125q-2 -2 -19 -25h125q-5 -6 -13 -19t-10 -16h-124l-15 -25h124l-20 -35 h-122l-4 -8l-9 -17h121q-1 -2 -19 -35h-110l13 -25h84l-11 -19t-9 -16h-45l13 -25h43l18 -35h-43q2 -5 7 -13.5t6 -11.5h43l19 -35h-43q2 -5 7 -13.5t6 -11.5h43l19 -35h-43q3 -9 13 -25h43l18 -35h-41q10 -15 22 -25h32l19 -35h-7l5 -25h15l12 -22q3 -8 7 -13h-29l4 -25h41 q17 -23 37 -35h-144q1 2 1 5q0 2 -3 17q-35 3 -56 3q-36 0 -112 -10l16 114q4 0 8 -2q-7 18 -41 82l-2 3l-16 28h-108q-4 -9 -14 -25h125q-2 -4 -9 -16.5t-11 -18.5h-124q-8 -18 -12 -25h121l-19 -35h-83v-28l2 3h68l-16 -35h-54v-25h46q-3 -13 -3 -25v-10h-133l32 22l-63 5 q-22 2 -119 -13l34 120q54 22 83 62q26 40 104 176l48 83q-5 9 -9 21l-26.5 59.5t-32.5 65.5t-40 67.5t-42 47t-46 24.5l-21 117q102 -10 123 -10q16 0 104 8v-94q-3 -5 -6 -6h84l-1 -22q-5 -6 -6 -13l-70 1q2 -5 6.5 -14t5.5 -12h56zM527 790q-55 0 -94 6v-34q11 -7 11 -25 q0 -17 -10 -44t-20.5 -46l-26 -47t-16.5 -29l-25 -43q-2 4 -9 19t-11 22l-26.5 46.5t-34.5 68t-12 49.5q0 17 8 26l1 37q-38 -5 -81 -5t-92 6l8 -43q30 -3 67 -50t62.5 -99t50.5 -109t28 -62l-3 -4l-8 -17l-47.5 -83.5l-57 -99t-50.5 -80.5q-32 -46 -82 -67l-13 -47 q45 8 82 8l96 -8v39q-16 1 -22 6.5t-6 18.5q0 26 19.5 68t64 115.5t55.5 94.5q4 -7 12.5 -25.5t13.5 -27.5l34 -68l28 -53.5t33 -66.5t11 -41q0 -18 -15 -20l-5 -40q40 6 82 6q31 0 97 -6l-8 44q-25 10 -42 28t-34 50l-166 314q10 16 41.5 74t54.5 96.5t59.5 74t69.5 36.5 l6 46q-14 0 -32.5 -2.5t-31.5 -4.5t-14 -2zM655 -74q-45 0 -91 -6l5 35h185l6 -35q-72 6 -105 6zM214 -72q-42 0 -91 -8l10 35h186v-35zM309 280l-7 -11q-4 -5 -10 -15q55 -6 77 -10l-17 36h-43z" />
<glyph unicode="Y" horiz-adv-x="745" d="M339 554l18 -35h-31q2 -5 7 -14t6 -11h11q41 67 87 153q28 52 28 82q0 -6 -8 -6q-5 0 -7 1l-21 121q61 -16 129 -16q58 0 110 15l-6 -110h76l-1 -19q-16 -5 -30 -16h-94q-4 -4 -11.5 -12.5t-11.5 -12.5h90q-12 -12 -28 -35h-88l-17 -25h88l-22 -35h-87q-1 -2 -6.5 -11 t-7.5 -14h86l-20 -35h-87l-10 -20q-2 -4 -3 -5h86l-19 -35h-86q-1 -2 -14 -25h87q-2 -4 -9 -16.5t-11 -18.5h-88q-2 -3 -7 -11.5l-8 -13.5h90q-12 -20 -17 -29l-2 -3l-2 -3h-83v-25h68l-22 -35h-46v-25h44v-35h-43v-25h44q1 -12 1 -35h-44q0 -9 1 -12q0 -7 3 -13h40l1 -18 l-1 -17v-85h8q6 -20 22 -35h-130q14 14 18 24q-9 1 -24 1q-25 0 -100 -8v104q43 26 43 38v181l-48 99q-59 127 -110 215l-6 9q-12 22 -20.5 34t-29 26.5t-47.5 19.5l-11 118q88 -12 125 -12t114 14l-10 -108h66l-3 -26q-7 -1 -11 -9h-48q5 -12 11 -25h37q5 -16 12 -36h-30 q6 -14 11 -24h30q6 -13 17 -35h-30q3 -5 6.5 -13.5t5.5 -11.5h30zM558 792q-66 0 -97 9l8 -46q20 -6 20 -24q0 -45 -33 -109q-82 -145 -112 -189q-25 40 -94 183l-4 8l-2 4q-42 81 -42 109q0 14 11 17l5 47q-50 -9 -87 -9q-44 0 -97 8l4 -45q22 -4 41.5 -20t28 -28.5 t23.5 -37.5l6 -10q52 -92 113 -218q42 -91 52 -109v-194q0 -38 -43 -62v-40h11l6 1q33 3 59 3q19 0 83 -4v40q-41 21 -44 67q-3 37 -6 209v8q32 49 90 156.5t101.5 170.5t80.5 74l2 39q-24 -8 -84 -8zM402 -76q-33 0 -83 -5v35h174v-35q-57 5 -91 5z" />
<glyph unicode="Z" horiz-adv-x="718" d="M701 72q-8 -24 -12 -35h-124q-10 -16 -20 -25h133q-8 -19 -18 -35h-583l-5 22q-12 -1 -36 -1l-30 119q26 41 182 265l15 21l183 263q-136 -2 -183 -29h-54q-9 -11 -14 -25h40q-10 -14 -14 -33h-34q0 2 -0.5 9.5t-0.5 11.5h-57q0 8 -1 21.5t-1.5 23.5t-0.5 18q0 94 30 164 q15 5 39 5q14 0 36.5 -0.5t53 -1.5t47.5 -1q86 -2 91 -2l27 -1q26 -1 70 -1h55q14 0 39 -0.5t29 -0.5l23 -92h55l9 -35h-79l-18 -25h92q-4 -5 -12 -17t-13 -18h-91q-6 -9 -18 -25h92q-5 -8 -25 -35h-91q-6 -9 -18 -25h92q-16 -24 -25 -35h-91l-12 -18q-4 -6 -5 -7h91 q-16 -24 -24 -35h-91l-18 -25h91q-16 -24 -24 -35h-92l-17 -25h92l-25 -35h-92q-6 -9 -18 -25h92q-6 -10 -24 -35h-93l-17 -25h93l-25 -35h-92l-18 -25h93l-25 -35q80 4 121 4q108 0 136 86h88q-20 -80 -45 -136h107q-1 -3 -4 -14h-109q-4 -9 -12 -25h114zM283 39 q29 0 58 -1q18 -1 62 -1q102 -3 116 -3q28 11 55 62t42 114h-39q-8 -24 -22.5 -41t-38 -28t-38 -15.5t-42.5 -11.5l-9 -2h-279l433 620l-14 56q-8 0 -22 0.5t-39.5 1t-45.5 0.5q-73 1 -97 1h-8q-16 0 -99.5 2t-114.5 2q-27 0 -31 -1q-21 -47 -21 -129q0 -6 0.5 -15.5 t0.5 -12.5h24q10 50 64.5 64.5t162.5 14.5q90 0 111 -2q-45 -69 -215 -311.5t-203 -295.5l19 -72q13 0 35 0.5t28 0.5h71q27 0 49.5 1l34 1.5t12.5 0.5zM346 -77q-8 0 -105 -3q-27 -1 -79 -1q-7 0 -30.5 -0.5t-38.5 -0.5l-9 34h560q-18 -25 -39 -35h-16q-9 0 -24.5 1 t-40.5 1.5t-46 1.5q-48 0 -68 1q-32 1 -64 1zM341 680q-84 0 -124 -8h173l5 8h-54zM209 151l96 6h-92z" />
<glyph unicode="[" horiz-adv-x="207" d="M25 893v21q20 -5 58 -5h18q38 0 83 5v-85q-35 5 -85 5h-11q19 -212 19 -428q0 -177 -19 -427h11q43 0 85 6v-85q-45 5 -83 5h-18q-36 0 -60 -5q22 298 22 508q0 215 -20 485z" />
<glyph unicode="\" horiz-adv-x="278" d="M23 832h50l182 -833h-50z" />
<glyph unicode="]" horiz-adv-x="207" d="M182 914v-21q-20 -270 -20 -485q0 -231 22 -508q-24 5 -59 5h-19q-40 0 -83 -5v85q42 -6 84 -6h12q-18 201 -18 427q0 227 18 428h-12q-49 0 -84 -5v85q43 -5 83 -5h19q37 0 57 5z" />
<glyph unicode="^" horiz-adv-x="380" d="M39 1117q15 31 46 57.5t55 26.5q22 0 37 -21q15 21 37 21q23 0 54 -26t47 -57v-1q28 -58 31 -113h4q11 -24 14 -35h-18q-1 -4 -2.5 -12.5t-2.5 -12.5h29q3 -18 3 -33v-2h-41l-6 -18l-24 -2q-58 46 -93 96l-8 -16h-69q-14 -18 -21 -25h75q-19 -28 -25 -35h-77v8 q-11 -10 -33 -28l-26 2q-19 74 -19 100q0 60 33 126zM294 1093q-12 25 -37 46.5t-43 21.5q-14 0 -22 -16q3 -17 3 -35q0 -20 -4 -35q0 -1 1 -1q40 -84 115 -145h1l3 2q10 30 10 60q0 47 -27 102zM60 1093q-28 -57 -28 -102q0 -21 11 -60l2 -2h1q75 61 116 145v1q-3 17 -3 35 t3 35q-8 16 -22 16q-18 0 -43 -21.5t-37 -46.5zM359 849q-24 19 -39 35h51q-4 -22 -8 -33l-3 -2h-1zM95 851l-9 33h52q-17 -17 -40 -35h-1zM196 1004l-4 8t-5 9t-5 8h-10l-8 -13.5t-7 -11.5h39z" />
<glyph unicode="_" horiz-adv-x="401" d="M35 -28h331v-31h-331v31z" />
<glyph unicode="`" horiz-adv-x="227" d="M161 1097l1 -1q29 -60 32 -113h3q6 -13 14 -35h-19q0 -7 -4 -25h29q3 -18 3 -33v-2h-40q-1 -6 -5 -18l-26 -2q-45 36 -74.5 70.5t-56.5 90.5q-12 23 -12 60q0 40 14 65.5t40 25.5q23 0 54.5 -26t46.5 -57zM141 1072q-13 25 -38 46.5t-43 21.5q-28 0 -28 -51q0 -24 6 -36 q26 -52 52 -83t65 -62l3 2q10 35 10 60q0 47 -27 102zM207 828q-23 16 -41 35h52q-2 -11 -8 -33z" />
<glyph unicode="a" horiz-adv-x="741" d="M639 77h8l14 -31q1 -2 2 -5.5t1 -5.5h-24v-22h37q11 -19 32 -35h-156q7 14 7 28q-18 2 -24 2q-33 0 -115 -16l11 109q18 10 18 13q0 2 -1 5q-2 4 -2 6q-14 40 -34 110q-17 1 -45 1q-70 0 -116 -7q-1 -2 -4 -11h-41q-2 -9 -8 -25h41q-2 -5 -5.5 -17t-5.5 -18h-41l-9 -25 h41l-11 -35h-40l3 -4q4 -5 7 -7v-14h21q-2 -5 -5.5 -17t-5.5 -18h-10v-31l1 -13l-3 1q-1 -3 -1 -9q0 -5 1 -8h-91q15 10 30 26q-7 1 -19 1q-20 0 -44 -4q-5 -1 -25.5 -4.5t-21.5 -3.5l15 113q58 21 74 67l81 232q5 15 7 19l85 245q-5 17 -56 58l10 96q51 -7 102 -7h30 l28 -83h48l12 -35h-49l9 -25h48l12 -35h-49l9 -25h49l11 -35h-48l8 -25h49l11 -35h-48l8 -25h49l12 -35h-49l8 -25h49l12 -35h-49l8 -25h49l12 -35h-49l9 -25h48l12 -35h-49l9 -25h48l12 -35h-49l9 -25h49l11 -35h-48q5 -14 17 -25h39l14 -35h-6v-21zM551 151l-212 629h-15 q-36 0 -82 4l-4 -37q55 -44 55 -82l-2 -8l-176 -501q-21 -59 -74 -80l-6 -42q41 7 62 7q25 0 60 -7l-2 37q-11 13 -11 24q0 7 7 31l61 187q36 6 105 6q55 0 99 -6q2 -8 21.5 -73.5t30.5 -98.5q5 -15 5 -27q0 -29 -20 -40l-5 -40q56 10 88 10q29 0 81 -10l-1 41 q-49 23 -65 76zM315 387q-25 0 -75 2q60 169 77 223l34 -104t40 -119q-52 -2 -76 -2zM630 -71q-39 0 -98 -11l4 35h197l1 -35q-53 11 -104 11zM227 278q-1 -3 -3.5 -11.5t-4.5 -13.5h189q-4 14 -6 22q-2 2 -2 3h-173zM123 -74q-18 0 -68 -8l3 35h130l2 -35q-44 8 -67 8z M322 433q-2 -6 -4 -10h35q-11 33 -16 50l-6 -15h-40l-10 -25h41zM317 533l-14 -40h27q-3 6 -10 28q-1 3 -2 7v2q-1 1 -1 3z" />
<glyph unicode="b" horiz-adv-x="575" d="M107 1q0 1 1 3q-71 -2 -102 -7v104q30 17 38 30q11 24 11 29q5 79 5 150v86q0 114 -7 264q-3 28 -44 53v105q59 -9 103 -9l22 2h133q99 0 142 -84q19 -9 38 -27h-26q4 -9 7 -25h38q9 -14 17 -35h-49q2 -16 2 -25h54q4 -16 6 -35h-60q0 -9 -2 -25h64v-9q0 -5 -0.5 -13.5 t-0.5 -12.5h-69q-1 -5 -3.5 -13.5t-3.5 -11.5h73q-2 -15 -8 -35h-82q18 -13 30 -25h41q-9 -20 -17 -30q17 -24 27 -55q2 -2 6 -5t6 -5h-9q4 -12 6 -25h27l22 -35h-44q1 -8 1 -25h53q4 -11 10 -35h-64q0 -9 -2 -25h69q3 -33 3 -35h-79q-1 -2 -3.5 -11t-4.5 -14h86 q-2 -23 -4 -35h-98q-9 -16 -18 -25h111q-4 -17 -12 -35h-137q-12 -9 -40 -23l-5 -2h169q-9 -16 -28 -35h-416q7 7 17 21zM112 773q-45 0 -80 5v-40q41 -26 44 -76q7 -119 7 -266v-55q0 -108 -4 -184q-2 -20 -17 -48q-11 -20 -32 -33v-40q31 4 84 4q115 -2 158 -2 q90 0 147.5 50.5t57.5 160.5q0 76 -32.5 126.5t-88.5 72.5q57 50 57 150q0 88 -40.5 132t-105.5 44h-92q-14 0 -35.5 -0.5t-27.5 -0.5zM148 169q0 10 -0.5 45.5t-0.5 54.5q0 45 -0.5 83t-0.5 41q54 0 76 -2q13 -1 21 -1q81 0 122.5 -47.5t41.5 -117.5q0 -56 -35.5 -86 t-94.5 -30q-91 0 -108 13q-21 15 -21 47zM149 469v43q0 133 1 160q1 30 3 34h16q24 3 60 3q46 0 82 -27t36 -84q0 -66 -32 -98.5t-71 -32.5q-35 0 -57 0.5t-30 0.5zM200 255v-35h-30l1 -10v-15h29l1 -15v-20h-27q2 -5 5 -6q13 -10 98 -10q48 0 77 21t29 60q0 83 -68 115 h-146v-25h31v-35h-30v-25h30zM173 504q3 0 27 -0.5t45 -0.5q29 0 54 24t25 71q0 30 -18 47.5t-45 23.5q-20 0 -36 -2h-18q-2 -3 -3 -27h-31v-25h31q0 -4 -0.5 -16t-0.5 -19h-30v-25h30v-35h-30v-16zM70 -80v35h404q-56 -33 -133 -33q-1 0 -19.5 1t-59.5 1.5t-98 0.5 q-51 0 -94 -5zM229 673l-13 -1h28z" />
<glyph unicode="c" horiz-adv-x="701" d="M172 30q-10 11 -26 35h5q-67 57 -106 147.5t-39 194.5v11q0 174 98 299.5t243 125.5h4q14 0 130 -18l12 -2q32 -8 41 -8q6 3 11 3h31l13 -93h60l5 -35h-61l4 -25h60l5 -35h-60l3 -25h61l3 -28h-50l-16 21h-66q-38 56 -78 75t-94 19q-61 0 -113 -27h91q-37 -13 -68 -35 h-70l-22 -25h63q-15 -15 -30 -35h-55l-12 -25h51q-10 -16 -18 -35h-43q-4 -15 -5 -25h39q-5 -15 -10 -35h-32v-25h28q-4 -24 -4 -35h-22l2.5 -13t1.5 -12h16v-13q0 -15 1 -22h-7q26 -79 83 -131t123 -52h4q63 0 110 20.5t82 83.5h91l-47 -135h102l-9 -26h-101l-8 -25h100 l-11 -35h-139q-45 -20 -92 -29q39 0 59 4h163l-12 -35h-411q-23 18 -40 35h58q-29 10 -54 25h-26zM577 635l-20 147h-12q-1 0 -5 -1.5t-6 -1.5q-13 0 -40 6l-17 4q-71 17 -126 17h-4q-135 0 -226 -114.5t-91 -273.5v-11q0 -155 91 -267.5t215 -112.5h3q125 0 216 54l46 134 h-40q-36 -64 -86 -84.5t-118 -20.5h-4q-96 0 -171 98.5t-75 221.5v5q0 129 71 211.5t187 82.5q59 0 101.5 -19.5t80.5 -74.5h30zM405 -90q-68 0 -133 35h325q-86 -35 -189 -35h-3z" />
<glyph unicode="d" horiz-adv-x="748" d="M119 3l2 3q-75 -3 -106 -7v105q39 23 43 33q4 6 7 9.5t4 4.5t1.5 2t0.5 5v44v202q0 160 -5 267q-5 19 -60 62v96h30l8 -1q18 -2 81 -5q41 0 92 4q59 6 110 6q86 0 155.5 -43t116.5 -118h7q12 -11 34 -35h-22q6 -13 11 -25h29q13 -18 23 -35h-39q3 -9 7 -25h45 q1 -3 7 -15.5t8 -19.5h-52q1 -4 2.5 -12.5t2.5 -12.5h56l9 -35h-61q0 -5 0.5 -13t0.5 -12h66q1 -10 5 -35h-71q0 -17 -1 -25q28 -1 56 -1q13 0 15.5 -1t2.5 -6q2 -18 2 -27h-78q-1 -9 -3 -25h80q0 -6 -0.5 -18t-0.5 -17h-85q-2 -9 -6 -25h88q-1 -6 -2.5 -18t-1.5 -17h-94 q-5 -15 -10 -25h99q-3 -13 -9 -35h-107q-5 -9 -15 -25h113q-5 -17 -15 -35h-128q-14 -16 -27 -25h142q-7 -13 -25 -35h-173q-44 -22 -98 -31h8q36 0 67 6h173q-20 -20 -44 -35h-497q17 12 26 26zM327 796q-41 0 -109 -5q-51 -4 -93 -4q-36 0 -81 5h-13v-37q56 -45 59 -81 q6 -172 6 -270q0 -143 -1 -202v-47q-1 -14 -18 -43q-12 -18 -39 -33v-41q40 5 89 5q20 0 83 -5q72 -4 80 -4q353 3 353 379q0 159 -88.5 271t-227.5 112zM327 719q118 0 179.5 -96t61.5 -244q0 -140 -66 -202t-175 -62q-112 0 -162 31l-1 26q-4 168 -4 234v108q0 63 5 192 q38 13 162 13zM211 252v-35h-25l1 -25h25q1 -10 1 -28q54 -13 114 -13q98 0 157.5 53.5t59.5 174.5q0 104 -35 181.5t-104 106.5h-89q-71 -3 -99 -12l-1 -18h-30q-1 -9 -1 -25h29q0 -7 -0.5 -18.5t-0.5 -16.5h-29q-1 -8 -1 -25h29q-1 -13 -1 -35h-28v-25h28v-35h-28v-25h28 v-35h-28v-25h28v-35h-28l1 -25h27v-35h-26v-25h26zM174 -73q-54 0 -97 -5v30h465q-77 -33 -188 -36l-89 6q-68 5 -91 5zM327 682q-98 0 -139 -7v-5h210q-33 12 -71 12z" />
<glyph unicode="e" horiz-adv-x="553" d="M547 75q0 -11 -2 -35h-84q-7 -21 -11 -25h93q-1 -6 -2.5 -18t-1.5 -17h-447q11 9 24 27q-22 -2 -38 -3l-23 -2l-10 -2h-30v108q18 11 36 31t18 31v22q0 8 0.5 22.5t0.5 20.5q1 18 1 46v123q0 118 -7 268q0 23 -58 57v105l140 -11q3 0 22.5 2.5t65 5t112.5 2.5 q45 0 70.5 -16t26.5 -55q0 -15 1 -27h48q7 -8 7 -20v-15h-52q0 -15 1 -25h53q0 -4 1 -11.5t1.5 -13.5t0.5 -10h-26q-9 8 -30 16v-13h-40q-7 0 -18 13q0 1 -2 3v-1q-1 1 -1 2q-2 2 -18 11h-107q-33 -4 -42 -8q0 -1 -2 -23h-34q-1 -9 -1 -25h34q-1 -12 -1 -35h-33v-25h31v-24 v-11h-31v-16q13 0 29 -2h95q39 0 67 31h61q-12 -49 -15 -108h59q-1 -5 -3 -25h-57q-1 -9 -1 -25h56q0 -5 -0.5 -17t-0.5 -19h-55v-24h55v-35h-34q-19 19 -49 24h-176v-24h-30q0 -13 1 -19v-6h29v-35h-29l2 -25h28l1 -35h-16q25 -12 116 -12q45 0 65.5 11.5t28.5 53.5l76 6 q0 -66 -16 -144h77zM125 44h307q10 0 20 48t10 88l-34 -2q-8 -43 -32.5 -54.5t-79.5 -11.5q-24 0 -37.5 0.5t-38 3.5t-38.5 9t-25.5 18t-12.5 29q-1 20 -4 124q-1 29 -1 94q46 2 61 2q58 0 81 -3h3q19 -3 28 -5t21.5 -10.5t21.5 -23.5l20 -1q0 129 5 147h-18 q-31 -31 -75 -31h-97q-13 2 -51 2v126q0 55 5 120q9 4 32.5 6.5t42.5 2.5l19 1q57 0 97.5 -10.5t48.5 -26.5l4 -6h16l-5 81q0 35 -73 35q-71 0 -117.5 -2.5t-64.5 -5t-20 -2.5l-113 10v-43q53 -31 57 -78q6 -131 6 -271v-123q0 -19 -2 -89v-22q0 -20 -18 -48t-36 -38v-48 l16 2q60 6 71 6zM177 -72q-10 0 -78 -6l-17 -2v35h452q-7 -27 -13 -27h-344zM183 338v-23h180q-10 16 -20 23h-160zM186 682q0 -2 -0.5 -4t-0.5 -3h172q-41 12 -99 12q-12 1 -26 1q-34 0 -46 -6zM390 656l-2 2q1 -2 2 -2z" />
<glyph unicode="f" horiz-adv-x="519" d="M117 -20q14 16 18 25h-9q-27 0 -99 -8v104q41 26 43 38q0 18 0.5 49t0.5 44q1 18 1 49v127q0 136 -6 268q0 22 -54 55l-6 103h41q84 -8 99 -8h44q44 0 65 2l20 2q43 4 79 4q46 0 71 -15.5t25 -56.5q0 -14 2 -27h51q5 -8 5 -19v-16h-54q2 -18 2 -25h54q0 -7 1 -18.5 t1 -16.5h-56l-4 4h-57q-6 11 -18 22h-155q0 -2 -0.5 -5t-1 -9t-0.5 -12h-33v-25h33q-1 -10 -1 -35h-32v-25h32v-38q26 -2 40 -2q10 -1 32 -1q49 0 61 37h69q-12 -53 -12 -103v-13h55q0 -4 -0.5 -15.5t-0.5 -19.5h-52q0 -7 2 -25l50 -3v-32h-45q1 -5 3 -13h-62q-7 12 -8 13 h-168l1 -25h31v-35h-30v-25h31v-35h-30q1 -9 1 -25h30v-35h-29q0 -9 1 -12q3 -17 105 -38v-112q-14 1 -52 3q14 -11 41 -21h-166zM179 790h-33q-33 0 -100 8l-14 2l2 -43q52 -33 56 -78q6 -132 6 -271v-127q-2 -64 -3 -143q-2 -37 -42 -61v-41q45 5 75 5q92 0 144 -5v42 q-100 21 -105 66q-6 152 -6 263h135q58 -8 76 -44h19q-4 23 -4 85q0 55 2 67h-20q-13 -38 -76 -38q-23 0 -33 1l-60 4q-10 1 -35 1v113q0 98 3 122q0 2 61 4l61 3q47 0 80 -13t40 -32h23q0 6 -2.5 39.5t-2.5 42.5q0 36 -72 36q-16 0 -99 -6q-24 -2 -76 -2zM179 -75 q-35 0 -83 -5v35h241v-35q-58 5 -158 5zM188 689q0 -1 -0.5 -5t-0.5 -9h174q-31 14 -73 14q-11 0 -27 -2h-34q-21 0 -39 2zM446 280q-14 24 -37 35h55q2 -31 3 -35h-21z" />
<glyph unicode="g" horiz-adv-x="707" d="M700 297q-16 -10 -23 -27h-82l-1 -26h76q-2 -11 -4 -34h-73v-26h71q-2 -22 -2 -34h-69v-26h69v-34h-71q-4 -18 -7 -26h78v-34h-160q-3 -2 -9 -4l-3 -1q-32 -14 -57 -21h228q-2 -30 -6 -31q-15 -2 -16 -3h-405q-24 19 -38 34h61q-28 9 -57 26h-28q-15 16 -25 34h6 q-67 59 -107 150.5t-40 197.5v6q0 114 43.5 211t123.5 155.5t178 58.5q53 0 133 -25q0 -1 2 -1h2q33 -11 43 -11q9 0 41 6l8 -88h62l3 -32h-63l3 -28h62l4 -34h-63l2 -26h63l3 -32h-123q-34 71 -74.5 95.5t-92.5 24.5q-65 0 -116 -28h90q-37 -14 -64 -34h-71 q-13 -12 -23 -26h63q-16 -16 -29 -34h-55l-12 -26h50q-5 -8 -17 -34h-43q-4 -19 -5 -26h39q-3 -8 -10 -34h-32v-26h28q-4 -24 -4 -34h-22q2 -18 3 -26h17v-7q0 -19 1 -27h-9q24 -82 79.5 -136t123.5 -54q33 0 78 13.5t52 36.5v20q0 36 -1 50q-1 12 -1 34q-4 28 -7 36l-36 27 v100q75 -7 103 -7q14 0 59 5h34v-100q-14 -7 -21 -20l6 -1h10q16 0 66 5q2 0 6 0.5t5 0.5l-1 -10h-94q-4 -9 -7 -26h101v-7zM570 130v90q0 86 7.5 117t27.5 43v39q-1 0 -4 -0.5t-5 -0.5q-36 -4 -60 -4q-47 0 -79 4v-38q29 -23 33 -32q9 -22 9 -52l3 -83v-26 q-5 -40 -58.5 -61.5t-95.5 -21.5q-99 0 -170 101t-71 230t71 211.5t188 82.5q58 0 101 -25t78 -96h21l-14 164q-12 -2 -21 -2q-17 0 -49 12l-4 1q-71 23 -127 23q-138 0 -229.5 -113.5t-91.5 -273.5v-12q0 -155 92 -267.5t217 -112.5q61 0 143 32q49 19 82 26q6 1 6 45z M408 -90q-71 0 -134 34h288q-88 -34 -154 -34z" />
<glyph unicode="h" horiz-adv-x="685" d="M634 14q8 -20 24 -35h-132q12 9 19 24q-36 2 -44 2q-33 0 -69 -6h-36v107q47 17 49 34q2 100 2 199h-280l1 -25h26v-35h-26q0 -17 1 -25h25v-35h-24l1 -25h25v-35h-23q0 -8 1 -12q0 -8 5 -13h18v-15q9 -6 27 -13v-109q-4 1 -11 1q4 -9 17 -19h-136q15 17 19 26h-3 q-27 0 -99 -8v104q40 25 43 41q1 58 1 260q0 139 -6 268q-3 32 -43 66v98q88 -8 103 -8q6 0 19.5 1.5t18.5 1.5q25 3 68 3v-98h32v-25q-3 -2 -9 -5.5t-7 -4.5h-50q-7 -11 -10 -25h39q-6 -11 -12 -35h-30v-25h28q-1 -11 -1 -35h-27q-1 -8 -1 -25h28v-23q-1 -4 -1 -12h-27v-12 h10q96 -2 130 -2q96 0 140 1v39q0 83 -9.5 123.5t-42.5 62.5v103q77 -7 105 -7q1 0 4 0.5t8 1t9 0.5q38 4 80 4v-99h70v-23q-11 0 -20 -12h-76q-4 -7 -8 -25h73q-5 -12 -8 -35h-70q-2 -18 -2 -25h68q-2 -18 -3 -26v-10h-66q0 -3 -0.5 -11t-0.5 -13h67q-1 -13 -1 -35h-66v-25 h65v-35h-65v-25h65v-35h-65v-25h65v-35h-65l1 -26h25q24 0 39 1v-35h-63v-25h64v-35h-63q1 -9 1 -25h63v-35h-62l1 -11q0 -6 5 -14h57l1 -35h-19v-25h20q0 -4 0.5 -13.5t0.5 -15.5v-6h-21v-25h26zM501 42q31 0 84 -5v40q-42 22 -45 68q-6 188 -6 260q0 146 1 173 q3 178 43 179v39q-14 0 -45 -2.5t-33 -2.5q-37 0 -81 4v-40q32 -20 41.5 -66.5t9.5 -142.5v-74q-68 -4 -163 -4q-36 0 -164 4q0 95 1 121v46q0 45 9 72.5t39 43.5v40q-12 0 -42.5 -2.5t-40.5 -2.5q-26 0 -79 5v-37q40 -35 43 -86q6 -172 6 -270q0 -146 -2 -264 q-3 -37 -42 -61v-41q45 5 75 5q10 0 90 -5v41q-46 18 -51 67q-6 178 -6 250q106 2 164 2q48 0 128 -2h35q0 -141 -2 -255q-2 -46 -47 -62v-41q78 6 80 6zM158 -75q-33 0 -83 -5v34h181v-35q-68 6 -98 6zM587 -74q-20 0 -85 -7h-4v35h181v-33q-60 5 -92 5z" />
<glyph unicode="i" horiz-adv-x="272" d="M224 75q0 -7 2 -29v-6h-10v-25h11q2 -6 7 -11.5t14 -14t10 -9.5h-154q12 12 18 25h-12q-25 0 -100 -8v104q18 3 29 16t14 22q2 118 2 263q0 138 -6 268q-4 34 -43 64v100q85 -8 103 -8q5 0 49 4l14 1q9 0 38 7v-103h56v-25q-8 -4 -13 -10h-73q-6 -10 -8 -25h63 q-8 -21 -10 -35h-56l-1 -27h54v-20l-2 -13l-52 -3l-1 -22h53v-35h-53v-25h52v-35h-52v-25h52v-35h-52v-25h52v-35h-52q0 -17 1 -25h51v-35h-51q1 -8 1 -25h51v-35h-50l1 -25h49q1 -12 1 -35h-49q0 -10 1 -14q1 -6 4 -11q17 -1 34 -1q7 0 9 -1t2 -6t0.5 -14t0.5 -13h-7v-25h8 zM110 41q31 0 83 -5v41q-41 21 -44 67q-5 157 -5 260v174q0 53 2 71v19q3 66 40 88v39q-3 -1 -14 -1q-1 0 -5.5 -0.5t-7.5 -0.5q-33 -3 -50 -3q-26 0 -78 5v-38q38 -32 41 -85q6 -103 6 -270q0 -60 -0.5 -150t-0.5 -114q-3 -37 -43 -61v-41q47 5 76 5zM167 -75q-33 0 -83 -5 v35h181v-35q-58 5 -98 5z" />
<glyph unicode="j" horiz-adv-x="326" d="M287 663q-4 -16 -6 -35h-44v-25h42v-35h-42v-25h42v-35h-42v-25h42v-35h-42v-25h42v-35h-42v-25h42v-35h-42v-25h42v-35h-42q0 -17 -1 -25h43v-35h-44l-1 -25h44v-35h-47q-2 -16 -4 -25h51q-2 -26 -2 -35h-56q-1 -5 -3.5 -13.5t-3.5 -11.5h61v-5q-2 -12 -4 -30h-70 q-2 -5 -7 -13.5t-6 -11.5h79q-8 -33 -9 -35h-93q-4 -5 -12.5 -14.5t-9.5 -10.5h107q-10 -24 -15 -35h-137q-41 -24 -91 -32v125q57 18 82.5 63.5t31.5 125.5q5 64 5 148v73q0 28 -5 163v5q0 9 -1 25.5t-1 24.5l-1 15q0 2 -0.5 10t-0.5 13q-2 28 -87 57v109q7 -1 38.5 -3.5 l57.5 -4.5t37 -2q45 0 111 12v-104l-10 -8h56v-14q-13 -9 -21 -21h-58q-2 -16 -3 -25h50zM207 148v5q0 6 1 9q5 52 5 172v332q5 70 37 89v39q-49 -7 -88 -7q-18 0 -109 7v-41q84 -29 86 -83q1 -6 1.5 -20t0.5 -20q7 -170 7 -219v-73q0 -101 -4 -152q-8 -94 -33 -146t-80 -69 v-55q69 11 116.5 70.5t59.5 161.5zM46 -155q44 15 47 38h126q-1 -1 -27 -38h-146zM46 -215v38h118q-36 -25 -118 -38z" />
<glyph unicode="k" d="M194 172l2 -35h-18q12 -17 40 -32v-105q-66 6 -108 6q-37 0 -98 -7v104q40 26 41 39q2 58 2 262q0 138 -6 267q-2 35 -43 65v100q88 -8 103 -8h3t4 0.5t5.5 1t7.5 0.5q30 3 82 3q0 -79 5 -80h3q16 2 21 2v-18h-32q-12 -16 -18 -25h50q-20 -26 -24 -35h-42q-2 -9 -6 -25 h37q-6 -19 -9 -36h-30v-24h28q-2 -12 -2 -35h-24l1 -32q90 110 125 165q14 20 16 41q-2 -7 -12 -7h-3l-15 117q75 -9 118 -9q8 0 46 2q34 3 94 3l-18 -81q8 0 23 1t27 1.5t20 0.5l-5 -22h-69l-2 -9q-18 -8 -31 -16h97q-29 -12 -57 -35h-86q-13 -12 -25 -25h83 q-17 -17 -32 -35h-81q-14 -18 -21 -25h80l-28 -35h-79l-19 -25h78q-5 -7 -14.5 -19l-12.5 -16h-72q3 -4 17 -25h46q-6 -12 -6 -17q0 -9 9 -18h-30l13 -25h27q5 -5 11 -17.5t10 -17.5h-33q4 -12 11 -25h36q10 -19 17 -35h-39q1 -3 3 -7l7 -18h41q1 -1 7 -14.5l9 -20.5h-42 l11 -25h41q10 -24 15 -35h-40q4 -9 12 -25h39q2 -7 14 -35h-34q13 -23 14 -25h31l9 -20.5t7 -14.5h-23q6 -9 20 -25h15q5 -14 14 -29q30 -27 67 -39l27 -112h13q27 -23 50 -35h-107q-12 11 -34 35h46q-52 6 -97 32.5t-75 57.5t-61.5 85.5t-48 90t-42.5 98.5l-4 11l-41 93 l-19 -23h-60q0 -17 1 -25h39l-14 -17v-18h-25q1 -8 1 -25h24q1 -12 1 -35h-24l2 -25h22zM187 758v39q-13 0 -44 -2.5t-34 -2.5q-38 0 -78 5v-38q39 -31 42 -85q6 -129 6 -270q0 -205 -2 -264q-2 -36 -42 -62v-40q45 5 75 5q31 0 84 -5v40q-42 23 -44 68q-6 120 -6 214l68 85 q23 -23 50 -75.5t49 -110.5t53.5 -122t64.5 -114.5t81.5 -83.5t103.5 -33l-11 46q-51 16 -96 70.5t-78 125t-61.5 140.5t-58.5 129.5t-57 80.5l130 164q60 73 114 96l8 43q-16 0 -55.5 -3t-50.5 -3q-39 0 -89 6l6 -41q18 -1 18 -26q0 -36 -22 -70q-43 -67 -167 -216 q2 40 2 58q0 21 -1.5 57.5t-1.5 52.5q0 91 44 142zM74 -34q17 11 29 26h114q10 -15 31 -26v-9h-174v9zM747 -223h-10q-53 3 -103 35h104zM212 398l-38 -46h66q-16 28 -28 46zM157 -73q-35 0 -83 -5v10h174v-10q-58 5 -91 5z" />
<glyph unicode="l" horiz-adv-x="534" d="M528 73q-3 -13 -7 -35h-94q-13 -24 -14 -25h102q-3 -13 -11 -35h-405q12 12 21 27q-32 -1 -114 -10l15 110q16 10 32.5 31t17.5 33v234q0 138 -6 267q0 32 -42 65v100l9 -1q75 -7 93 -7q14 0 86 4q32 2 61 2v-100h40v-22q-25 -6 -43 -13h-66q-14 -13 -16 -25h50 q-12 -15 -17 -35h-34v-25h32v-35h-33v-25h32v-35h-32v-25h31v-35h-31v-25h31v-35h-31v-25h31v-35h-31v-25h31v-35h-31q1 -9 1 -25h30v-35h-29l1 -25h28l2 -35h-21q19 -16 73 -16q33 0 54 3.5t44.5 21.5t35.5 52h73q-17 -95 -35 -146h86zM126 42q19 0 60.5 -3.5t74.5 -3.5 q45 0 135 4q33 41 50 143h-29q-9 -26 -24 -42t-37 -23t-40 -9t-46 -2q-101 0 -105 64q-4 84 -4 223q0 55 0.5 150t0.5 126q3 35 20 56.5t66 31.5v39q-105 -5 -123 -5q-38 0 -79 5v-38q41 -33 43 -85q4 -118 4 -184v-320q0 -21 -17 -50.5t-34 -40.5l-6 -43l7 1q56 6 83 6z M178 -74q-33 0 -99 -8l4 35h410q-12 -22 -19 -30q-122 -5 -148 -5h-19q-29 0 -69.5 4t-59.5 4z" />
<glyph unicode="m" horiz-adv-x="893" d="M807 712q-13 -2 -27 -13h-97q-9 -11 -9 -19l1 -6h85q-10 -17 -13 -35h-68l3 -25h65l4 -35h-65l4 -25h64l5 -35h-65l3 -25h65l4 -35h-65l4 -25h64l4 -35h-65l4 -25h64l5 -35h-65l4 -25h64l4 -35h-65l4 -25h64l5 -35h-65l3 -25h65l4 -36h-64q3 -12 17 -24h50l5 -35h-8v-25 h10l4 -28q0 -2 0.5 -4t0.5 -3h-15v-25h26q13 -21 31 -35h-131q6 9 8 25q-23 3 -39 3q-42 0 -110 -12v110l31 8q-1 66 -14 172l-2 -6h-85q-3 -9 -9 -25h85q-8 -24 -12 -35h-85q-3 -9 -9 -25h85q-8 -24 -12 -35h-85q-3 -9 -9 -25h85q-8 -24 -13 -35h-84q-7 -21 -8 -25h84 q-8 -24 -12 -35h-85l-4 -12h-53l-51 127q-83 208 -100 244h-29l-3 -24h33q-1 -6 -2.5 -18t-1.5 -17h-33q0 -9 -2 -25h33q-1 -6 -2.5 -18t-1.5 -17h-32q-1 -4 -2 -12.5t-2 -12.5h33q-3 -34 -3 -35h-34q0 -5 -1 -13t-1 -12h33q-2 -24 -3 -35h-35q-2 -14 -2 -19v-6h33 q0 -4 -0.5 -13t-1.5 -13q1 0 1 -0.5t1 -0.5l11 -113q-7 1 -17 3q5 -11 15 -18h-106q12 11 19 25q-13 0 -21 1q-23 0 -96 -11l21 113q44 18 53 73l59 507q-8 22 -63 43v107q76 -8 122 -8l37 -95h40l14 -35h-40l10 -25h39l15 -35h-41l10 -25h40l14 -35h-40l9 -25h41l14 -35 h-40l10 -25h40l13 -35h-40l10 -25h40l14 -35h-40l10 -25h40l14 -35h-40l9 -25h24l76 209l6 18l106 291q7 -2 29 -2q18 0 27 1q26 2 62 2v-99h77v-22zM716 151l-65 523v5q0 23 16 49t39 30v39l-81 -5l-208 -573h-6l-226 573q-50 0 -85 5v-38q27 -10 44 -31t18 -40l-59 -514 q-10 -79 -57 -97l-8 -41l4 1q34 5 61 5q40 0 82 -6l-5 44q-36 17 -36 54q0 9 1 14q5 41 43 399l7 -2l51 -126q22 -46 82.5 -199.5t61.5 -155.5h26l171 487l5 5q6 -47 20 -137.5t22.5 -164.5t8.5 -140q0 -32 -31 -39l-1 -39q46 8 87 8q38 0 81 -8v39q-57 29 -63 76zM798 -72 q-48 0 -95 -9v35h184v-35q-45 9 -89 9zM144 -74q-26 0 -71 -7l7 35h150l4 -35q-23 4 -90 7zM447 -21l-13 35h76l-12 -35h-51zM539 339q-3 -9 -9 -25h71q-2 16 -3 25h-59zM593 374q-2 9 -4 25h-29q-3 -9 -9 -25h42zM203 458l-3 -24h13q-6 12 -10 24zM584 434l-4 23 q-1 -5 -3.5 -13t-3.5 -10h11zM679 642q0 2 -1 3z" />
<glyph unicode="n" horiz-adv-x="710" d="M103 -18q13 15 17 23q-10 1 -26 1q-19 0 -74 -7v104q38 25 42 41v20q2 118 2 242v190v79v5q-5 13 -18 25.5t-30 16.5l-10 118l64 -6q8 -1 26.5 -2.5t23.5 -1.5l65 -93h41l26 -35h-41l17 -25h41l25 -35h-41l18 -25h41l25 -35h-41l17 -25h42l25 -35h-42l18 -25h41l25 -35 h-41l17 -25h42l25 -35h-41l17 -25h41l20 -28v56q0 95 -6 269q-1 19 -8 32t-31 32v98l73 -8q21 0 102 12v-103h72v-25q-10 -6 -14 -10h-89q-7 -13 -8 -25h80q-8 -18 -11 -35h-71q-1 -8 -1 -26h70q-2 -22 -2 -34h-68v-25h68q-1 -12 -1 -35h-67v-25h67v-35h-67v-25h67v-35h-67 l-1 -25h68v-35h-68q0 -17 -1 -25h68v-35h-68q-1 -8 -1 -25h69v-35h-69v-25h67v-35h-67l1 -25h66v-35h-66l1 -25h66v-35h-65v-25h66v-35h-63q-3 5 -8.5 12t-7.5 9h-40l-18 24l-238 327l-91 123v-15h-40v-25h40v-35h-39v-25h39v-35h-39v-25h40v-35h-39q0 -17 1 -25h38 q0 -24 1 -35h-39q1 -9 1 -25h38q0 -24 1 -35h-38q0 -10 1 -13q2 -8 5 -12h33v-29q1 0 3.5 -1t3.5 -2v-88q6 -20 23 -35h-121zM481 800v-39q22 -18 29 -36t10 -49q5 -147 5 -271v-195l-415 584q-13 1 -39 4t-37 4l4 -49q18 -5 32.5 -26.5t17.5 -42.5v-7v-81v-192 q0 -59 -1 -149.5t-1 -113.5q-3 -37 -42 -62v-40q27 4 50 4q30 0 83 -5v40q-41 22 -44 68q-2 10 -2 16v19q0 41 -2 116t-2 109v121q0 61 1 85l419 -573h20q-3 73 -3 208v65q2 52 2 146v87q0 86 2 125q3 65 40 88v39q-4 -1 -13 -1l-13 -1q-22 -3 -52 -3q-11 0 -28 4 q-9 2 -15 3q-2 0 -4 1h-2zM139 -73q-25 0 -55 -4v34h162v-35q-58 5 -107 5zM636 -77l-25 34h46q0 -24 1 -34h-22zM466 342l18 -25h18v25h-36zM150 497h25l-25 35v-35z" />
<glyph unicode="o" d="M623 4q-16 -16 -39 -34h-351q-26 22 -38 34h62q-28 9 -57 26h-29q-15 16 -25 34h7q-67 59 -107 150.5t-40 197.5v4q0 168 98 293t231 125h4q91 0 161.5 -45t113.5 -125h16q12 -13 29 -34h-29l10 -26h37q15 -28 18 -34h-44l7 -26h49q5 -12 13 -34h-56l4 -26h59 q5 -16 7 -34h-64q1 -9 1 -26h69q1 -6 2.5 -17.5t1.5 -16.5h-73q-2 -18 -2 -26h77v-30v-4h-81q-1 -11 -5 -26h86q-2 -24 -4 -34h-89q-3 -11 -8 -26h94q-1 -7 -4 -19.5t-3 -14.5h-100q-4 -12 -11 -26h104q-3 -12 -11 -34h-113q-7 -13 -17 -26h120q-8 -19 -17 -34h-131 q-9 -10 -27 -26h142q-8 -15 -25 -34h-164q-30 -17 -60 -26h201zM339 798h-4q-123 0 -213.5 -114t-90.5 -267v-10q0 -155 91.5 -267.5t216.5 -112.5q130 0 219.5 110t89.5 277q0 166 -83.5 275t-225.5 109zM339 720q104 0 171 -92t67 -246q0 -124 -67.5 -200t-170.5 -76 q-98 0 -165 98.5t-67 230.5q0 126 65 205.5t167 79.5zM157 424q-2 -22 -4 -34h-20q2 -18 4 -26h16v-7v-27h-9q23 -83 75.5 -135.5t119.5 -52.5q93 0 153.5 66.5t60.5 173.5q0 137 -60.5 219t-153.5 82q-45 0 -86 -19h101q-43 -10 -79 -34h-71q-12 -12 -23 -26h62 q-21 -24 -29 -34h-54q-9 -21 -11 -26h49q-9 -17 -17 -34h-42q-4 -19 -5 -26h38q-8 -25 -10 -34h-31v-26h26zM407 -90q-70 0 -133 34h269q-60 -31 -126 -34h-10z" />
<glyph unicode="p" horiz-adv-x="555" d="M107 -20q16 14 24 25h-5q-49 0 -108 -8v105q49 29 52 38q1 59 1 262q0 164 -6 268q-2 31 -59 54v109q42 -3 63 -7q35 -5 56 -5q20 0 154 10q55 0 101 -28t74 -85q14 -10 22 -18h-15q3 -5 10 -25h26q11 -15 21 -35h-39q1 -4 2.5 -12.5t2.5 -12.5h44q8 -21 10 -35h-51v-25 h56q2 -11 4 -35h-61q0 -9 -2 -25h64l1 -10q0 -9 -2 -25h-71q-3 -16 -7 -25h76q-4 -24 -7 -35h-80q3 8 3 16q-27 -63 -81 -101h119q-15 -20 -32 -35h-164q-28 -8 -62 -8q-23 0 -41 8h-16q0 -17 1 -25h249q-57 -35 -108 -35h-39q-25 2 -73 21q0 -14 1 -21h-30q2 -18 2 -25h28 l1 -35h-28q0 -2 0.5 -6.5t1.5 -6.5q0 -12 118 -37v-112q-14 1 -65 3q14 -9 51 -21h-187zM95 402q0 -146 -2 -264q-2 -31 -52 -61v-41q38 5 85 5q104 0 159 -5v42q-63 13 -90.5 27.5t-28.5 38.5q-3 37 -7 188q44 -23 82 -23q89 0 156 62t67 180q0 120 -53.5 181.5 t-131.5 61.5q-25 0 -78 -5q-52 -5 -76 -5q-13 0 -47.5 4.5t-46.5 5.5v-42q55 -23 57 -80q7 -120 7 -270zM166 714q35 7 72 7q62 0 107.5 -45t45.5 -119q0 -102 -38 -144.5t-114 -44.5q-13 0 -80 12v24q0 146 1 174q0 6 2.5 68t3.5 68zM184 577l-1 -22h33q0 -8 -0.5 -20 t-0.5 -15h-32v-25h31v-35h-31v-25h31v-28q18 -3 25 -3q64 2 96 36.5t32 116.5q0 73 -61 110h-66q-14 -2 -19 -3l-1 -8v-16h-34q-1 -9 -1 -25h34l-1 -35zM178 -75q-51 0 -94 -5v35h268v-35q-58 5 -174 5zM432 340q11 16 18 35h80q-5 -17 -15 -35h-83zM188 680v-3l-1 -2h102 q-27 10 -51 10q-18 0 -50 -5z" />
<glyph unicode="q" horiz-adv-x="785" d="M965 -191q-67 -19 -98 -19q-57 0 -112 19h-93q-40 24 -61 35h73l-47 25h-74q-20 10 -52 23q-2 1 -13.5 5.5t-18.5 6.5h98q-19 12 -43 25h-194q-43 12 -84 35h208q-14 7 -26 11q-24 9 -42 14h-177q-24 19 -39 35h59q-28 12 -47 25h-34q-14 17 -25 35h13q-130 115 -130 320 q0 175 103 301.5t239 126.5q100 0 176 -56.5t117 -151.5h19q12 -15 24 -35h-29l7 -25h35q9 -17 16 -35h-42q2 -7 4 -25h47q2 -6 5.5 -17.5t5.5 -17.5h-53q2 -18 2 -25h56l6 -35h-61l-1 -25h65q2 -24 2 -35h-70q0 -9 -2 -25h72q0 -24 -2 -35h-78q-1 -13 -6 -25h83 q-4 -24 -6 -35h-88l-5.5 -13.5t-4.5 -11.5h92q-1 -5 -9 -35h-101q-5 -9 -15 -25h107q-10 -24 -16 -35h-118q-6 -8 -20 -22l8 -3h116l-22 -35h-21l34 -19q50 -27 80 -41.5t75.5 -28.5t84.5 -14q35 0 76 11h46l24 -113q-3 -1 -9 -4t-9 -4h91l6 -27h-177zM348 795 q-127 0 -222.5 -115.5t-95.5 -275.5q0 -158 89 -259t220 -111q43 -4 95 -23q55 -21 137.5 -71t154 -82t141.5 -32q27 0 83 14t83 28l-11 53h-28q-37 -11 -77 -11q-53 0 -112.5 21t-104 47.5t-103.5 54.5t-106 39q77 45 123 134t46 206q0 160 -86 271.5t-226 111.5zM108 426 q0 128 65.5 209t172.5 81q103 0 171.5 -85t68.5 -231q0 -132 -63.5 -210.5t-168.5 -78.5q-107 0 -176.5 90.5t-69.5 224.5zM134 469q0 -1 -1 -10t-2 -15h22q-4 -25 -5 -35h-17q2 -18 2 -25h12q-1 -12 -1 -35h-5q19 -90 77 -145.5t138 -55.5q94 0 151 68t57 184 q0 101 -39 169.5t-103 95.5q-5 1 -14 1q-50 0 -93 -17h-77q-12 -7 -32 -25h62q-18 -12 -40 -35h-51l-14 -25h44q-16 -26 -21 -35h-37q-2 -6 -7 -25h32q-4 -11 -12 -35h-26zM768 -251q-21 11 -63 35h444l8 -35h-389zM977 -311h-12q-67 3 -145 35h314q-37 -14 -84.5 -24.5 t-72.5 -10.5zM299 684h84q-15 8 -38 8q-25 0 -46 -8z" />
<glyph unicode="r" horiz-adv-x="759" d="M206 172q1 -12 1 -35h-29q7 -16 42 -35v-105q-75 7 -107 7q-46 0 -107 -8v105q46 28 51 40v19q0 26 0.5 108t0.5 133q0 124 -5 269v-2q-3 26 -47 55v106q74 -9 106 -9q10 0 37.5 2t42.5 2q60 4 82 4q147 0 199 -118q21 -18 34 -33h-23q6 -23 6 -25h33q6 -11 16 -35h-44 q0 -9 2 -25h48q4 -16 6 -35h-55q-3 -23 -3 -25h60q1 -5 1 -16q0 -4 -0.5 -10t-0.5 -9h-67q-2 -11 -8 -24h73q-3 -18 -8 -37h-83q-10 -15 -19 -24h92q-11 -24 -20 -35h-111q-10 -7 -30 -17q0 -2 2 -4t2 -4h115q-22 -22 -48 -35h-48q5 -12 11 -25h6q14 -14 27 -35h-19 q4 -10 6 -14q1 -1 2.5 -5t2.5 -6h23q18 -33 19 -35h-26q3 -9 11 -25h25q2 -4 6.5 -16.5t7.5 -18.5h-21q5 -9 15 -25h17q10 -24 15 -35h-5q7 -8 22.5 -30t26.5 -33.5t37 -22.5t62 -11l16 -88q-37 -15 -54 -20h53q5 -2 14 -7t13 -6l12 -3t19 -2l3 -17h-184q-17 17 -32 35h56 q-38 5 -71 24t-55 40t-46 60t-36 64.5l-33 72.5q-45 100 -76 142h-61v-18h-32v-25h33q0 -24 1 -35h-32v-25h32zM648 -57q-56 3 -99 36.5t-71 86.5t-50.5 108t-49.5 113t-56 90q151 47 151 202q0 102 -52 157.5t-147 55.5q-18 0 -80.5 -4.5t-81.5 -4.5q-38 0 -81 6v-41 q41 -27 46 -77q5 -215 5 -270q0 -148 -2 -264q-2 -32 -51 -60v-41q44 4 84 4q19 0 83 -4v41q-23 12 -32.5 26t-10.5 40q-6 97 -6 218h47q19 0 28 1q44 -26 80 -83t61.5 -117.5t56 -119t79.5 -96.5t117 -40q10 0 37 11zM153 715q81 11 89 11q81 0 118.5 -34.5t37.5 -105.5 t-60 -110.5t-125 -39.5h-66v147q0 4 0.5 37.5t2 62t3.5 32.5zM178 682q-3 -1 -7 -1v-29h40q-2 -9 -2 -35h-38v-3q-1 -6 -1 -22h37v-35h-36v-25h36q0 -4 -1 -8v-4v-23h-35v-24h42q57 0 109.5 29.5t52.5 83.5q0 104 -133 104q-22 0 -64 -8zM66 -43v7q19 11 36 28h123 q9 -15 35 -29v-6h-194zM710 -223q-68 0 -120 35h157l5 -23q-27 -11 -38 -12h-4zM66 -81v13h194v-13q-57 5 -101 5q-51 0 -93 -5zM231 312q-1 1 -4 2.5t-4 2.5h-52v-25h81l-11 10.5t-10 9.5z" />
<glyph unicode="s" horiz-adv-x="489" d="M204 308h32q-11 6 -19 13q-12 8 -17 12h-11q-8 15 -31 33q-30 24 -48 42t-38 46t-29.5 63t-9.5 80q0 95 47.5 165.5t132.5 70.5q19 0 52 -8q33 -7 43 -7q2 0 12 2q8 1 37 1l12 -93h43l5 -35h-44l3 -25h44l4 -35h-44l3 -19h-65q-13 32 -26 42q-28 31 -87 31q-31 0 -55 -19 h82q-30 -11 -49 -35h-46q3 -15 11 -25h20q-4 -14 -4 -22q23 -24 61 -54q5 -6 19 -16q3 -3 46 -34q30 -23 43.5 -34.5t35.5 -34.5t34 -48.5t18 -56.5h3q16 -17 28 -35h-27q0 -3 0.5 -9.5t0.5 -9.5v-6h39q5 -11 11 -35h-52q-1 -9 -3 -25h59q2 -9 2 -29v-6h-69q-2 -9 -8 -25h76 q-1 -14 -5 -35h-87q-14 -21 -17 -25h99q-8 -24 -12 -35h-122q-21 -16 -45 -25h155q-8 -13 -26 -35h-322l-5 32q-11 2 -24 8q-18 4 -31 4l-33 218h91q1 -30 17.5 -51t40 -29t40.5 -11t31 -3q27 0 53 14q5 13 2 33h30q5 9 7 25h-37q0 7 -9 20t-10 15h43q-14 16 -24 25h-28 q-11 16 -49 35zM212 30q92 0 141 62t49 162q0 37 -9.5 66.5t-30 53.5t-36.5 38t-47 37q-40 28 -48 37l-18 15q-34 28 -51 44.5t-33.5 43.5t-16.5 54q0 31 29.5 55.5t63.5 24.5q67 0 100 -36q17 -15 26 -37h23l-17 134q-3 0 -14 -1t-15 -1q-18 0 -47 8q-39 7 -48 7 q-75 0 -115.5 -59.5t-40.5 -140.5q0 -40 9 -71.5t32.5 -59.5t38 -41t50.5 -42q5 -3 18.5 -13.5t21.5 -15.5q27 -18 42.5 -30t34.5 -30.5t28 -38t9 -40.5q0 -50 -36 -80t-79 -30q-17 0 -36.5 2.5t-47.5 11t-47 29t-20 51.5h-39l22 -145q7 -2 17 -6q52 -18 137 -18zM273 -87 q-95 0 -150 20q-17 6 -19 6l-1 9h290q-47 -31 -106 -35h-14zM369 594q-1 2 -8 14h67l2 -14h-61z" />
<glyph unicode="t" horiz-adv-x="669" d="M416 639h-47v-25h48q0 -24 -1 -35h-47l-1 -25h47v-35h-48v-25h47v-35h-47v-25h46v-35h-46v-25h46v-35h-46l1 -25h45v-35h-44v-25h45v-35h-44v-25h45v-35h-43v-13q2 -8 5 -12h39v-35l3 -60h-3v-25h8q6 -20 21 -35h-132q14 16 18 24q-9 1 -22 1q-27 0 -99 -8v104 q39 24 43 38q0 24 0.5 114t0.5 149v155q0 4 -0.5 12t-0.5 13v83h-76q-29 -7 -50 -25h-49l-16 -25h43l-9 -15.5t-8 -13.5h-37q0 13 2 21h-47q2 80 34 154l30 79h35q12 -16 40 -16h253q20 0 61 1t56 1q25 0 45 15h49q-17 -78 -26 -106h80q-4 -15 -11 -35h-81q-4 -9 -7 -25h79 q-2 -6 -5.5 -18t-5.5 -17h-76q-4 -20 -5 -29h-63q0 37 -35 55q-6 0 -36 -3q-1 -8 -1 -23zM515 789q-31 0 -102.5 -1.5t-85.5 -1.5q-142 0 -183 1q-37 2 -47 16h-13q-8 -24 -23 -60.5t-22.5 -59t-7.5 -41.5h16q22 43 50.5 60.5t87.5 17.5q40 0 90 -7l1 -30q2 -26 2 -77v-205 q0 -147 -2 -263q-2 -37 -42 -62v-40l8 1q36 3 67 3q20 0 84 -4v40q-40 21 -45 67q-3 60 -5 261v36q0 117 5 272q16 3 39 3q51 0 89 -16t38 -52v-4h18q5 37 22.5 86.5t22.5 73.5h-12q-19 -14 -50 -14zM376 -76q-33 0 -83 -5v35h174v-35q-57 5 -91 5zM564 586v4q0 14 -6 24h67 q-2 -10 -4 -28h-57zM185 683q-38 0 -62 -9h130v5q-54 4 -68 4zM370 679v-5h58q-22 5 -41 5h-17z" />
<glyph unicode="u" horiz-adv-x="646" d="M195 244q1 -11 1 -35h-6q39 -69 104 -69q69 1 107 44.5t38 113.5v372q0 22 -11 34.5t-37 22.5v103q37 0 42 -1q1 0 3 -1h3q23 -3 31 -3h3t4 0.5t5.5 1t6.5 0.5q32 4 54 4h29v-76l-16 -31h84v-15q-21 -8 -30 -20h-78q0 -3 -0.5 -10.5t-0.5 -12.5v-2h68q-2 -12 -4 -35h-65 q-1 -8 -1 -25h64v-35h-65v-25h64q-1 -11 -1 -35h-63v-25h63v-35h-63v-25h63v-35h-63v-25h63v-35h-63v-25h63v-35h-65q0 -5 -0.5 -13t-0.5 -12h66v-5q0 -21 -1 -30h-69q-1 -4 -2.5 -12.5t-2.5 -12.5h73q-3 -34 -3 -35h-78q-1 -3 -3.5 -11.5t-4.5 -13.5h84q-4 -24 -7 -35h-93 q-16 -23 -17 -25h104q-8 -27 -12 -35h-128q-19 -15 -49 -25h164q-7 -13 -25 -35h-329q-20 22 -29 35h42q-70 25 -112 89.5t-42 165.5q0 -1 0 14t-0.5 39t-0.5 50v50v36l-1 222q0 30 -43 62v101q76 -9 103 -9q2 0 16 2q30 4 53 4h33v-100l-9 -6h41v-16q-13 -8 -21 -19h-46 q-4 -11 -6 -25h38q-7 -18 -8 -35h-30v-25h28v-35h-29v-25h28v-35h-29v-25h28v-35h-29v-25h29v-35h-30v-25h29v-35h-27v-25h26q0 -23 1 -35h-25q1 -9 5 -25h20zM549 755v39h-6q-15 0 -43 -2.5t-30 -2.5q-11 0 -32 3h-7q-6 1 -16 1v-38q25 -10 36 -28.5t11 -56.5v-372 q0 -86 -43.5 -139.5t-124.5 -54.5q-57 0 -101.5 52.5t-46.5 121.5q-3 89 -2 125l2 263q5 68 41 88v39h-9q-15 0 -41 -2.5t-28 -2.5q-25 0 -78 5v-38q42 -33 42 -85v-222v-35.5t0.5 -49.5t1 -49.5t0.5 -38.5t0 -14q0 -114 60.5 -174.5t151.5 -60.5q120 0 168.5 73t48.5 228 q0 231 3 341q1 43 10 60.5t32 26.5zM353 -91q-71 0 -129 35h267q-47 -31 -121 -35h-17z" />
<glyph unicode="v" horiz-adv-x="742" d="M259 601l11 -35h-30q2 -8 10 -25h28q4 -15 11 -35h-28q3 -9 9 -25h28l10 -30l1 -5h-27q1 -2 4 -11t5 -14h27q0 -1 5 -14t7 -21h-27q1 -3 9 -25h27q2 -4 6 -16t7 -19h-28l9 -25h27l5 -14q26 88 103 329l29 95q0 1 -49 16l14 106q75 -6 89 -6q48 0 104 11l7 -88q45 0 69 5 l1 -9h-70l2 -19q-8 -3 -12 -6h82l1 -15q-16 -8 -28 -20h-96q-10 -11 -16 -25h90q-14 -22 -19 -35h-86l-5.5 -13.5t-4.5 -11.5h85l-14 -35h-84l-9 -25h84q-5 -11 -13 -35h-83l-8 -25h82q-1 -4 -5 -16t-7 -19h-82l-8 -25h82q-4 -11 -12 -35h-82q-1 -2 -4 -11t-5 -14h82 q-3 -11 -11 -35h-82l-8 -25h81q-1 -5 -5 -17l-6 -18h-82l-8 -25h82l-12 -35h-82l-8 -25h82l-12 -35h-81q-3 -9 -9 -25h82q-8 -24 -12 -35h-82q-2 -9 -8 -25h82q-8 -24 -12 -35h-82q-1 -5 -4 -13t-4 -12h82q-3 -11 -11 -35h-72q-2 7 -8 21h-41q-2 5 -7 19l-14.5 40.5 t-20.5 60.5l-130 376q-6 16 -11 31q-41 110 -65 156q-6 14 -10 20.5t-17.5 18.5t-36.5 26l6 109q90 -15 107 -15q15 0 40 3q39 4 58 5l5 -84q32 2 48 4l1 -11h-49l1 -5l-2 -2q-16 -14 -25 -14v-4h76l1 -3q-22 -19 -27 -32h-43q4 -16 6 -25h37q4 -22 7 -35h-33q7 -21 8 -25 h31zM359 177h-8l-116 327l-2 7q-2 3 -4 9l-12.5 38.5l-15.5 48l-13.5 43.5t-11 44.5t-3.5 33.5q0 16 25 35l-2 36q-13 -1 -30 -3t-28 -3t-19 -1q-4 0 -21 2.5t-37 5t-27 3.5l-3 -43q17 -10 28.5 -21t16 -18.5t12.5 -22.5l2 -5q25 -49 70 -178q2 -6 6 -16q165 -473 166 -475 h17l143 429q45 136 73 207q30 72 73 92l-4 45q-32 -6 -83 -6q-33 0 -69 3l-6 -39q45 -13 45 -36q0 -17 -32 -119zM388 -94q-1 4 -3 8.5t-4.5 12t-5.5 14.5h55l-11 -35h-31zM346 266l7 -20q1 6 5 20h-12z" />
<glyph unicode="w" horiz-adv-x="950" d="M363 -34l-7 21h-38q-2 5 -7 19l-14.5 40.5t-20.5 60.5l-130 376q-2 4 -11 31l-3 7q-38 102 -62 149q-6 14 -10 20.5t-17.5 18.5t-36.5 26l6 109q90 -15 107 -15q15 0 40 3l58 5l5 -86q6 1 22 3l5 90q90 -15 107 -15q14 0 39 3q33 3 59 5l2 -46l6 42q75 -6 89 -6 q48 0 104 11l7 -90q18 2 26 4l11 81q72 -6 88 -6q49 0 105 11l6 -90q20 2 43 7v-9q-33 0 -43 1l2 -20l-11 -6h53l2 -15q-14 -8 -26 -20h-70q-8 -11 -16 -25h67q-7 -11 -18 -35h-65q-7 -21 -9 -25h65q-7 -16 -13 -35h-65l-9 -25h66q-4 -11 -12 -35h-66q-3 -14 -9 -25h67 q-7 -25 -11 -35h-67q-1 -2 -2 -5.5t-2 -5.5l-5 -14h69q-2 -6 -5.5 -18t-5.5 -17h-69l-8 -25h69q-2 -11 -10 -35h-71l-8 -25h72q-7 -20 -11 -35h-72q-2 -5 -5 -14t-4 -11h74l-11 -35h-75q-1 -2 -4 -11t-5 -14h77q-9 -27 -11 -35h-77q-7 -21 -8 -25h78q-4 -15 -11 -35h-79 q-7 -21 -8 -25h80q-8 -24 -11 -35h-81q-1 -3 -3.5 -11.5t-4.5 -13.5h82q-7 -27 -10 -35h-73q-2 10 -6 21h-44l-57 166q0 -3 -2 -7h-79l-8 -25h79q-6 -24 -10 -35h-81q-1 -5 -3.5 -13.5t-3.5 -11.5h82q-8 -24 -11 -35h-83q-7 -21 -8 -25h83q-2 -6 -5 -17.5t-5 -17.5h-79z M595 177h-7l-97 272q0 3 1 4q45 136 73 207q30 72 73 92l-4 45q-33 -6 -83 -6q-33 0 -70 3l-5 -39q45 -13 45 -36q0 -15 -32 -120l-24 -75l-13 38t-16 48l-12.5 42t-11 44.5t-3.5 31.5q0 16 26 35l-3 36q-13 -1 -30 -3t-28 -3t-18 -1q-6 0 -43 5t-43 6l-2 -43 q18 -11 29.5 -22.5t16.5 -20.5t12 -25q21 -40 77 -192q22 -64 29 -82q-46 -143 -73 -241h-8l-116 327l-2 7q-2 3 -4 9l-12.5 38.5l-15.5 48l-13.5 43.5t-11 44.5t-3.5 33.5q0 16 25 35l-2 36q-13 -1 -30 -3t-28 -3t-19 -1q-4 0 -21 2.5t-37 5t-27 3.5l-3 -43 q26 -15 36.5 -29t21.5 -39q25 -48 68 -169l4 -10q1 -3 5 -14q165 -473 166 -475h17l107 323l66 -190l35 -98t10 -29l2 -6h17l143 429q46 139 74 207q28 71 71 92l-3 45q-33 -6 -84 -6q-33 0 -69 3l-5 -39q43 -13 45 -36q0 -16 -33 -119zM352 301l9 -26q20 70 44 143l-23 65 q-1 4 -11 31q-36 102 -64 158q-12 27 -36 44q-18 -16 -21 -30h-48q1 -3 3.5 -11.5t3.5 -13.5h41q0 -9 6 -35h-36q7 -21 8 -25h33q1 -5 4 -16t5 -16l1 -3h-31q2 -8 10 -25h28l5.5 -19t4.5 -16h-27q3 -9 9 -25h27q2 -13 8 -30l2 -5h-25q1 -2 4 -11t5 -14h23q7 -21 11 -35h-22 q6 -16 9 -25h21l11 -35h-20q6 -11 9 -25h19zM616 541q-4 -11 -12 -35h-68l-8 -25h69q-2 -6 -5.5 -18t-5.5 -17h-68q6 -16 9 -25h51q-3 -11 -11 -35h-28q6 -16 10 -25h30q4 -13 12 -35h-30l8 -25h30l3 -12l103 327l29 95q-7 3 -26 9l1 -14q-11 -6 -25 -20h-73 q-10 -11 -16 -25h69q-12 -22 -17 -35h-67l-10 -25h67q-2 -4 -12 -35h-68l-8 -25h67zM382 -94q-8 26 -12 35h64l-10 -35h-42zM658 -94l-34 2q-7 19 -11 33h56zM436 206l-8 -25h59q-2 5 -4.5 13.5t-3.5 11.5h-43zM482 661q1 5 3.5 13.5t3.5 11.5h-50q5 -19 7 -25h36zM265 721 q-16 11 -22 14l1 11h-22v-5q-21 -18 -23 -20h66zM664 727q-8 -3 -12 -6h52q-2 1 -8 2.5t-11 3.5l3 19h-26zM457 269l-9 -28h19q-5 11 -10 28zM465 603l3 12q1 3 3 11h-14l3.5 -11t4.5 -12zM448 733l-14 -8v-4h34q-2 1 -8.5 2.5t-11.5 3.5v6zM590 246q1 6 5 20h-13 q1 -4 8 -20zM353 247q1 4 5 19h-12q3 -12 7 -19zM539 455q0 1 -2 5q0 -1 0.5 -2.5t1.5 -2.5zM512 433l1 3l-1 -1v-2z" />
<glyph unicode="x" horiz-adv-x="767" d="M354 675q3 -18 9 -35h-46q2 -4 6 -10l9 -15h32q55 93 55 120q-4 0 -10 5v96q80 -10 116 -10q7 1 11 2q35 7 97 7l-12 -100h116l-3 -28q-16 -1 -30 -7h-137q-11 -7 -31 -25h130q-18 -15 -35 -35h-125q-2 -2 -19 -25h125q-5 -6 -13 -19t-10 -16h-124l-15 -25h124l-20 -35 h-122l-4 -8l-9 -17h121q-1 -2 -19 -35h-110l13 -25h84l-11 -19t-9 -16h-45l13 -25h43l18 -35h-43q2 -5 7 -13.5t6 -11.5h43l19 -35h-43q2 -5 7 -13.5t6 -11.5h43l19 -35h-43q3 -9 13 -25h43l18 -35h-41q10 -15 22 -25h32l19 -35h-7l5 -25h15l12 -22q3 -8 7 -13h-29l4 -25h41 q17 -23 37 -35h-144q1 2 1 5q0 2 -3 17q-35 3 -56 3q-36 0 -112 -10l16 114q4 0 8 -2q-7 18 -41 82l-2 3l-16 28h-108q-4 -9 -14 -25h125q-2 -4 -9 -16.5t-11 -18.5h-124q-8 -18 -12 -25h121l-19 -35h-83v-28l2 3h68l-16 -35h-54v-25h46q-3 -13 -3 -25v-10h-133l32 22l-63 5 q-22 2 -119 -13l34 120q54 22 83 62q26 40 104 176l48 83q-5 9 -9 21l-26.5 59.5t-32.5 65.5t-40 67.5t-42 47t-46 24.5l-21 117q102 -10 123 -10q16 0 104 8v-94q-3 -5 -6 -6h84l-1 -22q-5 -6 -6 -13l-70 1q2 -5 6.5 -14t5.5 -12h56zM527 790q-55 0 -94 6v-34q11 -7 11 -25 q0 -17 -10 -44t-20.5 -46l-26 -47t-16.5 -29l-25 -43q-2 4 -9 19t-11 22l-26.5 46.5t-34.5 68t-12 49.5q0 17 8 26l1 37q-38 -5 -81 -5t-92 6l8 -43q30 -3 67 -50t62.5 -99t50.5 -109t28 -62l-3 -4l-8 -17l-47.5 -83.5l-57 -99t-50.5 -80.5q-32 -46 -82 -67l-13 -47 q45 8 82 8l96 -8v39q-16 1 -22 6.5t-6 18.5q0 26 19.5 68t64 115.5t55.5 94.5q4 -7 12.5 -25.5t13.5 -27.5l34 -68l28 -53.5t33 -66.5t11 -41q0 -18 -15 -20l-5 -40q40 6 82 6q31 0 97 -6l-8 44q-25 10 -42 28t-34 50l-166 314q10 16 41.5 74t54.5 96.5t59.5 74t69.5 36.5 l6 46q-14 0 -32.5 -2.5t-31.5 -4.5t-14 -2zM655 -74q-45 0 -91 -6l5 35h185l6 -35q-72 6 -105 6zM214 -72q-42 0 -91 -8l10 35h186v-35zM309 280l-7 -11q-4 -5 -10 -15q55 -6 77 -10l-17 36h-43z" />
<glyph unicode="y" horiz-adv-x="745" d="M339 554l18 -35h-31q2 -5 7 -14t6 -11h11q41 67 87 153q28 52 28 82q0 -6 -8 -6q-5 0 -7 1l-21 121q61 -16 129 -16q58 0 110 15l-6 -110h76l-1 -19q-16 -5 -30 -16h-94q-4 -4 -11.5 -12.5t-11.5 -12.5h90q-12 -12 -28 -35h-88l-17 -25h88l-22 -35h-87q-1 -2 -6.5 -11 t-7.5 -14h86l-20 -35h-87l-10 -20q-2 -4 -3 -5h86l-19 -35h-86q-1 -2 -14 -25h87q-2 -4 -9 -16.5t-11 -18.5h-88q-2 -3 -7 -11.5l-8 -13.5h90q-12 -20 -17 -29l-2 -3l-2 -3h-83v-25h68l-22 -35h-46v-25h44v-35h-43v-25h44q1 -12 1 -35h-44q0 -9 1 -12q0 -7 3 -13h40l1 -18 l-1 -17v-85h8q6 -20 22 -35h-130q14 14 18 24q-9 1 -24 1q-25 0 -100 -8v104q43 26 43 38v181l-48 99q-59 127 -110 215l-6 9q-12 22 -20.5 34t-29 26.5t-47.5 19.5l-11 118q88 -12 125 -12t114 14l-10 -108h66l-3 -26q-7 -1 -11 -9h-48q5 -12 11 -25h37q5 -16 12 -36h-30 q6 -14 11 -24h30q6 -13 17 -35h-30q3 -5 6.5 -13.5t5.5 -11.5h30zM558 792q-66 0 -97 9l8 -46q20 -6 20 -24q0 -45 -33 -109q-82 -145 -112 -189q-25 40 -94 183l-4 8l-2 4q-42 81 -42 109q0 14 11 17l5 47q-50 -9 -87 -9q-44 0 -97 8l4 -45q22 -4 41.5 -20t28 -28.5 t23.5 -37.5l6 -10q52 -92 113 -218q42 -91 52 -109v-194q0 -38 -43 -62v-40h11l6 1q33 3 59 3q19 0 83 -4v40q-41 21 -44 67q-3 37 -6 209v8q32 49 90 156.5t101.5 170.5t80.5 74l2 39q-24 -8 -84 -8zM402 -76q-33 0 -83 -5v35h174v-35q-57 5 -91 5z" />
<glyph unicode="z" horiz-adv-x="718" d="M701 72q-8 -24 -12 -35h-124q-10 -16 -20 -25h133q-8 -19 -18 -35h-583l-5 22q-12 -1 -36 -1l-30 119q26 41 182 265l15 21l183 263q-136 -2 -183 -29h-54q-9 -11 -14 -25h40q-10 -14 -14 -33h-34q0 2 -0.5 9.5t-0.5 11.5h-57q0 8 -1 21.5t-1.5 23.5t-0.5 18q0 94 30 164 q15 5 39 5q14 0 36.5 -0.5t53 -1.5t47.5 -1q86 -2 91 -2l27 -1q26 -1 70 -1h55q14 0 39 -0.5t29 -0.5l23 -92h55l9 -35h-79l-18 -25h92q-4 -5 -12 -17t-13 -18h-91q-6 -9 -18 -25h92q-5 -8 -25 -35h-91q-6 -9 -18 -25h92q-16 -24 -25 -35h-91l-12 -18q-4 -6 -5 -7h91 q-16 -24 -24 -35h-91l-18 -25h91q-16 -24 -24 -35h-92l-17 -25h92l-25 -35h-92q-6 -9 -18 -25h92q-6 -10 -24 -35h-93l-17 -25h93l-25 -35h-92l-18 -25h93l-25 -35q80 4 121 4q108 0 136 86h88q-20 -80 -45 -136h107q-1 -3 -4 -14h-109q-4 -9 -12 -25h114zM283 39 q29 0 58 -1q18 -1 62 -1q102 -3 116 -3q28 11 55 62t42 114h-39q-8 -24 -22.5 -41t-38 -28t-38 -15.5t-42.5 -11.5l-9 -2h-279l433 620l-14 56q-8 0 -22 0.5t-39.5 1t-45.5 0.5q-73 1 -97 1h-8q-16 0 -99.5 2t-114.5 2q-27 0 -31 -1q-21 -47 -21 -129q0 -6 0.5 -15.5 t0.5 -12.5h24q10 50 64.5 64.5t162.5 14.5q90 0 111 -2q-45 -69 -215 -311.5t-203 -295.5l19 -72q13 0 35 0.5t28 0.5h71q27 0 49.5 1l34 1.5t12.5 0.5zM346 -77q-8 0 -105 -3q-27 -1 -79 -1q-7 0 -30.5 -0.5t-38.5 -0.5l-9 34h560q-18 -25 -39 -35h-16q-9 0 -24.5 1 t-40.5 1.5t-46 1.5q-48 0 -68 1q-32 1 -64 1zM341 680q-84 0 -124 -8h173l5 8h-54zM209 151l96 6h-92z" />
<glyph unicode="{" horiz-adv-x="251" d="M49 335v147q22 0 30 2v-11q13 36 13 59q0 33 -34 101q-35 76 -35 132q0 74 40 111.5t79 37.5q48 0 86 -24l-14 -74q-22 18 -61 18q-24 0 -47 -18t-23 -45q0 -40 34 -123q32 -70 32 -124q0 -38 -14 -80q-21 -17 -41 -19v-33q21 -2 41 -20q14 -42 14 -79q0 -52 -32 -125 q-34 -81 -34 -122q0 -27 23.5 -45t48.5 -18q37 0 59 18l14 -74q-36 -24 -86 -24q-39 0 -79 37.5t-40 110.5q0 58 35 132q34 70 34 101q0 24 -13 59v-10q-8 2 -30 2z" />
<glyph unicode="|" horiz-adv-x="94" d="M23 832h48v-833h-48v833z" />
<glyph unicode="}" horiz-adv-x="252" d="M203 482v-147q-22 0 -29 -2v10q-14 -34 -14 -59q0 -31 34 -101q35 -74 35 -132q0 -73 -40 -110.5t-80 -37.5q-50 0 -86 24l15 74q21 -18 58 -18q26 0 49 18t23 45q0 46 -34 122q-31 80 -31 125q0 37 14 79q20 18 40 20v33q-19 2 -40 19q-14 42 -14 80q0 53 31 124 q34 78 34 123q0 27 -23 45t-47 18q-39 0 -60 -18l-15 74q38 24 86 24q40 0 80 -37.5t40 -111.5q0 -56 -35 -132q-34 -68 -34 -101q0 -24 14 -59v11q7 -2 29 -2z" />
<glyph unicode="~" horiz-adv-x="469" d="M65 643l-42 21q17 56 53.5 91t74.5 35q32 0 88 -39q41 -29 75 -29q64 0 90 61l42 -19q-17 -61 -55 -96.5t-79 -35.5q-34 0 -90 41q-37 28 -71 28q-28 0 -51.5 -15t-34.5 -43z" />
<glyph unicode="&#xaa;" horiz-adv-x="741" d="M639 77h8l14 -31q1 -2 2 -5.5t1 -5.5h-24v-22h37q11 -19 32 -35h-156q7 14 7 28q-18 2 -24 2q-33 0 -115 -16l11 109q18 10 18 13q0 2 -1 5q-2 4 -2 6q-14 40 -34 110q-17 1 -45 1q-70 0 -116 -7q-1 -2 -4 -11h-41q-2 -9 -8 -25h41q-2 -5 -5.5 -17t-5.5 -18h-41l-9 -25 h41l-11 -35h-40l3 -4q4 -5 7 -7v-14h21q-2 -5 -5.5 -17t-5.5 -18h-10v-31l1 -13l-3 1q-1 -3 -1 -9q0 -5 1 -8h-91q15 10 30 26q-7 1 -19 1q-20 0 -44 -4q-5 -1 -25.5 -4.5t-21.5 -3.5l15 113q58 21 74 67l81 232q5 15 7 19l85 245q-5 17 -56 58l10 96q51 -7 102 -7h30 l28 -83h48l12 -35h-49l9 -25h48l12 -35h-49l9 -25h49l11 -35h-48l8 -25h49l11 -35h-48l8 -25h49l12 -35h-49l8 -25h49l12 -35h-49l8 -25h49l12 -35h-49l9 -25h48l12 -35h-49l9 -25h48l12 -35h-49l9 -25h49l11 -35h-48q5 -14 17 -25h39l14 -35h-6v-21zM551 151l-212 629h-15 q-36 0 -82 4l-4 -37q55 -44 55 -82l-2 -8l-176 -501q-21 -59 -74 -80l-6 -42q41 7 62 7q25 0 60 -7l-2 37q-11 13 -11 24q0 7 7 31l61 187q36 6 105 6q55 0 99 -6q2 -8 21.5 -73.5t30.5 -98.5q5 -15 5 -27q0 -29 -20 -40l-5 -40q56 10 88 10q29 0 81 -10l-1 41 q-49 23 -65 76zM315 387q-25 0 -75 2q60 169 77 223l34 -104t40 -119q-52 -2 -76 -2zM630 -71q-39 0 -98 -11l4 35h197l1 -35q-53 11 -104 11zM227 278q-1 -3 -3.5 -11.5t-4.5 -13.5h189q-4 14 -6 22q-2 2 -2 3h-173zM123 -74q-18 0 -68 -8l3 35h130l2 -35q-44 8 -67 8z M322 433q-2 -6 -4 -10h35q-11 33 -16 50l-6 -15h-40l-10 -25h41zM317 533l-14 -40h27q-3 6 -10 28q-1 3 -2 7v2q-1 1 -1 3z" />
<glyph unicode="&#xad;" horiz-adv-x="348" d="M6 224v147q74 -8 132 -8q74 0 144 7v-107q38 2 59 4v-25h-59v-18q-80 6 -142 6q-56 0 -134 -6zM29 334v-74q63 5 111 5q53 0 120 -5v74q-62 -6 -122 -6q-54 0 -109 6zM73 182v35h268v-35q-77 5 -138 5q-55 0 -130 -5z" />
<glyph unicode="&#xb2;" horiz-adv-x="556" d="M155 611q-7 -11 -17 -35h-29q-3 -6 -7 -17.5l-5 -14.5l-72 -1l43 202q110 38 161 38q73 0 130 -52h20q28 -13 53 -35h-43q3 -4 8.5 -12.5t8.5 -12.5h50q16 -20 25 -35h-59q1 -4 4 -12.5t4 -12.5h64q7 -16 12 -35h-69q2 -8 2 -25h73q2 -13 4 -35h-77q0 -5 -1 -13t-1 -12 h79q0 -19 -3 -35h-83q-1 -2 -9 -25h87q-1 -5 -12 -35h-92q-5 -9 -17 -25h97q-16 -26 -24 -35h-105q-14 -13 -31 -25h113q-23 -23 -41 -35h-123q-2 -1 -6 -4t-6 -4q-7 -5 -28 -17h127q-11 -8 -30.5 -20l-24.5 -15h-113q-16 -18 -21 -25h99q-17 -15 -36 -35h-85q-1 -2 -4.5 -8 t-4.5 -9q211 3 260 44h69v-64q-13 -34 -34 -69l2 2h113v-16h-124q-10 -16 -20 -25h136l-16 -35h-455q4 14 6 22h-47l-24 47q0 11 14 62.5t48.5 124.5t76.5 107q23 19 50 37q40 29 63.5 48t44.5 45.5t21 48.5q0 54 -26 90.5t-81 36.5q-59 0 -88 -34h26zM229 748 q-44 0 -145 -32l-28 -138h28q19 52 36 69q31 32 97 32t98 -46t32 -115q0 -25 -10.5 -47.5t-33.5 -45.5t-42 -38l-54.5 -41l-51.5 -38q-39 -30 -70.5 -92t-43.5 -105t-12 -53l12 -25h87q8 6 113 2t120 -4t16 1q17 1 36 29.5t33 66.5v20h-40q-54 -44 -279 -44h-19 q1 33 34.5 89.5t79.5 87.5q10 7 31 20l33.5 21t32 23t31.5 27t26.5 31t22.5 37.5t13.5 43.5t5.5 53q0 85 -54 148t-135 63zM66 -53v4h445q-22 -33 -41 -34q-2 0 -3 -1h-37q-23 1 -86 3.5t-83.5 2.5t-79.5 -4h-101z" />
<glyph unicode="&#xb3;" horiz-adv-x="511" d="M484 63q-9 -19 -19 -35h-154q-25 -16 -50 -25h186q-11 -13 -35 -35h-331l-5 35q-19 5 -20 6q-16 4 -27 4l-23 137l9 44h47q15 -30 47.5 -50.5t71.5 -20.5q55 0 89.5 26.5t34.5 72.5q0 41 -22.5 73t-82.5 32q-26 0 -98 -36v134q60 40 109.5 84.5t49.5 64.5q0 67 -33 67 q-65 0 -175 -75v129q39 36 90 61.5t85 25.5q86 0 131 -59h36q23 -14 38 -35h-55q2 -6 7 -25h63q8 -21 10 -35h-67v-17v-8h70q1 -5 1 -14q0 -14 -1 -21h-73q-1 -13 -6 -25h76q-2 -13 -10 -35h-78q-3 -9 -13 -25h81q-3 -7 -21 -35h-83q18 -16 26 -25h38q-14 -16 -21 -23 q16 -24 22 -37h13q15 -12 34 -35h-33q4 -9 8 -25h42q7 -11 19 -35h-55q1 -6 1 -17q0 -2 -0.5 -4.5t-0.5 -3.5h64q8 -24 9 -35h-76q-2 -16 -4 -25h84v-12v-23h-95q-3 -9 -11 -25h102q-1 -8 -8 -35h-116q-14 -18 -22 -25h130zM29 159v-7l17 -105q71 -23 143 -23q35 0 72 14 t70 41t54 72t21 100t-35.5 113.5t-84.5 75.5q83 74 83 171q0 62 -36.5 99t-104.5 37q-31 0 -75.5 -21.5t-77.5 -50.5v-56q80 56 153 56q21 0 34.5 -18.5t17.5 -39t4 -43.5q0 -31 -50 -81.5t-110 -90.5v-63q44 22 76 22q39 0 66.5 -14t39.5 -37t17 -44t5 -44q0 -61 -41 -97 t-106 -36q-44 0 -79.5 20.5t-50.5 49.5h-22zM376 -57q-55 -32 -115 -35h-24q-76 2 -132 21q-17 6 -18 6l-1 8h290zM369 388l-2 3l-1 -1q2 -2 3 -2z" />
<glyph unicode="&#xb9;" horiz-adv-x="253" d="M201 135q0 -24 1 -35h-5l6 -3v-82q6 -20 21 -35h-127q12 13 17 24h-11q-34 0 -92 -7v97q37 24 40 35v244q0 220 -13 227l-32 36v61q25 9 54 31.5t44 42.5h38q6 -21 9 -38l1 1h40q6 -28 6 -34h-41q0 -5 0.5 -13t0.5 -12h42q1 -10 1 -32v-3h-42v-25h42v-35h-42 q0 -4 -0.5 -12.5t-0.5 -12.5h42v-35h-42q0 -4 -0.5 -12.5t-0.5 -12.5h43v-35h-43v-25h43q0 -7 -0.5 -18.5t-0.5 -16.5h-42v-25h42v-35h-42v-25h42v-35h-42q0 -17 1 -25h41v-35h-40v-25h41v-35h-39q0 -15 1 -23v-2h39zM103 39q28 0 78 -5v38q-38 19 -41 62q-5 109 -5 242 q0 26 0.5 142t0.5 140q0 54 -8 78h-15q-13 -19 -38 -39t-46 -27v-17l19 -22q8 -4 13.5 -40t8 -84t3.5 -81.5t1 -52.5q0 -55 -0.5 -139t-0.5 -106q-3 -34 -39 -56v-38q42 5 69 5zM157 -75q-33 0 -81 -5v35h170v-35q-55 5 -89 5z" />
<glyph unicode="&#xba;" d="M623 4q-16 -16 -39 -34h-351q-26 22 -38 34h62q-28 9 -57 26h-29q-15 16 -25 34h7q-67 59 -107 150.5t-40 197.5v4q0 168 98 293t231 125h4q91 0 161.5 -45t113.5 -125h16q12 -13 29 -34h-29l10 -26h37q15 -28 18 -34h-44l7 -26h49q5 -12 13 -34h-56l4 -26h59 q5 -16 7 -34h-64q1 -9 1 -26h69q1 -6 2.5 -17.5t1.5 -16.5h-73q-2 -18 -2 -26h77v-30v-4h-81q-1 -11 -5 -26h86q-2 -24 -4 -34h-89q-3 -11 -8 -26h94q-1 -7 -4 -19.5t-3 -14.5h-100q-4 -12 -11 -26h104q-3 -12 -11 -34h-113q-7 -13 -17 -26h120q-8 -19 -17 -34h-131 q-9 -10 -27 -26h142q-8 -15 -25 -34h-164q-30 -17 -60 -26h201zM339 798h-4q-123 0 -213.5 -114t-90.5 -267v-10q0 -155 91.5 -267.5t216.5 -112.5q130 0 219.5 110t89.5 277q0 166 -83.5 275t-225.5 109zM339 720q104 0 171 -92t67 -246q0 -124 -67.5 -200t-170.5 -76 q-98 0 -165 98.5t-67 230.5q0 126 65 205.5t167 79.5zM157 424q-2 -22 -4 -34h-20q2 -18 4 -26h16v-7v-27h-9q23 -83 75.5 -135.5t119.5 -52.5q93 0 153.5 66.5t60.5 173.5q0 137 -60.5 219t-153.5 82q-45 0 -86 -19h101q-43 -10 -79 -34h-71q-12 -12 -23 -26h62 q-21 -24 -29 -34h-54q-9 -21 -11 -26h49q-9 -17 -17 -34h-42q-4 -19 -5 -26h38q-8 -25 -10 -34h-31v-26h26zM407 -90q-70 0 -133 34h269q-60 -31 -126 -34h-10z" />
<glyph unicode="&#xc0;" horiz-adv-x="741" d="M175 1163l1 -1q29 -60 32 -113h3q6 -13 14 -35h-19q0 -7 -4 -25h29q3 -18 3 -33v-2h-40q-1 -6 -5 -18l-26 -2q-45 36 -74.5 70.5t-56.5 90.5q-12 23 -12 60q0 40 14 65.5t40 25.5q23 0 54.5 -26t46.5 -57zM155 1138q-13 25 -38 46.5t-43 21.5q-28 0 -28 -51q0 -24 6 -36 q26 -52 52 -83t65 -62l3 2q10 35 10 60q0 47 -27 102zM221 894q-23 16 -41 35h52q-2 -11 -8 -33zM639 77h8l14 -31q1 -2 2 -5.5t1 -5.5h-24v-22h37q11 -19 32 -35h-156q7 14 7 28q-18 2 -24 2q-33 0 -115 -16l11 109q18 10 18 13q0 2 -1 5q-2 4 -2 6q-14 40 -34 110 q-17 1 -45 1q-70 0 -116 -7q-1 -2 -4 -11h-41q-2 -9 -8 -25h41q-2 -5 -5.5 -17t-5.5 -18h-41l-9 -25h41l-11 -35h-40l3 -4q4 -5 7 -7v-14h21q-2 -5 -5.5 -17t-5.5 -18h-10v-31l1 -13l-3 1q-1 -3 -1 -9q0 -5 1 -8h-91q15 10 30 26q-7 1 -19 1q-20 0 -44 -4q-5 -1 -25.5 -4.5 t-21.5 -3.5l15 113q58 21 74 67l81 232q5 15 7 19l85 245q-5 17 -56 58l10 96q51 -7 102 -7h30l28 -83h48l12 -35h-49l9 -25h48l12 -35h-49l9 -25h49l11 -35h-48l8 -25h49l11 -35h-48l8 -25h49l12 -35h-49l8 -25h49l12 -35h-49l8 -25h49l12 -35h-49l9 -25h48l12 -35h-49 l9 -25h48l12 -35h-49l9 -25h49l11 -35h-48q5 -14 17 -25h39l14 -35h-6v-21zM551 151l-212 629h-15q-36 0 -82 4l-4 -37q55 -44 55 -82l-2 -8l-176 -501q-21 -59 -74 -80l-6 -42q41 7 62 7q25 0 60 -7l-2 37q-11 13 -11 24q0 7 7 31l61 187q36 6 105 6q55 0 99 -6 q2 -8 21.5 -73.5t30.5 -98.5q5 -15 5 -27q0 -29 -20 -40l-5 -40q56 10 88 10q29 0 81 -10l-1 41q-49 23 -65 76zM315 387q-25 0 -75 2q60 169 77 223l34 -104t40 -119q-52 -2 -76 -2zM630 -71q-39 0 -98 -11l4 35h197l1 -35q-53 11 -104 11zM227 278q-1 -3 -3.5 -11.5 t-4.5 -13.5h189q-4 14 -6 22q-2 2 -2 3h-173zM123 -74q-18 0 -68 -8l3 35h130l2 -35q-44 8 -67 8zM322 433q-2 -6 -4 -10h35q-11 33 -16 50l-6 -15h-40l-10 -25h41zM317 533l-14 -40h27q-3 6 -10 28q-1 3 -2 7v2q-1 1 -1 3z" />
<glyph unicode="&#xc2;" horiz-adv-x="741" d="M71 1162q15 31 46 57.5t55 26.5q22 0 37 -21q15 21 37 21q23 0 54 -26t47 -57v-1q28 -58 31 -113h4q11 -24 14 -35h-18q-1 -4 -2.5 -12.5t-2.5 -12.5h29q3 -18 3 -33v-2h-41l-6 -18l-24 -2q-58 46 -93 96l-8 -16h-69q-14 -18 -21 -25h75q-19 -28 -25 -35h-77v8 q-11 -10 -33 -28l-26 2q-19 74 -19 100q0 60 33 126zM326 1138q-12 25 -37 46.5t-43 21.5q-14 0 -22 -16q3 -17 3 -35q0 -20 -4 -35q0 -1 1 -1q40 -84 115 -145h1l3 2q10 30 10 60q0 47 -27 102zM92 1138q-28 -57 -28 -102q0 -21 11 -60l2 -2h1q75 61 116 145v1q-3 17 -3 35 t3 35q-8 16 -22 16q-18 0 -43 -21.5t-37 -46.5zM391 894q-24 19 -39 35h51q-4 -22 -8 -33l-3 -2h-1zM127 896l-9 33h52q-17 -17 -40 -35h-1zM228 1049l-4 8t-5 9t-5 8h-10l-8 -13.5t-7 -11.5h39zM639 77h8l14 -31q1 -2 2 -5.5t1 -5.5h-24v-22h37q11 -19 32 -35h-156 q7 14 7 28q-18 2 -24 2q-33 0 -115 -16l11 109q18 10 18 13q0 2 -1 5q-2 4 -2 6q-14 40 -34 110q-17 1 -45 1q-70 0 -116 -7q-1 -2 -4 -11h-41q-2 -9 -8 -25h41q-2 -5 -5.5 -17t-5.5 -18h-41l-9 -25h41l-11 -35h-40l3 -4q4 -5 7 -7v-14h21q-2 -5 -5.5 -17t-5.5 -18h-10v-31 l1 -13l-3 1q-1 -3 -1 -9q0 -5 1 -8h-91q15 10 30 26q-7 1 -19 1q-20 0 -44 -4q-5 -1 -25.5 -4.5t-21.5 -3.5l15 113q58 21 74 67l81 232q5 15 7 19l85 245q-5 17 -56 58l10 96q51 -7 102 -7h30l28 -83h48l12 -35h-49l9 -25h48l12 -35h-49l9 -25h49l11 -35h-48l8 -25h49 l11 -35h-48l8 -25h49l12 -35h-49l8 -25h49l12 -35h-49l8 -25h49l12 -35h-49l9 -25h48l12 -35h-49l9 -25h48l12 -35h-49l9 -25h49l11 -35h-48q5 -14 17 -25h39l14 -35h-6v-21zM551 151l-212 629h-15q-36 0 -82 4l-4 -37q55 -44 55 -82l-2 -8l-176 -501q-21 -59 -74 -80 l-6 -42q41 7 62 7q25 0 60 -7l-2 37q-11 13 -11 24q0 7 7 31l61 187q36 6 105 6q55 0 99 -6q2 -8 21.5 -73.5t30.5 -98.5q5 -15 5 -27q0 -29 -20 -40l-5 -40q56 10 88 10q29 0 81 -10l-1 41q-49 23 -65 76zM315 387q-25 0 -75 2q60 169 77 223l34 -104t40 -119 q-52 -2 -76 -2zM630 -71q-39 0 -98 -11l4 35h197l1 -35q-53 11 -104 11zM227 278q-1 -3 -3.5 -11.5t-4.5 -13.5h189q-4 14 -6 22q-2 2 -2 3h-173zM123 -74q-18 0 -68 -8l3 35h130l2 -35q-44 8 -67 8zM322 433q-2 -6 -4 -10h35q-11 33 -16 50l-6 -15h-40l-10 -25h41zM317 533 l-14 -40h27q-3 6 -10 28q-1 3 -2 7v2q-1 1 -1 3z" />
<glyph unicode="&#xc3;" horiz-adv-x="741" d="M53 905l-42 21q17 56 53.5 91t74.5 35q32 0 88 -39q41 -29 75 -29q64 0 90 61l42 -19q-17 -61 -55 -96.5t-79 -35.5q-34 0 -90 41q-37 28 -71 28q-28 0 -51.5 -15t-34.5 -43zM639 77h8l14 -31q1 -2 2 -5.5t1 -5.5h-24v-22h37q11 -19 32 -35h-156q7 14 7 28q-18 2 -24 2 q-33 0 -115 -16l11 109q18 10 18 13q0 2 -1 5q-2 4 -2 6q-14 40 -34 110q-17 1 -45 1q-70 0 -116 -7q-1 -2 -4 -11h-41q-2 -9 -8 -25h41q-2 -5 -5.5 -17t-5.5 -18h-41l-9 -25h41l-11 -35h-40l3 -4q4 -5 7 -7v-14h21q-2 -5 -5.5 -17t-5.5 -18h-10v-31l1 -13l-3 1q-1 -3 -1 -9 q0 -5 1 -8h-91q15 10 30 26q-7 1 -19 1q-20 0 -44 -4q-5 -1 -25.5 -4.5t-21.5 -3.5l15 113q58 21 74 67l81 232q5 15 7 19l85 245q-5 17 -56 58l10 96q51 -7 102 -7h30l28 -83h48l12 -35h-49l9 -25h48l12 -35h-49l9 -25h49l11 -35h-48l8 -25h49l11 -35h-48l8 -25h49l12 -35 h-49l8 -25h49l12 -35h-49l8 -25h49l12 -35h-49l9 -25h48l12 -35h-49l9 -25h48l12 -35h-49l9 -25h49l11 -35h-48q5 -14 17 -25h39l14 -35h-6v-21zM551 151l-212 629h-15q-36 0 -82 4l-4 -37q55 -44 55 -82l-2 -8l-176 -501q-21 -59 -74 -80l-6 -42q41 7 62 7q25 0 60 -7 l-2 37q-11 13 -11 24q0 7 7 31l61 187q36 6 105 6q55 0 99 -6q2 -8 21.5 -73.5t30.5 -98.5q5 -15 5 -27q0 -29 -20 -40l-5 -40q56 10 88 10q29 0 81 -10l-1 41q-49 23 -65 76zM315 387q-25 0 -75 2q60 169 77 223l34 -104t40 -119q-52 -2 -76 -2zM630 -71q-39 0 -98 -11 l4 35h197l1 -35q-53 11 -104 11zM227 278q-1 -3 -3.5 -11.5t-4.5 -13.5h189q-4 14 -6 22q-2 2 -2 3h-173zM123 -74q-18 0 -68 -8l3 35h130l2 -35q-44 8 -67 8zM322 433q-2 -6 -4 -10h35q-11 33 -16 50l-6 -15h-40l-10 -25h41zM317 533l-14 -40h27q-3 6 -10 28q-1 3 -2 7v2 q-1 1 -1 3z" />
<glyph unicode="&#xc8;" horiz-adv-x="553" d="M-41 1163l1 -1q29 -60 32 -113h3q6 -13 14 -35h-19q0 -7 -4 -25h29q3 -18 3 -33v-2h-40q-1 -6 -5 -18l-26 -2q-45 36 -74.5 70.5t-56.5 90.5q-12 23 -12 60q0 40 14 65.5t40 25.5q23 0 54.5 -26t46.5 -57zM-61 1138q-13 25 -38 46.5t-43 21.5q-28 0 -28 -51q0 -24 6 -36 q26 -52 52 -83t65 -62l3 2q10 35 10 60q0 47 -27 102zM5 894q-23 16 -41 35h52q-2 -11 -8 -33zM547 75q0 -11 -2 -35h-84q-7 -21 -11 -25h93q-1 -6 -2.5 -18t-1.5 -17h-447q11 9 24 27q-22 -2 -38 -3l-23 -2l-10 -2h-30v108q18 11 36 31t18 31v22q0 8 0.5 22.5t0.5 20.5 q1 18 1 46v123q0 118 -7 268q0 23 -58 57v105l140 -11q3 0 22.5 2.5t65 5t112.5 2.5q45 0 70.5 -16t26.5 -55q0 -15 1 -27h48q7 -8 7 -20v-15h-52q0 -15 1 -25h53q0 -4 1 -11.5t1.5 -13.5t0.5 -10h-26q-9 8 -30 16v-13h-40q-7 0 -18 13q0 1 -2 3v-1q-1 1 -1 2q-2 2 -18 11 h-107q-33 -4 -42 -8q0 -1 -2 -23h-34q-1 -9 -1 -25h34q-1 -12 -1 -35h-33v-25h31v-24v-11h-31v-16q13 0 29 -2h95q39 0 67 31h61q-12 -49 -15 -108h59q-1 -5 -3 -25h-57q-1 -9 -1 -25h56q0 -5 -0.5 -17t-0.5 -19h-55v-24h55v-35h-34q-19 19 -49 24h-176v-24h-30q0 -13 1 -19 v-6h29v-35h-29l2 -25h28l1 -35h-16q25 -12 116 -12q45 0 65.5 11.5t28.5 53.5l76 6q0 -66 -16 -144h77zM125 44h307q10 0 20 48t10 88l-34 -2q-8 -43 -32.5 -54.5t-79.5 -11.5q-24 0 -37.5 0.5t-38 3.5t-38.5 9t-25.5 18t-12.5 29q-1 20 -4 124q-1 29 -1 94q46 2 61 2 q58 0 81 -3h3q19 -3 28 -5t21.5 -10.5t21.5 -23.5l20 -1q0 129 5 147h-18q-31 -31 -75 -31h-97q-13 2 -51 2v126q0 55 5 120q9 4 32.5 6.5t42.5 2.5l19 1q57 0 97.5 -10.5t48.5 -26.5l4 -6h16l-5 81q0 35 -73 35q-71 0 -117.5 -2.5t-64.5 -5t-20 -2.5l-113 10v-43 q53 -31 57 -78q6 -131 6 -271v-123q0 -19 -2 -89v-22q0 -20 -18 -48t-36 -38v-48l16 2q60 6 71 6zM177 -72q-10 0 -78 -6l-17 -2v35h452q-7 -27 -13 -27h-344zM183 338v-23h180q-10 16 -20 23h-160zM186 682q0 -2 -0.5 -4t-0.5 -3h172q-41 12 -99 12q-12 1 -26 1 q-34 0 -46 -6zM390 656l-2 2q1 -2 2 -2z" />
<glyph unicode="&#xca;" horiz-adv-x="553" d="M-145 1162q15 31 46 57.5t55 26.5q22 0 37 -21q15 21 37 21q23 0 54 -26t47 -57v-1q28 -58 31 -113h4q11 -24 14 -35h-18q-1 -4 -2.5 -12.5t-2.5 -12.5h29q3 -18 3 -33v-2h-41l-6 -18l-24 -2q-58 46 -93 96l-8 -16h-69q-14 -18 -21 -25h75q-19 -28 -25 -35h-77v8 q-11 -10 -33 -28l-26 2q-19 74 -19 100q0 60 33 126zM110 1138q-12 25 -37 46.5t-43 21.5q-14 0 -22 -16q3 -17 3 -35q0 -20 -4 -35q0 -1 1 -1q40 -84 115 -145h1l3 2q10 30 10 60q0 47 -27 102zM-124 1138q-28 -57 -28 -102q0 -21 11 -60l2 -2h1q75 61 116 145v1 q-3 17 -3 35t3 35q-8 16 -22 16q-18 0 -43 -21.5t-37 -46.5zM175 894q-24 19 -39 35h51q-4 -22 -8 -33l-3 -2h-1zM-89 896l-9 33h52q-17 -17 -40 -35h-1zM12 1049l-4 8t-5 9t-5 8h-10l-8 -13.5t-7 -11.5h39zM547 75q0 -11 -2 -35h-84q-7 -21 -11 -25h93q-1 -6 -2.5 -18 t-1.5 -17h-447q11 9 24 27q-22 -2 -38 -3l-23 -2l-10 -2h-30v108q18 11 36 31t18 31v22q0 8 0.5 22.5t0.5 20.5q1 18 1 46v123q0 118 -7 268q0 23 -58 57v105l140 -11q3 0 22.5 2.5t65 5t112.5 2.5q45 0 70.5 -16t26.5 -55q0 -15 1 -27h48q7 -8 7 -20v-15h-52q0 -15 1 -25 h53q0 -4 1 -11.5t1.5 -13.5t0.5 -10h-26q-9 8 -30 16v-13h-40q-7 0 -18 13q0 1 -2 3v-1q-1 1 -1 2q-2 2 -18 11h-107q-33 -4 -42 -8q0 -1 -2 -23h-34q-1 -9 -1 -25h34q-1 -12 -1 -35h-33v-25h31v-24v-11h-31v-16q13 0 29 -2h95q39 0 67 31h61q-12 -49 -15 -108h59 q-1 -5 -3 -25h-57q-1 -9 -1 -25h56q0 -5 -0.5 -17t-0.5 -19h-55v-24h55v-35h-34q-19 19 -49 24h-176v-24h-30q0 -13 1 -19v-6h29v-35h-29l2 -25h28l1 -35h-16q25 -12 116 -12q45 0 65.5 11.5t28.5 53.5l76 6q0 -66 -16 -144h77zM125 44h307q10 0 20 48t10 88l-34 -2 q-8 -43 -32.5 -54.5t-79.5 -11.5q-24 0 -37.5 0.5t-38 3.5t-38.5 9t-25.5 18t-12.5 29q-1 20 -4 124q-1 29 -1 94q46 2 61 2q58 0 81 -3h3q19 -3 28 -5t21.5 -10.5t21.5 -23.5l20 -1q0 129 5 147h-18q-31 -31 -75 -31h-97q-13 2 -51 2v126q0 55 5 120q9 4 32.5 6.5t42.5 2.5 l19 1q57 0 97.5 -10.5t48.5 -26.5l4 -6h16l-5 81q0 35 -73 35q-71 0 -117.5 -2.5t-64.5 -5t-20 -2.5l-113 10v-43q53 -31 57 -78q6 -131 6 -271v-123q0 -19 -2 -89v-22q0 -20 -18 -48t-36 -38v-48l16 2q60 6 71 6zM177 -72q-10 0 -78 -6l-17 -2v35h452q-7 -27 -13 -27h-344z M183 338v-23h180q-10 16 -20 23h-160zM186 682q0 -2 -0.5 -4t-0.5 -3h172q-41 12 -99 12q-12 1 -26 1q-34 0 -46 -6zM390 656l-2 2q1 -2 2 -2z" />
<glyph unicode="&#xcc;" horiz-adv-x="272" d="M163 1167l1 -1q29 -60 32 -113h3q6 -13 14 -35h-19q0 -7 -4 -25h29q3 -18 3 -33v-2h-40q-1 -6 -5 -18l-26 -2q-45 36 -74.5 70.5t-56.5 90.5q-12 23 -12 60q0 40 14 65.5t40 25.5q23 0 54.5 -26t46.5 -57zM143 1142q-13 25 -38 46.5t-43 21.5q-28 0 -28 -51q0 -24 6 -36 q26 -52 52 -83t65 -62l3 2q10 35 10 60q0 47 -27 102zM209 898q-23 16 -41 35h52q-2 -11 -8 -33zM224 75q0 -7 2 -29v-6h-10v-25h11q2 -6 7 -11.5t14 -14t10 -9.5h-154q12 12 18 25h-12q-25 0 -100 -8v104q18 3 29 16t14 22q2 118 2 263q0 138 -6 268q-4 34 -43 64v100 q85 -8 103 -8q5 0 49 4l14 1q9 0 38 7v-103h56v-25q-8 -4 -13 -10h-73q-6 -10 -8 -25h63q-8 -21 -10 -35h-56l-1 -27h54v-20l-2 -13l-52 -3l-1 -22h53v-35h-53v-25h52v-35h-52v-25h52v-35h-52v-25h52v-35h-52q0 -17 1 -25h51v-35h-51q1 -8 1 -25h51v-35h-50l1 -25h49 q1 -12 1 -35h-49q0 -10 1 -14q1 -6 4 -11q17 -1 34 -1q7 0 9 -1t2 -6t0.5 -14t0.5 -13h-7v-25h8zM110 41q31 0 83 -5v41q-41 21 -44 67q-5 157 -5 260v174q0 53 2 71v19q3 66 40 88v39q-3 -1 -14 -1q-1 0 -5.5 -0.5t-7.5 -0.5q-33 -3 -50 -3q-26 0 -78 5v-38q38 -32 41 -85 q6 -103 6 -270q0 -60 -0.5 -150t-0.5 -114q-3 -37 -43 -61v-41q47 5 76 5zM167 -75q-33 0 -83 -5v35h181v-35q-58 5 -98 5z" />
<glyph unicode="&#xce;" horiz-adv-x="272" d="M59 1166q15 31 46 57.5t55 26.5q22 0 37 -21q15 21 37 21q23 0 54 -26t47 -57v-1q28 -58 31 -113h4q11 -24 14 -35h-18q-1 -4 -2.5 -12.5t-2.5 -12.5h29q3 -18 3 -33v-2h-41l-6 -18l-24 -2q-58 46 -93 96l-8 -16h-69q-14 -18 -21 -25h75q-19 -28 -25 -35h-77v8 q-11 -10 -33 -28l-26 2q-19 74 -19 100q0 60 33 126zM314 1142q-12 25 -37 46.5t-43 21.5q-14 0 -22 -16q3 -17 3 -35q0 -20 -4 -35q0 -1 1 -1q40 -84 115 -145h1l3 2q10 30 10 60q0 47 -27 102zM80 1142q-28 -57 -28 -102q0 -21 11 -60l2 -2h1q75 61 116 145v1q-3 17 -3 35 t3 35q-8 16 -22 16q-18 0 -43 -21.5t-37 -46.5zM379 898q-24 19 -39 35h51q-4 -22 -8 -33l-3 -2h-1zM115 900l-9 33h52q-17 -17 -40 -35h-1zM216 1053l-4 8t-5 9t-5 8h-10l-8 -13.5t-7 -11.5h39zM224 75q0 -7 2 -29v-6h-10v-25h11q2 -6 7 -11.5t14 -14t10 -9.5h-154 q12 12 18 25h-12q-25 0 -100 -8v104q18 3 29 16t14 22q2 118 2 263q0 138 -6 268q-4 34 -43 64v100q85 -8 103 -8q5 0 49 4l14 1q9 0 38 7v-103h56v-25q-8 -4 -13 -10h-73q-6 -10 -8 -25h63q-8 -21 -10 -35h-56l-1 -27h54v-20l-2 -13l-52 -3l-1 -22h53v-35h-53v-25h52v-35 h-52v-25h52v-35h-52v-25h52v-35h-52q0 -17 1 -25h51v-35h-51q1 -8 1 -25h51v-35h-50l1 -25h49q1 -12 1 -35h-49q0 -10 1 -14q1 -6 4 -11q17 -1 34 -1q7 0 9 -1t2 -6t0.5 -14t0.5 -13h-7v-25h8zM110 41q31 0 83 -5v41q-41 21 -44 67q-5 157 -5 260v174q0 53 2 71v19 q3 66 40 88v39q-3 -1 -14 -1q-1 0 -5.5 -0.5t-7.5 -0.5q-33 -3 -50 -3q-26 0 -78 5v-38q38 -32 41 -85q6 -103 6 -270q0 -60 -0.5 -150t-0.5 -114q-3 -37 -43 -61v-41q47 5 76 5zM167 -75q-33 0 -83 -5v35h181v-35q-58 5 -98 5z" />
<glyph unicode="&#xd1;" horiz-adv-x="710" d="M149 911l-42 21q17 56 53.5 91t74.5 35q32 0 88 -39q41 -29 75 -29q64 0 90 61l42 -19q-17 -61 -55 -96.5t-79 -35.5q-34 0 -90 41q-37 28 -71 28q-28 0 -51.5 -15t-34.5 -43zM103 -18q13 15 17 23q-10 1 -26 1q-19 0 -74 -7v104q38 25 42 41v20q2 118 2 242v190v79v5 q-5 13 -18 25.5t-30 16.5l-10 118l64 -6q8 -1 26.5 -2.5t23.5 -1.5l65 -93h41l26 -35h-41l17 -25h41l25 -35h-41l18 -25h41l25 -35h-41l17 -25h42l25 -35h-42l18 -25h41l25 -35h-41l17 -25h42l25 -35h-41l17 -25h41l20 -28v56q0 95 -6 269q-1 19 -8 32t-31 32v98l73 -8 q21 0 102 12v-103h72v-25q-10 -6 -14 -10h-89q-7 -13 -8 -25h80q-8 -18 -11 -35h-71q-1 -8 -1 -26h70q-2 -22 -2 -34h-68v-25h68q-1 -12 -1 -35h-67v-25h67v-35h-67v-25h67v-35h-67l-1 -25h68v-35h-68q0 -17 -1 -25h68v-35h-68q-1 -8 -1 -25h69v-35h-69v-25h67v-35h-67 l1 -25h66v-35h-66l1 -25h66v-35h-65v-25h66v-35h-63q-3 5 -8.5 12t-7.5 9h-40l-18 24l-238 327l-91 123v-15h-40v-25h40v-35h-39v-25h39v-35h-39v-25h40v-35h-39q0 -17 1 -25h38q0 -24 1 -35h-39q1 -9 1 -25h38q0 -24 1 -35h-38q0 -10 1 -13q2 -8 5 -12h33v-29q1 0 3.5 -1 t3.5 -2v-88q6 -20 23 -35h-121zM481 800v-39q22 -18 29 -36t10 -49q5 -147 5 -271v-195l-415 584q-13 1 -39 4t-37 4l4 -49q18 -5 32.5 -26.5t17.5 -42.5v-7v-81v-192q0 -59 -1 -149.5t-1 -113.5q-3 -37 -42 -62v-40q27 4 50 4q30 0 83 -5v40q-41 22 -44 68q-2 10 -2 16v19 q0 41 -2 116t-2 109v121q0 61 1 85l419 -573h20q-3 73 -3 208v65q2 52 2 146v87q0 86 2 125q3 65 40 88v39q-4 -1 -13 -1l-13 -1q-22 -3 -52 -3q-11 0 -28 4q-9 2 -15 3q-2 0 -4 1h-2zM139 -73q-25 0 -55 -4v34h162v-35q-58 5 -107 5zM636 -77l-25 34h46q0 -24 1 -34h-22z M466 342l18 -25h18v25h-36zM150 497h25l-25 35v-35z" />
<glyph unicode="&#xd2;" d="M289 1163l1 -1q29 -60 32 -113h3q6 -13 14 -35h-19q0 -7 -4 -25h29q3 -18 3 -33v-2h-40q-1 -6 -5 -18l-26 -2q-45 36 -74.5 70.5t-56.5 90.5q-12 23 -12 60q0 40 14 65.5t40 25.5q23 0 54.5 -26t46.5 -57zM269 1138q-13 25 -38 46.5t-43 21.5q-28 0 -28 -51q0 -24 6 -36 q26 -52 52 -83t65 -62l3 2q10 35 10 60q0 47 -27 102zM335 894q-23 16 -41 35h52q-2 -11 -8 -33zM623 4q-16 -16 -39 -34h-351q-26 22 -38 34h62q-28 9 -57 26h-29q-15 16 -25 34h7q-67 59 -107 150.5t-40 197.5v4q0 168 98 293t231 125h4q91 0 161.5 -45t113.5 -125h16 q12 -13 29 -34h-29l10 -26h37q15 -28 18 -34h-44l7 -26h49q5 -12 13 -34h-56l4 -26h59q5 -16 7 -34h-64q1 -9 1 -26h69q1 -6 2.5 -17.5t1.5 -16.5h-73q-2 -18 -2 -26h77v-30v-4h-81q-1 -11 -5 -26h86q-2 -24 -4 -34h-89q-3 -11 -8 -26h94q-1 -7 -4 -19.5t-3 -14.5h-100 q-4 -12 -11 -26h104q-3 -12 -11 -34h-113q-7 -13 -17 -26h120q-8 -19 -17 -34h-131q-9 -10 -27 -26h142q-8 -15 -25 -34h-164q-30 -17 -60 -26h201zM339 798h-4q-123 0 -213.5 -114t-90.5 -267v-10q0 -155 91.5 -267.5t216.5 -112.5q130 0 219.5 110t89.5 277 q0 166 -83.5 275t-225.5 109zM339 720q104 0 171 -92t67 -246q0 -124 -67.5 -200t-170.5 -76q-98 0 -165 98.5t-67 230.5q0 126 65 205.5t167 79.5zM157 424q-2 -22 -4 -34h-20q2 -18 4 -26h16v-7v-27h-9q23 -83 75.5 -135.5t119.5 -52.5q93 0 153.5 66.5t60.5 173.5 q0 137 -60.5 219t-153.5 82q-45 0 -86 -19h101q-43 -10 -79 -34h-71q-12 -12 -23 -26h62q-21 -24 -29 -34h-54q-9 -21 -11 -26h49q-9 -17 -17 -34h-42q-4 -19 -5 -26h38q-8 -25 -10 -34h-31v-26h26zM407 -90q-70 0 -133 34h269q-60 -31 -126 -34h-10z" />
<glyph unicode="&#xd4;" d="M187 1162q15 31 46 57.5t55 26.5q22 0 37 -21q15 21 37 21q23 0 54 -26t47 -57v-1q28 -58 31 -113h4q11 -24 14 -35h-18q-1 -4 -2.5 -12.5t-2.5 -12.5h29q3 -18 3 -33v-2h-41l-6 -18l-24 -2q-58 46 -93 96l-8 -16h-69q-14 -18 -21 -25h75q-19 -28 -25 -35h-77v8 q-11 -10 -33 -28l-26 2q-19 74 -19 100q0 60 33 126zM442 1138q-12 25 -37 46.5t-43 21.5q-14 0 -22 -16q3 -17 3 -35q0 -20 -4 -35q0 -1 1 -1q40 -84 115 -145h1l3 2q10 30 10 60q0 47 -27 102zM208 1138q-28 -57 -28 -102q0 -21 11 -60l2 -2h1q75 61 116 145v1 q-3 17 -3 35t3 35q-8 16 -22 16q-18 0 -43 -21.5t-37 -46.5zM507 894q-24 19 -39 35h51q-4 -22 -8 -33l-3 -2h-1zM243 896l-9 33h52q-17 -17 -40 -35h-1zM344 1049l-4 8t-5 9t-5 8h-10l-8 -13.5t-7 -11.5h39zM623 4q-16 -16 -39 -34h-351q-26 22 -38 34h62q-28 9 -57 26h-29 q-15 16 -25 34h7q-67 59 -107 150.5t-40 197.5v4q0 168 98 293t231 125h4q91 0 161.5 -45t113.5 -125h16q12 -13 29 -34h-29l10 -26h37q15 -28 18 -34h-44l7 -26h49q5 -12 13 -34h-56l4 -26h59q5 -16 7 -34h-64q1 -9 1 -26h69q1 -6 2.5 -17.5t1.5 -16.5h-73q-2 -18 -2 -26 h77v-30v-4h-81q-1 -11 -5 -26h86q-2 -24 -4 -34h-89q-3 -11 -8 -26h94q-1 -7 -4 -19.5t-3 -14.5h-100q-4 -12 -11 -26h104q-3 -12 -11 -34h-113q-7 -13 -17 -26h120q-8 -19 -17 -34h-131q-9 -10 -27 -26h142q-8 -15 -25 -34h-164q-30 -17 -60 -26h201zM339 798h-4 q-123 0 -213.5 -114t-90.5 -267v-10q0 -155 91.5 -267.5t216.5 -112.5q130 0 219.5 110t89.5 277q0 166 -83.5 275t-225.5 109zM339 720q104 0 171 -92t67 -246q0 -124 -67.5 -200t-170.5 -76q-98 0 -165 98.5t-67 230.5q0 126 65 205.5t167 79.5zM157 424q-2 -22 -4 -34 h-20q2 -18 4 -26h16v-7v-27h-9q23 -83 75.5 -135.5t119.5 -52.5q93 0 153.5 66.5t60.5 173.5q0 137 -60.5 219t-153.5 82q-45 0 -86 -19h101q-43 -10 -79 -34h-71q-12 -12 -23 -26h62q-21 -24 -29 -34h-54q-9 -21 -11 -26h49q-9 -17 -17 -34h-42q-4 -19 -5 -26h38 q-8 -25 -10 -34h-31v-26h26zM407 -90q-70 0 -133 34h269q-60 -31 -126 -34h-10z" />
<glyph unicode="&#xd5;" d="M167 905l-42 21q17 56 53.5 91t74.5 35q32 0 88 -39q41 -29 75 -29q64 0 90 61l42 -19q-17 -61 -55 -96.5t-79 -35.5q-34 0 -90 41q-37 28 -71 28q-28 0 -51.5 -15t-34.5 -43zM623 4q-16 -16 -39 -34h-351q-26 22 -38 34h62q-28 9 -57 26h-29q-15 16 -25 34h7 q-67 59 -107 150.5t-40 197.5v4q0 168 98 293t231 125h4q91 0 161.5 -45t113.5 -125h16q12 -13 29 -34h-29l10 -26h37q15 -28 18 -34h-44l7 -26h49q5 -12 13 -34h-56l4 -26h59q5 -16 7 -34h-64q1 -9 1 -26h69q1 -6 2.5 -17.5t1.5 -16.5h-73q-2 -18 -2 -26h77v-30v-4h-81 q-1 -11 -5 -26h86q-2 -24 -4 -34h-89q-3 -11 -8 -26h94q-1 -7 -4 -19.5t-3 -14.5h-100q-4 -12 -11 -26h104q-3 -12 -11 -34h-113q-7 -13 -17 -26h120q-8 -19 -17 -34h-131q-9 -10 -27 -26h142q-8 -15 -25 -34h-164q-30 -17 -60 -26h201zM339 798h-4q-123 0 -213.5 -114 t-90.5 -267v-10q0 -155 91.5 -267.5t216.5 -112.5q130 0 219.5 110t89.5 277q0 166 -83.5 275t-225.5 109zM339 720q104 0 171 -92t67 -246q0 -124 -67.5 -200t-170.5 -76q-98 0 -165 98.5t-67 230.5q0 126 65 205.5t167 79.5zM157 424q-2 -22 -4 -34h-20q2 -18 4 -26h16v-7 v-27h-9q23 -83 75.5 -135.5t119.5 -52.5q93 0 153.5 66.5t60.5 173.5q0 137 -60.5 219t-153.5 82q-45 0 -86 -19h101q-43 -10 -79 -34h-71q-12 -12 -23 -26h62q-21 -24 -29 -34h-54q-9 -21 -11 -26h49q-9 -17 -17 -34h-42q-4 -19 -5 -26h38q-8 -25 -10 -34h-31v-26h26z M407 -90q-70 0 -133 34h269q-60 -31 -126 -34h-10z" />
<glyph unicode="&#xd9;" horiz-adv-x="646" d="M-41 1163l1 -1q29 -60 32 -113h3q6 -13 14 -35h-19q0 -7 -4 -25h29q3 -18 3 -33v-2h-40q-1 -6 -5 -18l-26 -2q-45 36 -74.5 70.5t-56.5 90.5q-12 23 -12 60q0 40 14 65.5t40 25.5q23 0 54.5 -26t46.5 -57zM-61 1138q-13 25 -38 46.5t-43 21.5q-28 0 -28 -51q0 -24 6 -36 q26 -52 52 -83t65 -62l3 2q10 35 10 60q0 47 -27 102zM5 894q-23 16 -41 35h52q-2 -11 -8 -33zM195 244q1 -11 1 -35h-6q39 -69 104 -69q69 1 107 44.5t38 113.5v372q0 22 -11 34.5t-37 22.5v103q37 0 42 -1q1 0 3 -1h3q23 -3 31 -3h3t4 0.5t5.5 1t6.5 0.5q32 4 54 4h29v-76 l-16 -31h84v-15q-21 -8 -30 -20h-78q0 -3 -0.5 -10.5t-0.5 -12.5v-2h68q-2 -12 -4 -35h-65q-1 -8 -1 -25h64v-35h-65v-25h64q-1 -11 -1 -35h-63v-25h63v-35h-63v-25h63v-35h-63v-25h63v-35h-63v-25h63v-35h-65q0 -5 -0.5 -13t-0.5 -12h66v-5q0 -21 -1 -30h-69 q-1 -4 -2.5 -12.5t-2.5 -12.5h73q-3 -34 -3 -35h-78q-1 -3 -3.5 -11.5t-4.5 -13.5h84q-4 -24 -7 -35h-93q-16 -23 -17 -25h104q-8 -27 -12 -35h-128q-19 -15 -49 -25h164q-7 -13 -25 -35h-329q-20 22 -29 35h42q-70 25 -112 89.5t-42 165.5q0 -1 0 14t-0.5 39t-0.5 50v50v36 l-1 222q0 30 -43 62v101q76 -9 103 -9q2 0 16 2q30 4 53 4h33v-100l-9 -6h41v-16q-13 -8 -21 -19h-46q-4 -11 -6 -25h38q-7 -18 -8 -35h-30v-25h28v-35h-29v-25h28v-35h-29v-25h28v-35h-29v-25h29v-35h-30v-25h29v-35h-27v-25h26q0 -23 1 -35h-25q1 -9 5 -25h20zM549 755v39 h-6q-15 0 -43 -2.5t-30 -2.5q-11 0 -32 3h-7q-6 1 -16 1v-38q25 -10 36 -28.5t11 -56.5v-372q0 -86 -43.5 -139.5t-124.5 -54.5q-57 0 -101.5 52.5t-46.5 121.5q-3 89 -2 125l2 263q5 68 41 88v39h-9q-15 0 -41 -2.5t-28 -2.5q-25 0 -78 5v-38q42 -33 42 -85v-222v-35.5 t0.5 -49.5t1 -49.5t0.5 -38.5t0 -14q0 -114 60.5 -174.5t151.5 -60.5q120 0 168.5 73t48.5 228q0 231 3 341q1 43 10 60.5t32 26.5zM353 -91q-71 0 -129 35h267q-47 -31 -121 -35h-17z" />
<glyph unicode="&#xdb;" horiz-adv-x="646" d="M-145 1162q15 31 46 57.5t55 26.5q22 0 37 -21q15 21 37 21q23 0 54 -26t47 -57v-1q28 -58 31 -113h4q11 -24 14 -35h-18q-1 -4 -2.5 -12.5t-2.5 -12.5h29q3 -18 3 -33v-2h-41l-6 -18l-24 -2q-58 46 -93 96l-8 -16h-69q-14 -18 -21 -25h75q-19 -28 -25 -35h-77v8 q-11 -10 -33 -28l-26 2q-19 74 -19 100q0 60 33 126zM110 1138q-12 25 -37 46.5t-43 21.5q-14 0 -22 -16q3 -17 3 -35q0 -20 -4 -35q0 -1 1 -1q40 -84 115 -145h1l3 2q10 30 10 60q0 47 -27 102zM-124 1138q-28 -57 -28 -102q0 -21 11 -60l2 -2h1q75 61 116 145v1 q-3 17 -3 35t3 35q-8 16 -22 16q-18 0 -43 -21.5t-37 -46.5zM175 894q-24 19 -39 35h51q-4 -22 -8 -33l-3 -2h-1zM-89 896l-9 33h52q-17 -17 -40 -35h-1zM12 1049l-4 8t-5 9t-5 8h-10l-8 -13.5t-7 -11.5h39zM195 244q1 -11 1 -35h-6q39 -69 104 -69q69 1 107 44.5t38 113.5 v372q0 22 -11 34.5t-37 22.5v103q37 0 42 -1q1 0 3 -1h3q23 -3 31 -3h3t4 0.5t5.5 1t6.5 0.5q32 4 54 4h29v-76l-16 -31h84v-15q-21 -8 -30 -20h-78q0 -3 -0.5 -10.5t-0.5 -12.5v-2h68q-2 -12 -4 -35h-65q-1 -8 -1 -25h64v-35h-65v-25h64q-1 -11 -1 -35h-63v-25h63v-35h-63 v-25h63v-35h-63v-25h63v-35h-63v-25h63v-35h-65q0 -5 -0.5 -13t-0.5 -12h66v-5q0 -21 -1 -30h-69q-1 -4 -2.5 -12.5t-2.5 -12.5h73q-3 -34 -3 -35h-78q-1 -3 -3.5 -11.5t-4.5 -13.5h84q-4 -24 -7 -35h-93q-16 -23 -17 -25h104q-8 -27 -12 -35h-128q-19 -15 -49 -25h164 q-7 -13 -25 -35h-329q-20 22 -29 35h42q-70 25 -112 89.5t-42 165.5q0 -1 0 14t-0.5 39t-0.5 50v50v36l-1 222q0 30 -43 62v101q76 -9 103 -9q2 0 16 2q30 4 53 4h33v-100l-9 -6h41v-16q-13 -8 -21 -19h-46q-4 -11 -6 -25h38q-7 -18 -8 -35h-30v-25h28v-35h-29v-25h28v-35 h-29v-25h28v-35h-29v-25h29v-35h-30v-25h29v-35h-27v-25h26q0 -23 1 -35h-25q1 -9 5 -25h20zM549 755v39h-6q-15 0 -43 -2.5t-30 -2.5q-11 0 -32 3h-7q-6 1 -16 1v-38q25 -10 36 -28.5t11 -56.5v-372q0 -86 -43.5 -139.5t-124.5 -54.5q-57 0 -101.5 52.5t-46.5 121.5 q-3 89 -2 125l2 263q5 68 41 88v39h-9q-15 0 -41 -2.5t-28 -2.5q-25 0 -78 5v-38q42 -33 42 -85v-222v-35.5t0.5 -49.5t1 -49.5t0.5 -38.5t0 -14q0 -114 60.5 -174.5t151.5 -60.5q120 0 168.5 73t48.5 228q0 231 3 341q1 43 10 60.5t32 26.5zM353 -91q-71 0 -129 35h267 q-47 -31 -121 -35h-17z" />
<glyph unicode="&#xe0;" horiz-adv-x="741" d="M175 1163l1 -1q29 -60 32 -113h3q6 -13 14 -35h-19q0 -7 -4 -25h29q3 -18 3 -33v-2h-40q-1 -6 -5 -18l-26 -2q-45 36 -74.5 70.5t-56.5 90.5q-12 23 -12 60q0 40 14 65.5t40 25.5q23 0 54.5 -26t46.5 -57zM155 1138q-13 25 -38 46.5t-43 21.5q-28 0 -28 -51q0 -24 6 -36 q26 -52 52 -83t65 -62l3 2q10 35 10 60q0 47 -27 102zM221 894q-23 16 -41 35h52q-2 -11 -8 -33zM639 77h8l14 -31q1 -2 2 -5.5t1 -5.5h-24v-22h37q11 -19 32 -35h-156q7 14 7 28q-18 2 -24 2q-33 0 -115 -16l11 109q18 10 18 13q0 2 -1 5q-2 4 -2 6q-14 40 -34 110 q-17 1 -45 1q-70 0 -116 -7q-1 -2 -4 -11h-41q-2 -9 -8 -25h41q-2 -5 -5.5 -17t-5.5 -18h-41l-9 -25h41l-11 -35h-40l3 -4q4 -5 7 -7v-14h21q-2 -5 -5.5 -17t-5.5 -18h-10v-31l1 -13l-3 1q-1 -3 -1 -9q0 -5 1 -8h-91q15 10 30 26q-7 1 -19 1q-20 0 -44 -4q-5 -1 -25.5 -4.5 t-21.5 -3.5l15 113q58 21 74 67l81 232q5 15 7 19l85 245q-5 17 -56 58l10 96q51 -7 102 -7h30l28 -83h48l12 -35h-49l9 -25h48l12 -35h-49l9 -25h49l11 -35h-48l8 -25h49l11 -35h-48l8 -25h49l12 -35h-49l8 -25h49l12 -35h-49l8 -25h49l12 -35h-49l9 -25h48l12 -35h-49 l9 -25h48l12 -35h-49l9 -25h49l11 -35h-48q5 -14 17 -25h39l14 -35h-6v-21zM551 151l-212 629h-15q-36 0 -82 4l-4 -37q55 -44 55 -82l-2 -8l-176 -501q-21 -59 -74 -80l-6 -42q41 7 62 7q25 0 60 -7l-2 37q-11 13 -11 24q0 7 7 31l61 187q36 6 105 6q55 0 99 -6 q2 -8 21.5 -73.5t30.5 -98.5q5 -15 5 -27q0 -29 -20 -40l-5 -40q56 10 88 10q29 0 81 -10l-1 41q-49 23 -65 76zM315 387q-25 0 -75 2q60 169 77 223l34 -104t40 -119q-52 -2 -76 -2zM630 -71q-39 0 -98 -11l4 35h197l1 -35q-53 11 -104 11zM227 278q-1 -3 -3.5 -11.5 t-4.5 -13.5h189q-4 14 -6 22q-2 2 -2 3h-173zM123 -74q-18 0 -68 -8l3 35h130l2 -35q-44 8 -67 8zM322 433q-2 -6 -4 -10h35q-11 33 -16 50l-6 -15h-40l-10 -25h41zM317 533l-14 -40h27q-3 6 -10 28q-1 3 -2 7v2q-1 1 -1 3z" />
<glyph unicode="&#xe2;" horiz-adv-x="741" d="M71 1162q15 31 46 57.5t55 26.5q22 0 37 -21q15 21 37 21q23 0 54 -26t47 -57v-1q28 -58 31 -113h4q11 -24 14 -35h-18q-1 -4 -2.5 -12.5t-2.5 -12.5h29q3 -18 3 -33v-2h-41l-6 -18l-24 -2q-58 46 -93 96l-8 -16h-69q-14 -18 -21 -25h75q-19 -28 -25 -35h-77v8 q-11 -10 -33 -28l-26 2q-19 74 -19 100q0 60 33 126zM326 1138q-12 25 -37 46.5t-43 21.5q-14 0 -22 -16q3 -17 3 -35q0 -20 -4 -35q0 -1 1 -1q40 -84 115 -145h1l3 2q10 30 10 60q0 47 -27 102zM92 1138q-28 -57 -28 -102q0 -21 11 -60l2 -2h1q75 61 116 145v1q-3 17 -3 35 t3 35q-8 16 -22 16q-18 0 -43 -21.5t-37 -46.5zM391 894q-24 19 -39 35h51q-4 -22 -8 -33l-3 -2h-1zM127 896l-9 33h52q-17 -17 -40 -35h-1zM228 1049l-4 8t-5 9t-5 8h-10l-8 -13.5t-7 -11.5h39zM639 77h8l14 -31q1 -2 2 -5.5t1 -5.5h-24v-22h37q11 -19 32 -35h-156 q7 14 7 28q-18 2 -24 2q-33 0 -115 -16l11 109q18 10 18 13q0 2 -1 5q-2 4 -2 6q-14 40 -34 110q-17 1 -45 1q-70 0 -116 -7q-1 -2 -4 -11h-41q-2 -9 -8 -25h41q-2 -5 -5.5 -17t-5.5 -18h-41l-9 -25h41l-11 -35h-40l3 -4q4 -5 7 -7v-14h21q-2 -5 -5.5 -17t-5.5 -18h-10v-31 l1 -13l-3 1q-1 -3 -1 -9q0 -5 1 -8h-91q15 10 30 26q-7 1 -19 1q-20 0 -44 -4q-5 -1 -25.5 -4.5t-21.5 -3.5l15 113q58 21 74 67l81 232q5 15 7 19l85 245q-5 17 -56 58l10 96q51 -7 102 -7h30l28 -83h48l12 -35h-49l9 -25h48l12 -35h-49l9 -25h49l11 -35h-48l8 -25h49 l11 -35h-48l8 -25h49l12 -35h-49l8 -25h49l12 -35h-49l8 -25h49l12 -35h-49l9 -25h48l12 -35h-49l9 -25h48l12 -35h-49l9 -25h49l11 -35h-48q5 -14 17 -25h39l14 -35h-6v-21zM551 151l-212 629h-15q-36 0 -82 4l-4 -37q55 -44 55 -82l-2 -8l-176 -501q-21 -59 -74 -80 l-6 -42q41 7 62 7q25 0 60 -7l-2 37q-11 13 -11 24q0 7 7 31l61 187q36 6 105 6q55 0 99 -6q2 -8 21.5 -73.5t30.5 -98.5q5 -15 5 -27q0 -29 -20 -40l-5 -40q56 10 88 10q29 0 81 -10l-1 41q-49 23 -65 76zM315 387q-25 0 -75 2q60 169 77 223l34 -104t40 -119 q-52 -2 -76 -2zM630 -71q-39 0 -98 -11l4 35h197l1 -35q-53 11 -104 11zM227 278q-1 -3 -3.5 -11.5t-4.5 -13.5h189q-4 14 -6 22q-2 2 -2 3h-173zM123 -74q-18 0 -68 -8l3 35h130l2 -35q-44 8 -67 8zM322 433q-2 -6 -4 -10h35q-11 33 -16 50l-6 -15h-40l-10 -25h41zM317 533 l-14 -40h27q-3 6 -10 28q-1 3 -2 7v2q-1 1 -1 3z" />
<glyph unicode="&#xe3;" horiz-adv-x="741" d="M53 905l-42 21q17 56 53.5 91t74.5 35q32 0 88 -39q41 -29 75 -29q64 0 90 61l42 -19q-17 -61 -55 -96.5t-79 -35.5q-34 0 -90 41q-37 28 -71 28q-28 0 -51.5 -15t-34.5 -43zM639 77h8l14 -31q1 -2 2 -5.5t1 -5.5h-24v-22h37q11 -19 32 -35h-156q7 14 7 28q-18 2 -24 2 q-33 0 -115 -16l11 109q18 10 18 13q0 2 -1 5q-2 4 -2 6q-14 40 -34 110q-17 1 -45 1q-70 0 -116 -7q-1 -2 -4 -11h-41q-2 -9 -8 -25h41q-2 -5 -5.5 -17t-5.5 -18h-41l-9 -25h41l-11 -35h-40l3 -4q4 -5 7 -7v-14h21q-2 -5 -5.5 -17t-5.5 -18h-10v-31l1 -13l-3 1q-1 -3 -1 -9 q0 -5 1 -8h-91q15 10 30 26q-7 1 -19 1q-20 0 -44 -4q-5 -1 -25.5 -4.5t-21.5 -3.5l15 113q58 21 74 67l81 232q5 15 7 19l85 245q-5 17 -56 58l10 96q51 -7 102 -7h30l28 -83h48l12 -35h-49l9 -25h48l12 -35h-49l9 -25h49l11 -35h-48l8 -25h49l11 -35h-48l8 -25h49l12 -35 h-49l8 -25h49l12 -35h-49l8 -25h49l12 -35h-49l9 -25h48l12 -35h-49l9 -25h48l12 -35h-49l9 -25h49l11 -35h-48q5 -14 17 -25h39l14 -35h-6v-21zM551 151l-212 629h-15q-36 0 -82 4l-4 -37q55 -44 55 -82l-2 -8l-176 -501q-21 -59 -74 -80l-6 -42q41 7 62 7q25 0 60 -7 l-2 37q-11 13 -11 24q0 7 7 31l61 187q36 6 105 6q55 0 99 -6q2 -8 21.5 -73.5t30.5 -98.5q5 -15 5 -27q0 -29 -20 -40l-5 -40q56 10 88 10q29 0 81 -10l-1 41q-49 23 -65 76zM315 387q-25 0 -75 2q60 169 77 223l34 -104t40 -119q-52 -2 -76 -2zM630 -71q-39 0 -98 -11 l4 35h197l1 -35q-53 11 -104 11zM227 278q-1 -3 -3.5 -11.5t-4.5 -13.5h189q-4 14 -6 22q-2 2 -2 3h-173zM123 -74q-18 0 -68 -8l3 35h130l2 -35q-44 8 -67 8zM322 433q-2 -6 -4 -10h35q-11 33 -16 50l-6 -15h-40l-10 -25h41zM317 533l-14 -40h27q-3 6 -10 28q-1 3 -2 7v2 q-1 1 -1 3z" />
<glyph unicode="&#xe8;" horiz-adv-x="553" d="M-41 1163l1 -1q29 -60 32 -113h3q6 -13 14 -35h-19q0 -7 -4 -25h29q3 -18 3 -33v-2h-40q-1 -6 -5 -18l-26 -2q-45 36 -74.5 70.5t-56.5 90.5q-12 23 -12 60q0 40 14 65.5t40 25.5q23 0 54.5 -26t46.5 -57zM-61 1138q-13 25 -38 46.5t-43 21.5q-28 0 -28 -51q0 -24 6 -36 q26 -52 52 -83t65 -62l3 2q10 35 10 60q0 47 -27 102zM5 894q-23 16 -41 35h52q-2 -11 -8 -33zM547 75q0 -11 -2 -35h-84q-7 -21 -11 -25h93q-1 -6 -2.5 -18t-1.5 -17h-447q11 9 24 27q-22 -2 -38 -3l-23 -2l-10 -2h-30v108q18 11 36 31t18 31v22q0 8 0.5 22.5t0.5 20.5 q1 18 1 46v123q0 118 -7 268q0 23 -58 57v105l140 -11q3 0 22.5 2.5t65 5t112.5 2.5q45 0 70.5 -16t26.5 -55q0 -15 1 -27h48q7 -8 7 -20v-15h-52q0 -15 1 -25h53q0 -4 1 -11.5t1.5 -13.5t0.5 -10h-26q-9 8 -30 16v-13h-40q-7 0 -18 13q0 1 -2 3v-1q-1 1 -1 2q-2 2 -18 11 h-107q-33 -4 -42 -8q0 -1 -2 -23h-34q-1 -9 -1 -25h34q-1 -12 -1 -35h-33v-25h31v-24v-11h-31v-16q13 0 29 -2h95q39 0 67 31h61q-12 -49 -15 -108h59q-1 -5 -3 -25h-57q-1 -9 -1 -25h56q0 -5 -0.5 -17t-0.5 -19h-55v-24h55v-35h-34q-19 19 -49 24h-176v-24h-30q0 -13 1 -19 v-6h29v-35h-29l2 -25h28l1 -35h-16q25 -12 116 -12q45 0 65.5 11.5t28.5 53.5l76 6q0 -66 -16 -144h77zM125 44h307q10 0 20 48t10 88l-34 -2q-8 -43 -32.5 -54.5t-79.5 -11.5q-24 0 -37.5 0.5t-38 3.5t-38.5 9t-25.5 18t-12.5 29q-1 20 -4 124q-1 29 -1 94q46 2 61 2 q58 0 81 -3h3q19 -3 28 -5t21.5 -10.5t21.5 -23.5l20 -1q0 129 5 147h-18q-31 -31 -75 -31h-97q-13 2 -51 2v126q0 55 5 120q9 4 32.5 6.5t42.5 2.5l19 1q57 0 97.5 -10.5t48.5 -26.5l4 -6h16l-5 81q0 35 -73 35q-71 0 -117.5 -2.5t-64.5 -5t-20 -2.5l-113 10v-43 q53 -31 57 -78q6 -131 6 -271v-123q0 -19 -2 -89v-22q0 -20 -18 -48t-36 -38v-48l16 2q60 6 71 6zM177 -72q-10 0 -78 -6l-17 -2v35h452q-7 -27 -13 -27h-344zM183 338v-23h180q-10 16 -20 23h-160zM186 682q0 -2 -0.5 -4t-0.5 -3h172q-41 12 -99 12q-12 1 -26 1 q-34 0 -46 -6zM390 656l-2 2q1 -2 2 -2z" />
<glyph unicode="&#xea;" horiz-adv-x="553" d="M-145 1162q15 31 46 57.5t55 26.5q22 0 37 -21q15 21 37 21q23 0 54 -26t47 -57v-1q28 -58 31 -113h4q11 -24 14 -35h-18q-1 -4 -2.5 -12.5t-2.5 -12.5h29q3 -18 3 -33v-2h-41l-6 -18l-24 -2q-58 46 -93 96l-8 -16h-69q-14 -18 -21 -25h75q-19 -28 -25 -35h-77v8 q-11 -10 -33 -28l-26 2q-19 74 -19 100q0 60 33 126zM110 1138q-12 25 -37 46.5t-43 21.5q-14 0 -22 -16q3 -17 3 -35q0 -20 -4 -35q0 -1 1 -1q40 -84 115 -145h1l3 2q10 30 10 60q0 47 -27 102zM-124 1138q-28 -57 -28 -102q0 -21 11 -60l2 -2h1q75 61 116 145v1 q-3 17 -3 35t3 35q-8 16 -22 16q-18 0 -43 -21.5t-37 -46.5zM175 894q-24 19 -39 35h51q-4 -22 -8 -33l-3 -2h-1zM-89 896l-9 33h52q-17 -17 -40 -35h-1zM12 1049l-4 8t-5 9t-5 8h-10l-8 -13.5t-7 -11.5h39zM547 75q0 -11 -2 -35h-84q-7 -21 -11 -25h93q-1 -6 -2.5 -18 t-1.5 -17h-447q11 9 24 27q-22 -2 -38 -3l-23 -2l-10 -2h-30v108q18 11 36 31t18 31v22q0 8 0.5 22.5t0.5 20.5q1 18 1 46v123q0 118 -7 268q0 23 -58 57v105l140 -11q3 0 22.5 2.5t65 5t112.5 2.5q45 0 70.5 -16t26.5 -55q0 -15 1 -27h48q7 -8 7 -20v-15h-52q0 -15 1 -25 h53q0 -4 1 -11.5t1.5 -13.5t0.5 -10h-26q-9 8 -30 16v-13h-40q-7 0 -18 13q0 1 -2 3v-1q-1 1 -1 2q-2 2 -18 11h-107q-33 -4 -42 -8q0 -1 -2 -23h-34q-1 -9 -1 -25h34q-1 -12 -1 -35h-33v-25h31v-24v-11h-31v-16q13 0 29 -2h95q39 0 67 31h61q-12 -49 -15 -108h59 q-1 -5 -3 -25h-57q-1 -9 -1 -25h56q0 -5 -0.5 -17t-0.5 -19h-55v-24h55v-35h-34q-19 19 -49 24h-176v-24h-30q0 -13 1 -19v-6h29v-35h-29l2 -25h28l1 -35h-16q25 -12 116 -12q45 0 65.5 11.5t28.5 53.5l76 6q0 -66 -16 -144h77zM125 44h307q10 0 20 48t10 88l-34 -2 q-8 -43 -32.5 -54.5t-79.5 -11.5q-24 0 -37.5 0.5t-38 3.5t-38.5 9t-25.5 18t-12.5 29q-1 20 -4 124q-1 29 -1 94q46 2 61 2q58 0 81 -3h3q19 -3 28 -5t21.5 -10.5t21.5 -23.5l20 -1q0 129 5 147h-18q-31 -31 -75 -31h-97q-13 2 -51 2v126q0 55 5 120q9 4 32.5 6.5t42.5 2.5 l19 1q57 0 97.5 -10.5t48.5 -26.5l4 -6h16l-5 81q0 35 -73 35q-71 0 -117.5 -2.5t-64.5 -5t-20 -2.5l-113 10v-43q53 -31 57 -78q6 -131 6 -271v-123q0 -19 -2 -89v-22q0 -20 -18 -48t-36 -38v-48l16 2q60 6 71 6zM177 -72q-10 0 -78 -6l-17 -2v35h452q-7 -27 -13 -27h-344z M183 338v-23h180q-10 16 -20 23h-160zM186 682q0 -2 -0.5 -4t-0.5 -3h172q-41 12 -99 12q-12 1 -26 1q-34 0 -46 -6zM390 656l-2 2q1 -2 2 -2z" />
<glyph unicode="&#xec;" horiz-adv-x="272" d="M163 1167l1 -1q29 -60 32 -113h3q6 -13 14 -35h-19q0 -7 -4 -25h29q3 -18 3 -33v-2h-40q-1 -6 -5 -18l-26 -2q-45 36 -74.5 70.5t-56.5 90.5q-12 23 -12 60q0 40 14 65.5t40 25.5q23 0 54.5 -26t46.5 -57zM143 1142q-13 25 -38 46.5t-43 21.5q-28 0 -28 -51q0 -24 6 -36 q26 -52 52 -83t65 -62l3 2q10 35 10 60q0 47 -27 102zM209 898q-23 16 -41 35h52q-2 -11 -8 -33zM224 75q0 -7 2 -29v-6h-10v-25h11q2 -6 7 -11.5t14 -14t10 -9.5h-154q12 12 18 25h-12q-25 0 -100 -8v104q18 3 29 16t14 22q2 118 2 263q0 138 -6 268q-4 34 -43 64v100 q85 -8 103 -8q5 0 49 4l14 1q9 0 38 7v-103h56v-25q-8 -4 -13 -10h-73q-6 -10 -8 -25h63q-8 -21 -10 -35h-56l-1 -27h54v-20l-2 -13l-52 -3l-1 -22h53v-35h-53v-25h52v-35h-52v-25h52v-35h-52v-25h52v-35h-52q0 -17 1 -25h51v-35h-51q1 -8 1 -25h51v-35h-50l1 -25h49 q1 -12 1 -35h-49q0 -10 1 -14q1 -6 4 -11q17 -1 34 -1q7 0 9 -1t2 -6t0.5 -14t0.5 -13h-7v-25h8zM110 41q31 0 83 -5v41q-41 21 -44 67q-5 157 -5 260v174q0 53 2 71v19q3 66 40 88v39q-3 -1 -14 -1q-1 0 -5.5 -0.5t-7.5 -0.5q-33 -3 -50 -3q-26 0 -78 5v-38q38 -32 41 -85 q6 -103 6 -270q0 -60 -0.5 -150t-0.5 -114q-3 -37 -43 -61v-41q47 5 76 5zM167 -75q-33 0 -83 -5v35h181v-35q-58 5 -98 5z" />
<glyph unicode="&#xee;" horiz-adv-x="272" d="M59 1166q15 31 46 57.5t55 26.5q22 0 37 -21q15 21 37 21q23 0 54 -26t47 -57v-1q28 -58 31 -113h4q11 -24 14 -35h-18q-1 -4 -2.5 -12.5t-2.5 -12.5h29q3 -18 3 -33v-2h-41l-6 -18l-24 -2q-58 46 -93 96l-8 -16h-69q-14 -18 -21 -25h75q-19 -28 -25 -35h-77v8 q-11 -10 -33 -28l-26 2q-19 74 -19 100q0 60 33 126zM314 1142q-12 25 -37 46.5t-43 21.5q-14 0 -22 -16q3 -17 3 -35q0 -20 -4 -35q0 -1 1 -1q40 -84 115 -145h1l3 2q10 30 10 60q0 47 -27 102zM80 1142q-28 -57 -28 -102q0 -21 11 -60l2 -2h1q75 61 116 145v1q-3 17 -3 35 t3 35q-8 16 -22 16q-18 0 -43 -21.5t-37 -46.5zM379 898q-24 19 -39 35h51q-4 -22 -8 -33l-3 -2h-1zM115 900l-9 33h52q-17 -17 -40 -35h-1zM216 1053l-4 8t-5 9t-5 8h-10l-8 -13.5t-7 -11.5h39zM224 75q0 -7 2 -29v-6h-10v-25h11q2 -6 7 -11.5t14 -14t10 -9.5h-154 q12 12 18 25h-12q-25 0 -100 -8v104q18 3 29 16t14 22q2 118 2 263q0 138 -6 268q-4 34 -43 64v100q85 -8 103 -8q5 0 49 4l14 1q9 0 38 7v-103h56v-25q-8 -4 -13 -10h-73q-6 -10 -8 -25h63q-8 -21 -10 -35h-56l-1 -27h54v-20l-2 -13l-52 -3l-1 -22h53v-35h-53v-25h52v-35 h-52v-25h52v-35h-52v-25h52v-35h-52q0 -17 1 -25h51v-35h-51q1 -8 1 -25h51v-35h-50l1 -25h49q1 -12 1 -35h-49q0 -10 1 -14q1 -6 4 -11q17 -1 34 -1q7 0 9 -1t2 -6t0.5 -14t0.5 -13h-7v-25h8zM110 41q31 0 83 -5v41q-41 21 -44 67q-5 157 -5 260v174q0 53 2 71v19 q3 66 40 88v39q-3 -1 -14 -1q-1 0 -5.5 -0.5t-7.5 -0.5q-33 -3 -50 -3q-26 0 -78 5v-38q38 -32 41 -85q6 -103 6 -270q0 -60 -0.5 -150t-0.5 -114q-3 -37 -43 -61v-41q47 5 76 5zM167 -75q-33 0 -83 -5v35h181v-35q-58 5 -98 5z" />
<glyph unicode="&#xf1;" horiz-adv-x="710" d="M185 911l-42 21q17 56 53.5 91t74.5 35q32 0 88 -39q41 -29 75 -29q64 0 90 61l42 -19q-17 -61 -55 -96.5t-79 -35.5q-34 0 -90 41q-37 28 -71 28q-28 0 -51.5 -15t-34.5 -43zM103 -18q13 15 17 23q-10 1 -26 1q-19 0 -74 -7v104q38 25 42 41v20q2 118 2 242v190v79v5 q-5 13 -18 25.5t-30 16.5l-10 118l64 -6q8 -1 26.5 -2.5t23.5 -1.5l65 -93h41l26 -35h-41l17 -25h41l25 -35h-41l18 -25h41l25 -35h-41l17 -25h42l25 -35h-42l18 -25h41l25 -35h-41l17 -25h42l25 -35h-41l17 -25h41l20 -28v56q0 95 -6 269q-1 19 -8 32t-31 32v98l73 -8 q21 0 102 12v-103h72v-25q-10 -6 -14 -10h-89q-7 -13 -8 -25h80q-8 -18 -11 -35h-71q-1 -8 -1 -26h70q-2 -22 -2 -34h-68v-25h68q-1 -12 -1 -35h-67v-25h67v-35h-67v-25h67v-35h-67l-1 -25h68v-35h-68q0 -17 -1 -25h68v-35h-68q-1 -8 -1 -25h69v-35h-69v-25h67v-35h-67 l1 -25h66v-35h-66l1 -25h66v-35h-65v-25h66v-35h-63q-3 5 -8.5 12t-7.5 9h-40l-18 24l-238 327l-91 123v-15h-40v-25h40v-35h-39v-25h39v-35h-39v-25h40v-35h-39q0 -17 1 -25h38q0 -24 1 -35h-39q1 -9 1 -25h38q0 -24 1 -35h-38q0 -10 1 -13q2 -8 5 -12h33v-29q1 0 3.5 -1 t3.5 -2v-88q6 -20 23 -35h-121zM481 800v-39q22 -18 29 -36t10 -49q5 -147 5 -271v-195l-415 584q-13 1 -39 4t-37 4l4 -49q18 -5 32.5 -26.5t17.5 -42.5v-7v-81v-192q0 -59 -1 -149.5t-1 -113.5q-3 -37 -42 -62v-40q27 4 50 4q30 0 83 -5v40q-41 22 -44 68q-2 10 -2 16v19 q0 41 -2 116t-2 109v121q0 61 1 85l419 -573h20q-3 73 -3 208v65q2 52 2 146v87q0 86 2 125q3 65 40 88v39q-4 -1 -13 -1l-13 -1q-22 -3 -52 -3q-11 0 -28 4q-9 2 -15 3q-2 0 -4 1h-2zM139 -73q-25 0 -55 -4v34h162v-35q-58 5 -107 5zM636 -77l-25 34h46q0 -24 1 -34h-22z M466 342l18 -25h18v25h-36zM150 497h25l-25 35v-35z" />
<glyph unicode="&#xf2;" d="M289 1163l1 -1q29 -60 32 -113h3q6 -13 14 -35h-19q0 -7 -4 -25h29q3 -18 3 -33v-2h-40q-1 -6 -5 -18l-26 -2q-45 36 -74.5 70.5t-56.5 90.5q-12 23 -12 60q0 40 14 65.5t40 25.5q23 0 54.5 -26t46.5 -57zM269 1138q-13 25 -38 46.5t-43 21.5q-28 0 -28 -51q0 -24 6 -36 q26 -52 52 -83t65 -62l3 2q10 35 10 60q0 47 -27 102zM335 894q-23 16 -41 35h52q-2 -11 -8 -33zM623 4q-16 -16 -39 -34h-351q-26 22 -38 34h62q-28 9 -57 26h-29q-15 16 -25 34h7q-67 59 -107 150.5t-40 197.5v4q0 168 98 293t231 125h4q91 0 161.5 -45t113.5 -125h16 q12 -13 29 -34h-29l10 -26h37q15 -28 18 -34h-44l7 -26h49q5 -12 13 -34h-56l4 -26h59q5 -16 7 -34h-64q1 -9 1 -26h69q1 -6 2.5 -17.5t1.5 -16.5h-73q-2 -18 -2 -26h77v-30v-4h-81q-1 -11 -5 -26h86q-2 -24 -4 -34h-89q-3 -11 -8 -26h94q-1 -7 -4 -19.5t-3 -14.5h-100 q-4 -12 -11 -26h104q-3 -12 -11 -34h-113q-7 -13 -17 -26h120q-8 -19 -17 -34h-131q-9 -10 -27 -26h142q-8 -15 -25 -34h-164q-30 -17 -60 -26h201zM339 798h-4q-123 0 -213.5 -114t-90.5 -267v-10q0 -155 91.5 -267.5t216.5 -112.5q130 0 219.5 110t89.5 277 q0 166 -83.5 275t-225.5 109zM339 720q104 0 171 -92t67 -246q0 -124 -67.5 -200t-170.5 -76q-98 0 -165 98.5t-67 230.5q0 126 65 205.5t167 79.5zM157 424q-2 -22 -4 -34h-20q2 -18 4 -26h16v-7v-27h-9q23 -83 75.5 -135.5t119.5 -52.5q93 0 153.5 66.5t60.5 173.5 q0 137 -60.5 219t-153.5 82q-45 0 -86 -19h101q-43 -10 -79 -34h-71q-12 -12 -23 -26h62q-21 -24 -29 -34h-54q-9 -21 -11 -26h49q-9 -17 -17 -34h-42q-4 -19 -5 -26h38q-8 -25 -10 -34h-31v-26h26zM407 -90q-70 0 -133 34h269q-60 -31 -126 -34h-10z" />
<glyph unicode="&#xf4;" d="M187 1162q15 31 46 57.5t55 26.5q22 0 37 -21q15 21 37 21q23 0 54 -26t47 -57v-1q28 -58 31 -113h4q11 -24 14 -35h-18q-1 -4 -2.5 -12.5t-2.5 -12.5h29q3 -18 3 -33v-2h-41l-6 -18l-24 -2q-58 46 -93 96l-8 -16h-69q-14 -18 -21 -25h75q-19 -28 -25 -35h-77v8 q-11 -10 -33 -28l-26 2q-19 74 -19 100q0 60 33 126zM442 1138q-12 25 -37 46.5t-43 21.5q-14 0 -22 -16q3 -17 3 -35q0 -20 -4 -35q0 -1 1 -1q40 -84 115 -145h1l3 2q10 30 10 60q0 47 -27 102zM208 1138q-28 -57 -28 -102q0 -21 11 -60l2 -2h1q75 61 116 145v1 q-3 17 -3 35t3 35q-8 16 -22 16q-18 0 -43 -21.5t-37 -46.5zM507 894q-24 19 -39 35h51q-4 -22 -8 -33l-3 -2h-1zM243 896l-9 33h52q-17 -17 -40 -35h-1zM344 1049l-4 8t-5 9t-5 8h-10l-8 -13.5t-7 -11.5h39zM623 4q-16 -16 -39 -34h-351q-26 22 -38 34h62q-28 9 -57 26h-29 q-15 16 -25 34h7q-67 59 -107 150.5t-40 197.5v4q0 168 98 293t231 125h4q91 0 161.5 -45t113.5 -125h16q12 -13 29 -34h-29l10 -26h37q15 -28 18 -34h-44l7 -26h49q5 -12 13 -34h-56l4 -26h59q5 -16 7 -34h-64q1 -9 1 -26h69q1 -6 2.5 -17.5t1.5 -16.5h-73q-2 -18 -2 -26 h77v-30v-4h-81q-1 -11 -5 -26h86q-2 -24 -4 -34h-89q-3 -11 -8 -26h94q-1 -7 -4 -19.5t-3 -14.5h-100q-4 -12 -11 -26h104q-3 -12 -11 -34h-113q-7 -13 -17 -26h120q-8 -19 -17 -34h-131q-9 -10 -27 -26h142q-8 -15 -25 -34h-164q-30 -17 -60 -26h201zM339 798h-4 q-123 0 -213.5 -114t-90.5 -267v-10q0 -155 91.5 -267.5t216.5 -112.5q130 0 219.5 110t89.5 277q0 166 -83.5 275t-225.5 109zM339 720q104 0 171 -92t67 -246q0 -124 -67.5 -200t-170.5 -76q-98 0 -165 98.5t-67 230.5q0 126 65 205.5t167 79.5zM157 424q-2 -22 -4 -34 h-20q2 -18 4 -26h16v-7v-27h-9q23 -83 75.5 -135.5t119.5 -52.5q93 0 153.5 66.5t60.5 173.5q0 137 -60.5 219t-153.5 82q-45 0 -86 -19h101q-43 -10 -79 -34h-71q-12 -12 -23 -26h62q-21 -24 -29 -34h-54q-9 -21 -11 -26h49q-9 -17 -17 -34h-42q-4 -19 -5 -26h38 q-8 -25 -10 -34h-31v-26h26zM407 -90q-70 0 -133 34h269q-60 -31 -126 -34h-10z" />
<glyph unicode="&#xf5;" d="M167 905l-42 21q17 56 53.5 91t74.5 35q32 0 88 -39q41 -29 75 -29q64 0 90 61l42 -19q-17 -61 -55 -96.5t-79 -35.5q-34 0 -90 41q-37 28 -71 28q-28 0 -51.5 -15t-34.5 -43zM623 4q-16 -16 -39 -34h-351q-26 22 -38 34h62q-28 9 -57 26h-29q-15 16 -25 34h7 q-67 59 -107 150.5t-40 197.5v4q0 168 98 293t231 125h4q91 0 161.5 -45t113.5 -125h16q12 -13 29 -34h-29l10 -26h37q15 -28 18 -34h-44l7 -26h49q5 -12 13 -34h-56l4 -26h59q5 -16 7 -34h-64q1 -9 1 -26h69q1 -6 2.5 -17.5t1.5 -16.5h-73q-2 -18 -2 -26h77v-30v-4h-81 q-1 -11 -5 -26h86q-2 -24 -4 -34h-89q-3 -11 -8 -26h94q-1 -7 -4 -19.5t-3 -14.5h-100q-4 -12 -11 -26h104q-3 -12 -11 -34h-113q-7 -13 -17 -26h120q-8 -19 -17 -34h-131q-9 -10 -27 -26h142q-8 -15 -25 -34h-164q-30 -17 -60 -26h201zM339 798h-4q-123 0 -213.5 -114 t-90.5 -267v-10q0 -155 91.5 -267.5t216.5 -112.5q130 0 219.5 110t89.5 277q0 166 -83.5 275t-225.5 109zM339 720q104 0 171 -92t67 -246q0 -124 -67.5 -200t-170.5 -76q-98 0 -165 98.5t-67 230.5q0 126 65 205.5t167 79.5zM157 424q-2 -22 -4 -34h-20q2 -18 4 -26h16v-7 v-27h-9q23 -83 75.5 -135.5t119.5 -52.5q93 0 153.5 66.5t60.5 173.5q0 137 -60.5 219t-153.5 82q-45 0 -86 -19h101q-43 -10 -79 -34h-71q-12 -12 -23 -26h62q-21 -24 -29 -34h-54q-9 -21 -11 -26h49q-9 -17 -17 -34h-42q-4 -19 -5 -26h38q-8 -25 -10 -34h-31v-26h26z M407 -90q-70 0 -133 34h269q-60 -31 -126 -34h-10z" />
<glyph unicode="&#xf9;" horiz-adv-x="646" d="M-41 1163l1 -1q29 -60 32 -113h3q6 -13 14 -35h-19q0 -7 -4 -25h29q3 -18 3 -33v-2h-40q-1 -6 -5 -18l-26 -2q-45 36 -74.5 70.5t-56.5 90.5q-12 23 -12 60q0 40 14 65.5t40 25.5q23 0 54.5 -26t46.5 -57zM-61 1138q-13 25 -38 46.5t-43 21.5q-28 0 -28 -51q0 -24 6 -36 q26 -52 52 -83t65 -62l3 2q10 35 10 60q0 47 -27 102zM5 894q-23 16 -41 35h52q-2 -11 -8 -33zM195 244q1 -11 1 -35h-6q39 -69 104 -69q69 1 107 44.5t38 113.5v372q0 22 -11 34.5t-37 22.5v103q37 0 42 -1q1 0 3 -1h3q23 -3 31 -3h3t4 0.5t5.5 1t6.5 0.5q32 4 54 4h29v-76 l-16 -31h84v-15q-21 -8 -30 -20h-78q0 -3 -0.5 -10.5t-0.5 -12.5v-2h68q-2 -12 -4 -35h-65q-1 -8 -1 -25h64v-35h-65v-25h64q-1 -11 -1 -35h-63v-25h63v-35h-63v-25h63v-35h-63v-25h63v-35h-63v-25h63v-35h-65q0 -5 -0.5 -13t-0.5 -12h66v-5q0 -21 -1 -30h-69 q-1 -4 -2.5 -12.5t-2.5 -12.5h73q-3 -34 -3 -35h-78q-1 -3 -3.5 -11.5t-4.5 -13.5h84q-4 -24 -7 -35h-93q-16 -23 -17 -25h104q-8 -27 -12 -35h-128q-19 -15 -49 -25h164q-7 -13 -25 -35h-329q-20 22 -29 35h42q-70 25 -112 89.5t-42 165.5q0 -1 0 14t-0.5 39t-0.5 50v50v36 l-1 222q0 30 -43 62v101q76 -9 103 -9q2 0 16 2q30 4 53 4h33v-100l-9 -6h41v-16q-13 -8 -21 -19h-46q-4 -11 -6 -25h38q-7 -18 -8 -35h-30v-25h28v-35h-29v-25h28v-35h-29v-25h28v-35h-29v-25h29v-35h-30v-25h29v-35h-27v-25h26q0 -23 1 -35h-25q1 -9 5 -25h20zM549 755v39 h-6q-15 0 -43 -2.5t-30 -2.5q-11 0 -32 3h-7q-6 1 -16 1v-38q25 -10 36 -28.5t11 -56.5v-372q0 -86 -43.5 -139.5t-124.5 -54.5q-57 0 -101.5 52.5t-46.5 121.5q-3 89 -2 125l2 263q5 68 41 88v39h-9q-15 0 -41 -2.5t-28 -2.5q-25 0 -78 5v-38q42 -33 42 -85v-222v-35.5 t0.5 -49.5t1 -49.5t0.5 -38.5t0 -14q0 -114 60.5 -174.5t151.5 -60.5q120 0 168.5 73t48.5 228q0 231 3 341q1 43 10 60.5t32 26.5zM353 -91q-71 0 -129 35h267q-47 -31 -121 -35h-17z" />
<glyph unicode="&#xfb;" horiz-adv-x="646" d="M-145 1162q15 31 46 57.5t55 26.5q22 0 37 -21q15 21 37 21q23 0 54 -26t47 -57v-1q28 -58 31 -113h4q11 -24 14 -35h-18q-1 -4 -2.5 -12.5t-2.5 -12.5h29q3 -18 3 -33v-2h-41l-6 -18l-24 -2q-58 46 -93 96l-8 -16h-69q-14 -18 -21 -25h75q-19 -28 -25 -35h-77v8 q-11 -10 -33 -28l-26 2q-19 74 -19 100q0 60 33 126zM110 1138q-12 25 -37 46.5t-43 21.5q-14 0 -22 -16q3 -17 3 -35q0 -20 -4 -35q0 -1 1 -1q40 -84 115 -145h1l3 2q10 30 10 60q0 47 -27 102zM-124 1138q-28 -57 -28 -102q0 -21 11 -60l2 -2h1q75 61 116 145v1 q-3 17 -3 35t3 35q-8 16 -22 16q-18 0 -43 -21.5t-37 -46.5zM175 894q-24 19 -39 35h51q-4 -22 -8 -33l-3 -2h-1zM-89 896l-9 33h52q-17 -17 -40 -35h-1zM12 1049l-4 8t-5 9t-5 8h-10l-8 -13.5t-7 -11.5h39zM195 244q1 -11 1 -35h-6q39 -69 104 -69q69 1 107 44.5t38 113.5 v372q0 22 -11 34.5t-37 22.5v103q37 0 42 -1q1 0 3 -1h3q23 -3 31 -3h3t4 0.5t5.5 1t6.5 0.5q32 4 54 4h29v-76l-16 -31h84v-15q-21 -8 -30 -20h-78q0 -3 -0.5 -10.5t-0.5 -12.5v-2h68q-2 -12 -4 -35h-65q-1 -8 -1 -25h64v-35h-65v-25h64q-1 -11 -1 -35h-63v-25h63v-35h-63 v-25h63v-35h-63v-25h63v-35h-63v-25h63v-35h-65q0 -5 -0.5 -13t-0.5 -12h66v-5q0 -21 -1 -30h-69q-1 -4 -2.5 -12.5t-2.5 -12.5h73q-3 -34 -3 -35h-78q-1 -3 -3.5 -11.5t-4.5 -13.5h84q-4 -24 -7 -35h-93q-16 -23 -17 -25h104q-8 -27 -12 -35h-128q-19 -15 -49 -25h164 q-7 -13 -25 -35h-329q-20 22 -29 35h42q-70 25 -112 89.5t-42 165.5q0 -1 0 14t-0.5 39t-0.5 50v50v36l-1 222q0 30 -43 62v101q76 -9 103 -9q2 0 16 2q30 4 53 4h33v-100l-9 -6h41v-16q-13 -8 -21 -19h-46q-4 -11 -6 -25h38q-7 -18 -8 -35h-30v-25h28v-35h-29v-25h28v-35 h-29v-25h28v-35h-29v-25h29v-35h-30v-25h29v-35h-27v-25h26q0 -23 1 -35h-25q1 -9 5 -25h20zM549 755v39h-6q-15 0 -43 -2.5t-30 -2.5q-11 0 -32 3h-7q-6 1 -16 1v-38q25 -10 36 -28.5t11 -56.5v-372q0 -86 -43.5 -139.5t-124.5 -54.5q-57 0 -101.5 52.5t-46.5 121.5 q-3 89 -2 125l2 263q5 68 41 88v39h-9q-15 0 -41 -2.5t-28 -2.5q-25 0 -78 5v-38q42 -33 42 -85v-222v-35.5t0.5 -49.5t1 -49.5t0.5 -38.5t0 -14q0 -114 60.5 -174.5t151.5 -60.5q120 0 168.5 73t48.5 228q0 231 3 341q1 43 10 60.5t32 26.5zM353 -91q-71 0 -129 35h267 q-47 -31 -121 -35h-17z" />
<glyph unicode="&#x152;" horiz-adv-x="1306" d="M1300 75q0 -11 -2 -35h-84q-7 -21 -11 -25h93q-1 -6 -2.5 -18t-1.5 -17h-447q11 9 24 27q-22 -2 -38 -3l-23 -2l-10 -2h-30v108q18 11 36 31t18 31v22q0 8 0.5 22.5t0.5 20.5q1 18 1 46v123q0 118 -7 268q0 23 -58 57v105l140 -11q3 0 22.5 2.5t65 5t112.5 2.5 q45 0 70.5 -16t26.5 -55q0 -15 1 -27h48q7 -8 7 -20v-15h-52q0 -15 1 -25h53q0 -4 1 -11.5t1.5 -13.5t0.5 -10h-26q-9 8 -30 16v-13h-40q-7 0 -18 13q0 1 -2 3v-1q-1 1 -1 2q-2 2 -18 11h-107q-33 -4 -42 -8q0 -1 -2 -23h-34q-1 -9 -1 -25h34q-1 -12 -1 -35h-33v-25h31v-24 v-11h-31v-16q13 0 29 -2h95q39 0 67 31h61q-12 -49 -15 -108h59q-1 -5 -3 -25h-57q-1 -9 -1 -25h56q0 -5 -0.5 -17t-0.5 -19h-55v-24h55v-35h-34q-19 19 -49 24h-176v-24h-30q0 -13 1 -19v-6h29v-35h-29l2 -25h28l1 -35h-16q25 -12 116 -12q45 0 65.5 11.5t28.5 53.5l76 6 q0 -66 -16 -144h77zM878 44h307q10 0 20 48t10 88l-34 -2q-8 -43 -32.5 -54.5t-79.5 -11.5q-24 0 -37.5 0.5t-38 3.5t-38.5 9t-25.5 18t-12.5 29q-1 20 -4 124q-1 29 -1 94q46 2 61 2q58 0 81 -3h3q19 -3 28 -5t21.5 -10.5t21.5 -23.5l20 -1q0 129 5 147h-18 q-31 -31 -75 -31h-97q-13 2 -51 2v126q0 55 5 120q9 4 32.5 6.5t42.5 2.5l19 1q57 0 97.5 -10.5t48.5 -26.5l4 -6h16l-5 81q0 35 -73 35q-71 0 -117.5 -2.5t-64.5 -5t-20 -2.5l-113 10v-43q53 -31 57 -78q6 -131 6 -271v-123q0 -19 -2 -89v-22q0 -20 -18 -48t-36 -38v-48 l16 2q60 6 71 6zM930 -72q-10 0 -78 -6l-17 -2v35h452q-7 -27 -13 -27h-344zM936 338v-23h180q-10 16 -20 23h-160zM939 682q0 -2 -0.5 -4t-0.5 -3h172q-41 12 -99 12q-12 1 -26 1q-34 0 -46 -6zM1143 656l-2 2q1 -2 2 -2zM623 4q-16 -16 -39 -34h-351q-26 22 -38 34h62 q-28 9 -57 26h-29q-15 16 -25 34h7q-67 59 -107 150.5t-40 197.5v4q0 168 98 293t231 125h4q91 0 161.5 -45t113.5 -125h16q12 -13 29 -34h-29l10 -26h37q15 -28 18 -34h-44l7 -26h49q5 -12 13 -34h-56l4 -26h59q5 -16 7 -34h-64q1 -9 1 -26h69q1 -6 2.5 -17.5t1.5 -16.5 h-73q-2 -18 -2 -26h77v-30v-4h-81q-1 -11 -5 -26h86q-2 -24 -4 -34h-89q-3 -11 -8 -26h94q-1 -7 -4 -19.5t-3 -14.5h-100q-4 -12 -11 -26h104q-3 -12 -11 -34h-113q-7 -13 -17 -26h120q-8 -19 -17 -34h-131q-9 -10 -27 -26h142q-8 -15 -25 -34h-164q-30 -17 -60 -26h201z M339 798h-4q-123 0 -213.5 -114t-90.5 -267v-10q0 -155 91.5 -267.5t216.5 -112.5q130 0 219.5 110t89.5 277q0 166 -83.5 275t-225.5 109zM339 720q104 0 171 -92t67 -246q0 -124 -67.5 -200t-170.5 -76q-98 0 -165 98.5t-67 230.5q0 126 65 205.5t167 79.5zM157 424 q-2 -22 -4 -34h-20q2 -18 4 -26h16v-7v-27h-9q23 -83 75.5 -135.5t119.5 -52.5q93 0 153.5 66.5t60.5 173.5q0 137 -60.5 219t-153.5 82q-45 0 -86 -19h101q-43 -10 -79 -34h-71q-12 -12 -23 -26h62q-21 -24 -29 -34h-54q-9 -21 -11 -26h49q-9 -17 -17 -34h-42 q-4 -19 -5 -26h38q-8 -25 -10 -34h-31v-26h26zM407 -90q-70 0 -133 34h269q-60 -31 -126 -34h-10z" />
<glyph unicode="&#x153;" horiz-adv-x="1306" d="M1300 75q0 -11 -2 -35h-84q-7 -21 -11 -25h93q-1 -6 -2.5 -18t-1.5 -17h-447q11 9 24 27q-22 -2 -38 -3l-23 -2l-10 -2h-30v108q18 11 36 31t18 31v22q0 8 0.5 22.5t0.5 20.5q1 18 1 46v123q0 118 -7 268q0 23 -58 57v105l140 -11q3 0 22.5 2.5t65 5t112.5 2.5 q45 0 70.5 -16t26.5 -55q0 -15 1 -27h48q7 -8 7 -20v-15h-52q0 -15 1 -25h53q0 -4 1 -11.5t1.5 -13.5t0.5 -10h-26q-9 8 -30 16v-13h-40q-7 0 -18 13q0 1 -2 3v-1q-1 1 -1 2q-2 2 -18 11h-107q-33 -4 -42 -8q0 -1 -2 -23h-34q-1 -9 -1 -25h34q-1 -12 -1 -35h-33v-25h31v-24 v-11h-31v-16q13 0 29 -2h95q39 0 67 31h61q-12 -49 -15 -108h59q-1 -5 -3 -25h-57q-1 -9 -1 -25h56q0 -5 -0.5 -17t-0.5 -19h-55v-24h55v-35h-34q-19 19 -49 24h-176v-24h-30q0 -13 1 -19v-6h29v-35h-29l2 -25h28l1 -35h-16q25 -12 116 -12q45 0 65.5 11.5t28.5 53.5l76 6 q0 -66 -16 -144h77zM878 44h307q10 0 20 48t10 88l-34 -2q-8 -43 -32.5 -54.5t-79.5 -11.5q-24 0 -37.5 0.5t-38 3.5t-38.5 9t-25.5 18t-12.5 29q-1 20 -4 124q-1 29 -1 94q46 2 61 2q58 0 81 -3h3q19 -3 28 -5t21.5 -10.5t21.5 -23.5l20 -1q0 129 5 147h-18 q-31 -31 -75 -31h-97q-13 2 -51 2v126q0 55 5 120q9 4 32.5 6.5t42.5 2.5l19 1q57 0 97.5 -10.5t48.5 -26.5l4 -6h16l-5 81q0 35 -73 35q-71 0 -117.5 -2.5t-64.5 -5t-20 -2.5l-113 10v-43q53 -31 57 -78q6 -131 6 -271v-123q0 -19 -2 -89v-22q0 -20 -18 -48t-36 -38v-48 l16 2q60 6 71 6zM930 -72q-10 0 -78 -6l-17 -2v35h452q-7 -27 -13 -27h-344zM936 338v-23h180q-10 16 -20 23h-160zM939 682q0 -2 -0.5 -4t-0.5 -3h172q-41 12 -99 12q-12 1 -26 1q-34 0 -46 -6zM1143 656l-2 2q1 -2 2 -2zM623 4q-16 -16 -39 -34h-351q-26 22 -38 34h62 q-28 9 -57 26h-29q-15 16 -25 34h7q-67 59 -107 150.5t-40 197.5v4q0 168 98 293t231 125h4q91 0 161.5 -45t113.5 -125h16q12 -13 29 -34h-29l10 -26h37q15 -28 18 -34h-44l7 -26h49q5 -12 13 -34h-56l4 -26h59q5 -16 7 -34h-64q1 -9 1 -26h69q1 -6 2.5 -17.5t1.5 -16.5 h-73q-2 -18 -2 -26h77v-30v-4h-81q-1 -11 -5 -26h86q-2 -24 -4 -34h-89q-3 -11 -8 -26h94q-1 -7 -4 -19.5t-3 -14.5h-100q-4 -12 -11 -26h104q-3 -12 -11 -34h-113q-7 -13 -17 -26h120q-8 -19 -17 -34h-131q-9 -10 -27 -26h142q-8 -15 -25 -34h-164q-30 -17 -60 -26h201z M339 798h-4q-123 0 -213.5 -114t-90.5 -267v-10q0 -155 91.5 -267.5t216.5 -112.5q130 0 219.5 110t89.5 277q0 166 -83.5 275t-225.5 109zM339 720q104 0 171 -92t67 -246q0 -124 -67.5 -200t-170.5 -76q-98 0 -165 98.5t-67 230.5q0 126 65 205.5t167 79.5zM157 424 q-2 -22 -4 -34h-20q2 -18 4 -26h16v-7v-27h-9q23 -83 75.5 -135.5t119.5 -52.5q93 0 153.5 66.5t60.5 173.5q0 137 -60.5 219t-153.5 82q-45 0 -86 -19h101q-43 -10 -79 -34h-71q-12 -12 -23 -26h62q-21 -24 -29 -34h-54q-9 -21 -11 -26h49q-9 -17 -17 -34h-42 q-4 -19 -5 -26h38q-8 -25 -10 -34h-31v-26h26zM407 -90q-70 0 -133 34h269q-60 -31 -126 -34h-10z" />
<glyph unicode="&#x2c6;" horiz-adv-x="380" d="M39 1117q15 31 46 57.5t55 26.5q22 0 37 -21q15 21 37 21q23 0 54 -26t47 -57v-1q28 -58 31 -113h4q11 -24 14 -35h-18q-1 -4 -2.5 -12.5t-2.5 -12.5h29q3 -18 3 -33v-2h-41l-6 -18l-24 -2q-58 46 -93 96l-8 -16h-69q-14 -18 -21 -25h75q-19 -28 -25 -35h-77v8 q-11 -10 -33 -28l-26 2q-19 74 -19 100q0 60 33 126zM294 1093q-12 25 -37 46.5t-43 21.5q-14 0 -22 -16q3 -17 3 -35q0 -20 -4 -35q0 -1 1 -1q40 -84 115 -145h1l3 2q10 30 10 60q0 47 -27 102zM60 1093q-28 -57 -28 -102q0 -21 11 -60l2 -2h1q75 61 116 145v1q-3 17 -3 35 t3 35q-8 16 -22 16q-18 0 -43 -21.5t-37 -46.5zM359 849q-24 19 -39 35h51q-4 -22 -8 -33l-3 -2h-1zM95 851l-9 33h52q-17 -17 -40 -35h-1zM196 1004l-4 8t-5 9t-5 8h-10l-8 -13.5t-7 -11.5h39z" />
<glyph unicode="&#x2dc;" horiz-adv-x="325" d="M-169 71l-42 21q17 56 53.5 91t74.5 35q32 0 88 -39q41 -29 75 -29q64 0 90 61l42 -19q-17 -61 -55 -96.5t-79 -35.5q-34 0 -90 41q-37 28 -71 28q-28 0 -51.5 -15t-34.5 -43z" />
<glyph unicode="&#x2013;" horiz-adv-x="500" d="M6 182v189h487v-189h-487z" />
<glyph unicode="&#x2014;" horiz-adv-x="1000" d="M6 182v189h987v-189h-987z" />
<glyph unicode="&#x2018;" horiz-adv-x="227" d="M161 1097l1 -1q29 -60 32 -113h3q6 -13 14 -35h-19q0 -7 -4 -25h29q3 -18 3 -33v-2h-40q-1 -6 -5 -18l-26 -2q-45 36 -74.5 70.5t-56.5 90.5q-12 23 -12 60q0 40 14 65.5t40 25.5q23 0 54.5 -26t46.5 -57zM141 1072q-13 25 -38 46.5t-43 21.5q-28 0 -28 -51q0 -24 6 -36 q26 -52 52 -83t65 -62l3 2q10 35 10 60q0 47 -27 102zM207 828q-23 16 -41 35h52q-2 -11 -8 -33z" />
<glyph unicode="&#x2019;" horiz-adv-x="194" d="M188 682q0 -14 -2 -34h-46q-4 -12 -12 -25h55q-6 -24 -11 -35h-65l-24 -32q-39 49 -58 95t-19 111q0 44 23.5 81t54.5 37q30 0 54 -37t24 -81q0 -4 -0.5 -12t-0.5 -12l5 5q14 -17 18 -35l-27 -4q-2 -9 -4 -21h35v-1zM136 762q0 29 -15.5 53.5t-36.5 24.5q-20 0 -36 -24.5 t-16 -53.5q0 -53 12.5 -86.5t38.5 -67.5h2q26 34 38.5 67.5t12.5 86.5zM135 528q-12 15 -24 35h50q-20 -31 -24 -35h-2z" />
<glyph unicode="&#x201c;" horiz-adv-x="324" d="M318 682q0 -14 -2 -34h-46q-4 -12 -12 -25h55q-6 -24 -11 -35h-65l-24 -32q-18 22 -36 50q-1 -2 -2.5 -8.5t-2.5 -9.5h-65l-24 -32q-39 49 -58 95t-19 111q0 44 24 81t54 37q19 0 36.5 -16.5t27.5 -42.5q11 26 28.5 42.5t37.5 16.5q31 0 54.5 -37t23.5 -81q0 -4 -0.5 -10 t-0.5 -9h6q12 -15 18 -35h-28q-2 -16 -4 -25h35v-1zM266 762q0 29 -15.5 53.5t-36.5 24.5q-20 0 -36 -24.5t-16 -53.5q0 -53 12.5 -86.5t38.5 -67.5h2q1 1 2.5 3.5t2.5 3.5q0 5 -1 8h7q40 57 40 139zM135 762q0 29 -15.5 53.5t-35.5 24.5t-36 -24.5t-16 -53.5 q0 -53 12.5 -86.5t38.5 -67.5h2q1 1 2.5 3.5t2.5 3.5q0 5 -1 8h7q39 58 39 139zM265 528q-15 18 -24 35h50q-20 -31 -24 -35h-2zM135 528q-12 15 -24 35h49q-14 -24 -23 -35h-2zM140 648q-4 -9 -12 -25h40q-8 16 -11 25h-17z" />
<glyph unicode="&#x201d;" horiz-adv-x="324" d="M318 682q0 -14 -2 -34h-46q-4 -12 -12 -25h55q-6 -24 -11 -35h-65l-24 -32q-18 22 -36 50q-1 -2 -2.5 -8.5t-2.5 -9.5h-65l-24 -32q-39 49 -58 95t-19 111q0 44 24 81t54 37q19 0 36.5 -16.5t27.5 -42.5q11 26 28.5 42.5t37.5 16.5q31 0 54.5 -37t23.5 -81q0 -4 -0.5 -10 t-0.5 -9h6q12 -15 18 -35h-28q-2 -16 -4 -25h35v-1zM266 762q0 29 -15.5 53.5t-36.5 24.5q-20 0 -36 -24.5t-16 -53.5q0 -53 12.5 -86.5t38.5 -67.5h2q1 1 2.5 3.5t2.5 3.5q0 5 -1 8h7q40 57 40 139zM135 762q0 29 -15.5 53.5t-35.5 24.5t-36 -24.5t-16 -53.5 q0 -53 12.5 -86.5t38.5 -67.5h2q1 1 2.5 3.5t2.5 3.5q0 5 -1 8h7q39 58 39 139zM265 528q-15 18 -24 35h50q-20 -31 -24 -35h-2zM135 528q-12 15 -24 35h49q-14 -24 -23 -35h-2zM140 648q-4 -9 -12 -25h40q-8 16 -11 25h-17z" />
<glyph unicode="&#x2026;" horiz-adv-x="561" d="M455 -36q-2 10 -2 17v6q-1 0 -3.5 -0.5t-3.5 -0.5q-27 0 -46.5 32t-19.5 77t19.5 77t46.5 32q28 0 47 -32t19 -77q0 -19 -3 -36h25q9 -12 16 -35h-53q-6 -13 -20 -25h76q1 -3 1 -9q0 -14 -3 -26h-96zM403 95q0 -31 12.5 -52.5t30.5 -21.5t31 21.5t13 52.5t-13 53t-31 22 t-30.5 -22t-12.5 -53zM503 -96q-26 0 -41 35h82q-15 -35 -41 -35zM268 -36q-2 10 -2 17v6q-1 0 -3.5 -0.5t-3.5 -0.5q-27 0 -46.5 32t-19.5 77t19.5 77t46.5 32q28 0 47 -32t19 -77q0 -19 -3 -36h25q9 -12 16 -35h-53q-6 -13 -20 -25h76q1 -3 1 -9q0 -14 -3 -26h-96zM216 95 q0 -31 12.5 -52.5t30.5 -21.5t31 21.5t13 52.5t-13 53t-31 22t-30.5 -22t-12.5 -53zM316 -96q-26 0 -41 35h82q-15 -35 -41 -35zM81 -36q-2 10 -2 17v6q-1 0 -3.5 -0.5t-3.5 -0.5q-27 0 -46.5 32t-19.5 77t19.5 77t46.5 32q28 0 47 -32t19 -77q0 -19 -3 -36h25q9 -12 16 -35 h-53q-6 -13 -20 -25h76q1 -3 1 -9q0 -14 -3 -26h-96zM29 95q0 -31 12.5 -52.5t30.5 -21.5t31 21.5t13 52.5t-13 53t-31 22t-30.5 -22t-12.5 -53zM129 -96q-26 0 -41 35h82q-15 -35 -41 -35z" />
<glyph unicode="&#x2039;" horiz-adv-x="281" d="M274 158v-80l-129 92q-62 43 -139 89v82q80 46 127 79q71 48 141 102v-80q-104 -65 -138 -89q-75 -53 -76 -54l89 -62q53 -36 125 -79z" />
<glyph unicode="&#x203a;" horiz-adv-x="281" d="M6 78v80q66 39 127 79q12 9 28.5 20l30 20.5l29.5 21.5q-14 11 -41.5 30l-34.5 24l-139 89v80q98 -72 143 -102q48 -33 125 -79v-82q-89 -54 -138 -89z" />
<glyph unicode="&#x2122;" horiz-adv-x="1562" d="M1476 712q-13 -2 -27 -13h-97q-9 -11 -9 -19l1 -6h85q-10 -17 -13 -35h-68l3 -25h65l4 -35h-65l4 -25h64l5 -35h-65l3 -25h65l4 -35h-65l4 -25h64l4 -35h-65l4 -25h64l5 -35h-65l4 -25h64l4 -35h-65l4 -25h64l5 -35h-65l3 -25h65l4 -36h-64q3 -12 17 -24h50l5 -35h-8v-25 h10l4 -28q0 -2 0.5 -4t0.5 -3h-15v-25h26q13 -21 31 -35h-131q6 9 8 25q-23 3 -39 3q-42 0 -110 -12v110l31 8q-1 66 -14 172l-2 -6h-85q-3 -9 -9 -25h85q-8 -24 -12 -35h-85q-3 -9 -9 -25h85q-8 -24 -12 -35h-85q-3 -9 -9 -25h85q-8 -24 -13 -35h-84q-7 -21 -8 -25h84 q-8 -24 -12 -35h-85l-4 -12h-53l-51 127q-83 208 -100 244h-29l-3 -24h33q-1 -6 -2.5 -18t-1.5 -17h-33q0 -9 -2 -25h33q-1 -6 -2.5 -18t-1.5 -17h-32q-1 -4 -2 -12.5t-2 -12.5h33q-3 -34 -3 -35h-34q0 -5 -1 -13t-1 -12h33q-2 -24 -3 -35h-35q-2 -14 -2 -19v-6h33 q0 -4 -0.5 -13t-1.5 -13q1 0 1 -0.5t1 -0.5l11 -113q-7 1 -17 3q5 -11 15 -18h-106q12 11 19 25q-13 0 -21 1q-23 0 -96 -11l21 113q44 18 53 73l59 507q-8 22 -63 43v107q76 -8 122 -8l37 -95h40l14 -35h-40l10 -25h39l15 -35h-41l10 -25h40l14 -35h-40l9 -25h41l14 -35 h-40l10 -25h40l13 -35h-40l10 -25h40l14 -35h-40l10 -25h40l14 -35h-40l9 -25h24l76 209l6 18l106 291q7 -2 29 -2q18 0 27 1q26 2 62 2v-99h77v-22zM1385 151l-65 523v5q0 23 16 49t39 30v39l-81 -5l-208 -573h-6l-226 573q-50 0 -85 5v-38q27 -10 44 -31t18 -40l-59 -514 q-10 -79 -57 -97l-8 -41l4 1q34 5 61 5q40 0 82 -6l-5 44q-36 17 -36 54q0 9 1 14q5 41 43 399l7 -2l51 -126q22 -46 82.5 -199.5t61.5 -155.5h26l171 487l5 5q6 -47 20 -137.5t22.5 -164.5t8.5 -140q0 -32 -31 -39l-1 -39q46 8 87 8q38 0 81 -8v39q-57 29 -63 76zM1467 -72 q-48 0 -95 -9v35h184v-35q-45 9 -89 9zM813 -74q-26 0 -71 -7l7 35h150l4 -35q-23 4 -90 7zM1116 -21l-13 35h76l-12 -35h-51zM1208 339q-3 -9 -9 -25h71q-2 16 -3 25h-59zM1262 374q-2 9 -4 25h-29q-3 -9 -9 -25h42zM872 458l-3 -24h13q-6 12 -10 24zM1253 434l-4 23 q-1 -5 -3.5 -13t-3.5 -10h11zM1348 642q0 2 -1 3zM416 639h-47v-25h48q0 -24 -1 -35h-47l-1 -25h47v-35h-48v-25h47v-35h-47v-25h46v-35h-46v-25h46v-35h-46l1 -25h45v-35h-44v-25h45v-35h-44v-25h45v-35h-43v-13q2 -8 5 -12h39v-35l3 -60h-3v-25h8q6 -20 21 -35h-132 q14 16 18 24q-9 1 -22 1q-27 0 -99 -8v104q39 24 43 38q0 24 0.5 114t0.5 149v155q0 4 -0.5 12t-0.5 13v83h-76q-29 -7 -50 -25h-49l-16 -25h43l-9 -15.5t-8 -13.5h-37q0 13 2 21h-47q2 80 34 154l30 79h35q12 -16 40 -16h253q20 0 61 1t56 1q25 0 45 15h49 q-17 -78 -26 -106h80q-4 -15 -11 -35h-81q-4 -9 -7 -25h79q-2 -6 -5.5 -18t-5.5 -17h-76q-4 -20 -5 -29h-63q0 37 -35 55q-6 0 -36 -3q-1 -8 -1 -23zM515 789q-31 0 -102.5 -1.5t-85.5 -1.5q-142 0 -183 1q-37 2 -47 16h-13q-8 -24 -23 -60.5t-22.5 -59t-7.5 -41.5h16 q22 43 50.5 60.5t87.5 17.5q40 0 90 -7l1 -30q2 -26 2 -77v-205q0 -147 -2 -263q-2 -37 -42 -62v-40l8 1q36 3 67 3q20 0 84 -4v40q-40 21 -45 67q-3 60 -5 261v36q0 117 5 272q16 3 39 3q51 0 89 -16t38 -52v-4h18q5 37 22.5 86.5t22.5 73.5h-12q-19 -14 -50 -14zM376 -76 q-33 0 -83 -5v35h174v-35q-57 5 -91 5zM564 586v4q0 14 -6 24h67q-2 -10 -4 -28h-57zM185 683q-38 0 -62 -9h130v5q-54 4 -68 4zM370 679v-5h58q-22 5 -41 5h-17z" />
<glyph unicode="&#xe000;" horiz-adv-x="835" d="M0 835h835v-835h-835v835z" />
<glyph unicode="&#xfb01;" horiz-adv-x="791" d="M743 75q0 -7 2 -29v-6h-10v-25h11q2 -6 7 -11.5t14 -14t10 -9.5h-154q12 12 18 25h-12q-25 0 -100 -8v104q18 3 29 16t14 22q2 118 2 263q0 138 -6 268q-4 34 -43 64v100q85 -8 103 -8q5 0 49 4l14 1q9 0 38 7v-103h56v-25q-8 -4 -13 -10h-73q-6 -10 -8 -25h63 q-8 -21 -10 -35h-56l-1 -27h54v-20l-2 -13l-52 -3l-1 -22h53v-35h-53v-25h52v-35h-52v-25h52v-35h-52v-25h52v-35h-52q0 -17 1 -25h51v-35h-51q1 -8 1 -25h51v-35h-50l1 -25h49q1 -12 1 -35h-49q0 -10 1 -14q1 -6 4 -11q17 -1 34 -1q7 0 9 -1t2 -6t0.5 -14t0.5 -13h-7v-25h8 zM629 41q31 0 83 -5v41q-41 21 -44 67q-5 157 -5 260v174q0 53 2 71v19q3 66 40 88v39q-3 -1 -14 -1q-1 0 -5.5 -0.5t-7.5 -0.5q-33 -3 -50 -3q-26 0 -78 5v-38q38 -32 41 -85q6 -103 6 -270q0 -60 -0.5 -150t-0.5 -114q-3 -37 -43 -61v-41q47 5 76 5zM686 -75q-33 0 -83 -5 v35h181v-35q-58 5 -98 5zM117 -20q14 16 18 25h-9q-27 0 -99 -8v104q41 26 43 38q0 18 0.5 49t0.5 44q1 18 1 49v127q0 136 -6 268q0 22 -54 55l-6 103h41q84 -8 99 -8h44q44 0 65 2l20 2q43 4 79 4q46 0 71 -15.5t25 -56.5q0 -14 2 -27h51q5 -8 5 -19v-16h-54q2 -18 2 -25 h54q0 -7 1 -18.5t1 -16.5h-56l-4 4h-57q-6 11 -18 22h-155q0 -2 -0.5 -5t-1 -9t-0.5 -12h-33v-25h33q-1 -10 -1 -35h-32v-25h32v-38q26 -2 40 -2q10 -1 32 -1q49 0 61 37h69q-12 -53 -12 -103v-13h55q0 -4 -0.5 -15.5t-0.5 -19.5h-52q0 -7 2 -25l50 -3v-32h-45q1 -5 3 -13 h-62q-7 12 -8 13h-168l1 -25h31v-35h-30v-25h31v-35h-30q1 -9 1 -25h30v-35h-29q0 -9 1 -12q3 -17 105 -38v-112q-14 1 -52 3q14 -11 41 -21h-166zM179 790h-33q-33 0 -100 8l-14 2l2 -43q52 -33 56 -78q6 -132 6 -271v-127q-2 -64 -3 -143q-2 -37 -42 -61v-41q45 5 75 5 q92 0 144 -5v42q-100 21 -105 66q-6 152 -6 263h135q58 -8 76 -44h19q-4 23 -4 85q0 55 2 67h-20q-13 -38 -76 -38q-23 0 -33 1l-60 4q-10 1 -35 1v113q0 98 3 122q0 2 61 4l61 3q47 0 80 -13t40 -32h23q0 6 -2.5 39.5t-2.5 42.5q0 36 -72 36q-16 0 -99 -6q-24 -2 -76 -2z M179 -75q-35 0 -83 -5v35h241v-35q-58 5 -158 5zM188 689q0 -1 -0.5 -5t-0.5 -9h174q-31 14 -73 14q-11 0 -27 -2h-34q-21 0 -39 2zM446 280q-14 24 -37 35h55q2 -31 3 -35h-21z" />
<glyph unicode="&#xfb02;" horiz-adv-x="1053" d="M1047 73q-3 -13 -7 -35h-94q-13 -24 -14 -25h102q-3 -13 -11 -35h-405q12 12 21 27q-32 -1 -114 -10l15 110q16 10 32.5 31t17.5 33v234q0 138 -6 267q0 32 -42 65v100l9 -1q75 -7 93 -7q14 0 86 4q32 2 61 2v-100h40v-22q-25 -6 -43 -13h-66q-14 -13 -16 -25h50 q-12 -15 -17 -35h-34v-25h32v-35h-33v-25h32v-35h-32v-25h31v-35h-31v-25h31v-35h-31v-25h31v-35h-31v-25h31v-35h-31q1 -9 1 -25h30v-35h-29l1 -25h28l2 -35h-21q19 -16 73 -16q33 0 54 3.5t44.5 21.5t35.5 52h73q-17 -95 -35 -146h86zM645 42q19 0 60.5 -3.5t74.5 -3.5 q45 0 135 4q33 41 50 143h-29q-9 -26 -24 -42t-37 -23t-40 -9t-46 -2q-101 0 -105 64q-4 84 -4 223q0 55 0.5 150t0.5 126q3 35 20 56.5t66 31.5v39q-105 -5 -123 -5q-38 0 -79 5v-38q41 -33 43 -85q4 -118 4 -184v-320q0 -21 -17 -50.5t-34 -40.5l-6 -43l7 1q56 6 83 6z M697 -74q-33 0 -99 -8l4 35h410q-12 -22 -19 -30q-122 -5 -148 -5h-19q-29 0 -69.5 4t-59.5 4zM117 -20q14 16 18 25h-9q-27 0 -99 -8v104q41 26 43 38q0 18 0.5 49t0.5 44q1 18 1 49v127q0 136 -6 268q0 22 -54 55l-6 103h41q84 -8 99 -8h44q44 0 65 2l20 2q43 4 79 4 q46 0 71 -15.5t25 -56.5q0 -14 2 -27h51q5 -8 5 -19v-16h-54q2 -18 2 -25h54q0 -7 1 -18.5t1 -16.5h-56l-4 4h-57q-6 11 -18 22h-155q0 -2 -0.5 -5t-1 -9t-0.5 -12h-33v-25h33q-1 -10 -1 -35h-32v-25h32v-38q26 -2 40 -2q10 -1 32 -1q49 0 61 37h69q-12 -53 -12 -103v-13h55 q0 -4 -0.5 -15.5t-0.5 -19.5h-52q0 -7 2 -25l50 -3v-32h-45q1 -5 3 -13h-62q-7 12 -8 13h-168l1 -25h31v-35h-30v-25h31v-35h-30q1 -9 1 -25h30v-35h-29q0 -9 1 -12q3 -17 105 -38v-112q-14 1 -52 3q14 -11 41 -21h-166zM179 790h-33q-33 0 -100 8l-14 2l2 -43 q52 -33 56 -78q6 -132 6 -271v-127q-2 -64 -3 -143q-2 -37 -42 -61v-41q45 5 75 5q92 0 144 -5v42q-100 21 -105 66q-6 152 -6 263h135q58 -8 76 -44h19q-4 23 -4 85q0 55 2 67h-20q-13 -38 -76 -38q-23 0 -33 1l-60 4q-10 1 -35 1v113q0 98 3 122q0 2 61 4l61 3 q47 0 80 -13t40 -32h23q0 6 -2.5 39.5t-2.5 42.5q0 36 -72 36q-16 0 -99 -6q-24 -2 -76 -2zM179 -75q-35 0 -83 -5v35h241v-35q-58 5 -158 5zM188 689q0 -1 -0.5 -5t-0.5 -9h174q-31 14 -73 14q-11 0 -27 -2h-34q-21 0 -39 2zM446 280q-14 24 -37 35h55q2 -31 3 -35h-21z " />
<glyph unicode="&#xfb03;" horiz-adv-x="1310" d="M1262 75q0 -7 2 -29v-6h-10v-25h11q2 -6 7 -11.5t14 -14t10 -9.5h-154q12 12 18 25h-12q-25 0 -100 -8v104q18 3 29 16t14 22q2 118 2 263q0 138 -6 268q-4 34 -43 64v100q85 -8 103 -8q5 0 49 4l14 1q9 0 38 7v-103h56v-25q-8 -4 -13 -10h-73q-6 -10 -8 -25h63 q-8 -21 -10 -35h-56l-1 -27h54v-20l-2 -13l-52 -3l-1 -22h53v-35h-53v-25h52v-35h-52v-25h52v-35h-52v-25h52v-35h-52q0 -17 1 -25h51v-35h-51q1 -8 1 -25h51v-35h-50l1 -25h49q1 -12 1 -35h-49q0 -10 1 -14q1 -6 4 -11q17 -1 34 -1q7 0 9 -1t2 -6t0.5 -14t0.5 -13h-7v-25h8 zM1148 41q31 0 83 -5v41q-41 21 -44 67q-5 157 -5 260v174q0 53 2 71v19q3 66 40 88v39q-3 -1 -14 -1q-1 0 -5.5 -0.5t-7.5 -0.5q-33 -3 -50 -3q-26 0 -78 5v-38q38 -32 41 -85q6 -103 6 -270q0 -60 -0.5 -150t-0.5 -114q-3 -37 -43 -61v-41q47 5 76 5zM1205 -75 q-33 0 -83 -5v35h181v-35q-58 5 -98 5zM636 -20q14 16 18 25h-9q-27 0 -99 -8v104q41 26 43 38q0 18 0.5 49t0.5 44q1 18 1 49v127q0 136 -6 268q0 22 -54 55l-6 103h41q84 -8 99 -8h44q44 0 65 2l20 2q43 4 79 4q46 0 71 -15.5t25 -56.5q0 -14 2 -27h51q5 -8 5 -19v-16h-54 q2 -18 2 -25h54q0 -7 1 -18.5t1 -16.5h-56l-4 4h-57q-6 11 -18 22h-155q0 -2 -0.5 -5t-1 -9t-0.5 -12h-33v-25h33q-1 -10 -1 -35h-32v-25h32v-38q26 -2 40 -2q10 -1 32 -1q49 0 61 37h69q-12 -53 -12 -103v-13h55q0 -4 -0.5 -15.5t-0.5 -19.5h-52q0 -7 2 -25l50 -3v-32h-45 q1 -5 3 -13h-62q-7 12 -8 13h-168l1 -25h31v-35h-30v-25h31v-35h-30q1 -9 1 -25h30v-35h-29q0 -9 1 -12q3 -17 105 -38v-112q-14 1 -52 3q14 -11 41 -21h-166zM698 790h-33q-33 0 -100 8l-14 2l2 -43q52 -33 56 -78q6 -132 6 -271v-127q-2 -64 -3 -143q-2 -37 -42 -61v-41 q45 5 75 5q92 0 144 -5v42q-100 21 -105 66q-6 152 -6 263h135q58 -8 76 -44h19q-4 23 -4 85q0 55 2 67h-20q-13 -38 -76 -38q-23 0 -33 1l-60 4q-10 1 -35 1v113q0 98 3 122q0 2 61 4l61 3q47 0 80 -13t40 -32h23q0 6 -2.5 39.5t-2.5 42.5q0 36 -72 36q-16 0 -99 -6 q-24 -2 -76 -2zM698 -75q-35 0 -83 -5v35h241v-35q-58 5 -158 5zM707 689q0 -1 -0.5 -5t-0.5 -9h174q-31 14 -73 14q-11 0 -27 -2h-34q-21 0 -39 2zM965 280q-14 24 -37 35h55q2 -31 3 -35h-21zM117 -20q14 16 18 25h-9q-27 0 -99 -8v104q41 26 43 38q0 18 0.5 49t0.5 44 q1 18 1 49v127q0 136 -6 268q0 22 -54 55l-6 103h41q84 -8 99 -8h44q44 0 65 2l20 2q43 4 79 4q46 0 71 -15.5t25 -56.5q0 -14 2 -27h51q5 -8 5 -19v-16h-54q2 -18 2 -25h54q0 -7 1 -18.5t1 -16.5h-56l-4 4h-57q-6 11 -18 22h-155q0 -2 -0.5 -5t-1 -9t-0.5 -12h-33v-25h33 q-1 -10 -1 -35h-32v-25h32v-38q26 -2 40 -2q10 -1 32 -1q49 0 61 37h69q-12 -53 -12 -103v-13h55q0 -4 -0.5 -15.5t-0.5 -19.5h-52q0 -7 2 -25l50 -3v-32h-45q1 -5 3 -13h-62q-7 12 -8 13h-168l1 -25h31v-35h-30v-25h31v-35h-30q1 -9 1 -25h30v-35h-29q0 -9 1 -12 q3 -17 105 -38v-112q-14 1 -52 3q14 -11 41 -21h-166zM179 790h-33q-33 0 -100 8l-14 2l2 -43q52 -33 56 -78q6 -132 6 -271v-127q-2 -64 -3 -143q-2 -37 -42 -61v-41q45 5 75 5q92 0 144 -5v42q-100 21 -105 66q-6 152 -6 263h135q58 -8 76 -44h19q-4 23 -4 85q0 55 2 67 h-20q-13 -38 -76 -38q-23 0 -33 1l-60 4q-10 1 -35 1v113q0 98 3 122q0 2 61 4l61 3q47 0 80 -13t40 -32h23q0 6 -2.5 39.5t-2.5 42.5q0 36 -72 36q-16 0 -99 -6q-24 -2 -76 -2zM179 -75q-35 0 -83 -5v35h241v-35q-58 5 -158 5zM188 689q0 -1 -0.5 -5t-0.5 -9h174 q-31 14 -73 14q-11 0 -27 -2h-34q-21 0 -39 2zM446 280q-14 24 -37 35h55q2 -31 3 -35h-21z" />
<glyph unicode="&#xfb04;" horiz-adv-x="1572" d="M1566 73q-3 -13 -7 -35h-94q-13 -24 -14 -25h102q-3 -13 -11 -35h-405q12 12 21 27q-32 -1 -114 -10l15 110q16 10 32.5 31t17.5 33v234q0 138 -6 267q0 32 -42 65v100l9 -1q75 -7 93 -7q14 0 86 4q32 2 61 2v-100h40v-22q-25 -6 -43 -13h-66q-14 -13 -16 -25h50 q-12 -15 -17 -35h-34v-25h32v-35h-33v-25h32v-35h-32v-25h31v-35h-31v-25h31v-35h-31v-25h31v-35h-31v-25h31v-35h-31q1 -9 1 -25h30v-35h-29l1 -25h28l2 -35h-21q19 -16 73 -16q33 0 54 3.5t44.5 21.5t35.5 52h73q-17 -95 -35 -146h86zM1164 42q19 0 60.5 -3.5t74.5 -3.5 q45 0 135 4q33 41 50 143h-29q-9 -26 -24 -42t-37 -23t-40 -9t-46 -2q-101 0 -105 64q-4 84 -4 223q0 55 0.5 150t0.5 126q3 35 20 56.5t66 31.5v39q-105 -5 -123 -5q-38 0 -79 5v-38q41 -33 43 -85q4 -118 4 -184v-320q0 -21 -17 -50.5t-34 -40.5l-6 -43l7 1q56 6 83 6z M1216 -74q-33 0 -99 -8l4 35h410q-12 -22 -19 -30q-122 -5 -148 -5h-19q-29 0 -69.5 4t-59.5 4zM636 -20q14 16 18 25h-9q-27 0 -99 -8v104q41 26 43 38q0 18 0.5 49t0.5 44q1 18 1 49v127q0 136 -6 268q0 22 -54 55l-6 103h41q84 -8 99 -8h44q44 0 65 2l20 2q43 4 79 4 q46 0 71 -15.5t25 -56.5q0 -14 2 -27h51q5 -8 5 -19v-16h-54q2 -18 2 -25h54q0 -7 1 -18.5t1 -16.5h-56l-4 4h-57q-6 11 -18 22h-155q0 -2 -0.5 -5t-1 -9t-0.5 -12h-33v-25h33q-1 -10 -1 -35h-32v-25h32v-38q26 -2 40 -2q10 -1 32 -1q49 0 61 37h69q-12 -53 -12 -103v-13h55 q0 -4 -0.5 -15.5t-0.5 -19.5h-52q0 -7 2 -25l50 -3v-32h-45q1 -5 3 -13h-62q-7 12 -8 13h-168l1 -25h31v-35h-30v-25h31v-35h-30q1 -9 1 -25h30v-35h-29q0 -9 1 -12q3 -17 105 -38v-112q-14 1 -52 3q14 -11 41 -21h-166zM698 790h-33q-33 0 -100 8l-14 2l2 -43 q52 -33 56 -78q6 -132 6 -271v-127q-2 -64 -3 -143q-2 -37 -42 -61v-41q45 5 75 5q92 0 144 -5v42q-100 21 -105 66q-6 152 -6 263h135q58 -8 76 -44h19q-4 23 -4 85q0 55 2 67h-20q-13 -38 -76 -38q-23 0 -33 1l-60 4q-10 1 -35 1v113q0 98 3 122q0 2 61 4l61 3 q47 0 80 -13t40 -32h23q0 6 -2.5 39.5t-2.5 42.5q0 36 -72 36q-16 0 -99 -6q-24 -2 -76 -2zM698 -75q-35 0 -83 -5v35h241v-35q-58 5 -158 5zM707 689q0 -1 -0.5 -5t-0.5 -9h174q-31 14 -73 14q-11 0 -27 -2h-34q-21 0 -39 2zM965 280q-14 24 -37 35h55q2 -31 3 -35h-21z M117 -20q14 16 18 25h-9q-27 0 -99 -8v104q41 26 43 38q0 18 0.5 49t0.5 44q1 18 1 49v127q0 136 -6 268q0 22 -54 55l-6 103h41q84 -8 99 -8h44q44 0 65 2l20 2q43 4 79 4q46 0 71 -15.5t25 -56.5q0 -14 2 -27h51q5 -8 5 -19v-16h-54q2 -18 2 -25h54q0 -7 1 -18.5t1 -16.5 h-56l-4 4h-57q-6 11 -18 22h-155q0 -2 -0.5 -5t-1 -9t-0.5 -12h-33v-25h33q-1 -10 -1 -35h-32v-25h32v-38q26 -2 40 -2q10 -1 32 -1q49 0 61 37h69q-12 -53 -12 -103v-13h55q0 -4 -0.5 -15.5t-0.5 -19.5h-52q0 -7 2 -25l50 -3v-32h-45q1 -5 3 -13h-62q-7 12 -8 13h-168 l1 -25h31v-35h-30v-25h31v-35h-30q1 -9 1 -25h30v-35h-29q0 -9 1 -12q3 -17 105 -38v-112q-14 1 -52 3q14 -11 41 -21h-166zM179 790h-33q-33 0 -100 8l-14 2l2 -43q52 -33 56 -78q6 -132 6 -271v-127q-2 -64 -3 -143q-2 -37 -42 -61v-41q45 5 75 5q92 0 144 -5v42 q-100 21 -105 66q-6 152 -6 263h135q58 -8 76 -44h19q-4 23 -4 85q0 55 2 67h-20q-13 -38 -76 -38q-23 0 -33 1l-60 4q-10 1 -35 1v113q0 98 3 122q0 2 61 4l61 3q47 0 80 -13t40 -32h23q0 6 -2.5 39.5t-2.5 42.5q0 36 -72 36q-16 0 -99 -6q-24 -2 -76 -2zM179 -75 q-35 0 -83 -5v35h241v-35q-58 5 -158 5zM188 689q0 -1 -0.5 -5t-0.5 -9h174q-31 14 -73 14q-11 0 -27 -2h-34q-21 0 -39 2zM446 280q-14 24 -37 35h55q2 -31 3 -35h-21z" />
</font>
</defs>
</svg>
