<?xml version="1.0" standalone="no"?>
<!DOCTYPE svg PUBLIC "-//W3C//DTD SVG 1.1//EN" "http://www.w3.org/Graphics/SVG/1.1/DTD/svg11.dtd" >
<svg xmlns="http://www.w3.org/2000/svg">
<metadata>
This is a custom SVG webfont generated by Fontspring.
</metadata>
<defs>
<font id="Veselka4FRegular" horiz-adv-x="1187" >
<font-face units-per-em="2048" ascent="1536" descent="-512" />
<missing-glyph horiz-adv-x="819" />
<glyph unicode=" "  horiz-adv-x="819" />
<glyph unicode="&#x09;" horiz-adv-x="819" />
<glyph unicode="&#xa0;" horiz-adv-x="819" />
<glyph unicode="!" horiz-adv-x="440" d="M61 0v297h11v-297h-11zM61 420v1014h11v-1014h-11zM113 0v297h20v-297h-20zM113 420v1014h20v-1014h-20zM174 0v297h31v-297h-31zM174 420v1014h31v-1014h-31zM246 0v297h41v-297h-41zM246 420v1014h41v-1014h-41zM328 0v297h51v-297h-51zM328 420v1014h51v-1014h-51z " />
<glyph unicode="+" horiz-adv-x="808" d="M61 451v51h318v317h51v-317h318v-51h-318v-318h-51v318h-318z" />
<glyph unicode="," horiz-adv-x="593" d="M0 10q127 0 217 90t90 217h41q0 -145 -102.5 -246.5t-245.5 -101.5v41zM0 51v51q90 0 152.5 63.5t62.5 151.5h51q0 -111 -77.5 -188.5t-188.5 -77.5zM0 -72q162 0 275.5 114t113.5 275h31q0 -174 -123 -296.5t-297 -122.5v30zM0 -143q190 0 325.5 135t135.5 325h20 q0 -199 -140 -340t-341 -141v21zM0 -205q217 0 369.5 152.5t152.5 369.5h10q0 -221 -155.5 -376.5t-376.5 -155.5v10z" />
<glyph unicode="-" horiz-adv-x="604" d="M61 451v51h482v-51h-482z" />
<glyph unicode="." horiz-adv-x="440" d="M61 0v317h52v-317h-52zM154 0v317h41v-317h-41zM236 0v317h30v-317h-30zM307 0v317h21v-317h-21zM369 0v317h10v-317h-10z" />
<glyph unicode="/" horiz-adv-x="964" d="M10 0l582 1004h59l-581 -1004h-60zM117 0l579 1004h47l-579 -1004h-47zM211 0l580 1004h34l-579 -1004h-35zM293 0l579 1004h25l-582 -1004h-22zM362 0l580 1004h12l-579 -1004h-13z" />
<glyph unicode="0" d="M61 502q0 221 156 376.5t377 155.5t376.5 -155.5t155.5 -376.5t-155.5 -377t-376.5 -156t-377 156t-156 377zM72 502q0 -217 152.5 -369.5t369.5 -152.5t369.5 152.5t152.5 369.5t-152.5 369.5t-369.5 152.5t-369.5 -152.5t-152.5 -369.5zM113 501.5q0 198.5 140 340 t341 141.5t341 -141.5t140 -340t-140 -340t-341 -141.5t-341 141.5t-140 340zM133 501.5q0 -190.5 135 -325.5t325.5 -135t326 135t135.5 325.5t-135.5 326t-326 135.5t-325.5 -135.5t-135 -326zM174 502q0 174 123 297t297 123t297 -123t123 -297t-123 -297t-297 -123 t-297 123t-123 297zM205 502q0 -162 113.5 -275.5t275.5 -113.5t275.5 113.5t113.5 275.5t-113.5 275.5t-275.5 113.5t-275.5 -113.5t-113.5 -275.5zM246 501.5q0 145.5 102.5 247t245.5 101.5t245.5 -101.5t102.5 -247t-102.5 -246.5t-245.5 -101t-245.5 101t-102.5 246.5z M287 502q0 -127 90 -217t217 -90t217 90t90 217t-90 217t-217 90t-217 -90t-90 -217zM328 501.5q0 110.5 77.5 188.5t188.5 78t188.5 -78t77.5 -188.5t-77.5 -188t-188.5 -77.5t-188.5 77.5t-77.5 188zM379 502q0 -61 31 -111l295 295q-55 31 -111 31q-90 0 -152.5 -63.5 t-62.5 -151.5zM440 348q61 -61 154 -61q90 0 152.5 63.5t62.5 151.5t-64 151z" />
<glyph unicode="1" horiz-adv-x="591" d="M10 369v59l256 147v-575h-51v487zM10 473v47l338 197v-717h-41v647zM10 567v37l410 238v-842h-31v788zM10 651v23l469 272v-946h-20v911zM10 721v10l520 303v-1034h-10v1018z" />
<glyph unicode="2" horiz-adv-x="1011" d="M41 879q156 156 377 155.5t376.5 -156t155.5 -376.5h-10q0 217 -152.5 369.5t-369.5 152.5q-215 0 -369 -154zM78 842q141 141 340 141q201 0 341 -141.5t140 -339.5h-20q0 190 -135.5 325.5t-326 135.5t-325.5 -136zM94 0v10h856v-10h-856zM94 51v21h856v-21h-856z M94 113v30h856v-30h-856zM94 184v41h856v-41h-856zM94 266q2 109 80 185.5t186 76.5h271q-10 80 -70.5 134.5t-142.5 54.5q-84 0 -152 -64l-37 37q82 78 189 78q111 0 188.5 -78t77.5 -188v-25h-324q-74 0 -132 -45t-74 -115h796v-51h-856zM121 799q123 123 297 123 t297 -123t123 -297h-31q0 162 -113.5 275.5t-275.5 113.5q-160 0 -275 -115zM172 748q102 102 245.5 102t246 -101.5t102.5 -246.5h-41q0 127 -90 217t-217 90q-123 0 -217 -90z" />
<glyph unicode="3" horiz-adv-x="1011" d="M41 125l8 8q154 -154 369 -153q217 0 369.5 152.5t152.5 369.5h10q0 -221 -155.5 -377t-376.5 -156t-377 156zM78 162l14 14q135 -135 325.5 -135t326 135t135.5 326h20q0 -199 -140.5 -340.5t-340.5 -141.5q-199 1 -340 142zM78 686v51h733v-51l-254 -160h127v-24 q0 -111 -78 -188.5t-188 -77.5q-106 0 -189 77l37 37q68 -63 152 -63q82 0 142.5 54t70.5 134h-166v51l252 160h-639zM78 778v41h733v-41h-733zM78 860v31h733v-31h-733zM78 932v20h733v-20h-733zM78 993v11h733v-11h-733zM121 205l22 22q115 -115 275 -114 q162 0 275.5 113.5t113.5 275.5h31q0 -174 -123 -297t-297 -123t-297 123zM172 256l29 29q94 -90 217 -90q127 0 217 90t90 217h41q0 -145 -102.5 -246.5t-246 -101.5t-245.5 102z" />
<glyph unicode="4" horiz-adv-x="1126" d="M23 317l8 11h1034v-11h-125v-317h-51v317h-41v-317h-41v317h-41v-317h-31v317h-41v-317h-20v317h-41v-317h-10v317h-600zM53 369l15 20h997v-20h-1012zM96 430l23 31h946v-31h-969zM147 502l29 41h889v-41h-918zM205 584l295 420h61l-258 -369h49l258 369h52l-259 -369 h50l258 369h37l-259 -369h52l258 369h24l-258 -369h51l258 369h11l-258 -369h438v-51h-860z" />
<glyph unicode="5" horiz-adv-x="1011" d="M41 125l8 8q154 -154 369 -153q217 0 369.5 152.5t152.5 369.5h10q0 -221 -155.5 -377t-376.5 -156t-377 156zM78 162l14 14q135 -135 325.5 -135t326 135t135.5 326h20q0 -199 -140.5 -340.5t-340.5 -141.5q-199 1 -340 142zM121 205l22 22q115 -115 275 -114 q162 0 275.5 113.5t113.5 275.5h31q0 -174 -123 -297t-297 -123t-297 123zM135 475v262h774v-51h-723v-160h498v-24q0 -111 -78 -188.5t-188 -77.5q-106 0 -189 77l37 37q68 -63 152 -63q82 0 142.5 54t70.5 134h-496zM135 778v41h774v-41h-774zM135 860v31h774v-31h-774z M135 932v20h774v-20h-774zM135 993v11h774v-11h-774zM172 256l29 29q94 -90 217 -90q127 0 217 90t90 217h41q0 -145 -102.5 -246.5t-246 -101.5t-245.5 102z" />
<glyph unicode="6" d="M61 502q0 221 156 376.5t377 155.5t377 -155l-8 -9q-154 154 -369 154q-217 0 -369.5 -152.5t-152.5 -369.5t152.5 -368.5t369.5 -151.5t369.5 151.5t152.5 368.5h10q0 -221 -155.5 -377t-376.5 -156t-377 156t-156 377zM113 501.5q0 198.5 140 340t341 141.5 q199 0 340 -141l-14 -15q-135 135 -326 135.5t-326 -135t-135 -326t135 -325.5t325.5 -135t326 135t135.5 326h20q0 -199 -140 -339t-341 -140t-341 140t-140 338.5zM174 502q0 174 123 297t297 123t297 -123l-23 -23q-115 115 -274 115q-162 0 -275.5 -113.5t-113.5 -275.5 t113.5 -274.5t275.5 -112.5t275.5 112.5t113.5 274.5h31q0 -174 -123 -297t-297 -123t-297 123t-123 297zM246 502q0 145 102.5 246.5t245.5 101.5t246 -102l-29 -29q-94 90 -217 90q-127 0 -217 -90t-90 -217t90 -217t217 -90t217 90t90 217h41q0 -143 -101.5 -244.5 t-246.5 -101.5t-246.5 101.5t-101.5 244.5zM328 501.5q0 110.5 77.5 188.5t188.5 78q106 0 188 -78l-37 -37q-68 63 -151 64q-90 0 -152.5 -63.5t-62.5 -151.5h481q0 -111 -77.5 -188.5t-188.5 -77.5t-188.5 77.5t-77.5 188zM385 451q16 -72 74.5 -117t134.5 -45 q74 0 132 45t77 117h-418z" />
<glyph unicode="7" horiz-adv-x="1013" d="M10 686v51h840l-426 -737h-12l395 686h-45l-397 -686h-23l395 686h-47l-395 -686h-35l395 686h-47l-395 -686h-47l395 686h-45l-397 -686h-60l398 686h-447zM10 778v41h887l-25 -41h-862zM10 860v31h928l-18 -31h-910zM10 932v20h963l-12 -20h-951zM10 993v11h994l-7 -11 h-987z" />
<glyph unicode="8" d="M61 0v133q0 217 154 375q-154 158 -154 373v123h11v-123q0 -217 152.5 -370t369.5 -153t369.5 153t152.5 370v123h10v-123q0 -215 -153 -373q154 -158 153 -375v-133h-10v133q0 213 -149 367l-31 -27q139 -143 139 -340v-133h-20v133q0 190 -135 326q-31 -20 -35 -23 q129 -125 129 -303v-133h-31v133q0 170 -125 285l-39 -19q123 -102 123 -266v-133h-41v133q0 154 -125 248q-33 -12 -51 -16q61 -35 98 -96.5t37 -135.5v-133h-532v133q0 74 36.5 135.5t98.5 96.5q-18 4 -51 16q-125 -94 -125 -248v-133h-41v133q0 164 123 266l-39 19 q-125 -115 -125 -285v-133h-31v133q0 178 129 303q-4 2 -35 23q-135 -135 -135 -326v-133h-20v133q0 197 139 340l-31 27q-150 -154 -149 -367v-133h-11zM113 881v123h20v-123q0 -190 135 -325.5t325.5 -135.5t326 135t135.5 326v123h20v-123q0 -201 -140 -341.5 t-341 -140.5t-341 140.5t-140 341.5zM174 881v123h31v-123q0 -162 113.5 -275.5t275.5 -113.5t275.5 113.5t113.5 275.5v123h31v-123q0 -174 -123 -297t-297 -123t-297 123t-123 297zM246 881v123h41v-123q0 -127 90 -217.5t217 -90.5t217 90.5t90 217.5v123h41v-123 q0 -143 -102.5 -246t-245.5 -103t-245.5 103t-102.5 246zM328 881v123h532v-123q0 -111 -77.5 -189t-188.5 -78t-188.5 78t-77.5 189zM379 49h430v84q0 88 -60.5 149.5t-146.5 65.5h-16q-86 -4 -146.5 -65.5t-60.5 -149.5v-84zM379 881q0 -90 62.5 -152.5t152.5 -62.5 t152.5 62.5t62.5 152.5v73h-430v-73z" />
<glyph unicode="9" d="M61 502q0 221 156 376.5t377 155.5t376.5 -155.5t155.5 -376.5t-155.5 -377t-376.5 -156t-377 156l8 8q154 -154 369 -153q217 0 369.5 152.5t152.5 369.5t-152.5 368.5t-369.5 151.5t-369.5 -151.5t-152.5 -368.5h-11zM113 502q0 199 140 339t341 140t341 -140.5 t140 -339t-140 -340t-341 -141.5q-199 0 -340 142l14 14q135 -135 325.5 -135t326 135t135.5 325.5t-135.5 326t-326 135.5t-325.5 -135.5t-135 -325.5h-20zM174 502q0 174 123 297t297 123t297 -123t123 -297t-123 -297t-297 -123t-297 123l22 22q115 -115 275 -114 q162 0 275.5 113.5t113.5 275.5t-113.5 274.5t-275.5 112.5t-275.5 -112.5t-113.5 -274.5h-31zM246 502q0 143 101.5 244.5t246.5 101.5t246.5 -101.5t101.5 -244.5q0 -145 -102.5 -246.5t-245.5 -101.5t-246 102l29 29q94 -90 217 -90q127 0 217 90t90 217t-90 217t-217 90 t-217 -90t-90 -217h-41zM328 502q0 111 77.5 188.5t188.5 77.5t188.5 -78t77.5 -188.5t-77.5 -188t-188.5 -77.5q-106 0 -188 77l36 37q68 -63 152 -63q90 0 152.5 63.5t62.5 151.5h-481zM385 553h418q-16 72 -74.5 117t-134.5 45q-74 0 -132.5 -45t-76.5 -117z" />
<glyph unicode=":" horiz-adv-x="440" d="M61 0v317h52v-317h-52zM61 481v318h52v-318h-52zM154 0v317h41v-317h-41zM154 481v318h41v-318h-41zM236 0v317h30v-317h-30zM236 481v318h30v-318h-30zM307 0v317h21v-317h-21zM307 481v318h21v-318h-21zM369 0v317h10v-317h-10zM369 481v318h10v-318h-10z" />
<glyph unicode=";" horiz-adv-x="440" d="M-154 10q127 0 217.5 90t90.5 217h41q0 -145 -101.5 -246.5t-247.5 -101.5v41zM-154 51v51q88 0 151.5 63.5t63.5 151.5h52q0 -111 -78 -188.5t-189 -77.5zM-154 -72q162 0 276 114t114 275h30q0 -174 -123 -296.5t-297 -122.5v30zM-154 -143q190 0 325.5 135t135.5 325 h21q0 -199 -141.5 -340t-340.5 -141v21zM-154 -205q217 0 370 152.5t153 369.5h10q0 -221 -155.5 -376.5t-377.5 -155.5v10zM61 481v318h52v-318h-52zM154 481v318h41v-318h-41zM236 481v318h30v-318h-30zM307 481v318h21v-318h-21zM369 481v318h10v-318h-10z" />
<glyph unicode="&#x3c;" horiz-adv-x="1056" d="M61 502l709 708l8 -6l-702 -702l702 -703l-8 -6zM133 502l674 674l14 -15l-659 -659l659 -660l-14 -14zM219 502l631 631l20 -23l-606 -608l606 -608l-20 -23zM322 502l579 579l29 -28l-551 -551l551 -551l-29 -29zM436 502l522 522l37 -37l-485 -485l485 -486l-37 -36z " />
<glyph unicode="=" horiz-adv-x="808" d="M61 369v51h687v-51h-687zM61 532v52h687v-52h-687z" />
<glyph unicode="&#x3e;" horiz-adv-x="1056" d="M61 16l486 486l-486 485l37 37l523 -522l-523 -522zM127 -49l551 551l-551 551l29 28l579 -579l-579 -580zM186 -106l607 608l-607 608l21 23l631 -631l-631 -631zM236 -158l659 660l-659 659l14 15l674 -674l-674 -674zM279 -201l702 703l-702 702l8 6l708 -708 l-708 -709z" />
<glyph unicode="A" d="M61 0v502q0 221 156 376.5t377 155.5t376.5 -155.5t155.5 -376.5v-502h-10v502q0 217 -152.5 369.5t-369.5 152.5t-369.5 -152.5t-152.5 -369.5v-502h-11zM113 0v502q0 199 140 340t341 141t341 -141.5t140 -339.5v-502h-20v502q0 190 -135.5 325.5t-326 135.5 t-325.5 -135.5t-135 -325.5v-502h-20zM174 0v502q0 174 123 297t297 123t297 -123t123 -297v-502h-31v502q0 162 -113.5 275.5t-275.5 113.5t-275.5 -113.5t-113.5 -275.5v-502h-31zM246 0v502q0 145 102.5 246.5t245.5 101.5t245.5 -101.5t102.5 -246.5v-502h-41v502 q0 127 -90 217t-217 90t-217 -90t-90 -217v-502h-41zM328 0v502q0 111 77.5 188.5t188.5 77.5t188.5 -78t77.5 -188v-502h-51v123h-430v-123h-51zM379 133h430v41h-430v-41zM379 195h430v41h-430v-41zM379 266h430v41h-430v-41zM379 348h430v41h-430v-41zM379 440h430v62 q0 88 -62.5 151.5t-152.5 63.5t-152.5 -63.5t-62.5 -151.5v-62z" />
<glyph unicode="B" horiz-adv-x="1064" d="M61 0v1004h11v-1004h-11zM113 0v1004h20v-1004h-20zM174 0v1004h31v-1004h-31zM246 0v1004h41v-1004h-41zM328 0v1004h409v-134q0 -74 -36.5 -135t-98.5 -96q18 -4 51 -16q125 94 125 247v134h41v-134q0 -164 -123 -266l39 -18q125 115 125 284v134h31v-134 q0 -178 -129 -303q4 -2 35 -22q135 135 135 325v134h20v-134q0 -197 -139 -340l31 -26q150 154 149 366v134h11v-134q0 -217 -154 -374q154 -158 154 -373v-123h-11v123q0 217 -152.5 369.5t-369.5 152.5h-92v-41h92q201 0 341 -140t140 -341v-123h-20v123q0 190 -135 325.5 t-326 135.5h-92v-41h92q174 0 297 -123t123 -297v-123h-31v123q0 162 -113.5 275.5t-275.5 113.5h-92v-41h92q143 0 245.5 -102.5t102.5 -245.5v-123h-41v123q0 127 -90 217t-217 90h-92v-41h92q111 0 188.5 -78t77.5 -188v-123h-409zM379 49h307v74q0 90 -62.5 152.5 t-152.5 62.5h-92v-289zM379 655h100q86 4 146.5 65.5t60.5 149.5v84h-307v-299z" />
<glyph unicode="C" horiz-adv-x="1032" d="M61 502q0 221 156 376.5t377 155.5t377 -155l-8 -9q-154 154 -369 154q-217 0 -369.5 -152.5t-152.5 -369.5t152.5 -368.5t369.5 -151.5q215 0 369 153l8 -8q-158 -158 -377 -158q-221 0 -377 156t-156 377zM113 501.5q0 198.5 140 340t341 141.5q199 0 340 -141l-14 -15 q-135 135 -326 135.5t-326 -135t-135 -326t135 -325.5t326 -135q188 0 326 137l14 -14q-141 -141 -340 -141q-201 0 -341 140t-140 338.5zM174 502q0 174 123 297t297 123t297 -123l-23 -23q-115 115 -274 115q-162 0 -275.5 -113.5t-113.5 -275.5t113.5 -274.5 t275.5 -112.5t274 114l23 -22q-125 -125 -297 -125q-174 0 -297 123t-123 297zM246 502q0 145 102.5 246.5t245.5 101.5t246 -102l-29 -29q-94 90 -217 90q-127 0 -217 -90t-90 -217t90 -217t217 -90q125 0 217 92l29 -29q-100 -102 -245.5 -102t-247 101.5t-101.5 244.5z M328 501.5q0 110.5 77.5 188.5t188.5 78q106 0 188 -78l-37 -37q-68 63 -151 64q-90 0 -152.5 -63.5t-62.5 -151.5t62.5 -150.5t152.5 -62.5q88 0 151 63l37 -37q-80 -80 -188 -79q-111 0 -188.5 77.5t-77.5 188z" />
<glyph unicode="D" d="M61 0v502q0 221 156 376.5t377 155.5t376.5 -155.5t155.5 -376.5t-155.5 -377t-376.5 -156q-113 0 -215 45v-14h-51v502q0 111 77.5 188.5t188.5 77.5t188.5 -78t77.5 -188.5t-77.5 -188t-188.5 -77.5q-135 0 -215 108v-61q88 -88 215 -88t217 90t90 217t-90 217t-217 90 t-217 -90t-90 -217v-502h-41v502q0 145 102.5 246.5t245.5 101.5t245.5 -101.5t102.5 -247t-102.5 -246.5t-245.5 -101q-123 0 -215 73v-51q96 -63 215 -63q162 0 275.5 113.5t113.5 275.5t-113.5 275.5t-275.5 113.5t-275.5 -113.5t-113.5 -275.5v-502h-31v502 q0 174 123 297t297 123t297 -123t123 -297t-123 -297t-297 -123q-119 0 -215 59v-47q100 -53 215 -53q190 0 325.5 135t135.5 325.5t-135.5 326t-326 135.5t-325.5 -135.5t-135 -325.5v-502h-20v502q0 199 140 340t341 141t341 -141.5t140 -340t-140 -340t-341 -141.5 q-117 0 -215 50v-45q102 -45 215 -45q217 0 369.5 152.5t152.5 369.5t-152.5 369.5t-369.5 152.5t-369.5 -152.5t-152.5 -369.5v-502h-11zM379 502q0 -88 62.5 -151.5t152.5 -63.5t152.5 63.5t62.5 151.5t-62.5 151.5t-152.5 63.5t-152.5 -63.5t-62.5 -151.5z" />
<glyph unicode="E" horiz-adv-x="1032" d="M61 502q0 221 156 376.5t377 155.5t377 -155l-8 -9q-154 154 -369 154q-217 0 -369.5 -152.5t-152.5 -369.5t152.5 -368.5t369.5 -151.5q215 0 369 153l8 -8q-158 -158 -377 -158q-221 0 -377 156t-156 377zM113 501.5q0 198.5 140 340t341 141.5q199 0 340 -141l-14 -15 q-135 135 -326 135.5t-326 -135t-135 -326t135 -325.5t326 -135q188 0 326 137l14 -14q-141 -141 -340 -141q-201 0 -341 140t-140 338.5zM174 502q0 174 123 297t297 123t297 -123l-23 -23q-115 115 -274 115q-162 0 -275.5 -113.5t-113.5 -275.5t113.5 -274.5 t275.5 -112.5t274 114l23 -22q-125 -125 -297 -125q-174 0 -297 123t-123 297zM246 502q0 145 102.5 246.5t245.5 101.5t246 -102l-29 -29q-94 90 -217 90q-127 0 -217 -90t-90 -217t90 -217t217 -90q125 0 217 92l29 -29q-100 -102 -245.5 -102t-247 101.5t-101.5 244.5z M328 501.5q0 110.5 77.5 188.5t188.5 78q106 0 188 -78l-340 -340q61 -61 152 -61q88 0 151 63l37 -37q-80 -80 -188 -79q-111 0 -188.5 77.5t-77.5 188zM379 502q0 -63 31 -111l292 293q-53 33 -108 33q-90 0 -152.5 -63.5t-62.5 -151.5z" />
<glyph unicode="F" horiz-adv-x="655" d="M61 0v502q0 221 156 376.5t377 155.5v-10q-217 0 -369.5 -152.5t-152.5 -369.5v-502h-11zM113 0v502q0 199 140 340t341 141v-20q-190 0 -325.5 -135.5t-135.5 -325.5v-502h-20zM174 0v502q0 174 123 297t297 123v-31q-162 0 -275.5 -113.5t-113.5 -275.5v-502h-31z M246 0v502q0 145 102.5 246.5t245.5 101.5v-41q-127 0 -217 -90t-90 -217v-502h-41zM328 0v502q0 111 77.5 188.5t188.5 77.5v-51q-90 0 -152.5 -63.5t-62.5 -151.5v-502h-51zM379 184v11h215v-11h-215zM379 236v20h215v-20h-215zM379 297v31h215v-31h-215zM379 369v41h215 v-41h-215zM379 451v51h215v-51h-215z" />
<glyph unicode="G" d="M61 502q0 221 156 376.5t377 155.5t377 -155l-8 -9q-154 154 -369 154q-217 0 -369.5 -152.5t-152.5 -369.5t152.5 -368.5t369.5 -151.5t369.5 151.5t152.5 368.5h10q0 -221 -155.5 -377t-376.5 -156t-377 156t-156 377zM113 501.5q0 198.5 140 340t341 141.5 q199 0 340 -141l-14 -15q-135 135 -326 135.5t-326 -135t-135 -326t135 -325.5t325.5 -135t326 135t135.5 326h20q0 -199 -140 -339t-341 -140t-341 140t-140 338.5zM174 502q0 174 123 297t297 123t297 -123l-23 -23q-115 115 -274 115q-162 0 -275.5 -113.5t-113.5 -275.5 t113.5 -274.5t275.5 -112.5t275.5 112.5t113.5 274.5h31q0 -174 -123 -297t-297 -123t-297 123t-123 297zM246 502q0 145 102.5 246.5t245.5 101.5t246 -102l-29 -29q-94 90 -217 90q-127 0 -217 -90t-90 -217t90 -217t217 -90t217 90t90 217h41q0 -143 -101.5 -244.5 t-246.5 -101.5t-246.5 101.5t-101.5 244.5zM328 501.5q0 110.5 77.5 188.5t188.5 78q106 0 188 -78l-37 -37q-68 63 -151 64q-90 0 -152.5 -63.5t-62.5 -151.5t62.5 -150.5t152.5 -62.5q76 0 134 46t75 118h-209v49h266q0 -111 -77.5 -188.5t-188.5 -77.5t-188.5 77.5 t-77.5 188z" />
<glyph unicode="H" horiz-adv-x="1105" d="M61 0v1004h11v-1004h-11zM113 0v1004h20v-1004h-20zM174 0v1004h31v-1004h-31zM246 0v1004h41v-1004h-41zM328 0v1004h51v-349h348v349h51v-1004h-51v338h-348v-338h-51zM379 348h348v41h-348v-41zM379 410h348v41h-348v-41zM379 481h348v41h-348v-41zM379 563h348v41 h-348v-41zM819 0v1004h41v-1004h-41zM901 0v1004h31v-1004h-31zM973 0v1004h20v-1004h-20zM1034 0v1004h10v-1004h-10z" />
<glyph unicode="I" horiz-adv-x="604" d="M61 0v10h482v-10h-482zM61 51v21h482v-21h-482zM61 113v30h482v-30h-482zM61 184v41h482v-41h-482zM61 266v51h82v369h-82v51h482v-51h-82v-369h82v-51h-482zM61 778v41h482v-41h-482zM61 860v31h482v-31h-482zM61 932v20h482v-20h-482zM61 993v11h482v-11h-482zM154 317 h41v369h-41v-369zM215 317h41v369h-41v-369zM287 317h41v369h-41v-369zM369 317h41v369h-41v-369z" />
<glyph unicode="J" d="M61 502h11q0 -217 152.5 -369.5t369.5 -152.5t369.5 152.5t152.5 369.5v502h10v-502q0 -221 -155.5 -377t-376.5 -156t-377 156t-156 377zM113 502h20q0 -190 135 -325.5t325.5 -135.5t326 135t135.5 326v502h20v-502q0 -199 -140 -340.5t-341 -141.5t-341 141.5 t-140 340.5zM174 502h31q0 -162 113.5 -275.5t275.5 -113.5t275.5 113.5t113.5 275.5v502h31v-502q0 -174 -123 -297t-297 -123t-297 123t-123 297zM246 502h41q0 -127 90 -217t217 -90t217 90t90 217v502h41v-502q0 -145 -102.5 -246.5t-245.5 -101.5t-245.5 101.5 t-102.5 246.5zM328 502h51q0 -88 62.5 -151.5t152.5 -63.5t152.5 63.5t62.5 151.5v184h-215v10h215v41h-215v21h215v41h-215v30h215v41h-215v41h215v41h-215v52h266v-502q0 -111 -77.5 -188.5t-188.5 -77.5t-188.5 77.5t-77.5 188.5z" />
<glyph unicode="K" horiz-adv-x="1064" d="M61 0v1004h11v-1004h-11zM113 0v1004h20v-1004h-20zM174 0v1004h31v-1004h-31zM246 0v1004h41v-1004h-41zM328 0v1004h51v-349h92h8q86 4 146.5 65.5t60.5 149.5v134h51v-134q0 -74 -36.5 -135t-98.5 -96q18 -4 51 -16q125 94 125 247v134h41v-134q0 -164 -123 -266 l39 -18q125 115 125 284v134h31v-134q0 -178 -129 -303q4 -2 35 -22q135 135 135 325v134h20v-134q0 -197 -139 -340l31 -26q150 154 149 366v134h11v-134q0 -217 -154 -374q154 -158 154 -373v-123h-11v123q0 217 -152.5 369.5t-369.5 152.5h-92v-41h92q201 0 341 -140 t140 -341v-123h-20v123q0 190 -135 325.5t-326 135.5h-92v-41h92q174 0 297 -123t123 -297v-123h-31v123q0 162 -113.5 275.5t-275.5 113.5h-92v-41h92q143 0 245.5 -102.5t102.5 -245.5v-123h-41v123q0 127 -90 217t-217 90h-92v-41h92q111 0 188.5 -78t77.5 -188v-123h-51 v123q0 90 -62.5 152.5t-152.5 62.5h-92v-338h-51z" />
<glyph unicode="L" horiz-adv-x="829" d="M61 0v10h707v-10h-707zM61 51v21h707v-21h-707zM61 113v30h707v-30h-707zM61 184v41h707v-41h-707zM61 266v738h11v-687h41v687h20v-687h41v687h31v-687h41v687h41v-687h41v687h51v-687h389v-51h-707z" />
<glyph unicode="M" horiz-adv-x="1312" d="M61 0v1004h13l583 -1014l582 1014h12v-1004h-10v985l-41 -72v-913h-20v879l-41 -72v-807h-31v754l-41 -72v-682h-41v610l-41 -71v-539h-51v451l-277 -482l-278 484v-453h-51v541l-41 71v-612h-41v684l-41 72v-756h-31v809l-41 70v-879h-20v915l-41 70v-985h-11zM121 1004 h24l512 -891l512 891h25l-537 -932zM190 1004h35l432 -750l430 750h35l-465 -811zM272 1004h47l338 -586l336 586h47l-383 -668zM367 1004h59l231 -402l232 402h59l-291 -504z" />
<glyph unicode="N" horiz-adv-x="1126" d="M61 0v1042l11 -8v-1034h-11zM113 0v1012l20 -15v-997h-20zM174 0v969l31 -23v-946h-31zM246 0v918l41 -29v-889h-41zM328 0v860l420 -295v439h51v-861l-420 295v-438h-51zM379 449l369 -259v52l-369 258v-51zM379 524l369 -258v51l-369 258v-51zM379 612l369 -258v49 l-369 259v-50zM379 713l369 -258v49l-369 258v-49zM840 115v889h41v-918zM922 57v947h30v-967zM993 8v996h21v-1010zM1055 -31v1035h10v-1043z" />
<glyph unicode="O" d="M61 502q0 221 156 376.5t377 155.5t376.5 -155.5t155.5 -376.5t-155.5 -377t-376.5 -156t-377 156t-156 377zM72 502q0 -217 152.5 -369.5t369.5 -152.5t369.5 152.5t152.5 369.5t-152.5 369.5t-369.5 152.5t-369.5 -152.5t-152.5 -369.5zM113 501.5q0 198.5 140 340 t341 141.5t341 -141.5t140 -340t-140 -340t-341 -141.5t-341 141.5t-140 340zM133 501.5q0 -190.5 135 -325.5t325.5 -135t326 135t135.5 325.5t-135.5 326t-326 135.5t-325.5 -135.5t-135 -326zM174 502q0 174 123 297t297 123t297 -123t123 -297t-123 -297t-297 -123 t-297 123t-123 297zM205 502q0 -162 113.5 -275.5t275.5 -113.5t275.5 113.5t113.5 275.5t-113.5 275.5t-275.5 113.5t-275.5 -113.5t-113.5 -275.5zM246 501.5q0 145.5 102.5 247t245.5 101.5t245.5 -101.5t102.5 -247t-102.5 -246.5t-245.5 -101t-245.5 101t-102.5 246.5z M287 502q0 -127 90 -217t217 -90t217 90t90 217t-90 217t-217 90t-217 -90t-90 -217zM328 501.5q0 110.5 77.5 188.5t188.5 78t188.5 -78t77.5 -188.5t-77.5 -188t-188.5 -77.5t-188.5 77.5t-77.5 188zM379 502q0 -88 62.5 -151.5t152.5 -63.5t152.5 63.5t62.5 151.5 t-62.5 151.5t-152.5 63.5t-152.5 -63.5t-62.5 -151.5z" />
<glyph unicode="P" d="M61 -276v778q0 221 156 376.5t377 155.5t376.5 -155.5t155.5 -376.5t-155.5 -377t-376.5 -156q-113 0 -215 45v-290h-51v778q0 111 77.5 188.5t188.5 77.5t188.5 -78t77.5 -188.5t-77.5 -188t-188.5 -77.5q-135 0 -215 108v-61q88 -88 215 -88t217 90t90 217t-90 217 t-217 90t-217 -90t-90 -217v-778h-41v778q0 145 102.5 246.5t245.5 101.5t245.5 -101.5t102.5 -247t-102.5 -246.5t-245.5 -101q-123 0 -215 73v-51q96 -63 215 -63q162 0 275.5 113.5t113.5 275.5t-113.5 275.5t-275.5 113.5t-275.5 -113.5t-113.5 -275.5v-778h-31v778 q0 174 123 297t297 123t297 -123t123 -297t-123 -297t-297 -123q-119 0 -215 59v-47q100 -53 215 -53q190 0 325.5 135t135.5 325.5t-135.5 326t-326 135.5t-325.5 -135.5t-135 -325.5v-778h-20v778q0 199 140 340t341 141t341 -141.5t140 -340t-140 -340t-341 -141.5 q-117 0 -215 50v-45q102 -45 215 -45q217 0 369.5 152.5t152.5 369.5t-152.5 369.5t-369.5 152.5t-369.5 -152.5t-152.5 -369.5v-778h-11zM379 502q0 -88 62.5 -151.5t152.5 -63.5t152.5 63.5t62.5 151.5t-62.5 151.5t-152.5 63.5t-152.5 -63.5t-62.5 -151.5z" />
<glyph unicode="Q" d="M61 502q0 221 156 376.5t377 155.5t376.5 -155.5t155.5 -376.5v-778h-10v778q0 217 -152.5 369.5t-369.5 152.5t-369.5 -152.5t-152.5 -369.5t152.5 -369.5t369.5 -152.5q113 0 215 45v45q-98 -49 -215 -50q-201 0 -341 141.5t-140 340t140 340t341 141.5t341 -141.5 t140 -339.5v-778h-20v778q0 190 -135.5 325.5t-326 135.5t-325.5 -135.5t-135 -326t135 -325.5t326 -135q115 0 215 53v47q-96 -59 -215 -59q-174 0 -297 123t-123 297t123 297t297 123t297 -123t123 -297v-778h-31v778q0 162 -113.5 275.5t-275.5 113.5t-275.5 -113.5 t-113.5 -275.5t113.5 -275.5t275.5 -113.5q119 0 215 63v51q-92 -74 -215 -73q-143 0 -245.5 101t-102.5 246.5t102.5 247t245.5 101.5t245.5 -101.5t102.5 -246.5v-778h-41v778q0 127 -90 217t-217 90t-217 -90t-90 -217t90 -217t217 -90t215 88v61q-80 -109 -215 -108 q-111 0 -188.5 77.5t-77.5 188t77.5 188.5t188.5 78t188.5 -78t77.5 -188v-778h-51v290q-102 -45 -215 -45q-221 0 -377 156t-156 377zM379 502q0 -88 62.5 -151.5t152.5 -63.5t152.5 63.5t62.5 151.5t-62.5 151.5t-152.5 63.5t-152.5 -63.5t-62.5 -151.5z" />
<glyph unicode="R" d="M61 0v502q0 221 156 376.5t377 155.5t376.5 -155.5t155.5 -376.5q0 -137 -63 -252q63 -117 63 -250h-10q0 217 -152.5 369.5t-369.5 152.5h-215v-20v-21h215q201 0 341 -140t140 -341h-20q0 190 -135.5 325.5t-325.5 135.5h-215v-41h215q174 0 297 -123t123 -297h-31 q0 162 -113.5 275.5t-275.5 113.5h-215v-41h215q143 0 245.5 -102.5t102.5 -245.5h-41q0 127 -90 217t-217 90h-215v-41h215q111 0 188.5 -77.5t77.5 -188.5h-51q0 90 -62.5 152.5t-152.5 62.5h-215v-215h-51v502q0 111 77.5 188.5t188.5 77.5t188.5 -78t77.5 -188 q0 -14 -4 -39q6 -2 39 -25q6 31 6 64q0 127 -90 217t-217 90t-217 -90t-90 -217v-502h-41v502q0 145 102.5 246.5t245.5 101.5t245.5 -101.5t102.5 -246.5q0 -47 -12 -90q18 -12 35 -29q18 59 18 119q0 162 -113.5 275.5t-275.5 113.5t-275.5 -113.5t-113.5 -275.5v-502h-31 v502q0 174 123 297t297 123t297 -123t123 -297q0 -76 -27 -144q4 -4 10 -11l12 -13q5 -6 9 -12q37 90 37 180q0 190 -135.5 325.5t-326 135.5t-325.5 -135.5t-135 -325.5v-502h-20v502q0 199 140 340t341 141t341 -141.5t140 -339.5q0 -102 -43 -199l27 -43q57 111 57 242 q0 217 -152.5 369.5t-369.5 152.5t-369.5 -152.5t-152.5 -369.5v-502h-11zM381 532h213q113 0 215 -45v15q0 88 -62.5 151.5t-152.5 63.5q-82 0 -142.5 -53.5t-70.5 -131.5z" />
<glyph unicode="S" horiz-adv-x="1085" d="M61 502q0 221 156 376.5t377 155.5t377 -155l-8 -9q-154 154 -369 154q-217 0 -369.5 -152.5t-152.5 -369.5h-11zM113 502q0 199 140 340t341 141q199 0 340 -141l-14 -15q-135 135 -326 135.5t-326 -135t-135 -325.5h-20zM115 127l8 8q154 -154 369 -153 q217 0 369.5 151.5t152.5 368.5h10q0 -221 -155.5 -377t-376.5 -156q-219 0 -377 158zM152 164l14 14q137 -137 326 -137q190 0 325 135t135 326h21q0 -199 -140.5 -339t-340.5 -140q-199 0 -340 141zM174 502q0 174 123 297t297 123t297 -123l-23 -23q-115 115 -274 115 q-162 0 -275.5 -113.5t-113.5 -275.5h-31zM195 207l22 22q113 -115 274.5 -114.5t275.5 113t114 274.5h30q0 -174 -122.5 -297t-296.5 -123q-172 0 -297 125zM246 258l28 29q92 -92 218 -92q127 0 217 90t90 217h41q0 -143 -101.5 -244.5t-247 -101.5t-245.5 102zM246 502 q0 145 102.5 246.5t245.5 101.5t246 -102l-29 -29q-94 90 -217 90q-127 0 -217 -90t-90 -217h-41zM303 315l37 37q63 -63 152 -63q82 0 142 54t71 136h-377v23q0 111 77.5 188.5t188.5 77.5q106 0 188 -78l-37 -37q-68 63 -151 64q-82 0 -142.5 -54.5t-70.5 -134.5h377v-26 q0 -111 -78 -188.5t-188 -77.5q-109 -1 -189 79z" />
<glyph unicode="T" horiz-adv-x="849" d="M10 686v51h830v-51h-256v-686h-52v686h-40v-686h-41v686h-41v-686h-31v686h-41v-686h-21v686h-41v-686h-10v686h-256zM10 778v41h830v-41h-830zM10 860v31h830v-31h-830zM10 932v20h830v-20h-830zM10 993v11h830v-11h-830z" />
<glyph unicode="U" d="M61 502v502h11v-502q0 -217 152.5 -369.5t369.5 -152.5t369.5 152.5t152.5 369.5v502h10v-502q0 -221 -155.5 -377t-376.5 -156t-377 156t-156 377zM113 502v502h20v-502q0 -190 135 -325.5t325.5 -135.5t326 135t135.5 326v502h20v-502q0 -199 -140 -340.5t-341 -141.5 t-341 141.5t-140 340.5zM174 502v502h31v-502q0 -162 113.5 -275.5t275.5 -113.5t275.5 113.5t113.5 275.5v502h31v-502q0 -174 -123 -297t-297 -123t-297 123t-123 297zM246 502v502h41v-502q0 -127 90 -217t217 -90t217 90t90 217v502h41v-502q0 -145 -102.5 -246.5 t-245.5 -101.5t-245.5 101.5t-102.5 246.5zM328 502v502h51v-502q0 -88 62.5 -151.5t152.5 -63.5t152.5 63.5t62.5 151.5v502h51v-502q0 -111 -77.5 -188.5t-188.5 -77.5t-188.5 77.5t-77.5 188.5z" />
<glyph unicode="V" horiz-adv-x="1210" d="M10 1004h13l583 -1014l582 1014h12l-594 -1035zM70 1004h24l512 -891l512 891h25l-537 -932zM139 1004h35l432 -750l430 750h35l-465 -811zM221 1004h47l338 -586l336 586h47l-383 -668zM315 1004h60l231 -402l232 402h59l-291 -504z" />
<glyph unicode="W" horiz-adv-x="1671" d="M10 1004h13l583 -1014l406 704l55 -92l231 402h60l-291 -504l-78 135l-24 -41l102 -176l336 586h47l-383 -668l-125 215l-24 -41l149 -256l430 750h35l-465 -811l-166 288l-22 -41l188 -327l512 891h25l-537 -932l-201 348l-24 -41l225 -389l582 1014h12l-594 -1035 l-231 400l-230 -400zM70 1004h24l512 -891l371 643l10 -21l-381 -663zM139 1004h35l432 -750l330 573l16 -30l-346 -604zM221 1004h47l338 -586l283 491l22 -41l-305 -532zM315 1004h60l231 -402l232 402l28 -56l-260 -448z" />
<glyph unicode="X" d="M61 0v123q0 215 154 373q-154 158 -154 374v134h11v-134q0 -213 149 -366l31 26q-139 143 -139 340v134h20v-134q0 -190 135 -325q31 20 35 22q-129 125 -129 303v134h31v-134q0 -170 125 -284l39 18q-123 102 -123 266v134h41v-134q0 -154 125 -247q33 12 51 16 q-61 35 -98 96.5t-37 134.5v134h51v-134q0 -88 60.5 -149.5t146.5 -65.5h16q86 4 146.5 65.5t60.5 149.5v134h51v-134q0 -74 -37 -135t-98 -96q18 -4 51 -16q125 94 125 247v134h41v-134q0 -164 -123 -266l39 -18q125 115 125 284v134h31v-134q0 -178 -129 -303q4 -2 35 -22 q135 135 135 325v134h20v-134q0 -197 -139 -340l31 -26q150 154 149 366v134h10v-134q0 -217 -153 -374q154 -158 153 -373v-123h-10v123q0 217 -152.5 369.5t-369.5 152.5t-369.5 -152.5t-152.5 -369.5v-123h-11zM113 0v123q0 201 140 341t341 140t341 -140t140 -341v-123 h-20v123q0 190 -135.5 325.5t-326 135.5t-325.5 -135.5t-135 -325.5v-123h-20zM174 0v123q0 174 123 297t297 123t297 -123t123 -297v-123h-31v123q0 162 -113.5 275.5t-275.5 113.5t-275.5 -113.5t-113.5 -275.5v-123h-31zM246 0v123q0 143 102.5 245.5t245.5 102.5 t245.5 -102.5t102.5 -245.5v-123h-41v123q0 127 -90 217t-217 90t-217 -90t-90 -217v-123h-41zM328 0v123q0 111 77.5 188.5t188.5 77.5t188.5 -78t77.5 -188v-123h-51v123q0 90 -62.5 152.5t-152.5 62.5t-152.5 -62.5t-62.5 -152.5v-123h-51z" />
<glyph unicode="Y" d="M61 911v93h11v-93q0 -217 152.5 -369.5t369.5 -152.5t369.5 152.5t152.5 369.5v93h10v-93q0 -178 -104 -318t-268 -192v-401h-52v389l-40 -6v-383h-41v379h-27h-14v-379h-31v381q-16 0 -41 4v-385h-21v389l-41 10v-399h-10v401q-164 51 -269.5 191.5t-105.5 318.5z M113 911v93h20v-93q0 -190 135 -325t325.5 -135t326 135t135.5 325v93h20v-93q0 -199 -140 -340t-341 -141t-341 141t-140 340zM174 911v93h31v-93q0 -162 113.5 -275.5t275.5 -113.5t275.5 114t113.5 275v93h31v-93q0 -174 -123 -296.5t-297 -122.5t-297 122.5t-123 296.5z M246 911v93h41v-93q0 -127 90 -217t217 -90t217 90t90 217v93h41v-93q0 -145 -102.5 -246.5t-245.5 -101.5t-245.5 101.5t-102.5 246.5zM328 911v93h51v-93q0 -88 62.5 -151.5t152.5 -63.5t152.5 63.5t62.5 151.5v93h51v-93q0 -111 -77.5 -188.5t-188.5 -77.5t-188.5 77.5 t-77.5 188.5z" />
<glyph unicode="Z" horiz-adv-x="1042" d="M41 686v51h799l-244 -420h405v-51h-798l243 420h-405zM41 778v41h846l-25 -41h-821zM41 860v31h887l-19 -31h-868zM41 932v20h922l-13 -20h-909zM41 993v11h952l-6 -11h-946zM49 0l6 10h946v-10h-952zM80 51l12 21h909v-21h-921zM115 113l18 30h868v-30h-886zM156 184 l24 41h821v-41h-845zM293 317h45l213 369h-45zM385 317h47l213 369h-47zM467 317h47l213 369h-47zM537 317h47l213 369h-45z" />
<glyph unicode="\" horiz-adv-x="964" d="M10 1004h60l581 -1004h-59zM117 1004h47l579 -1004h-47zM211 1004h35l579 -1004h-34zM293 1004h22l582 -1004h-25zM362 1004h13l579 -1004h-12z" />
<glyph unicode="a" d="M61 502q0 221 156 376.5t377 155.5t376.5 -155.5t155.5 -376.5v-502h-10v502q0 217 -152.5 369.5t-369.5 152.5t-369.5 -152.5t-152.5 -369.5t152.5 -369.5t369.5 -152.5q113 0 215 45v45q-98 -49 -215 -50q-201 0 -341 141.5t-140 340t140 340t341 141.5t341 -141.5 t140 -339.5v-502h-20v502q0 190 -135.5 325.5t-326 135.5t-325.5 -135.5t-135 -326t135 -325.5t326 -135q115 0 215 53v47q-96 -59 -215 -59q-174 0 -297 123t-123 297t123 297t297 123t297 -123t123 -297v-502h-31v502q0 162 -113.5 275.5t-275.5 113.5t-275.5 -113.5 t-113.5 -275.5t113.5 -275.5t275.5 -113.5q119 0 215 63v51q-92 -74 -215 -73q-143 0 -245.5 101t-102.5 246.5t102.5 247t245.5 101.5t245.5 -101.5t102.5 -246.5v-502h-41v502q0 127 -90 217t-217 90t-217 -90t-90 -217t90 -217t217 -90t215 88v61q-80 -109 -215 -108 q-111 0 -188.5 77.5t-77.5 188t77.5 188.5t188.5 78t188.5 -78t77.5 -188v-502h-51v14q-102 -45 -215 -45q-221 0 -377 156t-156 377zM379 502q0 -88 62.5 -151.5t152.5 -63.5t152.5 63.5t62.5 151.5t-62.5 151.5t-152.5 63.5t-152.5 -63.5t-62.5 -151.5z" />
<glyph unicode="b" d="M61 502v983h11v-983q0 -217 152.5 -369.5t369.5 -152.5t369.5 152.5t152.5 369.5t-152.5 369.5t-369.5 152.5q-113 0 -215 -45v-45q98 49 215 49q201 0 341 -141.5t140 -340t-140 -340t-341 -141.5t-341 141.5t-140 340.5v983h20v-983q0 -190 135 -325.5t325.5 -135.5 t326 135t135.5 325.5t-135.5 326t-325.5 135.5q-115 0 -215 -54v-47q96 59 215 60q174 0 297 -123t123 -297t-123 -297t-297 -123t-297 123t-123 297v983h31v-983q0 -162 113.5 -275.5t275.5 -113.5t275.5 113.5t113.5 275.5t-113.5 275.5t-275.5 113.5q-119 0 -215 -64v-51 q92 74 215 74q143 0 245.5 -101.5t102.5 -247t-102.5 -246.5t-245.5 -101t-245.5 101t-102.5 247v983h41v-983q0 -127 90 -217t217 -90t217 90t90 217t-90 217t-217 90t-215 -88v-62q80 109 215 109q111 0 188.5 -78t77.5 -188.5t-77.5 -188t-188.5 -77.5t-188.5 77.5 t-77.5 188.5v983h51v-496q102 45 215 45q221 0 376.5 -155.5t155.5 -376.5t-155.5 -377t-376.5 -156t-377 156t-156 377zM379 502q0 -88 62.5 -151.5t152.5 -63.5t152.5 63.5t62.5 151.5t-62.5 151.5t-152.5 63.5t-152.5 -63.5t-62.5 -151.5z" />
<glyph unicode="c" horiz-adv-x="1032" d="M61 502q0 221 156 376.5t377 155.5t377 -155l-8 -9q-154 154 -369 154q-217 0 -369.5 -152.5t-152.5 -369.5t152.5 -368.5t369.5 -151.5q215 0 369 153l8 -8q-158 -158 -377 -158q-221 0 -377 156t-156 377zM113 501.5q0 198.5 140 340t341 141.5q199 0 340 -141l-14 -15 q-135 135 -326 135.5t-326 -135t-135 -326t135 -325.5t326 -135q188 0 326 137l14 -14q-141 -141 -340 -141q-201 0 -341 140t-140 338.5zM174 502q0 174 123 297t297 123t297 -123l-23 -23q-115 115 -274 115q-162 0 -275.5 -113.5t-113.5 -275.5t113.5 -274.5 t275.5 -112.5t274 114l23 -22q-125 -125 -297 -125q-174 0 -297 123t-123 297zM246 502q0 145 102.5 246.5t245.5 101.5t246 -102l-29 -29q-94 90 -217 90q-127 0 -217 -90t-90 -217t90 -217t217 -90q125 0 217 92l29 -29q-100 -102 -245.5 -102t-247 101.5t-101.5 244.5z M328 501.5q0 110.5 77.5 188.5t188.5 78q106 0 188 -78l-37 -37q-68 63 -151 64q-90 0 -152.5 -63.5t-62.5 -151.5t62.5 -150.5t152.5 -62.5q88 0 151 63l37 -37q-80 -80 -188 -79q-111 0 -188.5 77.5t-77.5 188z" />
<glyph unicode="d" d="M61 502q0 221 156 376.5t377 155.5q113 0 215 -45v496h51v-983q0 -111 -77.5 -188.5t-188.5 -77.5t-188.5 77.5t-77.5 188t77.5 188.5t188.5 78q135 0 215 -109v62q-88 88 -215 88t-217 -90t-90 -217t90 -217t217 -90t217 90t90 217v983h41v-983q0 -145 -102.5 -246.5 t-245.5 -101.5t-245.5 101t-102.5 246.5t102.5 247t245.5 101.5q123 0 215 -74v51q-96 63 -215 64q-162 0 -275.5 -113.5t-113.5 -275.5t113.5 -275.5t275.5 -113.5t275.5 113.5t113.5 275.5v983h31v-983q0 -174 -123 -297t-297 -123t-297 123t-123 297t123 297t297 123 q119 0 215 -60v47q-100 53 -215 54q-190 0 -325.5 -135.5t-135.5 -326t135 -325.5t325.5 -135t326 135t135.5 326v983h20v-983q0 -199 -140 -340.5t-341 -141.5t-341 141.5t-140 340t140 340t341 141.5q117 0 215 -49v45q-102 45 -215 45q-217 0 -369.5 -152.5 t-152.5 -369.5t152.5 -369.5t369.5 -152.5t369.5 152.5t152.5 369.5v983h10v-983q0 -221 -155.5 -377t-376.5 -156t-377 156t-156 377zM379 502q0 -88 62.5 -151.5t152.5 -63.5t152.5 63.5t62.5 151.5t-62.5 151.5t-152.5 63.5t-152.5 -63.5t-62.5 -151.5z" />
<glyph unicode="e" horiz-adv-x="1032" d="M61 502q0 221 156 376.5t377 155.5t377 -155l-8 -9q-154 154 -369 154q-217 0 -369.5 -152.5t-152.5 -369.5t152.5 -368.5t369.5 -151.5q215 0 369 153l8 -8q-158 -158 -377 -158q-221 0 -377 156t-156 377zM113 501.5q0 198.5 140 340t341 141.5q199 0 340 -141l-14 -15 q-135 135 -326 135.5t-326 -135t-135 -326t135 -325.5t326 -135q188 0 326 137l14 -14q-141 -141 -340 -141q-201 0 -341 140t-140 338.5zM174 502q0 174 123 297t297 123t297 -123l-23 -23q-115 115 -274 115q-162 0 -275.5 -113.5t-113.5 -275.5t113.5 -274.5 t275.5 -112.5t274 114l23 -22q-125 -125 -297 -125q-174 0 -297 123t-123 297zM246 502q0 145 102.5 246.5t245.5 101.5t246 -102l-29 -29q-94 90 -217 90q-127 0 -217 -90t-90 -217t90 -217t217 -90q125 0 217 92l29 -29q-100 -102 -245.5 -102t-247 101.5t-101.5 244.5z M328 501.5q0 110.5 77.5 188.5t188.5 78q106 0 188 -78l-340 -340q61 -61 152 -61q88 0 151 63l37 -37q-80 -80 -188 -79q-111 0 -188.5 77.5t-77.5 188zM379 502q0 -63 31 -111l292 293q-53 33 -108 33q-90 0 -152.5 -63.5t-62.5 -151.5z" />
<glyph unicode="f" horiz-adv-x="655" d="M61 0v963q0 221 156 376.5t377 155.5v-10q-217 0 -369.5 -152.5t-152.5 -369.5v-963h-11zM113 0v963q0 201 140 341t341 140v-21q-190 0 -325.5 -135t-135.5 -325v-963h-20zM174 0v963q0 174 123 296.5t297 122.5v-30q-162 0 -275.5 -114t-113.5 -275v-963h-31zM246 0 v963q0 143 102.5 245.5t245.5 102.5v-41q-127 0 -217 -90t-90 -217v-963h-41zM328 0v963q0 111 77.5 188.5t188.5 77.5v-51q-90 0 -152.5 -62.5t-62.5 -152.5h215v-11h-215v-41h215v-20h-215v-41h215v-31h-215v-41h215v-41h-215v-41h215v-51h-215v-645h-51z" />
<glyph unicode="g" d="M61 502q0 221 156 376.5t377 155.5t376.5 -155.5t155.5 -376.5v-492q0 -221 -155.5 -376.5t-376.5 -155.5q-219 0 -377 157l8 9q154 -154 369 -154q217 0 369.5 151.5t152.5 368.5v492q0 217 -152.5 369.5t-369.5 152.5t-369.5 -152.5t-152.5 -369.5t152.5 -369.5 t369.5 -152.5q113 0 215 45v45q-98 -49 -215 -50q-201 0 -341 141.5t-140 340t140 340t341 141.5t341 -141.5t140 -339.5v-492q0 -199 -140 -339t-341 -140q-199 0 -340 141l14 15q137 -137 326 -138q190 0 325.5 135.5t135.5 325.5v492q0 190 -135.5 325.5t-326 135.5 t-325.5 -135.5t-135 -326t135 -325.5t326 -135q115 0 215 53v47q-96 -59 -215 -59q-174 0 -297 123t-123 297t123 297t297 123t297 -123t123 -297v-492q0 -174 -123 -297t-297 -123q-172 0 -297 125l22 23q113 -115 275 -115t275.5 112.5t113.5 274.5v492 q0 162 -113.5 275.5t-275.5 113.5t-275.5 -113.5t-113.5 -275.5t113.5 -275.5t275.5 -113.5q119 0 215 63v51q-92 -74 -215 -73q-143 0 -245.5 101t-102.5 246.5t102.5 247t245.5 101.5t245.5 -101.5t102.5 -246.5v-492q0 -145 -102 -247q-100 -99 -240 -99h-6 q-145 0 -246 103l29 28q92 -92 217 -92q127 0 217 90t90 217v492q0 127 -90 217t-217 90t-217 -90t-90 -217t90 -217t217 -90t215 88v61q-80 -109 -215 -108q-111 0 -188.5 77.5t-77.5 188t77.5 188.5t188.5 78t188.5 -78t77.5 -188v-492q0 -111 -77.5 -188.5t-188.5 -77.5 q-109 0 -188 80l36 37q63 -63 152 -64h5q85 0 146 61q63 62 64 152v4q-102 -45 -215 -45q-221 0 -377 156t-156 377zM379 502q0 -88 62.5 -151.5t152.5 -63.5t152.5 63.5t62.5 151.5t-62.5 151.5t-152.5 63.5t-152.5 -63.5t-62.5 -151.5z" />
<glyph unicode="h" d="M61 0v1485h11v-1485h-11zM113 0v1485h20v-1485h-20zM174 0v1485h31v-1485h-31zM246 0v1485h41v-1485h-41zM328 0v1485h51v-496q102 45 215 45q221 0 376.5 -155.5t155.5 -376.5v-502h-10v502q0 217 -152.5 369.5t-369.5 152.5q-113 0 -215 -45v-45q98 49 215 49 q201 0 341 -141.5t140 -339.5v-502h-20v502q0 190 -135.5 325.5t-325.5 135.5q-115 0 -215 -54v-47q96 59 215 60q174 0 297 -123t123 -297v-502h-31v502q0 162 -113.5 275.5t-275.5 113.5q-119 0 -215 -64v-51q92 74 215 74q143 0 245.5 -101.5t102.5 -246.5v-502h-41v502 q0 127 -90 217t-217 90t-215 -88v-62q80 109 215 109q111 0 188.5 -78t77.5 -188v-502h-51v502q0 88 -62.5 151.5t-152.5 63.5t-152.5 -63.5t-62.5 -151.5v-502h-51z" />
<glyph unicode="i" horiz-adv-x="440" d="M61 0v1004h11v-1004h-11zM61 1126v226h11v-226h-11zM113 0v1004h20v-1004h-20zM113 1126v226h20v-226h-20zM174 0v1004h31v-1004h-31zM174 1126v226h31v-226h-31zM246 0v1004h41v-1004h-41zM246 1126v226h41v-226h-41zM328 0v1004h51v-1004h-51zM328 1126v226h51v-226 h-51z" />
<glyph unicode="j" horiz-adv-x="655" d="M61 -205q90 0 152.5 63.5t62.5 151.5v676h-215v51h215v41h-215v41h215v41h-215v31h215v41h-215v20h215v41h-215v11h267v-994q0 -111 -78 -188.5t-189 -77.5v51zM61 -297q127 0 217.5 90t90.5 217v994h41v-994q0 -145 -102.5 -246.5t-246.5 -101.5v41zM61 -379 q162 0 276 113.5t114 275.5v994h30v-994q0 -174 -122.5 -297t-297.5 -123v31zM61 -451q190 0 325.5 135.5t135.5 325.5v994h21v-994q0 -199 -140.5 -340t-341.5 -141v20zM61 -512q217 0 370 152.5t153 369.5v994h10v-994q0 -221 -155.5 -376.5t-377.5 -155.5v10zM276 1126 v226h52v-226h-52zM369 1126v226h41v-226h-41zM451 1126v226h30v-226h-30zM522 1126v226h21v-226h-21zM584 1126v226h10v-226h-10z" />
<glyph unicode="k" horiz-adv-x="1064" d="M61 0v1485h11v-1485h-11zM113 0v1485h20v-1485h-20zM174 0v1485h31v-1485h-31zM246 0v1485h41v-1485h-41zM328 0v1485h51v-830h92h8q86 4 146.5 65.5t60.5 149.5v134h51v-134q0 -74 -36.5 -135t-98.5 -96q18 -4 51 -16q125 94 125 247v134h41v-134q0 -164 -123 -266 l39 -18q125 115 125 284v134h31v-134q0 -178 -129 -303q4 -2 35 -22q135 135 135 325v134h20v-134q0 -197 -139 -340l31 -26q150 154 149 366v134h11v-134q0 -217 -154 -374q154 -158 154 -373v-123h-11v123q0 217 -152.5 369.5t-369.5 152.5h-92v-41h92q201 0 341 -140 t140 -341v-123h-20v123q0 190 -135 325.5t-326 135.5h-92v-41h92q174 0 297 -123t123 -297v-123h-31v123q0 162 -113.5 275.5t-275.5 113.5h-92v-41h92q143 0 245.5 -102.5t102.5 -245.5v-123h-41v123q0 127 -90 217t-217 90h-92v-41h92q111 0 188.5 -78t77.5 -188v-123h-51 v123q0 90 -62.5 152.5t-152.5 62.5h-92v-338h-51z" />
<glyph unicode="l" horiz-adv-x="593" d="M61 502v983h11v-983q0 -217 152.5 -369.5t369.5 -152.5v-11q-221 0 -377 156t-156 377zM113 502v983h20v-983q0 -190 135 -325.5t326 -135.5v-21q-201 0 -341 141.5t-140 340.5zM174 502v983h31v-983q0 -162 113.5 -275.5t275.5 -113.5v-31q-174 0 -297 123t-123 297z M246 502v983h41v-983q0 -127 90 -217t217 -90v-41q-143 0 -245.5 101.5t-102.5 246.5zM328 502v983h51v-983q0 -88 62.5 -151.5t152.5 -63.5v-51q-111 0 -188.5 77.5t-77.5 188.5z" />
<glyph unicode="m" horiz-adv-x="1935" d="M61 0v502q0 221 156 376.5t377 155.5q215 0 373 -153q158 154 374 153q221 0 377 -155.5t156 -376.5v-502h-10v502q0 217 -152.5 369.5t-370.5 152.5q-213 0 -366 -150l26 -30q143 139 340 139q199 0 340.5 -141.5t141.5 -339.5v-502h-21v502q0 190 -135 325.5 t-325.5 135.5t-325.5 -136l24 -34q125 129 301 129q174 0 297 -123t123 -297v-502h-30v502q0 162 -114 275.5t-276 113.5q-166 0 -284 -125l18 -39q106 123 266 123q145 0 247 -101.5t102 -246.5v-502h-41v502q0 127 -90.5 217t-217.5 90q-156 0 -247 -125q10 -29 16 -51 q35 61 96.5 98t134.5 37q111 0 189 -78t78 -188v-502h-52v502q0 88 -63 151.5t-151.5 63.5t-152 -63.5t-63.5 -151.5v-502h-10v502q0 217 -152.5 369.5t-369.5 152.5t-369.5 -152.5t-152.5 -369.5v-502h-11zM113 0v502q0 199 140 340t341 141t341 -141.5t140 -339.5v-502 h-20v502q0 190 -135.5 325.5t-326 135.5t-325.5 -135.5t-135 -325.5v-502h-20zM174 0v502q0 174 123 297t297 123t297 -123t123 -297v-502h-31v502q0 162 -113.5 275.5t-275.5 113.5t-275.5 -113.5t-113.5 -275.5v-502h-31zM246 0v502q0 145 102.5 246.5t245.5 101.5 t245.5 -101.5t102.5 -246.5v-502h-41v502q0 127 -90 217t-217 90t-217 -90t-90 -217v-502h-41zM328 0v502q0 111 77.5 188.5t188.5 77.5t188.5 -78t77.5 -188v-502h-51v502q0 88 -62.5 151.5t-152.5 63.5t-152.5 -63.5t-62.5 -151.5v-502h-51z" />
<glyph unicode="n" d="M61 0v1004h11v-1004h-11zM113 0v1004h20v-1004h-20zM174 0v1004h31v-1004h-31zM246 0v1004h41v-1004h-41zM328 0v1004h51v-15q102 45 215 45q221 0 376.5 -155.5t155.5 -376.5v-502h-10v502q0 217 -152.5 369.5t-369.5 152.5q-113 0 -215 -45v-45q98 49 215 49 q201 0 341 -141.5t140 -339.5v-502h-20v502q0 190 -135.5 325.5t-325.5 135.5q-115 0 -215 -54v-47q96 59 215 60q174 0 297 -123t123 -297v-502h-31v502q0 162 -113.5 275.5t-275.5 113.5q-119 0 -215 -64v-51q92 74 215 74q143 0 245.5 -101.5t102.5 -246.5v-502h-41v502 q0 127 -90 217t-217 90t-215 -88v-62q80 109 215 109q111 0 188.5 -78t77.5 -188v-502h-51v502q0 88 -62.5 151.5t-152.5 63.5t-152.5 -63.5t-62.5 -151.5v-502h-51z" />
<glyph unicode="o" d="M61 502q0 221 156 376.5t377 155.5t376.5 -155.5t155.5 -376.5t-155.5 -377t-376.5 -156t-377 156t-156 377zM72 502q0 -217 152.5 -369.5t369.5 -152.5t369.5 152.5t152.5 369.5t-152.5 369.5t-369.5 152.5t-369.5 -152.5t-152.5 -369.5zM113 501.5q0 198.5 140 340 t341 141.5t341 -141.5t140 -340t-140 -340t-341 -141.5t-341 141.5t-140 340zM133 501.5q0 -190.5 135 -325.5t325.5 -135t326 135t135.5 325.5t-135.5 326t-326 135.5t-325.5 -135.5t-135 -326zM174 502q0 174 123 297t297 123t297 -123t123 -297t-123 -297t-297 -123 t-297 123t-123 297zM205 502q0 -162 113.5 -275.5t275.5 -113.5t275.5 113.5t113.5 275.5t-113.5 275.5t-275.5 113.5t-275.5 -113.5t-113.5 -275.5zM246 501.5q0 145.5 102.5 247t245.5 101.5t245.5 -101.5t102.5 -247t-102.5 -246.5t-245.5 -101t-245.5 101t-102.5 246.5z M287 502q0 -127 90 -217t217 -90t217 90t90 217t-90 217t-217 90t-217 -90t-90 -217zM328 501.5q0 110.5 77.5 188.5t188.5 78t188.5 -78t77.5 -188.5t-77.5 -188t-188.5 -77.5t-188.5 77.5t-77.5 188zM379 502q0 -88 62.5 -151.5t152.5 -63.5t152.5 63.5t62.5 151.5 t-62.5 151.5t-152.5 63.5t-152.5 -63.5t-62.5 -151.5z" />
<glyph unicode="p" d="M61 -481v983q0 221 156 376.5t377 155.5t376.5 -155.5t155.5 -376.5t-155.5 -377t-376.5 -156q-113 0 -215 45v-495h-51v983q0 111 77.5 188.5t188.5 77.5t188.5 -78t77.5 -188.5t-77.5 -188t-188.5 -77.5q-135 0 -215 108v-61q88 -88 215 -88t217 90t90 217t-90 217 t-217 90t-217 -90t-90 -217v-983h-41v983q0 145 102.5 246.5t245.5 101.5t245.5 -101.5t102.5 -247t-102.5 -246.5t-245.5 -101q-123 0 -215 73v-51q96 -63 215 -63q162 0 275.5 113.5t113.5 275.5t-113.5 275.5t-275.5 113.5t-275.5 -113.5t-113.5 -275.5v-983h-31v983 q0 174 123 297t297 123t297 -123t123 -297t-123 -297t-297 -123q-119 0 -215 59v-47q100 -53 215 -53q190 0 325.5 135t135.5 325.5t-135.5 326t-326 135.5t-325.5 -135.5t-135 -325.5v-983h-20v983q0 199 140 340t341 141t341 -141.5t140 -340t-140 -340t-341 -141.5 q-117 0 -215 50v-45q102 -45 215 -45q217 0 369.5 152.5t152.5 369.5t-152.5 369.5t-369.5 152.5t-369.5 -152.5t-152.5 -369.5v-983h-11zM379 502q0 -88 62.5 -151.5t152.5 -63.5t152.5 63.5t62.5 151.5t-62.5 151.5t-152.5 63.5t-152.5 -63.5t-62.5 -151.5z" />
<glyph unicode="q" d="M61 502q0 221 156 376.5t377 155.5t376.5 -155.5t155.5 -376.5v-983h-10v983q0 217 -152.5 369.5t-369.5 152.5t-369.5 -152.5t-152.5 -369.5t152.5 -369.5t369.5 -152.5q113 0 215 45v45q-98 -49 -215 -50q-201 0 -341 141.5t-140 340t140 340t341 141.5t341 -141.5 t140 -339.5v-983h-20v983q0 190 -135.5 325.5t-326 135.5t-325.5 -135.5t-135 -326t135 -325.5t326 -135q115 0 215 53v47q-96 -59 -215 -59q-174 0 -297 123t-123 297t123 297t297 123t297 -123t123 -297v-983h-31v983q0 162 -113.5 275.5t-275.5 113.5t-275.5 -113.5 t-113.5 -275.5t113.5 -275.5t275.5 -113.5q119 0 215 63v51q-92 -74 -215 -73q-143 0 -245.5 101t-102.5 246.5t102.5 247t245.5 101.5t245.5 -101.5t102.5 -246.5v-983h-41v983q0 127 -90 217t-217 90t-217 -90t-90 -217t90 -217t217 -90t215 88v61q-80 -109 -215 -108 q-111 0 -188.5 77.5t-77.5 188t77.5 188.5t188.5 78t188.5 -78t77.5 -188v-983h-51v495q-102 -45 -215 -45q-221 0 -377 156t-156 377zM379 502q0 -88 62.5 -151.5t152.5 -63.5t152.5 63.5t62.5 151.5t-62.5 151.5t-152.5 63.5t-152.5 -63.5t-62.5 -151.5z" />
<glyph unicode="r" horiz-adv-x="655" d="M61 0v1004h11v-1004h-11zM113 0v1004h20v-1004h-20zM174 0v1004h31v-1004h-31zM246 0v1004h41v-1004h-41zM328 0v1004h51v-15q102 45 215 45v-10q-113 0 -215 -45v-45q98 49 215 49v-20q-115 0 -215 -54v-47q96 59 215 60v-31q-119 0 -215 -64v-51q92 74 215 74v-41 q-127 0 -215 -88v-62q80 109 215 109v-51q-90 0 -152.5 -63.5t-62.5 -151.5v-502h-51z" />
<glyph unicode="s" horiz-adv-x="1257" d="M0 594l287 285q156 156 377 155.5t376.5 -156t155.5 -376.5t-155.5 -377t-376.5 -156q-219 0 -377 158l8 8q154 -154 369 -153q217 0 369.5 151.5t152.5 368.5t-152.5 369.5t-369.5 152.5q-215 0 -369 -154l-285 -286zM37 557l287 285q141 141 340 141q201 0 341 -141.5 t140 -340t-140.5 -338.5t-340.5 -140q-199 0 -340 141l14 14q137 -137 326 -137q190 0 325 135t135 325.5t-135 326t-325.5 135.5t-325.5 -136l-287 -284zM80 514l287 285q123 123 297 123t296.5 -123t122.5 -297t-122.5 -297t-296.5 -123q-172 0 -297 125l22 22 q113 -115 274.5 -114.5t275.5 113t114 274.5t-114 275.5t-275 113.5q-160 0 -275 -115l-285 -287zM131 463l287 285q102 102 245.5 102t246 -101.5t102.5 -246.5q0 -143 -101.5 -244.5t-247 -101.5t-245.5 102l28 29q92 -92 218 -92q127 0 217 90t90 217t-90 217t-217 90 q-123 0 -218 -90l-286 -285zM188 406l287 284q82 78 189 78q111 0 188.5 -78t77.5 -188.5t-78 -188t-188 -77.5q-109 0 -189 79l37 37q63 -63 152 -63q90 0 152.5 62.5t62.5 150.5t-62.5 151.5t-152.5 63.5q-84 0 -152 -64l-287 -284z" />
<glyph unicode="t" horiz-adv-x="655" d="M61 502v696h11v-696q0 -217 152.5 -369.5t369.5 -152.5v-11q-221 0 -377 156t-156 377zM113 502v696h20v-696q0 -190 135 -325.5t326 -135.5v-21q-201 0 -341 141.5t-140 340.5zM174 502v696h31v-696q0 -162 113.5 -275.5t275.5 -113.5v-31q-174 0 -297 123t-123 297z M246 502v696h41v-696q0 -127 90 -217t217 -90v-41q-143 0 -245.5 101.5t-102.5 246.5zM328 502v696h51v-194h215v-11h-215v-41h215v-20h-215v-41h215v-31h-215v-41h215v-41h-215v-41h215v-51h-215v-184q0 -88 62.5 -151.5t152.5 -63.5v-51q-111 0 -188.5 77.5t-77.5 188.5z " />
<glyph unicode="u" d="M61 502v502h11v-502q0 -217 152.5 -369.5t369.5 -152.5q113 0 215 45v45q-98 -49 -215 -50q-201 0 -341 141.5t-140 340.5v502h20v-502q0 -190 135 -325.5t326 -135.5q115 0 215 53v47q-96 -59 -215 -59q-174 0 -297 123t-123 297v502h31v-502q0 -162 113.5 -275.5 t275.5 -113.5q119 0 215 63v51q-92 -74 -215 -73q-143 0 -245.5 101t-102.5 247v502h41v-502q0 -127 90 -217t217 -90t215 88v61q-80 -109 -215 -108q-111 0 -188.5 77.5t-77.5 188.5v502h51v-502q0 -88 62.5 -151.5t152.5 -63.5t152.5 63.5t62.5 151.5v502h51v-1004h-51v14 q-102 -45 -215 -45q-221 0 -377 156t-156 377zM901 0v1004h41v-1004h-41zM983 0v1004h31v-1004h-31zM1055 0v1004h20v-1004h-20zM1116 0v1004h10v-1004h-10z" />
<glyph unicode="v" horiz-adv-x="1210" d="M10 1004h13l583 -1014l582 1014h12l-594 -1035zM70 1004h24l512 -891l512 891h25l-537 -932zM139 1004h35l432 -750l430 750h35l-465 -811zM221 1004h47l338 -586l336 586h47l-383 -668zM315 1004h60l231 -402l232 402h59l-291 -504z" />
<glyph unicode="w" horiz-adv-x="1671" d="M10 1004h13l583 -1014l406 704l55 -92l231 402h60l-291 -504l-78 135l-24 -41l102 -176l336 586h47l-383 -668l-125 215l-24 -41l149 -256l430 750h35l-465 -811l-166 288l-22 -41l188 -327l512 891h25l-537 -932l-201 348l-24 -41l225 -389l582 1014h12l-594 -1035 l-231 400l-230 -400zM70 1004h24l512 -891l371 643l10 -21l-381 -663zM139 1004h35l432 -750l330 573l16 -30l-346 -604zM221 1004h47l338 -586l283 491l22 -41l-305 -532zM315 1004h60l231 -402l232 402l28 -56l-260 -448z" />
<glyph unicode="x" d="M61 0v123q0 215 154 373q-154 158 -154 374v134h11v-134q0 -213 149 -366l31 26q-139 143 -139 340v134h20v-134q0 -190 135 -325q31 20 35 22q-129 125 -129 303v134h31v-134q0 -170 125 -284l39 18q-123 102 -123 266v134h41v-134q0 -154 125 -247q33 12 51 16 q-61 35 -98 96.5t-37 134.5v134h51v-134q0 -88 60.5 -149.5t146.5 -65.5h16q86 4 146.5 65.5t60.5 149.5v134h51v-134q0 -74 -37 -135t-98 -96q18 -4 51 -16q125 94 125 247v134h41v-134q0 -164 -123 -266l39 -18q125 115 125 284v134h31v-134q0 -178 -129 -303q4 -2 35 -22 q135 135 135 325v134h20v-134q0 -197 -139 -340l31 -26q150 154 149 366v134h10v-134q0 -217 -153 -374q154 -158 153 -373v-123h-10v123q0 217 -152.5 369.5t-369.5 152.5t-369.5 -152.5t-152.5 -369.5v-123h-11zM113 0v123q0 201 140 341t341 140t341 -140t140 -341v-123 h-20v123q0 190 -135.5 325.5t-326 135.5t-325.5 -135.5t-135 -325.5v-123h-20zM174 0v123q0 174 123 297t297 123t297 -123t123 -297v-123h-31v123q0 162 -113.5 275.5t-275.5 113.5t-275.5 -113.5t-113.5 -275.5v-123h-31zM246 0v123q0 143 102.5 245.5t245.5 102.5 t245.5 -102.5t102.5 -245.5v-123h-41v123q0 127 -90 217t-217 90t-217 -90t-90 -217v-123h-41zM328 0v123q0 111 77.5 188.5t188.5 77.5t188.5 -78t77.5 -188v-123h-51v123q0 90 -62.5 152.5t-152.5 62.5t-152.5 -62.5t-62.5 -152.5v-123h-51z" />
<glyph unicode="y" d="M61 502v502h11v-502q0 -217 152.5 -369.5t369.5 -152.5q113 0 215 45v45q-98 -49 -215 -50q-201 0 -341 141.5t-140 340.5v502h20v-502q0 -190 135 -325.5t326 -135.5q115 0 215 53v47q-96 -59 -215 -59q-174 0 -297 123t-123 297v502h31v-502q0 -162 113.5 -275.5 t275.5 -113.5q119 0 215 63v51q-92 -74 -215 -73q-143 0 -245.5 101t-102.5 247v502h41v-502q0 -127 90 -217t217 -90t215 88v61q-80 -109 -215 -108q-111 0 -188.5 77.5t-77.5 188.5v502h51v-502q0 -88 62.5 -151.5t152.5 -63.5t152.5 63.5t62.5 151.5v502h51v-994 q0 -111 -77.5 -188.5t-188.5 -77.5q-109 0 -188 80l36 37q63 -63 152 -64h5q85 0 146 61q63 62 64 152v4q-102 -45 -215 -45q-221 0 -377 156t-156 377zM217 -365l8 9q154 -154 369 -154q217 0 369.5 151.5t152.5 368.5v994h10v-994q0 -221 -155.5 -376.5t-376.5 -155.5 q-219 -1 -377 157zM254 -328l14 15q137 -137 326 -138q190 0 325.5 135.5t135.5 325.5v994h20v-994q0 -199 -140 -339t-341 -140q-199 0 -340 141zM297 -285l22 23q113 -115 275 -115t275.5 112.5t113.5 274.5v994h31v-994q0 -174 -123 -297t-297 -123q-172 0 -297 125z M348 -233l29 28q92 -92 217 -92q127 0 217 90t90 217v994h41v-994q0 -145 -102 -247q-100 -99 -240 -99h-6q-146 1 -246 103z" />
<glyph unicode="z" horiz-adv-x="1042" d="M41 686v51h799l-244 -420h405v-51h-798l243 420h-405zM41 778v41h846l-25 -41h-821zM41 860v31h887l-19 -31h-868zM41 932v20h922l-13 -20h-909zM41 993v11h952l-6 -11h-946zM49 0l6 10h946v-10h-952zM80 51l12 21h909v-21h-921zM115 113l18 30h868v-30h-886zM156 184 l24 41h821v-41h-845zM293 317h45l213 369h-45zM385 317h47l213 369h-47zM467 317h47l213 369h-47zM537 317h47l213 369h-45z" />
<glyph unicode="&#xa8;" horiz-adv-x="440" d="M61 1126v226h52v-226h-52zM328 1126v226h51v-226h-51z" />
<glyph unicode="&#xaa;" d="M61 502q0 221 156 376.5t377 155.5t376.5 -155.5t155.5 -376.5v-502h-10v502q0 217 -152.5 369.5t-369.5 152.5t-369.5 -152.5t-152.5 -369.5t152.5 -369.5t369.5 -152.5q113 0 215 45v45q-98 -49 -215 -50q-201 0 -341 141.5t-140 340t140 340t341 141.5t341 -141.5 t140 -339.5v-502h-20v502q0 190 -135.5 325.5t-326 135.5t-325.5 -135.5t-135 -326t135 -325.5t326 -135q115 0 215 53v47q-96 -59 -215 -59q-174 0 -297 123t-123 297t123 297t297 123t297 -123t123 -297v-502h-31v502q0 162 -113.5 275.5t-275.5 113.5t-275.5 -113.5 t-113.5 -275.5t113.5 -275.5t275.5 -113.5q119 0 215 63v51q-92 -74 -215 -73q-143 0 -245.5 101t-102.5 246.5t102.5 247t245.5 101.5t245.5 -101.5t102.5 -246.5v-502h-41v502q0 127 -90 217t-217 90t-217 -90t-90 -217t90 -217t217 -90t215 88v61q-80 -109 -215 -108 q-111 0 -188.5 77.5t-77.5 188t77.5 188.5t188.5 78t188.5 -78t77.5 -188v-502h-51v14q-102 -45 -215 -45q-221 0 -377 156t-156 377zM379 502q0 -88 62.5 -151.5t152.5 -63.5t152.5 63.5t62.5 151.5t-62.5 151.5t-152.5 63.5t-152.5 -63.5t-62.5 -151.5z" />
<glyph unicode="&#xad;" horiz-adv-x="604" d="M61 451v51h482v-51h-482z" />
<glyph unicode="&#xaf;" horiz-adv-x="819" d="M-338 122v52h676v-52h-676z" />
<glyph unicode="&#xb2;" horiz-adv-x="1011" d="M41 879q156 156 377 155.5t376.5 -156t155.5 -376.5h-10q0 217 -152.5 369.5t-369.5 152.5q-215 0 -369 -154zM78 842q141 141 340 141q201 0 341 -141.5t140 -339.5h-20q0 190 -135.5 325.5t-326 135.5t-325.5 -136zM94 0v10h856v-10h-856zM94 51v21h856v-21h-856z M94 113v30h856v-30h-856zM94 184v41h856v-41h-856zM94 266q2 109 80 185.5t186 76.5h271q-10 80 -70.5 134.5t-142.5 54.5q-84 0 -152 -64l-37 37q82 78 189 78q111 0 188.5 -78t77.5 -188v-25h-324q-74 0 -132 -45t-74 -115h796v-51h-856zM121 799q123 123 297 123 t297 -123t123 -297h-31q0 162 -113.5 275.5t-275.5 113.5q-160 0 -275 -115zM172 748q102 102 245.5 102t246 -101.5t102.5 -246.5h-41q0 127 -90 217t-217 90q-123 0 -217 -90z" />
<glyph unicode="&#xb3;" horiz-adv-x="1011" d="M41 125l8 8q154 -154 369 -153q217 0 369.5 152.5t152.5 369.5h10q0 -221 -155.5 -377t-376.5 -156t-377 156zM78 162l14 14q135 -135 325.5 -135t326 135t135.5 326h20q0 -199 -140.5 -340.5t-340.5 -141.5q-199 1 -340 142zM78 686v51h733v-51l-254 -160h127v-24 q0 -111 -78 -188.5t-188 -77.5q-106 0 -189 77l37 37q68 -63 152 -63q82 0 142.5 54t70.5 134h-166v51l252 160h-639zM78 778v41h733v-41h-733zM78 860v31h733v-31h-733zM78 932v20h733v-20h-733zM78 993v11h733v-11h-733zM121 205l22 22q115 -115 275 -114 q162 0 275.5 113.5t113.5 275.5h31q0 -174 -123 -297t-297 -123t-297 123zM172 256l29 29q94 -90 217 -90q127 0 217 90t90 217h41q0 -145 -102.5 -246.5t-246 -101.5t-245.5 102z" />
<glyph unicode="&#xb4;" horiz-adv-x="819" d="M-23 169l390 182l22 -47l-389 -182z" />
<glyph unicode="&#xb8;" horiz-adv-x="532" d="M61 -268h50q0 -70 48 -118t117.5 -48t117.5 48t48 117.5t-48 118t-118 48.5v102h52v-59q72 -16 118 -75t46 -134q0 -88 -63.5 -151.5t-152 -63.5t-152 63.5t-63.5 151.5z" />
<glyph unicode="&#xb9;" horiz-adv-x="591" d="M10 369v59l256 147v-575h-51v487zM10 473v47l338 197v-717h-41v647zM10 567v37l410 238v-842h-31v788zM10 651v23l469 272v-946h-20v911zM10 721v10l520 303v-1034h-10v1018z" />
<glyph unicode="&#xba;" d="M61 502q0 221 156 376.5t377 155.5t376.5 -155.5t155.5 -376.5t-155.5 -377t-376.5 -156t-377 156t-156 377zM72 502q0 -217 152.5 -369.5t369.5 -152.5t369.5 152.5t152.5 369.5t-152.5 369.5t-369.5 152.5t-369.5 -152.5t-152.5 -369.5zM113 501.5q0 198.5 140 340 t341 141.5t341 -141.5t140 -340t-140 -340t-341 -141.5t-341 141.5t-140 340zM133 501.5q0 -190.5 135 -325.5t325.5 -135t326 135t135.5 325.5t-135.5 326t-326 135.5t-325.5 -135.5t-135 -326zM174 502q0 174 123 297t297 123t297 -123t123 -297t-123 -297t-297 -123 t-297 123t-123 297zM205 502q0 -162 113.5 -275.5t275.5 -113.5t275.5 113.5t113.5 275.5t-113.5 275.5t-275.5 113.5t-275.5 -113.5t-113.5 -275.5zM246 501.5q0 145.5 102.5 247t245.5 101.5t245.5 -101.5t102.5 -247t-102.5 -246.5t-245.5 -101t-245.5 101t-102.5 246.5z M287 502q0 -127 90 -217t217 -90t217 90t90 217t-90 217t-217 90t-217 -90t-90 -217zM328 501.5q0 110.5 77.5 188.5t188.5 78t188.5 -78t77.5 -188.5t-77.5 -188t-188.5 -77.5t-188.5 77.5t-77.5 188zM379 502q0 -88 62.5 -151.5t152.5 -63.5t152.5 63.5t62.5 151.5 t-62.5 151.5t-152.5 63.5t-152.5 -63.5t-62.5 -151.5z" />
<glyph unicode="&#xc0;" d="M61 0v502q0 221 156 376.5t377 155.5t376.5 -155.5t155.5 -376.5v-502h-10v502q0 217 -152.5 369.5t-369.5 152.5t-369.5 -152.5t-152.5 -369.5v-502h-11zM113 0v502q0 199 140 340t341 141t341 -141.5t140 -339.5v-502h-20v502q0 190 -135.5 325.5t-326 135.5 t-325.5 -135.5t-135 -325.5v-502h-20zM174 0v502q0 174 123 297t297 123t297 -123t123 -297v-502h-31v502q0 162 -113.5 275.5t-275.5 113.5t-275.5 -113.5t-113.5 -275.5v-502h-31zM246 0v502q0 145 102.5 246.5t245.5 101.5t245.5 -101.5t102.5 -246.5v-502h-41v502 q0 127 -90 217t-217 90t-217 -90t-90 -217v-502h-41zM328 0v502q0 111 77.5 188.5t188.5 77.5t188.5 -78t77.5 -188v-502h-51v123h-430v-123h-51zM379 133h430v41h-430v-41zM379 195h430v41h-430v-41zM379 266h430v41h-430v-41zM379 348h430v41h-430v-41zM379 440h430v62 q0 88 -62.5 151.5t-152.5 63.5t-152.5 -63.5t-62.5 -151.5v-62zM387 1233l23 47l389 -182l-23 -47z" />
<glyph unicode="&#xc1;" d="M61 0v502q0 221 156 376.5t377 155.5t376.5 -155.5t155.5 -376.5v-502h-10v502q0 217 -152.5 369.5t-369.5 152.5t-369.5 -152.5t-152.5 -369.5v-502h-11zM113 0v502q0 199 140 340t341 141t341 -141.5t140 -339.5v-502h-20v502q0 190 -135.5 325.5t-326 135.5 t-325.5 -135.5t-135 -325.5v-502h-20zM174 0v502q0 174 123 297t297 123t297 -123t123 -297v-502h-31v502q0 162 -113.5 275.5t-275.5 113.5t-275.5 -113.5t-113.5 -275.5v-502h-31zM246 0v502q0 145 102.5 246.5t245.5 101.5t245.5 -101.5t102.5 -246.5v-502h-41v502 q0 127 -90 217t-217 90t-217 -90t-90 -217v-502h-41zM328 0v502q0 111 77.5 188.5t188.5 77.5t188.5 -78t77.5 -188v-502h-51v123h-430v-123h-51zM379 133h430v41h-430v-41zM379 195h430v41h-430v-41zM379 266h430v41h-430v-41zM379 348h430v41h-430v-41zM379 440h430v62 q0 88 -62.5 151.5t-152.5 63.5t-152.5 -63.5t-62.5 -151.5v-62zM387 1098l389 182l23 -47l-389 -182z" />
<glyph unicode="&#xc2;" d="M61 0v502q0 221 156 376.5t377 155.5t376.5 -155.5t155.5 -376.5v-502h-10v502q0 217 -152.5 369.5t-369.5 152.5t-369.5 -152.5t-152.5 -369.5v-502h-11zM113 0v502q0 199 140 340t341 141t341 -141.5t140 -339.5v-502h-20v502q0 190 -135.5 325.5t-326 135.5 t-325.5 -135.5t-135 -325.5v-502h-20zM174 0v502q0 174 123 297t297 123t297 -123t123 -297v-502h-31v502q0 162 -113.5 275.5t-275.5 113.5t-275.5 -113.5t-113.5 -275.5v-502h-31zM205 1098l389 182l389 -182l-22 -47l-367 172l-367 -172zM246 0v502q0 145 102.5 246.5 t245.5 101.5t245.5 -101.5t102.5 -246.5v-502h-41v502q0 127 -90 217t-217 90t-217 -90t-90 -217v-502h-41zM328 0v502q0 111 77.5 188.5t188.5 77.5t188.5 -78t77.5 -188v-502h-51v123h-430v-123h-51zM379 133h430v41h-430v-41zM379 195h430v41h-430v-41zM379 266h430v41 h-430v-41zM379 348h430v41h-430v-41zM379 440h430v62q0 88 -62.5 151.5t-152.5 63.5t-152.5 -63.5t-62.5 -151.5v-62z" />
<glyph unicode="&#xc3;" d="M61 0v502q0 221 156 376.5t377 155.5t376.5 -155.5t155.5 -376.5v-502h-10v502q0 217 -152.5 369.5t-369.5 152.5t-369.5 -152.5t-152.5 -369.5v-502h-11zM113 0v502q0 199 140 340t341 141t341 -141.5t140 -339.5v-502h-20v502q0 190 -135.5 325.5t-326 135.5 t-325.5 -135.5t-135 -325.5v-502h-20zM127 1055q0 115 59.5 190.5t165.5 75.5q53 0 95 -22.5t68 -54.5l51 -62q26 -31 63 -53.5t86 -22.5q84 0 128 60.5t44 154.5h51q0 -113 -59.5 -189.5t-157.5 -76.5q-72 0 -125 33.5t-81 73.5t-72 74t-97 34q-80 0 -124 -60.5t-44 -154.5 h-51zM174 0v502q0 174 123 297t297 123t297 -123t123 -297v-502h-31v502q0 162 -113.5 275.5t-275.5 113.5t-275.5 -113.5t-113.5 -275.5v-502h-31zM246 0v502q0 145 102.5 246.5t245.5 101.5t245.5 -101.5t102.5 -246.5v-502h-41v502q0 127 -90 217t-217 90t-217 -90 t-90 -217v-502h-41zM328 0v502q0 111 77.5 188.5t188.5 77.5t188.5 -78t77.5 -188v-502h-51v123h-430v-123h-51zM379 133h430v41h-430v-41zM379 195h430v41h-430v-41zM379 266h430v41h-430v-41zM379 348h430v41h-430v-41zM379 440h430v62q0 88 -62.5 151.5t-152.5 63.5 t-152.5 -63.5t-62.5 -151.5v-62z" />
<glyph unicode="&#xc4;" d="M61 0v502q0 221 156 376.5t377 155.5t376.5 -155.5t155.5 -376.5v-502h-10v502q0 217 -152.5 369.5t-369.5 152.5t-369.5 -152.5t-152.5 -369.5v-502h-11zM113 0v502q0 199 140 340t341 141t341 -141.5t140 -339.5v-502h-20v502q0 190 -135.5 325.5t-326 135.5 t-325.5 -135.5t-135 -325.5v-502h-20zM174 0v502q0 174 123 297t297 123t297 -123t123 -297v-502h-31v502q0 162 -113.5 275.5t-275.5 113.5t-275.5 -113.5t-113.5 -275.5v-502h-31zM246 0v502q0 145 102.5 246.5t245.5 101.5t245.5 -101.5t102.5 -246.5v-502h-41v502 q0 127 -90 217t-217 90t-217 -90t-90 -217v-502h-41zM328 0v502q0 111 77.5 188.5t188.5 77.5t188.5 -78t77.5 -188v-502h-51v123h-430v-123h-51zM379 133h430v41h-430v-41zM379 195h430v41h-430v-41zM379 266h430v41h-430v-41zM379 348h430v41h-430v-41zM379 440h430v62 q0 88 -62.5 151.5t-152.5 63.5t-152.5 -63.5t-62.5 -151.5v-62zM434 1126v226h51v-226h-51zM700 1126v226h52v-226h-52z" />
<glyph unicode="&#xc5;" d="M61 0v502q0 221 156 376.5t377 155.5t376.5 -155.5t155.5 -376.5v-502h-10v502q0 217 -152.5 369.5t-369.5 152.5t-369.5 -152.5t-152.5 -369.5v-502h-11zM113 0v502q0 199 140 340t341 141t341 -141.5t140 -339.5v-502h-20v502q0 190 -135.5 325.5t-326 135.5 t-325.5 -135.5t-135 -325.5v-502h-20zM174 0v502q0 174 123 297t297 123t297 -123t123 -297v-502h-31v502q0 162 -113.5 275.5t-275.5 113.5t-275.5 -113.5t-113.5 -275.5v-502h-31zM246 0v502q0 145 102.5 246.5t245.5 101.5t245.5 -101.5t102.5 -246.5v-502h-41v502 q0 127 -90 217t-217 90t-217 -90t-90 -217v-502h-41zM328 0v502q0 111 77.5 188.5t188.5 77.5t188.5 -78t77.5 -188v-502h-51v123h-430v-123h-51zM379 133h430v41h-430v-41zM379 195h430v41h-430v-41zM379 266h430v41h-430v-41zM379 348h430v41h-430v-41zM379 440h430v62 q0 88 -62.5 151.5t-152.5 63.5t-152.5 -63.5t-62.5 -151.5v-62zM430 1218.5q0 67.5 48 115.5t116 48t116 -48t48 -115.5t-48 -115.5t-116 -48t-116 48t-48 115.5zM479 1218.5q0 -47.5 34 -81t81 -33.5t81 33.5t34 81t-34 81t-81 33.5t-81 -33.5t-34 -81z" />
<glyph unicode="&#xc6;" horiz-adv-x="2015" d="M61 0v502q0 221 156 376.5t377 155.5q172 0 309 -98t193 -256q57 156 193 255t308 99q221 0 377 -155l-8 -9q-154 154 -369 154q-172 0 -307 -100.5t-188 -259.5q12 -43 18 -91q27 174 162 292t315 118q199 0 340 -141l-14 -15q-135 135 -325.5 135.5t-325.5 -135 t-135 -326t135 -325.5t325 -135q188 0 326 137l14 -14q-141 -141 -340 -141q-174 0 -305 107.5t-166 272.5v-127q63 -133 190.5 -213.5t280.5 -80.5q215 0 369 153l8 -8q-158 -158 -377 -158q-152 0 -277.5 77t-193.5 204v-250h-10v520q-8 211 -159.5 357.5t-362.5 146.5 q-217 0 -369.5 -152.5t-152.5 -369.5v-502h-11zM113 0v502q0 199 140 340t341 141t341 -141.5t140 -339.5v-502h-20v502q0 190 -135.5 325.5t-326 135.5t-325.5 -135.5t-135 -325.5v-502h-20zM174 0v502q0 174 123 297t297 123t297 -123t123 -297v-502h-31v502 q0 162 -113.5 275.5t-275.5 113.5t-275.5 -113.5t-113.5 -275.5v-502h-31zM246 0v502q0 145 102.5 246.5t245.5 101.5t245.5 -101.5t102.5 -246.5v-502h-41v502q0 127 -90 217t-217 90t-217 -90t-90 -217v-502h-41zM328 0v502q0 111 77.5 188.5t188.5 77.5t188.5 -78 t77.5 -188v-502h-51v123h-430v-123h-51zM379 133h430v41h-430v-41zM379 195h430v41h-430v-41zM379 266h430v41h-430v-41zM379 348h430v41h-430v-41zM379 440h430v62q0 88 -62.5 151.5t-152.5 63.5t-152.5 -63.5t-62.5 -151.5v-62zM1178 502q0 174 122.5 297t297 123 t296.5 -123l-22 -23q-115 115 -275 115q-162 0 -275.5 -113.5t-113.5 -275.5t114 -274.5t275.5 -112.5t274.5 114l22 -22q-125 -125 -297 -125q-174 0 -296.5 123t-122.5 297zM1249 502q0 145 102.5 246.5t246 101.5t245.5 -102l-28 -29q-94 90 -218 90q-127 0 -217 -90 t-90 -217t90 -217t217 -90q125 0 218 92l28 -29q-100 -102 -245.5 -102t-247 101.5t-101.5 244.5zM1331 501.5q0 110.5 78 188.5t188 78q106 0 189 -78l-340 -340q61 -61 151 -61q88 0 152 63l37 -37q-80 -80 -189 -79q-111 0 -188.5 77.5t-77.5 188zM1382 502 q0 -63 31 -111l293 293q-53 33 -109 33q-90 0 -152.5 -63.5t-62.5 -151.5z" />
<glyph unicode="&#xc7;" horiz-adv-x="1032" d="M61 502q0 221 156 376.5t377 155.5t377 -155l-8 -9q-154 154 -369 154q-217 0 -369.5 -152.5t-152.5 -369.5t152.5 -368.5t369.5 -151.5q215 0 369 153l8 -8q-147 -147 -355 -158v-53q72 -16 118 -74.5t46 -134.5q0 -88 -62.5 -151.5t-152.5 -63.5t-152.5 63.5 t-62.5 151.5h49q0 -70 48.5 -118t118 -48t117.5 48.5t48 118t-48 117.5t-118 48v98q-213 10 -358.5 164t-145.5 367zM113 501.5q0 198.5 140 340t341 141.5q199 0 340 -141l-14 -15q-135 135 -326 135.5t-326 -135t-135 -326t135 -325.5t326 -135q188 0 326 137l14 -14 q-141 -141 -340 -141q-201 0 -341 140t-140 338.5zM174 502q0 174 123 297t297 123t297 -123l-23 -23q-115 115 -274 115q-162 0 -275.5 -113.5t-113.5 -275.5t113.5 -274.5t275.5 -112.5t274 114l23 -22q-125 -125 -297 -125q-174 0 -297 123t-123 297zM246 502 q0 145 102.5 246.5t245.5 101.5t246 -102l-29 -29q-94 90 -217 90q-127 0 -217 -90t-90 -217t90 -217t217 -90q125 0 217 92l29 -29q-100 -102 -245.5 -102t-247 101.5t-101.5 244.5zM328 501.5q0 110.5 77.5 188.5t188.5 78q106 0 188 -78l-37 -37q-68 63 -151 64 q-90 0 -152.5 -63.5t-62.5 -151.5t62.5 -150.5t152.5 -62.5q88 0 151 63l37 -37q-80 -80 -188 -79q-111 0 -188.5 77.5t-77.5 188z" />
<glyph unicode="&#xc8;" horiz-adv-x="1032" d="M61 502q0 221 156 376.5t377 155.5t377 -155l-8 -9q-154 154 -369 154q-217 0 -369.5 -152.5t-152.5 -369.5t152.5 -368.5t369.5 -151.5q215 0 369 153l8 -8q-158 -158 -377 -158q-221 0 -377 156t-156 377zM113 501.5q0 198.5 140 340t341 141.5q199 0 340 -141l-14 -15 q-135 135 -326 135.5t-326 -135t-135 -326t135 -325.5t326 -135q188 0 326 137l14 -14q-141 -141 -340 -141q-201 0 -341 140t-140 338.5zM174 502q0 174 123 297t297 123t297 -123l-23 -23q-115 115 -274 115q-162 0 -275.5 -113.5t-113.5 -275.5t113.5 -274.5 t275.5 -112.5t274 114l23 -22q-125 -125 -297 -125q-174 0 -297 123t-123 297zM246 502q0 145 102.5 246.5t245.5 101.5t246 -102l-29 -29q-94 90 -217 90q-127 0 -217 -90t-90 -217t90 -217t217 -90q125 0 217 92l29 -29q-100 -102 -245.5 -102t-247 101.5t-101.5 244.5z M309 1233l23 47l389 -182l-23 -47zM328 501.5q0 110.5 77.5 188.5t188.5 78q106 0 188 -78l-340 -340q61 -61 152 -61q88 0 151 63l37 -37q-80 -80 -188 -79q-111 0 -188.5 77.5t-77.5 188zM379 502q0 -63 31 -111l292 293q-53 33 -108 33q-90 0 -152.5 -63.5t-62.5 -151.5z " />
<glyph unicode="&#xc9;" horiz-adv-x="1032" d="M61 502q0 221 156 376.5t377 155.5t377 -155l-8 -9q-154 154 -369 154q-217 0 -369.5 -152.5t-152.5 -369.5t152.5 -368.5t369.5 -151.5q215 0 369 153l8 -8q-158 -158 -377 -158q-221 0 -377 156t-156 377zM113 501.5q0 198.5 140 340t341 141.5q199 0 340 -141l-14 -15 q-135 135 -326 135.5t-326 -135t-135 -326t135 -325.5t326 -135q188 0 326 137l14 -14q-141 -141 -340 -141q-201 0 -341 140t-140 338.5zM174 502q0 174 123 297t297 123t297 -123l-23 -23q-115 115 -274 115q-162 0 -275.5 -113.5t-113.5 -275.5t113.5 -274.5 t275.5 -112.5t274 114l23 -22q-125 -125 -297 -125q-174 0 -297 123t-123 297zM246 502q0 145 102.5 246.5t245.5 101.5t246 -102l-29 -29q-94 90 -217 90q-127 0 -217 -90t-90 -217t90 -217t217 -90q125 0 217 92l29 -29q-100 -102 -245.5 -102t-247 101.5t-101.5 244.5z M309 1098l389 182l23 -47l-389 -182zM328 501.5q0 110.5 77.5 188.5t188.5 78q106 0 188 -78l-340 -340q61 -61 152 -61q88 0 151 63l37 -37q-80 -80 -188 -79q-111 0 -188.5 77.5t-77.5 188zM379 502q0 -63 31 -111l292 293q-53 33 -108 33q-90 0 -152.5 -63.5 t-62.5 -151.5z" />
<glyph unicode="&#xca;" horiz-adv-x="1032" d="M61 502q0 221 156 376.5t377 155.5t377 -155l-8 -9q-154 154 -369 154q-217 0 -369.5 -152.5t-152.5 -369.5t152.5 -368.5t369.5 -151.5q215 0 369 153l8 -8q-158 -158 -377 -158q-221 0 -377 156t-156 377zM113 501.5q0 198.5 140 340t341 141.5q199 0 340 -141l-14 -15 q-135 135 -326 135.5t-326 -135t-135 -326t135 -325.5t326 -135q188 0 326 137l14 -14q-141 -141 -340 -141q-201 0 -341 140t-140 338.5zM127 1098l389 182l389 -182l-22 -47l-367 172l-366 -172zM174 502q0 174 123 297t297 123t297 -123l-23 -23q-115 115 -274 115 q-162 0 -275.5 -113.5t-113.5 -275.5t113.5 -274.5t275.5 -112.5t274 114l23 -22q-125 -125 -297 -125q-174 0 -297 123t-123 297zM246 502q0 145 102.5 246.5t245.5 101.5t246 -102l-29 -29q-94 90 -217 90q-127 0 -217 -90t-90 -217t90 -217t217 -90q125 0 217 92l29 -29 q-100 -102 -245.5 -102t-247 101.5t-101.5 244.5zM328 501.5q0 110.5 77.5 188.5t188.5 78q106 0 188 -78l-340 -340q61 -61 152 -61q88 0 151 63l37 -37q-80 -80 -188 -79q-111 0 -188.5 77.5t-77.5 188zM379 502q0 -63 31 -111l292 293q-53 33 -108 33q-90 0 -152.5 -63.5 t-62.5 -151.5z" />
<glyph unicode="&#xcb;" horiz-adv-x="1032" d="M61 502q0 221 156 376.5t377 155.5t377 -155l-8 -9q-154 154 -369 154q-217 0 -369.5 -152.5t-152.5 -369.5t152.5 -368.5t369.5 -151.5q215 0 369 153l8 -8q-158 -158 -377 -158q-221 0 -377 156t-156 377zM113 501.5q0 198.5 140 340t341 141.5q199 0 340 -141l-14 -15 q-135 135 -326 135.5t-326 -135t-135 -326t135 -325.5t326 -135q188 0 326 137l14 -14q-141 -141 -340 -141q-201 0 -341 140t-140 338.5zM174 502q0 174 123 297t297 123t297 -123l-23 -23q-115 115 -274 115q-162 0 -275.5 -113.5t-113.5 -275.5t113.5 -274.5 t275.5 -112.5t274 114l23 -22q-125 -125 -297 -125q-174 0 -297 123t-123 297zM246 502q0 145 102.5 246.5t245.5 101.5t246 -102l-29 -29q-94 90 -217 90q-127 0 -217 -90t-90 -217t90 -217t217 -90q125 0 217 92l29 -29q-100 -102 -245.5 -102t-247 101.5t-101.5 244.5z M328 501.5q0 110.5 77.5 188.5t188.5 78q106 0 188 -78l-340 -340q61 -61 152 -61q88 0 151 63l37 -37q-80 -80 -188 -79q-111 0 -188.5 77.5t-77.5 188zM356 1126v226h52v-226h-52zM379 502q0 -63 31 -111l292 293q-53 33 -108 33q-90 0 -152.5 -63.5t-62.5 -151.5z M623 1126v226h51v-226h-51z" />
<glyph unicode="&#xcc;" horiz-adv-x="604" d="M61 0v10h482v-10h-482zM61 51v21h482v-21h-482zM61 113v30h482v-30h-482zM61 184v41h482v-41h-482zM61 266v51h82v369h-82v51h482v-51h-82v-369h82v-51h-482zM61 778v41h482v-41h-482zM61 860v31h482v-31h-482zM61 932v20h482v-20h-482zM61 993v11h482v-11h-482zM96 1233 l23 47l389 -182l-23 -47zM154 317h41v369h-41v-369zM215 317h41v369h-41v-369zM287 317h41v369h-41v-369zM369 317h41v369h-41v-369z" />
<glyph unicode="&#xcd;" horiz-adv-x="604" d="M61 0v10h482v-10h-482zM61 51v21h482v-21h-482zM61 113v30h482v-30h-482zM61 184v41h482v-41h-482zM61 266v51h82v369h-82v51h482v-51h-82v-369h82v-51h-482zM61 778v41h482v-41h-482zM61 860v31h482v-31h-482zM61 932v20h482v-20h-482zM61 993v11h482v-11h-482zM96 1098 l389 182l23 -47l-389 -182zM154 317h41v369h-41v-369zM215 317h41v369h-41v-369zM287 317h41v369h-41v-369zM369 317h41v369h-41v-369z" />
<glyph unicode="&#xce;" horiz-adv-x="604" d="M-86 1098l389 182l389 -182l-22 -47l-367 172l-366 -172zM61 0v10h482v-10h-482zM61 51v21h482v-21h-482zM61 113v30h482v-30h-482zM61 184v41h482v-41h-482zM61 266v51h82v369h-82v51h482v-51h-82v-369h82v-51h-482zM61 778v41h482v-41h-482zM61 860v31h482v-31h-482z M61 932v20h482v-20h-482zM61 993v11h482v-11h-482zM154 317h41v369h-41v-369zM215 317h41v369h-41v-369zM287 317h41v369h-41v-369zM369 317h41v369h-41v-369z" />
<glyph unicode="&#xcf;" horiz-adv-x="604" d="M61 0v10h482v-10h-482zM61 51v21h482v-21h-482zM61 113v30h482v-30h-482zM61 184v41h482v-41h-482zM61 266v51h82v369h-82v51h482v-51h-82v-369h82v-51h-482zM61 778v41h482v-41h-482zM61 860v31h482v-31h-482zM61 932v20h482v-20h-482zM61 993v11h482v-11h-482z M143 1126v226h52v-226h-52zM154 317h41v369h-41v-369zM215 317h41v369h-41v-369zM287 317h41v369h-41v-369zM369 317h41v369h-41v-369zM410 1126v226h51v-226h-51z" />
<glyph unicode="&#xd0;" d="M-8 451v51h69q0 221 156 376.5t377 155.5t376.5 -155.5t155.5 -376.5t-155.5 -377t-376.5 -156q-113 0 -215 45v-14h-51v502q0 111 77.5 188.5t188.5 77.5t188.5 -78t77.5 -188.5t-77.5 -188t-188.5 -77.5q-135 0 -215 108v-61q88 -88 215 -88t217 90t90 217t-90 217 t-217 90t-217 -90t-90 -217v-502h-41v502q0 145 102.5 246.5t245.5 101.5t245.5 -101.5t102.5 -247t-102.5 -246.5t-245.5 -101q-123 0 -215 73v-51q96 -63 215 -63q162 0 275.5 113.5t113.5 275.5t-113.5 275.5t-275.5 113.5t-275.5 -113.5t-113.5 -275.5v-502h-31v502 q0 174 123 297t297 123t297 -123t123 -297t-123 -297t-297 -123q-119 0 -215 59v-47q100 -53 215 -53q190 0 325.5 135t135.5 325.5t-135.5 326t-326 135.5t-325.5 -135.5t-135 -325.5v-502h-20v502q0 199 140 340t341 141t341 -141.5t140 -340t-140 -340t-341 -141.5 q-117 0 -215 50v-45q102 -45 215 -45q217 0 369.5 152.5t152.5 369.5t-152.5 369.5t-369.5 152.5t-369.5 -152.5t-152.5 -369.5v-502h-11v451h-69zM379 502h250v-51h-244q16 -72 74.5 -118t134.5 -46q90 0 152.5 63.5t62.5 151.5t-62.5 151.5t-152.5 63.5t-152.5 -63.5 t-62.5 -151.5z" />
<glyph unicode="&#xd1;" horiz-adv-x="1126" d="M61 0v1042l11 -8v-1034h-11zM113 0v1012l20 -15v-997h-20zM158 1055q0 115 59 190.5t166 75.5q53 0 95 -22.5t68 -54.5l51 -62q26 -31 62.5 -53.5t85.5 -22.5q84 0 128.5 60.5t44.5 154.5h51q0 -113 -59.5 -189.5t-157.5 -76.5q-72 0 -125.5 33.5t-81 73.5t-71.5 74 t-97 34q-80 0 -124 -60.5t-44 -154.5h-51zM174 0v969l31 -23v-946h-31zM246 0v918l41 -29v-889h-41zM328 0v860l420 -295v439h51v-861l-420 295v-438h-51zM379 449l369 -259v52l-369 258v-51zM379 524l369 -258v51l-369 258v-51zM379 612l369 -258v49l-369 259v-50zM379 713 l369 -258v49l-369 258v-49zM840 115v889h41v-918zM922 57v947h30v-967zM993 8v996h21v-1010zM1055 -31v1035h10v-1043z" />
<glyph unicode="&#xd2;" d="M61 502q0 221 156 376.5t377 155.5t376.5 -155.5t155.5 -376.5t-155.5 -377t-376.5 -156t-377 156t-156 377zM72 502q0 -217 152.5 -369.5t369.5 -152.5t369.5 152.5t152.5 369.5t-152.5 369.5t-369.5 152.5t-369.5 -152.5t-152.5 -369.5zM113 501.5q0 198.5 140 340 t341 141.5t341 -141.5t140 -340t-140 -340t-341 -141.5t-341 141.5t-140 340zM133 501.5q0 -190.5 135 -325.5t325.5 -135t326 135t135.5 325.5t-135.5 326t-326 135.5t-325.5 -135.5t-135 -326zM174 502q0 174 123 297t297 123t297 -123t123 -297t-123 -297t-297 -123 t-297 123t-123 297zM205 502q0 -162 113.5 -275.5t275.5 -113.5t275.5 113.5t113.5 275.5t-113.5 275.5t-275.5 113.5t-275.5 -113.5t-113.5 -275.5zM246 501.5q0 145.5 102.5 247t245.5 101.5t245.5 -101.5t102.5 -247t-102.5 -246.5t-245.5 -101t-245.5 101t-102.5 246.5z M287 502q0 -127 90 -217t217 -90t217 90t90 217t-90 217t-217 90t-217 -90t-90 -217zM328 501.5q0 110.5 77.5 188.5t188.5 78t188.5 -78t77.5 -188.5t-77.5 -188t-188.5 -77.5t-188.5 77.5t-77.5 188zM379 502q0 -88 62.5 -151.5t152.5 -63.5t152.5 63.5t62.5 151.5 t-62.5 151.5t-152.5 63.5t-152.5 -63.5t-62.5 -151.5zM387 1233l23 47l389 -182l-23 -47z" />
<glyph unicode="&#xd3;" d="M61 502q0 221 156 376.5t377 155.5t376.5 -155.5t155.5 -376.5t-155.5 -377t-376.5 -156t-377 156t-156 377zM72 502q0 -217 152.5 -369.5t369.5 -152.5t369.5 152.5t152.5 369.5t-152.5 369.5t-369.5 152.5t-369.5 -152.5t-152.5 -369.5zM113 501.5q0 198.5 140 340 t341 141.5t341 -141.5t140 -340t-140 -340t-341 -141.5t-341 141.5t-140 340zM133 501.5q0 -190.5 135 -325.5t325.5 -135t326 135t135.5 325.5t-135.5 326t-326 135.5t-325.5 -135.5t-135 -326zM174 502q0 174 123 297t297 123t297 -123t123 -297t-123 -297t-297 -123 t-297 123t-123 297zM205 502q0 -162 113.5 -275.5t275.5 -113.5t275.5 113.5t113.5 275.5t-113.5 275.5t-275.5 113.5t-275.5 -113.5t-113.5 -275.5zM246 501.5q0 145.5 102.5 247t245.5 101.5t245.5 -101.5t102.5 -247t-102.5 -246.5t-245.5 -101t-245.5 101t-102.5 246.5z M287 502q0 -127 90 -217t217 -90t217 90t90 217t-90 217t-217 90t-217 -90t-90 -217zM328 501.5q0 110.5 77.5 188.5t188.5 78t188.5 -78t77.5 -188.5t-77.5 -188t-188.5 -77.5t-188.5 77.5t-77.5 188zM379 502q0 -88 62.5 -151.5t152.5 -63.5t152.5 63.5t62.5 151.5 t-62.5 151.5t-152.5 63.5t-152.5 -63.5t-62.5 -151.5zM387 1098l389 182l23 -47l-389 -182z" />
<glyph unicode="&#xd4;" d="M61 502q0 221 156 376.5t377 155.5t376.5 -155.5t155.5 -376.5t-155.5 -377t-376.5 -156t-377 156t-156 377zM72 502q0 -217 152.5 -369.5t369.5 -152.5t369.5 152.5t152.5 369.5t-152.5 369.5t-369.5 152.5t-369.5 -152.5t-152.5 -369.5zM113 501.5q0 198.5 140 340 t341 141.5t341 -141.5t140 -340t-140 -340t-341 -141.5t-341 141.5t-140 340zM133 501.5q0 -190.5 135 -325.5t325.5 -135t326 135t135.5 325.5t-135.5 326t-326 135.5t-325.5 -135.5t-135 -326zM174 502q0 174 123 297t297 123t297 -123t123 -297t-123 -297t-297 -123 t-297 123t-123 297zM205 502q0 -162 113.5 -275.5t275.5 -113.5t275.5 113.5t113.5 275.5t-113.5 275.5t-275.5 113.5t-275.5 -113.5t-113.5 -275.5zM205 1098l389 182l389 -182l-22 -47l-367 172l-367 -172zM246 501.5q0 145.5 102.5 247t245.5 101.5t245.5 -101.5 t102.5 -247t-102.5 -246.5t-245.5 -101t-245.5 101t-102.5 246.5zM287 502q0 -127 90 -217t217 -90t217 90t90 217t-90 217t-217 90t-217 -90t-90 -217zM328 501.5q0 110.5 77.5 188.5t188.5 78t188.5 -78t77.5 -188.5t-77.5 -188t-188.5 -77.5t-188.5 77.5t-77.5 188z M379 502q0 -88 62.5 -151.5t152.5 -63.5t152.5 63.5t62.5 151.5t-62.5 151.5t-152.5 63.5t-152.5 -63.5t-62.5 -151.5z" />
<glyph unicode="&#xd5;" d="M61 502q0 221 156 376.5t377 155.5t376.5 -155.5t155.5 -376.5t-155.5 -377t-376.5 -156t-377 156t-156 377zM72 502q0 -217 152.5 -369.5t369.5 -152.5t369.5 152.5t152.5 369.5t-152.5 369.5t-369.5 152.5t-369.5 -152.5t-152.5 -369.5zM113 501.5q0 198.5 140 340 t341 141.5t341 -141.5t140 -340t-140 -340t-341 -141.5t-341 141.5t-140 340zM133 501.5q0 -190.5 135 -325.5t325.5 -135t326 135t135.5 325.5t-135.5 326t-326 135.5t-325.5 -135.5t-135 -326zM174 502q0 174 123 297t297 123t297 -123t123 -297t-123 -297t-297 -123 t-297 123t-123 297zM188 1055q0 115 59.5 190.5t166.5 75.5q53 0 95 -22.5t68 -54.5l51 -62q26 -31 62.5 -53.5t85.5 -22.5q84 0 128 60.5t44 154.5h51q0 -113 -59 -189.5t-158 -76.5q-72 0 -125 33.5t-80.5 73.5t-71.5 74t-97 34q-80 0 -124 -60.5t-44 -154.5h-52zM205 502 q0 -162 113.5 -275.5t275.5 -113.5t275.5 113.5t113.5 275.5t-113.5 275.5t-275.5 113.5t-275.5 -113.5t-113.5 -275.5zM246 501.5q0 145.5 102.5 247t245.5 101.5t245.5 -101.5t102.5 -247t-102.5 -246.5t-245.5 -101t-245.5 101t-102.5 246.5zM287 502q0 -127 90 -217 t217 -90t217 90t90 217t-90 217t-217 90t-217 -90t-90 -217zM328 501.5q0 110.5 77.5 188.5t188.5 78t188.5 -78t77.5 -188.5t-77.5 -188t-188.5 -77.5t-188.5 77.5t-77.5 188zM379 502q0 -88 62.5 -151.5t152.5 -63.5t152.5 63.5t62.5 151.5t-62.5 151.5t-152.5 63.5 t-152.5 -63.5t-62.5 -151.5z" />
<glyph unicode="&#xd6;" d="M61 502q0 221 156 376.5t377 155.5t376.5 -155.5t155.5 -376.5t-155.5 -377t-376.5 -156t-377 156t-156 377zM72 502q0 -217 152.5 -369.5t369.5 -152.5t369.5 152.5t152.5 369.5t-152.5 369.5t-369.5 152.5t-369.5 -152.5t-152.5 -369.5zM113 501.5q0 198.5 140 340 t341 141.5t341 -141.5t140 -340t-140 -340t-341 -141.5t-341 141.5t-140 340zM133 501.5q0 -190.5 135 -325.5t325.5 -135t326 135t135.5 325.5t-135.5 326t-326 135.5t-325.5 -135.5t-135 -326zM174 502q0 174 123 297t297 123t297 -123t123 -297t-123 -297t-297 -123 t-297 123t-123 297zM205 502q0 -162 113.5 -275.5t275.5 -113.5t275.5 113.5t113.5 275.5t-113.5 275.5t-275.5 113.5t-275.5 -113.5t-113.5 -275.5zM246 501.5q0 145.5 102.5 247t245.5 101.5t245.5 -101.5t102.5 -247t-102.5 -246.5t-245.5 -101t-245.5 101t-102.5 246.5z M287 502q0 -127 90 -217t217 -90t217 90t90 217t-90 217t-217 90t-217 -90t-90 -217zM328 501.5q0 110.5 77.5 188.5t188.5 78t188.5 -78t77.5 -188.5t-77.5 -188t-188.5 -77.5t-188.5 77.5t-77.5 188zM379 502q0 -88 62.5 -151.5t152.5 -63.5t152.5 63.5t62.5 151.5 t-62.5 151.5t-152.5 63.5t-152.5 -63.5t-62.5 -151.5zM434 1126v226h51v-226h-51zM700 1126v226h52v-226h-52z" />
<glyph unicode="&#xd7;" horiz-adv-x="645" d="M61 252l226 223l-226 225l37 37l226 -225l223 225l37 -37l-226 -225l226 -223l-37 -37l-225 225l-224 -225z" />
<glyph unicode="&#xd8;" d="M61 502q0 221 156 376.5t377 155.5q207 0 358 -139l84 84l37 -37l-84 -84q137 -150 137 -356q0 -221 -155.5 -377t-376.5 -156q-207 0 -358 135l-82 -81l-37 36l82 82q-138 150 -138 361zM72 502q0 -217 152.5 -369.5t369.5 -152.5t369.5 152.5t152.5 369.5t-152.5 369.5 t-369.5 152.5t-369.5 -152.5t-152.5 -369.5zM113 501.5q0 198.5 140 340t341 141.5t341 -141.5t140 -340t-140 -340t-341 -141.5t-341 141.5t-140 340zM133 501.5q0 -190.5 135 -325.5t325.5 -135t326 135t135.5 325.5t-135.5 326t-326 135.5t-325.5 -135.5t-135 -326z M174 502q0 174 123 297t297 123t297 -123t123 -297t-123 -297t-297 -123t-297 123t-123 297zM205 502q0 -162 113.5 -275.5t275.5 -113.5t275.5 113.5t113.5 275.5t-113.5 275.5t-275.5 113.5t-275.5 -113.5t-113.5 -275.5zM246 501.5q0 145.5 102.5 247t245.5 101.5 t245.5 -101.5t102.5 -247t-102.5 -246.5t-245.5 -101t-245.5 101t-102.5 246.5zM287 502q0 -127 90 -217t217 -90t217 90t90 217t-90 217t-217 90t-217 -90t-90 -217zM328 501.5q0 110.5 77.5 188.5t188.5 78t188.5 -78t77.5 -188.5t-77.5 -188t-188.5 -77.5t-188.5 77.5 t-77.5 188zM379 502q0 -78 45 -135l303 303q-57 47 -133 47q-90 0 -152.5 -63.5t-62.5 -151.5zM463 332q57 -45 131 -45q90 0 152.5 63.5t62.5 151.5q0 74 -45 131z" />
<glyph unicode="&#xd9;" d="M61 502v502h11v-502q0 -217 152.5 -369.5t369.5 -152.5t369.5 152.5t152.5 369.5v502h10v-502q0 -221 -155.5 -377t-376.5 -156t-377 156t-156 377zM113 502v502h20v-502q0 -190 135 -325.5t325.5 -135.5t326 135t135.5 326v502h20v-502q0 -199 -140 -340.5t-341 -141.5 t-341 141.5t-140 340.5zM174 502v502h31v-502q0 -162 113.5 -275.5t275.5 -113.5t275.5 113.5t113.5 275.5v502h31v-502q0 -174 -123 -297t-297 -123t-297 123t-123 297zM246 502v502h41v-502q0 -127 90 -217t217 -90t217 90t90 217v502h41v-502q0 -145 -102.5 -246.5 t-245.5 -101.5t-245.5 101.5t-102.5 246.5zM328 502v502h51v-502q0 -88 62.5 -151.5t152.5 -63.5t152.5 63.5t62.5 151.5v502h51v-502q0 -111 -77.5 -188.5t-188.5 -77.5t-188.5 77.5t-77.5 188.5zM387 1233l23 47l389 -182l-23 -47z" />
<glyph unicode="&#xda;" d="M61 502v502h11v-502q0 -217 152.5 -369.5t369.5 -152.5t369.5 152.5t152.5 369.5v502h10v-502q0 -221 -155.5 -377t-376.5 -156t-377 156t-156 377zM113 502v502h20v-502q0 -190 135 -325.5t325.5 -135.5t326 135t135.5 326v502h20v-502q0 -199 -140 -340.5t-341 -141.5 t-341 141.5t-140 340.5zM174 502v502h31v-502q0 -162 113.5 -275.5t275.5 -113.5t275.5 113.5t113.5 275.5v502h31v-502q0 -174 -123 -297t-297 -123t-297 123t-123 297zM246 502v502h41v-502q0 -127 90 -217t217 -90t217 90t90 217v502h41v-502q0 -145 -102.5 -246.5 t-245.5 -101.5t-245.5 101.5t-102.5 246.5zM328 502v502h51v-502q0 -88 62.5 -151.5t152.5 -63.5t152.5 63.5t62.5 151.5v502h51v-502q0 -111 -77.5 -188.5t-188.5 -77.5t-188.5 77.5t-77.5 188.5zM387 1098l389 182l23 -47l-389 -182z" />
<glyph unicode="&#xdb;" d="M61 502v502h11v-502q0 -217 152.5 -369.5t369.5 -152.5t369.5 152.5t152.5 369.5v502h10v-502q0 -221 -155.5 -377t-376.5 -156t-377 156t-156 377zM113 502v502h20v-502q0 -190 135 -325.5t325.5 -135.5t326 135t135.5 326v502h20v-502q0 -199 -140 -340.5t-341 -141.5 t-341 141.5t-140 340.5zM174 502v502h31v-502q0 -162 113.5 -275.5t275.5 -113.5t275.5 113.5t113.5 275.5v502h31v-502q0 -174 -123 -297t-297 -123t-297 123t-123 297zM205 1098l389 182l389 -182l-22 -47l-367 172l-367 -172zM246 502v502h41v-502q0 -127 90 -217 t217 -90t217 90t90 217v502h41v-502q0 -145 -102.5 -246.5t-245.5 -101.5t-245.5 101.5t-102.5 246.5zM328 502v502h51v-502q0 -88 62.5 -151.5t152.5 -63.5t152.5 63.5t62.5 151.5v502h51v-502q0 -111 -77.5 -188.5t-188.5 -77.5t-188.5 77.5t-77.5 188.5z" />
<glyph unicode="&#xdc;" d="M61 502v502h11v-502q0 -217 152.5 -369.5t369.5 -152.5t369.5 152.5t152.5 369.5v502h10v-502q0 -221 -155.5 -377t-376.5 -156t-377 156t-156 377zM113 502v502h20v-502q0 -190 135 -325.5t325.5 -135.5t326 135t135.5 326v502h20v-502q0 -199 -140 -340.5t-341 -141.5 t-341 141.5t-140 340.5zM174 502v502h31v-502q0 -162 113.5 -275.5t275.5 -113.5t275.5 113.5t113.5 275.5v502h31v-502q0 -174 -123 -297t-297 -123t-297 123t-123 297zM246 502v502h41v-502q0 -127 90 -217t217 -90t217 90t90 217v502h41v-502q0 -145 -102.5 -246.5 t-245.5 -101.5t-245.5 101.5t-102.5 246.5zM328 502v502h51v-502q0 -88 62.5 -151.5t152.5 -63.5t152.5 63.5t62.5 151.5v502h51v-502q0 -111 -77.5 -188.5t-188.5 -77.5t-188.5 77.5t-77.5 188.5zM434 1126v226h51v-226h-51zM700 1126v226h52v-226h-52z" />
<glyph unicode="&#xdd;" d="M61 911v93h11v-93q0 -217 152.5 -369.5t369.5 -152.5t369.5 152.5t152.5 369.5v93h10v-93q0 -178 -104 -318t-268 -192v-401h-52v389l-40 -6v-383h-41v379h-27h-14v-379h-31v381q-16 0 -41 4v-385h-21v389l-41 10v-399h-10v401q-164 51 -269.5 191.5t-105.5 318.5z M113 911v93h20v-93q0 -190 135 -325t325.5 -135t326 135t135.5 325v93h20v-93q0 -199 -140 -340t-341 -141t-341 141t-140 340zM174 911v93h31v-93q0 -162 113.5 -275.5t275.5 -113.5t275.5 114t113.5 275v93h31v-93q0 -174 -123 -296.5t-297 -122.5t-297 122.5t-123 296.5z M246 911v93h41v-93q0 -127 90 -217t217 -90t217 90t90 217v93h41v-93q0 -145 -102.5 -246.5t-245.5 -101.5t-245.5 101.5t-102.5 246.5zM328 911v93h51v-93q0 -88 62.5 -151.5t152.5 -63.5t152.5 63.5t62.5 151.5v93h51v-93q0 -111 -77.5 -188.5t-188.5 -77.5t-188.5 77.5 t-77.5 188.5zM387 1098l389 182l23 -47l-389 -182z" />
<glyph unicode="&#xde;" horiz-adv-x="1167" d="M61 -276v1556h11v-1556h-11zM113 -276v1556h20v-1556h-20zM174 -276v1556h31v-1556h-31zM246 -276v1556h41v-1556h-41zM328 -276v1556h51v-291q102 45 215 45q221 0 376.5 -155.5t155.5 -376.5t-155.5 -377t-376.5 -156q-113 0 -215 45v-290h-51zM379 25q102 -45 215 -45 q217 0 369.5 152.5t152.5 369.5t-152.5 369.5t-369.5 152.5q-113 0 -215 -45v-45q98 49 215 49q201 0 341 -141.5t140 -340t-140 -340t-341 -141.5q-117 0 -215 50v-45zM379 94q100 -53 215 -53q190 0 325.5 135t135.5 325.5t-135.5 326t-325.5 135.5q-115 0 -215 -54v-47 q96 59 215 60q174 0 297 -123t123 -297t-123 -297t-297 -123q-119 0 -215 59v-47zM379 176q96 -63 215 -63q162 0 275.5 113.5t113.5 275.5t-113.5 275.5t-275.5 113.5q-119 0 -215 -64v-51q92 74 215 74q143 0 245.5 -101.5t102.5 -247t-102.5 -246.5t-245.5 -101 q-123 0 -215 73v-51zM379 283q88 -88 215 -88t217 90t90 217t-90 217t-217 90t-215 -88v-62q80 109 215 109q111 0 188.5 -78t77.5 -188.5t-77.5 -188t-188.5 -77.5q-135 0 -215 108v-61zM379 502q0 -88 62.5 -151.5t152.5 -63.5t152.5 63.5t62.5 151.5t-62.5 151.5 t-152.5 63.5t-152.5 -63.5t-62.5 -151.5z" />
<glyph unicode="&#xe0;" d="M61 502q0 221 156 376.5t377 155.5t376.5 -155.5t155.5 -376.5v-502h-10v502q0 217 -152.5 369.5t-369.5 152.5t-369.5 -152.5t-152.5 -369.5t152.5 -369.5t369.5 -152.5q113 0 215 45v45q-98 -49 -215 -50q-201 0 -341 141.5t-140 340t140 340t341 141.5t341 -141.5 t140 -339.5v-502h-20v502q0 190 -135.5 325.5t-326 135.5t-325.5 -135.5t-135 -326t135 -325.5t326 -135q115 0 215 53v47q-96 -59 -215 -59q-174 0 -297 123t-123 297t123 297t297 123t297 -123t123 -297v-502h-31v502q0 162 -113.5 275.5t-275.5 113.5t-275.5 -113.5 t-113.5 -275.5t113.5 -275.5t275.5 -113.5q119 0 215 63v51q-92 -74 -215 -73q-143 0 -245.5 101t-102.5 246.5t102.5 247t245.5 101.5t245.5 -101.5t102.5 -246.5v-502h-41v502q0 127 -90 217t-217 90t-217 -90t-90 -217t90 -217t217 -90t215 88v61q-80 -109 -215 -108 q-111 0 -188.5 77.5t-77.5 188t77.5 188.5t188.5 78t188.5 -78t77.5 -188v-502h-51v14q-102 -45 -215 -45q-221 0 -377 156t-156 377zM379 502q0 -88 62.5 -151.5t152.5 -63.5t152.5 63.5t62.5 151.5t-62.5 151.5t-152.5 63.5t-152.5 -63.5t-62.5 -151.5zM387 1233l23 47 l389 -182l-23 -47z" />
<glyph unicode="&#xe1;" d="M61 502q0 221 156 376.5t377 155.5t376.5 -155.5t155.5 -376.5v-502h-10v502q0 217 -152.5 369.5t-369.5 152.5t-369.5 -152.5t-152.5 -369.5t152.5 -369.5t369.5 -152.5q113 0 215 45v45q-98 -49 -215 -50q-201 0 -341 141.5t-140 340t140 340t341 141.5t341 -141.5 t140 -339.5v-502h-20v502q0 190 -135.5 325.5t-326 135.5t-325.5 -135.5t-135 -326t135 -325.5t326 -135q115 0 215 53v47q-96 -59 -215 -59q-174 0 -297 123t-123 297t123 297t297 123t297 -123t123 -297v-502h-31v502q0 162 -113.5 275.5t-275.5 113.5t-275.5 -113.5 t-113.5 -275.5t113.5 -275.5t275.5 -113.5q119 0 215 63v51q-92 -74 -215 -73q-143 0 -245.5 101t-102.5 246.5t102.5 247t245.5 101.5t245.5 -101.5t102.5 -246.5v-502h-41v502q0 127 -90 217t-217 90t-217 -90t-90 -217t90 -217t217 -90t215 88v61q-80 -109 -215 -108 q-111 0 -188.5 77.5t-77.5 188t77.5 188.5t188.5 78t188.5 -78t77.5 -188v-502h-51v14q-102 -45 -215 -45q-221 0 -377 156t-156 377zM379 502q0 -88 62.5 -151.5t152.5 -63.5t152.5 63.5t62.5 151.5t-62.5 151.5t-152.5 63.5t-152.5 -63.5t-62.5 -151.5zM387 1098l389 182 l23 -47l-389 -182z" />
<glyph unicode="&#xe2;" d="M61 502q0 221 156 376.5t377 155.5t376.5 -155.5t155.5 -376.5v-502h-10v502q0 217 -152.5 369.5t-369.5 152.5t-369.5 -152.5t-152.5 -369.5t152.5 -369.5t369.5 -152.5q113 0 215 45v45q-98 -49 -215 -50q-201 0 -341 141.5t-140 340t140 340t341 141.5t341 -141.5 t140 -339.5v-502h-20v502q0 190 -135.5 325.5t-326 135.5t-325.5 -135.5t-135 -326t135 -325.5t326 -135q115 0 215 53v47q-96 -59 -215 -59q-174 0 -297 123t-123 297t123 297t297 123t297 -123t123 -297v-502h-31v502q0 162 -113.5 275.5t-275.5 113.5t-275.5 -113.5 t-113.5 -275.5t113.5 -275.5t275.5 -113.5q119 0 215 63v51q-92 -74 -215 -73q-143 0 -245.5 101t-102.5 246.5t102.5 247t245.5 101.5t245.5 -101.5t102.5 -246.5v-502h-41v502q0 127 -90 217t-217 90t-217 -90t-90 -217t90 -217t217 -90t215 88v61q-80 -109 -215 -108 q-111 0 -188.5 77.5t-77.5 188t77.5 188.5t188.5 78t188.5 -78t77.5 -188v-502h-51v14q-102 -45 -215 -45q-221 0 -377 156t-156 377zM205 1098l389 182l389 -182l-22 -47l-367 172l-367 -172zM379 502q0 -88 62.5 -151.5t152.5 -63.5t152.5 63.5t62.5 151.5t-62.5 151.5 t-152.5 63.5t-152.5 -63.5t-62.5 -151.5z" />
<glyph unicode="&#xe3;" d="M61 502q0 221 156 376.5t377 155.5t376.5 -155.5t155.5 -376.5v-502h-10v502q0 217 -152.5 369.5t-369.5 152.5t-369.5 -152.5t-152.5 -369.5t152.5 -369.5t369.5 -152.5q113 0 215 45v45q-98 -49 -215 -50q-201 0 -341 141.5t-140 340t140 340t341 141.5t341 -141.5 t140 -339.5v-502h-20v502q0 190 -135.5 325.5t-326 135.5t-325.5 -135.5t-135 -326t135 -325.5t326 -135q115 0 215 53v47q-96 -59 -215 -59q-174 0 -297 123t-123 297t123 297t297 123t297 -123t123 -297v-502h-31v502q0 162 -113.5 275.5t-275.5 113.5t-275.5 -113.5 t-113.5 -275.5t113.5 -275.5t275.5 -113.5q119 0 215 63v51q-92 -74 -215 -73q-143 0 -245.5 101t-102.5 246.5t102.5 247t245.5 101.5t245.5 -101.5t102.5 -246.5v-502h-41v502q0 127 -90 217t-217 90t-217 -90t-90 -217t90 -217t217 -90t215 88v61q-80 -109 -215 -108 q-111 0 -188.5 77.5t-77.5 188t77.5 188.5t188.5 78t188.5 -78t77.5 -188v-502h-51v14q-102 -45 -215 -45q-221 0 -377 156t-156 377zM188 1055q0 115 59.5 190.5t166.5 75.5q53 0 95 -22.5t68 -54.5l51 -62q26 -31 62.5 -53.5t85.5 -22.5q84 0 128 60.5t44 154.5h51 q0 -113 -59 -189.5t-158 -76.5q-72 0 -125 33.5t-80.5 73.5t-71.5 74t-97 34q-80 0 -124 -60.5t-44 -154.5h-52zM379 502q0 -88 62.5 -151.5t152.5 -63.5t152.5 63.5t62.5 151.5t-62.5 151.5t-152.5 63.5t-152.5 -63.5t-62.5 -151.5z" />
<glyph unicode="&#xe4;" d="M61 502q0 221 156 376.5t377 155.5t376.5 -155.5t155.5 -376.5v-502h-10v502q0 217 -152.5 369.5t-369.5 152.5t-369.5 -152.5t-152.5 -369.5t152.5 -369.5t369.5 -152.5q113 0 215 45v45q-98 -49 -215 -50q-201 0 -341 141.5t-140 340t140 340t341 141.5t341 -141.5 t140 -339.5v-502h-20v502q0 190 -135.5 325.5t-326 135.5t-325.5 -135.5t-135 -326t135 -325.5t326 -135q115 0 215 53v47q-96 -59 -215 -59q-174 0 -297 123t-123 297t123 297t297 123t297 -123t123 -297v-502h-31v502q0 162 -113.5 275.5t-275.5 113.5t-275.5 -113.5 t-113.5 -275.5t113.5 -275.5t275.5 -113.5q119 0 215 63v51q-92 -74 -215 -73q-143 0 -245.5 101t-102.5 246.5t102.5 247t245.5 101.5t245.5 -101.5t102.5 -246.5v-502h-41v502q0 127 -90 217t-217 90t-217 -90t-90 -217t90 -217t217 -90t215 88v61q-80 -109 -215 -108 q-111 0 -188.5 77.5t-77.5 188t77.5 188.5t188.5 78t188.5 -78t77.5 -188v-502h-51v14q-102 -45 -215 -45q-221 0 -377 156t-156 377zM379 502q0 -88 62.5 -151.5t152.5 -63.5t152.5 63.5t62.5 151.5t-62.5 151.5t-152.5 63.5t-152.5 -63.5t-62.5 -151.5zM434 1126v226h51 v-226h-51zM700 1126v226h52v-226h-52z" />
<glyph unicode="&#xe5;" d="M61 502q0 221 156 376.5t377 155.5t376.5 -155.5t155.5 -376.5v-502h-10v502q0 217 -152.5 369.5t-369.5 152.5t-369.5 -152.5t-152.5 -369.5t152.5 -369.5t369.5 -152.5q113 0 215 45v45q-98 -49 -215 -50q-201 0 -341 141.5t-140 340t140 340t341 141.5t341 -141.5 t140 -339.5v-502h-20v502q0 190 -135.5 325.5t-326 135.5t-325.5 -135.5t-135 -326t135 -325.5t326 -135q115 0 215 53v47q-96 -59 -215 -59q-174 0 -297 123t-123 297t123 297t297 123t297 -123t123 -297v-502h-31v502q0 162 -113.5 275.5t-275.5 113.5t-275.5 -113.5 t-113.5 -275.5t113.5 -275.5t275.5 -113.5q119 0 215 63v51q-92 -74 -215 -73q-143 0 -245.5 101t-102.5 246.5t102.5 247t245.5 101.5t245.5 -101.5t102.5 -246.5v-502h-41v502q0 127 -90 217t-217 90t-217 -90t-90 -217t90 -217t217 -90t215 88v61q-80 -109 -215 -108 q-111 0 -188.5 77.5t-77.5 188t77.5 188.5t188.5 78t188.5 -78t77.5 -188v-502h-51v14q-102 -45 -215 -45q-221 0 -377 156t-156 377zM379 502q0 -88 62.5 -151.5t152.5 -63.5t152.5 63.5t62.5 151.5t-62.5 151.5t-152.5 63.5t-152.5 -63.5t-62.5 -151.5zM430 1218.5 q0 67.5 48 115.5t116 48t116 -48t48 -115.5t-48 -115.5t-116 -48t-116 48t-48 115.5zM479 1218.5q0 -47.5 34 -81t81 -33.5t81 33.5t34 81t-34 81t-81 33.5t-81 -33.5t-34 -81z" />
<glyph unicode="&#xe6;" horiz-adv-x="2015" d="M61 502q0 221 156 376.5t377 155.5q172 0 309 -97t193 -255q55 156 192 254t309 98q221 0 377 -155l-8 -9q-154 154 -369 154q-172 0 -307 -100.5t-188 -259.5q12 -43 18 -91q27 174 162 292t315 118q199 0 340 -141l-14 -15q-135 135 -325.5 135.5t-325.5 -135 t-135 -326t135 -325.5t325 -135q188 0 326 137l14 -14q-141 -141 -340 -141q-174 0 -305 107.5t-166 272.5v-131q63 -131 190.5 -210.5t280.5 -79.5q215 0 369 153l8 -8q-158 -158 -377 -158q-154 0 -278.5 78t-192.5 207v-254h-10v520q-8 211 -159.5 357.5t-362.5 146.5 q-217 0 -369.5 -152.5t-152.5 -369.5t152.5 -369.5t369.5 -152.5q113 0 215 45v45q-98 -49 -215 -50q-201 0 -341 141.5t-140 340t140 340t341 141.5t341 -141.5t140 -339.5v-502h-20v502q0 190 -135.5 325.5t-326 135.5t-325.5 -135.5t-135 -326t135 -325.5t326 -135 q115 0 215 53v47q-96 -59 -215 -59q-174 0 -297 123t-123 297t123 297t297 123t297 -123t123 -297v-502h-31v502q0 162 -113.5 275.5t-275.5 113.5t-275.5 -113.5t-113.5 -275.5t113.5 -275.5t275.5 -113.5q119 0 215 63v51q-92 -74 -215 -73q-143 0 -245.5 101 t-102.5 246.5t102.5 247t245.5 101.5t245.5 -101.5t102.5 -246.5v-502h-41v502q0 127 -90 217t-217 90t-217 -90t-90 -217t90 -217t217 -90t215 88v61q-80 -109 -215 -108q-111 0 -188.5 77.5t-77.5 188t77.5 188.5t188.5 78t188.5 -78t77.5 -188v-502h-51v14 q-102 -45 -215 -45q-221 0 -377 156t-156 377zM379 502q0 -88 62.5 -151.5t152.5 -63.5t152.5 63.5t62.5 151.5t-62.5 151.5t-152.5 63.5t-152.5 -63.5t-62.5 -151.5zM1178 502q0 174 122.5 297t297 123t296.5 -123l-22 -23q-115 115 -275 115q-162 0 -275.5 -113.5 t-113.5 -275.5t114 -274.5t275.5 -112.5t274.5 114l22 -22q-125 -125 -297 -125q-174 0 -296.5 123t-122.5 297zM1249 502q0 145 102.5 246.5t246 101.5t245.5 -102l-28 -29q-94 90 -218 90q-127 0 -217 -90t-90 -217t90 -217t217 -90q125 0 218 92l28 -29 q-100 -102 -245.5 -102t-247 101.5t-101.5 244.5zM1331 501.5q0 110.5 78 188.5t188 78q106 0 189 -78l-340 -340q61 -61 151 -61q88 0 152 63l37 -37q-80 -80 -189 -79q-111 0 -188.5 77.5t-77.5 188zM1382 502q0 -63 31 -111l293 293q-53 33 -109 33q-90 0 -152.5 -63.5 t-62.5 -151.5z" />
<glyph unicode="&#xe7;" horiz-adv-x="1032" d="M61 502q0 221 156 376.5t377 155.5t377 -155l-8 -9q-154 154 -369 154q-217 0 -369.5 -152.5t-152.5 -369.5t152.5 -368.5t369.5 -151.5q215 0 369 153l8 -8q-147 -147 -355 -158v-53q72 -16 118 -74.5t46 -134.5q0 -88 -62.5 -151.5t-152.5 -63.5t-152.5 63.5 t-62.5 151.5h49q0 -70 48.5 -118t118 -48t117.5 48.5t48 118t-48 117.5t-118 48v98q-213 10 -358.5 164t-145.5 367zM113 501.5q0 198.5 140 340t341 141.5q199 0 340 -141l-14 -15q-135 135 -326 135.5t-326 -135t-135 -326t135 -325.5t326 -135q188 0 326 137l14 -14 q-141 -141 -340 -141q-201 0 -341 140t-140 338.5zM174 502q0 174 123 297t297 123t297 -123l-23 -23q-115 115 -274 115q-162 0 -275.5 -113.5t-113.5 -275.5t113.5 -274.5t275.5 -112.5t274 114l23 -22q-125 -125 -297 -125q-174 0 -297 123t-123 297zM246 502 q0 145 102.5 246.5t245.5 101.5t246 -102l-29 -29q-94 90 -217 90q-127 0 -217 -90t-90 -217t90 -217t217 -90q125 0 217 92l29 -29q-100 -102 -245.5 -102t-247 101.5t-101.5 244.5zM328 501.5q0 110.5 77.5 188.5t188.5 78q106 0 188 -78l-37 -37q-68 63 -151 64 q-90 0 -152.5 -63.5t-62.5 -151.5t62.5 -150.5t152.5 -62.5q88 0 151 63l37 -37q-80 -80 -188 -79q-111 0 -188.5 77.5t-77.5 188z" />
<glyph unicode="&#xe8;" horiz-adv-x="1032" d="M61 502q0 221 156 376.5t377 155.5t377 -155l-8 -9q-154 154 -369 154q-217 0 -369.5 -152.5t-152.5 -369.5t152.5 -368.5t369.5 -151.5q215 0 369 153l8 -8q-158 -158 -377 -158q-221 0 -377 156t-156 377zM113 501.5q0 198.5 140 340t341 141.5q199 0 340 -141l-14 -15 q-135 135 -326 135.5t-326 -135t-135 -326t135 -325.5t326 -135q188 0 326 137l14 -14q-141 -141 -340 -141q-201 0 -341 140t-140 338.5zM174 502q0 174 123 297t297 123t297 -123l-23 -23q-115 115 -274 115q-162 0 -275.5 -113.5t-113.5 -275.5t113.5 -274.5 t275.5 -112.5t274 114l23 -22q-125 -125 -297 -125q-174 0 -297 123t-123 297zM246 502q0 145 102.5 246.5t245.5 101.5t246 -102l-29 -29q-94 90 -217 90q-127 0 -217 -90t-90 -217t90 -217t217 -90q125 0 217 92l29 -29q-100 -102 -245.5 -102t-247 101.5t-101.5 244.5z M309 1233l23 47l389 -182l-23 -47zM328 501.5q0 110.5 77.5 188.5t188.5 78q106 0 188 -78l-340 -340q61 -61 152 -61q88 0 151 63l37 -37q-80 -80 -188 -79q-111 0 -188.5 77.5t-77.5 188zM379 502q0 -63 31 -111l292 293q-53 33 -108 33q-90 0 -152.5 -63.5t-62.5 -151.5z " />
<glyph unicode="&#xe9;" horiz-adv-x="1032" d="M61 502q0 221 156 376.5t377 155.5t377 -155l-8 -9q-154 154 -369 154q-217 0 -369.5 -152.5t-152.5 -369.5t152.5 -368.5t369.5 -151.5q215 0 369 153l8 -8q-158 -158 -377 -158q-221 0 -377 156t-156 377zM113 501.5q0 198.5 140 340t341 141.5q199 0 340 -141l-14 -15 q-135 135 -326 135.5t-326 -135t-135 -326t135 -325.5t326 -135q188 0 326 137l14 -14q-141 -141 -340 -141q-201 0 -341 140t-140 338.5zM174 502q0 174 123 297t297 123t297 -123l-23 -23q-115 115 -274 115q-162 0 -275.5 -113.5t-113.5 -275.5t113.5 -274.5 t275.5 -112.5t274 114l23 -22q-125 -125 -297 -125q-174 0 -297 123t-123 297zM246 502q0 145 102.5 246.5t245.5 101.5t246 -102l-29 -29q-94 90 -217 90q-127 0 -217 -90t-90 -217t90 -217t217 -90q125 0 217 92l29 -29q-100 -102 -245.5 -102t-247 101.5t-101.5 244.5z M309 1098l389 182l23 -47l-389 -182zM328 501.5q0 110.5 77.5 188.5t188.5 78q106 0 188 -78l-340 -340q61 -61 152 -61q88 0 151 63l37 -37q-80 -80 -188 -79q-111 0 -188.5 77.5t-77.5 188zM379 502q0 -63 31 -111l292 293q-53 33 -108 33q-90 0 -152.5 -63.5 t-62.5 -151.5z" />
<glyph unicode="&#xea;" horiz-adv-x="1032" d="M61 502q0 221 156 376.5t377 155.5t377 -155l-8 -9q-154 154 -369 154q-217 0 -369.5 -152.5t-152.5 -369.5t152.5 -368.5t369.5 -151.5q215 0 369 153l8 -8q-158 -158 -377 -158q-221 0 -377 156t-156 377zM113 501.5q0 198.5 140 340t341 141.5q199 0 340 -141l-14 -15 q-135 135 -326 135.5t-326 -135t-135 -326t135 -325.5t326 -135q188 0 326 137l14 -14q-141 -141 -340 -141q-201 0 -341 140t-140 338.5zM127 1098l389 182l389 -182l-22 -47l-367 172l-366 -172zM174 502q0 174 123 297t297 123t297 -123l-23 -23q-115 115 -274 115 q-162 0 -275.5 -113.5t-113.5 -275.5t113.5 -274.5t275.5 -112.5t274 114l23 -22q-125 -125 -297 -125q-174 0 -297 123t-123 297zM246 502q0 145 102.5 246.5t245.5 101.5t246 -102l-29 -29q-94 90 -217 90q-127 0 -217 -90t-90 -217t90 -217t217 -90q125 0 217 92l29 -29 q-100 -102 -245.5 -102t-247 101.5t-101.5 244.5zM328 501.5q0 110.5 77.5 188.5t188.5 78q106 0 188 -78l-340 -340q61 -61 152 -61q88 0 151 63l37 -37q-80 -80 -188 -79q-111 0 -188.5 77.5t-77.5 188zM379 502q0 -63 31 -111l292 293q-53 33 -108 33q-90 0 -152.5 -63.5 t-62.5 -151.5z" />
<glyph unicode="&#xeb;" horiz-adv-x="1032" d="M61 502q0 221 156 376.5t377 155.5t377 -155l-8 -9q-154 154 -369 154q-217 0 -369.5 -152.5t-152.5 -369.5t152.5 -368.5t369.5 -151.5q215 0 369 153l8 -8q-158 -158 -377 -158q-221 0 -377 156t-156 377zM113 501.5q0 198.5 140 340t341 141.5q199 0 340 -141l-14 -15 q-135 135 -326 135.5t-326 -135t-135 -326t135 -325.5t326 -135q188 0 326 137l14 -14q-141 -141 -340 -141q-201 0 -341 140t-140 338.5zM174 502q0 174 123 297t297 123t297 -123l-23 -23q-115 115 -274 115q-162 0 -275.5 -113.5t-113.5 -275.5t113.5 -274.5 t275.5 -112.5t274 114l23 -22q-125 -125 -297 -125q-174 0 -297 123t-123 297zM246 502q0 145 102.5 246.5t245.5 101.5t246 -102l-29 -29q-94 90 -217 90q-127 0 -217 -90t-90 -217t90 -217t217 -90q125 0 217 92l29 -29q-100 -102 -245.5 -102t-247 101.5t-101.5 244.5z M328 501.5q0 110.5 77.5 188.5t188.5 78q106 0 188 -78l-340 -340q61 -61 152 -61q88 0 151 63l37 -37q-80 -80 -188 -79q-111 0 -188.5 77.5t-77.5 188zM356 1126v226h52v-226h-52zM379 502q0 -63 31 -111l292 293q-53 33 -108 33q-90 0 -152.5 -63.5t-62.5 -151.5z M623 1126v226h51v-226h-51z" />
<glyph unicode="&#xec;" horiz-adv-x="440" d="M14 1233l23 47l389 -182l-23 -47zM61 0v1004h11v-1004h-11zM113 0v1004h20v-1004h-20zM174 0v1004h31v-1004h-31zM246 0v1004h41v-1004h-41zM328 0v1004h51v-1004h-51z" />
<glyph unicode="&#xed;" horiz-adv-x="440" d="M14 1098l389 182l23 -47l-389 -182zM61 0v1004h11v-1004h-11zM113 0v1004h20v-1004h-20zM174 0v1004h31v-1004h-31zM246 0v1004h41v-1004h-41zM328 0v1004h51v-1004h-51z" />
<glyph unicode="&#xee;" horiz-adv-x="440" d="M-168 1098l389 182l389 -182l-22 -47l-367 172l-366 -172zM61 0v1004h11v-1004h-11zM113 0v1004h20v-1004h-20zM174 0v1004h31v-1004h-31zM246 0v1004h41v-1004h-41zM328 0v1004h51v-1004h-51z" />
<glyph unicode="&#xef;" horiz-adv-x="440" d="M61 0v1004h11v-1004h-11zM61 1126v226h52v-226h-52zM113 0v1004h20v-1004h-20zM174 0v1004h31v-1004h-31zM246 0v1004h41v-1004h-41zM328 0v1004h51v-1004h-51zM328 1126v226h51v-226h-51z" />
<glyph unicode="&#xf0;" d="M61 502q0 221 156 376.5t377 155.5q113 0 215 -45v275h-430v51h430v170h51v-983q0 -111 -77.5 -188.5t-188.5 -77.5t-188.5 77.5t-77.5 188t77.5 188.5t188.5 78q135 0 215 -109v62q-88 88 -215 88t-217 -90t-90 -217t90 -217t217 -90t217 90t90 217v983h41v-983 q0 -145 -102.5 -246.5t-245.5 -101.5t-245.5 101t-102.5 246.5t102.5 247t245.5 101.5q123 0 215 -74v51q-96 63 -215 64q-162 0 -275.5 -113.5t-113.5 -275.5t113.5 -275.5t275.5 -113.5t275.5 113.5t113.5 275.5v983h31v-983q0 -174 -123 -297t-297 -123t-297 123 t-123 297t123 297t297 123q119 0 215 -60v47q-100 53 -215 54q-190 0 -325.5 -135.5t-135.5 -326t135 -325.5t325.5 -135t326 135t135.5 326v983h20v-983q0 -199 -140 -340.5t-341 -141.5t-341 141.5t-140 340t140 340t341 141.5q117 0 215 -49v45q-102 45 -215 45 q-217 0 -369.5 -152.5t-152.5 -369.5t152.5 -369.5t369.5 -152.5t369.5 152.5t152.5 369.5v983h10v-983q0 -221 -155.5 -377t-376.5 -156t-377 156t-156 377zM379 502q0 -88 62.5 -151.5t152.5 -63.5t152.5 63.5t62.5 151.5t-62.5 151.5t-152.5 63.5t-152.5 -63.5 t-62.5 -151.5z" />
<glyph unicode="&#xf1;" d="M61 0v1004h11v-1004h-11zM113 0v1004h20v-1004h-20zM174 0v1004h31v-1004h-31zM188 1055q0 115 59.5 190.5t166.5 75.5q53 0 95 -22.5t68 -54.5l51 -62q26 -31 62.5 -53.5t85.5 -22.5q84 0 128 60.5t44 154.5h51q0 -113 -59 -189.5t-158 -76.5q-72 0 -125 33.5 t-80.5 73.5t-71.5 74t-97 34q-80 0 -124 -60.5t-44 -154.5h-52zM246 0v1004h41v-1004h-41zM328 0v1004h51v-15q102 45 215 45q221 0 376.5 -155.5t155.5 -376.5v-502h-10v502q0 217 -152.5 369.5t-369.5 152.5q-113 0 -215 -45v-45q98 49 215 49q201 0 341 -141.5 t140 -339.5v-502h-20v502q0 190 -135.5 325.5t-325.5 135.5q-115 0 -215 -54v-47q96 59 215 60q174 0 297 -123t123 -297v-502h-31v502q0 162 -113.5 275.5t-275.5 113.5q-119 0 -215 -64v-51q92 74 215 74q143 0 245.5 -101.5t102.5 -246.5v-502h-41v502q0 127 -90 217 t-217 90t-215 -88v-62q80 109 215 109q111 0 188.5 -78t77.5 -188v-502h-51v502q0 88 -62.5 151.5t-152.5 63.5t-152.5 -63.5t-62.5 -151.5v-502h-51z" />
<glyph unicode="&#xf2;" d="M61 502q0 221 156 376.5t377 155.5t376.5 -155.5t155.5 -376.5t-155.5 -377t-376.5 -156t-377 156t-156 377zM72 502q0 -217 152.5 -369.5t369.5 -152.5t369.5 152.5t152.5 369.5t-152.5 369.5t-369.5 152.5t-369.5 -152.5t-152.5 -369.5zM113 501.5q0 198.5 140 340 t341 141.5t341 -141.5t140 -340t-140 -340t-341 -141.5t-341 141.5t-140 340zM133 501.5q0 -190.5 135 -325.5t325.5 -135t326 135t135.5 325.5t-135.5 326t-326 135.5t-325.5 -135.5t-135 -326zM174 502q0 174 123 297t297 123t297 -123t123 -297t-123 -297t-297 -123 t-297 123t-123 297zM205 502q0 -162 113.5 -275.5t275.5 -113.5t275.5 113.5t113.5 275.5t-113.5 275.5t-275.5 113.5t-275.5 -113.5t-113.5 -275.5zM246 501.5q0 145.5 102.5 247t245.5 101.5t245.5 -101.5t102.5 -247t-102.5 -246.5t-245.5 -101t-245.5 101t-102.5 246.5z M287 502q0 -127 90 -217t217 -90t217 90t90 217t-90 217t-217 90t-217 -90t-90 -217zM328 501.5q0 110.5 77.5 188.5t188.5 78t188.5 -78t77.5 -188.5t-77.5 -188t-188.5 -77.5t-188.5 77.5t-77.5 188zM379 502q0 -88 62.5 -151.5t152.5 -63.5t152.5 63.5t62.5 151.5 t-62.5 151.5t-152.5 63.5t-152.5 -63.5t-62.5 -151.5zM387 1233l23 47l389 -182l-23 -47z" />
<glyph unicode="&#xf3;" d="M61 502q0 221 156 376.5t377 155.5t376.5 -155.5t155.5 -376.5t-155.5 -377t-376.5 -156t-377 156t-156 377zM72 502q0 -217 152.5 -369.5t369.5 -152.5t369.5 152.5t152.5 369.5t-152.5 369.5t-369.5 152.5t-369.5 -152.5t-152.5 -369.5zM113 501.5q0 198.5 140 340 t341 141.5t341 -141.5t140 -340t-140 -340t-341 -141.5t-341 141.5t-140 340zM133 501.5q0 -190.5 135 -325.5t325.5 -135t326 135t135.5 325.5t-135.5 326t-326 135.5t-325.5 -135.5t-135 -326zM174 502q0 174 123 297t297 123t297 -123t123 -297t-123 -297t-297 -123 t-297 123t-123 297zM205 502q0 -162 113.5 -275.5t275.5 -113.5t275.5 113.5t113.5 275.5t-113.5 275.5t-275.5 113.5t-275.5 -113.5t-113.5 -275.5zM246 501.5q0 145.5 102.5 247t245.5 101.5t245.5 -101.5t102.5 -247t-102.5 -246.5t-245.5 -101t-245.5 101t-102.5 246.5z M287 502q0 -127 90 -217t217 -90t217 90t90 217t-90 217t-217 90t-217 -90t-90 -217zM328 501.5q0 110.5 77.5 188.5t188.5 78t188.5 -78t77.5 -188.5t-77.5 -188t-188.5 -77.5t-188.5 77.5t-77.5 188zM379 502q0 -88 62.5 -151.5t152.5 -63.5t152.5 63.5t62.5 151.5 t-62.5 151.5t-152.5 63.5t-152.5 -63.5t-62.5 -151.5zM387 1098l389 182l23 -47l-389 -182z" />
<glyph unicode="&#xf4;" d="M61 502q0 221 156 376.5t377 155.5t376.5 -155.5t155.5 -376.5t-155.5 -377t-376.5 -156t-377 156t-156 377zM72 502q0 -217 152.5 -369.5t369.5 -152.5t369.5 152.5t152.5 369.5t-152.5 369.5t-369.5 152.5t-369.5 -152.5t-152.5 -369.5zM113 501.5q0 198.5 140 340 t341 141.5t341 -141.5t140 -340t-140 -340t-341 -141.5t-341 141.5t-140 340zM133 501.5q0 -190.5 135 -325.5t325.5 -135t326 135t135.5 325.5t-135.5 326t-326 135.5t-325.5 -135.5t-135 -326zM174 502q0 174 123 297t297 123t297 -123t123 -297t-123 -297t-297 -123 t-297 123t-123 297zM205 502q0 -162 113.5 -275.5t275.5 -113.5t275.5 113.5t113.5 275.5t-113.5 275.5t-275.5 113.5t-275.5 -113.5t-113.5 -275.5zM205 1098l389 182l389 -182l-22 -47l-367 172l-367 -172zM246 501.5q0 145.5 102.5 247t245.5 101.5t245.5 -101.5 t102.5 -247t-102.5 -246.5t-245.5 -101t-245.5 101t-102.5 246.5zM287 502q0 -127 90 -217t217 -90t217 90t90 217t-90 217t-217 90t-217 -90t-90 -217zM328 501.5q0 110.5 77.5 188.5t188.5 78t188.5 -78t77.5 -188.5t-77.5 -188t-188.5 -77.5t-188.5 77.5t-77.5 188z M379 502q0 -88 62.5 -151.5t152.5 -63.5t152.5 63.5t62.5 151.5t-62.5 151.5t-152.5 63.5t-152.5 -63.5t-62.5 -151.5z" />
<glyph unicode="&#xf5;" d="M61 502q0 221 156 376.5t377 155.5t376.5 -155.5t155.5 -376.5t-155.5 -377t-376.5 -156t-377 156t-156 377zM72 502q0 -217 152.5 -369.5t369.5 -152.5t369.5 152.5t152.5 369.5t-152.5 369.5t-369.5 152.5t-369.5 -152.5t-152.5 -369.5zM113 501.5q0 198.5 140 340 t341 141.5t341 -141.5t140 -340t-140 -340t-341 -141.5t-341 141.5t-140 340zM133 501.5q0 -190.5 135 -325.5t325.5 -135t326 135t135.5 325.5t-135.5 326t-326 135.5t-325.5 -135.5t-135 -326zM174 502q0 174 123 297t297 123t297 -123t123 -297t-123 -297t-297 -123 t-297 123t-123 297zM188 1055q0 115 59.5 190.5t166.5 75.5q53 0 95 -22.5t68 -54.5l51 -62q26 -31 62.5 -53.5t85.5 -22.5q84 0 128 60.5t44 154.5h51q0 -113 -59 -189.5t-158 -76.5q-72 0 -125 33.5t-80.5 73.5t-71.5 74t-97 34q-80 0 -124 -60.5t-44 -154.5h-52zM205 502 q0 -162 113.5 -275.5t275.5 -113.5t275.5 113.5t113.5 275.5t-113.5 275.5t-275.5 113.5t-275.5 -113.5t-113.5 -275.5zM246 501.5q0 145.5 102.5 247t245.5 101.5t245.5 -101.5t102.5 -247t-102.5 -246.5t-245.5 -101t-245.5 101t-102.5 246.5zM287 502q0 -127 90 -217 t217 -90t217 90t90 217t-90 217t-217 90t-217 -90t-90 -217zM328 501.5q0 110.5 77.5 188.5t188.5 78t188.5 -78t77.5 -188.5t-77.5 -188t-188.5 -77.5t-188.5 77.5t-77.5 188zM379 502q0 -88 62.5 -151.5t152.5 -63.5t152.5 63.5t62.5 151.5t-62.5 151.5t-152.5 63.5 t-152.5 -63.5t-62.5 -151.5z" />
<glyph unicode="&#xf6;" d="M61 502q0 221 156 376.5t377 155.5t376.5 -155.5t155.5 -376.5t-155.5 -377t-376.5 -156t-377 156t-156 377zM72 502q0 -217 152.5 -369.5t369.5 -152.5t369.5 152.5t152.5 369.5t-152.5 369.5t-369.5 152.5t-369.5 -152.5t-152.5 -369.5zM113 501.5q0 198.5 140 340 t341 141.5t341 -141.5t140 -340t-140 -340t-341 -141.5t-341 141.5t-140 340zM133 501.5q0 -190.5 135 -325.5t325.5 -135t326 135t135.5 325.5t-135.5 326t-326 135.5t-325.5 -135.5t-135 -326zM174 502q0 174 123 297t297 123t297 -123t123 -297t-123 -297t-297 -123 t-297 123t-123 297zM205 502q0 -162 113.5 -275.5t275.5 -113.5t275.5 113.5t113.5 275.5t-113.5 275.5t-275.5 113.5t-275.5 -113.5t-113.5 -275.5zM246 501.5q0 145.5 102.5 247t245.5 101.5t245.5 -101.5t102.5 -247t-102.5 -246.5t-245.5 -101t-245.5 101t-102.5 246.5z M287 502q0 -127 90 -217t217 -90t217 90t90 217t-90 217t-217 90t-217 -90t-90 -217zM328 501.5q0 110.5 77.5 188.5t188.5 78t188.5 -78t77.5 -188.5t-77.5 -188t-188.5 -77.5t-188.5 77.5t-77.5 188zM379 502q0 -88 62.5 -151.5t152.5 -63.5t152.5 63.5t62.5 151.5 t-62.5 151.5t-152.5 63.5t-152.5 -63.5t-62.5 -151.5zM434 1126v226h51v-226h-51zM700 1126v226h52v-226h-52z" />
<glyph unicode="&#xf8;" d="M61 502q0 221 156 376.5t377 155.5q207 0 358 -139l84 84l37 -37l-84 -84q137 -150 137 -356q0 -221 -155.5 -377t-376.5 -156q-207 0 -358 135l-82 -81l-37 36l82 82q-138 150 -138 361zM72 502q0 -217 152.5 -369.5t369.5 -152.5t369.5 152.5t152.5 369.5t-152.5 369.5 t-369.5 152.5t-369.5 -152.5t-152.5 -369.5zM113 501.5q0 198.5 140 340t341 141.5t341 -141.5t140 -340t-140 -340t-341 -141.5t-341 141.5t-140 340zM133 501.5q0 -190.5 135 -325.5t325.5 -135t326 135t135.5 325.5t-135.5 326t-326 135.5t-325.5 -135.5t-135 -326z M174 502q0 174 123 297t297 123t297 -123t123 -297t-123 -297t-297 -123t-297 123t-123 297zM205 502q0 -162 113.5 -275.5t275.5 -113.5t275.5 113.5t113.5 275.5t-113.5 275.5t-275.5 113.5t-275.5 -113.5t-113.5 -275.5zM246 501.5q0 145.5 102.5 247t245.5 101.5 t245.5 -101.5t102.5 -247t-102.5 -246.5t-245.5 -101t-245.5 101t-102.5 246.5zM287 502q0 -127 90 -217t217 -90t217 90t90 217t-90 217t-217 90t-217 -90t-90 -217zM328 501.5q0 110.5 77.5 188.5t188.5 78t188.5 -78t77.5 -188.5t-77.5 -188t-188.5 -77.5t-188.5 77.5 t-77.5 188zM379 502q0 -78 45 -135l303 303q-57 47 -133 47q-90 0 -152.5 -63.5t-62.5 -151.5zM463 332q57 -45 131 -45q90 0 152.5 63.5t62.5 151.5q0 74 -45 131z" />
<glyph unicode="&#xf9;" d="M61 502v502h11v-502q0 -217 152.5 -369.5t369.5 -152.5q113 0 215 45v45q-98 -49 -215 -50q-201 0 -341 141.5t-140 340.5v502h20v-502q0 -190 135 -325.5t326 -135.5q115 0 215 53v47q-96 -59 -215 -59q-174 0 -297 123t-123 297v502h31v-502q0 -162 113.5 -275.5 t275.5 -113.5q119 0 215 63v51q-92 -74 -215 -73q-143 0 -245.5 101t-102.5 247v502h41v-502q0 -127 90 -217t217 -90t215 88v61q-80 -109 -215 -108q-111 0 -188.5 77.5t-77.5 188.5v502h51v-502q0 -88 62.5 -151.5t152.5 -63.5t152.5 63.5t62.5 151.5v502h51v-1004h-51v14 q-102 -45 -215 -45q-221 0 -377 156t-156 377zM387 1233l23 47l389 -182l-23 -47zM901 0v1004h41v-1004h-41zM983 0v1004h31v-1004h-31zM1055 0v1004h20v-1004h-20zM1116 0v1004h10v-1004h-10z" />
<glyph unicode="&#xfa;" d="M61 502v502h11v-502q0 -217 152.5 -369.5t369.5 -152.5q113 0 215 45v45q-98 -49 -215 -50q-201 0 -341 141.5t-140 340.5v502h20v-502q0 -190 135 -325.5t326 -135.5q115 0 215 53v47q-96 -59 -215 -59q-174 0 -297 123t-123 297v502h31v-502q0 -162 113.5 -275.5 t275.5 -113.5q119 0 215 63v51q-92 -74 -215 -73q-143 0 -245.5 101t-102.5 247v502h41v-502q0 -127 90 -217t217 -90t215 88v61q-80 -109 -215 -108q-111 0 -188.5 77.5t-77.5 188.5v502h51v-502q0 -88 62.5 -151.5t152.5 -63.5t152.5 63.5t62.5 151.5v502h51v-1004h-51v14 q-102 -45 -215 -45q-221 0 -377 156t-156 377zM387 1098l389 182l23 -47l-389 -182zM901 0v1004h41v-1004h-41zM983 0v1004h31v-1004h-31zM1055 0v1004h20v-1004h-20zM1116 0v1004h10v-1004h-10z" />
<glyph unicode="&#xfb;" d="M61 502v502h11v-502q0 -217 152.5 -369.5t369.5 -152.5q113 0 215 45v45q-98 -49 -215 -50q-201 0 -341 141.5t-140 340.5v502h20v-502q0 -190 135 -325.5t326 -135.5q115 0 215 53v47q-96 -59 -215 -59q-174 0 -297 123t-123 297v502h31v-502q0 -162 113.5 -275.5 t275.5 -113.5q119 0 215 63v51q-92 -74 -215 -73q-143 0 -245.5 101t-102.5 247v502h41v-502q0 -127 90 -217t217 -90t215 88v61q-80 -109 -215 -108q-111 0 -188.5 77.5t-77.5 188.5v502h51v-502q0 -88 62.5 -151.5t152.5 -63.5t152.5 63.5t62.5 151.5v502h51v-1004h-51v14 q-102 -45 -215 -45q-221 0 -377 156t-156 377zM205 1098l389 182l389 -182l-22 -47l-367 172l-367 -172zM901 0v1004h41v-1004h-41zM983 0v1004h31v-1004h-31zM1055 0v1004h20v-1004h-20zM1116 0v1004h10v-1004h-10z" />
<glyph unicode="&#xfc;" d="M61 502v502h11v-502q0 -217 152.5 -369.5t369.5 -152.5q113 0 215 45v45q-98 -49 -215 -50q-201 0 -341 141.5t-140 340.5v502h20v-502q0 -190 135 -325.5t326 -135.5q115 0 215 53v47q-96 -59 -215 -59q-174 0 -297 123t-123 297v502h31v-502q0 -162 113.5 -275.5 t275.5 -113.5q119 0 215 63v51q-92 -74 -215 -73q-143 0 -245.5 101t-102.5 247v502h41v-502q0 -127 90 -217t217 -90t215 88v61q-80 -109 -215 -108q-111 0 -188.5 77.5t-77.5 188.5v502h51v-502q0 -88 62.5 -151.5t152.5 -63.5t152.5 63.5t62.5 151.5v502h51v-1004h-51v14 q-102 -45 -215 -45q-221 0 -377 156t-156 377zM434 1126v226h51v-226h-51zM700 1126v226h52v-226h-52zM901 0v1004h41v-1004h-41zM983 0v1004h31v-1004h-31zM1055 0v1004h20v-1004h-20zM1116 0v1004h10v-1004h-10z" />
<glyph unicode="&#xfd;" d="M61 502v502h11v-502q0 -217 152.5 -369.5t369.5 -152.5q113 0 215 45v45q-98 -49 -215 -50q-201 0 -341 141.5t-140 340.5v502h20v-502q0 -190 135 -325.5t326 -135.5q115 0 215 53v47q-96 -59 -215 -59q-174 0 -297 123t-123 297v502h31v-502q0 -162 113.5 -275.5 t275.5 -113.5q119 0 215 63v51q-92 -74 -215 -73q-143 0 -245.5 101t-102.5 247v502h41v-502q0 -127 90 -217t217 -90t215 88v61q-80 -109 -215 -108q-111 0 -188.5 77.5t-77.5 188.5v502h51v-502q0 -88 62.5 -151.5t152.5 -63.5t152.5 63.5t62.5 151.5v502h51v-994 q0 -111 -77.5 -188.5t-188.5 -77.5q-109 0 -188 80l36 37q63 -63 152 -64q88 -2 151.5 60.5t63.5 152.5v4q-102 -45 -215 -45q-221 0 -377 156t-156 377zM217 -365l8 9q154 -154 369 -154q217 0 369.5 151.5t152.5 368.5v994h10v-994q0 -221 -155.5 -376.5t-376.5 -155.5 q-219 -1 -377 157zM254 -328l14 15q137 -137 326 -138q190 0 325.5 135.5t135.5 325.5v994h20v-994q0 -199 -140 -339t-341 -140q-199 0 -340 141zM297 -285l22 23q113 -115 275 -115t275.5 112.5t113.5 274.5v994h31v-994q0 -174 -123 -297t-297 -123q-172 0 -297 125z M348 -233l29 28q92 -92 217 -92q127 0 217 90t90 217v994h41v-994q0 -145 -102.5 -246.5t-245.5 -99.5q-146 1 -246 103zM387 1098l389 182l23 -47l-389 -182z" />
<glyph unicode="&#xfe;" d="M61 -481v1966h11v-1966h-11zM113 -481v1966h20v-1966h-20zM174 -481v1966h31v-1966h-31zM246 -481v1966h41v-1966h-41zM328 -481v1966h51v-496q102 45 215 45q221 0 376.5 -155.5t155.5 -376.5t-155.5 -377t-376.5 -156q-113 0 -215 45v-495h-51zM379 25q102 -45 215 -45 q217 0 369.5 152.5t152.5 369.5t-152.5 369.5t-369.5 152.5q-113 0 -215 -45v-45q98 49 215 49q201 0 341 -141.5t140 -340t-140 -340t-341 -141.5q-117 0 -215 50v-45zM379 94q100 -53 215 -53q190 0 325.5 135t135.5 325.5t-135.5 326t-325.5 135.5q-115 0 -215 -54v-47 q96 59 215 60q174 0 297 -123t123 -297t-123 -297t-297 -123q-119 0 -215 59v-47zM379 176q96 -63 215 -63q162 0 275.5 113.5t113.5 275.5t-113.5 275.5t-275.5 113.5q-119 0 -215 -64v-51q92 74 215 74q143 0 245.5 -101.5t102.5 -247t-102.5 -246.5t-245.5 -101 q-123 0 -215 73v-51zM379 283q88 -88 215 -88t217 90t90 217t-90 217t-217 90t-215 -88v-62q80 109 215 109q111 0 188.5 -78t77.5 -188.5t-77.5 -188t-188.5 -77.5q-135 0 -215 108v-61zM379 502q0 -88 62.5 -151.5t152.5 -63.5t152.5 63.5t62.5 151.5t-62.5 151.5 t-152.5 63.5t-152.5 -63.5t-62.5 -151.5z" />
<glyph unicode="&#xff;" d="M61 502v502h11v-502q0 -217 152.5 -369.5t369.5 -152.5q113 0 215 45v45q-98 -49 -215 -50q-201 0 -341 141.5t-140 340.5v502h20v-502q0 -190 135 -325.5t326 -135.5q115 0 215 53v47q-96 -59 -215 -59q-174 0 -297 123t-123 297v502h31v-502q0 -162 113.5 -275.5 t275.5 -113.5q119 0 215 63v51q-92 -74 -215 -73q-143 0 -245.5 101t-102.5 247v502h41v-502q0 -127 90 -217t217 -90t215 88v61q-80 -109 -215 -108q-111 0 -188.5 77.5t-77.5 188.5v502h51v-502q0 -88 62.5 -151.5t152.5 -63.5t152.5 63.5t62.5 151.5v502h51v-994 q0 -111 -77.5 -188.5t-188.5 -77.5q-109 0 -188 80l36 37q63 -63 152 -64q88 -2 151.5 60.5t63.5 152.5v4q-102 -45 -215 -45q-221 0 -377 156t-156 377zM217 -365l8 9q154 -154 369 -154q217 0 369.5 151.5t152.5 368.5v994h10v-994q0 -221 -155.5 -376.5t-376.5 -155.5 q-219 -1 -377 157zM254 -328l14 15q137 -137 326 -138q190 0 325.5 135.5t135.5 325.5v994h20v-994q0 -199 -140 -339t-341 -140q-199 0 -340 141zM297 -285l22 23q113 -115 275 -115t275.5 112.5t113.5 274.5v994h31v-994q0 -174 -123 -297t-297 -123q-172 0 -297 125z M348 -233l29 28q92 -92 217 -92q127 0 217 90t90 217v994h41v-994q0 -145 -102.5 -246.5t-245.5 -99.5q-146 1 -246 103zM434 1126v226h51v-226h-51zM700 1126v226h52v-226h-52z" />
<glyph unicode="&#x152;" horiz-adv-x="2015" d="M61 502q0 221 156 376.5t377 155.5q172 0 309 -98t193 -254q55 156 192 254t309 98q221 0 377 -155l-8 -9q-154 154 -369 154q-172 0 -308 -100.5t-187 -257.5q12 -47 18 -93q27 174 162 292t315 118q199 0 340 -141l-14 -15q-135 135 -325.5 135.5t-325.5 -135 t-135 -326t135 -325.5t325 -135q188 0 326 137l14 -14q-141 -141 -340 -141q-180 0 -315 116.5t-162 290.5q-6 -49 -18 -92q51 -158 187 -257t308 -99q215 0 369 153l8 -8q-158 -158 -377 -158q-172 0 -309 97.5t-192 255.5q-55 -158 -192.5 -255.5t-309.5 -97.5 q-221 0 -377 156t-156 377zM72 502q0 -217 152.5 -369.5t369.5 -152.5t369.5 152.5t152.5 369.5t-152.5 369.5t-369.5 152.5t-369.5 -152.5t-152.5 -369.5zM113 501.5q0 198.5 140 340t341 141.5t341 -141.5t140 -340t-140 -340t-341 -141.5t-341 141.5t-140 340zM133 501.5 q0 -190.5 135 -325.5t325.5 -135t326 135t135.5 325.5t-135.5 326t-326 135.5t-325.5 -135.5t-135 -326zM174 502q0 174 123 297t297 123t297 -123t123 -297t-123 -297t-297 -123t-297 123t-123 297zM205 502q0 -162 113.5 -275.5t275.5 -113.5t275.5 113.5t113.5 275.5 t-113.5 275.5t-275.5 113.5t-275.5 -113.5t-113.5 -275.5zM246 501.5q0 145.5 102.5 247t245.5 101.5t245.5 -101.5t102.5 -247t-102.5 -246.5t-245.5 -101t-245.5 101t-102.5 246.5zM287 502q0 -127 90 -217t217 -90t217 90t90 217t-90 217t-217 90t-217 -90t-90 -217z M328 501.5q0 110.5 77.5 188.5t188.5 78t188.5 -78t77.5 -188.5t-77.5 -188t-188.5 -77.5t-188.5 77.5t-77.5 188zM379 502q0 -88 62.5 -151.5t152.5 -63.5t152.5 63.5t62.5 151.5t-62.5 151.5t-152.5 63.5t-152.5 -63.5t-62.5 -151.5zM1178 502q0 174 122.5 297t297 123 t296.5 -123l-22 -23q-115 115 -275 115q-162 0 -275.5 -113.5t-113.5 -275.5t114 -274.5t275.5 -112.5t274.5 114l22 -22q-125 -125 -297 -125q-174 0 -296.5 123t-122.5 297zM1249 502q0 145 102.5 246.5t246 101.5t245.5 -102l-28 -29q-94 90 -218 90q-127 0 -217 -90 t-90 -217t90 -217t217 -90q125 0 218 92l28 -29q-100 -102 -245.5 -102t-247 101.5t-101.5 244.5zM1331 501.5q0 110.5 78 188.5t188 78q106 0 189 -78l-340 -340q61 -61 151 -61q88 0 152 63l37 -37q-80 -80 -189 -79q-111 0 -188.5 77.5t-77.5 188zM1382 502 q0 -63 31 -111l293 293q-53 33 -109 33q-90 0 -152.5 -63.5t-62.5 -151.5z" />
<glyph unicode="&#x153;" horiz-adv-x="2015" d="M61 502q0 221 156 376.5t377 155.5q172 0 309 -98t193 -254q55 156 192 254t309 98q221 0 377 -155l-8 -9q-154 154 -369 154q-172 0 -308 -100.5t-187 -257.5q12 -47 18 -93q27 174 162 292t315 118q199 0 340 -141l-14 -15q-135 135 -325.5 135.5t-325.5 -135 t-135 -326t135 -325.5t325 -135q188 0 326 137l14 -14q-141 -141 -340 -141q-180 0 -315 116.5t-162 290.5q-6 -49 -18 -92q51 -158 187 -257t308 -99q215 0 369 153l8 -8q-158 -158 -377 -158q-172 0 -309 97.5t-192 255.5q-55 -158 -192.5 -255.5t-309.5 -97.5 q-221 0 -377 156t-156 377zM72 502q0 -217 152.5 -369.5t369.5 -152.5t369.5 152.5t152.5 369.5t-152.5 369.5t-369.5 152.5t-369.5 -152.5t-152.5 -369.5zM113 501.5q0 198.5 140 340t341 141.5t341 -141.5t140 -340t-140 -340t-341 -141.5t-341 141.5t-140 340zM133 501.5 q0 -190.5 135 -325.5t325.5 -135t326 135t135.5 325.5t-135.5 326t-326 135.5t-325.5 -135.5t-135 -326zM174 502q0 174 123 297t297 123t297 -123t123 -297t-123 -297t-297 -123t-297 123t-123 297zM205 502q0 -162 113.5 -275.5t275.5 -113.5t275.5 113.5t113.5 275.5 t-113.5 275.5t-275.5 113.5t-275.5 -113.5t-113.5 -275.5zM246 501.5q0 145.5 102.5 247t245.5 101.5t245.5 -101.5t102.5 -247t-102.5 -246.5t-245.5 -101t-245.5 101t-102.5 246.5zM287 502q0 -127 90 -217t217 -90t217 90t90 217t-90 217t-217 90t-217 -90t-90 -217z M328 501.5q0 110.5 77.5 188.5t188.5 78t188.5 -78t77.5 -188.5t-77.5 -188t-188.5 -77.5t-188.5 77.5t-77.5 188zM379 502q0 -88 62.5 -151.5t152.5 -63.5t152.5 63.5t62.5 151.5t-62.5 151.5t-152.5 63.5t-152.5 -63.5t-62.5 -151.5zM1178 502q0 174 122.5 297t297 123 t296.5 -123l-22 -23q-115 115 -275 115q-162 0 -275.5 -113.5t-113.5 -275.5t114 -274.5t275.5 -112.5t274.5 114l22 -22q-125 -125 -297 -125q-174 0 -296.5 123t-122.5 297zM1249 502q0 145 102.5 246.5t246 101.5t245.5 -102l-28 -29q-94 90 -218 90q-127 0 -217 -90 t-90 -217t90 -217t217 -90q125 0 218 92l28 -29q-100 -102 -245.5 -102t-247 101.5t-101.5 244.5zM1331 501.5q0 110.5 78 188.5t188 78q106 0 189 -78l-340 -340q61 -61 151 -61q88 0 152 63l37 -37q-80 -80 -189 -79q-111 0 -188.5 77.5t-77.5 188zM1382 502 q0 -63 31 -111l293 293q-53 33 -109 33q-90 0 -152.5 -63.5t-62.5 -151.5z" />
<glyph unicode="&#x178;" d="M61 911v93h11v-93q0 -217 152.5 -369.5t369.5 -152.5t369.5 152.5t152.5 369.5v93h10v-93q0 -178 -104 -318t-268 -192v-401h-52v389l-40 -6v-383h-41v379h-27h-14v-379h-31v381q-16 0 -41 4v-385h-21v389l-41 10v-399h-10v401q-164 51 -269.5 191.5t-105.5 318.5z M113 911v93h20v-93q0 -190 135 -325t325.5 -135t326 135t135.5 325v93h20v-93q0 -199 -140 -340t-341 -141t-341 141t-140 340zM174 911v93h31v-93q0 -162 113.5 -275.5t275.5 -113.5t275.5 114t113.5 275v93h31v-93q0 -174 -123 -296.5t-297 -122.5t-297 122.5t-123 296.5z M246 911v93h41v-93q0 -127 90 -217t217 -90t217 90t90 217v93h41v-93q0 -145 -102.5 -246.5t-245.5 -101.5t-245.5 101.5t-102.5 246.5zM328 911v93h51v-93q0 -88 62.5 -151.5t152.5 -63.5t152.5 63.5t62.5 151.5v93h51v-93q0 -111 -77.5 -188.5t-188.5 -77.5t-188.5 77.5 t-77.5 188.5zM434 1126v226h51v-226h-51zM700 1126v226h52v-226h-52z" />
<glyph unicode="&#x2dc;" horiz-adv-x="819" d="M-405 122q0 115 59.5 190.5t166.5 75.5q53 0 95 -22.5t68 -54.5l51 -62q26 -31 62.5 -53.5t85.5 -22.5q84 0 128 60.5t44 154.5h51q0 -113 -59 -189.5t-158 -76.5q-72 0 -125 33.5t-80.5 73.5t-71.5 74t-97 34q-80 0 -124 -60.5t-44 -154.5h-52z" />
<glyph unicode="&#x301;" horiz-adv-x="534" d="M61 1098l390 182l22 -47l-389 -182z" />
<glyph unicode="&#x303;" horiz-adv-x="933" d="M61 1055q0 115 59.5 190.5t166.5 75.5q53 0 95 -22.5t68 -54.5l51 -62q26 -31 62.5 -53.5t85.5 -22.5q84 0 128 60.5t44 154.5h51q0 -113 -59 -189.5t-158 -76.5q-72 0 -125 33.5t-80.5 73.5t-71.5 74t-97 34q-80 0 -124 -60.5t-44 -154.5h-52z" />
<glyph unicode="&#x304;" horiz-adv-x="962" d="M143 1212v52h676v-52h-676z" />
<glyph unicode="&#x2013;" horiz-adv-x="1024" d="M61 451v51h902v-51h-902z" />
<glyph unicode="&#x2014;" horiz-adv-x="2048" d="M61 451v51h1926v-51h-1926z" />
<glyph unicode="&#x2026;" horiz-adv-x="1320" d="M941 0v317h52v-317h-52zM1034 0v317h41v-317h-41zM1116 0v317h30v-317h-30zM1187 0v317h21v-317h-21zM1249 0v317h10v-317h-10zM501 0v317h52v-317h-52zM594 0v317h41v-317h-41zM676 0v317h30v-317h-30zM747 0v317h21v-317h-21zM809 0v317h10v-317h-10zM61 0v317h52v-317 h-52zM154 0v317h41v-317h-41zM236 0v317h30v-317h-30zM307 0v317h21v-317h-21zM369 0v317h10v-317h-10z" />
<glyph unicode="&#x2039;" horiz-adv-x="1056" d="M61 502l709 708l8 -6l-702 -702l702 -703l-8 -6zM133 502l674 674l14 -15l-659 -659l659 -660l-14 -14zM219 502l631 631l20 -23l-606 -608l606 -608l-20 -23zM322 502l579 579l29 -28l-551 -551l551 -551l-29 -29zM436 502l522 522l37 -37l-485 -485l485 -486l-37 -36z " />
<glyph unicode="&#x203a;" horiz-adv-x="1056" d="M61 16l486 486l-486 485l37 37l523 -522l-523 -522zM127 -49l551 551l-551 551l29 28l579 -579l-579 -580zM186 -106l607 608l-607 608l21 23l631 -631l-631 -631zM236 -158l659 660l-659 659l14 15l674 -674l-674 -674zM279 -201l702 703l-702 702l8 6l708 -708 l-708 -709z" />
<glyph unicode="&#x2122;" horiz-adv-x="2161" d="M910 0v1004h13l583 -1014l582 1014h12v-1004h-10v985l-41 -72v-913h-20v879l-41 -72v-807h-31v754l-41 -72v-682h-41v610l-41 -71v-539h-51v451l-277 -482l-278 484v-453h-51v541l-41 71v-612h-41v684l-41 72v-756h-31v809l-41 70v-879h-20v915l-41 70v-985h-11z M970 1004h24l512 -891l512 891h25l-537 -932zM1039 1004h35l432 -750l430 750h35l-465 -811zM1121 1004h47l338 -586l336 586h47l-383 -668zM1216 1004h59l231 -402l232 402h59l-291 -504zM10 686v51h830v-51h-256v-686h-52v686h-40v-686h-41v686h-41v-686h-31v686h-41v-686 h-21v686h-41v-686h-10v686h-256zM10 778v41h830v-41h-830zM10 860v31h830v-31h-830zM10 932v20h830v-20h-830zM10 993v11h830v-11h-830z" />
<glyph unicode="&#xe000;" horiz-adv-x="1004" d="M0 1005h1005v-1005h-1005v1005z" />
<glyph unicode="&#xfb01;" horiz-adv-x="1095" d="M716 0v1004h11v-1004h-11zM716 1126v226h11v-226h-11zM768 0v1004h20v-1004h-20zM768 1126v226h20v-226h-20zM829 0v1004h31v-1004h-31zM829 1126v226h31v-226h-31zM901 0v1004h41v-1004h-41zM901 1126v226h41v-226h-41zM983 0v1004h51v-1004h-51zM983 1126v226h51v-226 h-51zM61 0v963q0 221 156 376.5t377 155.5v-10q-217 0 -369.5 -152.5t-152.5 -369.5v-963h-11zM113 0v963q0 201 140 341t341 140v-21q-190 0 -325.5 -135t-135.5 -325v-963h-20zM174 0v963q0 174 123 296.5t297 122.5v-30q-162 0 -275.5 -114t-113.5 -275v-963h-31zM246 0 v963q0 143 102.5 245.5t245.5 102.5v-41q-127 0 -217 -90t-90 -217v-963h-41zM328 0v963q0 111 77.5 188.5t188.5 77.5v-51q-90 0 -152.5 -62.5t-62.5 -152.5h215v-11h-215v-41h215v-20h-215v-41h215v-31h-215v-41h215v-41h-215v-41h215v-51h-215v-645h-51z" />
<glyph unicode="&#xfb02;" horiz-adv-x="1248" d="M716 502v983h11v-983q0 -217 152.5 -369.5t369.5 -152.5v-11q-221 0 -377 156t-156 377zM768 502v983h20v-983q0 -190 135 -325.5t326 -135.5v-21q-201 0 -341 141.5t-140 340.5zM829 502v983h31v-983q0 -162 113.5 -275.5t275.5 -113.5v-31q-174 0 -297 123t-123 297z M901 502v983h41v-983q0 -127 90 -217t217 -90v-41q-143 0 -245.5 101.5t-102.5 246.5zM983 502v983h51v-983q0 -88 62.5 -151.5t152.5 -63.5v-51q-111 0 -188.5 77.5t-77.5 188.5zM61 0v963q0 221 156 376.5t377 155.5v-10q-217 0 -369.5 -152.5t-152.5 -369.5v-963h-11z M113 0v963q0 201 140 341t341 140v-21q-190 0 -325.5 -135t-135.5 -325v-963h-20zM174 0v963q0 174 123 296.5t297 122.5v-30q-162 0 -275.5 -114t-113.5 -275v-963h-31zM246 0v963q0 143 102.5 245.5t245.5 102.5v-41q-127 0 -217 -90t-90 -217v-963h-41zM328 0v963 q0 111 77.5 188.5t188.5 77.5v-51q-90 0 -152.5 -62.5t-62.5 -152.5h215v-11h-215v-41h215v-20h-215v-41h215v-31h-215v-41h215v-41h-215v-41h215v-51h-215v-645h-51z" />
<glyph unicode="&#xfb03;" horiz-adv-x="1750" d="M1371 0v1004h11v-1004h-11zM1371 1126v226h11v-226h-11zM1423 0v1004h20v-1004h-20zM1423 1126v226h20v-226h-20zM1484 0v1004h31v-1004h-31zM1484 1126v226h31v-226h-31zM1556 0v1004h41v-1004h-41zM1556 1126v226h41v-226h-41zM1638 0v1004h51v-1004h-51zM1638 1126 v226h51v-226h-51zM716 0v963q0 221 156 376.5t377 155.5v-10q-217 0 -369.5 -152.5t-152.5 -369.5v-963h-11zM768 0v963q0 201 140 341t341 140v-21q-190 0 -325.5 -135t-135.5 -325v-963h-20zM829 0v963q0 174 123 296.5t297 122.5v-30q-162 0 -275.5 -114t-113.5 -275 v-963h-31zM901 0v963q0 143 102.5 245.5t245.5 102.5v-41q-127 0 -217 -90t-90 -217v-963h-41zM983 0v963q0 111 77.5 188.5t188.5 77.5v-51q-90 0 -152.5 -62.5t-62.5 -152.5h215v-11h-215v-41h215v-20h-215v-41h215v-31h-215v-41h215v-41h-215v-41h215v-51h-215v-645h-51z M61 0v963q0 221 156 376.5t377 155.5v-10q-217 0 -369.5 -152.5t-152.5 -369.5v-963h-11zM113 0v963q0 201 140 341t341 140v-21q-190 0 -325.5 -135t-135.5 -325v-963h-20zM174 0v963q0 174 123 296.5t297 122.5v-30q-162 0 -275.5 -114t-113.5 -275v-963h-31zM246 0v963 q0 143 102.5 245.5t245.5 102.5v-41q-127 0 -217 -90t-90 -217v-963h-41zM328 0v963q0 111 77.5 188.5t188.5 77.5v-51q-90 0 -152.5 -62.5t-62.5 -152.5h215v-11h-215v-41h215v-20h-215v-41h215v-31h-215v-41h215v-41h-215v-41h215v-51h-215v-645h-51z" />
<glyph unicode="&#xfb04;" horiz-adv-x="1903" d="M1371 502v983h11v-983q0 -217 152.5 -369.5t369.5 -152.5v-11q-221 0 -377 156t-156 377zM1423 502v983h20v-983q0 -190 135 -325.5t326 -135.5v-21q-201 0 -341 141.5t-140 340.5zM1484 502v983h31v-983q0 -162 113.5 -275.5t275.5 -113.5v-31q-174 0 -297 123t-123 297 zM1556 502v983h41v-983q0 -127 90 -217t217 -90v-41q-143 0 -245.5 101.5t-102.5 246.5zM1638 502v983h51v-983q0 -88 62.5 -151.5t152.5 -63.5v-51q-111 0 -188.5 77.5t-77.5 188.5zM716 0v963q0 221 156 376.5t377 155.5v-10q-217 0 -369.5 -152.5t-152.5 -369.5v-963h-11 zM768 0v963q0 201 140 341t341 140v-21q-190 0 -325.5 -135t-135.5 -325v-963h-20zM829 0v963q0 174 123 296.5t297 122.5v-30q-162 0 -275.5 -114t-113.5 -275v-963h-31zM901 0v963q0 143 102.5 245.5t245.5 102.5v-41q-127 0 -217 -90t-90 -217v-963h-41zM983 0v963 q0 111 77.5 188.5t188.5 77.5v-51q-90 0 -152.5 -62.5t-62.5 -152.5h215v-11h-215v-41h215v-20h-215v-41h215v-31h-215v-41h215v-41h-215v-41h215v-51h-215v-645h-51zM61 0v963q0 221 156 376.5t377 155.5v-10q-217 0 -369.5 -152.5t-152.5 -369.5v-963h-11zM113 0v963 q0 201 140 341t341 140v-21q-190 0 -325.5 -135t-135.5 -325v-963h-20zM174 0v963q0 174 123 296.5t297 122.5v-30q-162 0 -275.5 -114t-113.5 -275v-963h-31zM246 0v963q0 143 102.5 245.5t245.5 102.5v-41q-127 0 -217 -90t-90 -217v-963h-41zM328 0v963q0 111 77.5 188.5 t188.5 77.5v-51q-90 0 -152.5 -62.5t-62.5 -152.5h215v-11h-215v-41h215v-20h-215v-41h215v-31h-215v-41h215v-41h-215v-41h215v-51h-215v-645h-51z" />
</font>
</defs>
</svg>
