<?xml version="1.0" standalone="no"?>
<!DOCTYPE svg PUBLIC "-//W3C//DTD SVG 1.1//EN" "http://www.w3.org/Graphics/SVG/1.1/DTD/svg11.dtd" >
<svg xmlns="http://www.w3.org/2000/svg">
<metadata>
This is a custom SVG webfont generated by Font Squirrel.
Copyright   : Copyright c 2005 by Exclamachine All rights reserved
Designer    : Choz Cunningham
Foundry     : Exclamachine
Foundry URL : httpwwwexclamachinecom
</metadata>
<defs>
<font id="webfontkKZgY9fD" horiz-adv-x="557" >
<font-face units-per-em="2048" ascent="1638" descent="-410" />
<missing-glyph horiz-adv-x="704" />
<glyph unicode=" "  horiz-adv-x="704" />
<glyph unicode="&#x09;" horiz-adv-x="704" />
<glyph unicode="&#xa0;" horiz-adv-x="704" />
<glyph unicode="!" horiz-adv-x="151" d="M0 98v17q6 25 22.5 41t35 16t36.5 -12q14 -10 25 -41v-17q-4 -33 -19 -49q-16 -16 -39 -16v-2q-18 0 -38 16q-19 16 -23 47zM0 1139q6 27 23 43q14 14 34 14q18 0 37 -12q14 -10 25 -39l-6 -70q-2 -20 -3 -39.5t-4 -40.5q-2 -29 -6 -77q-2 -25 -2 -60q0 -27 1 -72t1 -61 q0 -41 4 -107q2 -37 11 -104l12 -123q-4 -35 -18 -49q-18 -18 -39 -18q-23 0 -39 14q-18 16 -23 47q4 53 8 92t7 72q4 45 4 61q0 10 1 32t1 34v78q0 61 -2 102q0 2 -1 11.5t-1 17.5q0 12 -5 45q0 12 -2 25.5t-4 29.5l-4 30.5t-2 28.5q-2 29 -4 54q-4 33 -4 41z" />
<glyph unicode="&#x22;" horiz-adv-x="497" d="M0 1167v11q0 27 16 55q23 20 50 20q23 0 38 -16q14 -14 16.5 -36.5t-16.5 -49.5q-4 -20 -8 -70q-4 -35 0 -69q2 -23 17 -90q14 -66 20 -88q8 -25 14 -60q-4 -33 -18 -49q-18 -18 -39 -18q-18 0 -38.5 16t-22.5 45q4 27 8 104q0 18 1 36t2 27t1 11q0 14 -2 21q-3 9 -6 30 q-2 27 -13 60q-14 45 -16 59q-4 16 -4 51zM326 1194q0 27 16 55q23 20 47 21h2q25 0 39 -15q12 -12 16 -38q2 -20 -18 -50q-2 -10 -3 -21t-2 -25.5t-1 -22.5q-4 -35 0 -70q4 -37 8 -59q2 -10 7 -29.5t7 -30.5q4 -14 7.5 -29.5t7.5 -29.5q8 -25 14 -59q-2 -33 -18 -50 q-18 -18 -39 -18q-18 0 -39 16q-18 16 -23 47q6 37 6 76q0 27 5 76v-2l2 -4v12q0 4 -1 11.5t-1 9.5q0 12 -3 18q0 2 -1 7t-2 11.5t-1 12.5q-2 18 -14 59q-6 20 -14 62q-4 20 -4 59z" />
<glyph unicode="#" horiz-adv-x="903" d="M0 385q0 -18 16 -39q16 -18 47 -22q37 4 52 8q12 2 26.5 5t26.5 5q-16 -57 -39 -154l-33 -151q3 -28 19 -43q14 -14 35 -19h6q16 0 30 9q18 12 27 39q4 72 10 108l17 109q3 25 6 55q2 14 5 30.5t5 32.5l94 19q47 10 94 12q12 2 37 2q6 0 18.5 -1t20.5 -1 q-14 -59 -35 -174q-10 -59 -22 -178q4 -31 22 -47q16 -14 37 -15h2q20 0 37 16.5t21 51.5q0 113 2 170q2 82 12 170l45 -6q29 -4 43 -8l2 -2l-3 1q-3 1 -5 1t-6 1t-6 1t-7 1l-4 1q1 -2 4 -2h7q2 0 4 -1t4 -1t4 -1t4 -1q12 -4 18 -5q10 0 17 -2l31 -6q10 -2 28 -2q10 0 31 4 q10 2 24 17q20 27 21 45q0 25 -12 39q-12 16 -33 18q-23 4 -45 -8q-8 0 -18.5 -1t-20.5 -1h-21h-49h-47l7 35.5l8 40.5q4 33 16 77q16 66 27 99q20 -2 40.5 -5t38.5 -5q29 -4 78 -9q27 6 43 23q14 14 15 35q0 18 -13 37q-10 14 -41 24l-32.5 -4t-32.5 -2q-10 0 -32.5 -2 t-35.5 -2q23 66 76 192l84 191q0 29 -12.5 47t-28.5 25q-4 2 -16 2q-10 0 -23 -7q-20 -8 -35 -32q-6 -23 -28.5 -96.5t-32.5 -114.5l-55 -211q-31 -2 -88.5 -2t-86.5 4l-49 6q-33 4 -49 8q22 80 49 160l54 158q0 29 -12.5 47t-29 24t-38.5 -4q-20 -8 -35 -33l-33 -167 l-31 -170q-16 4 -49 13t-49 13q-25 8 -49.5 14.5l-48.5 12.5q-29 0 -45 -15q-18 -14 -21 -32q-4 -20 6 -39q8 -18 35 -31q35 -4 105 -8q16 0 51 -2t53 -2l-16 -96q-12 -66 -21 -99q-4 -16 -7 -31.5t-7 -31.5l-16 -64h-37q-29 4 -43 4q-6 0 -22.5 1t-22.5 1q-35 -4 -50 -18 q-18 -19 -18 -39zM266 438q2 10 5 33t5 33l11 51q0 4 7 42t11 58l25 99q10 0 20 -1t17.5 -2t19.5 -1q10 0 28.5 -2.5t26.5 -2.5q27 -2 80 -10q18 -2 39 -5t41 -5l-12 -45q-2 -8 -5 -22.5t-5 -22.5l-12.5 -43t-10.5 -43l-20 -86q-2 0 -6.5 -1t-6.5 -1h-12q-137 -17 -246 -23z " />
<glyph unicode="$" horiz-adv-x="862" d="M0 948v8l6 41q4 23 10 37q10 25 25 41q18 20 37 35q14 10 43 27q20 12 41 20q59 23 108 37q61 16 113 23q0 8 -1 22t-1 21v43q8 25 14 35t33 20q6 2 16 2h9q8 -2 20 -8q31 -23 33 -47q4 -27 -10 -43q0 -4 -1 -11.5t-1 -9.5v-22q43 -2 104 -21q51 -14 100 -49 q16 -18 17 -45q0 -18 -12.5 -34.5t-32.5 -18.5q-25 -4 -52 10q-6 4 -13 7t-11 4t-7 3l-3 2q-2 2 2 4q-6 2 -14.5 6.5t-10.5 4.5q-33 12 -76 18q-8 -166 -10 -244q-2 -109 4 -243v-17q0 -2 1 -6t1 -8l123 -88q49 -37 109 -96q55 -55 84 -103q35 -57 41 -115q2 -8 2 -24 q0 -43 -19 -70q-20 -37 -63 -63q-29 -18 -88 -33q-49 -12 -92 -12h-27q0 -6 1 -17.5t3 -17.5t3 -16.5t1 -16.5q-2 -35 -18 -49q-18 -18 -39 -18q-18 0 -39 16t-23 45q0 8 -1 22.5t-1 20.5t-1 20.5t-1 22.5q-76 14 -153.5 47t-145.5 74q-37 23 -55 49q-14 20 -49 55 q-12 25 -8 49q2 20 18 33q15 12 37 12q27 0 45 -16q14 -14 39 -47q6 -8 43 -45q51 -41 106 -68q70 -33 121 -45l-6 230l-6 227q-33 23 -119 74q-35 20 -102 69q-27 18 -58 47q-34 31 -67 68q-35 39 -56 76q-20 28 -20 59zM86 958q4 -37 20 -61q25 -37 41 -53 q6 -6 15.5 -16.5t17.5 -18.5t17 -14l49 -41q37 -31 78 -60l49 -31.5l45 -29.5q-4 86 -17 241q-6 80 -14 240q-59 -4 -102 -14q-39 -10 -97 -33q-31 -12 -34 -14q-10 -6 -35 -25q-18 -14 -27 -31q-8 -19 -6 -39zM485 512q6 -72 23 -215l29 -217q4 0 11 -1t9 -1h21q33 0 55 2 t63 14q31 9 49 31q18 20 13 57q-10 55 -33 99q-23 41 -63 86q-43 47 -82 77q-25 21 -95 68z" />
<glyph unicode="%" horiz-adv-x="1445" d="M0 825v15q4 31 18 102q10 51 25 76q20 37 45 67q27 33 70 76q31 31 45 41q18 14 43 21q20 6 45 6h55q12 -4 25 -12q10 -6 18 -21q4 -8 8 -15t6.5 -15.5t6.5 -16.5l8 -16q6 -16 2 -37q37 -55 45 -72q23 -47 31 -86q2 -12 5 -22.5t5 -22.5l6 -49q4 -31 0 -70 q-4 -41 -14 -74q-12 -35 -35 -67q-20 -29 -57 -41q-25 -10 -46 -10q-16 0 -49 -4q-18 -2 -57 8q-27 8 -70 28q-25 12 -69 45q-34 25 -62 56q-23 27 -41 61q-12 24 -12 49zM72 844q-2 -45 32 -90q23 -25 48 -43q33 -23 63 -37q37 -16 70 -23q29 -6 65 2q27 6 49 31 q18 20 25 70q4 53 -4 88q-10 47 -27 80q-20 41 -43 71q-47 63 -51 70q-15 31 -6 55q-20 0 -37 -8q-18 -10 -33 -20q-33 -25 -69 -64q-35 -37 -58 -86q-20 -45 -24 -96zM236 -139q8 43 20 78q20 53 33 81q18 43 37 80q14 29 34 66q4 10 12.5 22.5t10.5 16.5q98 184 190 325 l201 318q12 20 24.5 38.5t22.5 35.5l47 73l39 66l41 72q8 14 47 67q29 39 52 60q23 18 32 20h13q16 0 26 -4l2 -2h2q16 -10 27 -29q6 -10 6 -31q0 -14 -10 -28q-9 -12 -25 -19q-16 -14 -49 -51t-47 -57q-23 -31 -43 -62q-35 -51 -39 -55l-51 -70l-51 -69q-98 -137 -207 -307 q-92 -143 -174 -328l-31 -74l-29 -74q-14 -41 -24 -88q-6 -29 -27 -90q10 -33 -2 -53q-12 -23 -31 -29q-12 -4 -18 -4q-12 0 -25 6q-23 10 -36 37q-6 25 0 62zM862 287q2 35 17 71q4 10 11 35t11 35q12 29 29 45l20.5 21.5t16.5 17.5q23 23 61 47q29 18 72 33q4 16 12 24 q12 12 23 15q18 4 30.5 2t32.5 -17q37 -33 82 -88q35 -45 63 -100l35 -66q16 -31 23 -69q0 -6 2 -19.5t4 -19.5t4 -19.5t4 -19.5q6 -37 6 -39v-6q0 -12 -4 -33q-10 -51 -41 -82q-33 -33 -73.5 -47t-90.5 -14q-47 0 -90 18q-41 16 -61 23q-25 8 -60 31q-41 31 -51 40 q-16 16 -45 54q-14 18 -31 59q-12 31 -12 68zM948 281q-2 -39 15 -72q20 -37 46.5 -61.5t65.5 -45.5q37 -20 66 -28q31 -8 57 -11q31 -2 66 5q29 6 53 26.5t24 57.5q0 35 -8 61q-4 16 -9 30.5t-9 30.5q0 4 -2 8.5t-4 8.5l-9 16l7 -12q-29 53 -64 102q-37 53 -76 92 q-18 -8 -24 -10q-39 -4 -70 -20.5t-59 -44.5q-23 -23 -45 -64q-17 -30 -21 -69z" />
<glyph unicode="&#x26;" horiz-adv-x="1089" d="M0 1135v12q2 18 20 33q16 12 35 12h2q25 0 43 -16l97 -136q49 45 79 66q43 29 93 39q25 6 57 2q8 0 28.5 -2t28.5 -2q12 0 29 -13q6 -6 12 -9t11 -7q33 -25 45 -55q18 -43 20 -78q3 -40 -6 -80q-8 -41 -33 -63q-27 -18 -55 -11q-23 6 -39 39q0 2 -1 7.5t-3 7.5 q-4 23 2 37q8 20 16 26q8 37 -4 64q-12 25 -39 30q-31 8 -59 0q-35 -10 -72 -32l-28 -21l-12.5 -12t-14.5 -12l84 -125l84 -125q33 16 69 16q10 -2 18.5 -10t10.5 -21q2 -20 -10 -37q-10 -12 -35 -26l70 -105l71 -102q2 -4 8.5 -11t6.5 -9q6 -10 14 -21q88 70 174 164 q84 92 146 196q22 18 43 19q20 0 36.5 -10.5t22.5 -30.5v-16q0 -12 -6 -31q-72 -102 -133 -172q-76 -86 -160 -150l-33 -24l-18.5 -12.5t-16.5 -10.5l33 -49q8 -12 17.5 -23.5t17.5 -23.5q4 -8 10 -17.5t10.5 -17.5t10.5 -16t12 -17q0 2 4 -2l8 -12l17 -16l8 -9l10 -10 q4 -2 6 -5q4 -3 10 -9v-2q2 -2 2 -4l5 -4l2 -2q8 -27 2 -50q-4 -16 -25 -28q-16 -8 -29 -8h-8q-25 4 -43 22q-41 47 -76 113l-63 119q-8 12 -14 22l-43 -25l-22.5 -11l-22.5 -11l-52 -25q-6 -2 -18 -8t-18.5 -8t-14.5 -6t-14 -6t-16.5 -5t-14.5 -6q-29 -8 -39 -10 q-20 -6 -51 -14q-16 -4 -39 -6q-33 -4 -53 -4q-2 0 -57 6q-18 2 -52 14q-23 8 -39 28.5t-16 45.5q0 12 -4 41q-4 25 4 39q16 37 23 55q8 27 28 49q4 6 12.5 15.5t16.5 21.5q16 23 37 47l47 55l51 56q-41 0 -80 6t-67 29q-35 29 -48 55q-16 41 -14 92q0 14 8 47q8 29 19 51 q2 4 10 22.5t14 29.5l29 45q-10 10 -25.5 29.5t-33.5 37.5l-62 68q-8 19 -8 37zM113 268q-6 -29 2 -49q6 -18 26 -24q29 -8 47 -9q25 0 56 7q10 2 29.5 7l27.5 7q10 2 28.5 8t20.5 6q8 2 18.5 7t12.5 5q109 47 199 107l-72 121q-29 49 -76 117q-2 2 -5 8t-5 8t-10 14 q-14 -4 -39 -8l-25 -20q-6 -6 -13 -10.5t-11 -8.5l-17 -14l-8 -6q-18 -14 -39 -39q-2 -2 -20.5 -22.5t-26.5 -30.5q-14 -18 -43 -60q-22 -31 -37 -61q-12 -27 -20 -60zM133 764q-2 -6 4 -31l6 -31q16 -12 23 -20q8 -10 24 -14q39 -8 82 -9q33 0 78 11h2q2 2 6 2l4 4l-86 110 l-86 107q-18 -25 -36 -64q-15 -30 -21 -65z" />
<glyph unicode="'" horiz-adv-x="155" d="M0 834q0 16 4 49q8 61 10 94q3 55 0 110q-2 33 -10 109q6 31 27 45q18 12 35 12h6q23 -4 37 -20q16 -20 14 -51q-8 -37 -21 -84q-10 -35 -20 -94q-10 -49 -6 -97q4 -49 22 -80q2 -4 7.5 -8t7.5 -8q4 -4 7 -9t7 -9q4 -20 4 -25q0 -16 -2 -23q-9 -22 -25 -30q-12 -6 -26 -6 h-10q-25 4 -43 22q-8 20 -13 29q-8 16 -10 26q-2 17 -2 48z" />
<glyph unicode="(" horiz-adv-x="460" d="M0 420v49q2 66 16 158q12 78 37 164q27 92 58 157q37 80 77 135q18 25 36 47.5t28 36.5l61 82q20 20 47 21h5q27 -4 38 -17q14 -14 15 -39q0 -29 -19 -49q-12 -12 -22 -24.5t-18.5 -20.5l-24.5 -24q-45 -45 -64 -72q-72 -100 -125 -217q-55 -123 -71 -236 q-18 -127 -4 -245q16 -129 71 -240q27 -53 39 -74q10 -16 39 -55q18 -25 39 -45q12 -12 45 -41q8 -6 22.5 -19.5t30.5 -25.5l64 -53q16 -18 16 -43v-2q0 -22 -12 -37q-12 -16 -33 -19h-12q-18 0 -37 9l-78 81l-49 50l-17.5 18t-15.5 18.5t-13 19.5l-13 19q-10 14 -33 60 l-53 96q-18 33 -37 98q-18 63 -23 111q-8 80 -10 115v53z" />
<glyph unicode=")" horiz-adv-x="581" d="M0 1212v11q2 16 23 32q16 14 45 15q2 -2 6 -2q4 -2 6 -2h6l12 -4l8 -2q23 -10 48 -31q16 -14 53 -55l53 -64q37 -45 51 -66l41 -55l27 -37q37 -49 67 -110q29 -59 52 -127q14 -45 34 -140q12 -59 21 -145q4 -39 4 -113v-26q-4 -88 -10 -129q-12 -66 -23 -96 q-4 -12 -24 -95q-12 -47 -41 -104q-33 -66 -53 -94q-41 -57 -64 -86l-70 -90q-23 -12 -39 -13h-6q-23 2 -35 16.5t-16 34.5q-4 23 12 48q53 59 70 75q41 41 68 78q82 111 125 252q41 131 41 277q0 109 -29 217q-28 104 -80 196q-57 100 -119 176q-66 80 -149 158l-21 10 q-4 4 -7 6t-7 6.5t-17 12.5q-2 2 -20 6q-29 14 -37 33q-6 12 -6 26z" />
<glyph unicode="*" horiz-adv-x="684" d="M0 680q0 16 12 39l88 88l90 84q-31 16 -84 53q-41 29 -69 76q-12 27 -6 51q8 27 24 35q18 8 41 6t43 -33q12 -35 37 -65q23 -29 57 -60l-12 82q-6 41 -6 84q0 8 1 24.5t1 24.5q0 16 8 45q4 18 21 37q12 16 37 27h4q25 0 39 -8q18 -12 24 -29q6 -12 2 -32.5t-20 -34.5 q-9 -18 -13 -37q-2 -14 -12 -35q-6 -61 -6 -107q33 31 78 62q33 23 102 47q31 2 51.5 -14.5t22.5 -37t-12.5 -41t-44.5 -26.5q-53 -2 -103 -22q-45 -18 -88 -52q0 -8 2 -14q18 -10 82 -43l82 -39q16 -8 46 -18.5l36 -12.5q39 -14 72 -24q25 -20 28.5 -36.5t3.5 -21.5 q0 -6 -4 -18q-6 -20 -24 -29q-23 -10 -47 -8q-70 41 -127 80l-123 82q8 -27 18 -51v-2q12 -23 33 -68l33 -70q10 -33 -2 -53q-12 -23 -31 -28q-12 -4 -18 -5q-12 0 -25 7q-23 10 -37 36q-12 47 -29 142l-24 141q-47 -51 -78 -100q-51 -82 -63 -109q-23 -27 -45.5 -29 t-40.5 11q-16 10 -23 37q-2 4 -2 12zM362 725q0 -2 5 -6q-3 2 -5 6z" />
<glyph unicode="+" horiz-adv-x="1136" d="M0 557q0 14 10 31q14 20 37 28q55 2 166 2h168h43h45q20 0 66 5l65 6q-4 74 -8 110q-8 74 -14 113l-7 51l-6 51l-6 52q-2 8 -2 25.5t-2 25.5q-2 14 -2 37q0 20 4 28q10 20 16 25q14 10 33 18h4q23 0 37 -8q16 -10 25 -22q6 -10 6 -31q0 -18 -12 -33q0 -80 -6.5 -160 t-0.5 -159l7 -58l4 -28.5t2 -28.5q16 2 49 7t49 7l98 17q2 0 7.5 1t9.5 1q4 2 10 2h12l21 4q4 0 9 1t7 1t10.5 1t14.5 1t14 1t12 1h11h-25h2h6q4 0 10.5 1t10.5 3t10 3t10 1t8 2h2l-4 -2q25 6 43 0q16 -6 27 -22q6 -12 6 -29v-6q-3 -22 -18 -43q-16 -10 -41 -15 q-29 -4 -43 -4q-6 0 -22.5 1t-24.5 1h-43h-76l-78 -4q-29 -4 -43 -4q-10 0 -20.5 -1t-22.5 -1l12 -82t10 -78q4 -25 7.5 -51t6.5 -59t5 -51q-4 -33 -19 -49q-18 -18 -38 -19q-18 0 -39 16q-18 16 -23 48q8 152 2 321q-131 -8 -270 -24q-135 -15 -271 -37q-31 4 -45 18 t-18 35v6z" />
<glyph unicode="," horiz-adv-x="264" d="M0 -33q2 8 6 20.5l8 24.5q12 37 21 58q16 41 26 61q25 49 31 57q25 33 35 41q23 18 41 19h4q10 0 18 -4q8 -2 19 -17q12 -31 16 -71l6 -72q2 -10 3.5 -34.5t1.5 -37.5q6 -80 6 -84v-18q0 -47 -2 -70q-2 -39 -17 -84q-12 -41 -33 -69q-18 -27 -55 -47q-8 -2 -18 -2 q-16 0 -29 6q-20 8 -29 24q-10 18 -4 39q6 18 29 39q18 6 31 23q12 18 18 38q2 8 5 22.5t5 20.5q6 25 15 37l-2 -6l-1 -4l-1 -4v-4q2 4 4 10q2 4 3 12.5t1 12.5q4 20 4 30q0 6 1 14.5t1 10.5q2 31 2 90q0 47 -8 86q-2 -4 -4 -10t-4 -8l-7 -19q-12 -49 -26 -125q3 -12 0 -24 q-4 -14 -15 -25q-6 -6 -26 -14q-12 -6 -35 -2h-2q-22 12 -31 24q-10 12 -12 35zM137 70l2 4z" />
<glyph unicode="-" d="M0 434q0 20 12 41q2 2 9.5 8t13.5 15q6 10 24 16q33 16 66 23q35 6 65 6h13q37 0 55 -2q23 -2 70 -2q6 0 22.5 -1t24.5 -1h47q6 0 11 -1t7 -1h19q20 4 41 -3q16 -6 26 -22q8 -16 9 -29v-6q-3 -22 -19 -43l-10 -5t-8 -3q-6 -4 -21 -6q-10 0 -18 2q-20 6 -31 8 q-25 8 -39 12q-10 2 -84 21q-65 15 -92 12q-35 -4 -51 -10q-23 -8 -39 -29q-8 -12 -14 -22q-2 -6 -4.5 -12.5t-6.5 -10.5q-20 -12 -41 -12l-2 1q-2 1 -4 1q-25 4 -35 14q-12 12 -16 35v6zM465 535h2h8h2h-6h-6z" />
<glyph unicode="." horiz-adv-x="198" d="M0 78l2 12q2 18 16 43q12 23 31 35q20 14 47 14q2 0 15 -4q4 -2 10 -4t8 -4l16 -8l13 -6q14 -20 14 -39l2 -2v-2v-4q-2 -2 -2 -5q0 -6 -2 -12q-4 -14 -8 -18q-10 -20 -17 -27q-8 -10 -36 -24q-2 -2 -41 -13l-13 -2l-8 -2h-2l-6 2l-4 4l-8 4l-7 7q-8 6 -14 24l-4 10z" />
<glyph unicode="/" horiz-adv-x="606" d="M0 121l2 6l2 16l23 50q6 16 69 145l94 194l89 195q53 121 81 201q37 98 62 180q29 96 35 137l6 47l4 17q2 14 22 28l11 9l18 6l12 -2l11 -2q8 0 18 -11l8 -8l8 -10q6 -8 7 -14v-11v-16l-11 -39q-4 -20 -39 -106q-37 -94 -57 -140l-65 -139l-64 -137q-72 -168 -121 -301 q-63 -172 -106 -307q-12 -31 -33 -39q-8 -4 -33 -9q-8 0 -18 7q-14 4 -19 14l-6 8l-6 12z" />
<glyph unicode="0" horiz-adv-x="849" d="M0 561q0 29 4 82q10 88 33 152l72 188q8 20 22 41q6 10 31 39l31 35q4 6 16 17t16 18q10 10 14.5 12t16.5 6q14 6 30.5 12t35.5 15q23 10 67 26q8 2 29 2q12 0 28 -4l-30 25l-16.5 11t-14.5 11q-25 25 -25 47q0 29 13 41q16 16 39 19h6q20 0 43 -17l53 -45l53 -47 q35 -35 58 -69q27 -39 51 -95q33 -70 47 -108q20 -55 37 -115q25 -86 28 -106q12 -52 19 -92l16 -111q2 -14 2 -45q0 -35 -6 -66l-16 -90l-19 -90q-8 -31 -20 -53q-10 -18 -39 -55q-22 -28 -49 -50q-37 -29 -57.5 -41t-61.5 -24q-33 -8 -49 -8h-10q-18 0 -54 4t-55 4 q-29 2 -55.5 5t-54.5 5q-2 0 -5.5 1t-5.5 1t-10 4q-16 14 -39 27l-41 24q-14 8 -39 29q-20 16 -33 35q-43 61 -67 141q-27 84 -35 166q-4 29 -4 86zM84 487.5q0 -92.5 20 -161.5q20 -74 66 -133q43 -57 121 -84q47 -18 98 -21q47 -2 105 4q66 8 114 45q49 35 76 84 q29 51 41 111q14 66 16 119q2 57 -8 143q-10 76 -31 151q-23 82 -51 150q-27 63 -69 139q-23 -10 -43 -2q-25 8 -39 39l-4 4l-2 1l-2 1q-4 2 -17 6q-2 0 -10 3.5t-12 5.5q-16 4 -23 4q-14 0 -20 -2l-74 -23q-28 -9 -49 -24q-25 -16 -43 -39q-16 -18 -47 -70 q-37 -61 -58 -125q-27 -82 -41 -156q-14 -77 -14 -169.5z" />
<glyph unicode="1" horiz-adv-x="256" d="M0 1145q6 25 22.5 41t35 16t36.5 -12q14 -10 25 -41q-8 -152 -4 -356q2 -156 37 -357l24 -125l25 -127q4 -18 8 -41q2 -14 10 -43q0 -4 2 -8l4 -8l4 -8v-4v-2q0 -2 1 -6.5t1 -6.5q0 -12 -6 -24q-9 -18 -24 -25q-12 -6 -25 -6h-12q-20 2 -39 25q-10 14 -16 34q-4 16 -9 50 q-2 18 -6 59q-2 20 -2 57q0 10 -1 27.5t-1 26t-1 21.5t-1 20q-4 31 -8 91t-4 66q-4 57 -17 156l-32 254q-21 166 -27 256z" />
<glyph unicode="2" horiz-adv-x="917" d="M0 682q0 12 2 20q51 98 90 162q47 76 107 152q23 31 47 59l49 55l47 46q37 33 57 47q41 29 62 41q31 18 61 24q10 2 31 2q16 0 25 -2q37 -4 53 -6q10 0 20 -10q2 -2 27 -21q4 -2 12 -10t12 -10q16 -12 23 -21q12 -16 16 -26q10 -23 27 -72l25 -72q4 -12 8 -40.5t4 -45.5 q0 -8 -1 -22t-1 -21v-37q2 -33 -10 -94q-10 -51 -27 -92l-31 -82q-20 -53 -35 -80q-47 -92 -94 -161q-63 -92 -114 -146l-26.5 -27.5t-33.5 -33.5q-51 -51 -80 -74q29 2 84 2q29 0 86 4q80 6 160 19q59 8 158 20q31 -10 41 -25q12 -18 12 -36.5t-16.5 -35t-40.5 -22.5 l-154 17q-82 10 -152 4q-59 -4 -106 -15q-6 -2 -46 -10t-61 -14v-2q-18 -8 -41 -15l-20 -8t-20 -6q-6 -2 -19 -2q-10 0 -16 2q-18 4 -27 12q-10 10 -16 23q-6 14 -4 24q-12 16 -17 43v9q8 51 58 55q14 8 28.5 15.5t28.5 15.5q18 10 55 35q41 29 64 49q20 18 59 57 q20 20 57 61q10 10 50 62q39 49 71 102q39 61 64 119q29 66 47 127q20 70 22 129t-10 129q-12 61 -49 121q-25 37 -51 51q-29 16 -56 17q-31 0 -59 -15q-35 -16 -61 -39q-63 -49 -109 -106q-49 -61 -92 -129q-41 -63 -80 -139t-65 -140q-18 -20 -39 -26.5t-37 2.5 q-18 8 -27 28q-6 13 -6 29z" />
<glyph unicode="3" horiz-adv-x="675" d="M0 1135q0 20 18 39q14 14 50 18l69 -6q45 -4 68 -8v-2h31q8 0 16 -1t16 -1h27h16q82 8 127 20l123 33h8q20 0 37 -10q18 -12 25 -29q18 -14 20 -39v-6q0 -23 -18 -47q-33 -27 -55.5 -57.5t-45.5 -69.5q-16 -29 -34 -76q-20 -53 -29 -80q39 -8 76 -43q27 -25 51 -65 q16 -29 35 -76q14 -37 18 -92q0 -6 1 -14.5t1 -12.5q0 -31 -6 -61q-8 -51 -20 -89q-2 -8 -12.5 -38.5t-18.5 -49.5q-18 -47 -29 -63q-20 -37 -43 -57l-39 -41l-20 -19.5l-21 -19.5q-16 -16 -49 -31l-55 -25q-31 -16 -68 -16q-31 0 -67 10q-23 6 -64 27q-20 10 -61 26 q-18 18 -23 43q-3 22 6 37q12 18 31 25q25 8 47 0q33 -20 47 -31q20 -14 47 -24q40 -12 80 -7q39 6 74 27q29 16 66 53q31 31 55 68q29 45 41 72q16 41 22 71q4 14 9 52q2 18 -2 51q-4 31 -13 61q-8 33 -26 66q-16 31 -43 57q-23 23 -58 27q-2 -4 -2 -9q0 -6 -2 -10 q-18 -23 -33 -26q-16 -6 -34 -2q-12 -2 -29 2q-10 2 -22.5 14t-14.5 27q-4 16 0 38q14 25 29 37q23 18 37 25q10 16 23 34.5t26 41.5q23 35 43 78q10 20 28 75l25 74l-96 4q-49 4 -97 0q-65 -6 -129 -18q-92 -18 -127 -23q-31 4 -47 23q-16 21 -16 39z" />
<glyph unicode="4" horiz-adv-x="892" d="M0 215v8q4 20 16 33q-10 18 -8 35q4 23 17 35v-7q0 -6 -2 -12v2q2 2 2 4q3 15 6 25q2 8 12 20l129 185q61 84 123 188q41 68 111 203l57.5 110.5l48.5 92.5q22 18 43 18h4q18 0 33 -8q14 -12 20 -33q6 -18 -4 -47l-84 -113l-84 -116l-80 -117q-41 -70 -69 -123l-76 -149 l-76 -150l-4 -4q31 4 96 4q31 0 101 -4l104 -4q51 -2 103 0v43v47q-2 59 -11 184q-8 129 -14 187q6 25 22.5 41t35 16t36.5 -12q14 -10 25 -41q-2 -14 -5 -45t-5 -47l-13 -95q-8 -59 -10 -94q-2 -31 -2 -92q0 -45 6 -88q61 8 92 16q37 10 82 35q33 12 53 4q23 -10 33 -28 q4 -8 4 -23q0 -12 -2 -18q-6 -25 -35 -41q-51 -18 -108 -23q-52 -3 -105 0l25 -96q6 -20 35 -96q0 -25 -16.5 -45.5t-30.5 -22.5h-13q-14 0 -26 6q-18 8 -33 37q-10 57 -14 117q-2 18 -3 53t-1 53q-12 2 -35 2q-6 0 -17.5 1t-17.5 1q-57 2 -106 0q-33 -2 -95 -10 q-31 -4 -92 -20q-33 -8 -96 -35q-29 -6 -45 2q-20 10 -29 24q-8 11 -8 27z" />
<glyph unicode="5" horiz-adv-x="868" d="M0 115q0 20 18 39q14 14 50 18q27 -2 98 -10q52 -6 110 -12q39 -4 115 -5q57 0 107 13q47 12 92 41q41 27 67 82q20 39 20.5 88t-18.5 94q-23 55 -47 90q-31 43 -69.5 76t-81.5 51q-45 18 -88 16q-35 -4 -51 -12l-52 -20l-12 -9q-8 -6 -8 -12v-2q-8 -25 -29 -39 q-16 -12 -36.5 -8t-34.5 18q-15 15 -19 43v4q-10 20 -4 52q18 45 55 110q33 59 54 115q12 37 18 76q8 53 10 78q-12 16 -12 32q0 20 10 33q6 29 20.5 39t32.5 14q18 2 33 -6q16 -10 25 -26q66 -6 78 -9q18 -2 41.5 -4t29.5 -2q25 -2 101 17q98 25 147 39l23 -3q25 -4 34 -14 q12 -10 17 -35q-2 -29 -13 -41q-14 -20 -28 -22l-17 -2h-28q-12 0 -90 4q-66 4 -119 -2q-47 -2 -94 -12q-25 -4 -49.5 -9.5t-47.5 -9.5q-16 -45 -32 -76q-4 -6 -31 -77q-16 -45 -23 -70q-14 -53 -16 -72q20 8 61 21q33 10 60 2q35 -8 69 -19q37 -10 66 -24q35 -16 63 -43 q37 -33 52 -54q29 -41 41 -61l37 -66q8 -12 14 -32q4 -14 8 -35l6 -37q0 -6 2 -18.5t2 -18.5q4 -25 4 -33q0 -2 -6 -32q0 -4 -3 -15.5t-5 -17.5t-4 -17.5t-2 -17.5t-4 -10l-8 -8l-41 -52q-20 -27 -43 -53q-12 -14 -37 -29q-14 -8 -47 -20q-16 -6 -54 -14q-39 -8 -51 -11 q-31 -6 -92 -10q-25 -2 -76 -2q-2 0 -8 1t-8 1q-14 0 -47 1t-47 1h-95q-31 4 -47 23q-16 21 -16 39z" />
<glyph unicode="6" horiz-adv-x="604" d="M0 305v49q2 33 18 152q12 90 33 170q20 78 49 164q29 84 58 135q18 33 39 76q14 33 45 73q23 29 43 45q33 25 47 39q16 14 33 17q20 4 28 4h8l37 -6q6 -2 18.5 -2t18.5 -2q31 -10 41 -27q12 -18 12 -37q0 -20 -14 -34.5t-43 -20.5q-8 2 -18.5 4t-20.5 2q-6 2 -19.5 3 t-19.5 1q-20 -18 -37 -27q-14 -8 -32 -30q-51 -59 -99 -154q-43 -88 -73 -180q-35 -106 -54 -191q-12 -57 -26 -180q0 -4 -3 -38t-3 -50q0 -43 12 -80q12 -41 39 -65q29 -29 78 -43q31 -8 63.5 -2t58.5 24q37 25 52 41q29 33 41 49q33 49 47 90q20 55 28 99q8 41 4 102 q-2 51 -20 98q-10 29 -27 45q-20 20 -41 29q-23 10 -49 6t-47 -20q-16 -12 -18 -14.5l-6.5 -8.5t-6.5 -8t-5 -8t-5 -8q-6 -8 -14 -21q0 -8 -6 -24q-2 -4 -5 -13.5t-6 -13.5q-12 -16 -28.5 -22.5t-30.5 -4.5t-26.5 12.5t-22.5 28.5v4q-4 20 2 35v4t2 4.5t2 4.5t2 4l23 47 q10 23 30 47q47 53 101 72q51 18 102 8t94 -47q47 -39 72 -97q16 -35 23 -88q2 -14 2 -43q0 -20 -5 -61q-6 -57 -24 -113q-23 -68 -43 -106q-23 -41 -64 -94q-29 -35 -77 -68q-43 -29 -91 -37q-25 -4 -36 -4q-27 0 -64 10q-59 18 -98 53q-33 31 -53.5 80.5t-22.5 100.5 q-2 20 -2 61z" />
<glyph unicode="7" horiz-adv-x="753" d="M0 965v10q2 20 29 43q78 37 135 55q45 14 139 39q47 12 141 33q6 2 60.5 12t83.5 19q20 16 45 16h10q6 0 10 -2q16 -6 31 -16q8 -6 16 -23q8 -4 17 -16q6 -9 12 -25v-4q0 -20 -10 -37q-8 -12 -21 -22q-51 -88 -92 -205q-37 -100 -63 -230q-25 -117 -31 -235 q-6 -123 8 -221l12 -50q2 -8 7.5 -23t7.5 -24q0 -25 -17 -45q-14 -18 -30 -20q-2 0 -6.5 -1t-6.5 -1q-10 0 -26 8q-20 8 -33 35q-4 41 -8 57q-4 18 -4 60q4 117 20 215q6 39 15.5 95t21.5 118l6 31.5l6 31.5t5.5 25.5t3.5 21.5l8 39l8 39q4 33 8 47l14 62l17 63q6 27 16 64 q2 8 5 18t5 18q4 20 9 33q-6 0 -20.5 1t-20.5 1t-20.5 -1t-20.5 -1q-61 -2 -115 -12q-55 -10 -100 -27q-41 -16 -94 -47q-51 -31 -95 -65q-27 -18 -51 -12.5t-37 24.5q-10 13 -10 31z" />
<glyph unicode="8" horiz-adv-x="641" d="M0 1047l8 24q2 6 19 19l61 43l41 24q15 9 31 12q14 2 41 7q8 2 29.5 3t31.5 1q66 4 100 10l-2 4q-14 27 -6 53q6 20 25 33q16 8 29 8q2 0 7 -1t7 -1q27 -6 43 -31q20 -35 43 -69q8 -10 20.5 -35t20.5 -35q6 -9 6 -18q0 -12 -2 -19l-18 -116q-2 -6 -7 -15q-4 -6 -10 -14 l-45 -55q-4 -6 -13 -16.5t-14 -14.5q-9 -12 -18 -19q-4 -2 -11 -9t-11 -9q-6 -4 -14.5 -11t-20.5 -16q-23 -16 -62 -47q-2 0 -3 -2l-3 -2l-4 -4l121 -117l117 -116q33 -37 36 -45q10 -16 27 -50q14 -27 16 -53q2 -8 2 -22q0 -10 -4 -35q-6 -35 -28 -58q-25 -25 -47 -34 q-37 -16 -58 -23q-12 -4 -33.5 -8t-25.5 -4q-25 -6 -60 -6q-4 0 -13 1t-13 1q-55 4 -103 14q-53 12 -92 35q-45 25 -61 59q-6 16 -25 41q-16 23 -26 41q-12 20 -21 41q-10 23 -6 45q8 51 10 72q2 33 17 70q9 22 24 43q20 29 33 43q25 29 39 41q12 12 23.5 20t19.5 16l-35 35 l-16.5 16.5t-14.5 16.5l-53 59q-25 31 -37 68q-8 25 -8 55q0 19 -4 56zM80 438q8 -63 41 -108t76 -70q45 -27 98 -35q59 -10 113 -4q25 3 55 12q35 10 53 27q27 23 33 41q10 25 -6 59q-14 31 -31 54l-43 49q-14 16 -43 45l-23.5 20.5t-21.5 18.5l-68 61l-82 74 q-10 -8 -59 -51q-39 -35 -53 -56q-20 -29 -32.5 -63.5t-6.5 -73.5zM104 991q0 -20 2 -24q25 -45 33 -56q4 -6 11.5 -15t13.5 -17.5l12 -16.5l29 -33l16 -16t15 -16l8 8q2 2 15 12l22 17q6 6 22 18t25 20q16 14 49 48q10 10 41 51q18 25 24.5 53.5t-2.5 50.5q-2 2 -2 6 t-2 6.5t-4 5.5t-2 5q-14 -18 -45 -25q-55 -6 -109 -6q-63 0 -108 -10q-16 -2 -33 -17q-20 -16 -31 -22v-27z" />
<glyph unicode="9" horiz-adv-x="667" d="M0 879v8q4 70 18 114q18 57 48 97q35 49 69 76q45 35 86 47q37 10 76 10q4 0 12 -1t15 -1q49 -6 110 -35q34 -15 55 -31q14 -10 37 -33q18 -16 33 -38l39 -50q18 -23 29 -57q12 -45 14 -67q2 -14 2 -41q0 -4 -1 -12.5t-1 -14.5q-4 -49 -8 -66q-16 -84 -49 -149 q-31 -66 -84 -150q-31 -49 -101 -139q-45 -59 -102 -123l-70 -78l-71 -77q-25 -14 -39 -15q-2 0 -3 1l-3 1q-27 4 -37.5 14.5t-14.5 36.5q-2 20 13 46l73 73l74 74l105 111q61 70 100 122q45 61 82 132q31 57 53 141q12 49 8 100q-2 43 -24 94q-18 41 -54 80q-35 37 -81 62 q-49 25 -105 24q-45 0 -90 -24q-39 -20 -70 -62q-29 -39 -45 -88q-16 -53 -16 -98t20 -100q14 -31 37 -52q29 -25 54 -34q29 -12 63.5 -8.5t58.5 24.5q18 16 29 33q12 20 14 35l3 14q3 14 3.5 22.5t3.5 24.5t3 20q6 35 24 48q18 14 41 10t37 -21q16 -20 14 -51 q-4 -14 -8 -37.5t-6 -29.5q-10 -51 -12 -54q-8 -20 -27 -47q-14 -20 -49 -51q-27 -25 -61 -33q-43 -10 -76 -8q-45 4 -78 14q-39 12 -70 35q-33 23 -53 49q-23 29 -29 66l-12 63q-6 25 -6 54z" />
<glyph unicode=":" horiz-adv-x="204" d="M0 104q0 23 8 39q10 23 31 35q18 10 55 4q8 -2 15 -2h8h2q14 0 18 -2q2 0 5 -1t7.5 -3t6.5 -4t5 -7t5 -7t6 -15q4 -8 4 -14q0 -4 1 -10t1 -8v-17q0 -2 -1 -6l-1 -4q0 -41 -26 -59q-23 -18 -54 -19h-8q-4 -2 -12 -2q-10 0 -27 8q-14 6 -29 33q-16 20 -20 49v12zM43 735 q-3 12 0 25q2 8 16 22q12 12 33 17q2 0 6 1t6 1q6 0 23 -4q16 -6 29 -19q8 -8 16 -28q8 -16 8 -31v-12q-2 -16 -16 -27q-8 -6 -27 -10q-10 -10 -26 -15q-18 -4 -29 2q-16 8 -25 17q-12 10 -14 33q-4 12 0 28z" />
<glyph unicode=";" horiz-adv-x="346" d="M0 -260q0 12 10 29q14 20 37 28q27 4 35 6q12 4 16 7q8 4 15 8q10 6 32 12q6 4 15.5 12t11.5 8q16 12 27 23q4 4 10 11t12 16q14 14 21 28q4 10 10 23q2 4 2 16v13v2q0 4 -2 12t-2 12q-4 16 -8 22.5t-23 18.5q0 -29 -10 -49q-14 -27 -33 -41q-18 -12 -45 -16 q-25 -2 -47 16q-16 12 -23 29q-4 12 -8 37q-2 35 17 61q16 23 49 35q29 12 65 8q39 -4 62 -16q27 -16 41 -39q8 -14 22 -52q2 -10 6 -20t6.5 -18.5t2.5 -22.5q0 -12 -2 -18q-8 -39 -29 -78q-16 -31 -47 -70q-23 -27 -62 -59q-35 -29 -69 -43q-4 -2 -14.5 -4t-12.5 -2l-25 -7 q-27 2 -45 21q-16 16 -18 33v8zM90 698q-2 16 0 29q4 14 10 25q8 18 23 28q16 14 33 17q2 2 5 2t5 2t6 4t6 2h4q20 0 41 -10q18 -12 25 -27q6 -16 0 -35q-8 -23 -23 -33q-2 -2 -4 -2l-4 -4q-2 -8 -6 -16q-18 -25 -33 -31q-16 -6 -33 0q-15 6 -30.5 18.5t-24.5 30.5zM217 705 l8 8q2 2 0 2l-6 -6v-2z" />
<glyph unicode="&#x3c;" horiz-adv-x="989" d="M0 629v2q0 16 12.5 30.5t32.5 20.5q25 31 66 57q35 23 77 43q53 25 82 35t82 35q72 33 178 92q70 39 181 90h4q27 0 43 -10t22 -31q6 -18 -2 -38.5t-33 -34.5q-135 -35 -237 -70q-111 -39 -223 -109l-60 -41q-35 -25 -55 -45q98 -47 170 -94q27 -16 71 -46t91 -58 q203 -125 223 -138q172 -104 223 -139q16 -18 17 -43q0 -22 -13 -37q-12 -16 -32 -18h-13q-18 0 -37 8l-182 158q-84 70 -196 145q-92 61 -216 113q-117 49 -233 63q-27 14 -33 29q-10 13 -10 31z" />
<glyph unicode="=" horiz-adv-x="999" d="M0 776v2q0 18 18.5 37t49.5 21q102 -12 206 -19q115 -6 246 4q2 0 9 2q7 3 14 2l82 13q43 6 129 22h8q29 0 45 -14.5t20 -36.5q2 -20 -12 -40.5t-47 -27.5q-115 4 -176 9q-78 6 -176 2q-96 -4 -176 -15q-66 -8 -177 -20q-31 4 -47 22q-16 21 -16 37zM47 401q-6 18 4 41 q8 20 41 33q72 12 146 19q47 4 145 8q10 0 31.5 -1t31.5 -1q43 0 64 2l103.5 8t103.5 10l205 19q31 -10 41 -27q12 -18 12 -35v-2q0 -20 -14.5 -34.5t-42.5 -20.5q-102 8 -205 18q-109 10 -205 4q-106 -6 -195 -26q-106 -25 -186 -54q-6 -2 -21 -2q-18 0 -32 9 q-21 12 -27 32z" />
<glyph unicode="&#x3e;" horiz-adv-x="1042" d="M0 985v12q2 14 22.5 30.5t45.5 16.5q41 -8 63 -10q31 -2 62 -16q20 -8 86 -41q29 -14 81 -47l80 -49l80 -52q55 -37 111 -67l110 -60q74 -37 113 -53q78 -33 121 -47q22 -15 31 -37q12 -18 12 -33v-2q0 -18 -8 -28q-8 -12 -27 -23q-18 -9 -43 -6q-10 4 -27 16 q-12 10 -26 13q-10 2 -37 -2q-10 -2 -41 -11q-14 -4 -39 -16l-29 -14q-49 -25 -92 -56q-57 -41 -86 -67q-23 -18 -43 -39t-37 -35q-39 -35 -82 -69q-18 -15 -36 -25q-8 -4 -39 -25q-8 -2 -21 -2q-14 0 -26 6q-20 8 -29 27q-10 18 -4 38.5t26 39.5q115 49 179 92l163 115 q12 6 33 24l18.5 13.5t20.5 15.5l45 33q41 25 47 28q-55 37 -145 105q-61 45 -150 102q-74 47 -157 86q-82 39 -170 54q-29 6 -58 6q-37 0 -55 2q-31 14 -37 30q-6 13 -6 27z" />
<glyph unicode="?" horiz-adv-x="622" d="M0 1108q0 27 6 53q6 37 19 64q10 27 28 41q37 31 39 32q33 20 80 21h2q43 0 92 -12q45 -12 101 -39q59 -29 92 -54q43 -31 76 -63q37 -37 49 -61q14 -27 14 -58v-6q0 -25 -6 -49q-10 -31 -25 -53q-16 -27 -37 -47q-14 -14 -25 -28.5t-21.5 -26t-26.5 -27.5 q-18 -18 -74 -80q-39 -41 -72 -84q-27 -35 -59 -92q-2 -4 -7 -12.5t-9 -14.5q-6 -12 -14.5 -36.5t-10.5 -37.5q-4 -20 2 -35q6 -20 16 -32q8 -10 21 -31q8 -23 0 -47q-6 -20 -22.5 -30.5t-39.5 -6.5q-20 2 -41 23l-10 14l-16 33l-17 36q-6 18 -6 29q6 49 6 53q0 28 13 50 q41 86 94 147q74 86 119 131l41 41l21 20.5l22 20.5q4 4 37 33l45 43q25 29 34 51q12 27 7 51q-6 23 -29 49q-23 25 -53 47q-41 29 -66 41q-49 25 -74 33q-39 12 -69 19q-43 8 -56 6q-25 -2 -41 -12.5t-22 -24.5q-4 -10 -8 -35q0 -10 -2 -19.5t-4 -21.5l1 -4q1 -4 1 -8 t4 -21q20 -20 22 -34q4 -23 -4 -35q-12 -18 -26 -27q-18 -10 -45 -6q-33 14 -48 45q-16 31 -18 66v18zM178 86q4 29 8 43q6 22 18.5 37t24.5 24q16 8 23 9q4 0 12 1t12 1q23 -6 33 -16.5t17 -32.5l2 -5l4 -8l6 -6q2 -2 2 -3q0 -3 2 -3q14 -4 27 -14q12 -12 14 -25 q2 -14 0 -31q-2 -10 -16 -32q-20 -8 -29 -13q-6 -4 -27 -8l-20 -10q-4 -2 -10.5 -4t-10.5 -2q-2 0 -7 -1t-7 -1h-6q-8 0 -28.5 4t-28.5 18q-12 20 -15 35q-3 21 0 43z" />
<glyph unicode="@" horiz-adv-x="1597" d="M0 332v35q0 76 8 118q12 61 23 93q25 66 35 90l47 108q18 49 59 103q37 49 84 82l180 133q53 39 125 57q63 16 146 16q68 0 143 -16q71 -15 129 -43q68 -35 131 -88q53 -45 115 -125q49 -63 88 -147t53 -162q14 -76 4 -164q-8 -80 -53 -156q-16 -27 -37 -47 q-29 -29 -43 -41l-49 -37q-25 -18 -45 -39q-10 -10 -17 -10q-2 0 -18 -4q-45 -10 -88 -18q-20 -4 -43 -9.5t-47 -9.5q-4 -27 -17 -41q-16 -16 -32.5 -18t-34.5 6q-16 8 -27 31l-4 -2h-2q-31 4 -45 18t-18 35q-2 16 10 37q14 20 39 28q2 0 5 1t5 1h10q8 74 10 111q4 70 9 109 q-66 -41 -97 -64q-41 -31 -100 -53q-10 -2 -25 -2q-10 0 -22 4l-102 -127l-105 -127q-25 -14 -45 -12q-23 2 -35 16t-16 35q-4 23 12 47q111 98 217 203q102 100 191 225q0 2 5 8t9 12.5t9 15.5t14 19l28 43q6 10 13.5 20.5t13.5 21t11 17.5t9 15q8 14 8 21q0 2 -2 -0.5 t-2 -5.5q-2 -3 -2 -5l-4 -8l-2 -2q2 8 15 35q4 6 11 18.5t9 14.5q27 47 35 59q16 23 47 43q0 2 2 4q16 12 37 16q23 4 31 0q15 -6 24 -18q10 -12 12 -29q6 -18 -2 -39q-6 -14 -32 -32q-8 -10 -15 -21q0 -2 -6 -9t-8 -11q-35 -53 -49 -109q-16 -63 -23 -123l80 56 q63 43 80 53q31 12 55 2q20 -8 31 -29q8 -16 2 -40.5t-35 -41.5q-37 -10 -110 -34q-37 -12 -107 -46q0 -82 4 -122l13 -121l84 12q41 6 77 25q74 31 117 79q39 43 59 115q16 53 13 131q-4 70 -25 137q-23 72 -53 127q-35 63 -74 109q-80 94 -192 147q-100 47 -213 48 q-106 0 -217 -48q-109 -47 -201 -133q-78 -72 -127 -157q-53 -92 -76 -187q-25 -94 -24 -198q0 -109 22 -199q10 -39 33 -96q14 -37 45 -90q23 -39 55 -82q31 -39 66 -72q66 -59 139.5 -102t159.5 -62q84 -18 180 -14q86 2 184 26q84 20 174 64q92 45 156 94q23 16 64 53 q10 10 43 47q4 4 34 52q2 4 19.5 28.5t27.5 40.5q25 20 45.5 20.5t36.5 -9.5q14 -8 21 -31q0 -2 1 -7t1 -10q0 -14 -6 -32l-51 -72q-29 -41 -43 -57q-29 -33 -50 -52q-35 -31 -71 -57q-59 -43 -141.5 -84t-155.5 -63q-68 -20 -162 -35q-57 -8 -131 -8h-37l-82 6 q-49 4 -80 16l-73 27q-27 8 -52 18q-10 4 -37 21q-15 9 -36 24q-10 8 -23.5 17.5t-28 21.5t-35 25.5t-40.5 29.5q-43 31 -84 86q-39 51 -60 105l-43 108q-16 43 -30 91q-12 41 -19 94q-4 49 -4 84zM688 379l74 24q41 16 69 33l5 4q4 0 6 2v7q0 2 1 2t1 2q0 10 1 31.5t3 31.5 l6 64q-4 -6 -12 -14.5t-13 -14.5l-65 -80q-57 -70 -68 -82l-2 -2q-2 -2 -2 -4z" />
<glyph unicode="A" horiz-adv-x="1040" d="M0 80q0 14 2 20q20 55 51 111q41 74 64 108l67 103l68 102q16 25 45 78l43 80l86 158l84 157q12 10 29 17q4 10 20 22q10 8 27 8h2q14 0 28 -8q16 -10 27 -24l64 -174l22 -59.5t19.5 -50.5l23.5 -60l84 37l86 32q33 0 47 -10q18 -12 25 -31q2 -4 2 -14q0 -14 -4 -23 q-8 -20 -33 -34q-51 -8 -88 -15q-45 -6 -90 -18l12 -33q2 -8 6 -16t8 -17l52 -129q4 -12 13 -36.5l16 -44t14 -35.5q14 -47 32 -119q12 -51 27 -137q-2 -33 -20 -52q-16 -16 -37 -16h-2q-20 0 -37 14q-23 18 -25 47v66v51q0 16 -4 49q-2 16 -10 66q-20 94 -45 166 q-23 63 -64 157l-51 -16q-41 -16 -47 -18q-6 -4 -20.5 -11.5t-29 -13.5t-28.5 -14l-94 -49q-18 -10 -51 -24.5t-43 -18.5q-41 -18 -76 -23q-27 4 -41 14q-2 -6 -6 -12l-8 -12l-13 -25l-65 -139q-27 -57 -47 -145q-12 -31 -35 -41.5t-41 -4.5q-20 6 -33 27q-8 15 -8 33z M315 506q4 2 10.5 2t8.5 2l16 4q10 2 31.5 8t32.5 8q41 12 61 17l-4 -2q-4 -2 -6 -2t-6 -1l-4 -1q68 20 127 43l125 53q-33 72 -64 125l-68 125l-133 -189z" />
<glyph unicode="B" horiz-adv-x="1062" d="M0 975q0 20 12 41l64 76q31 40 67 73q45 41 80 62q43 25 96 30l18 3q17 2 25 4q14 4 44 8q2 0 17 3t23 3h7q16 0 34 -6l72 -19q25 -6 74 -26q39 -16 67 -39q27 -23 48 -62q18 -39 22 -67q4 -25 16 -74q4 -14 4 -30q0 -23 -8 -50q-12 -41 -39 -88q-23 -39 -57 -88 q-31 -43 -61 -80q66 0 102 -4q51 -6 104 -22q51 -16 89 -39q40 -25 61 -56l15.5 -24l13.5 -21q2 -4 9 -13t9 -13q4 -8 8 -21q2 -6 2 -20q0 -20 -2 -35q-2 -8 -3 -25.5t-1 -27.5v-9q0 -2 -4 -10l-39 -63q-16 -29 -47 -53q-63 -47 -131 -74t-149 -43q-51 -10 -154 -23 q-25 -2 -75 -7t-77 -9q-12 -4 -20 -4q-10 -2 -25 -4q-6 -16 -18 -27q-10 -8 -27 -8h-8q-4 0 -20 4q-18 6 -25 16q-22 -2 -43 -1.5t-41 1.5q-39 2 -66 23q-10 10 -18 31q-6 14 -2 30q2 16 14 27q12 12 29 20h2q14 0 21 -2q2 0 8 -2t10 -2l2 -1l2 -1l2 -1l2 -1l2 -2h2l21 -4 q6 -2 18 -2l2 -2q2 -2 8 -2h15v2h-10l-5 1l-4 1h9h10q2 35 2 104q0 18 1 53t1 52q-20 -2 -39 6q-18 9 -25 25q-8 23 -4 39t29 36l18 15l19 14q-4 29 -4 43q0 31 -2 45q-6 84 -26.5 221.5t-29.5 218.5q-4 -8 -8 -14l-8 -12l-16 -29q-20 -25 -45 -27t-41.5 8.5t-22.5 37.5 q-2 4 -2 12zM115 141h-2h2l4 -2h4q-4 2 -8 2zM229 1112q16 -14 27 -43l-6 -252q-1 -30 -1 -60q0 -102 9 -196q0 -6 1 -11t1 -11.5t1 -12.5t1 -12l19.5 15.5t15.5 11.5q2 2 10 9t12 9q16 8 23 12q2 2 25 11q29 12 39 14q10 4 23 8l32 10q0 22 12 43l92 88q51 47 84 95 q47 66 56 127q2 17 2 32q0 42 -17 82q-20 47 -76 84q-49 31 -133 35h-14q-56 0 -119 -20q-68 -23 -119 -68zM279 383l16 -125q6 -45 14 -125q14 2 35 2q92 6 105 6q59 0 120 6q86 8 125 17q78 16 117 31q45 18 96 57q45 37 66 84q8 16 8 41q0 23 -6 41q-12 37 -45 67 q-35 31 -70 47q-27 12 -84 25q-47 10 -80 10q-74 0 -129 -12t-104 -37q-45 -23 -92 -59q-74 -60 -92 -76z" />
<glyph unicode="C" horiz-adv-x="1234" d="M0 639q0 31 4 96q8 82 16 127q12 63 37 119q29 63 60 102q39 47 86 76q57 33 125 53q57 16 123 21h26q49 0 98 -6q59 -8 134 -25q23 -4 88 -26q47 -16 80 -50l6 -2q20 -14 24 -22q2 -4 6.5 -14.5t8.5 -16.5q-4 -29 -16.5 -45t-41.5 -22h-6q-23 4 -31 8q-10 6 -20 18 l-12 12q-2 2 -15 11q-29 20 -45 26l-51 17l-47.5 11t-44.5 11q-29 8 -94 17q-25 3 -56 3q-19 0 -39 -1q-51 -4 -94 -21q-45 -16 -90 -49q-43 -31 -69 -76q-16 -23 -33 -71q-12 -33 -27 -93q-12 -51 -18 -102q-8 -76 -11 -107q-2 -26 -1.5 -49.5t1.5 -46.5q2 -43 13 -78 l24 -84q12 -47 33 -79q28 -49 68 -80q41 -31 88 -47q53 -18 98 -21q49 -3 72 -3q16 0 30 1q92 6 166 27q80 22 160 49q53 18 156 63l151 70q31 12 53.5 2t32.5 -29q4 -8 4 -22q0 -12 -2 -19q-6 -25 -34 -41l-123 -49q-100 -39 -127 -47q-74 -25 -131.5 -41t-128.5 -26 q-16 -2 -78 -11q-55 -8 -90 -10q-41 -4 -64 -4q-6 0 -14 1t-15 1q-51 4 -79 16l-68 27q-25 8 -45 18q-18 9 -31 19q-16 12 -26 22q-8 8 -33 37l-47 58q-18 20 -31 53q-12 31 -18 65q-8 43 -11 72l-5 35.5t-3 30.5q-6 51 -6 112v29z" />
<glyph unicode="D" horiz-adv-x="1536" d="M0 983q0 20 12 41q76 66 152 106q84 45 164 74q88 31 174 49q78 16 182 27q41 4 63.5 6t65.5 2h8q39 0 58 -2q23 -2 59 -14q8 -4 70 -19l34.5 -7t36.5 -9q29 -8 66 -23q25 -10 59 -36l86 -74l86 -76q20 -16 41 -47q18 -29 37 -70q18 -45 29 -80q16 -59 20 -81 q4 -27 8 -76q0 -2 1 -8.5t1 -10.5q0 -25 -6 -45q-10 -51 -22 -102q-6 -25 -11.5 -51.5t-11.5 -50.5q-4 -20 -26 -62l-43 -72q-10 -16 -60 -69q-41 -45 -63 -66q-35 -31 -66 -51q-37 -23 -59 -31l-119 -37q-31 -10 -59.5 -18l-59.5 -16q-27 -8 -55 -11h-27q-27 0 -41 2 q-31 2 -61 17q-29 12 -41 35q-10 20 -10 30q0 20 4 29q6 12 14 20q10 10 21 13q-6 12 -6 22q12 176 16 254q4 88 4 156q0 51 -2 98q-6 126 -18 252l-25 250q6 31 22 43q-51 -6 -108 -18q-63 -14 -109 -27q-74 -23 -133 -45q-61 -23 -127 -62q-45 -29 -65 -47l-62 -57 q-25 -16 -47 -12t-34.5 16t-16.5 37v4zM768 1200q8 -6 16.5 -16t14.5 -27q-6 -84 -15 -252q-4 -88 -4 -157q0 -51 2 -97q6 -126 19 -252q16 -168 22 -254q0 -18 -6 -32q-4 -10 -16 -23h6q8 0 16 -1t17 -1h30q63 4 121 18q51 12 113 41q66 29 129 82q55 47 100 111 q39 57 70 133q27 68 33 148q2 19 2 40q0 18 -2 56q-2 43 -17 94q-61 209 -258 311q-98 49 -196 68q-65 12 -137 12q-28 0 -60 -2z" />
<glyph unicode="E" horiz-adv-x="911" d="M0 528.5q0 10.5 2 16.5q6 20 27 39q23 6 67 14l70 12v33v33q-4 82 -12 162q-12 115 -21 161q-15 6 -24 19q-10 12 -13 26q-2 12 4 29q6 14 21 27q0 33 6 47q10 23 33 37q20 8 39 6q18 -3 30 -12q10 -6 17 -25q6 -16 4 -29q31 4 88 9q29 2 90 10q16 2 46 7l54.5 9t46.5 8 q76 16 146 25q31 -10 41 -25q12 -18 12 -36.5t-16.5 -35t-40.5 -22.5q-41 6 -142 14q-25 2 -49 3q-44 0 -90 -7q-2 0 -18 -4q-18 -2 -31 -6q-20 -4 -33 -8q-10 -2 -19 -5t-13 -5l-43 -19l-46 -16q0 -72 3 -109q2 -28 1.5 -53t-1.5 -53v-33q0 -6 -1.5 -21.5t-1.5 -23.5 q0 -12 -1 -25.5t-1 -28t-1 -27.5t-1 -25l31 6q6 0 16.5 4t14.5 4q10 2 41 12q37 12 55 17q37 8 55 10q27 2 45 -6l7 -6l4 -4q3 -1 6 -3q6 -4 10 -8l6 -4q18 -27 17 -49q-2 -20 -21 -39q-12 -12 -38.5 -12t-49.5 22q-2 2 -5 6l-3 4q-2 2 -10 3q-2 0 -7.5 -1.5t-9.5 -1.5 q-2 0 -11 -1t-15 -1q-39 0 -72 -6q-34 -6 -68 -18q0 -133 2 -201q4 -131 9 -201q8 -2 127 -24q43 -8 129 -12q14 -1 29 -1q61 0 143 9q115 12 168 18q31 -10 40 -24q12 -18 13 -37q0 -20 -15 -35q-16 -16 -43 -23l-167 19q-86 8 -170 12q-32 2 -63.5 2t-63.5 -2 q-20 0 -61.5 -2t-63.5 -2q-6 -31 -23 -41q-18 -12 -35 -12h-2q-16 0 -37 16q-18 14 -20 45v4q-14 8 -20.5 24.5t-6.5 27.5q0 12 10 26q12 16 25 21q4 31 8 91t8 91q6 66 15 182l-39 -20l-41 -25q-25 -6 -47 4q-20 8 -29 27q-6 12 -6 22.5z" />
<glyph unicode="F" horiz-adv-x="946" d="M0 1106q0 12 6 27q8 20 41 32q90 23 121 29l123 25q-2 14 -2 38q0 27 2 39q2 14 14 35q8 12 29 27q18 6 30.5 6t18.5 -2q18 -6 31 -21q10 -12 10 -36q0 -16 -16 -37l-5 -13l-2 -2v4v5l-4 -5v-10v-14q29 4 78 8l78 6q31 2 102 10q17 2 35 3q35 0 68 -9l30 -6q16 -4 29 -8 q10 -2 20.5 -5t14.5 -5q-2 1 8 -2l-4 4l4 -1q4 -1 8 -1q31 -10 41 -25q12 -18 13 -37q0 -20 -15 -35q-16 -16 -43 -22q-22 3 -43 12q-10 4 -19 9.5t-20 9.5l-41 16q-22 9 -43 12q-75 11 -131 11h-24q-84 -4 -146 -17q0 -41 -2 -65q-4 -49 -4 -76q0 -14 -1 -39t-1 -37 q0 -14 -1 -34.5t-1 -26.5q0 -20 2 -61.5t2 -61.5q0 -80 2 -121q16 8 49 20l50 19q31 2 51 -14.5t22 -37t-12 -41t-45 -26.5q-12 2 -39 2q-23 0 -39 8q-12 -2 -33 -6l13 -272q8 -186 14 -275q-4 -37 -18 -51q-16 -16 -39 -16t-39 14q-18 16 -23 47q8 170 10 260q4 172 4 258 q-25 -18 -40 -39h2q6 6 10 9l8 8q2 2 2 0q-2 -8 -12 -14q-8 -6 -15 -15q-29 -18 -53 -12q-23 6 -35 24.5t-10 40.5q2 20 29 43l112 33q0 70 -4 209q-2 70 -10 209q-2 18 -2 55t-2 56q-25 -8 -52.5 -18.5t-56.5 -20.5q-35 -12 -108 -45q-31 -6 -53 6q-20 12 -27 33 q-2 4 -2 16zM397 1268h4q0 2 2 2v8q0 2 0 1.5t-2 -1.5q-4 -4 -4 -10z" />
<glyph unicode="G" horiz-adv-x="1118" d="M0 700v29q4 66 20 121q25 82 29 100q10 43 33 94q18 41 47 84q25 37 76 74q59 43 112 60q55 16 121 20h29q63 0 96 -6q43 -6 125 -27l33 -12q25 -8 51 -18q14 -6 26.5 -9.5t22.5 -7.5l11.5 -4t8.5 -3l3 -1q4 -2 10 -2q4 0 6 -2q23 -18 27 -29q8 -20 6 -39q-2 -10 -10 -22 q-4 -6 -17 -23q-33 -20 -57 -10q-29 10 -37 31q-6 2 -14 6t-13 6l-32 14q-76 29 -135 45q-63 16 -142 21h-13q-66 0 -122 -27q-55 -27 -102 -80q-45 -51 -72 -116q-25 -59 -41 -136q-12 -68 -14 -116q-1 -17 -1 -36q0 -46 5 -99q6 -72 24 -138q16 -59 52 -123q33 -57 80 -96 t114 -51q37 -8 72 -8t67 8q65 15 123 43q31 14 115 68l117 73q20 8 37 6q23 -4 30 -10q10 39 15 51l16 52l27 84l24 86q2 10 5 18t5 16q2 10 5.5 18.5t5.5 16.5q0 2 2 6q-2 0 -6 1l-5 1h-6q-8 -4 -14 -6l-18 -6q-4 -2 -8.5 -4t-10.5 -4q-2 0 -7 -2q-5 0 -7 -2 q-33 -14 -51 -19q-29 -8 -41 -8q-18 0 -39 6q-41 12 -51 17q-18 18 -22.5 40.5t5.5 39.5q12 18 31 24q23 6 47 -2q18 -12 39 -12q14 0 43 4q8 2 23.5 7t17.5 5q14 4 43 8q4 0 14 1.5t17 1.5q10 0 34 -5q14 -2 31 -14q14 -12 21 -24q4 -16 4 -25v-6q-4 -20 -9 -31l-2 -4 q-47 -123 -49 -127q-4 -12 -12 -33q-4 -10 -8 -35l-12 -53q-8 -31 -21 -92q-2 -14 -4 -29.5t-4 -35t-4 -29.5q-3 -31 -3 -59t3 -54q6 -59 20 -110q0 -29 -14 -45q-16 -20 -33 -23h-10q-16 0 -29 6q-16 6 -31 37l-6 45q-4 29 -4 43q0 25 4 78q4 41 13 78l-129 -72 q-55 -33 -134 -63q-59 -25 -143 -35q-22 -3 -44 -3q-51 0 -105 15q-53 16 -97 45q-57 37 -86 70q-35 39 -63.5 88t-36.5 100q-4 25 -9 52.5t-9 56.5l-17 108q-8 41 -8 94z" />
<glyph unicode="H" horiz-adv-x="1128" d="M0 45l18 176q4 41 10.5 85t12.5 89q-16 33 6 58q2 12 4 36.5t4 36.5l6 74q5 71 5 142.5t-5 140.5q-10 152 -26 278q6 27 22 43q14 14 35 15q18 0 37 -13q14 -10 25 -41q0 -170 -11 -286l-22 -285q-6 -61 -6 -121l24 6q16 4 27 6q14 4 94 21q16 4 50 8t48 6q33 6 99 15 q33 4 98 16q84 14 131 29q-20 184 -35 274q-18 123 -33 272q6 27 23 43q14 14 35 15q18 0 37 -13q14 -10 24 -41q-4 -90 -4 -266q0 -156 10 -268q61 18 146 47l143 51q29 0 47.5 -12t24.5 -29q2 -4 2 -14q0 -12 -6 -25q-8 -20 -33 -34q-57 -12 -158 -29l-157 -25 q10 -86 34 -254q12 -84 29 -256q-4 -37 -18 -51q-16 -16 -37 -16h-2q-20 0 -37 14q-23 18 -25 47q6 125 6 254q0 145 -10 250q-10 -2 -32.5 -5t-32.5 -5l-31.5 -8t-32.5 -7q-49 -10 -98 -22l-96 -25q-8 -2 -24.5 -7t-25.5 -7q-16 -4 -45 -12l13 4q-2 -2 -11 -6q-4 -2 -22 -8 q-4 -2 -14.5 -6.5t-14.5 -6.5q-8 -4 -14 -6t-14 -4q-6 -4 -20.5 -9l-20.5 -7q-12 -6 -45 -11v-143h2q4 -53 4 -82q0 -53 2 -80q-4 -37 -19 -51q-16 -16 -38.5 -16t-38.5 14q-19 16 -23 47z" />
<glyph unicode="I" horiz-adv-x="161" d="M0 29q4 49 16 147l19 150q6 45 14 149q6 74 6 150q0 59 -10 137l-16 141q-6 51 -15 139q-3 33 -3 63q0 39 5 75q6 25 22.5 41t35.5 16q28 -3 37 -12q16 -10 20 -27l4 -14q2 -4 2 -8q-4 -23 -8 -33q-2 -4 -2 -14.5v-18.5l-2 -23q-2 -2 -2 0q-2 -6 -2 -26q0 -23 -2 -35 q-4 -70 -4 -100q0 -16 1 -50t1 -53q2 -72 1.5 -143t-1.5 -143q-2 -49 -2 -143.5t-2 -143.5v-2v-2q4 -70 4 -107q0 -70 2 -106q-4 -33 -19 -49q-18 -18 -39 -19l-10 -2l-18 8l-10 11l-11 8q-6 4 -10 22z" />
<glyph unicode="J" horiz-adv-x="536" d="M0 166q0 16 4 22q16 27 37 33q25 6 39 2q18 -6 29 -22q12 -20 10 -43q0 -2 2 -8.5t4 -10.5l6 -12q4 -6 6 -13.5t6 -13.5q0 -2 17 -22h37h39q25 29 38 41q18 16 33 45q41 82 62 166q18 80 32 190q8 68 13 205q2 52 1.5 104t-1.5 103q-2 76 -11 198q-6 102 -10 179 q6 27 23 43q14 14 35 14q18 0 36 -12q14 -10 25 -39q-8 -252 -14 -383q-8 -162 -33 -383q-2 -16 -6 -53q-4 -33 -8 -74q-2 -10 -4.5 -26.5t-4.5 -31l-4 -28.5q-4 -31 -16 -88q-6 -29 -19 -74q-8 -29 -24 -53l-41 -62q-16 -27 -27 -39q-12 -15 -24 -24q-12 -10 -29 -12 q-20 -4 -45 -7q-23 -2 -72 -4h-2q-16 0 -30 11q-18 12 -37 30q-16 16 -33 43q-15 25 -25 49q-10 25 -12 46q-2 4 -2 14z" />
<glyph unicode="K" horiz-adv-x="1077" d="M0 18l29 273q16 137 24 272q-10 6 -14 22.5t4 28.5q2 4 14 13q4 94 4 143v145q0 35 -1 72t-1 74q0 96 2 143q6 35 24.5 47.5t37.5 12.5h4q23 -4 39 -23q14 -18 12 -51q-10 -63 -22 -182q-4 -31 -10.5 -93.5t-10.5 -93.5q0 -14 -4 -41.5t-4 -42t-4 -43t-4 -43.5l2 1l2 1 l2 1l2 1q92 47 162 115q59 59 98 109l92 114q53 66 99 107q49 45 120 82l19 6q4 0 10 2t10 4q12 4 21 4q4 0 7 1t5 1q33 2 53 -14q16 -14 21 -37q2 -20 -12.5 -41t-45.5 -27q-49 -6 -86 -26q-27 -14 -75 -51q-25 -18 -66 -64l-61 -66l-72 -77q-23 -25 -72 -70 q-33 -31 -78 -61q-59 -41 -86 -56l43 -18q10 -6 19.5 -9t17.5 -8q4 -2 13.5 -8t13.5 -8q12 -6 16 -10l62 -45l41 -29q4 -4 37 -31l57 -53l137 -135q45 -45 144 -131q10 -8 20 -17.5t20 -17.5q8 -6 24.5 -17.5t21.5 -13.5q37 -25 63 -36q51 -27 61 -33q31 -10 41 -27 q10 -12 11 -33v-4q-4 -23 -17 -35q-14 -14 -41 -20q-31 4 -47 12t-49 29l-45 29l-19.5 15t-15.5 11q-72 55 -119 105l-110 118l-107 119q-74 78 -114 113q-10 8 -27.5 23.5t-26.5 21.5q-6 4 -20 15.5t-21 15.5q-25 16 -41 24l-61 33q-10 4 -27 8q-6 2 -16 2t-14 2 q-2 -69 -2 -135.5t2 -134.5q2 -45 3 -136t1 -136q-4 -37 -19 -52q-16 -16 -38.5 -16t-38.5 14q-19 16 -23 47z" />
<glyph unicode="L" horiz-adv-x="911" d="M0 27v14l2 4q4 12 8 16q2 6 23 17q16 8 26 6l11 -2q6 2 18 2h18q-4 41 -4 66q0 12 -1 35.5t-1 33.5v55v33q0 54 1 108q0 393 -21 763q6 29 20 43q16 16 35 16q16 0 37 -14q18 -12 23 -27l4 -12l-6.5 -95t-6.5 -81t-8 -99q-6 -90 -10 -278q-1 -33 -1 -65q0 -111 9 -212 q12 -139 45 -270l4 -4l4 -3q4 -3 7 -5q2 0 8 -1t8 -1h16q2 0 14.5 -1t22.5 -1q8 0 27.5 -1t29.5 -1h56h37q127 8 190 16q70 8 189 20l14 -4q16 -4 26 -20q12 -18 13 -37q0 -20 -15 -35q-16 -16 -28 -18l-15 -4l-59 6q-18 2 -176 10q-51 3 -98 3q-74 0 -138 -7q-29 -2 -49 -4 q-6 0 -16 -1t-12 -1q-4 0 -10.5 -1t-8.5 -1t-8 -1t-10 -1q-14 -14 -33 -17q-23 -4 -45 8h-2l-20.5 -4t-20.5 -2q-6 0 -16.5 -1t-14.5 -3l-8 -4l-10 -2h-6h-11q-20 4 -37 21q-16 14 -20 36v9z" />
<glyph unicode="M" horiz-adv-x="1226" d="M0 1159v8q0 15 6 31q20 35 47 37t45 -12l25 -13q18 -29 39 -55q10 -14 37 -57q55 -98 98 -197l88 -201l113 -239q49 -100 110 -244l88 223l88 224l47 127l48 127q33 82 51 122q23 49 63 121l6 6l5 2q4 2 4 5q4 4 10 9t10 9t10 8t13 8q0 2 -1 6.5t-1 6.5v10q6 27 22 43 q14 14 35 14h2q16 0 35 -12q14 -10 24 -39q-4 -84 -10 -158q-2 -27 -5 -79t-5 -78q-4 -57 -8 -156q-2 -53 -2 -158q4 -166 20 -309q12 -111 45 -309q-2 -35 -18 -49q-18 -18 -37 -19h-2q-16 0 -37 17q-23 18 -25 47q-4 78 -8 233q-2 78 -2 234q0 51 2 77q1 12 1 26 q0 8 -0.5 24.5t-0.5 25.5l-6 230q-2 76 -10 227q-8 -10 -39 -59q-23 -35 -39 -66q-10 -18 -17.5 -34.5t-15.5 -31.5q-23 -41 -24 -47q-49 -100 -84 -194q-45 -123 -70 -201l-57 -203q-23 -80 -51 -204q-12 -33 -33 -41q-23 -10 -41 -5q-20 6 -33 27q-12 23 -6 53q0 4 2 10.5 t4 10.5l6 18q-14 2 -26 13q-14 10 -23 30l-82 275q-47 150 -100 266q-45 100 -97 182q-53 86 -118 170q-4 -49 -4 -53q0 -6 -1 -18.5t-1 -18.5t-1.5 -20.5t-1.5 -22.5q0 -6 -1 -31.5t-1 -46.5q-1 -26 0 -56q0 -45 2 -134l13 -191q8 -127 14 -190.5t14 -190.5q-4 -37 -18 -51 q-16 -16 -38.5 -16t-39.5 14q-18 16 -22 47q12 193 12 383q0 227 -12 383q0 4 -4 53q0 8 -2.5 22.5t-3.5 27t-1 24.5l-4 39t-2 35q-4 49 -4 53q0 23 -2 33q-4 20 -4 31q-2 8 -2 22z" />
<glyph unicode="N" horiz-adv-x="1040" d="M0 1092q6 31 27 45q23 16 43 10q25 4 51 -17l135 -169l131 -179l129 -178l131 -176q47 -63 103 -127l108 -119q8 166 8 371q0 213 -10 369q0 8 -4 49q-2 10 -3 30.5t-1 30.5q-2 23 -2 68q0 23 8 63q6 27 18 54q10 23 37 36q25 8 31 9q10 0 23 -5q20 -8 30.5 -28.5t4 -41 t-32.5 -38.5q-4 -8 -4 -12l-5 -17q-2 -10 -2 -28q0 -8 -8 -29l1 4q1 4 1 6t1 7l1 5h-2q-2 -6 -2 -20q0 -4 -1 -11t-1 -12q0 -31 -2 -51q-4 -41 -4 -67q0 -10 -1 -33t-1 -33v-51q8 -238 14 -352.5t23 -352.5q-2 -12 -6 -28l16 -17q4 -4 8 -7t8 -7q16 -23 17 -43v-8 q-2 -20 -19 -37q-14 -14 -41 -14q-23 0 -47 24q-68 80 -137 172l-129 174l-129 178l-129 177q-41 53 -127 151l-133 144q4 -70 8 -209q4 -135 8 -207l4 -68q2 -23 2 -69q0 -35 -4 -101q0 -16 -4 -49t-4 -49l-6 -100q-3 -46 -3 -72q0 -16 1 -31q-4 -35 -18 -49 q-16 -16 -37 -16h-2q-20 0 -37 14q-23 18 -25 47q4 45 21 135q6 35 13 68t13 67q10 51 21 134q7 51 7 103q0 17 -1 34q-4 72 -12 137q-14 98 -21 137l-24 137zM969 1159l2 2v2q2 2 2 4q0 -4 -4 -8z" />
<glyph unicode="O" horiz-adv-x="1327" d="M0 647v27q2 68 27 139q20 61 59 123q35 55 88 108q47 47 111 89q35 23 77 43q35 16 87 30q4 2 10 4t22.5 6.5t22.5 6.5h8q4 2 12 2q2 0 6.5 1t6.5 1h4q25 -6 34 -21q12 -14 14.5 -30.5t-5.5 -34.5q-10 -20 -29 -31q-12 -4 -20 -4q-10 0 -19 -4l-57 -12q-25 -6 -53 -19 l-80 -41q-16 -12 -23 -18l-82 -80q-37 -33 -63 -70q-27 -35 -45 -82q-16 -43 -21 -110q-1 -15 -1 -30q0 -72 24 -140q27 -76 82 -152q51 -70 125 -125q84 -63 153 -94q82 -37 170 -55q65 -14 126 -14q20 0 40 1q92 6 182 35t142 78q59 55 75 127q7 29 7 62q0 55 -19 122 q-12 43 -35 88q-37 74 -45 89q-23 41 -53 83l-51 74q-68 94 -168 195q-88 88 -187 174q-23 23 -22 47q0 29 12 41q16 16 37 18h8q23 0 43 -14q90 -86 133 -131q57 -59 125 -141q51 -63 113 -152q43 -63 94 -162l22.5 -41.5t24.5 -50.5q23 -49 29 -98q4 -33 8 -45 q12 -41 12 -45q4 -29 5 -45v-2q0 -23 -9 -41q-2 -6 -24 -78q-12 -41 -33 -76q-12 -25 -45 -49q-25 -20 -72 -45q-41 -23 -82 -37q-47 -16 -84 -25q-59 -12 -77 -14q-16 -2 -46 -2h-16q-20 2 -63 2q-10 0 -32 1t-32 1l-61 6q-31 4 -62 17q-23 10 -57 20q-20 6 -57 19 q-8 2 -58 24q-18 8 -51 33q-8 8 -25.5 20.5t-21.5 14.5q-25 16 -49 35l-47 36q-22 18 -37 43l-64 97q-33 45 -53 90q-25 53 -35 96q-10 47 -10 92z" />
<glyph unicode="P" horiz-adv-x="720" d="M0 1114v4q0 12 14 31q12 14 35 25q10 2 41 10l41 12q16 4 41 8h8q16 0 35 -6l96 -33q20 -6 97 -35q37 -12 67 -38q45 -37 70 -64q12 -14 61 -82q29 -41 51 -88q14 -31 31 -88q8 -27 8 -59v-21q-2 -12 -2 -39v-39q0 -14 -4 -39q-2 -14 -14 -34l-39 -62q-23 -37 -25 -39 q-12 -15 -24 -24q-16 -12 -29 -19l-45 -22l-70 -31q-18 -8 -49 -12q-28 -3 -55 0q-8 2 -26.5 4t-28.5 4q-37 4 -56 4q-33 4 -47 20q-16 20 -16 41q0 18 18.5 37t48.5 21q4 0 82 -12q53 -8 76 -9q49 0 74 6q39 10 72 35q39 27 61.5 70t28.5 82q3 22 3 43.5t-3 44.5 q-6 43 -23 90q-14 39 -41 80q-31 45 -55 67q-27 27 -64 54q-18 12 -73 41q-49 20 -90 26q-31 4 -93 17q-6 2 -14 0l-18 -6q-16 -47 -21 -78q-4 -25 -8 -82q-4 -53 -4 -82v-82q0 -98 6 -193q4 -49 7 -97t7 -95q2 -27 7.5 -81t7.5 -81q8 -106 14 -160q-4 -37 -18 -51 q-16 -16 -37 -16h-2q-20 0 -37 14q-23 18 -25 47l6 135l7 136q2 40 1.5 78.5t-1.5 78.5q-4 106 -9 158q-4 70 -8 104l-12 107q-6 55 -6 108q0 72 4 107q-18 10 -27 22q-8 11 -8 27z" />
<glyph unicode="Q" horiz-adv-x="1064" d="M0 643q0 31 2 47q6 76 27 135q20 63 63 121q33 45 82 86q41 35 94.5 61.5t102.5 43.5q41 14 112 28v-2q6 2 17 2h4q29 -10 39 -24q12 -18 12 -37q0 -20 -14 -35q-16 -16 -43 -22l-84 -15q-37 -6 -80 -28q-31 -16 -88 -54q-43 -28 -74 -67q-41 -51 -59 -109 q-20 -61 -23 -121q-1 -15 -1 -30q0 -46 7 -93q10 -70 27 -120q2 -4 10 -35t14 -47q23 -61 35 -82l80 90l80 90l3 5q3 5 7 9l21 21q10 10 18 20l12 13l78 61l78 61q16 14 33 15q14 0 33 -13q6 -6 22 -18q8 -6 23 -20q6 -6 14 -23q6 -12 6 -29l-6 -88q-4 -59 -10 -88 q-10 -51 -29 -127l-31 -125q-4 -12 -6 -24.5l-4 -24.5l-12 -49q84 20 157.5 84t116.5 139q49 84 72 170q20 74 20 143q0 17 -2 33q-6 96 -36 189q-33 96 -82 172q-55 86 -121 147q-68 66 -154 113q-29 16 -41 22q-16 8 -35 15q-6 2 -18 7t-18 7q-4 2 -12.5 4t-15.5 5t-15 5 q-29 14 -39 37q-8 20 -2 43q6 16 30 31q12 6 27 6q6 0 27 -4q104 -45 182 -92q80 -49 145 -115q72 -72 115 -141q49 -80 92 -184q16 -41 20.5 -61.5t12.5 -65.5q4 -25 8 -66q2 -18 10 -65q4 -25 4 -37q0 -4 -1 -11.5t-1 -11.5q-2 -16 -10 -59q-2 -14 -16 -60q-2 -4 -13 -59 q-8 -57 -38 -111q-29 -53 -74 -94l-144 -133q-29 -27 -77 -47q-37 -16 -91 -23q-6 -25 -16 -63q-2 -8 -7 -18.5t-5 -14.5q-2 -4 -5 -11t-3 -9q-3 -9 -7 -31q-2 -16 0 -35q4 -25 5 -33q4 -2 10 -2t8 -2q4 -2 9 -2t9 -2q27 6 52 21l55 30q33 25 47 37q8 6 21.5 17.5t19.5 15.5 q16 18 57 55l62 56q18 8 44.5 8t37.5 -4q14 -6 20 -17q4 -8 -6 -22l-59 -49l-62 -49q-33 -27 -65 -48q-66 -41 -72 -45l-29 -14q-6 -2 -12 -5t-13 -6t-14 -5q-18 -8 -40.5 -14.5t-38.5 -6.5h-7q-18 0 -41 6q-10 4 -45 15q-27 6 -28 18q0 29 -2 43q-4 23 2 41q14 47 22 64 q20 41 29 61l2 4l-2 -2q-2 0 -2 2q0 6 2 14q-47 0 -70 5q-45 8 -65 14q-63 18 -111 59q-46 40 -80 92q-27 41 -59 107l-55 108q-12 22 -19 50q-6 33 -14 51q-20 68 -29 135q-6 45 -6 90zM248 139q23 -31 53 -61q27 -27 64 -47q43 -25 73 -31q30 -7 62 -7q11 0 22 1 q23 90 43 180q20 84 33 186q6 40 6 80q0 51 2 78l-6 6l-6 6l-62 -53q-31 -25 -59 -53q-23 -20 -51 -59q-43 -57 -51 -70q-18 -27 -60 -76z" />
<glyph unicode="R" horiz-adv-x="980" d="M0 63q2 57 5 170t5 170l13 338q0 16 -5 70l-6 82q0 4 -3 34.5t-3 47.5q0 39 6 76q-12 15 -12 36v7q4 25 29 47l57 33q22 12 37 18q4 2 12 5t12 5q12 4 27 4q4 0 17.5 1t21.5 1q39 0 66 2h10q29 0 59 -12l68 -24q37 -12 76 -39q43 -29 71 -62q31 -35 58 -80q29 -49 38 -90 q9 -33 9 -70v-22q-2 -41 -27 -86q-39 -68 -86 -115q14 -23 33 -65l30 -74q12 -31 25 -70q10 -33 16 -49q18 -41 39 -82l43 -82q16 -27 54 -75q18 -25 63 -66q25 -20 39 -27q6 -2 41 -22q18 -22 18 -43q0 -18 -14 -37q-12 -16 -33 -18q-2 0 -6 -1t-6 -1q-10 0 -35 10 q-14 12 -43 33q-20 14 -39 41q-41 61 -80 139l-69 145q-31 68 -74 143.5t-90 131.5h-2q-93 -52 -218 -52h-28q-31 4 -47 23q-16 20 -16 39q0 20 18 39q14 16 49 18q39 -5 70 -5q13 0 24 1q47 4 86 14q6 16 23 29q10 8 43 12h4l4 -1q4 -1 6 -1q57 41 95 107q12 20 18 47 q6 20 2 47q-4 53 -20 84q-20 41 -54 72q-33 33 -75 57q-45 27 -87 37q-47 12 -90 12q-41 0 -84 -16q-16 -8 -22 -12q-12 -8 -21 -15q0 -2 -1 -6t-1 -6l-6 -12l-8 -17q-2 -2 -6 -16q-4 -20 -4 -31q0 -15 -6 -31l-2 3q0 2 1 7t1 9t1 9t1 7v2q-8 -80 -11 -114l-6 -113 q-3 -81 -3 -125q0 -27 1 -51l6 -174q0 -29 4.5 -88.5t4.5 -88t4 -87t4 -86.5q-4 -35 -19 -50q-18 -18 -39 -18q-18 0 -38 16q-19 16 -23 47z" />
<glyph unicode="S" horiz-adv-x="862" d="M0 305v12q2 18 20 33q16 12 35 12q27 0 45 -16l93 -108q49 -55 96 -95q57 -47 112 -77q53 -29 140 -50q45 -9 84 -9q11 0 22 1q45 2 78 29q31 25 39 69q3 17 3 35q0 33 -11 76q-14 63 -51 119q-31 49 -80 100q-35 35 -54 51l-57 45q-6 6 -26.5 23.5t-32.5 26.5l-64 47 l-88 67q-53 41 -78 64q-49 45 -71 69q-41 43 -70 84q-16 18 -23 54q-10 51 -12 57t-2 20q0 18 2 27q0 4 1 11.5t3 11.5l3 9t1 5q6 35 23 53q20 25 41 37q27 16 51 25q28 9 55 12q33 4 49 4q37 0 56 -4q27 -4 52.5 -9l47.5 -9q6 0 17.5 -2.5t17.5 -2.5t18.5 -4t18.5 -4h10 q2 0 6 -1t6 -1h9v-2l-3 -2q25 -4 39 -14q12 -10 17 -31q3 -18 -6.5 -36.5t-30.5 -31.5q-10 -4 -33 -4q-2 0 -39 6q-25 4 -37 9q-29 10 -32 10q-20 6 -42 10t-42 8q-41 9 -69 9h-15q-23 0 -41 -7q-16 -6 -33 -18q-14 -10 -22.5 -28.5t-6.5 -41.5q2 -57 35 -108t78 -94 q61 -57 94 -82l90 -72l82 -66q25 -18 98 -84q33 -29 91 -90q45 -47 61 -82q8 -16 14 -30.5t13 -28.5q20 -43 26 -59q14 -29 15 -64q0 -47 2 -69v-7q0 -23 -9 -41q-4 -8 -20 -45q-16 -41 -47 -57q-39 -20 -76 -26.5t-72 -6.5h-10q-53 0 -72 2q-41 4 -57 11l-57 18 q-68 22 -123 55q-47 29 -102 74q-41 33 -93 88l-92 96q-8 19 -8 35z" />
<glyph unicode="T" horiz-adv-x="1050" d="M0 1221v2q0 18 18.5 36.5t49.5 20.5l239 -25q135 -14 240 -14q37 0 106 4q18 0 53 2t54 2q16 0 57 4t62 4q39 0 59 -2q29 -2 55 -16q27 -18 33 -43v-14q0 -16 -6 -29q-12 -18 -34.5 -24.5t-51.5 8.5q-12 8 -53 14q-47 8 -80 10q-14 2 -42 5t-40 3q-27 2 -60 2v-8 q-41 -125 -57 -192q-23 -100 -35 -187q-10 -82 -14 -188q-1 -25 -1 -52q0 -65 5 -151q4 -49 8 -143q4 -76 13 -146q0 -6 2 -14t4 -14l6 -31q2 -10 2 -29q0 -14 -8 -28q-20 -25 -37 -27q-2 0 -6 -1l-4 -1q-12 0 -37 10q-12 8 -19 15q-4 4 -7 8t-7 8q-12 25 -10 43q4 25 14 35 v26v29l4 65.5t2 63.5q2 20 2 63.5t2 65.5q4 111 8 332q4 168 25 334l12 59q8 41 15 62q-31 1 -65 0l-175 -4q-39 -2 -119 -7.5t-119 -7.5q-29 2 -47 25q-16 21 -16 37z" />
<glyph unicode="U" horiz-adv-x="915" d="M0 1034q0 31 4 101q6 33 27 47q18 12 35 12h6q20 -2 36.5 -22.5t14.5 -51.5q-12 -94 -12 -191q0 -35 2 -71q6 -154 28 -276q25 -139 70 -262t111 -224q8 -12 28 -33q10 -10 35 -26q8 -6 18.5 -12.5l20.5 -12.5l17.5 -12l17.5 -12q20 4 33 4q6 0 17 1t17 1q2 0 33 6 q12 2 29 12q41 27 76 74q29 39 57 100q23 49 39 107q18 66 22 98q10 66 15 135q3 58 3 82q0 17 -1 31q-4 70 -11 102q-12 66 -20 101q-4 14 -11 52t-14 60q-15 61 -30 136q-4 35 10 51q18 23 35 24q20 2 41 -8q22 -12 30 -43q6 -43 19 -92q14 -61 22 -102q12 -70 17 -107 q4 -45 4 -68q0 -27 -2 -38q-4 -53 -4 -82q0 -27 -4 -84l-7 -82q-4 -43 -12 -82q-12 -55 -24 -101q-18 -63 -25 -77q-18 -41 -31 -60q-25 -37 -39 -55q-2 -4 -51 -57l-65 -70l-9 -4q-4 -2 -12 -2l-96 -19q-18 -4 -57 -4q-23 0 -33 2q-47 6 -82 31q-37 25 -72 92 q-25 49 -39 74l-19 32.5l-24 39.5l-37 73q-16 35 -26 76q-6 27 -49 201q-16 66 -41 192q-16 84 -27 195q-4 65 -4 98z" />
<glyph unicode="V" horiz-adv-x="1058" d="M0 1188v4q4 20 18 37q12 16 29 18q2 0 5 1t5 1q12 0 25 -6q18 -10 33 -29q10 -23 10 -61q0 -43 2 -63l6 -123q4 -41 8 -123q4 -63 8.5 -126t6.5 -120q6 -129 26 -244q6 -35 23 -100q10 -37 20 -100l74 108l72 109l264 372q123 164 295 351q20 18 49 18q23 0 39 -16 q14 -14 16 -37v-4q0 -27 -20 -47q-176 -166 -309 -326q-147 -176 -277 -352l-43 -62l-45 -61l-7 -10q-7 -10 -11 -21q-10 -20 -31 -51q-12 -18 -41 -51q-20 -23 -41 -27q-12 3 -19 6q-6 2 -12 17q-47 160 -76 333q-31 188 -47 340l-18 158l-21 160q-2 16 -2 51q0 29 -8 51 l-2 6q-2 0 -2 2q-2 5 -2 17z" />
<glyph unicode="W" horiz-adv-x="1447" d="M0 1196q6 27 23 43q14 14 34 14q18 0 37 -12q14 -10 25 -41q6 -121 33 -223q29 -111 67 -213q47 -125 84 -207l88 -209q4 -8 9.5 -23.5l7.5 -21.5q16 -45 20 -53q2 2 4 7t2 7q4 8 6 15l54 120q37 78 53 119q18 47 41 121q20 66 22 129q3 18 13 31q10 14 18 18 q-37 127 -53 189q-23 86 -39 198q6 27 22.5 43.5t34.5 16.5q16 0 37 -15q14 -10 25 -39q4 -113 14 -206q8 -70 37 -205q8 -14 8 -37q31 -135 94 -277q63 -143 142 -256q49 119 77 211l22.5 68l26 79t19.5 68q8 29 15 57.5t16 55.5l32 111q6 25 35 108q8 23 23.5 61.5 t19.5 47.5q12 31 33 57q25 31 39 53q25 20 45 20.5t37 -9.5q14 -8 20 -31v-17q0 -14 -6 -32l-37 -43q-25 -29 -37 -45q-63 -92 -106 -205q-51 -131 -76 -223q-39 -143 -57 -232q-20 -100 -53 -225l-25 -72q-14 -35 -27 -72q-18 -20 -38 -26q-18 -6 -37 4q-18 8 -27 29 q-10 23 -4 47q2 6 6 14l8 16q-49 86 -67 129q-12 27 -52 132q-16 43 -45 133q-12 37 -23 74.5t-22 66.5q-2 2 -2 6q0 6 -2 10l-37 -77l-39 -74q-20 -37 -38 -76l-33 -78q-27 -76 -35 -135q-6 -43 -10 -137q2 -2 2 -6l4 -4q16 -2 32.5 -22.5t14.5 -49.5l-6 -19 q-8 -16 -21 -28q-12 -10 -26 -15q-2 0 -5 -1t-5 -1q-6 0 -19 5q-16 6 -31 20q-10 14 -20 33q-10 20 -14 33q-22 15 -25 49l2 14v4q0 4 -2 8q-25 74 -47 158q-22 77 -49 154q-33 92 -68 170l-72 168l-71 167q-41 102 -60 172q-6 18 -10 54l-2 22q-2 23 -4 33z" />
<glyph unicode="X" horiz-adv-x="985" d="M0 115q0 12 2 20l51 80l45 70l47 69q4 6 58 76l24.5 32.5t20.5 26.5q10 10 16 21.5t15 19.5l24 29q4 6 11.5 12.5t13.5 14.5l26 30q8 8 17.5 20.5l21.5 27.5q-115 172 -176 254q-123 164 -190 241q-12 23 -9 47q2 20 19 33q18 14 37 14h2q25 0 43 -16q66 -92 164 -258 l157 -260l209 256l207 258q20 20 47 20h4q27 -4 39 -16t17 -39v-4q0 -25 -21 -45l-121 -119l-119 -119l-118 -123q-37 -37 -111 -124l84 -134l90 -129l47 -63l54 -68q27 -35 55 -67q25 -31 55 -58q20 -20 39 -30q4 -2 41 -29q16 -18 16 -45q0 -16 -14 -35q-12 -16 -33 -18 q-2 0 -5 -1t-5 -1q-12 0 -37 10q-8 8 -24.5 20.5t-20.5 16.5q-23 18 -41 41q-90 119 -158 233l-147 242l-20 29l-21 30q-98 -127 -172 -254q-96 -166 -147 -272q-18 -20 -39 -27q-18 -6 -37 4.5t-27 26.5q-6 13 -6 29z" />
<glyph unicode="Y" horiz-adv-x="1071" d="M0 1153q0 23 8 37q8 18 29 24q18 6 39 0q16 -4 37 -28q14 -63 32 -109q29 -70 48 -102q14 -27 61 -96l65 -91l3 -2l92 -104q51 -57 96 -100l2 -2l27 47q6 10 15 23.5t19 31.5q70 117 183 283l188 276q25 20 45 21h4q16 0 33 -11q14 -12 21 -30q0 -2 1 -7.5t1 -9.5 q0 -14 -7 -33l-159 -184q-86 -96 -156 -188q-72 -96 -131 -205q-63 -115 -94 -227q-18 -68 -22.5 -90.5t-8.5 -71.5q-4 -45 -4 -72q0 -55 -2 -94q-8 -25 -29 -39q-14 -8 -30 -8h-7q-16 2 -32 18q-18 18 -21 43q8 59 10 94q3 46 19 93q6 18 11 38.5t11 38.5q14 45 27 76 q4 12 9 25.5l9 23.5q8 20 17 39q-16 2 -39 25q-55 77 -105 160q-45 76 -104 161q-29 41 -57 76q-12 14 -31 41l-25 35q-31 39 -53 78q-31 49 -45 86v10z" />
<glyph unicode="Z" horiz-adv-x="1095" d="M0 1178q0 20 18 39q14 16 50 18q53 -2 106 -6l107 -8q86 -5 154 -5q29 0 57 1q143 4 215 8q59 3 126 3l89 -1q31 -10 41 -25q12 -18 12 -37q0 -20 -14 -35q-16 -16 -43 -22q-6 2 -17 2q-2 0 -14 4l-5 -5t-4 -5t-4.5 -4t-5.5 -4q-4 -2 -12 -6.5t-14 -8.5q-12 -10 -21 -12 q-6 -2 -10 -6l-59 -41q-12 -8 -34 -25.5t-24 -19.5q-57 -45 -114 -107q-53 -53 -121 -143q-55 -74 -99 -154q-51 -96 -81 -163q-25 -55 -66 -170q43 18 78 28q53 16 78 25l69 20q10 2 27.5 8.5t23.5 8.5l90.5 29.5l76 24.5t87.5 32q141 49 254 78q31 2 51.5 -14.5 t22.5 -37.5v-6q0 -16 -12 -34.5t-45 -24.5q-172 -22 -338 -62q-182 -43 -326 -108l-41 -21l-49 -24l-51 -31q-35 -20 -43 -29q-2 -6 -4 -10t-2 -8l-6 -18q-8 -23 -25 -35q-14 -12 -33 -13q-14 -8 -28 -8h-11q-14 2 -30 19q-10 10 -15 34q-2 20 13 46q4 4 10 13t8 13 q12 16 20 25q0 2 5 6q94 207 202.5 397.5t251.5 364.5q2 4 56 65q14 16 44.5 47t47.5 45l61 56q-4 0 -121 12q-41 4 -121 4q-123 -4 -213 -16q-8 -2 -213 -25q-31 4 -47 23q-16 21 -16 39z" />
<glyph unicode="[" horiz-adv-x="546" d="M0 -383v4q0 6 4 23h2q0 4 2 10q4 12 4 16q0 2 1 8.5t1 10.5l2 8l7.5 50.5t5.5 41.5q4 25 8 74q3 34 6 74q2 14 3 44.5t1 47.5q0 12 2 29.5t2 39.5q2 31 2 99q0 18 1 50t1 46v69q-3 126 -12 252l-18 248q0 4 -4.5 45t-6.5 65.5t-2 76.5q0 41 8 67q-6 6 -10 25q-2 4 4 24 q4 14 15 25q12 14 28 18q33 2 78 -4q43 -6 76 -4q49 4 92 19l86 32h4q29 0 43 -10q16 -10 23 -31q6 -18 -2 -36q-8 -20 -33 -35q-8 0 -25 -4q-8 -2 -22 -2q-16 0 -49 4q-16 2 -49 2q-37 0 -68 -6q-27 -6 -64 -17q-2 -16 -18 -33v-12v-12v-10h-2v-15q-4 -57 -4 -83.5 t-4 -84.5q0 -16 -1 -45.5t-1 -42.5v-78v-79v-89q0 -166 6 -331.5t6 -333.5q0 -57 -2 -86v-44.5t-2 -43.5q8 -6 16 -23q23 -2 66 2q34 3 61 13q59 23 92 41q29 16 91 45q27 0 45 -12.5t24 -28.5q2 -4 2 -15q0 -16 -4 -24q-8 -20 -33 -35q-35 -2 -100 -10q-49 -6 -98 -19 q-27 -6 -47 -18q-29 -16 -45.5 -22.5t-49 -15.5l-47.5 -13q-4 0 -10 1t-8 3q-2 0 -8 -1t-11 -1q-14 0 -26 6q-23 10 -33 33q-2 6 -2 18zM4 -356v4v-4zM4 -350l2 4v-4h-2zM6 -344q4 8 4 12z" />
<glyph unicode="\" horiz-adv-x="577" d="M0 1233q0 25 12 39q16 18 35 24h10q16 0 31 -8q20 -12 31 -45q10 -80 39 -188q12 -49 57 -187q18 -57 76 -202l84 -199l88 -199q14 -29 86 -198q4 -20 4 -27q0 -14 -6 -27q-12 -23 -31 -28q-12 -4 -18 -4q-12 0 -25 6q-23 10 -37 37q-49 168 -98 317q-57 172 -117 313 q-37 94 -57 140l-62 137q-41 94 -57 141q-31 88 -45 146v12z" />
<glyph unicode="]" horiz-adv-x="397" d="M0 -313v12q2 14 23 31q16 14 45 14l30 -18q20 -12 31 -17q18 -8 34.5 -10t37.5 0q0 2 1 2t1 2l4 4v2q0 59 8 107q6 35 14 100q6 41 15 137l12 135q16 199 12 459q-4 252 -14 457l-2 1l-2 1q-4 0 -10.5 -1t-8.5 -1q-12 0 -18 2h2l4 1q4 1 6 1h8h3q-20 2 -41 -4 q-18 -6 -37 -19q-31 -20 -35 -24l-33 -29q-25 -6 -47 4q-20 8 -29 27q-10 18 -4 39q6 18 29 39q45 8 70 10q39 4 71 12q25 8 45 19q14 8 43 16q25 6 27 6q8 0 24 4q33 -10 43 -28q10 -16 11 -31v-8l-19 -340l-18 -340q-6 -113 -10 -334l-4 -332v-2q4 -31 -0.5 -63.5 t6.5 -63.5q0 -20 -9 -35q-6 -10 -22 -22q-10 -8 -27 -8q-14 0 -28 8q-14 0 -21 2q-8 2 -18 6q-2 0 -9.5 3t-11.5 5q-2 0 -12 3t-16 5q-23 6 -56 2q-8 0 -26.5 -4t-28.5 -4q-29 14 -37 33q-6 17 -6 27z" />
<glyph unicode="^" horiz-adv-x="768" d="M0 690q0 12 2 21l88 125q45 70 80 131q20 37 29 57q12 29 26 57q12 27 90 146q25 8 31 8h4q2 0 2 -2h4q80 -66 88 -90l17 -51q6 -29 14 -45q25 -61 45 -99q20 -39 55 -84q31 -40 68 -73q33 -31 84 -68q18 -22 18 -43v-2q0 -18 -14 -37q-12 -16 -33 -18h-12q-16 0 -35 8 q-8 8 -14 16t-14 15q-18 18 -27 28q-33 45 -59 94l-52 95l-65 112l-72 109q-49 -55 -80 -101q-27 -39 -61 -104q-28 -52 -49 -111q-8 -23 -21.5 -56.5l-27.5 -70.5q-18 -20 -39 -26t-37 2q-18 8 -27 29q-6 12 -6 28z" />
<glyph unicode="_" horiz-adv-x="1050" d="M0 -233q0 20 18 38q14 14 50 19q123 -12 227 -31q74 -12 225 -29q121 -12 228 -10q152 4 227 8q29 -10 39 -24q12 -18 12 -35v-2q0 -20 -14 -35q-16 -16 -43 -22q-117 12 -226 30q-74 12 -225 29q-94 10 -227 10q-76 0 -228 -8q-31 4 -47 23q-16 21 -16 39z" />
<glyph unicode="`" horiz-adv-x="358" d="M0 1260q0 23 12 38q16 18 35 25h10q16 0 31 -8q22 -12 31 -43q0 -27 2 -35q2 -4 4 -12t4 -13q2 -12 10 -26q6 -10 13 -35q12 -18 36 -47q31 -35 37 -41q8 -6 22.5 -19.5t20.5 -19.5q8 -8 22.5 -18.5t28.5 -22.5q16 -23 17 -43v-6q-2 -20 -21 -39q-15 -12 -36 -12h-3 q-27 0 -49 22l-24.5 46.5l-22.5 43.5q-23 39 -55 82q-4 6 -16.5 21.5t-18.5 21.5l-33 37q-10 12 -30 41q-12 18 -27 49v13z" />
<glyph unicode="a" horiz-adv-x="665" d="M0 125v18v27q0 18 4 47t4 45q4 59 15 109q8 37 36 110q22 55 50 105q29 51 61 90q22 28 55 55q37 31 70 49q39 23 78 29h20q29 0 58 -12q16 -8 22 -15q4 -4 21 -16q16 -18 16 -45q0 -22 -12 -37q-12 -16 -33 -18q-25 -4 -47 8q-2 2 -5 4t-5 4t-6.5 4t-6.5 4 q-14 8 -30.5 2t-38.5 -18q-14 -8 -39 -25q-6 -4 -15.5 -11t-11.5 -9t-10 -15q-4 -6 -14 -10q-68 -84 -107 -166q-45 -92 -53 -188l-8 -78q-3 -35 -3 -54q0 -12 1 -22q0 -8 10 -14q4 -4 12 -14q10 6 23 8q14 4 20 10q72 57 121 121q49 61 102 149q47 76 88 162q39 80 68 158 q12 22 31 31q18 8 34 6q20 -4 31 -15q14 -14 17 -30l6 -13q2 -2 2 -6t2 -6q-2 -8 -2 -22.5t-2 -22.5q-4 -33 -8 -45q-4 -18 -11.5 -55l-11.5 -56q-16 -74 -20 -110q-3 -31 -4 -65q0 -22 1 -46q2 -53 25 -108q2 -6 8 -17.5t10 -17.5l19 -35q4 -20 4 -27q0 -14 -6 -26 q-12 -23 -31 -29q-12 -4 -18 -4q-16 0 -25 4q-23 10 -37 39q-14 59 -16 90q-4 49 -4 74q0 49 2 74q0 6 3 37.5l5 52.5q4 41 4 59v62q-61 -98 -112 -162q-59 -78 -125 -156q-18 -23 -52 -59q-27 -31 -63 -45q-8 -4 -39 -15q-18 -6 -39 -12q-10 -2 -18 0q-12 4 -19 10 q-16 25 -24 33q-14 14 -20.5 36.5t-6.5 45.5z" />
<glyph unicode="b" horiz-adv-x="714" d="M0 1049q6 25 22.5 41t35 16t36.5 -12q14 -10 25 -41l-13 -164q-5 -66 -4 -122v-44q2 -90 19 -270l24 -273q0 -6 -2 -12l43 -49q29 -33 43.5 -47.5t46.5 -38.5q25 -18 60 -25q25 -4 41 -2q29 4 43 8q25 6 39 15l33 16q45 27 77 76q31 47 43 96q8 35 9 69q0 17 -3 33 q-6 51 -30 89q-25 35 -70 55q-28 12 -62 12q-24 0 -48 -6q-33 -6 -80 -29q-53 -25 -80 -34q-31 -6 -53 6q-20 12 -26.5 32.5t3.5 42.5q8 20 41 33l84 25q57 16 84 20q32 5 59 5q11 0 23 -1q43 -3 86 -24q70 -35 102.5 -92.5t38.5 -124.5v-25q0 -61 -16 -113 q-20 -70 -64 -127q-41 -55 -100 -96q-57 -39 -127 -45h-25q-31 0 -59 6q-49 12 -72 25q-37 20 -65 43q-23 18 -64 55l-26 27q-4 4 -29 20q-22 22 -25 43q-4 23 9 39l12 162q5 64 5 117q0 22 -1 43q-2 125 -16 274q-6 66 -13.5 134.5t-13.5 138.5z" />
<glyph unicode="c" horiz-adv-x="813" d="M0 487q0 45 2 68q4 53 8 82q8 49 17 74q14 37 30.5 57t22.5 26.5l12 13.5t12 13q35 39 91 53q41 10 75 11q23 0 35 -2q49 -6 107 -33q51 -25 80 -66q18 -27 22 -30.5t11 -14t12 -16.5q6 -6 6 -10q2 0 4 -4l2 -4q4 -4 6 -9q4 -14 4 -25q0 -22 -14 -36q-25 -25 -39 -25 q-16 0 -33 4q-12 4 -29 23q-14 18 -12 37q-25 45 -63 74q-43 33 -82 40q-16 3 -33 4q-28 0 -55 -10q-43 -14 -76 -63q-16 -25 -27 -49q-2 -2 -12 -54q-8 -39 -10 -53q-4 -37 -6 -53v2q-4 -45 -5 -78v-29v-28v-29q4 -53 11 -84q8 -41 24.5 -75.5t42.5 -59.5q29 -27 68 -35 q14 -4 43 -4h45q2 0 45 6q4 0 13.5 2t16.5 3t13 1q76 16 166 43l166 43q29 0 45 -10q18 -12 24 -31q2 -4 2 -14q0 -14 -4 -22q-8 -20 -32 -35q-14 -2 -131 -27l-152 -29q-90 -14 -117 -14l-37 -2h-36l-52 2l-14 4l-14 4l-15 4l-26 9q-27 8 -60 39q-35 33 -53 73 q-20 47 -29 92q-6 33 -10 99q-4 37 -4 63q0 12 -1 38t-1 40v16zM68 526v6l1 3l1 2q0 2 -1 1.5t-1 -1.5v-11z" />
<glyph unicode="d" horiz-adv-x="630" d="M0 236v14q0 29 6 57q12 41 27 70q14 27 67 80q47 47 62 53q16 6 26 14q14 8 37 11q16 2 51 2t52 -2q25 -3 37 -7q4 -4 10 -6q2 0 9 -4t21.5 -11t28.5 -13q25 -4 37 -16.5t12 -41.5q8 31 10.5 39l5.5 17.5t3 11.5q2 16 5 49t5 49q8 68 8 154q0 51 -8 153 q-4 45 -16.5 151.5t-16.5 151.5q6 27 22.5 43.5t35.5 16.5h2q14 0 34 -15q14 -10 25 -38q-4 -70 -8 -205q-6 -203 -6 -205q0 -104 2 -158q3 -75 3 -113q0 -25 -1 -46q0 -14 -1 -28.5t-1 -29.5q0 -18 -4 -55l-2 -4v-2q20 -12 24 -31q2 -6 2 -18q0 -14 -6 -33q-35 -49 -84 -96 q-47 -43 -90 -68q-66 -37 -102 -51q-61 -25 -119 -43q-16 -6 -35 -6q-6 0 -23 4q-35 6 -59 20q-29 16 -49.5 39t-26.5 51q-8 36 -12 95zM66 174q10 -41 47 -59q22 -12 50 -12q11 0 23 1q37 6 80 29q37 20 76 49q41 31 64 54l34 34l13 13q2 2 5 7t5 7q-2 14 2 51q2 18 10 55 v-2q-16 -20 -29 -24q-14 -6 -38 -2q-27 8 -48 22q-10 8 -20 14.5t-21 14.5h-5q-32 0 -171 -29q-27 -20 -47 -57q-20 -39 -30 -84q-5 -22 -5 -42t5 -40z" />
<glyph unicode="e" horiz-adv-x="948" d="M0 504v26q2 74 25 142q20 66 61 112q18 23 53 52q23 18 68 30q25 6 51 6q25 0 37 -2q39 -6 86 -26q35 -16 74 -51q29 -27 53 -68q18 -33 24 -76l11 -76q0 -18 -11 -34q0 -12 -10 -29q-8 -14 -26 -27q-20 -2 -58 -10q-18 -4 -51 -16q-10 -4 -47 -27q-33 -20 -49 -33 q-6 -6 -12 -10q-4 -4 -10.5 -7t-10.5 -7t-8 -8.5t-10 -8.5q-12 -8 -14.5 -10t-22.5 -6l-23 -8q-31 4 -45 18.5t-18 34.5q-2 16 10 37q14 20 39 29q10 0 16 2q10 4 17 -2v-5q25 4 61 21q18 8 51 29q10 6 25.5 19t21.5 17q4 4 56 39l4 4q2 0 6 5q0 33 -2 49q-3 25 -12 49 q-15 37 -50 61q-33 25 -71 33q-20 5 -38 5t-38 -5q-40 -9 -68 -43q-10 -10 -32 -51q-14 -25 -25 -62q-4 -12 -14 -71q-6 -37 -6 -74q0 -25 4 -78q2 -35 16 -76q31 -96 82 -141t117 -57q27 -5 55 -5q38 0 82 9q57 12 145 45q80 31 142 63l125 64q33 12 53 4t31 -29 q6 -12 6 -24.5t-2 -18.5q-6 -23 -35 -39l-152 -65q-90 -39 -162 -60q-78 -23 -163 -32q-14 -2 -41 -2q-61 0 -123 18q-65 18 -111 68q-51 55 -80 116q-29 63 -45 146q-12 66 -12 127z" />
<glyph unicode="f" horiz-adv-x="813" d="M0 713q0 8 2 14q6 20 27 39l41 16q4 2 41 13q51 14 88 16l90 8h2q2 6 3 24.5t1 26.5q0 10 3 35t5 39q2 31 10 86q8 57 15 84q10 45 18 71.5t25 47.5l39 45l41 45q4 4 18 10q8 4 20 4q49 -8 74 -10q37 -3 68 -18q29 -14 45 -33q16 -20 33 -45l30 -47q16 -27 33 -43 q16 -23 16 -43v-8q-2 -20 -18 -37q-14 -14 -41 -15q-23 0 -47 25q-6 6 -20 35l-29 51l-27 45q-12 20 -22 25l-43 12l-43 12q-14 -14 -33 -26q-20 -14 -29 -33q-18 -31 -35 -82q-10 -31 -22 -92q-12 -57 -17 -95q-8 -61 -10 -88l99 13l96 12q29 -10 39 -25q12 -18 12 -36 q0 -20 -14 -35q-16 -16 -43 -23q-33 4 -59.5 9.5t-47.5 7.5q-29 4 -86 8q-3 -48 -3 -102q0 -34 1 -72q2 -29 3 -88.5t1 -87.5l6 -175q1 -22 1 -46q0 -59 -5 -130q-8 -27 -26 -39q-16 -10 -31 -10l-2 1q-2 1 -4 1q-20 4 -35 19t-18 43q12 88 18 170l12 172q0 29 4 85t4 85 q2 57 11 172q-37 -4 -92 -31q-55 -25 -111 -66q-29 -6 -47 3q-20 8 -29 26q-6 13 -6 25z" />
<glyph unicode="g" horiz-adv-x="796" d="M0 -74v21q2 25 16 61q14 35 33 60q12 16 39 57l25 20q6 6 21.5 15.5t21.5 15.5q10 8 55 35q51 31 59 35l-45 41q-20 20 -28.5 30.5t-20.5 38.5l-26.5 61.5t-14.5 65.5q-1 9 -1 18q0 26 7 50q4 12 10.5 37.5t10.5 36.5q12 41 20 55q14 25 27 37q18 18 37 28q16 10 53 21 q8 2 31.5 10t40.5 12q14 4 43 0q18 -2 41 -10q37 -10 65 -26q34 -18 62 -43q-2 4 -13.5 22.5l-17.5 28.5l-37 51q-12 23 -8 47q2 20 18 33q15 12 37 12q25 0 43 -16l37 -53q14 -20 33 -56q18 -43 33 -102q10 -43 10 -105q0 -49 -17 -102q-14 -49 -47 -96q-20 -29 -37 -45 q-29 -29 -47 -43q-14 -10 -57 -37q-29 -16 -57 -27q-6 -16 -18.5 -28.5t-37.5 -18.5q-28 -3 -55 -18q-37 -20 -49 -27q-8 -4 -23.5 -11t-29 -14.5t-25.5 -13.5q-33 -16 -67 -49q-27 -23 -48 -66q-17 -34 -16 -73v-13q2 -47 27 -92q18 -35 57 -69q27 -25 80 -47 q49 -20 92 -27q50 -7 76 -7q9 0 18 1q57 4 90 16q52 18 92 49q41 31 62 82q10 26 10 55q0 12 -2 25q-6 35 -29 72q-20 31 -57 55q-31 18 -76 23q-10 1 -20 0q-25 0 -49 -5q-16 -4 -56 -22q-16 -8 -53 -33l-59 -39q-25 -6 -47 4q-20 8 -29 27q-10 18 -4 38.5t27 39.5l83 43 q53 27 64 31q33 12 57.5 18t57.5 2q35 -4 67 -14q57 -18 84 -31q25 -12 43 -37q2 -4 14.5 -21.5t20.5 -25.5q18 -22 25 -49q8 -37 14 -53q6 -25 6 -50q0 -29 -8 -51q-14 -45 -51 -92q-31 -39 -82 -70q-49 -29 -92 -34q-70 -8 -88 -11q-6 0 -31 -3t-37 -3h-8q-16 0 -49 4 q-31 4 -58 13q-33 10 -61 26l-35 17.5t-43 23.5q-29 18 -53 47q-20 23 -35 60l-23 59q-12 37 -16 55q-2 12 -2 37zM211 481q4 -45 14 -78q12 -35 35 -67q18 -27 51 -43q8 -6 17 -8q4 -2 9 -2t9 -2q20 8 39 12q25 0 35 -4q37 12 53 22q41 25 49 33q23 18 41 41q12 14 29 43 q2 4 18 47q6 16 11 51q-14 -12 -28.5 -12t-31.5 8q-12 6 -22 23q-8 14 -9 35q0 8 -6 20v2l-6 12q-2 2 -4 5.5t-4 5.5l-4 5q-4 5 -8 7q-2 2 -8.5 5t-8.5 5t-8 5t-8 5l-12 13h-2q-39 20 -74 22q-5 0 -10 1q-35 0 -72 -19q-33 -16 -51 -47q-16 -29 -27 -68q-7 -28 -7 -58 q0 -10 1 -20z" />
<glyph unicode="h" horiz-adv-x="768" d="M0 1212q6 27 23 43q14 14 34 15q18 0 37 -13q14 -10 25 -40q-4 -49 -7 -99.5t-8 -99.5q-2 -33 -7 -99.5t-7 -99.5q-6 -98 -6 -198q0 -133 4 -201l4 -58l4 -57q45 74 109 139l123 121q25 25 43 35q25 14 41 16q22 3 43 0q41 -6 51 -8q14 -4 18 -8q29 -33 51 -63 q14 -20 35 -66q16 -33 27 -68l27 -79l18 -58q4 -10 8 -19t6 -15.5t8.5 -18.5t8.5 -18q4 -8 28 -66q4 -20 4 -27q0 -14 -6 -26q-12 -23 -30 -29q-25 -8 -43 0q-23 10 -37 39q-29 111 -41 166q-25 111 -41 164l-10 30q0 2 -4.5 16.5t-8.5 22.5q-4 6 -10 17.5t-10 17.5 q-10 18 -22.5 28.5t-28.5 10.5q-14 0 -28.5 -6t-29.5 -16q-8 -6 -20 -19q-29 -27 -74 -78q-27 -31 -72 -100q-27 -41 -57 -111q-27 -57 -29 -104q-6 -16 -14 -25l4 -8q0 -6 2 -8q0 -29 -14 -45q-14 -18 -33 -21q-2 0 -5 -1t-5 -1q-10 0 -27 9q-20 8 -33 34q-10 59 -14 136 q-2 34 -1.5 67.5t1.5 67.5q4 94 8 137q6 68 6 135q1 40 1 82q0 103 -5 223q-8 213 -14 305z" />
<glyph unicode="i" horiz-adv-x="184" d="M0 1147q0 16 6 29q0 23 10 53q8 16 27 28q12 4 18 5h13q10 -2 30 -19q12 -10 23 -31q16 -10 25 -22q8 -14 8 -37v-6q-12 -33 -27 -49q-23 -23 -37 -29q-18 -8 -39 -2q-23 6 -32 25q-4 4 -9 12q-2 2 -5 6t-5 8q-2 2 -2 8q0 2 -4 7v14zM25 786q6 27 22 43q14 14 35 15 q18 0 37 -13q14 -10 24 -40l-24 -191q-12 -80 -17 -190q-1 -16 0 -32q0 -82 13 -159q14 -88 37 -186q0 -29 -15 -45q-14 -18 -33 -21q-2 0 -5 -1t-5 -1q-10 0 -26 8q-20 8 -33 35q0 20 -4 58q-2 18 -2 57q0 71 6 141q4 45 8 144q1 25 1 51q0 63 -5 139q-8 120 -14 188z" />
<glyph unicode="j" horiz-adv-x="403" d="M0 -430q0 10 2 14q6 20 27 39l51 17q31 8 45 22q27 27 39 57.5t26 75.5q12 39 19 78l10 64q12 102 14 118q4 66 5 95q0 63 -2 96q-2 47 -7 121q-2 37 -4 63.5t-2 38.5t-1 36.5t-3 37.5q-2 23 -2 73v95q0 31 8 49q6 14 15 47q14 23 34 31q20 10 37 4q18 -6 31 -25 q10 -14 10 -47q-8 -25 -14 -37q-2 -6 -12 -39q-4 -18 -9 -73l-6 -97q-4 -66 -4 -94q0 -16 -1 -35.5t-1 -23.5v-47q0 -10 -1 -37t-1 -43q0 -14 -1 -46t-1 -48.5t-2 -49t-2 -47.5q0 -16 -1 -42.5t-1 -37.5q0 -12 -1 -28.5t-1 -18.5q0 -10 -4 -47q0 -8 -3 -28.5t-5 -32.5 q-2 -18 -11 -70l-18 -67q-6 -23 -23 -60q-10 -23 -32 -41q-27 -23 -56 -35q-29 -10 -59 -28q-8 -2 -21 -2q-14 0 -26 6q-20 8 -29 26q-6 13 -6 23zM233 1130q-1 9 -1 18q0 13 4 26q8 27 18 43q14 20 27 30q12 6 22 6q12 0 21 2q23 -10 24 -10q12 -8 17 -16l2 -2q2 -2 2 -4 l6 -6q6 -18 6 -35q0 -27 -12 -52q-4 -10 -13 -26l-16 -27q-8 -10 -25 -18q-10 -5 -18 -5l-6 1q-12 3 -25 12q-12 10 -20.5 22t-12.5 41z" />
<glyph unicode="k" horiz-adv-x="641" d="M0 389v35q0 90 2 137q4 102 4 154q0 100 2 151q0 2 1 16.5t1 26.5v72q0 25 4 86l6 88q0 10 13 74q6 31 18 47q25 20 47 20t37 -12q14 -12 21 -33q6 -18 -9 -43q0 -2 -2 -6t-2 -6q-4 -8 -4 -12q-4 -18 -8 -47q-4 -33 -8 -50q-6 -37 -12 -63q-2 -10 -9 -49q0 -4 -3 -21.5 t-5 -27.5q-6 -55 -8 -70q-14 -111 -16 -197q-1 -44 -2 -83q0 -61 4 -117q4 -84 26 -199q20 -109 54 -190q10 -33 -2 -54q-12 -23 -31 -28q-23 -8 -41 0q-23 10 -37 39q-16 61 -27 135q-8 63 -12 131q-2 33 -2 96zM102 475q0 14 9 29v2l2 2l17 20.5l17 20.5l31 47 q10 16 23 49q8 25 12 53q6 33 27 47q15 11 31 11h10q23 -4 36 -21q16 -20 15 -51q-10 -49 -45 -100q-25 -39 -70 -86q16 -18 35 -47q31 -47 37 -54q49 -63 151 -182q35 -41 162 -172q16 -23 16 -43v-8q-2 -18 -20 -37q-18 -14 -37 -14h-2q-23 0 -47 24q-46 61 -86 123 l-82 125l-86 119q-45 57 -98 110q-14 -6 -27 -2q-10 2 -20.5 12.5t-10.5 22.5z" />
<glyph unicode="l" horiz-adv-x="190" d="M0 891v27q0 72 2 106q2 57 21 100q4 10 7 18.5t7 18.5l16 37q16 29 39 35q6 2 19 2q16 0 24 -4q18 -10 29 -33q4 -12 4 -20.5t-8 -32.5q-4 -6 -10.5 -14.5t-8.5 -14.5q-12 -20 -16 -33q-12 -29 -19 -63q-2 -12 -7 -35.5t-7 -36.5q-4 -25 -8 -74q-2 -33 -6 -63 q-6 -77 -7 -153q0 -106 13 -212q23 -188 57 -360q0 -29 -14 -45q-16 -20 -33 -23h-10q-14 0 -27 7q-18 8 -32 36q-12 147 -13 293q0 98 -4 295q0 20 -4 106.5t-4 135.5z" />
<glyph unicode="m" horiz-adv-x="1335" d="M0 768q0 18 6 35q12 27 49 39q25 0 41 -8q18 -10 25 -23q6 -16 6 -32.5t-12 -28.5q-6 -131 -6 -134q-2 -23 -3 -50q0 -37 5 -85q8 -80 14 -125l18 -125l25 56l25 55l86 170q51 102 94 168q10 14 26 45l31 55q18 29 39 51q29 33 43 43q18 14 47 21q2 0 7 1t7 1 q20 0 41 -12q14 -6 27 -25q12 -16 23 -43q16 -39 18 -45l12 -37q45 -143 49 -155l45 -158q12 -33 23 -72q9 -34 25 -67q27 39 45 84q29 72 37 88q20 41 30 57q27 41 33 49q8 12 18 21l25 18q8 6 24.5 14.5t26.5 8.5q20 2 41 -7q10 0 21 -6q12 -4 24.5 -20.5t20.5 -28.5 q18 -39 30 -76q4 -18 10.5 -38.5l12.5 -38.5q12 -18 16 -29q0 -2 3 -7t3 -7q0 -6 7 -13q8 -8 30 -22q18 -22 19 -43q0 -18 -15 -37q-12 -16 -32 -19q-25 -4 -47 9q-37 29 -54 55q-20 31 -28 57q-12 45 -17 62q-4 18 -20 73q-4 8 -4 12.5t-4 12.5q-2 2 -5 4l-6 4 q-27 -10 -43 -33q-25 -33 -34 -55l-15.5 -31.5t-17.5 -38.5q-10 -25 -35 -69q-18 -33 -41 -60q-20 -23 -51 -36q-18 -4 -25 -2q-8 2 -20 14q-20 20 -33 49q-16 37 -22.5 57.5t-14.5 61.5q-8 37 -14 57q-6 29 -14.5 56.5t-16.5 56.5q-25 90 -33 115l-3 12q-3 12 -7 22 q-16 45 -20 54q-12 28 -25 49q-12 23 -23 24q-33 -29 -55 -59q-33 -45 -51 -76q-33 -57 -47 -88l-41 -90l-39 -88l-33 -78q-8 -18 -21.5 -53t-15.5 -41l-37 -94l-8 -16.5t-6 -16.5q-6 -16 -14 -33q0 -4 -2 -10t-4 -10q-4 -12 -13 -21l-2 -2q-2 -2 -4 -2q-8 -4 -10 -4v-8 q-2 -33 -18 -49q-18 -18 -37 -19h-2q-16 0 -37 17q-23 18 -25 47q4 45 8 135q1 30 2 55q0 41 -4 78q-12 152 -22 221l-31 219q-4 21 -4 31z" />
<glyph unicode="n" horiz-adv-x="700" d="M0 205q0 41 2 61l6 72q4 37 6 59q0 2 3 40t3 57q0 31 5 96q4 61 8 94q8 68 14 94q2 14 12 27q12 16 17 26q25 20 43 21h4q16 0 33 -10q14 -12 20 -31q6 -20 -4 -49q-29 -41 -49 -100q-18 -53 -33 -138q-8 -49 -12 -147q-1 -13 -1 -27q0 -53 9 -149q16 92 35 131l45 94 q12 27 27 53q14 33 28 49l35 47q12 16 37 46q20 25 40.5 39t43 20t49.5 -4t53 -37q18 -18 43 -64q18 -35 39 -92q25 -70 37 -108q8 -23 18.5 -64l12.5 -49l26 -100q18 -68 21 -76q0 -29 -14 -45q-16 -20 -33 -23h-11q-14 0 -26 7q-18 8 -33 36q-18 111 -20 127 q-12 98 -23 150q-18 92 -35 143q-23 74 -51 113q-4 4 -14 12q-2 2 -8.5 5t-10.5 5q-10 -6 -22 -8q-10 -2 -21 -12q-23 -29 -51 -74q-27 -43 -43 -82q-29 -68 -35 -84q-16 -45 -16 -47t-1 -4t-1 -4l-21 -92q-8 -37 -14 -92q-4 -86 -37 -92q-37 -6 -47 -5q-27 4 -35 11 q-12 8 -20 28l-6 17.5t-7 17.5l-12 37q-8 25 -8 64v10z" />
<glyph unicode="o" horiz-adv-x="722" d="M0 406q0 39 6 81.5t19 85.5q12 45 32 82q18 33 47 70q14 16 52 45q16 10 28.5 22.5t24.5 20.5q25 18 57 25q25 6 60 16q25 6 47 6h10q33 -4 49 -10q27 -10 47 -25l45 -28q12 -8 15 -11q10 -10 12 -16q4 -8 10 -26.5t10 -26.5q10 -27 15 -60q51 -66 78 -139 q29 -78 34 -166v-18q0 -47 -14 -90q-18 -53 -53 -105q-39 -57 -80 -92q-39 -35 -102 -67q-41 -20 -109 -33q-29 -4 -39 -4q-35 0 -72 10q-35 12 -71 35q-27 16 -60 53q-20 23 -43 68q-16 31 -22 75q-12 74 -21 111q-12 56 -12 111zM76 403q0 -43 2 -69q4 -53 8 -82 q8 -53 16 -82q14 -45 29 -70q23 -35 51 -55q33 -23 64 -29q19 -3 41 -3q14 0 30 1q39 4 72 19q52 22 98 61q39 33 74 90q29 45 41 107q5 24 5 49q0 33 -9 68q-14 53 -39 98q-16 31 -61 84q-29 12 -39 41q-6 4 -17.5 14t-17.5 17q-10 6 -18.5 14t-18.5 16q-14 14 -20.5 30.5 t-4.5 29.5h-10h-10q-35 -2 -78 -21q-29 -12 -67 -43q-25 -18 -54 -59q-20 -29 -39 -72q-24 -68 -28 -154z" />
<glyph unicode="p" horiz-adv-x="667" d="M0 662q0 29 2 40q2 18 10 37t13 21q16 12 18 14q4 2 8 2l4 1q4 1 6 1q20 39 48 58q35 25 63 34q35 10 68 11h6q35 0 73 -15q23 -8 68 -28q35 -14 59 -41q46 -46 80 -98.5t56 -110.5q29 -76 37 -121t20 -125q4 -25 4 -37q0 -18 -2 -29q-4 -41 -20 -63q-23 -31 -27 -39 q-12 -22 -31 -37q-6 -6 -12 -6l-12 -4q-37 -10 -64 -12q-18 -2 -51 2q-23 2 -49 16q-33 16 -64 37q-41 27 -78 63l-21 20.5t-26.5 24t-23.5 21.5q-25 25 -25 49q0 27 13 39q18 18 38 21q23 2 50 -17q35 -35 65 -72q27 -31 70 -67q49 -39 76 -45q18 -4 32 -5q18 0 31 7 q27 12 41 45q12 29 16 84q1 13 1 26q0 38 -7 74q-10 53 -26 92q-18 43 -43 86q-16 29 -58 82q-29 33 -49 47q-31 23 -63 31q-37 10 -64 10q-35 0 -57 -14q-25 -16 -39 -43q-13 -26 -13 -62q0 -8 1 -16q-4 -29 -14.5 -43t-31.5 -20q-2 -29 -2 -72q0 -10 -1 -27.5t-1 -25.5 t-1 -26.5t-1 -28.5v-74q0 -100 6 -199q4 -66 17 -196l18 -197l19 -197q-4 -37 -19 -51q-16 -16 -38.5 -16t-39.5 14q-18 16 -22 47q7 150 7 299q0 50 -1 99q-4 207 -20 393l-7 67l-6 66q0 10 -2 30.5t-4 47.5l-6 55q-2 18 -2 55v11z" />
<glyph unicode="q" horiz-adv-x="753" d="M0 858v6q0 10 10 25q12 16 19 22q4 2 10 8.5l10 10.5l12 12q15 15 37 19h23q18 0 29 -3q18 -2 55 -14q10 -4 29.5 -11t23.5 -9q10 -4 27.5 -12.5t19.5 -8.5q29 -12 33 -14q8 -4 20 -12q2 -2 10.5 -6.5t10.5 -6.5q16 8 39 2q20 -6 39 -30l41 -66q4 -6 12 -19.5t12 -19.5 q18 -20 39 -53q14 -23 25 -53q2 -4 9 -25.5l11 -34.5q4 -16 10.5 -37.5l12.5 -42.5q0 -20 -11 -36q-8 -14 -22 -23q-2 -4 -4 -11t-2 -11.5t-2 -10.5t-4 -10q14 -25 8 -47q-6 -25 -37 -43q-18 -6 -37 -21q-23 -20 -33 -30q-16 -16 -30 -35q-20 -23 -29 -31l2 2q2 2 5 7t5 8 q-43 -49 -80 -99q-35 -47 -57 -100q-20 -49 -20 -113q0 -57 28 -131q8 -18 27 -31l37 -24h41q25 0 41 8q27 10 49 27q25 18 45 38.5t39 45.5q6 8 26 49q6 12 15 41q4 14 4 47q0 27 -8 45q-10 23 -27 37q-14 10 -33 20q-25 12 -37 17q-8 4 -18 8t-18 6q-25 8 -37 14 q-18 18 -23 43q-3 22 6 37q12 18 31 25q25 8 47 0q31 -18 84 -45q31 -14 64 -41q27 -20 43 -57t22 -93v-16q0 -37 -10 -66q-14 -39 -43 -84q-25 -39 -68 -77q-41 -39 -82 -62q-47 -27 -88 -35q-12 -2 -36.5 -2t-49.5 6q-49 16 -71 45q-29 35 -39 68q-12 39 -19 78 q-10 72 -12 80q-4 20 -4 39q0 28 8 57q18 61 41 102q37 66 59 97q12 18 62 82q-37 12 -68 38q-31 25 -63 62q-31 34 -56 67q-37 49 -40 58q-25 37 -37.5 53t-36.5 53q-12 18 -33 56q-10 16 -18 61q-6 29 -17 70q-8 26 -8 61zM76 850q2 -16 2 -51q0 -25 10 -51 q33 -86 96 -183q55 -84 133 -155q39 -37 89 -58q10 -4 26 -8q20 20 31 29q20 16 33 22q4 16 4 23q0 4 2 11t2 11v14q0 40 -15 93q-12 41 -43 100q-14 27 -34 53l-19.5 24.5l-19.5 25.5q-47 43 -92 71.5t-99 46.5q-25 8 -39 9q-25 0 -39 2l-14 -15z" />
<glyph unicode="r" horiz-adv-x="518" d="M0 786q0 25 12 45q14 25 33 41q23 18 45 25q6 2 19 2q14 0 26 -6q20 -8 33 -25q16 -20 20 -32l11 -37q2 -14 2 -41v-53q0 -37 -2 -56q2 6 8 17.5t10 17.5q10 20 29 45q8 12 14 16q12 8 19 11q2 0 10 3t12 5q16 4 23 8q4 2 8 5t6 3q8 4 18 0q29 -4 54 -18q25 -16 51 -29 q27 -18 33 -43v-12q0 -16 -7 -29q-12 -18 -34 -24q-27 -8 -54 6l-28 20l-29 21q-12 -4 -20 -4q-10 0 -17 -6q-15 -15 -31 -37q-10 -14 -26 -47q-18 -39 -23 -48l-14 -43q-14 -45 -25 -100q-12 -66 -16 -100l-12 -103q-12 -98 -13 -102q-2 -8 -2 -23.5t-2 -23.5l-6 -47 q-8 -27 -26 -39q-14 -8 -31 -8h-6q-23 4 -35 16q-14 14 -19 45q2 4 2 10q0 8 3 13q-4 14 0 41q2 6 6 19t6 19q6 18 14 35q0 4 4 12.5t4 12.5l6 24q25 117 43 230q15 94 15 197v38q0 2 -1 7.5t-1 9.5t-1 12t-1 14q0 18 -2 29q0 4 -2 14.5t-4 14.5q-10 -18 -27 -25 q-20 -6 -34.5 -4t-31.5 18q-12 12 -16 43z" />
<glyph unicode="s" horiz-adv-x="446" d="M0 152q0 14 6 26q12 18 31 25q27 8 49 0q33 -25 64 -45q23 -16 57 -31q18 -8 55 -21q47 -16 68 -20l-21 41q-4 10 -16 27q0 2 -8.5 12t-14.5 18l-43 54q-25 34 -61 73q-25 27 -70 84q-39 49 -59 88q-27 51 -33 92q-2 8 -2 25q0 33 12 64q18 43 72 84q14 12 39 28 q23 14 43 23h4q29 0 43 -11q16 -10 23 -30q6 -18 -2.5 -39t-38.5 -35q-12 -6 -27.5 -12t-17.5 -8q-12 -6 -21 -17q-4 -4 -8 -12t-8 -12l-17 -25q4 -14 8 -43q4 -27 11 -41q22 -49 49.5 -92t60.5 -86l68 -82l29.5 -35.5l37.5 -44.5q12 -12 29 -41q23 -39 27 -45q4 -16 4 -18 q0 -10 -4 -19q-2 -2 -6 -8t-6 -8q-4 -4 -6.5 -9.5t-6.5 -9.5q-14 -14 -20 -16q-4 -2 -17 -2h-10q-4 0 -94 14q-6 0 -76 19q-14 4 -70 26q-23 10 -81 41q-22 22 -25 43v11z" />
<glyph unicode="t" horiz-adv-x="532" d="M0 487q0 16 12 39q35 27 72 52q10 6 72 51q6 61 14 170q2 20 5 54t5 62.5t2 53.5q6 33 27 47q16 10 35 10h6q23 -4 37 -20q14 -18 12 -52q-6 -39 -23 -120q-8 -33 -14 -66t-12 -61q37 27 69 43q39 18 76 30q33 2 51 -12q16 -14 21 -39q4 -23 -10 -41q-12 -18 -47 -24h-16 q-46 0 -87 -15q-37 -12 -78 -47q-29 -158 -34 -229q-3 -34 -3 -67q0 -77 15 -150q2 -16 12 -33q12 -20 19 -33q6 0 22 -4q12 -2 23 4q33 20 71 57q8 6 31 29t35 33q29 10 49 4q18 -6 31 -20q10 -16 10 -33v-4q0 -20 -21 -45q-41 -27 -67 -48l-45 -34q-4 -2 -11.5 -7.5 l-11.5 -8.5t-8 -5q-14 -8 -29 -10h-22h-19q-23 0 -63 6q-18 4 -27 8q-4 4 -16 23l-20 49l-19 49q-6 12 -6 41v66q0 25 4 77q2 27 6 76q0 10 1 31.5t3 32.5q4 37 4 39v10q-2 -4 -22 -31l-11.5 -16l-11.5 -17q-25 -16 -47 -12t-34.5 16.5t-16.5 34.5v6z" />
<glyph unicode="u" horiz-adv-x="700" d="M0 438q0 78 2 117q2 18 2 57t2 58q4 78 4 116q6 31 26.5 45.5t41.5 12.5q23 -4 37 -21q16 -18 12 -53q-14 -100 -21 -139q-8 -47 -20 -141.5t-12 -143.5q0 -88 12 -141q10 -51 39 -90q25 -35 59 -47q30 -11 61 -11h13q40 3 80 19q41 16 76 39q41 27 67 51q4 4 11.5 10 t11.5 10t6 9l25 30q-12 82 -17 121q-8 86 -14 123q-2 8 -8 55q-2 12 -4.5 23.5t-2.5 21.5q-2 8 -3 22.5t-1 22.5q0 6 -2 21.5t-4 36.5q-2 14 -2 45q0 8 -1 22.5t-1 22.5q0 18 4 39q2 10 2 33q-2 6 -2 14l1 2l1 2v2v2q6 25 22.5 41t35.5 16h2q12 0 34 -14q16 -10 23 -39v-8 q0 -29 -6 -57q-6 -33 -19 -58q-10 -82 -10 -135q0 -84 4 -123q6 -49 23 -119q12 -51 37 -127q14 -14 14 -32q14 -29 16 -35t17 -35q4 -20 4 -27q0 -14 -6 -26q-12 -23 -31 -29q-25 -8 -43 0q-23 10 -37 39q-2 0 -2 2q-63 -45 -113 -65q-57 -23 -127 -39q-6 -2 -17 -4t-17 -5 h-17q-12 0 -18 3q-10 2 -31 2q-8 0 -29 4q-6 2 -14 4t-14 2q-15 3 -25 12q-10 8 -20.5 18.5l-18.5 18.5q-16 16 -32 39q-16 20 -27 57q-4 16 -14 64q-2 10 -5.5 29.5t-5.5 29.5q-8 41 -10 62q-4 38 -4 116zM643 186l4 -10v2z" />
<glyph unicode="v" horiz-adv-x="681" d="M0 829q6 27 22.5 43.5t34.5 16.5q16 0 37 -15q14 -10 25 -38q-4 -102 -4 -160q0 -90 8 -164q10 -98 27 -166q16 -76 53 -153l90 153q49 82 86 156l37 76l37 77q12 25 41 74q14 25 47 70q23 18 45 18q19 0 39 -14l10 -10q2 -2 6 -11q16 -23 16 -41v-4q0 -18 -8 -28 q-10 -16 -26 -23q-18 -8 -35 -2q-68 -74 -107 -137q-53 -86 -84 -152q-53 -115 -69 -159l-64 -164q2 -23 -6 -41q-9 -18 -25 -25q-6 -4 -22 -4h-12q-16 2 -39 25l-10.5 16t-8.5 16q-8 16 -14 35q-22 80 -31 160q-12 106 -20 160q-20 123 -39 207q-22 100 -37 208z" />
<glyph unicode="w" horiz-adv-x="1187" d="M0 895q0 23 12 39q14 16 35 22q2 0 5 1t5 1q14 0 31 -10q22 -12 31 -43q6 -88 24 -188q18 -98 50 -197q35 -113 69 -194q41 -98 88 -181q6 14 14.5 27.5t12.5 24.5l26 53l41 69q20 37 48 78q14 23 55 72q23 29 61 49q18 10 22.5 10t11.5 2t11 5q15 0 25 -7q10 -6 12 -20 q14 -39 15 -76q0 -29 4 -78q6 -55 18 -118q12 -66 35 -115l78 176q40 86 73 178q33 86 68 193q31 95 68 190q16 29 38 35q27 6 43 -2q20 -10 29 -31q4 -12 4 -20.5t-8 -32.5l-100 -174q-53 -96 -84 -180q-37 -102 -58 -193l-24 -100l-23 -94q-12 -34 -37 -43q4 -4 5 -7l4 -4 q8 -6 14 -14q18 -23 14 -49q-2 -23 -18 -39q-15 -12 -37 -12h-2q-27 0 -49 22q-45 55 -70 123q-25 63 -37 133q-10 59 -14 139q-4 94 -4 144q-52 -52 -86 -117q-33 -61 -62 -133q-2 -4 -5 -12.5t-5 -12.5t-5 -13t-5 -13q0 -2 -2 -7.5t-4 -7.5q0 -2 -2 -6l-4 -8q2 0 2 -2 l-1 -2l-1 -2l-1 -2q-1 -2 -1 -4l-2 -6l-13 -41q0 -4 -4 -10.5t-4 -10.5l-4 -16l2 -4l2 -4l2 -5q2 -4 4 -4q8 -23 0 -47q-6 -18 -24 -30q-15 -9 -37 -7q-18 2 -41 25l-4 4t-2 4t-2 5t-4 5q-12 8 -19 23q-8 16 -6 31q-37 84 -70 190l-63 195l-45 116l-43 115q-29 78 -41 117 q-25 78 -35 119v14z" />
<glyph unicode="x" horiz-adv-x="749" d="M0 106q0 12 2 21q78 127 133 201l146 190q-8 8 -11 12l-8 13q-20 31 -43 61q-2 4 -47 60q-33 41 -49 57q-31 31 -57 49q-23 23 -23 47q0 29 12 41q16 16 37 19h8q20 0 43 -17q57 -53 103 -127q55 -88 86 -147q53 68 102 121q41 45 119 108q25 16 45 23q33 8 47 14 q29 0 47.5 -12.5t24.5 -28.5t-4 -39q-8 -20 -31 -35l-41 -6q-27 -4 -41 -10q-18 -8 -45 -25q-16 -10 -49 -34q-10 -6 -24.5 -20.5l-18.5 -18.5q-20 -20 -37 -35l-33 -33q-8 -8 -28 -33l26 -47q16 -33 27 -47q70 -113 151 -231l154 -232q2 -8 2 -26q0 -14 -2 -21 q-9 -22 -25 -31q-16 -8 -26 -8q-2 0 -5 1t-5 1q-25 4 -44 23q-74 164 -139 286q-72 139 -162 275q-74 -100 -116 -189q-61 -125 -92 -202q-18 -20 -39 -27q-18 -6 -37 4q-18 8 -27 29q-6 12 -6 26z" />
<glyph unicode="y" horiz-adv-x="837" d="M0 -121q0 37 4 53q4 39 31 91q20 41 69 67q16 10 35 10q16 0 45 -4q14 -2 39 -6q4 0 10.5 -1t9.5 -2t5 -1q31 -9 43 -31q12 -23 4 -37t-29 -30q-16 -14 -53 -11q-6 2 -17.5 4.5t-17.5 4.5t-18.5 4t-18.5 4q-6 -6 -18 -14q-8 -4 -14 -19q-14 -27 -15 -67q0 -53 2 -78 q4 -41 15 -72q14 -41 30 -59q12 -12 20.5 -14.5t24.5 -10.5q18 8 37 14q20 6 33 21q33 37 47 55.5t39 54.5l31 56q6 10 15 31.5t13 29.5l33 78l29 78q-12 10 -19 26q-2 8 -7 22.5t-7 18.5q-8 25 -12 39l-51 127q-12 29 -60 123l-45 80l-22.5 39l-22.5 39t-39 82 q-18 40 -31 86q-4 35 11 51q15 18 37 25h10q16 0 31 -9q18 -10 28 -45q6 -82 31 -155q29 -84 59 -142q63 -119 76 -135l84 -133l45 135l45 133l35 97l31 96q8 29 14 45t10 45q6 33 26.5 47t41.5 12q23 -4 37 -20t14 -45v-8q-4 -29 -14 -54q-4 -12 -10.5 -26.5l-12.5 -28.5 q-16 -41 -71 -172l-76 -172q-2 -6 -16.5 -37t-20.5 -47l-33 -88q2 -14 -4 -31q-6 -14 -16 -22q-20 -57 -54 -127q-31 -66 -61 -121q-25 -41 -43 -78q-4 -8 -29 -51q-8 -14 -24 -35q-8 -10 -29 -26q-16 -14 -39 -25q-8 -4 -23.5 -13.5t-37.5 -19.5q-4 -2 -13 -2h-4q-2 0 -6 1 l-4 1l-25 8q-14 2 -28 11q-16 8 -25 14q-10 8 -16 20q-8 14 -17.5 27.5t-15.5 24.5q-14 25 -25 57q-12 45 -18 92q-2 14 -2 45zM432 145l4 -4q-2 0 -2 2v2h-2z" />
<glyph unicode="z" horiz-adv-x="868" d="M0 -104v12q18 68 43 131q29 70 55 115q35 57 74 104q47 57 94 104q39 39 60 56q12 10 63 47l68 47l61 49q8 8 17.5 14.5t17.5 14.5q12 10 31 28l12 13q2 2 5 7t5 7q-14 2 -41 2q-4 0 -20.5 1t-28.5 1q-70 0 -139 -6q-94 -8 -141 -10q-12 0 -46 -4q-27 -4 -49 0 q-29 4 -41 12q-18 12 -26 39q-2 20 4 41q4 12 22 27q10 8 31 8t33 -11h4q23 2 68 3q10 0 34.5 -1.5t34.5 -1.5h-2h-16h-17h-2q104 0 156 3q19 1 38 0l116 -7q2 0 12 -1t16 -1q8 0 37 -4q14 -2 39 -6q14 -2 27 -10q23 -15 23 -39q0 -11 -5 -23q-2 -4 -8 -10l-4 -3 q-4 -3 -6 -5q-12 -12 -33 -41q-4 -8 -35 -37q-47 -43 -57 -49l-62 -43q-12 -8 -27.5 -20.5t-33.5 -22.5l-64 -43q-86 -63 -147 -131q-72 -78 -111 -154q45 27 97 41q47 14 106 21q76 8 111 10q39 2 114 2h107q37 0 98 8q31 2 51.5 -14t22.5 -37v-6q0 -16 -12 -35 q-14 -20 -48 -27q-25 -2 -53 -2q-6 0 -17 -1t-16 -1h-32q-31 0 -56 2l-90 7l-92 6q-13 1 -26 1q-20 0 -64 -3q-43 -2 -90 -17q-59 -18 -98 -49q-41 -33 -66 -88q0 -2 -2 -4l-4 -4t-4 -5t-2 -5q-2 -6 -2 -15v2q-8 -14 -23 -22q-6 -2 -14 -2h-10q-14 4 -21 16q-4 7 -4 19z" />
<glyph unicode="{" horiz-adv-x="585" d="M0 457q0 14 14 26q16 14 41 21l18.5 6t20.5 6q29 8 41 16q18 12 37 37q8 8 12 27q4 20 4 33v33v24q0 40 -6 80q-4 25 -8 82q-4 53 -2 80q3 40 18 80q14 39 33 65q20 33 39 47q4 4 45 33q8 6 25.5 16.5t21.5 12.5l52 30q33 20 51 37q20 20 45 21h4q27 -4 39 -16.5 t16 -39.5v-4q0 -25 -20 -45q-33 -27 -70 -45l-74 -37q-35 -16 -67 -47q-37 -33 -51 -67q-10 -23 -15 -54q-4 -37 -4 -53q0 -37 2 -55.5t2 -52.5q2 -29 2 -88q0 -39 -10 -86q-9 -40 -37 -68q-31 -31 -61 -47q2 -2 6 -2t6 -2l4 -4t6 -2q29 -16 45 -33q4 -4 41 -51 q8 -10 37 -64q18 -34 31 -67q16 -45 22 -66q6 -18 11 -55q4 -23 0 -47q-4 -33 -9 -47q-6 -25 -22 -66l-33 -78q-16 -41 -27 -74q-12 -37 -6 -61q2 -14 23 -25q33 -16 41 -18q16 -4 53 -8q18 -2 51 -2h41h23q29 -10 39 -25q12 -18 12 -37q0 -20 -14 -34q-16 -16 -43 -23 q-29 4 -90 8q-45 2 -97 17q-45 12 -84 41q-37 27 -51 77q-10 37 2 78q14 53 33 88l41 86q23 45 31 76q10 35 4 92q-6 43 -27 105q-16 47 -47 94q-29 45 -61 65q-20 12 -31 15l-31 6h-33q-23 0 -32 2q-18 8 -23 29v4z" />
<glyph unicode="|" horiz-adv-x="167" d="M0 -190v96q0 14 2 41.5t2 40.5q0 49 2 73l4 76q4 53 4 84q2 45 4 101q4 152 5 450q0 223 -7 451q6 25 22.5 41t35.5 16h2q16 0 35 -12q14 -10 24 -41q-18 -287 -18 -293q-8 -98 -21 -295q-6 -98 -10 -295t0 -295q2 -37 2 -115l6 -116q2 -39 15 -117q9 -58 30 -111 q4 -16 4 -26q0 -14 -6 -27q-12 -23 -31 -29q-12 -4 -20 -4q-14 0 -23 4q-23 10 -36 39l-11 42l-6 26q-4 14 -8 51q-2 16 -2 58v86z" />
<glyph unicode="}" horiz-adv-x="591" d="M0 -330q0 22 12 37q18 18 39 21q23 2 49 -17q14 -10 27 -10q10 0 31 4q10 2 26 14q12 8 19 23q8 23 12 45q2 12 6 45q2 25 2 72q0 12 -1 35.5t-1 36t-1 36t-1 35.5q0 23 4 72q8 55 25 94q23 51 53 94q29 41 72 80q45 41 84 59l-58 31q-37 20 -55 37q-27 23 -43 45 q-12 16 -25 57q-14 53 -4 109q8 43 29 106q4 10 16 48q10 27 11 49q2 37 -21 90q-18 41 -61 92q-37 43 -84 72q-51 31 -92 30q-33 4 -50 23q-14 16 -14 39q0 20 19 39q16 14 49 18q41 -4 53 -8q27 -6 47 -18q27 -14 62 -41q41 -33 61 -56q27 -29 53 -69q33 -49 43 -74 q16 -39 23 -76q6 -31 -2 -71q-6 -31 -23 -70l-31 -78q-10 -25 -18 -78q-6 -43 6 -69q14 -31 37 -52q33 -29 51.5 -41t59.5 -32l55 -27q16 -10 16 -29q0 -14 -18 -26q-55 -16 -100 -51q-46 -37 -80 -86q-33 -47 -52 -105q-18 -55 -18 -113l6 -73q2 -12 4 -37t4 -37 q6 -74 6 -76q0 -37 -6 -74q-8 -51 -37 -94q-27 -41 -67 -63q-39 -20 -86 -21h-4q-49 0 -94 33q-25 25 -25 49v2z" />
<glyph unicode="~" horiz-adv-x="1011" d="M0 356q0 16 12 39l3 4q3 4 5.5 6.5t3.5 4.5h1v-7l38 64q25 41 37 55q18 20 54 35q18 8 49 8q20 0 33 -2q35 -4 57 -22q2 -2 20.5 -17.5t26.5 -23.5l63 -62q43 -43 66 -63q39 -35 72 -58q41 -27 80 -41q49 -16 92 -10q47 6 80 45q25 31 49 76l43 80q22 18 43 18 q20 0 37 -10q14 -8 20 -31q0 -2 1 -7t1 -9q0 -14 -6 -33q-4 -4 -22.5 -29.5l-28.5 -39.5q-25 -37 -56 -68q-33 -33 -67 -53q-33 -18 -86 -23h-10q-43 0 -86 17q-55 23 -88 43q-43 29 -78 59q-16 12 -34.5 29.5t-39.5 34.5q-25 18 -33 26l-43 33l-45 31q-18 14 -43 20 q-8 2 -16 0l-19 -6l-2 -2q-16 -25 -41 -78q-20 -47 -45 -78q-25 -16 -47 -12t-34.5 16.5t-16.5 34.5v6z" />
<glyph unicode="&#xa2;" horiz-adv-x="813" d="M0 479q0 47 2 70q4 49 8 80q8 49 17 73q14 37 30.5 57.5t22.5 27l12 13.5t12 13q35 39 91 53q45 12 88 11l-7 346q6 25 22.5 41t35.5 16h2q16 0 35 -12q14 -10 24 -41q-18 -287 -18 -293l-6 -74l41 -18q51 -25 80 -66q18 -27 22 -31t11 -14t12 -16q6 -6 6 -10q2 0 4 -5 l2 -4q4 -4 6 -8q12 -37 -8 -63q-16 -23 -53 -19q-33 2 -50 23q-14 18 -12 37q-25 45 -63 73q0 2 -2 2t-5 2l-4 -53t-2 -51q-9 -147 -12 -295q-2 -127 0 -256q29 4 41 6q76 16 166 43l166 43q29 0 45 -10q18 -12 24 -31q2 -4 2 -14q0 -14 -4 -23q-8 -20 -32 -34 q-14 -2 -131 -27l-152 -29q-61 -8 -121 -12v-66l6 -116q2 -39 15 -117q9 -58 30 -111q10 -33 -2 -53q-12 -23 -30 -29q-12 -4 -21 -4q-14 0 -22 4q-23 10 -37 39l-11 42l-6 26q-4 14 -8 51q-2 16 -2 58v86v96q0 33 4 82v10q-43 3 -80 12q-49 14 -86 47q-35 33 -53 74 q-20 47 -29 92q-6 33 -10 99q-4 37 -4 63q0 12 -1 39t-1 41v14zM63 426v-84q4 -57 11 -86q8 -41 24.5 -76t42.5 -59q29 -27 68 -35q14 -4 43 -4h16q2 18 2 55q4 53 4 84q2 45 5 101q6 227 6 450q0 2 -1 4t-1 4q-41 8 -84 -6t-76 -63q-16 -25 -27 -49q-2 -2 -12 -54 q-8 -39 -10 -53q-4 -37 -6 -53v2q-5 -45 -5 -78z" />
<glyph unicode="&#xa3;" horiz-adv-x="851" d="M0 608q0 14 10 31q14 20 37 29q119 4 176 4q88 0 174 12q4 0 10.5 1t10.5 1t10 1t8 1q4 74 4 111q0 55 6 116q2 8 3.5 25.5t1.5 28.5q4 55 8 75q0 4 4 35t8 47q10 49 23 78q15 37 36 62q25 27 52 32q14 4 36 5q10 0 27 -5q29 -10 45 -22l39 -29q16 -12 45 -20 q31 -9 43 -31q10 -16 10 -31q0 -2 -1 -5t-1 -5q-6 -18 -24 -35q-16 -14 -51 -10q-29 6 -52 23q-41 29 -45 32.5l-14 12.5q-12 10 -21 12h-2q-2 2 -4 2q-20 -10 -26 -29l-13 -37q-20 -72 -34 -172l-21 -174q-4 -25 -4 -39q0 -10 -1 -20t-1 -21l123 21l123 18q27 -8 39 -26.5 t12 -34.5q0 -23 -14.5 -37t-42.5 -20q-43 4 -121 8q-82 4 -123 4q0 -2 -2 -27.5t-4 -38.5q-8 -41 -15 -59q-20 -66 -43 -121q-33 -78 -53 -115q90 -35 156 -63q78 -35 160 -59q25 -20 28 -37q6 -20 0 -39q-6 -20 -24 -29q-18 -10 -47 -6q-66 27 -142 63q-76 39 -139 66 q-16 6 -23 10q-10 6 -20 10q-16 -25 -57 -69.5t-64 -65.5q-8 -8 -29 -16q-31 -12 -34 -14q-6 -2 -15 -3l-4 3q-8 0 -16 4q-2 2 -8.5 5t-8.5 5t-14 10q-6 6 -10 14q-3 6 -6 19q2 14 2 43q0 20 6 41q8 27 10 35q4 20 8 34q8 25 12.5 35.5t20.5 30.5q16 18 43 23q33 4 53 2 q18 -2 56 -15l47 -14q29 49 43 84q10 23 28 84q12 41 19 82q8 59 10 84q-2 0 -7 -1t-7 -1h-12q-76 -10 -173 -35l-170 -41q-31 4 -45 18q-16 16 -18 33v6zM152 100q41 18 71 50q35 35 58 65q-29 12 -43.5 16.5t-40.5 4.5q-8 -25 -21 -48q-8 -16 -20 -49q-2 -6 -2 -18 q0 -2 -1 -10.5t-1 -10.5zM618 1194q2 -2 5 -2l-2 1z" />
<glyph unicode="&#xa5;" horiz-adv-x="1071" d="M0 1153q0 23 8 37q8 18 29 24q18 6 39 0q16 -4 37 -28q14 -63 32 -109q29 -70 48 -102q14 -27 61 -96l65 -91l3 -2l92 -104q51 -57 96 -100l2 -2l27 47q6 10 15 23.5t19 31.5q70 117 183 283l188 276q25 20 45 21h4q16 0 33 -11q14 -12 21 -30q0 -2 1 -7.5t1 -9.5 q0 -14 -7 -33l-159 -184q-86 -96 -156 -188q-72 -96 -131 -205q-23 -37 -45 -88q43 4 84 7t84 7l205 19q27 -8 39 -26.5t12 -37.5q0 -20 -14.5 -34.5t-42.5 -20.5l-203 18q-78 8 -189 4l-24 -75q-2 -2 -2 -10.5t-2 -10.5q80 -3 153 6q88 8 156 19q43 6 129 22q31 2 51 -14 q16 -14 20.5 -37t-10.5 -41q-14 -20 -47 -27q-115 4 -176 9q-78 6 -176 2q-82 -4 -119 -9q-4 -23 -8 -71q-4 -45 -4 -72q0 -55 -2 -94q-8 -25 -29 -39q-14 -8 -30 -8h-7q-16 2 -32 18q-18 18 -21 43q8 59 10 94q3 46 19 93l8 24q-41 -6 -137 -14q-33 4 -49 22q-14 16 -15 39 q0 18 18.5 37t49.5 21q106 -12 160 -17l8 20.5t6 20.5l16 43q-70 -6 -125 -20q-113 -25 -188 -54q-31 -6 -51 7q-23 12 -29 32q-4 16 6 41q8 20 39 33q72 12 146 19q45 4 147 8h39l-4 4q-55 77 -105 160q-45 76 -104 161q-29 41 -57 76q-12 14 -31 41l-25 35q-31 39 -53 78 q-31 49 -45 86v10z" />
<glyph unicode="&#xa9;" horiz-adv-x="1187" d="M0 512q0 53 6 102q4 45 17 117q10 55 20 92q14 49 31 97q33 96 39 106q27 55 55 96q35 49 72 72l39 25l38 22q35 18 68 27q39 8 84 12h35q35 0 51 -2q33 -2 68 -14q16 -6 49 -23q45 -25 49 -27q-4 20 4 33q10 16 23 25q10 6 34 6q16 0 39 -16q33 -31 86 -95 q51 -61 88 -116q25 -35 76 -131q37 -70 59 -138q20 -66 31 -137q2 -16 2 -51q0 -45 -8 -78q-18 -86 -63 -153.5t-109 -122.5q-66 -55 -143 -93q-80 -37 -162 -55q-84 -18 -168 -18q-88 0 -162 20q-51 14 -106 45l-103 56q-49 25 -80 69q-27 39 -43 103q-16 61 -16 122v23z M72 530q0 -68 12 -124q12 -55 47 -107q34 -49 92 -86q57 -37 142 -57q59 -14 137 -15q72 0 149 19q90 23 148 49q71 34 129 80q55 43 94 108q35 59 45 135q8 82 -8 142q-20 80 -51 143q-37 76 -76 135q-45 68 -94 123q-20 -12 -49 -8t-56 16q-33 16 -49 27l-49 29 q-12 8 -51 20q-10 4 -35 8t-37 4h-37q-6 0 -15 -1t-14 -1q-46 -3 -86 -18q-35 -12 -65 -37q-33 -25 -64 -65q-23 -31 -47 -76q-12 -23 -34 -86q-10 -29 -27 -86q-23 -72 -35 -137q-16 -91 -16 -134zM213 682q-2 37 16.5 76t49.5 65q33 31 75 54q53 29 82 38q35 12 82 21 l57 6q18 2 56 -2q23 -2 51 -18q20 -12 37 -41q8 -31 0 -51.5t-31 -30.5q-18 -8 -41 -2q-22 6 -37 30q-4 4 -8 4h-8q-16 2 -49 2.5t-49 -2.5q-37 -2 -76 -14q-27 -8 -53.5 -24.5t-42.5 -38.5l-41 -60q6 -14 6 -32q0 -14 10 -29q35 -47 90 -76q58 -31 123 -49q68 -20 133 -23 q76 -4 119 4q45 8 63 17q41 16 62 22q29 0 45 -10q18 -12 24.5 -30.5t-2.5 -38.5q-8 -16 -32 -33q-29 -6 -70 -17q-12 -2 -43 -8q-25 -4 -31 -4h-30q-8 0 -45 4q-41 2 -74 6q-61 8 -88 17q-45 12 -82 32l-28.5 16.5t-29.5 14.5q-41 20 -59 33q-39 25 -51 37q-20 18 -45 49 q-31 45 -35 86z" />
<glyph unicode="&#xad;" d="M0 434q0 20 12 41q2 2 9.5 8t13.5 15q6 10 24 16q33 16 66 23q35 6 65 6h13q37 0 55 -2q23 -2 70 -2q6 0 22.5 -1t24.5 -1h47q6 0 11 -1t7 -1h19q20 4 41 -3q16 -6 26 -22q8 -16 9 -29v-6q-3 -22 -19 -43l-10 -5t-8 -3q-6 -4 -21 -6q-10 0 -18 2q-20 6 -31 8 q-25 8 -39 12q-10 2 -84 21q-65 15 -92 12q-35 -4 -51 -10q-23 -8 -39 -29q-8 -12 -14 -22q-2 -6 -4.5 -12.5t-6.5 -10.5q-20 -12 -41 -12l-2 1q-2 1 -4 1q-25 4 -35 14q-12 12 -16 35v6zM465 535h2h8h2h-6h-6z" />
<glyph unicode="&#xae;" horiz-adv-x="1083" d="M0 942v19q0 20 8 65q4 27 21 61q10 23 34 48l62 67q35 39 70 58q43 27 108 38q72 14 129 15q68 0 135 -13q66 -12 131 -34q-8 23 -2 43q6 16 23 30q14 10 33 11h2q14 0 41 -19l75 -106l76 -107l2 -4q2 -4 4 -4q2 -2 4 -6l43 -119q31 -88 39 -121q14 -55 21 -125 q0 -6 1 -20t1 -21q0 -47 -8 -86q-6 -35 -23 -104l-20 -102q-8 -37 -17 -50l-24 -45q-23 -39 -27 -45q-10 -14 -27 -43q-10 -18 -28 -37q-4 -4 -10.5 -9l-13.5 -10t-11 -9q-25 -20 -39 -29q-8 -4 -37 -29q-16 -14 -39 -20q-14 -4 -42.5 -8t-45.5 -6q-45 -6 -47 -7 q-25 -4 -39 -4q-12 0 -41 4q-45 10 -82 29q-45 23 -80 49q-61 47 -75 62q-45 45 -64 67l-28.5 38t-20.5 26q-47 68 -76 135q-27 61 -43 131q-18 82 -26 139q-4 33 -11.5 75t-13.5 89q-2 14 -2 43zM80 834q2 -70 18 -144q18 -86 39 -143q29 -80 58 -131q35 -61 69 -107 q37 -47 84 -84q46 -37 98 -61q43 -20 105 -31q57 -10 106 2q53 12 103 43q47 29 90 88q29 39 47 78q12 27 33 84q23 72 28 139q8 84 3 144q-8 86 -23 143q-16 59 -47 133q-16 -4 -33 2q-18 6 -33 23q-14 27 -16 37q-4 16 -23 34q-35 37 -90 66q-57 29 -116 43 q-76 18 -129 20q-70 4 -127 -8q-66 -12 -111 -41q-55 -35 -82 -80q-29 -47 -41 -114q-12 -69 -10 -135zM293 973q-2 18 2 31q6 16 22 28q14 12 41 12q61 -4 91 -8q51 -8 88 -20q41 -14 90 -43q39 -25 78 -66q31 -35 51 -84q16 -41 6 -100q-16 -78 -64 -113q-49 -37 -120 -49 q-8 -2 -33 -2q-12 0 -37 -4q23 -18 63 -59q31 -31 60 -64l59 -65l62 -64q18 -27 16 -49q-2 -20 -20 -39q-12 -12 -41 -12q-25 0 -48 22l-55 74q-10 12 -25.5 32.5t-29.5 43.5l-27 39q-2 2 -28 35q-6 6 -11.5 14t-13.5 16q-15 18 -31 31l6 -113q2 -29 5.5 -55.5t5.5 -54.5 q-4 -33 -21 -51q-16 -16 -37 -17q-23 0 -39 14q-18 16 -22 48l22 157q10 74 15 170q2 78 -11 166q-12 84 -51 150v18q-15 13 -18 31zM434 928q10 -41 10 -74v-72q0 -23 -4 -71.5t-4 -79.5v-4q25 6 60 2q41 -4 49 -4t15 1t15 1q6 0 17.5 3t15.5 3q31 8 41 16q18 14 29 33 q25 47 16 86q-10 39 -41 72q-35 35 -71.5 53t-81.5 29q-33 6 -66 6z" />
<glyph unicode="&#xb4;" horiz-adv-x="352" d="M0 1053q0 20 12 41q12 12 20.5 19l19.5 16.5l26 21.5q31 29 72 55q2 2 7 7.5t8 9.5t7 6q2 2 27 16l14 15q8 8 14 12q20 8 37 6q10 2 27 2h8q12 -6 18 -12q2 -2 11 -19v-4q0 -14 -11 -24q0 -16 -8 -31q-8 -12 -28 -27q-2 0 -5 -2l-6 -6l-4 -2q-2 -2 -2 0l6 6l9 8l6 7h-2 q-18 -12 -33 -33q-10 -14 -35 -39q-23 -23 -35 -31q-20 -12 -47 -6l2 -2q0 -4 -4 -12q-2 -4 -10 -17l-15 -14q-2 -2 -5 -7l-3 -5q-20 -12 -41 -13h-6q-23 4 -35 16.5t-16 35.5v6zM119 1042l6 7q2 2 2 5q2 3 2 5q-2 -2 -5 -6t-5 -9v-2z" />
<glyph unicode="&#x2000;" horiz-adv-x="686" />
<glyph unicode="&#x2001;" horiz-adv-x="1372" />
<glyph unicode="&#x2002;" horiz-adv-x="686" />
<glyph unicode="&#x2003;" horiz-adv-x="1372" />
<glyph unicode="&#x2004;" horiz-adv-x="456" />
<glyph unicode="&#x2005;" horiz-adv-x="342" />
<glyph unicode="&#x2006;" horiz-adv-x="227" />
<glyph unicode="&#x2007;" horiz-adv-x="227" />
<glyph unicode="&#x2008;" horiz-adv-x="169" />
<glyph unicode="&#x2009;" horiz-adv-x="272" />
<glyph unicode="&#x200a;" horiz-adv-x="75" />
<glyph unicode="&#x2010;" d="M0 434q0 20 12 41q2 2 9.5 8t13.5 15q6 10 24 16q33 16 66 23q35 6 65 6h13q37 0 55 -2q23 -2 70 -2q6 0 22.5 -1t24.5 -1h47q6 0 11 -1t7 -1h19q20 4 41 -3q16 -6 26 -22q8 -16 9 -29v-6q-3 -22 -19 -43l-10 -5t-8 -3q-6 -4 -21 -6q-10 0 -18 2q-20 6 -31 8 q-25 8 -39 12q-10 2 -84 21q-65 15 -92 12q-35 -4 -51 -10q-23 -8 -39 -29q-8 -12 -14 -22q-2 -6 -4.5 -12.5t-6.5 -10.5q-20 -12 -41 -12l-2 1q-2 1 -4 1q-25 4 -35 14q-12 12 -16 35v6zM465 535h2h8h2h-6h-6z" />
<glyph unicode="&#x2011;" d="M0 434q0 20 12 41q2 2 9.5 8t13.5 15q6 10 24 16q33 16 66 23q35 6 65 6h13q37 0 55 -2q23 -2 70 -2q6 0 22.5 -1t24.5 -1h47q6 0 11 -1t7 -1h19q20 4 41 -3q16 -6 26 -22q8 -16 9 -29v-6q-3 -22 -19 -43l-10 -5t-8 -3q-6 -4 -21 -6q-10 0 -18 2q-20 6 -31 8 q-25 8 -39 12q-10 2 -84 21q-65 15 -92 12q-35 -4 -51 -10q-23 -8 -39 -29q-8 -12 -14 -22q-2 -6 -4.5 -12.5t-6.5 -10.5q-20 -12 -41 -12l-2 1q-2 1 -4 1q-25 4 -35 14q-12 12 -16 35v6zM465 535h2h8h2h-6h-6z" />
<glyph unicode="&#x2012;" d="M0 434q0 20 12 41q2 2 9.5 8t13.5 15q6 10 24 16q33 16 66 23q35 6 65 6h13q37 0 55 -2q23 -2 70 -2q6 0 22.5 -1t24.5 -1h47q6 0 11 -1t7 -1h19q20 4 41 -3q16 -6 26 -22q8 -16 9 -29v-6q-3 -22 -19 -43l-10 -5t-8 -3q-6 -4 -21 -6q-10 0 -18 2q-20 6 -31 8 q-25 8 -39 12q-10 2 -84 21q-65 15 -92 12q-35 -4 -51 -10q-23 -8 -39 -29q-8 -12 -14 -22q-2 -6 -4.5 -12.5t-6.5 -10.5q-20 -12 -41 -12l-2 1q-2 1 -4 1q-25 4 -35 14q-12 12 -16 35v6zM465 535h2h8h2h-6h-6z" />
<glyph unicode="&#x2013;" horiz-adv-x="1024" d="M0 377v166h999v-166h-999z" />
<glyph unicode="&#x2014;" horiz-adv-x="2048" d="M0 377v166h2023v-166h-2023z" />
<glyph unicode="&#x2018;" horiz-adv-x="358" d="M0 1260q0 23 12 38q16 18 35 25h10q16 0 31 -8q22 -12 31 -43q0 -27 2 -35q2 -4 4 -12t4 -13q2 -12 10 -26q6 -10 13 -35q12 -18 36 -47q31 -35 37 -41q8 -6 22.5 -19.5t20.5 -19.5q8 -8 22.5 -18.5t28.5 -22.5q16 -23 17 -43v-6q-2 -20 -21 -39q-15 -12 -36 -12h-3 q-27 0 -49 22l-24.5 46.5l-22.5 43.5q-23 39 -55 82q-4 6 -16.5 21.5t-18.5 21.5l-33 37q-10 12 -30 41q-12 18 -27 49v13z" />
<glyph unicode="&#x2019;" horiz-adv-x="155" d="M0 834q0 16 4 49q8 61 10 94q3 55 0 110q-2 33 -10 109q6 31 27 45q18 12 35 12h6q23 -4 37 -20q16 -20 14 -51q-8 -37 -21 -84q-10 -35 -20 -94q-10 -49 -6 -97q4 -49 22 -80q2 -4 7.5 -8t7.5 -8q4 -4 7 -9t7 -9q4 -20 4 -25q0 -16 -2 -23q-9 -22 -25 -30q-12 -6 -26 -6 h-10q-25 4 -43 22q-8 20 -13 29q-8 16 -10 26q-2 17 -2 48z" />
<glyph unicode="&#x201c;" horiz-adv-x="497" d="M0 1167v11q0 27 16 55q23 20 50 20q23 0 38 -16q14 -14 16.5 -36.5t-16.5 -49.5q-4 -20 -8 -70q-4 -35 0 -69q2 -23 17 -90q14 -66 20 -88q8 -25 14 -60q-4 -33 -18 -49q-18 -18 -39 -18q-18 0 -38.5 16t-22.5 45q4 27 8 104q0 18 1 36t2 27t1 11q0 14 -2 21q-3 9 -6 30 q-2 27 -13 60q-14 45 -16 59q-4 16 -4 51zM326 1194q0 27 16 55q23 20 47 21h2q25 0 39 -15q12 -12 16 -38q2 -20 -18 -50q-2 -10 -3 -21t-2 -25.5t-1 -22.5q-4 -35 0 -70q4 -37 8 -59q2 -10 7 -29.5t7 -30.5q4 -14 7.5 -29.5t7.5 -29.5q8 -25 14 -59q-2 -33 -18 -50 q-18 -18 -39 -18q-18 0 -39 16q-18 16 -23 47q6 37 6 76q0 27 5 76v-2l2 -4v12q0 4 -1 11.5t-1 9.5q0 12 -3 18q0 2 -1 7t-2 11.5t-1 12.5q-2 18 -14 59q-6 20 -14 62q-4 20 -4 59z" />
<glyph unicode="&#x201d;" horiz-adv-x="497" d="M0 1167v11q0 27 16 55q23 20 50 20q23 0 38 -16q14 -14 16.5 -36.5t-16.5 -49.5q-4 -20 -8 -70q-4 -35 0 -69q2 -23 17 -90q14 -66 20 -88q8 -25 14 -60q-4 -33 -18 -49q-18 -18 -39 -18q-18 0 -38.5 16t-22.5 45q4 27 8 104q0 18 1 36t2 27t1 11q0 14 -2 21q-3 9 -6 30 q-2 27 -13 60q-14 45 -16 59q-4 16 -4 51zM326 1194q0 27 16 55q23 20 47 21h2q25 0 39 -15q12 -12 16 -38q2 -20 -18 -50q-2 -10 -3 -21t-2 -25.5t-1 -22.5q-4 -35 0 -70q4 -37 8 -59q2 -10 7 -29.5t7 -30.5q4 -14 7.5 -29.5t7.5 -29.5q8 -25 14 -59q-2 -33 -18 -50 q-18 -18 -39 -18q-18 0 -39 16q-18 16 -23 47q6 37 6 76q0 27 5 76v-2l2 -4v12q0 4 -1 11.5t-1 9.5q0 12 -3 18q0 2 -1 7t-2 11.5t-1 12.5q-2 18 -14 59q-6 20 -14 62q-4 20 -4 59z" />
<glyph unicode="&#x2026;" horiz-adv-x="595" d="M397 78l2 12q2 18 16 43q12 23 31 35q20 14 47 14q2 0 15 -4q4 -2 10 -4t8 -4l16 -8l13 -6q14 -20 14 -39l2 -2v-2v-4q-2 -2 -2 -5q0 -6 -2 -12q-4 -14 -8 -18q-10 -20 -17 -27q-8 -10 -36 -24q-2 -2 -41 -13l-13 -2l-8 -2h-2l-6 2l-4 4l-8 4l-7 7q-8 6 -14 24l-4 10z M199 78l2 12q2 18 16 43q12 23 31 35q20 14 47 14q2 0 15 -4q4 -2 10 -4t8 -4l16 -8l13 -6q14 -20 14 -39l2 -2v-2v-4q-2 -2 -2 -5q0 -6 -2 -12q-4 -14 -8 -18q-10 -20 -17 -27q-8 -10 -36 -24q-2 -2 -41 -13l-13 -2l-8 -2h-2l-6 2l-4 4l-8 4l-7 7q-8 6 -14 24l-4 10zM0 78 l2 12q2 18 16 43q12 23 31 35q20 14 47 14q2 0 15 -4q4 -2 10 -4t8 -4l16 -8l13 -6q14 -20 14 -39l2 -2v-2v-4q-2 -2 -2 -5q0 -6 -2 -12q-4 -14 -8 -18q-10 -20 -17 -27q-8 -10 -36 -24q-2 -2 -41 -13l-13 -2l-8 -2h-2l-6 2l-4 4l-8 4l-7 7q-8 6 -14 24l-4 10z" />
<glyph unicode="&#x202f;" horiz-adv-x="272" />
<glyph unicode="&#x205f;" horiz-adv-x="342" />
<glyph unicode="&#x2122;" horiz-adv-x="2279" d="M1053 1159v8q0 15 6 31q20 35 47 37t45 -12l25 -13q18 -29 39 -55q10 -14 37 -57q55 -98 98 -197l88 -201l113 -239q49 -100 110 -244l88 223l88 224l47 127l48 127q33 82 51 122q23 49 63 121l6 6l5 2q4 2 4 5q4 4 10 9t10 9t10 8t13 8q0 2 -1 6.5t-1 6.5v10q6 27 22 43 q14 14 35 14h2q16 0 35 -12q14 -10 24 -39q-4 -84 -10 -158q-2 -27 -5 -79t-5 -78q-4 -57 -8 -156q-2 -53 -2 -158q4 -166 20 -309q12 -111 45 -309q-2 -35 -18 -49q-18 -18 -37 -19h-2q-16 0 -37 17q-23 18 -25 47q-4 78 -8 233q-2 78 -2 234q0 51 2 77q1 12 1 26 q0 8 -0.5 24.5t-0.5 25.5l-6 230q-2 76 -10 227q-8 -10 -39 -59q-23 -35 -39 -66q-10 -18 -17.5 -34.5t-15.5 -31.5q-23 -41 -24 -47q-49 -100 -84 -194q-45 -123 -70 -201l-57 -203q-23 -80 -51 -204q-12 -33 -33 -41q-23 -10 -41 -5q-20 6 -33 27q-12 23 -6 53q0 4 2 10.5 t4 10.5l6 18q-14 2 -26 13q-14 10 -23 30l-82 275q-47 150 -100 266q-45 100 -97 182q-53 86 -118 170q-4 -49 -4 -53q0 -6 -1 -18.5t-1 -18.5t-1.5 -20.5t-1.5 -22.5q0 -6 -1 -31.5t-1 -46.5q-1 -26 0 -56q0 -45 2 -134l13 -191q8 -127 14 -190.5t14 -190.5q-4 -37 -18 -51 q-16 -16 -38.5 -16t-39.5 14q-18 16 -22 47q12 193 12 383q0 227 -12 383q0 4 -4 53q0 8 -2.5 22.5t-3.5 27t-1 24.5l-4 39t-2 35q-4 49 -4 53q0 23 -2 33q-4 20 -4 31q-2 8 -2 22zM0 1221v2q0 18 18.5 36.5t49.5 20.5l239 -25q135 -14 240 -14q37 0 106 4q18 0 53 2t54 2 q16 0 57 4t62 4q39 0 59 -2q29 -2 55 -16q27 -18 33 -43v-14q0 -16 -6 -29q-12 -18 -34.5 -24.5t-51.5 8.5q-12 8 -53 14q-47 8 -80 10q-14 2 -42 5t-40 3q-27 2 -60 2v-8q-41 -125 -57 -192q-23 -100 -35 -187q-10 -82 -14 -188q-1 -25 -1 -52q0 -65 5 -151q4 -49 8 -143 q4 -76 13 -146q0 -6 2 -14t4 -14l6 -31q2 -10 2 -29q0 -14 -8 -28q-20 -25 -37 -27q-2 0 -6 -1l-4 -1q-12 0 -37 10q-12 8 -19 15q-4 4 -7 8t-7 8q-12 25 -10 43q4 25 14 35v26v29l4 65.5t2 63.5q2 20 2 63.5t2 65.5q4 111 8 332q4 168 25 334l12 59q8 41 15 62q-31 1 -65 0 l-175 -4q-39 -2 -119 -7.5t-119 -7.5q-29 2 -47 25q-16 21 -16 37z" />
<glyph unicode="&#xe000;" horiz-adv-x="875" d="M0 875h875v-875h-875v875z" />
<glyph unicode="&#xfb01;" horiz-adv-x="997" d="M813 1147q0 16 6 29q0 23 10 53q8 16 27 28q12 4 18 5h13q10 -2 30 -19q12 -10 23 -31q16 -10 25 -22q8 -14 8 -37v-6q-12 -33 -27 -49q-23 -23 -37 -29q-18 -8 -39 -2q-23 6 -32 25q-4 4 -9 12q-2 2 -5 6t-5 8q-2 2 -2 8q0 2 -4 7v14zM838 786q6 27 22 43q14 14 35 15 q18 0 37 -13q14 -10 24 -40l-24 -191q-12 -80 -17 -190q-1 -16 0 -32q0 -82 13 -159q14 -88 37 -186q0 -29 -15 -45q-14 -18 -33 -21q-2 0 -5 -1t-5 -1q-10 0 -26 8q-20 8 -33 35q0 20 -4 58q-2 18 -2 57q0 71 6 141q4 45 8 144q1 25 1 51q0 63 -5 139q-8 120 -14 188z M0 713q0 8 2 14q6 20 27 39l41 16q4 2 41 13q51 14 88 16l90 8h2q2 6 3 24.5t1 26.5q0 10 3 35t5 39q2 31 10 86q8 57 15 84q10 45 18 71.5t25 47.5l39 45l41 45q4 4 18 10q8 4 20 4q49 -8 74 -10q37 -3 68 -18q29 -14 45 -33q16 -20 33 -45l30 -47q16 -27 33 -43 q16 -23 16 -43v-8q-2 -20 -18 -37q-14 -14 -41 -15q-23 0 -47 25q-6 6 -20 35l-29 51l-27 45q-12 20 -22 25l-43 12l-43 12q-14 -14 -33 -26q-20 -14 -29 -33q-18 -31 -35 -82q-10 -31 -22 -92q-12 -57 -17 -95q-8 -61 -10 -88l99 13l96 12q29 -10 39 -25q12 -18 12 -36 q0 -20 -14 -35q-16 -16 -43 -23q-33 4 -59.5 9.5t-47.5 7.5q-29 4 -86 8q-3 -48 -3 -102q0 -34 1 -72q2 -29 3 -88.5t1 -87.5l6 -175q1 -22 1 -46q0 -59 -5 -130q-8 -27 -26 -39q-16 -10 -31 -10l-2 1q-2 1 -4 1q-20 4 -35 19t-18 43q12 88 18 170l12 172q0 29 4 85t4 85 q2 57 11 172q-37 -4 -92 -31q-55 -25 -111 -66q-29 -6 -47 3q-20 8 -29 26q-6 13 -6 25z" />
<glyph unicode="&#xfb02;" horiz-adv-x="1005" d="M813 891v27q0 72 2 106q2 57 21 100q4 10 7 18.5t7 18.5l16 37q16 29 39 35q6 2 19 2q16 0 24 -4q18 -10 29 -33q4 -12 4 -20.5t-8 -32.5q-4 -6 -10.5 -14.5t-8.5 -14.5q-12 -20 -16 -33q-12 -29 -19 -63q-2 -12 -7 -35.5t-7 -36.5q-4 -25 -8 -74q-2 -33 -6 -63 q-6 -77 -7 -153q0 -106 13 -212q23 -188 57 -360q0 -29 -14 -45q-16 -20 -33 -23h-10q-14 0 -27 7q-18 8 -32 36q-12 147 -13 293q0 98 -4 295q0 20 -4 106.5t-4 135.5zM0 713q0 8 2 14q6 20 27 39l41 16q4 2 41 13q51 14 88 16l90 8h2q2 6 3 24.5t1 26.5q0 10 3 35t5 39 q2 31 10 86q8 57 15 84q10 45 18 71.5t25 47.5l39 45l41 45q4 4 18 10q8 4 20 4q49 -8 74 -10q37 -3 68 -18q29 -14 45 -33q16 -20 33 -45l30 -47q16 -27 33 -43q16 -23 16 -43v-8q-2 -20 -18 -37q-14 -14 -41 -15q-23 0 -47 25q-6 6 -20 35l-29 51l-27 45q-12 20 -22 25 l-43 12l-43 12q-14 -14 -33 -26q-20 -14 -29 -33q-18 -31 -35 -82q-10 -31 -22 -92q-12 -57 -17 -95q-8 -61 -10 -88l99 13l96 12q29 -10 39 -25q12 -18 12 -36q0 -20 -14 -35q-16 -16 -43 -23q-33 4 -59.5 9.5t-47.5 7.5q-29 4 -86 8q-3 -48 -3 -102q0 -34 1 -72 q2 -29 3 -88.5t1 -87.5l6 -175q1 -22 1 -46q0 -59 -5 -130q-8 -27 -26 -39q-16 -10 -31 -10l-2 1q-2 1 -4 1q-20 4 -35 19t-18 43q12 88 18 170l12 172q0 29 4 85t4 85q2 57 11 172q-37 -4 -92 -31q-55 -25 -111 -66q-29 -6 -47 3q-20 8 -29 26q-6 13 -6 25z" />
<glyph unicode="&#xfb03;" horiz-adv-x="1812" d="M1628 1147q0 16 6 29q0 23 10 53q8 16 27 28q12 4 18 5h13q10 -2 30 -19q12 -10 23 -31q16 -10 25 -22q8 -14 8 -37v-6q-12 -33 -27 -49q-23 -23 -37 -29q-18 -8 -39 -2q-23 6 -32 25q-4 4 -9 12q-2 2 -5 6t-5 8q-2 2 -2 8q0 2 -4 7v14zM1653 786q6 27 22 43q14 14 35 15 q18 0 37 -13q14 -10 24 -40l-24 -191q-12 -80 -17 -190q-1 -16 0 -32q0 -82 13 -159q14 -88 37 -186q0 -29 -15 -45q-14 -18 -33 -21q-2 0 -5 -1t-5 -1q-10 0 -26 8q-20 8 -33 35q0 20 -4 58q-2 18 -2 57q0 71 6 141q4 45 8 144q1 25 1 51q0 63 -5 139q-8 120 -14 188z M813 713q0 8 2 14q6 20 27 39l41 16q4 2 41 13q51 14 88 16l90 8h2q2 6 3 24.5t1 26.5q0 10 3 35t5 39q2 31 10 86q8 57 15 84q10 45 18 71.5t25 47.5l39 45l41 45q4 4 18 10q8 4 20 4q49 -8 74 -10q37 -3 68 -18q29 -14 45 -33q16 -20 33 -45l30 -47q16 -27 33 -43 q16 -23 16 -43v-8q-2 -20 -18 -37q-14 -14 -41 -15q-23 0 -47 25q-6 6 -20 35l-29 51l-27 45q-12 20 -22 25l-43 12l-43 12q-14 -14 -33 -26q-20 -14 -29 -33q-18 -31 -35 -82q-10 -31 -22 -92q-12 -57 -17 -95q-8 -61 -10 -88l99 13l96 12q29 -10 39 -25q12 -18 12 -36 q0 -20 -14 -35q-16 -16 -43 -23q-33 4 -59.5 9.5t-47.5 7.5q-29 4 -86 8q-3 -48 -3 -102q0 -34 1 -72q2 -29 3 -88.5t1 -87.5l6 -175q1 -22 1 -46q0 -59 -5 -130q-8 -27 -26 -39q-16 -10 -31 -10l-2 1q-2 1 -4 1q-20 4 -35 19t-18 43q12 88 18 170l12 172q0 29 4 85t4 85 q2 57 11 172q-37 -4 -92 -31q-55 -25 -111 -66q-29 -6 -47 3q-20 8 -29 26q-6 13 -6 25zM0 713q0 8 2 14q6 20 27 39l41 16q4 2 41 13q51 14 88 16l90 8h2q2 6 3 24.5t1 26.5q0 10 3 35t5 39q2 31 10 86q8 57 15 84q10 45 18 71.5t25 47.5l39 45l41 45q4 4 18 10q8 4 20 4 q49 -8 74 -10q37 -3 68 -18q29 -14 45 -33q16 -20 33 -45l30 -47q16 -27 33 -43q16 -23 16 -43v-8q-2 -20 -18 -37q-14 -14 -41 -15q-23 0 -47 25q-6 6 -20 35l-29 51l-27 45q-12 20 -22 25l-43 12l-43 12q-14 -14 -33 -26q-20 -14 -29 -33q-18 -31 -35 -82q-10 -31 -22 -92 q-12 -57 -17 -95q-8 -61 -10 -88l99 13l96 12q29 -10 39 -25q12 -18 12 -36q0 -20 -14 -35q-16 -16 -43 -23q-33 4 -59.5 9.5t-47.5 7.5q-29 4 -86 8q-3 -48 -3 -102q0 -34 1 -72q2 -29 3 -88.5t1 -87.5l6 -175q1 -22 1 -46q0 -59 -5 -130q-8 -27 -26 -39q-16 -10 -31 -10 l-2 1q-2 1 -4 1q-20 4 -35 19t-18 43q12 88 18 170l12 172q0 29 4 85t4 85q2 57 11 172q-37 -4 -92 -31q-55 -25 -111 -66q-29 -6 -47 3q-20 8 -29 26q-6 13 -6 25z" />
<glyph unicode="&#xfb04;" horiz-adv-x="1818" d="M1628 891v27q0 72 2 106q2 57 21 100q4 10 7 18.5t7 18.5l16 37q16 29 39 35q6 2 19 2q16 0 24 -4q18 -10 29 -33q4 -12 4 -20.5t-8 -32.5q-4 -6 -10.5 -14.5t-8.5 -14.5q-12 -20 -16 -33q-12 -29 -19 -63q-2 -12 -7 -35.5t-7 -36.5q-4 -25 -8 -74q-2 -33 -6 -63 q-6 -77 -7 -153q0 -106 13 -212q23 -188 57 -360q0 -29 -14 -45q-16 -20 -33 -23h-10q-14 0 -27 7q-18 8 -32 36q-12 147 -13 293q0 98 -4 295q0 20 -4 106.5t-4 135.5zM813 713q0 8 2 14q6 20 27 39l41 16q4 2 41 13q51 14 88 16l90 8h2q2 6 3 24.5t1 26.5q0 10 3 35t5 39 q2 31 10 86q8 57 15 84q10 45 18 71.5t25 47.5l39 45l41 45q4 4 18 10q8 4 20 4q49 -8 74 -10q37 -3 68 -18q29 -14 45 -33q16 -20 33 -45l30 -47q16 -27 33 -43q16 -23 16 -43v-8q-2 -20 -18 -37q-14 -14 -41 -15q-23 0 -47 25q-6 6 -20 35l-29 51l-27 45q-12 20 -22 25 l-43 12l-43 12q-14 -14 -33 -26q-20 -14 -29 -33q-18 -31 -35 -82q-10 -31 -22 -92q-12 -57 -17 -95q-8 -61 -10 -88l99 13l96 12q29 -10 39 -25q12 -18 12 -36q0 -20 -14 -35q-16 -16 -43 -23q-33 4 -59.5 9.5t-47.5 7.5q-29 4 -86 8q-3 -48 -3 -102q0 -34 1 -72 q2 -29 3 -88.5t1 -87.5l6 -175q1 -22 1 -46q0 -59 -5 -130q-8 -27 -26 -39q-16 -10 -31 -10l-2 1q-2 1 -4 1q-20 4 -35 19t-18 43q12 88 18 170l12 172q0 29 4 85t4 85q2 57 11 172q-37 -4 -92 -31q-55 -25 -111 -66q-29 -6 -47 3q-20 8 -29 26q-6 13 -6 25zM0 713q0 8 2 14 q6 20 27 39l41 16q4 2 41 13q51 14 88 16l90 8h2q2 6 3 24.5t1 26.5q0 10 3 35t5 39q2 31 10 86q8 57 15 84q10 45 18 71.5t25 47.5l39 45l41 45q4 4 18 10q8 4 20 4q49 -8 74 -10q37 -3 68 -18q29 -14 45 -33q16 -20 33 -45l30 -47q16 -27 33 -43q16 -23 16 -43v-8 q-2 -20 -18 -37q-14 -14 -41 -15q-23 0 -47 25q-6 6 -20 35l-29 51l-27 45q-12 20 -22 25l-43 12l-43 12q-14 -14 -33 -26q-20 -14 -29 -33q-18 -31 -35 -82q-10 -31 -22 -92q-12 -57 -17 -95q-8 -61 -10 -88l99 13l96 12q29 -10 39 -25q12 -18 12 -36q0 -20 -14 -35 q-16 -16 -43 -23q-33 4 -59.5 9.5t-47.5 7.5q-29 4 -86 8q-3 -48 -3 -102q0 -34 1 -72q2 -29 3 -88.5t1 -87.5l6 -175q1 -22 1 -46q0 -59 -5 -130q-8 -27 -26 -39q-16 -10 -31 -10l-2 1q-2 1 -4 1q-20 4 -35 19t-18 43q12 88 18 170l12 172q0 29 4 85t4 85q2 57 11 172 q-37 -4 -92 -31q-55 -25 -111 -66q-29 -6 -47 3q-20 8 -29 26q-6 13 -6 25z" />
</font>
</defs>
</svg>
